<?xml version="1.0" encoding="utf-8"?>
<!-- Generator: Adobe Illustrator 24.0.1, SVG Export Plug-In . SVG Version: 6.00 Build 0)  -->
<svg version="1.1" id="Layer_1" xmlns="http://www.w3.org/2000/svg" xmlns:xlink="http://www.w3.org/1999/xlink" x="0px" y="0px"
	 viewBox="0 0 200.3367 350" style="enable-background:new 0 0 200.3367 350;" xml:space="preserve">
<path d="M153.19865,294.61279c10.99887-12.17734,9.82042-25.14029,14.53423-43.99551
	c2.74973-10.99887,3.53535-36.13916,12.96297-42.42424c12.96297,15.31987,19.64085,42.03143,19.64085,64.42201
	c0,21.99774-9.03479,42.42422-25.14029,56.56564C161.05499,341.75085,139.45006,350,115.88103,350
	c-26.31875,0-49.10213-9.03479-64.02918-24.74747c-13.35578-13.7486-21.99776-36.9248-21.99776-63.24356
	c0-7.85634,0.78563-19.24803,1.17845-24.35464C18.85522,236.47588,14.53423,233.72615,0,217.62065l1.57127-18.85522
	l17.28395-4.71381c16.1055,7.07071,8.24916,6.28508,16.49832,8.64198c0.39282-5.10663,6.67789-34.5679,14.92705-68.74298
	c-14.53423-1.9641-16.1055-7.46353-34.5679-29.46129l9.42761-18.85522c30.24692,12.96297,16.1055,13.7486,31.81818,11.78452
	c8.64198-38.10326,13.7486-63.63636,13.7486-73.45679l-0.78563-13.35578L83.67004,0
	c18.85522,11.78451,29.46127,23.56902,29.46127,34.96072c0,5.49944-1.96408,14.92705-5.89225,30.63973
	c-1.17845,3.92817-2.74973,9.42761-4.71381,16.89114c-1.96409,7.46352-4.32099,16.1055-6.67789,25.14029
	c0,0,2.3569,0.78564,7.85635,4.71381c6.67789,5.10662,16.1055,5.89226,18.85522,6.28507
	c2.74972,0.78564,10.99888,7.46352,15.71268,12.57014c2.74973,3.14253-3.14253-1.57127-3.14253,3.14253
	c0,7.46353-8.64198,14.53424-15.71268,15.71269c-5.49944,1.17845-20.03368-4.71381-30.24692-15.31987
	c-6.67789,23.56903-12.96296,52.24467-16.1055,70.31425c2.3569-12.57014-4.71381,4.71381,3.92817,3.14253
	c3.53535-0.39281,3.92817,1.17845,7.85635,3.14253c3.53535,1.9641,6.67789,3.14255,9.4276,3.14255
	c6.28507,0,18.4624,3.53535,23.56902,6.28506c4.71381,4.71381,7.85635,9.03479,7.85635,15.71269
	c0,10.99887-15.71268,12.96295-29.8541,14.1414c-20.8193,1.9641-25.14029-11.39169-31.42536-11.39169
	c1.96409,5.49944,3.53535,6.28508,3.14254,16.89114c0,37.31763,13.35577,52.63748,48.3165,53.0303
	C133.16498,309.14703,144.16386,304.82605,153.19865,294.61279z"/>
</svg>
