<?xml version="1.0" encoding="utf-8"?>
<!-- Generator: Adobe Illustrator 24.0.1, SVG Export Plug-In . SVG Version: 6.00 Build 0)  -->
<svg version="1.1" xmlns="http://www.w3.org/2000/svg" xmlns:xlink="http://www.w3.org/1999/xlink" x="0px" y="0px"
	 viewBox="0 0 270.19556 344" style="enable-background:new 0 0 270.19556 344;" xml:space="preserve">
<g id="Layer_1">
</g>
<g id="Layer_2">
	<g>
		<path d="M199.45659,344c-5.13376-1.16742-10.31363-2.1622-15.39415-3.52902
			c-50.18915-13.50208-82.02869-60.85742-77.02718-114.33179c2.01597-21.55391,8.54702-41.33113,23.21742-59.38681
			c-2.49218,0.95966-3.80694,1.35048-5.01951,1.94965c-35.41646,17.49971-70.81964,35.02646-106.23795,52.52237
			c-2.22509,1.09917-4.49848,2.15797-6.84849,2.9328c-5.86735,1.93457-8.29328,0.89911-10.1548-5.11552
			c-2.71821-8.78258-2.52655-17.77145-0.20111-26.61493c0.96582-3.67297,2.84839-7.09268,4.08994-10.70515
			c2.76467-8.04417,8.58627-11.53305,16.74255-11.31691c9.74766,0.25833,18.00579-3.26689,25.80602-8.8806
			c49.97255-35.96445,96.56046-75.56413,134.67969-124.474c3.45836-4.43732,3.84007-8.16732,0.28937-11.72129
			c-4.74519-4.74958-10.20761-8.77274-15.29132-13.18981c-1.07947-0.93791-1.85449-2.22876-2.76978-3.35701
			c1.3257-0.61735,2.60114-1.39949,3.98543-1.82472C177.02798,4.59034,184.75969,2.30997,192.48233,0c3.32108,0,6.64217,0,9.96324,0
			c0.23686,0.2197,0.44078,0.57111,0.71532,0.64034c19.23576,4.8502,33.18204,17.46807,45.71707,31.8828
			c4.05875,4.66738,3.76556,8.44113-0.75208,12.86342c-4.70071,4.60149-9.84283,9.10683-15.56436,12.22762
			c-13.26247,7.23393-24.81723,16.57955-35.87709,26.68637c-11.03967,10.08835-22.04539,20.21418-33.10605,30.27924
			c-0.95509,0.86913-2.20976,1.40664-3.32526,2.09819c0.33781,0.42363,0.67566,0.84726,1.01349,1.27089
			c10.45927-4.04647,20.86385-8.2435,31.39346-12.09631c10.17677-3.72369,20.05806-7.68714,31.51367-7.41532
			c18.9691,0.45011,39.4276,11.86202,46.0218,27.56277c0,1.66667,0,3.33333,0,5c-2.40964,7.14308-7.32877,10.22404-14.87263,10.9552
			c-26.82251,2.59966-51.80495,11.15553-75.04103,24.82159c-13.27722,7.80884-24.23544,18.03203-31.91765,31.55186
			c-4.54825,8.00443-6.83707,16.58258-6.17424,25.84927c1.27139,17.77458,10.8557,30.45641,25.05865,39.90483
			c12.58655,8.37305,25.80858,15.79288,38.28923,24.31357c6.7818,4.63,13.54027,9.91171,18.67003,16.2384
			c12.04994,14.86163,7.9847,31.28979-8.81015,39.36526C210.08405,344,204.77031,344,199.45659,344z"/>
		<path d="M29.74771,35.24518c5.21825,0.49978,9.9359,0.17501,14.14468,1.49043
			c17.35538,5.42427,31.3809,15.83765,41.57686,30.88996c6.77135,9.99653,7.02871,21.44289,3.69825,32.67171
			c-3.69806,12.46824-19.33213,16.52708-28.48349,7.18799c-4.52401-4.61681-8.21657-10.57932-10.68122-16.59502
			C44.8404,78.28996,40.77206,65.2398,36.18906,52.3979C34.2984,47.10009,32.23948,41.86278,29.74771,35.24518z"/>
	</g>
</g>
<g id="Layer_3">
</g>
<g id="Layer_4">
</g>
</svg>
