<?xml version="1.0" encoding="utf-8"?>
<!-- Generator: Adobe Illustrator 24.0.1, SVG Export Plug-In . SVG Version: 6.00 Build 0)  -->
<svg version="1.1" xmlns="http://www.w3.org/2000/svg" xmlns:xlink="http://www.w3.org/1999/xlink" x="0px" y="0px"
	 viewBox="0 0 335.37854 297.33688" style="enable-background:new 0 0 335.37854 297.33688;" xml:space="preserve">
<g id="Layer_1">
</g>
<g id="Layer_2">
</g>
<g id="Layer_3">
	<g>
		<path d="M132.78198,0c8.08717,1.6662,16.27489,2.95202,24.24257,5.07039c23.27039,6.18695,43.67206,16.7979,56.60051,38.42231
			c4.00626,6.70098,6.66592,13.61952,5.95007,21.71098c-1.2886,14.56554-10.79553,21.63379-25.29637,19.52368
			c-17.53951-2.55228-35.20137-4.25566-52.80356-6.38248c-1.67484-0.20237-3.30183-0.80312-5.69591-1.40673
			c4.74765-3.99657,8.98918-7.14792,12.73894-10.80631c9.29428-9.06783,9.73878-11.79781,0.43904-20.55481
			c-13.41772-12.63465-27.62132-24.4296-41.48367-36.58962c-1.58826-1.39321-3.13872-2.82976-5.91178-5.33484
			c5.60736-1.43524,9.93884-2.5439,14.27031-3.65257C121.48208,0,127.13203,0,132.78198,0z"/>
		<path d="M130.18375,100.41295c9.15004,12.81816,17.4088,25.2955,26.59993,37.03877
			c12.09384,15.45198,24.85686,30.38058,37.45204,45.4333c10.97379,13.11497,17.36244,28.09569,19.89572,45.0363
			c3.4167,22.84819-11.40816,60.58334-44.07188,67.46997c-36.68637,7.73474-68.49657-7.77878-86.27653-43.21777
			c-0.44551-0.88802-1.04711-1.8569-1.03663-2.78194c0.02138-1.88507-0.00082-3.99341,0.8474-5.5392
			c0.35046-0.63869,2.97357-0.37654,4.42707,0.00166c15.37184,3.99971,30.82917,6.73987,46.78867,4.18796
			c16.35139-2.61456,25.78383-12.00362,25.53343-26.7907c-0.08669-5.11928-1.64456-10.68144-4.0863-15.19452
			c-4.97101-9.18793-10.76244-17.96295-16.65448-26.60733c-7.05685-10.3533-13.90398-20.78073-17.35658-32.97583
			C117.59837,130.0589,120.8263,114.9441,130.18375,100.41295z"/>
		<path d="M228.55362,154.59737c2.72914-0.59656,4.69072-1.51657,6.56407-1.36189
			c33.48402,2.76463,61.67207,16.46898,83.82994,41.88728c10.38898,11.91769,15.55902,26.19307,16.38129,42.03708
			c0.49652,9.56802-2.78241,17.9984-7.69376,25.90102c-2.88129,4.63614-7.07001,6.70032-12.68359,6.07605
			c-10.17514-1.1315-17.88083-6.29739-23.0957-14.7749c-3.9917-6.48901-7.62802-13.33876-10.36627-20.43785
			c-11.10101-28.77988-28.19281-53.49388-49.59767-75.40634C230.98761,157.59207,230.20551,156.54625,228.55362,154.59737z"/>
		<path d="M8.8083,185.67426c9.40788,6.18637,16.50402,13.16692,21.31095,22.09358c2.26169,4.20006,4.88049,5.1194,8.73887,3.18652
			c7.85993-3.93745,15.81003-7.74699,23.38653-12.1868c9.14525-5.35905,17.94147-11.31728,28.28006-17.9023
			c-1.06073,3.4928-1.396,5.72125-2.37198,7.61806c-4.48855,8.72339-8.89332,17.50746-13.81271,25.98697
			c-10.94125,18.85936-22.07775,37.60703-33.34986,56.26945c-2.906,4.81128-6.55759,9.17752-9.96255,13.6752
			c-2.89358,3.82224-6.69116,4.04388-9.87044,0.96127c-4.23652-4.1077-8.71274-8.38278-11.54521-13.452
			c-8.08386-14.46768-11.69426-30.00787-8.39504-46.69189C3.76219,212.36105,6.16795,199.46202,8.8083,185.67426z"/>
	</g>
</g>
<g id="Layer_4">
</g>
</svg>
