<?xml version="1.0" encoding="utf-8"?>
<!-- Generator: Adobe Illustrator 24.0.1, SVG Export Plug-In . SVG Version: 6.00 Build 0)  -->
<svg version="1.1" xmlns="http://www.w3.org/2000/svg" xmlns:xlink="http://www.w3.org/1999/xlink" x="0px" y="0px"
	 viewBox="0 0 288.02051 311" style="enable-background:new 0 0 288.02051 311;" xml:space="preserve">
<g id="Layer_1">
</g>
<g id="Layer_2">
	<g>
		<path d="M237.87436,311c-6.50545-1.20209-13.08897-2.08401-19.50346-3.65906c-37.48329-9.20392-63.7816-33.01947-79.76735-66.9731
			c-25.35339-53.85043-20.83241-105.97145,14.64891-154.57439c1.25787-1.72306,2.59796-3.38571,3.33488-6.175
			c-11.97864,3.76594-24.03543,7.30084-35.91857,11.34906c-20.58096,7.01129-41.02414,14.4304-61.61757,21.40349
			c-2.15894,0.73103-5.31955,0.33548-7.3694-0.75745c-14.94296-7.96722-26.48547-19.91648-37.00026-32.9301
			C9.9176,72.78737,5.49871,66.61057,0,59.34038c3.51086-0.2291,5.5878-0.74901,7.52341-0.42326
			c7.68652,1.29356,15.36495,2.68592,22.97764,4.357c7.82138,1.7169,15.51805,1.53844,23.12228-0.81704
			c22.19355-6.87469,44.33666-13.91389,66.54318-20.74577c17.12568-5.26875,34.4267-9.9874,51.43885-15.59497
			c10.35788-3.41418,20.36874-7.924,30.43837-12.17336C212.71846,9.43827,223.2782,4.65923,233.88815,0
			c1.9931,0,3.98621,0,5.97931,0c1.52956,0.52885,3.04665,1.09781,4.59059,1.58031
			c14.60347,4.56369,28.23436,11.00128,38.85463,22.34398c7.50861,8.01938,5.82242,14.84026-3.53867,19.99966
			c-23.83961,13.13935-48.10747,25.62877-71.11124,40.12437c-21.59216,13.60612-36.91064,33.09324-44.99486,57.95469
			c-13.24614,40.73598,7.02193,73.73851,38.38759,90.73068c11.38802,6.1694,23.19231,11.56737,34.55676,17.77776
			c11.74052,6.41586,20.73575,15.51566,24.61542,28.80389c3.31851,11.36624,1.37775,25.7023-12.39127,31.68466
			C245.1824,311,241.5284,311,237.87436,311z"/>
	</g>
</g>
<g id="Layer_3">
</g>
<g id="Layer_4">
</g>
</svg>
