<?xml version="1.0" encoding="utf-8"?>
<!-- Generator: Adobe Illustrator 24.0.1, SVG Export Plug-In . SVG Version: 6.00 Build 0)  -->
<svg version="1.1" xmlns="http://www.w3.org/2000/svg" xmlns:xlink="http://www.w3.org/1999/xlink" x="0px" y="0px"
	 viewBox="0 0 262.09274 324" style="enable-background:new 0 0 262.09274 324;" xml:space="preserve">
<g id="Layer_1">
</g>
<g id="Layer_2">
</g>
<g id="Layer_3">
</g>
<g id="Layer_4">
	<g>
		<path d="M153.50407,0c2.65662,0,5.3132,0,7.96982,0c7.92221,3.72175,16.07356,7.03378,23.68025,11.31975
			c4.52353,2.54876,8.41032,6.40436,12.1671,10.09895c2.65042,2.60655,2.75246,5.77046,0.01007,8.88663
			c-2.96126,3.36487-5.5611,7.04787-8.36987,10.55066c-22.67838,28.28172-45.44957,56.48906-67.99216,84.87935
			c-4.92015,6.19646-9.03674,13.03582-14.37824,20.82575c2.97516-0.95305,4.47538-1.45493,5.98828-1.91478
			c9.04395-2.74899,18.00657-5.81825,27.15191-8.17146c32.61278-8.39162,63.19218-4.44421,90.8943,15.8316
			c15.43701,11.29868,26.43257,25.59238,29.9157,44.91095c0.58569,3.24841,1.03772,6.52112,1.55151,9.78259
			c0,3.66667,0,7.33333,0,11c-0.25467,0.94864-0.64737,1.88338-0.74374,2.84796
			c-2.17255,21.73763-12.31497,39.51331-27.7515,54.25781c-24.24443,23.15756-52.45421,39.19818-85.50487,46.02661
			c-4.51053,0.93192-9.01147,1.91058-13.51686,2.86761c-7.30566,0-14.61132,0-21.91698,0
			c-0.72758-0.37149-1.42048-0.85162-2.18784-1.09854c-19.84587-6.38593-31.66355-20.57794-34.72116-40.54526
			c-3.98199-26.00388,4.61422-48.68352,23.50739-66.98416c8.05727-7.8046,18.27977-9.82448,29.18179-7.93242
			c17.0414,2.95757,29.82579,13.1442,41.4575,25.12221c3.80795,3.92134,7.32675,8.1256,11.14243,12.38425
			c11.6012-7.32204,21.17743-16.20207,25.68159-29.54768c5.83781-17.29707,1.09225-29.85402-14.59816-38.9426
			c-16.10106-9.32642-33.00734-8.7128-50.14084-3.91475c-21.67013,6.06845-40.56543,17.48457-57.27126,32.24353
			c-15.55451,13.74184-30.2004,28.51738-45.31796,42.76122c-7.37188,6.94582-14.70462,13.95924-22.44428,20.47636
			c-4.62729,3.89636-7.73213,2.871-10.80522-2.46124c-0.82606-1.43332-1.48741-2.9769-2.09185-4.52209
			c-7.60913-19.45192-4.32221-37.21329,8.37528-53.44617c17.72668-22.66235,36.17859-44.79221,53.05893-68.07143
			c16.5802-22.86532,31.58497-46.88177,47.25909-70.40783c0.13307-0.19973-0.03767-0.6034-0.0718-0.96786
			c-5.12332,0.26001-10.23798,0.71525-15.35474,0.74015c-12.14224,0.0591-22.57614-4.48959-30.35832-13.67509
			c-7.18688-8.48286-13.44715-17.76121-20.00009-26.77379c-0.65326-0.89847-0.50438-2.3846-0.72778-3.59798
			c1.32671-0.20683,2.73743-0.81313,3.96589-0.5528c5.9997,1.27143,11.88778,3.39762,17.93739,4.01337
			c5.64466,0.57453,11.97156,1.04241,17.08226-0.8871C108.15783,18.75111,130.77203,9.21834,153.50407,0z M151.99516,262.45486
			c-5.35341-6.32242-9.74194-12.73119-15.36406-17.7467c-4.28889-3.82611-9.96516-6.30409-15.35647-8.59351
			c-3.96297-1.68285-7.80117,0.13023-9.48518,4.15491c-2.54677,6.08661-5.3503,12.26952-6.50575,18.69055
			c-1.76736,9.82159,8.09513,20.83475,16.99274,18.9404C133.01707,275.6138,142.80959,270.68463,151.99516,262.45486z"/>
	</g>
</g>
</svg>
