<?xml version="1.0" encoding="utf-8"?>
<!-- Generator: Adobe Illustrator 24.0.1, SVG Export Plug-In . SVG Version: 6.00 Build 0)  -->
<svg version="1.1" xmlns="http://www.w3.org/2000/svg" xmlns:xlink="http://www.w3.org/1999/xlink" x="0px" y="0px"
	 viewBox="0 0 249.94017 344" style="enable-background:new 0 0 249.94017 344;" xml:space="preserve">
<g id="Layer_1">
	<g>
		<path d="M249.94017,146c-3.4967,2.61668-6.62947,6.31943-10.5583,7.64638c-11.77525,3.97697-23.86702,7.00647-35.82324,10.44791
			c-3.62779,1.04422-7.21648,2.22545-11.49168,3.55127c1.44864,1.76907,2.51222,2.93793,3.43198,4.2115
			c7.9655,11.02975,16.49518,21.71277,23.60233,33.27625c3.52777,5.73973,5.13387,12.97974,6.35068,19.76839
			c1.80553,10.07298-4.1364,15.70251-14.36565,13.86603c-8.46951-1.52054-16.74695-4.08939-25.15521-5.98999
			c-18.91508-4.27557-37.86287-8.4052-56.78294-12.6588c-1.68187-0.37811-3.2585-1.22801-5.76096-2.1991
			c5.11016-2.57138,9.41123-4.33739,13.28948-6.78008c5.87849-3.70247,11.4847-7.84453,17.16347-11.86128
			c2.94026-2.07974,3.46344-5.05547,1.61508-7.88446c-2.6022-3.98286-5.42068-7.92867-8.77213-11.25517
			c-1.16223-1.15359-4.39206-1.06032-6.33264-0.44325c-30.66753,9.75174-61.39503,19.3414-91.82066,29.81215
			c-7.53376,2.59268-13.195,2.16174-18.37294-3.35648c-9.65306-10.28746-19.11437-20.75789-28.53503-31.26108
			C0.6612,173.81923,0.52093,172.00662,0,170.53818c1.60499-0.56744,3.33812-1.85414,4.79541-1.59245
			c16.98849,3.0506,33.04464-0.48659,49.2196-5.54613c20.41978-6.3873,41.19339-11.63283,61.80163-17.41663
			c2.53208-0.71066,4.98577-1.70288,8.1444-2.79601c-4.02621-7.84799-7.74054-15.39536-11.8432-22.72357
			c-0.55711-0.99512-3.14627-1.44854-4.64642-1.21078c-11.96519,1.89641-23.92983,3.83728-35.82156,6.14426
			c-6.88135,1.33496-13.22948,0.34075-19.26646-2.90675c-14.84027-7.98308-25.19704-20.70963-36.29028-34.37129
			c14.91135,0.74104,28.29379-1.90305,41.51575-5.50063c13.24921-3.605,26.45605-7.36698,40.25843-11.22127
			c-6.32008-13.41637-12.42535-26.51386-18.71406-39.52197c-0.65445-1.35371-2.29196-2.34191-3.65384-3.21637
			c-4.33287-2.78217-8.78621-5.37501-13.12491-8.14837c-3.32431-2.12495-3.40543-5.34087-0.04665-7.38412
			C69.68879,8.64823,77.16635,4.36356,84.5963,0c3.65217,0,7.30434,0,10.95652,0c6.51598,3.20379,13.15759,6.17761,19.51231,9.67662
			c6.24512,3.43867,10.18214,8.58872,11.24456,16.08025c0.86005,6.06456,2.61497,12.03208,4.34515,17.93264
			c1.71098,5.83504,3.88846,11.53222,5.8553,17.27236c6.66403-2.34005,12.51173-4.69366,18.53976-6.40827
			c4.26367-1.21275,9.32277-3.22387,13.06409-1.974c10.13344,3.38529,20.44148,7.22784,29.40027,12.91977
			c10.79146,6.85632,10.28998,19.1084-0.36641,26.32983c-5.25117,3.55854-11.45041,5.96545-17.51974,7.98946
			c-9.68384,3.22935-19.61726,5.70431-30.17281,8.70511c3.65514,5.68609,6.94666,10.81657,10.24844,15.94038
			c3.93091,6.10008,4.0125,6.2959,10.86165,3.58914c8.47852-3.35068,16.68649-7.41441,25.2328-10.56448
			c19.74266-7.27686,44.82314,2.37973,54.14198,20.51118C249.94017,140.66667,249.94017,143.33333,249.94017,146z"/>
		<path d="M103.52119,344c-7.31124-1.35199-14.69087-2.41205-21.91904-4.11868
			c-13.69232-3.23291-26.58904-8.44711-37.56547-17.53741c-21.00037-17.39182-23.94858-47.34796-6.5595-67.65538
			c3.13002-3.65532,7.24292-6.46233,10.90204-9.66098c0.45785,0.28906,0.9157,0.57813,1.37354,0.86719
			c0,3.07657,0.13954,6.16057-0.02224,9.22853c-1.21622,23.06473,11.08934,32.87711,31.94263,35.98502
			c15.44621,2.30209,30.38462-0.8157,45.38461-3.5882c16.49767-3.04935,32.96191-4.12509,49.13968,1.54761
			c11.66034,4.08868,17.95204,12.56512,17.63115,23.83279c-0.07976,2.8002-1.12697,5.92767-2.68257,8.26553
			c-5.16318,7.75952-12.70396,12.85065-21.38632,15.53052c-8.82413,2.72357-18.0197,4.23642-27.05701,6.2597
			c-1.76163,0.39438-3.5434,0.69821-5.31589,1.04376C126.09827,344,114.80974,344,103.52119,344z"/>
	</g>
</g>
<g id="Layer_2">
</g>
<g id="Layer_3">
</g>
<g id="Layer_4">
</g>
</svg>
