<?xml version="1.0" encoding="utf-8"?>
<!-- Generator: Adobe Illustrator 24.0.1, SVG Export Plug-In . SVG Version: 6.00 Build 0)  -->
<svg version="1.1" xmlns="http://www.w3.org/2000/svg" xmlns:xlink="http://www.w3.org/1999/xlink" x="0px" y="0px"
	 viewBox="0 0 315.27591 286" style="enable-background:new 0 0 315.27591 286;" xml:space="preserve">
<g id="Layer_1">
</g>
<g id="Layer_2">
</g>
<g id="Layer_3">
</g>
<g id="Layer_4">
	<g>
		<path d="M195.65445,286c-1.22607-0.43732-2.45216-0.8746-4.32954-1.54422c1.55168-1.46426,2.84392-2.63779,4.08575-3.8627
			c13.02226-12.84467,26.52446-25.24277,38.94275-38.65088c20.55351-22.19182,30.96605-48.89676,32.81236-79.12836
			c1.90308-31.16243-14.78841-51.36691-45.81305-54.57095c-14.64764-1.51272-28.85896,0.64997-42.27132,6.89311
			c-2.24255,1.04387-4.44135,2.99561-5.76192,5.09624c-16.9212,26.9163-33.63118,53.96619-50.54248,80.8888
			c-1.95138,3.10657-2.30918,5.92639-1.48101,9.39905c2.4703,10.35826,5.40209,20.6884,6.71827,31.21024
			c0.8,6.39528-0.14365,13.38503-1.92464,19.64363c-2.76953,9.73239-10.59074,11.94363-18.90545,6.36896
			c-8.75093-5.86719-15.19222-13.78265-20.25645-23.7713c-4.30782,3.62877-8.1843,6.91026-12.07819,10.17082
			c-7.26344,6.08205-14.21146,12.60823-21.88471,18.11702c-10.77212,7.73355-18.48769,6.21997-25.68498-4.84729
			c-7.97158-12.25784-15.7282-24.68755-22.90697-37.42328c-5.88224-10.43559-4.85465-21.95499-2.55401-33.18607
			c4.23737-20.6857,16.35712-36.6208,31.74518-50.16423c7.83858-6.89894,16.45078-12.94492,24.96653-19.01917
			c2.62951-1.8756,3.2688-3.42368,2.43108-6.46134c-5.87188-21.29185-6.14277-43.12-5.71381-64.97672
			c0.04129-2.10415,1.44798-4.18133,2.61006-7.32348c16.45784,16.0258,28.234,33.76098,35.69601,54.64995
			c1.03666-0.28695,1.83241-0.39277,2.5274-0.71635c16.56763-7.71393,33.14983-15.39762,49.6468-23.26115
			c1.79317-0.85474,3.62901-2.49327,4.51788-4.2424c6.10683-12.01673,12.29082-24.01767,17.66978-36.36572
			c1.28717-2.95482,0.81804-7.96309-0.92143-10.69567c-3.69301-5.80136-8.79173-10.69454-13.22987-16.03058
			c-1.45381-1.74791-2.64713-3.71382-3.9778-5.60595C160.75452,4.25205,170.72813,2.12602,180.70177,0
			c1.32912,0,2.65826,0,3.98738,0c1.71005,0.5982,3.42609,1.17979,5.1292,1.79727
			c11.92186,4.32239,22.29485,11.07784,30.73402,20.54453c5.60866,6.29149,5.89767,10.35845,1.73296,17.60993
			c-3.06006,5.3281-6.63139,10.35815-9.8026,15.62541c-2.52878,4.20019-4.79742,8.55796-7.77957,13.9213
			c2.91208,0,4.50191-0.11346,6.07121,0.01852c9.73225,0.81854,19.60538,0.90614,29.16338,2.68631
			c37.48837,6.98219,65.62268,34.082,73.07681,69.62572c0.77975,3.71819,1.50879,7.44708,2.26135,11.17101
			c0,8.33333,0,16.66667,0,25c-0.32632,1.42688-0.74841,2.83932-0.96484,4.28278
			c-3.98895,26.60526-12.71271,51.00159-30.71918,71.73531c-12.90524,14.85985-28.3295,24.79692-47.45535,28.98882
			c-5.15805,1.13052-10.37244,2.00247-15.56094,2.9931C212.26854,286,203.96149,286,195.65445,286z M67.29846,159.90974
			c-10.08555,6.15224-27.06388,26.04097-31.01091,36.23363c-3.03796,7.84508-1.95933,15.35399,2.15006,22.53526
			c4.94799,8.64674,11.45792,10.62158,19.33621,4.55c7.18857-5.54004,13.52682-12.22273,19.95916-18.68303
			c0.96201-0.96619,0.9014-3.62022,0.4374-5.24092c-2.42514-8.47081-5.25873-16.82379-7.6924-25.29234
			C69.16249,169.43475,68.36208,164.70822,67.29846,159.90974z M122.60128,134.77934
			c-0.41187-0.33046-0.82375-0.66093-1.23563-0.99139c-4.53147,2.83771-9.11012,5.60474-13.54693,8.58429
			c-0.72103,0.48419-1.25011,1.97035-1.12319,2.88994c0.62052,4.496,1.49337,8.95695,2.27701,13.4303
			c0.48048,0.12968,0.96095,0.25938,1.44143,0.38907C114.4764,150.9808,118.53884,142.88008,122.60128,134.77934z"/>
	</g>
</g>
</svg>
