<?xml version="1.0" encoding="utf-8"?>
<!-- Generator: Adobe Illustrator 24.0.1, SVG Export Plug-In . SVG Version: 6.00 Build 0)  -->
<svg version="1.1" xmlns="http://www.w3.org/2000/svg" xmlns:xlink="http://www.w3.org/1999/xlink" x="0px" y="0px"
	 viewBox="0 0 248.06566 332" style="enable-background:new 0 0 248.06566 332;" xml:space="preserve">
<g id="Layer_1">
</g>
<g id="Layer_2">
</g>
<g id="Layer_3">
	<g>
		<path d="M120.0847,0c2.65662,0,5.31325,0,7.96986,0c9.15497,4.21102,18.44104,8.16214,27.41841,12.7252
			c5.90134,2.99956,8.64159,8.1902,8.64886,15.13174c0.00764,7.28191,0.86542,14.56292,1.3026,21.11
			c8.30632,0.75416,16.19798,0.61516,23.66135,2.34159c12.3019,2.84569,23.54782,8.29018,31.39581,18.84688
			c4.83562,6.50464,4.5574,9.88238-0.94238,15.77404c-6.66318,7.13795-15.18138,11.2218-24.32439,14.03572
			c-9.83162,3.02583-19.75742,5.74325-29.59106,8.76273c-1.34225,0.41216-3.3494,1.73267-3.41255,2.73637
			c-0.33908,5.38774-0.1602,10.80833-0.1602,16.63707c2.50676-0.59906,4.27551-0.94122,5.99709-1.44559
			c17.73932-5.19694,33.83015,0.01414,49.09071,8.48523c8.48312,4.70897,9.49518,12.51724,3.46996,20.28075
			c-1.90511,2.4547-4.22765,4.91696-6.90173,6.36884c-6.09882,3.31125-12.36479,6.46548-18.86942,8.83594
			c-10.75072,3.91785-21.71616,7.25548-32.6534,10.63451c-2.6862,0.8299-3.60768,2.09343-3.63258,4.90741
			c-0.12694,14.33148-0.36725,28.66411-0.80637,42.98897c-0.09686,3.15977,1.04819,4.29872,3.90936,5.09003
			c10.07263,2.78574,20.13335,5.64604,30.08492,8.83537c21.86076,7.0061,40.07094,18.99265,52.41197,39.02246
			c4.78229,7.76178,4.73824,15.7724,2.24417,24.01688c-1.69588,5.60599-5.78609,9.07382-11.53777,9.67044
			c-3.88501,0.40298-8.2383,0.61743-11.7661-0.72046c-9.10905-3.45459-18.10844-7.37445-26.72351-11.92511
			c-11.73737-6.19986-23.0493-13.20776-34.6124-19.7467c-2.21486-1.25247-4.74777-1.93829-7.30748-2.95441
			c-8.54889,27.00241-27.28546,42.00742-53.21095,49.05753c-3.0188,0.82092-6.03168,1.66385-9.04729,2.49658
			c-9.29817,0-18.59634,0-27.89452,0c-3.03998-0.72238-6.06014-1.5459-9.12315-2.15076
			c-20.27233-4.00305-37.08059-13.14041-47.76536-31.75165c-16.95504-29.53302-3.75765-62.14671,28.92842-71.02078
			c16.94918-4.60162,34.19808-4.19501,51.4484-2.43005c9.02828,0.92372,18.00503,2.35487,28.18193,3.71404
			c0-12.91037,0-25.36748,0-37.77208c-12.24421,2.90659-24.83151,5.80945-37.37366,8.89711
			c-11.34724,2.7935-20.90933-0.33932-29.31095-8.16991c-10.38834-9.68224-17.97473-21.31494-23.86737-34.13213
			c-0.62722-1.36427-0.5007-3.07771-0.72384-4.62917c1.57261,0.02643,3.19891-0.20163,4.70936,0.11946
			c12.2873,2.61183,24.75666,4.35904,37.01783,1.08528c16.01462-4.27592,31.77103-9.53264,47.59759-14.49886
			c1.17513-0.36873,2.8474-1.76054,2.88654-2.73357c0.25872-6.43282,0.13375-12.88118,0.13375-19.76642
			c-16.16702,1.12531-31.25476-1.30338-44.88409-8.81857c-13.15383-7.25298-27.33864-13.70667-35.23843-28.98766
			c4.23865-0.71278,7.62002-1.29634,11.00648-1.84843c22.63652-3.69039,45.08552-8.10072,66.53839-16.61387
			c3.25148-1.29028,4.70407-2.82895,4.15247-6.58598c-0.62586-4.26284-0.92898-8.68519-0.54214-12.96252
			c0.77418-8.56018-3.61266-14.17385-9.72411-18.99156c-1.81918-1.43408-3.8008-2.68028-5.79237-3.87029
			c-4.48875-2.68212-4.58651-5.16799-0.03838-7.89953C108.3159,6.69698,114.22268,3.38603,120.0847,0z M109.21993,269.31546
			c-16.18878-8.60968-32.93977-12.60248-50.70052-10.58032c-5.7164,0.65088-11.43027,3.05331-16.67506,5.62189
			c-4.50364,2.2056-5.46588,6.57489-3.91709,11.58145c1.97346,6.37933,5.94984,10.88138,12.08766,12.96326
			c14.68401,4.98062,29.37458,4.69812,43.64051-1.59586C101.29209,283.93665,106.25793,277.83707,109.21993,269.31546z"/>
	</g>
</g>
<g id="Layer_4">
</g>
</svg>
