<?xml version="1.0" encoding="utf-8"?>
<!-- Generator: Adobe Illustrator 24.0.1, SVG Export Plug-In . SVG Version: 6.00 Build 0)  -->
<svg version="1.1" xmlns="http://www.w3.org/2000/svg" xmlns:xlink="http://www.w3.org/1999/xlink" x="0px" y="0px"
	 viewBox="0 0 301.97241 298" style="enable-background:new 0 0 301.97241 298;" xml:space="preserve">
<g id="Layer_1">
</g>
<g id="Layer_2">
</g>
<g id="Layer_3">
	<g>
		<path d="M301.97241,270c-0.90149,3.01587-1.60657,6.10846-2.74075,9.03348c-3.61804,9.33057-11.80157,12.88773-20.44263,8.00961
			c-10.98004-6.19852-21.48138-13.25278-32.16193-19.98154c-2.51872-1.58679-4.92868-3.34732-7.56969-5.15158
			c-5.27072,4.50684-10.40849,8.92703-15.57491,13.31326c-34.31729,29.13498-73.79813,18.25168-99.12807-4.5986
			c-9.21569-8.31357-14.67072-18.85474-15.93615-31.35153c-0.48609-4.80048-0.57899-9.64021-1.02909-14.44528
			c-2.31603-24.72583,19.84646-46.95308,47.48031-42.12631c13.67078,2.38786,27.0361,6.54114,40.53152,9.92827
			c1.71263,0.42986,3.37578,1.05812,6.18944,1.95316c0-15.86873,0-30.89803,0-46.49576
			c-14.70139,3.1481-28.73662,6.18343-42.78735,9.14462c-4.38391,0.9239-8.7921,1.76378-13.21968,2.44159
			c-15.37802,2.35423-30.70592-11.9599-31.37003-29.50111c-0.40072-10.58456,3.04561-19.94249,10.65834-28.85452
			c1.382,2.20827,2.78246,3.9091,3.60489,5.85577c3.09656,7.32953,6.61966,9.89308,14.13887,7.97984
			c18.30383-4.65732,36.45505-9.91608,54.69612-14.82632c2.99365-0.80584,3.97722-2.52988,3.78702-5.42609
			c-0.10866-1.65466-0.03542-3.34353,0.16037-4.99257c1.32378-11.15041-3.24307-19.3334-12.32503-25.45992
			c-1.22321-0.82516-1.71051-2.7484-2.53859-4.16316c1.32127-0.74641,2.56842-1.90392,3.9781-2.15969
			c3.75159-0.6807,7.57393-0.96672,11.36682-1.42068c15.17503-1.81626,27.65889,4.89219,34.17226,18.71664
			c2.03743,4.32438,3.3578,8.98883,5.26645,14.20878c6.38512-2.02659,12.94977-4.08946,19.50102-6.19445
			c9.46973-3.04272,27.95355,4.08752,32.7905,12.80695c3.08746,5.56577,2.56857,11.30293-1.57513,15.81866
			c-3.98901,4.34715-8.51834,8.66048-13.6561,11.38048c-9.50558,5.03237-19.58371,8.99885-29.52544,13.16389
			c-2.57642,1.07939-3.9649,1.92555-3.82709,5.21669c0.85709,20.46698,1.34708,40.94943,2.20499,61.41635
			c0.07069,1.68646,1.59341,3.89459,3.08423,4.83949c7.29573,4.62413,14.85316,8.83005,22.226,13.33554
			c3.25525,1.98929,6.42557,4.17062,9.40363,6.55495c9.04352,7.24055,18.74875,14.04259,20.16678,27.0311
			C301.97241,260,301.97241,265,301.97241,270z M194.43486,238.18271c-10.39603-8.89142-20.55029-16.87212-32.95642-20.61752
			c-6.47821-1.95575-13.78824-2.85864-20.45892-2.04941c-10.05208,1.21945-13.19386,9.67072-7.47464,18.03633
			c6.00111,8.77792,14.65579,14.22287,24.84666,16.28046C172.06155,252.59261,184.30959,249.38039,194.43486,238.18271z"/>
		<path d="M33.85727,298c-21.54636-7.05667-28.54829-24.57333-31.8747-44.69383
			c-2.60198-15.73862-2.60673-31.46014-0.22635-47.27086c3.22355-21.41113,5.58173-42.96007,9.12184-64.31461
			c3.21014-19.36407,7.54302-38.53967,11.3146-57.81144c4.40828-22.52515,5.99537-45.22238,3.92146-68.12893
			c-0.13508-1.492-0.3575-3.02978-0.13422-4.48365c0.17752-1.15595,0.73529-2.85095,1.5556-3.16217
			c1.0869-0.41237,2.94056-0.15253,3.86912,0.57921c16.9233,13.3362,27.63727,30.40446,30.33148,52.06786
			c2.30719,18.55143-0.54901,36.90636-2.50818,55.27741c-2.33115,21.85904-4.79982,43.70329-7.16809,65.55841
			c-0.17577,1.62206-0.02306,3.27994-0.02306,5.59203c7.13548-3.4348,13.9045-6.69319,21.58956-10.39255
			c-2.18909,7.26692-4.37287,13.49876-5.93558,19.88361c-6.09176,24.8895-11.69519,49.90337-18.10762,74.70769
			C47.23131,280.50546,43.137,289.14932,39.83754,298C37.84411,298,35.85069,298,33.85727,298z"/>
		<path d="M234.19609,0c4.98671,1.66205,10.06894,3.08464,14.93864,5.04001c8.11276,3.2576,15.25696,8.04623,20.94998,14.80922
			c6.22049,7.38954,4.52069,15.93043-4.59625,19.44529c-7.0643,2.72349-14.5705,4.51675-22.02817,5.94746
			c-22.00499,4.22154-44.14191,8.46747-66.64064,6.37059c-10.59364-0.98732-21.13417-3.82885-31.37529-6.91183
			c-7.34825-2.21211-13.20216-7.38929-18.20421-14.64774C158.058,19.24993,188.22765,8.35341,219.24542,0
			C224.22897,0,229.21252,0,234.19609,0z"/>
	</g>
</g>
<g id="Layer_4">
</g>
</svg>
