<?xml version="1.0" encoding="utf-8"?>
<!-- Generator: Adobe Illustrator 24.0.1, SVG Export Plug-In . SVG Version: 6.00 Build 0)  -->
<svg version="1.1" xmlns="http://www.w3.org/2000/svg" xmlns:xlink="http://www.w3.org/1999/xlink" x="0px" y="0px"
	 viewBox="0 0 296.34406 265" style="enable-background:new 0 0 296.34406 265;" xml:space="preserve">
<g id="Layer_1">
</g>
<g id="Layer_2">
</g>
<g id="Layer_3">
	<g>
		<path d="M296.34406,105c0,14.33334,0,28.66667,0,43c-0.35718,1.07787-0.87387,2.13045-1.04816,3.2373
			c-4.80939,30.53996-18.41095,56.75139-39.1235,79.35573c-15.84023,17.28697-35.01099,28.8532-58.31445,32.97572
			c-2.08147,0.36823-4.12556,0.9491-6.18701,1.43124c-7.9751,0-15.9502,0-23.92529,0
			c-6.09692-1.2005-12.19385-2.40097-19.55342-3.85004c2.39612-1.74023,3.78528-2.77237,5.19768-3.77148
			c24.6508-17.43768,46.25362-37.94783,63.24847-63.10667c16.56918-24.52864,26.76593-51.07298,27.04474-81.18478
			c0.39027-42.15111-36.15666-80.50675-89.49574-71.10712c-0.26691,0.04704-0.47688,0.41916-0.7719,0.6939
			c2.62836,10.25258,1.73845,20.50102-0.2355,30.71429c-4.87503,25.22365-14.76895,48.693-25.2528,71.93142
			c-11.73173,26.00452-24.65588,51.35786-42.4144,73.87045c-10.6601,13.5139-23.41878,24.46452-39.36766,31.42889
			c-3.75335,1.63896-6.97794,1.33336-10.40188-0.51891c-7.44706-4.02866-11.27765-10.73396-13.16552-18.5658
			c-3.75629-15.58301-8.95831-30.60632-15.63068-45.17992c-2.61405-5.70953-5.65713-11.76959-6.0818-17.84056
			c-1.49139-21.32072-1.93674-42.85281,6.16503-63.15586C29.38715,49.3314,70.66611,15.7119,129.21741,3.05287
			C135.03056,1.79605,140.94409,1.00645,146.81102,0c14.28871,0,28.57742,0,42.86613,0
			c1.55632,0.43119,3.09615,0.93845,4.67139,1.28252c50.06601,10.93543,82.44763,41.3742,98.39276,89.86763
			C294.22818,95.67215,295.1564,100.37899,296.34406,105z M118.50288,45.40016c-2.84357,0.45866-4.15182,0.58591-5.41935,0.88618
			c-53.3121,12.62938-88.30583,64.24638-79.63428,118.26471c1.31277,8.17773,4.66105,16.22356,8.23724,23.77295
			c2.59389,5.47574,6.20815,5.78607,10.95971,1.80838c3.7718-3.15749,7.44922-6.81442,10.00808-10.96884
			c6.70349-10.88344,13.3561-21.87233,18.97618-33.33847c13.10204-26.73099,25.55714-53.78921,33.55825-82.61292
			C116.71844,57.70133,117.31565,51.93003,118.50288,45.40016z"/>
	</g>
</g>
<g id="Layer_4">
</g>
</svg>
