<?xml version="1.0" encoding="utf-8"?>
<!-- Generator: Adobe Illustrator 24.0.1, SVG Export Plug-In . SVG Version: 6.00 Build 0)  -->
<svg version="1.1" xmlns="http://www.w3.org/2000/svg" xmlns:xlink="http://www.w3.org/1999/xlink" x="0px" y="0px"
	 viewBox="0 0 307.9079 222" style="enable-background:new 0 0 307.9079 222;" xml:space="preserve">
<g id="Layer_1">
	<g>
		<path d="M105.56273,222c-7.01785-2.92998-14.33797-5.29796-20.99375-8.90111
			c-16.35784-8.85538-27.48236-22.84506-35.8391-39.16321c-13.9857-27.30978-22.55632-56.493-29.36362-86.27999
			C13.02336,59.90083,6.56738,32.17199,0.17257,4.42906C0.06244,3.95128,0.09588,3.4402,0,2.02416
			c1.95552-0.12768,4.05857-0.78669,5.85044-0.29779c12.12813,3.3091,23.31962,8.55954,33.30247,16.38089
			c12.67587,9.93126,18.44122,23.53581,21.50719,38.82471c2.78119,13.86882,5.75698,27.70552,9.01454,41.46882
			c2.66566,11.26252,7.10355,21.85786,14.03268,31.22406c2.44955,3.31111,5.31015,6.31618,8.44312,10.0022
			c12.46639-19.79354,20.36703-40.94214,30.29881-61.6967c0.44657,1.58136,1.2435,3.15283,1.28812,4.74553
			c0.94244,33.63795,1.95297,67.27551,2.55975,100.92024c0.1402,7.77425-0.3396,15.76378-2.07104,23.2988
			c-1.22809,5.34451-5.04015,10.09143-7.69883,15.10509C112.87241,222,109.21757,222,105.56273,222z"/>
		<path d="M307.9079,115c-3.728,7.16341-6.68658,14.90443-11.44998,21.29051c-3.26501,4.37724-8.64752,7.80072-13.78665,9.98608
			c-7.72064,3.28313-13.08826,0.87775-18.11749-5.92934c-6.11093-8.27121-7.15219-18.03402-8.57341-27.77308
			c-2.27577-15.59511-3.63969-31.46394-7.58717-46.64168c-6.272-24.11529-17.74953-45.79762-35.92213-63.40233
			C211.83531,1.9143,211.62787,0.85345,211.22079,0c0.66452,0,1.32903,0,1.99355,0
			c8.51468,2.68511,17.34917,4.63275,25.48778,8.18503c32.48306,14.17796,56.05096,36.9575,66.53818,71.78082
			c0.99741,3.31192,1.78348,6.6879,2.6676,10.03415C307.9079,98.33334,307.9079,106.66666,307.9079,115z"/>
	</g>
</g>
<g id="Layer_2">
</g>
<g id="Layer_3">
</g>
<g id="Layer_4">
</g>
</svg>
