<?xml version="1.0" encoding="utf-8"?>
<!-- Generator: Adobe Illustrator 24.0.1, SVG Export Plug-In . SVG Version: 6.00 Build 0)  -->
<svg version="1.1" xmlns="http://www.w3.org/2000/svg" xmlns:xlink="http://www.w3.org/1999/xlink" x="0px" y="0px"
	 viewBox="0 0 197.07915 350" style="enable-background:new 0 0 197.07915 350;" xml:space="preserve">
<g id="Layer_1">
</g>
<g id="Layer_2">
</g>
<g id="Layer_3">
</g>
<g id="Layer_4">
	<g>
		<path d="M52.80415,350c10.13836-9.77234,20.90978-18.97034,30.29785-29.42331
			c29.62162-32.98163,46.95341-72.22401,56.33091-115.29898c9.42566-43.29625,10.73553-87.1825,9.44983-131.25633
			c-0.1409-4.82993-0.35512-9.65845-0.59666-14.48452c-0.58185-11.62656-6.394-19.77972-16.77191-24.53979
			c-4.03397-1.85027-8.50534-2.714-12.6428-4.36749c-2.87939-1.15073-5.52927-2.88159-9.16875-4.82761
			C118.25196,16.24856,123.73741,5.71863,134.39415,0c2.985,0,5.97,0,8.955,0c3.04524,2.93922,5.68564,6.57673,9.23114,8.65314
			c5.24913,3.07411,10.97842,5.57095,16.79292,7.36594c11.48668,3.54605,17.57048,11.5879,19.5741,22.85394
			c2.3828,13.39806,4.30141,26.89016,6.01886,40.39319c1.08482,8.52905,1.4339,17.15262,2.11298,25.73379
			c0,21.66666,0,43.33333,0,65c-0.29968,1.77373-0.70169,3.53699-0.88231,5.32288
			c-1.10403,10.91495-1.79466,21.88586-3.29967,32.74339c-3.79839,27.40211-10.85706,53.83415-25.79848,77.45601
			c-18.576,29.36798-43.38959,50.90201-77.5096,60.01736c-7.48281,1.99908-15.22968,2.99985-22.85494,4.46036
			C62.09082,350,57.44749,350,52.80415,350z"/>
		<path d="M25.35951,16.26852c6.17006,0.16421,11.16162,2.23332,15.49444,5.69139
			C51.32207,30.31458,58.57101,40.94543,58.478,54.65243c-0.15697,23.13186-0.75299,46.2964-2.27919,69.37273
			c-1.40507,21.24462-3.66451,42.48289-6.78096,63.53957c-1.41114,9.53458-5.35801,18.80643-9.00872,27.84914
			c-2.45105,6.07117-7.02058,11.06047-13.40458,13.40274c-1.90024,0.69722-5.25987,0.42007-6.55795-0.84932
			c-3.6303-3.55013-7.17674-7.49515-9.60699-11.92166c-9.14235-16.65213-13.41143-34.28705-9.22728-53.37679
			c4.52435-20.64192,9.75475-41.17873,13.10363-62.01681c4.22374-26.28184,6.85775-52.82183,10.16627-79.25189
			C25.08302,19.79608,25.18438,18.17944,25.35951,16.26852z"/>
	</g>
</g>
</svg>
