<?xml version="1.0" encoding="utf-8"?>
<!-- Generator: Adobe Illustrator 24.0.1, SVG Export Plug-In . SVG Version: 6.00 Build 0)  -->
<svg version="1.1" xmlns="http://www.w3.org/2000/svg" xmlns:xlink="http://www.w3.org/1999/xlink" x="0px" y="0px"
	 viewBox="0 0 344.28375 317" style="enable-background:new 0 0 344.28375 317;" xml:space="preserve">
<g id="Layer_1">
	<g>
		<path d="M113.95137,0c1.63926,0.71981,3.24027,1.54873,4.92385,2.14205c12.57565,4.43185,20.87928,13.33073,25.77001,25.44376
			c1.01631,2.51713,0.91765,5.96169,0.15677,8.64317c-3.17513,11.18959-6.79887,22.25114-10.58301,34.40292
			c2.55031-0.74801,4.36517-1.16425,6.09665-1.80661c13.15654-4.88097,26.75867-6.73758,40.5538-4.40807
			c5.36295,0.90562,10.99001,3.22411,15.33748,6.46374c5.91832,4.41019,11.09758,9.99933,15.93575,15.64962
			c11.37514,13.28457,15.66853,28.2908,11.69125,45.93394c-10.62347,47.12541-24.85924,92.88707-48.17447,135.43631
			c-1.51836,2.77094-3.13435,5.49298-4.81039,8.17136C159.85138,293.64716,147.37938,309.64276,126.9138,317
			c-0.99711,0-1.99422,0-2.99133,0c-9.81669-4.96185-15.06968-13.45993-18.88337-23.43243
			c-3.02545-7.91135-7.16759-15.38535-10.46728-23.20078c-5.69392-13.48624-11.21037-27.05063-16.55193-40.68053
			c-0.75428-1.92468-0.10431-4.40288-0.10431-7.51964c3.03589,1.71941,4.8449,2.89258,6.7743,3.81152
			c9.43398,4.4933,18.81329,9.11797,28.38016,13.31003c8.85625,3.88069,16.48275,1.19466,22.07264-6.21875
			c4.37939-5.80803,8.52827-11.97868,11.62764-18.53587c11.07343-23.42758,18.79463-48.04115,23.87619-73.4402
			c1.16444-5.82018,1.53146-11.93443,1.29245-17.87397c-0.42067-10.45361-7.73883-17.09617-18.19962-17.15054
			c-13.17012-0.06846-25.25774,3.81208-36.19307,11.01018c-2.43826,1.60497-4.65104,4.26207-5.85548,6.9382
			c-17.01003,37.79472-33.63792,75.76331-50.79015,113.49234c-6.42048,14.12285-16.12019,26.0808-28.40769,35.58723
			c-11.10095,8.58841-17.10141,8.4202-22.0024-7.57492c-2.00059-6.52927-1.61363-13.80397-2.23378-20.74666
			c-0.80633-9.02692,2.48116-16.45532,8.34231-23.23721c4.77115-5.52063,9.37169-11.34933,13.05372-17.62787
			c12.45739-21.2421,24.47452-42.74394,36.64379-64.15572c0.25479-0.44832,0.31465-1.00807,0.67744-2.22963
			c-7.96576,2.81212-15.11149,5.44278-22.3428,7.81058c-1.777,0.58188-4.09851,0.97168-5.71999,0.32159
			C22.83074,139.20985,10.85674,127.81343,0,112.73206c3.4367-0.81312,5.84349-1.94093,8.20397-1.85065
			c15.61371,0.59716,30.36559-2.8188,44.48823-9.22211c11.64983-5.28211,23.27203-10.63647,34.74711-16.28449
			c1.90512-0.93771,3.75799-3.33277,4.32952-5.41482c2.68787-9.79174,4.59662-19.80249,7.39148-29.55989
			c4.19362-14.6407,4.58728-29.07821-0.25659-43.6363C98.23177,4.74422,98.93052,2.26593,98.99473,0
			C103.98028,0,108.96583,0,113.95137,0z"/>
		<path d="M344.28375,142c-0.66583,2.90034-1.31921,5.80362-1.9996,8.70052c-3.20407,13.64175-12.89371,19.1106-26.21585,14.7583
			c-2.04593-0.6684-4.09555-1.39891-6.02295-2.34711c-17.40985-8.56511-34.797-17.17654-52.17587-25.80476
			c-1.44794-0.71889-2.78635-1.65976-5.01909-3.00607c4.45247-1.09793,8.06261-1.85982,11.59602-2.88722
			c6.54025-1.90172,12.29135-5.01076,15.87234-11.18581c1.69662-2.92559,2.27808-5.81153,0.1871-8.85125
			c-6.95859-10.11599-13.51202-20.53704-20.90805-30.31844c-6.90024-9.12566-14.6776-17.58424-22.95322-27.38363
			c2.84694-0.59514,4.83475-1.5838,6.61998-1.29832c29.01006,4.63895,55.11986,15.71043,76.96803,35.80183
			c12.62418,11.6091,20.9592,25.66539,23.17819,42.98714c0.12381,0.96649,0.57443,1.89085,0.87296,2.83482
			C344.28375,136.66667,344.28375,139.33333,344.28375,142z"/>
	</g>
</g>
<g id="Layer_2">
</g>
<g id="Layer_3">
</g>
<g id="Layer_4">
</g>
</svg>
