<?xml version="1.0" encoding="utf-8"?>
<!-- Generator: Adobe Illustrator 24.0.1, SVG Export Plug-In . SVG Version: 6.00 Build 0)  -->
<svg version="1.1" xmlns="http://www.w3.org/2000/svg" xmlns:xlink="http://www.w3.org/1999/xlink" x="0px" y="0px"
	 viewBox="0 0 308.82895 342" style="enable-background:new 0 0 308.82895 342;" xml:space="preserve">
<g id="Layer_1">
</g>
<g id="Layer_2">
	<g>
		<path d="M92.52895,0c0.2719,0.18515,0.52158,0.47871,0.81886,0.54004c26.50531,5.46797,33.64193,24.64149,34.9762,44.66613
			c0.16353,2.45406,0.02232,4.92855,0.02232,8.15919c3.81699-0.33009,7.06516-0.48466,10.27716-0.91247
			c9.59435-1.27787,18.92259-0.52713,27.74451,3.70013c12.74336,6.10633,15.62076,18.40881,5.64104,28.39866
			c-6.10782,6.11403-13.84789,10.74578-21.3024,15.30722c-9.62175,5.8876-19.80429,10.84521-29.53319,16.56639
			c-8.75856,5.15055-15.54008,12.28763-20.26027,21.4809c-14.8982,29.01653-29.89535,57.98286-45.04132,86.86987
			c-5.32908,10.16383-10.93405,20.20599-16.93562,29.98077c-2.92634,4.76617-6.66426,9.20105-10.71741,13.06522
			c-8.40028,8.00861-15.79854,6.5051-20.05264-4.22421c-2.43244-6.13492-3.65173-12.77283-5.20651-19.23529
			c-3.42131-14.22067-0.84134-27.08604,7.51922-39.31931c15.20859-22.25336,29.78321-44.94283,44.61904-67.45251
			c0.90254-1.36938,1.77573-2.75824,2.97425-4.62294c-4.02079-0.73164-7.58597-1.28392-11.10836-2.03751
			c-18.39076-3.9347-34.36423-11.62892-43.48542-29.2901C1.74137,98.27677,1.18271,94.30083,0,90.33823
			c7.61133,0,14.01571,0.24177,20.39661-0.04394c21.81934-0.97701,41.9701-7.98573,61.25181-17.7661
			c1.74715-0.88622,3.17369-3.293,3.84207-5.29797c6.36908-19.10571,5.80865-38.30564,0.53257-57.57069
			C85.16209,6.5158,83.04789,3.02391,86.5483,0C88.54185,0,90.5354,0,92.52895,0z"/>
		<path d="M146.35475,342c-0.82896-0.51038-1.5957-1.2558-2.49626-1.4957c-12.27472-3.27042-19.9585-11.27124-24.14318-23.09167
			c-7.1019-20.06079-14.97845-39.87595-21.24603-60.19287c-4.18649-13.57079,0.79359-23.19806,13.75126-28.78549
			c6.69633-2.88751,14.32067-4.8465,21.56119-4.96056c13.7415-0.21648,27.52504,0.98398,41.255,2.05986
			c4.21297,0.33012,5.70428-1.07176,6.08884-4.87666c1.28879-12.75198,2.49821-25.51476,4.01877-38.23961
			c1.26494-10.58546,4.4245-20.55864,11.65332-28.70145c1.86719-2.10326,4.52823-3.49722,7.34393-5.60594
			c3.06374,9.30136,5.75816,17.61861,8.54266,25.90535c5.13049,15.2684,12.00885,30.01405,13.69815,46.306
			c0.17163,1.6553,0.69386,3.38315,0.40645,4.95854c-1.32652,7.27089,2.47943,10.33374,8.65747,13.02208
			c9.10452,3.96181,17.98415,8.63727,26.44217,13.85321c11.16644,6.8862,20.0434,15.92816,22.45004,29.69714
			c2.47299,14.14856-4.30939,22.39465-18.57034,22.17947c-14.11215-0.21289-26.86517-5.54767-39.49791-11.13483
			c-9.67206-4.27777-9.65143-4.35379-16.23787,3.78571c-2.30176,2.84448-4.66397,5.65085-6.79449,8.62192
			c-12.75267,17.78394-29.974,28.90167-50.8795,34.62158c-1.72835,0.47287-3.34065,1.37256-5.00688,2.07391
			C147.01927,342,146.68701,342,146.35475,342z M173.11606,264.43771c-14.77777-7.16318-29.87851-9.39987-45.72272-7.04095
			c-4.00832,0.59674-4.26145,3.27518-3.19676,6.28705c3.96667,11.22113,11.193,19.93402,21.10271,26.32233
			c1.35379,0.87274,3.92331,0.81165,5.52954,0.17163C162.46132,285.54236,169.04161,276.40802,173.11606,264.43771z"/>
		<path d="M308.82895,136c-11.17154,12.84953-25.4874,12.70279-39.74164,8.11786
			c-9.32602-2.99974-18.21538-8.03658-26.5368-13.36182c-14.81293-9.4794-29.04703-19.86916-44.28958-30.40804
			c1.59177-1.33086,3.11346-3.3754,5.12532-4.16851c26.83246-10.57771,53.85616-10.30151,80.73357-0.38956
			c12.33792,4.55002,20.8779,13.29379,24.70914,26.21006C308.82895,126.66666,308.82895,131.33333,308.82895,136z"/>
	</g>
</g>
<g id="Layer_3">
</g>
<g id="Layer_4">
</g>
</svg>
