<?xml version="1.0" encoding="utf-8"?>
<!-- Generator: Adobe Illustrator 24.0.1, SVG Export Plug-In . SVG Version: 6.00 Build 0)  -->
<svg version="1.1" xmlns="http://www.w3.org/2000/svg" xmlns:xlink="http://www.w3.org/1999/xlink" x="0px" y="0px"
	 viewBox="0 0 271.09305 338" style="enable-background:new 0 0 271.09305 338;" xml:space="preserve">
<g id="Layer_1">
	<g>
		<path d="M179.40656,338c-3.51973-0.8288-7.02223-1.74133-10.56184-2.47342c-37.42073-7.73965-57.20444-31.88263-57.62084-70.3754
			c-0.12795-11.82848-0.37689-23.65845-0.27545-35.48517c0.03674-4.28273-2.05643-5.65765-5.47572-4.53835
			c-3.86933,1.26665-8.24243,2.63551-10.99175,5.37787c-7.49676,7.47777-15.16626,15.07317-21.11547,23.76088
			c-12.77747,18.65918-24.44004,38.08414-36.72573,57.0871c-3.9684,6.13812-8.21091,12.13617-12.77604,17.83704
			c-4.79473,5.98764-9.92645,5.85733-14.81792-0.11969c-5.81061-7.10013-7.76131-15.73273-8.76148-24.58267
			c-1.25732-11.12549,1.63425-20.7514,9.10017-29.53168c35.8859-42.2034,71.45157-84.68098,107.12538-127.06592
			c0.62663-0.74454,1.18399-1.54773,2.33658-3.06409c-22.3475,5.6174-44.06564,10.25163-63.79902,21.06889
			c-4.80523,2.63409-9.73594,5.03902-14.52372,7.70349c-3.73049,2.07608-7.21365,1.57213-10.05911-1.22388
			c-3.17641-3.12119-6.725-6.30037-8.65036-10.18375c-6.41058-12.92992-12.33959-26.11116-18.07824-39.35959
			c-2.00304-4.62428-0.4128-6.37403,4.53744-5.49854c5.71023,1.0099,11.39749,2.3103,16.96627,3.9294
			c9.02923,2.62524,17.97347,2.6286,27.03438,0.31931c28.38617-7.23454,55.79125-17.26568,82.60753-28.99696
			c6.23515-2.72768,12.45036-5.51065,18.76553-8.03997c2.43309-0.97449,5.18486-2.04926,7.67921-1.8245
			c18.5807,1.6743,34.11206,9.36354,45.1613,24.77809c3.71167,5.17805,3.22986,6.1726-2.11433,10.03243
			c-3.90222,2.81839-7.96233,5.43261-12.06427,7.95399c-23.58784,14.49897-42.50592,33.93728-58.92445,56.0127
			c-1.87289,2.51816-3.37927,5.31079-4.96259,7.82828c0.22443,0.58487,0.25453,1.05542,0.4688,1.16571
			c13.12976,6.75912,17.8961,18.3967,17.63525,32.24652c-0.20648,10.9617-1.71872,21.89531-2.52957,32.85048
			c-0.33142,4.47809-0.6431,8.99374-0.44054,13.46848c0.51814,11.44653,7.04756,18.36646,18.4034,17.77933
			c9.69144-0.50101,19.28775-2.88318,28.92218-4.45752c9.47177-1.54782,18.9176-4.28891,28.41173-4.46124
			c23.35394-0.42404,41.06371,9.76431,51.79979,31.08234c0,2.33334,0,4.66666,0,7
			c-3.25735,9.49878-9.41074,15.55704-19.68268,16.82556c-1.95526,0.24142-3.85881,0.8779-5.80765,1.20258
			c-8.10864,1.35092-16.22546,2.65228-24.33929,3.97186C207.31114,338,193.35886,338,179.40656,338z"/>
		<path d="M78.75074,0c10.08867,1.3324,20.1915,3.84443,30.2627,3.72266c15.37405-0.18589,29.20422,4.10951,42.23692,11.37818
			c6.29517,3.51098,12.08783,8.16349,17.47745,13.00581c4.92123,4.4215,7.48941,10.50934,8.29256,17.20178
			c1.01413,8.45056-2.11555,13.54578-10.40013,15.54856c-11.94405,2.88744-23.81572,1.58813-35.26569-2.4592
			c-5.5854-1.97433-11.14178-4.53396-16.06245-7.80993C96.4969,38.07483,83.50512,20.71078,74.76437,0
			C76.09317,0,77.42195,0,78.75074,0z"/>
	</g>
</g>
<g id="Layer_2">
</g>
<g id="Layer_3">
</g>
<g id="Layer_4">
</g>
</svg>
