<?xml version="1.0" encoding="utf-8"?>
<!-- Generator: Adobe Illustrator 24.0.1, SVG Export Plug-In . SVG Version: 6.00 Build 0)  -->
<svg version="1.1" xmlns="http://www.w3.org/2000/svg" xmlns:xlink="http://www.w3.org/1999/xlink" x="0px" y="0px"
	 viewBox="0 0 302.01129 322" style="enable-background:new 0 0 302.01129 322;" xml:space="preserve">
<g id="Layer_1">
</g>
<g id="Layer_2">
</g>
<g id="Layer_3">
</g>
<g id="Layer_4">
	<g>
		<path d="M120.60998,322c-4.31908,0-8.63816,0-12.95722,0c1.10822-1.64868,2.21972-3.29517,3.32412-4.94641
			c10.8117-16.16531,22.24094-31.96127,32.16376-48.65839c4.73488-7.96732,6.60632-17.64737,9.77667-26.55095
			c1.1022-3.09541-0.44736-4.62892-2.8774-6.46074c-8.47847-6.39124-17.02824-12.7666-24.88195-19.89037
			c-7.83389-7.10579-13.59073-15.95055-16.98343-26.11781c-0.65794-1.97173-0.65739-4.16463-1.12412-7.38329
			c15.63506,8.77072,30.60089,13.95157,48.33728,11.5946c0.57364-30.96234,1.14272-61.67787,1.72302-93.00018
			c-2.24963,0.53613-3.21005,0.68068-4.11302,0.99268c-17.47517,6.03826-32.57297,15.68663-44.67242,29.81813
			c-13.63026,15.91939-22.32632,34.59196-29.7168,53.97356c-10.61031,27.82564-19.45359,56.36191-33.22914,82.91281
			c-3.79802,7.32031-8.38954,9.8143-16.12356,6.87125c-4.78852-1.82217-9.55803-4.86087-13.11098-8.54333
			c-7.48605-7.75891-12.441-17.21786-14.93859-27.84109c-2.79136-11.87277-0.052-23.56172,1.3489-35.25189
			c3.56761-29.77097,7.48307-59.49988,11.08987-89.26627c2.2828-18.83965,0.15356-37.59384-1.53598-56.35012
			c-0.22191-2.46349,0.37896-5.00158,0.64132-7.99003c11.35744,4.36572,20.3722,10.4244,27.8564,18.6948
			C51.66174,80.8233,57.26575,94.87135,54.83966,111.6462c-1.62095,11.20784-2.98565,22.45309-4.45313,33.68317
			c-2.69276,20.60658-5.37671,41.21436-8.06433,61.82162c1.01159-0.8262,1.4586-1.82169,1.78176-2.85609
			c6.52074-20.8718,14.62029-41.0862,25.15179-60.26511c18.93494-34.48236,44.00069-63.09382,79.63795-80.8167
			c7.16737-3.56443,9.17459-7.43618,8.99251-14.965c-0.2415-9.98522-4.54958-16.39998-13.26851-20.30387
			c-2.56647-1.14913-5.26459-2.01946-7.94046-2.90122c-3.69502-1.21759-4.55786-3.10443-1.58467-6.0246
			C141.55426,12.67195,148.02884,6.33867,154.49814,0c1.66118,0,3.32236,0,4.98355,0
			c2.72488,0.66426,5.55009,1.06081,8.15573,2.04342c7.55424,2.84876,15.3322,5.33797,22.43593,9.08685
			c7.55804,3.98865,12.20593,10.75925,12.52975,19.69847c0.23804,6.57082,0.04669,13.1573,0.04669,19.72133
			c9.46178,0.89661,18.02434,1.64405,26.57277,2.52917c36.57153,3.78671,61.46588,24.78998,70.33685,59.28877
			c0.82507,3.20866,1.63495,6.42123,2.45187,9.63198c0,12,0,24,0,36c-1.00351,4.36058-1.90182,8.7487-3.02734,13.07736
			c-8.46594,32.55977-27.12735,55.72668-60.59521,64.33214c-11.99446,3.08408-24.39536,4.72487-36.69716,6.37625
			c-4.19865,0.56361-5.81627,1.87112-6.8342,5.94174c-1.68883,6.75356-3.86133,13.46214-6.58971,19.86382
			c-11.00951,25.83182-28.62897,44.56989-56.63803,51.75537C127.97025,320.28543,124.28386,321.11816,120.60998,322z
			 M198.46234,195.39734c13.9572,2.30605,28.9924-2.37552,39.3101-12.72522c17.49045-17.54465,22.79585-39.02834,18.494-62.96771
			c-2.42577-13.4994-10.82994-23.09602-23.54163-27.53449c-7.8167-2.72931-16.4975-3.0023-24.80809-4.25972
			c-4.84541-0.73312-6.9119,0.98869-6.90576,6.42908c0.02599,22.99514-0.25925,45.99403-0.74525,68.98484
			C200.04112,173.94846,199.09459,184.55743,198.46234,195.39734z"/>
	</g>
</g>
</svg>
