<?xml version="1.0" encoding="utf-8"?>
<!-- Generator: Adobe Illustrator 24.0.1, SVG Export Plug-In . SVG Version: 6.00 Build 0)  -->
<svg version="1.1" id="Layer_1" xmlns="http://www.w3.org/2000/svg" xmlns:xlink="http://www.w3.org/1999/xlink" x="0px" y="0px"
	 viewBox="0 0 623.62207 311.81104" style="enable-background:new 0 0 623.62207 311.81104;" xml:space="preserve">
<style type="text/css">
	.st0{clip-path:url(#SVGID_1_);fill:#FFFFFF;}
	.st1{clip-path:url(#SVGID_1_);}
	.st2{fill:#7FB2DB;}
	.st3{fill:#ABDBF6;}
	.st4{fill:#71B5E0;}
	.st5{fill:#B4DAEC;}
	.st6{fill:#74B5D6;}
	.st7{clip-path:url(#SVGID_1_);fill:#6D996B;}
	.st8{clip-path:url(#SVGID_1_);fill:#96C866;}
	.st9{fill:#94C96A;}
	.st10{fill:#6CB4DF;}
</style>
<g id="Chiba-Kashiwa">
	<defs>
		<rect id="SVGID_3_" width="623.62207" height="311.81104"/>
	</defs>
	<clipPath id="SVGID_1_">
		<use xlink:href="#SVGID_3_"  style="overflow:visible;"/>
	</clipPath>
	<rect class="st0" width="623.62207" height="311.81104"/>
	<g class="st1">
		<rect x="0" y="265.70233" class="st2" width="623.62207" height="45.763"/>
		<rect x="0" y="272.35974" class="st3" width="623.62207" height="39.10558"/>
		<rect x="0" y="279.01718" class="st4" width="623.62207" height="32.44816"/>
		<rect x="0" y="288.58383" class="st5" width="623.62207" height="22.8815"/>
		<rect x="0" y="297.74115" class="st6" width="623.62207" height="13.72418"/>
	</g>
	<path class="st0" d="M627.62201,255.53192v-4.1264c0-2.05847-1.56213-3.7807-3.61078-3.98102
		c-102.70227-10.03961-209.23926-15.13007-316.65161-15.13007c-182.91603,0-306.62085,14.98969-307.849,15.14117
		c-2.00464,0.24707-3.51056,1.95001-3.51056,3.96991v3.98535c-1.24921,0.97272-1.57257,2.43634-1.52191,3.37073
		c0.03082,0.56873,0.24243,1.98138,1.52191,2.93671v4.45721c0,1.29602,0.62787,2.51166,1.68469,3.26184
		c0.68549,0.48657,1.49652,0.73822,2.31555,0.73822c0.18762,0,0.37555-0.01318,0.56256-0.03979
		c0.18616,0.02643,0.37402,0.03973,0.56244,0.03973c0.44873,0,0.89966-0.07544,1.33392-0.22906
		c0.03943-0.01373,4.98755-1.70862,11.77441-1.81287c12.21234,0.13379,21.98871,5.27521,29.07739,15.2854v11.25653
		c0,2.20917,1.79083,4,4,4h1.125h7.375h1.125c2.20917,0,4-1.79083,4-4v-13.08923c1.15015-1.71997,4.16656-5.8446,9.08227-9.92529
		c8.42615-6.99481,18.22351-10.60199,29.12091-10.72162c17.84528,0.24249,27.65167,11.44025,30.17181,14.76355v18.9726
		c0,2.20917,1.79083,4,4,4h1.125h9.375h1.125c2.20917,0,4-1.79083,4-4v-18.91791
		c2.38025-3.84344,13.68768-19.78564,37.61798-20.06689c14.78888,0.2699,26.7735,12.55975,30.00702,16.20581v22.77899
		c0,2.20917,1.79083,4,4,4h1.125h8.625h1.125c2.20917,0,4-1.79083,4-4v-23.47015
		c1.97736-3.27814,11.56622-16.54266,37.35017-16.7674c15.67395,0.21893,26.7439,11.30176,29.77484,14.70233v25.53522
		c0,2.20917,1.79083,4,4,4h1.125h4.125h1.125h4.0993h1.125c2.20917,0,4-1.79083,4-4v-25.54138
		c3.00464-3.38843,14.01843-14.47784,29.61176-14.69617c25.60382,0.22711,35.14807,13.4502,37.14032,16.76624v23.47131
		c0,2.20917,1.79083,4,4,4h1.125h8.57733h1.125c2.20923,0,4-1.79083,4-4v-22.78491
		c3.20856-3.63641,15.13037-15.92896,29.83856-16.19983c23.7821,0.28436,35.03186,16.20349,37.41101,20.06335v18.92139
		c0,2.20917,1.79083,4,4,4h1.125h9.32373h1.125c2.20917,0,4-1.79083,4-4v-18.979
		c2.49066-3.30255,12.2428-14.51196,29.99817-14.75708c10.8363,0.11969,20.58026,3.72504,28.96045,10.71619
		c4.88885,4.07855,7.88971,8.20135,9.03729,9.92633v13.09357c0,2.20917,1.79077,4,4,4h1.125h7.33337h1.125c2.20917,0,4-1.79083,4-4
		v-11.25983c6.82709-9.65576,16.43317-14.65057,28.573-14.85254c7.69409,0.06732,13.49628,2.10614,13.55408,2.12671
		c0.43781,0.15619,0.89362,0.23297,1.34711,0.23297c0.18774,0,0.37518-0.01318,0.56079-0.03931
		c0.18793,0.02679,0.37689,0.0401,0.56549,0.0401c0.81714,0,1.6264-0.24957,2.31042-0.73328
		c1.06024-0.74976,1.69379-1.96631,1.69379-3.26483v-5.13239c0.84827-0.97101,0.97565-2.09833,0.98663-2.5896
		C629.77643,257.28131,628.80853,256.18463,627.62201,255.53192z M46.06102,260.42102
		c-0.35596-0.23132-0.72296-0.46222-1.10297-0.69293c0.36725-0.03351,0.73541-0.06696,1.10297-0.10028V260.42102z
		 M59.43602,259.52362v-1.05725c0.55243-0.04602,1.10449-0.09174,1.65845-0.13745
		C60.51403,258.7301,59.96129,259.12921,59.43602,259.52362z M132.85545,254.39185c-0.34045-0.22943-0.69299-0.4588-1.05743-0.68713
		c0.35248-0.01752,0.7049-0.03497,1.05743-0.05237V254.39185z M147.43602,253.41803v-0.44135
		c0.19434-0.00842,0.38953-0.01691,0.58423-0.02533C147.82225,253.10706,147.62712,253.263,147.43602,253.41803z
		 M219.31102,250.90582c-0.06195-0.0379-0.12506-0.07623-0.18787-0.1142c0.06311-0.00116,0.12476-0.00232,0.18787-0.00342V250.90582
		z"/>
	<path class="st7" d="M624.62207,259.0361v-6.99245c-347.81104-33.49834-623.62207,0-623.62207,0v6.77388
		c-3.4375,0.3688,0,0.36914,0,0.36914v1.72418v5.66516c0,0,0.40662-0.13998,1.125-0.34229v0.34229
		c0,0,5.46478-1.90494,13.09875-2.01208c10.02179,0.09729,23.3338,3.42929,33.08728,17.776v12.31558h1.125h7.375h1.125v-14.03973
		c0,0,13.33868-22.85321,42.20904-23.13992c23.0976,0.28558,34.16595,17.22842,34.16595,17.22842v19.95123h1.125h9.375h1.125
		v-19.7049c0,0,12.08789-22.33273,41.63062-22.64604c19.49402,0.31241,33.99438,18.45872,33.99438,18.45872v23.89221h1.125h8.625
		h1.125V270.517c0,0,9.37494-19.18732,41.35603-19.44656c20.71863,0.25859,33.76898,16.98346,33.76898,16.98346v26.60162h1.125
		h4.125h1.125h4.0993h1.125v-26.60162c0,0,12.98553-16.72362,33.6015-16.9834c31.82208,0.26045,41.15057,19.4465,41.15057,19.4465
		v24.13852h1.125h8.57733h1.125v-23.89221c0,0,14.42816-18.14476,33.82562-18.45866
		c29.39606,0.3148,41.42395,22.64598,41.42395,22.64598v19.7049h1.125h9.32367h1.125v-19.95123
		c0,0,11.01331-16.94153,33.99597-17.22836c28.72736,0.28815,41.99994,23.13986,41.99994,23.13986v14.03973h1.125h7.33344h1.125
		v-12.31558c9.32159-13.77875,22.33844-17.19534,32.55682-17.35272c8.57672,0.06512,14.92291,2.32776,14.92291,2.32776v-0.35461
		c0.71686,0.21094,1.125,0.35461,1.125,0.35461v-7.38934C625.74707,259.92563,628.59338,259.62885,624.62207,259.0361z
		 M317.66766,257.24988v-10.12517c5.55353,0.05232,11.07446,0.11581,16.55743,0.19026
		C324.74445,250.22903,319.7121,254.90269,317.66766,257.24988z M378.43781,248.15109
		c6.05292,0.14618,12.04193,0.3035,17.9624,0.47086v10.93524C392.94476,255.58577,387.57971,251.12384,378.43781,248.15109z
		 M465.25354,251.09395c5.51416,0.23929,10.9259,0.48386,16.22845,0.73245v11.72395
		C479.34564,260.82962,474.09668,255.0923,465.25354,251.09395z M488.03583,263.76938v-11.63161
		c6.15875,0.29742,12.15521,0.59949,17.99005,0.90382C495.54114,255.82985,490.16351,261.13058,488.03583,263.76938z
		 M547.63885,255.40164c7.62671,0.46796,14.77985,0.92654,21.41272,1.3671v12.28717
		C566.63593,266.18832,560.11499,259.72241,547.63885,255.40164z M594.7099,258.5578
		c-11.25177,2.28391-17.83881,8.07843-20.30414,10.6716v-12.10147C581.94592,257.63876,588.73584,258.12021,594.7099,258.5578z
		 M421.42773,249.40027c-11.40692,3.01707-17.19592,7.88065-19.42456,10.19989v-10.81645
		C408.57123,248.97769,415.04523,249.18414,421.42773,249.40027z M309.06104,247.05267v10.20346
		c-2.13422-2.44022-7.51538-7.4122-17.81848-10.29042C297.21423,246.9808,303.15509,247.01004,309.06104,247.05267z
		 M56.43602,269.06247v-13.68501c9.88623-0.83034,19.84375-1.59007,29.8551-2.2818
		C68.21678,256.9649,59.34728,265.62097,56.43602,269.06247z M111.04137,251.5244
		c8.91437-0.51656,17.85687-0.98357,26.81415-1.40355v13.65512C135.19676,260.49216,127.45769,253.06769,111.04137,251.5244z
		 M144.43602,263.5574v-13.7365c7.37189-0.32666,14.75122-0.62102,22.13055-0.88693
		C154.11229,252.66232,147.01042,260.29276,144.43602,263.5574z M229.93602,259.56339v-12.22736
		c7.29114-0.10927,14.5611-0.19466,21.8009-0.25606C240.21971,249.9659,233.85558,255.07866,229.93602,259.56339z
		 M224.31102,247.42442v12.18135c-2.63989-2.73596-10.27301-9.02802-26.31506-11.63208
		C206.78764,247.75258,215.56352,247.5706,224.31102,247.42442z M51.06102,255.83569v13.3996
		c-2.69208-2.81976-10.2937-9.45123-23.52637-11.20139C35.32122,257.25348,43.16661,256.52139,51.06102,255.83569z"/>
	<path class="st8" d="M623.62207,258.50269v-7.09717c-347.81104-34-623.62207,0-623.62207,0v6.87531
		c-3.4375,0.37433,0,0.37469,0,0.37469v1.75v5.75c0,0,0.40662-0.14209,1.125-0.34741v0.34741c0,0,5.46478-1.93347,13.09875-2.04224
		c10.02179,0.09875,23.3338,3.48065,33.08728,18.04224v12.5h1.125h7.375h1.125v-14.25c0,0,13.33868-23.19543,42.20904-23.48645
		c23.0976,0.28986,34.16595,17.48645,34.16595,17.48645v20.25h1.125h9.375h1.125v-20c0,0,12.08789-22.66718,41.63062-22.98517
		c19.49402,0.31708,33.99438,18.73517,33.99438,18.73517v24.25h1.125h8.625h1.125v-24.5c0,0,9.37494-19.47467,41.35603-19.73779
		c20.71863,0.26245,33.76898,17.23779,33.76898,17.23779v27h1.125h4.125h1.125h4.0993h1.125v-27
		c0,0,12.98553-16.97406,33.6015-17.23773c31.82208,0.26434,41.15057,19.73773,41.15057,19.73773v24.5h1.125h8.57733h1.125v-24.25
		c0,0,14.42816-18.4165,33.82562-18.73511c29.39606,0.31952,41.42395,22.98511,41.42395,22.98511v20h1.125h9.32367h1.125v-20.25
		c0,0,11.01331-17.19525,33.99597-17.48639c28.72736,0.29248,41.99994,23.48639,41.99994,23.48639v14.25h1.125h7.33344h1.125v-12.5
		c9.32159-13.98511,22.33844-17.45288,32.55682-17.61261c8.57672,0.0661,14.92291,2.36261,14.92291,2.36261v-0.35992
		c0.71686,0.21411,1.125,0.35992,1.125,0.35992v-7.5C624.74707,259.40552,627.59338,259.10431,623.62207,258.50269z
		 M316.66766,256.6897V246.4129c5.55353,0.0531,11.07446,0.11755,16.55743,0.19312
		C323.74445,249.56372,318.7121,254.30737,316.66766,256.6897z M377.43781,247.45465
		c6.05292,0.14838,12.04193,0.30804,17.9624,0.47791v11.099C391.94476,255.00067,386.57971,250.47192,377.43781,247.45465z
		 M464.25354,250.44159c5.51416,0.24286,10.9259,0.49109,16.22845,0.74341v11.89954
		C478.34564,260.32306,473.09668,254.49982,464.25354,250.44159z M487.03583,263.30682v-11.80579
		c6.15875,0.30188,12.15521,0.60846,17.99005,0.91736C494.54114,255.24841,489.16351,260.62854,487.03583,263.30682z
		 M546.63885,254.81378c7.62671,0.47498,14.77985,0.94043,21.41272,1.38757v12.47119
		C565.63593,265.76202,559.11499,259.19928,546.63885,254.81378z M593.7099,258.01721
		c-11.25177,2.31812-17.83881,8.1994-20.30414,10.83142v-12.28271C580.94592,257.08441,587.73584,257.57306,593.7099,258.01721z
		 M420.42773,248.72253c-11.40692,3.06226-17.19592,7.99866-19.42456,10.35266v-10.97845
		C407.57123,248.29364,414.04523,248.50317,420.42773,248.72253z M308.06104,246.33978v10.35626
		c-2.13422-2.47675-7.51538-7.52319-17.81848-10.44452C296.21423,246.26685,302.15509,246.29651,308.06104,246.33978z
		 M55.43602,268.6792v-13.88995c9.88623-0.84277,19.84375-1.61389,29.8551-2.31598
		C67.21678,256.40045,58.34728,265.18616,55.43602,268.6792z M110.04137,250.87848
		c8.91437-0.52429,17.85687-0.99829,26.81415-1.42456v13.85962C134.19676,259.98053,126.45769,252.44489,110.04137,250.87848z
		 M143.43602,263.09167v-13.9422c7.37189-0.33154,14.75122-0.63031,22.13055-0.90021
		C153.11229,252.03345,146.01042,259.77814,143.43602,263.09167z M228.93602,259.03784v-12.41046
		c7.29114-0.1109,14.5611-0.19757,21.8009-0.25989C239.21971,249.29663,232.85558,254.48596,228.93602,259.03784z
		 M223.31102,246.7171v12.36377c-2.63989-2.77692-10.27301-9.16321-26.31506-11.80627
		C205.78764,247.05017,214.56352,246.86548,223.31102,246.7171z M50.06102,255.25433v13.60028
		c-2.69208-2.862-10.2937-9.59277-23.52637-11.36914C34.32122,256.69336,42.16661,255.95032,50.06102,255.25433z"/>
	<g class="st1">
		<g>
			<g>
				<g>
					<circle class="st9" cx="508.56104" cy="74.03051" r="3.5625"/>
					<circle class="st10" cx="508.56104" cy="84.53051" r="2.53125"/>
					<circle class="st10" cx="517.84229" cy="83.21801" r="2.53125"/>
					<circle class="st10" cx="513.04578" cy="66.54801" r="2.53125"/>
					<path class="st9" d="M508.56104,92.40551c0,0,6.375,20.4375,0,20.4375S508.56104,92.40551,508.56104,92.40551z"/>
					<path class="st10" d="M523.20685,102.12971c0,0,16.18018,22.49571,6.18024,25.46604
						C519.71729,130.46802,523.20685,102.12971,523.20685,102.12971z"/>
					<circle class="st9" cx="508.56104" cy="121.03051" r="2.5"/>
				</g>
				<g>
					<circle class="st9" cx="508.56104" cy="22.22367" r="3.5625"/>
					<circle class="st10" cx="508.56104" cy="11.72367" r="2.53125"/>
					<circle class="st10" cx="499.27979" cy="13.03617" r="2.53125"/>
					<circle class="st10" cx="504.07623" cy="29.70617" r="2.53125"/>
					<path class="st9" d="M508.56104,3.84866c0,0-6.375-20.4375,0-20.4375S508.56104,3.84866,508.56104,3.84866z"/>
					<path class="st10" d="M493.91519-5.87553c0,0-16.18018-22.49571-6.18024-25.46604
						C497.40479-34.21384,493.91519-5.87553,493.91519-5.87553z"/>
					<circle class="st9" cx="508.56104" cy="-24.77633" r="2.5"/>
				</g>
			</g>
			<g>
				<g>
					<circle class="st9" cx="534.46442" cy="48.12709" r="3.5625"/>
					<circle class="st10" cx="544.96442" cy="48.12709" r="2.53125"/>
					<circle class="st10" cx="543.65192" cy="38.84584" r="2.53125"/>
					<circle class="st10" cx="526.98193" cy="43.64231" r="2.53125"/>
					<path class="st9" d="M552.83942,48.12709c0,0,20.4375-6.375,20.4375,0S552.83942,48.12709,552.83942,48.12709z"/>
					<path class="st10" d="M562.56366,33.48125c0,0,22.49567-16.18017,25.466-6.18022
						C590.90192,36.97084,562.56366,33.48125,562.56366,33.48125z"/>
					<circle class="st9" cx="581.46442" cy="48.12709" r="2.5"/>
				</g>
				<g>
					<circle class="st9" cx="482.65759" cy="48.12709" r="3.5625"/>
					<circle class="st10" cx="472.15759" cy="48.12709" r="2.53125"/>
					<circle class="st10" cx="473.47009" cy="57.40834" r="2.53125"/>
					<circle class="st10" cx="490.14011" cy="52.61187" r="2.53125"/>
					<path class="st9" d="M464.28259,48.12709c0,0-20.4375,6.375-20.4375,0S464.28259,48.12709,464.28259,48.12709z"/>
					<path class="st10" d="M454.55841,62.77292c0,0-22.49573,16.18016-25.46603,6.18023
						C426.22009,59.28334,454.55841,62.77292,454.55841,62.77292z"/>
					<circle class="st9" cx="435.65759" cy="48.12709" r="2.5"/>
				</g>
			</g>
		</g>
		<g>
			<g>
				<g>
					<circle class="st9" cx="521.51276" cy="70.56011" r="3.5625"/>
					<circle class="st10" cx="526.76276" cy="79.65338" r="2.53125"/>
					<circle class="st10" cx="534.14429" cy="73.87609" r="2.53125"/>
					<circle class="st10" cx="521.6554" cy="61.83769" r="2.53125"/>
					<path class="st9" d="M530.70026,86.47333c0,0,15.73962,14.51189,10.21875,17.69939
						C535.39807,107.36022,530.70026,86.47333,530.70026,86.47333z"/>
					<path class="st10" d="M548.24597,87.57181c0,0,25.26031,11.39178,18.08527,18.96413
						C559.39307,113.85829,548.24597,87.57181,548.24597,87.57181z"/>
					<circle class="st9" cx="545.01276" cy="111.26331" r="2.5"/>
				</g>
				<g>
					<circle class="st9" cx="495.60931" cy="25.69407" r="3.5625"/>
					<circle class="st10" cx="490.35931" cy="16.6008" r="2.53125"/>
					<circle class="st10" cx="482.97775" cy="22.37808" r="2.53125"/>
					<circle class="st10" cx="495.46664" cy="34.41649" r="2.53125"/>
					<path class="st9" d="M486.42181,9.78085c0,0-15.73965-14.51189-10.21875-17.69939S486.42181,9.78085,486.42181,9.78085z"/>
					<path class="st10" d="M468.87604,8.68237c0,0-25.26028-11.39178-18.08524-18.96413
						C457.72897-17.60412,468.87604,8.68237,468.87604,8.68237z"/>
					<circle class="st9" cx="472.10931" cy="-15.00913" r="2.5"/>
				</g>
			</g>
			<g>
				<g>
					<circle class="st9" cx="530.99402" cy="35.17538" r="3.5625"/>
					<circle class="st10" cx="540.08734" cy="29.92538" r="2.53125"/>
					<circle class="st10" cx="534.31006" cy="22.54383" r="2.53125"/>
					<circle class="st10" cx="522.27161" cy="35.0327" r="2.53125"/>
					<path class="st9" d="M546.90729,25.98788c0,0,14.51184-15.73966,17.69934-10.21875S546.90729,25.98788,546.90729,25.98788z"/>
					<path class="st10" d="M548.00574,8.44212c0,0,11.39178-25.26029,18.96411-18.08525
						C574.29224-2.70497,548.00574,8.44212,548.00574,8.44212z"/>
					<circle class="st9" cx="571.69727" cy="11.67538" r="2.5"/>
				</g>
				<g>
					<circle class="st9" cx="486.12799" cy="61.0788" r="3.5625"/>
					<circle class="st10" cx="477.03473" cy="66.3288" r="2.53125"/>
					<circle class="st10" cx="482.81201" cy="73.71035" r="2.53125"/>
					<circle class="st10" cx="494.85043" cy="61.22148" r="2.53125"/>
					<path class="st9" d="M470.21478,70.2663c0,0-14.5119,15.73966-17.6994,10.21875
						C449.32788,74.96414,470.21478,70.2663,470.21478,70.2663z"/>
					<path class="st10" d="M469.1163,87.81206c0,0-11.39178,25.26029-18.96414,18.08525
						C442.8298,98.95914,469.1163,87.81206,469.1163,87.81206z"/>
					<circle class="st9" cx="445.4248" cy="84.5788" r="2.5"/>
				</g>
			</g>
		</g>
		<g>
			<g>
				<g>
					<circle class="st9" cx="530.99402" cy="61.0788" r="3.5625"/>
					<circle class="st10" cx="540.08734" cy="66.3288" r="2.53125"/>
					<circle class="st10" cx="543.59131" cy="57.63475" r="2.53125"/>
					<circle class="st10" cx="526.75641" cy="53.45362" r="2.53125"/>
					<path class="st9" d="M546.90729,70.2663c0,0,20.88684,4.69785,17.69934,10.21875
						C561.41913,86.00596,546.90729,70.2663,546.90729,70.2663z"/>
					<path class="st10" d="M562.65155,62.44473c0,0,27.57196-2.76458,25.14435,7.38079
						C585.44849,79.63596,562.65155,62.44473,562.65155,62.44473z"/>
					<circle class="st9" cx="571.69727" cy="84.5788" r="2.5"/>
				</g>
				<g>
					<circle class="st9" cx="486.12799" cy="35.17538" r="3.5625"/>
					<circle class="st10" cx="477.03473" cy="29.92538" r="2.53125"/>
					<circle class="st10" cx="473.53076" cy="38.61943" r="2.53125"/>
					<circle class="st10" cx="490.36566" cy="42.80056" r="2.53125"/>
					<path class="st9" d="M470.21478,25.98788c0,0-20.8869-4.69784-17.6994-10.21875S470.21478,25.98788,470.21478,25.98788z"/>
					<path class="st10" d="M454.47046,33.80944c0,0-27.57193,2.76458-25.14435-7.38079
						C431.67355,16.61822,454.47046,33.80944,454.47046,33.80944z"/>
					<circle class="st9" cx="445.4248" cy="11.67538" r="2.5"/>
				</g>
			</g>
			<g>
				<g>
					<circle class="st9" cx="521.51276" cy="25.69407" r="3.5625"/>
					<circle class="st10" cx="526.76276" cy="16.6008" r="2.53125"/>
					<circle class="st10" cx="518.06866" cy="13.09683" r="2.53125"/>
					<circle class="st10" cx="513.88757" cy="29.93171" r="2.53125"/>
					<path class="st9" d="M530.70026,9.78085c0,0,4.69781-20.88689,10.21875-17.69939
						C546.43988-4.73105,530.70026,9.78085,530.70026,9.78085z"/>
					<path class="st10" d="M522.87866-5.96347c0,0-2.76459-27.57194,7.3808-25.14435
						C540.06989-28.76037,522.87866-5.96347,522.87866-5.96347z"/>
					<circle class="st9" cx="545.01276" cy="-15.00913" r="2.5"/>
				</g>
				<g>
					<circle class="st9" cx="495.60931" cy="70.56011" r="3.5625"/>
					<circle class="st10" cx="490.35931" cy="79.65338" r="2.53125"/>
					<circle class="st10" cx="499.05338" cy="83.15734" r="2.53125"/>
					<circle class="st10" cx="503.2345" cy="66.32246" r="2.53125"/>
					<path class="st9" d="M486.42181,86.47333c0,0-4.69785,20.88689-10.21875,17.69939S486.42181,86.47333,486.42181,86.47333z"/>
					<path class="st10" d="M494.24338,102.21764c0,0,2.76459,27.57194-7.3808,25.14435
						C477.05215,125.01454,494.24338,102.21764,494.24338,102.21764z"/>
					<circle class="st9" cx="472.10931" cy="111.26331" r="2.5"/>
				</g>
			</g>
		</g>
	</g>
</g>
</svg>
