<?xml version="1.0" encoding="utf-8"?>
<!-- Generator: Adobe Illustrator 24.0.1, SVG Export Plug-In . SVG Version: 6.00 Build 0)  -->
<svg version="1.1" id="Layer_1" xmlns="http://www.w3.org/2000/svg" xmlns:xlink="http://www.w3.org/1999/xlink" x="0px" y="0px"
	 viewBox="0 0 623.62207 311.81104" style="enable-background:new 0 0 623.62207 311.81104;" xml:space="preserve">
<style type="text/css">
	.st0{clip-path:url(#SVGID_1_);fill:#FFFFFF;}
	.st1{clip-path:url(#SVGID_1_);}
	.st2{fill:url(#SVGID_2_);}
	.st3{fill:url(#SVGID_3_);}
	.st4{fill:url(#SVGID_4_);}
	.st5{fill:url(#SVGID_5_);}
	.st6{fill:url(#SVGID_6_);}
	.st7{fill:url(#SVGID_7_);}
	.st8{fill:none;stroke:#000000;stroke-miterlimit:10;}
	.st9{fill:url(#SVGID_8_);}
	.st10{opacity:0.05;clip-path:url(#SVGID_1_);}
	.st11{clip-path:url(#SVGID_1_);fill:url(#SVGID_9_);}
</style>
<g id="Chiba-Narita">
	<defs>
		<rect id="SVGID_11_" width="623.62207" height="311.81104"/>
	</defs>
	<clipPath id="SVGID_1_">
		<use xlink:href="#SVGID_11_"  style="overflow:visible;"/>
	</clipPath>
	<rect y="0" class="st0" width="623.62207" height="311.81104"/>
	<g class="st1">
		<linearGradient id="SVGID_2_" gradientUnits="userSpaceOnUse" x1="174.43602" y1="121.28051" x2="174.43602" y2="311.81104">
			<stop  offset="0" style="stop-color:#F6E3E5"/>
			<stop  offset="1" style="stop-color:#F59C9E"/>
		</linearGradient>
		<path class="st2" d="M76.56102,311.81104h-60.75c0,0,21-75.78052,115.125-127.15552s180.87502-63.37501,180.87502-63.37501h21.25
			c0,0-38.25,8.25001-52.125,15.75001S177.4653,162.26068,144.8403,220.76068S76.56102,311.81104,76.56102,311.81104z"/>
		<linearGradient id="SVGID_3_" gradientUnits="userSpaceOnUse" x1="197.31102" y1="123.90551" x2="197.31102" y2="311.81104">
			<stop  offset="0" style="stop-color:#FEEAE0"/>
			<stop  offset="1" style="stop-color:#FBBB9E"/>
		</linearGradient>
		<path class="st3" d="M131.68602,311.81104h-59.625c0,0,12-75.40552,90-123.78052s152.25002-64.12501,152.25002-64.12501h8.25
			c0,0-49.5,22.12501-99.75002,58.12501s-76.875,116.25-76.875,116.25L131.68602,311.81104z"/>
		<linearGradient id="SVGID_4_" gradientUnits="userSpaceOnUse" x1="228.9985" y1="123.90551" x2="228.9985" y2="311.81104">
			<stop  offset="0" style="stop-color:#FDF8E2"/>
			<stop  offset="1" style="stop-color:#F4ED9E"/>
		</linearGradient>
		<path class="st4" d="M183.81102,311.81104h-58.125c0,0-0.39302-72.19284,72.75-125.28052
			c46.5-33.75,121.50002-62.62501,121.50002-62.62501h12.375c0,0-64.125,25.50001-84.37502,63.37501s-45.75,92.625-45.75,92.625
			L183.81102,311.81104z"/>
		<linearGradient id="SVGID_5_" gradientUnits="userSpaceOnUse" x1="263.96481" y1="121.28051" x2="263.96481" y2="311.81104">
			<stop  offset="0" style="stop-color:#F5F8E4"/>
			<stop  offset="1" style="stop-color:#DCE9AD"/>
		</linearGradient>
		<path class="st5" d="M241.56102,311.81104h-62.25c0,0-10.125-63.03052,36-112.53052s117.75002-78.00001,117.75002-78.00001h16.5
			c0,0-38.625,19.12501-53.625,46.12501S241.56102,311.81104,241.56102,311.81104z"/>
		<linearGradient id="SVGID_6_" gradientUnits="userSpaceOnUse" x1="292.60852" y1="121.28051" x2="292.60852" y2="311.81104">
			<stop  offset="0" style="stop-color:#ECF0F5"/>
			<stop  offset="1" style="stop-color:#B8CFE9"/>
		</linearGradient>
		<path class="st6" d="M359.68604,121.28051h-10.125c0,0-78.97983,29.65946-108.30653,86.82825
			c-28.94348,56.42175-9.06848,103.70227-9.06848,103.70227h63.75002c0,0-14.25-98.65552,9-130.90552
			S359.68604,121.28051,359.68604,121.28051z"/>
		<linearGradient id="SVGID_7_" gradientUnits="userSpaceOnUse" x1="329.86212" y1="117.90551" x2="329.86212" y2="311.81104">
			<stop  offset="0" style="stop-color:#E0E5F3"/>
			<stop  offset="1" style="stop-color:#AAB8DA"/>
		</linearGradient>
		<path class="st7" d="M382.81104,117.90551c0,0-67.5,25.50001-67.5,79.50001s65.5,114.40552,65.5,114.40552h-84.875
			c0,0-25.125-46.32776-17.625-93.95277s44.875-76.70274,85.75-96.57775L382.81104,117.90551z"/>
		<path class="st8" d="M330.81104,311.81104"/>
		<linearGradient id="SVGID_8_" gradientUnits="userSpaceOnUse" x1="317.62576" y1="119.85754" x2="317.62576" y2="311.81104">
			<stop  offset="0" style="stop-color:#DCE7F4"/>
			<stop  offset="1" style="stop-color:#9AB5DD"/>
		</linearGradient>
		<path class="st9" d="M330.81104,311.81104c0,0-36.375-37.53052-31.875-99.78052s54-83.84595,70.5-92.17298c-9.75,0-6.75,0-6.75,0
			s-71.98492,25.97758-91.90372,85.18909c-15.7213,46.73389,10.90372,106.7644,10.90372,106.7644H330.81104z"/>
	</g>
	<path class="st10" d="M597.1394,60.03051c-4.5-2-8.5-6.5-18.5-7s-28.5,5.75-48.75,11.5
		c-19.64621,5.57855-55.76254,15.86292-78.78812,23.09192l-89.96191-15.09192l-19-1.5l75.09814,25.72809
		c-26.70728,6.49622-57.62738,13.10242-60.84814,13.27191c-4.75,0.25-34.5-27.25-34.5-27.25l-13.5,1.7359
		c0,0,22.25,34.7641,24.25,37.2641c-15.5,0-35,0-35,0s21.5,4.75,24.5,5.75c3,1.00001-2.5,4.00001-3.5,4.75001s-1,1.75,4.25,2
		s14.75,1.25,33.25,0s50.5-9.50001,74-13.50001s43.75-9.75,47.375-10.75s10.125,1.5,12.75,1s3.625-3,3.625-3l3.875-0.5
		c0,0-0.625,6,4.125,8.5c13.00003,0,21.75003-5.75,22.75003-6.5c2.25-5.75-0.25-11.25-4-14c12-2.5,32-9.5,50.25-15.5
		s27.5-10.5,29.75-12.75S601.6394,62.03051,597.1394,60.03051z"/>
	<linearGradient id="SVGID_9_" gradientUnits="userSpaceOnUse" x1="368.15259" y1="11.54986" x2="505.65964" y2="149.0569">
		<stop  offset="0" style="stop-color:#B8C4DF"/>
		<stop  offset="1" style="stop-color:#B2C8E5"/>
	</linearGradient>
	<path class="st11" d="M590.31104,53.65551c-4.5-2-8.5-6.5-18.5-7s-28.5,5.75-48.75,11.5
		c-19.64618,5.57855-55.76251,15.86292-78.78809,23.09192l-89.96191-15.09192l-19-1.5l75.09814,25.72809
		c-26.70728,6.49622-57.62738,13.10242-60.84814,13.27191c-4.75,0.25-34.5-27.25-34.5-27.25l-13.5,1.7359
		c0,0,22.25,34.7641,24.25,37.2641c-15.5,0-35,0-35,0s21.5,4.75,24.5,5.75s-2.5,4-3.5,4.75s-1,1.75,4.25,2
		c5.25,0.25001,14.75,1.25001,33.25,0c18.5-1.25,50.5-9.5,74-13.5s43.75-9.75,47.375-10.75s10.125,1.5,12.75,1s3.625-3,3.625-3
		l3.875-0.5c0,0-0.625,6,4.125,8.5c13,0,21.75-5.75,22.75-6.5c2.25-5.75-0.25-11.25-4-14c12-2.5,32-9.5,50.25-15.5
		s27.5-10.5,29.75-12.75S594.81104,55.65551,590.31104,53.65551z"/>
</g>
</svg>
