<?xml version="1.0" encoding="utf-8"?>
<!-- Generator: Adobe Illustrator 24.0.1, SVG Export Plug-In . SVG Version: 6.00 Build 0)  -->
<svg version="1.1" id="Layer_1" xmlns="http://www.w3.org/2000/svg" xmlns:xlink="http://www.w3.org/1999/xlink" x="0px" y="0px"
	 viewBox="0 0 623.62207 311.81104" style="enable-background:new 0 0 623.62207 311.81104;" xml:space="preserve">
<style type="text/css">
	.st0{clip-path:url(#SVGID_1_);fill:url(#SVGID_2_);}
	.st1{clip-path:url(#SVGID_1_);fill:url(#SVGID_3_);}
	.st2{clip-path:url(#SVGID_1_);}
	.st3{fill:#C6C39D;}
	.st4{fill:#E2D2A7;}
	.st5{fill:#E3D7AE;}
	.st6{fill:#C0B27F;}
	.st7{fill:#CBBA82;}
	.st8{fill:#E0CF93;}
	.st9{fill:#D0BA8E;}
	.st10{clip-path:url(#SVGID_1_);fill:#FCCAA0;}
</style>
<g id="Iwate-Hiraizumi">
	<defs>
		<rect id="SVGID_5_" width="623.62207" height="311.81104"/>
	</defs>
	<clipPath id="SVGID_1_">
		<use xlink:href="#SVGID_5_"  style="overflow:visible;"/>
	</clipPath>
	<linearGradient id="SVGID_2_" gradientUnits="userSpaceOnUse" x1="311.81104" y1="0" x2="311.81104" y2="311.81104">
		<stop  offset="0" style="stop-color:#D5AB80"/>
		<stop  offset="0.08573" style="stop-color:#F0DDAC"/>
		<stop  offset="0.12798" style="stop-color:#FEF4C1"/>
		<stop  offset="0.28072" style="stop-color:#F9F39F"/>
		<stop  offset="0.55372" style="stop-color:#EBC78F"/>
		<stop  offset="0.78102" style="stop-color:#CABA90"/>
		<stop  offset="0.98667" style="stop-color:#8A7871"/>
	</linearGradient>
	<rect class="st0" width="623.62207" height="311.81104"/>
	<linearGradient id="SVGID_3_" gradientUnits="userSpaceOnUse" x1="0" y1="178.47688" x2="623.62207" y2="178.47688">
		<stop  offset="0" style="stop-color:#DEB184"/>
		<stop  offset="0.24874" style="stop-color:#D8B685"/>
		<stop  offset="0.498" style="stop-color:#939681"/>
		<stop  offset="0.75628" style="stop-color:#D4C29A"/>
		<stop  offset="1" style="stop-color:#F9F4A7"/>
	</linearGradient>
	<path class="st1" d="M0,299.03052c0,0,93.06102-5.625,284.31104-52.125s265.125-66.375,293.25-104.25
		s-64.5-43.12501-96.75-45.37501s-41.25-10.125-11.625-27.375s111.24701-25.125,154.43604-24.75c0,9,0,9,0,9
		s-42.68604,10.5-45.31104,18.75s29.49701,14.25,45.31104,15c0,19.125,0,192.75,0,192.75s-30.31104,22.561-52.06104,31.15552
		c-33.75,0-571.56104,0-571.56104,0V299.03052z"/>
	<g class="st2">
		<g>
			<path class="st3" d="M347.39267,273.91949L347.39267,273.91949v-1.38101c0-1.66974-1.35361-3.02335-3.02335-3.02335h-0.97043
				c-1.05133,0-1.90359,0.85226-1.90359,1.90359v4.06842c0,0-1.71695,0.22394-1.71695,1.41837
				c0,1.1944,1.71695,1.41833,1.71695,1.41833v4.06845c0,1.0513,0.85226,1.90356,1.90359,1.90356h0.97043
				c1.66974,0,3.02335-1.35358,3.02335-3.02332v-1.38104l0,0c1.07193,0,1.94092-0.86896,1.94092-1.94089v-1.0451v-1.0451
				C349.33359,274.78848,348.4646,273.91949,347.39267,273.91949z M347.59796,277.50272c0,0.55988-0.39191,0.89581-1.28772,0.89581
				s-1.45569,0.03732-1.45569,0.03732v2.63141c0,0.49475-0.40106,0.89578-0.89578,0.89578
				c-0.49475,0-0.89581-0.40103-0.89581-0.89578v-4.16174v-4.16174c0-0.49475,0.40106-0.89581,0.89581-0.89581
				c0.49472,0,0.89578,0.40106,0.89578,0.89581v2.63141c0,0,0.55988,0.03732,1.45569,0.03732s1.28772,0.33591,1.28772,0.89581
				c0,0.55988,0,0.5972,0,0.5972S347.59796,276.94284,347.59796,277.50272z"/>
			<path class="st3" d="M331.46771,263.50247c0.01526,1.0105-0.17984,2.39215-1.36087,2.39215
				c-1.48953,0-1.9487-0.62109-2.07275-1.51929c-0.05765-0.41721-0.42825-0.72021-0.84943-0.72021h-0.3161
				c-0.45355,0-0.83279,0.35086-0.85947,0.80362c-0.07635,1.29642,0.34625,3.69626,4.54999,3.60074
				c3.77402-0.08578,3.68329-3.2204,3.40909-4.76105c-0.08652-0.48605-0.51236-0.83771-1.00604-0.83771h-0.47217
				C331.91745,262.46072,331.45908,262.93002,331.46771,263.50247z"/>
			<path class="st3" d="M339.21848,269.55765c0-0.49368-0.35165-0.91953-0.83771-1.00604
				c-1.54065-0.2742-4.67526-0.3649-4.76105,3.40912c-0.09552,4.20374,2.30432,4.62634,3.60074,4.54999
				c0.45276-0.02667,0.80362-0.40594,0.80362-0.85947v-0.31613c0-0.42117-0.30301-0.79178-0.72021-0.8494
				c-0.89819-0.12408-1.51929-0.58325-1.51929-2.07278c0-1.18103,1.38165-1.37613,2.39215-1.36087
				c0.57245,0.00864,1.04175-0.44974,1.04175-1.02225V269.55765z"/>
			<path class="st3" d="M334.64691,260.44516h0.68976l1.18219,1.52438c1.09863,1.41669,2.37131,2.68936,3.78799,3.78799
				l1.52438,1.18219v0.6897c0,0.31119,0.25229,0.56345,0.56348,0.56345h0.29141c0.31119,0,0.56348-0.25226,0.56348-0.56345v-7.17664
				c0-0.78754-0.63846-1.42596-1.42599-1.42596h-7.1767c-0.31119,0-0.56345,0.25226-0.56345,0.56345v0.29144
				C334.08347,260.1929,334.33572,260.44516,334.64691,260.44516z M339.21848,261.44977c0-0.38992,0.3161-0.70599,0.70599-0.70599
				h0.90216c0.38992,0,0.70602,0.31607,0.70602,0.70599v0.90216c0,0.38992-0.3161,0.70599-0.70602,0.70599h-0.90216
				c-0.38989,0-0.70599-0.31607-0.70599-0.70599V261.44977z"/>
			<path class="st3" d="M319.32425,260.74377h4.06842c0,0,0.22394,1.71695,1.41837,1.71695
				c1.1944,0,1.41833-1.71695,1.41833-1.71695h4.06842c1.05133,0,1.90359-0.85226,1.90359-1.90359v-0.97043
				c0-1.66974-1.35361-3.02335-3.02335-3.02335h-1.38101c0-1.07191-0.86899-1.94089-1.94089-1.94089h-1.0451h-1.0451
				c-1.07196,0-1.94092,0.86897-1.94092,1.94089H320.444c-1.66974,0-3.02335,1.35361-3.02335,3.02335v0.97043
				C317.42065,259.89151,318.27292,260.74377,319.32425,260.74377z M319.75348,258.2803c0-0.49472,0.40106-0.89578,0.89578-0.89578
				h2.63144c0,0,0.03732-0.55988,0.03732-1.45569c0-0.8958,0.33591-1.28769,0.89578-1.28769s0.59723,0,0.59723,0s0.03732,0,0.5972,0
				s0.89578,0.39189,0.89578,1.28769c0,0.89581,0.03732,1.45569,0.03732,1.45569h2.63144c0.49472,0,0.89578,0.40106,0.89578,0.89578
				l0,0c0,0.49475-0.40106,0.89581-0.89578,0.89581h-4.16174h-4.16177C320.15454,259.17612,319.75348,258.77505,319.75348,258.2803
				L319.75348,258.2803z"/>
			<path class="st3" d="M319.06296,268.05948c4.20374,0.09552,4.62634-2.30432,4.54999-3.60074
				c-0.02667-0.45276-0.40591-0.80362-0.85947-0.80362h-0.3161c-0.42117,0-0.79178,0.30301-0.84943,0.72021
				c-0.12405,0.89819-0.58322,1.51929-2.07275,1.51929c-1.18103,0-1.37613-1.38165-1.36087-2.39215
				c0.00864-0.57245-0.44974-1.04175-1.02228-1.04175h-0.47217c-0.49365,0-0.91949,0.35165-1.00601,0.83771
				C315.37967,264.83908,315.28894,267.97369,319.06296,268.05948z"/>
			<path class="st3" d="M312.31818,274.48572c-0.41724,0.05762-0.72021,0.42822-0.72021,0.8494v0.31613
				c0,0.45352,0.35086,0.83279,0.80362,0.85947c1.29642,0.07635,3.69626-0.34625,3.60074-4.54999
				c-0.08578-3.77402-3.2204-3.68332-4.76105-3.40912c-0.48605,0.08652-0.83771,0.51236-0.83771,1.00604v0.47217
				c0,0.57251,0.4693,1.03088,1.04175,1.02225c1.0105-0.01526,2.39215,0.17984,2.39215,1.36087
				C313.83746,273.90247,313.21637,274.36163,312.31818,274.48572z"/>
			<path class="st3" d="M306.93591,268.19287h0.29141c0.31119,0,0.56348-0.25226,0.56348-0.56345v-0.6897l1.52438-1.18219
				c1.41666-1.09863,2.68936-2.37131,3.78799-3.78799l1.18219-1.52438h0.68976c0.31119,0,0.56345-0.25226,0.56345-0.56345v-0.29144
				c0-0.31119-0.25226-0.56345-0.56345-0.56345h-7.1767c-0.78754,0-1.42599,0.63843-1.42599,1.42596v7.17664
				C306.37244,267.94061,306.62473,268.19287,306.93591,268.19287z M308.08942,261.44977c0-0.38992,0.31607-0.70599,0.70596-0.70599
				h0.90219c0.38989,0,0.70599,0.31607,0.70599,0.70599v0.90216c0,0.38992-0.3161,0.70599-0.70599,0.70599h-0.90219
				c-0.38989,0-0.70596-0.31607-0.70596-0.70599V261.44977z"/>
			<path class="st3" d="M330.55908,285.75156c-4.20374-0.09555-4.62634,2.30429-4.54999,3.60074
				c0.02667,0.45273,0.40591,0.80362,0.85947,0.80362h0.3161c0.42117,0,0.79178-0.30301,0.84943-0.72025
				c0.12405-0.89816,0.58322-1.51926,2.07275-1.51926c1.18103,0,1.37613,1.38162,1.36087,2.39212
				c-0.00864,0.57245,0.44974,1.04178,1.02225,1.04178h0.47217c0.49368,0,0.91953-0.35168,1.00604-0.83771
				C334.24237,288.97195,334.3331,285.83731,330.55908,285.75156z"/>
			<path class="st3" d="M338.38077,285.2594c0.48605-0.08649,0.83771-0.51233,0.83771-1.00601v-0.47217
				c0-0.57251-0.4693-1.03091-1.04175-1.02225c-1.0105,0.01523-2.39215-0.17984-2.39215-1.3609
				c0-1.48953,0.62109-1.94867,1.51929-2.07275c0.41721-0.05765,0.72021-0.42822,0.72021-0.84943v-0.3161
				c0-0.45352-0.35086-0.83279-0.80362-0.85947c-1.29642-0.07635-3.69626,0.34625-3.60074,4.54999
				C333.70551,285.62433,336.84012,285.5336,338.38077,285.2594z"/>
			<path class="st3" d="M342.68613,285.61813h-0.29141c-0.31119,0-0.56348,0.25229-0.56348,0.56348v0.6897l-1.52438,1.18216
				c-1.41669,1.09866-2.68936,2.37134-3.78799,3.78799l-1.18219,1.52438h-0.68976c-0.31119,0-0.56345,0.25229-0.56345,0.56348
				v0.29141c0,0.31122,0.25226,0.56348,0.56345,0.56348h7.1767c0.78754,0,1.42599-0.63843,1.42599-1.42596v-7.17664
				C343.2496,285.87042,342.99731,285.61813,342.68613,285.61813z M341.53265,292.36127c0,0.38989-0.3161,0.70599-0.70602,0.70599
				h-0.90216c-0.38989,0-0.70599-0.3161-0.70599-0.70599v-0.90216c0-0.38992,0.3161-0.70599,0.70599-0.70599h0.90216
				c0.38992,0,0.70602,0.31607,0.70602,0.70599V292.36127z"/>
			<path class="st3" d="M317.77969,279.11215l4.82471,4.82468c0.28964,0.28964,0.45233,0.68246,0.45233,1.09207
				c0,0.56403,0.45724,1.02124,1.02124,1.02124h0.73306h0.73303c0.564,0,1.02124-0.45721,1.02124-1.02124
				c0-0.40961,0.16269-0.80243,0.45233-1.09207l4.82471-4.82468c0.28964-0.28964,0.68246-0.45236,1.09207-0.45236
				c0.564,0,1.02124-0.45721,1.02124-1.02124v-0.73303v-0.73306c0-0.564-0.45724-1.02124-1.02124-1.02124
				c-0.40961,0-0.80243-0.16269-1.09207-0.45233l-4.82471-4.82471c-0.28964-0.28961-0.45233-0.68246-0.45233-1.09207
				c0-0.564-0.45724-1.02124-1.02124-1.02124h-0.73303h-0.73306c-0.564,0-1.02124,0.45724-1.02124,1.02124
				c0,0.40961-0.16269,0.80246-0.45233,1.09207l-4.82471,4.82471c-0.28961,0.28964-0.68246,0.45233-1.09207,0.45233
				c-0.56403,0-1.02124,0.45724-1.02124,1.02124v0.73306v0.73303c0,0.56403,0.45721,1.02124,1.02124,1.02124
				C317.09723,278.65979,317.49008,278.82251,317.77969,279.11215z M326.0014,276.90552v0.28354
				c0,0.50085-0.40601,0.90686-0.90683,0.90686h-0.28354h-0.28357c-0.50082,0-0.90683-0.40601-0.90683-0.90686v-0.28354v-0.28357
				c0-0.50082,0.40601-0.90683,0.90683-0.90683h0.28357h0.28354c0.50082,0,0.90683,0.40601,0.90683,0.90683V276.90552z
				 M326.08008,281.89441c0,0.46051-0.37332,0.8338-0.83383,0.8338h-0.43521h-0.43524c-0.46051,0-0.83383-0.37329-0.83383-0.8338
				v-1.30374c0-0.46048,0.37332-0.8338,0.83383-0.8338h0.43524h0.43521c0.46051,0,0.83383,0.37332,0.83383,0.8338V281.89441z
				 M327.66238,276.47028c0-0.46051,0.37329-0.83383,0.8338-0.83383h1.30374c0.46048,0,0.8338,0.37332,0.8338,0.83383v0.43524
				v0.43524c0,0.46051-0.37332,0.8338-0.8338,0.8338h-1.30374c-0.46051,0-0.8338-0.37329-0.8338-0.8338v-0.43524V276.47028z
				 M323.54196,271.91663c0-0.46051,0.37332-0.83383,0.83383-0.83383h0.43524h0.43521c0.46051,0,0.83383,0.37332,0.83383,0.83383
				v1.30371c0,0.46051-0.37332,0.8338-0.83383,0.8338h-0.43521h-0.43524c-0.46051,0-0.83383-0.37329-0.83383-0.8338V271.91663z
				 M318.98831,276.47028c0-0.46051,0.37332-0.83383,0.8338-0.83383h1.30374c0.46051,0,0.8338,0.37332,0.8338,0.83383v0.43524
				v0.43524c0,0.46051-0.37329,0.8338-0.8338,0.8338h-1.30374c-0.46048,0-0.8338-0.37329-0.8338-0.8338v-0.43524V276.47028z"/>
			<path class="st3" d="M330.29779,293.06726h-4.06842c0,0-0.22394-1.71695-1.41833-1.71695
				c-1.19443,0-1.41837,1.71695-1.41837,1.71695h-4.06842c-1.05133,0-1.90359,0.85226-1.90359,1.90356v0.97046
				c0,1.66974,1.35361,3.02332,3.02335,3.02332h1.38101c0,1.07193,0.86896,1.94092,1.94092,1.94092h1.0451h1.0451
				c1.0719,0,1.94089-0.86899,1.94089-1.94092h1.38101c1.66974,0,3.02335-1.35358,3.02335-3.02332v-0.97046
				C332.20139,293.91953,331.34912,293.06726,330.29779,293.06726z M329.86856,295.53073c0,0.49472-0.40106,0.89578-0.89578,0.89578
				h-2.63144c0,0-0.03732,0.55988-0.03732,1.45566c0,0.89581-0.33591,1.28772-0.89578,1.28772s-0.5972,0-0.5972,0
				s-0.03735,0-0.59723,0s-0.89578-0.39191-0.89578-1.28772c0-0.89578-0.03732-1.45566-0.03732-1.45566h-2.63144
				c-0.49472,0-0.89578-0.40106-0.89578-0.89578v-0.00003c0-0.49472,0.40106-0.89578,0.89578-0.89578h4.16177h4.16174
				c0.49472,0,0.89578,0.40106,0.89578,0.89578V295.53073z"/>
			<path class="st3" d="M308.12674,282.3923v-4.06845c0,0,1.71695-0.22394,1.71695-1.41833
				c0-1.19443-1.71695-1.41837-1.71695-1.41837v-4.06842c0-1.05133-0.85226-1.90359-1.90359-1.90359h-0.97046
				c-1.66974,0-3.02332,1.35361-3.02332,3.02335v1.38101c-1.07193,0-1.94089,0.86899-1.94089,1.94092v1.0451v1.0451
				c0,1.07193,0.86896,1.94089,1.94089,1.94089v1.38104c0,1.66974,1.35358,3.02332,3.02332,3.02332h0.97046
				C307.27448,284.29587,308.12674,283.4436,308.12674,282.3923z M306.55905,281.06726c0,0.49475-0.40106,0.89578-0.89578,0.89578
				c-0.49475,0-0.89581-0.40103-0.89581-0.89578v-2.63141c0,0-0.55984-0.03732-1.45566-0.03732s-1.28772-0.33594-1.28772-0.89581
				s0-0.5972,0-0.5972s0-0.03732,0-0.5972c0-0.55991,0.39191-0.89581,1.28772-0.89581s1.45566-0.03732,1.45566-0.03732v-2.63141
				c0-0.49475,0.40106-0.89581,0.89581-0.89581c0.49472,0,0.89578,0.40106,0.89578,0.89581v4.16174V281.06726z"/>
			<path class="st3" d="M318.15433,290.30853c-0.01526-1.0105,0.17984-2.39212,1.36087-2.39212
				c1.48953,0,1.9487,0.62109,2.07275,1.51926c0.05765,0.41724,0.42825,0.72025,0.84943,0.72025h0.3161
				c0.45355,0,0.83279-0.35089,0.85947-0.80362c0.07635-1.29645-0.34625-3.69629-4.54999-3.60074
				c-3.77402,0.08575-3.68329,3.2204-3.40909,4.76105c0.08652,0.48602,0.51236,0.83771,1.00601,0.83771h0.47217
				C317.70459,291.35031,318.16296,290.88098,318.15433,290.30853z"/>
			<path class="st3" d="M310.40356,284.25339c0,0.49368,0.35165,0.91953,0.83771,1.00601
				c1.54065,0.2742,4.67526,0.36493,4.76105-3.40909c0.09552-4.20374-2.30432-4.62634-3.60074-4.54999
				c-0.45276,0.02667-0.80362,0.40594-0.80362,0.85947v0.3161c0,0.4212,0.30298,0.79178,0.72021,0.84943
				c0.89819,0.12408,1.51929,0.58322,1.51929,2.07275c0,1.18106-1.38165,1.37613-2.39215,1.3609
				c-0.57245-0.00867-1.04175,0.44974-1.04175,1.02225V284.25339z"/>
			<path class="st3" d="M314.97513,293.36584h-0.68976l-1.18219-1.52438c-1.09863-1.41666-2.37134-2.68933-3.78799-3.78799
				l-1.52438-1.18216v-0.6897c0-0.31119-0.25229-0.56348-0.56348-0.56348h-0.29141c-0.31119,0-0.56348,0.25229-0.56348,0.56348
				v7.17664c0,0.78754,0.63846,1.42596,1.42599,1.42596h7.1767c0.31119,0,0.56345-0.25226,0.56345-0.56348v-0.29141
				C315.53857,293.61813,315.28632,293.36584,314.97513,293.36584z M310.40356,292.36127c0,0.38989-0.3161,0.70599-0.70599,0.70599
				h-0.90219c-0.38989,0-0.70596-0.3161-0.70596-0.70599v-0.90216c0-0.38992,0.31607-0.70599,0.70596-0.70599h0.90219
				c0.38989,0,0.70599,0.31607,0.70599,0.70599V292.36127z"/>
		</g>
		<g>
			<path class="st4" d="M514.25592,288.86172L514.25592,288.86172v-1.15097c0-1.3916-1.12811-2.51971-2.51968-2.51971h-0.80878
				c-0.87619,0-1.58649,0.7103-1.58649,1.58649v3.39072c0,0-1.43094,0.18661-1.43094,1.18207
				c0,0.99542,1.43094,1.18207,1.43094,1.18207v3.39072c0,0.87616,0.7103,1.58646,1.58649,1.58646h0.80878
				c1.39157,0,2.51968-1.12811,2.51968-2.51968v-1.15097l0,0c0.89337,0,1.61761-0.72421,1.61761-1.61758v-0.871v-0.871
				C515.87354,289.58594,515.14929,288.86172,514.25592,288.86172z M514.427,291.84802c0,0.46661-0.3266,0.74658-1.07318,0.74658
				s-1.2132,0.0311-1.2132,0.0311v2.19308c0,0.41232-0.33423,0.74655-0.74655,0.74655s-0.74658-0.33423-0.74658-0.74655v-3.46848
				v-3.46848c0-0.41232,0.33426-0.74658,0.74658-0.74658s0.74655,0.33426,0.74655,0.74658v2.19305
				c0,0,0.46661,0.03113,1.2132,0.03113s1.07318,0.27997,1.07318,0.74658s0,0.49771,0,0.49771S514.427,291.38141,514.427,291.84802z
				"/>
			<path class="st4" d="M500.98383,280.17999c0.01273,0.84216-0.14987,1.99365-1.13419,1.99365
				c-1.24139,0-1.62405-0.51764-1.72748-1.2662c-0.04803-0.34772-0.3569-0.60022-0.70792-0.60022h-0.26343
				c-0.37799,0-0.69409,0.29242-0.71631,0.66974c-0.06363,1.08047,0.28857,3.08054,3.79202,3.00092
				c3.14532-0.0715,3.06973-2.68393,2.84119-3.96793c-0.07208-0.40509-0.42697-0.69818-0.83841-0.69818h-0.39352
				C501.35864,279.31177,500.97662,279.70291,500.98383,280.17999z"/>
			<path class="st4" d="M507.44345,285.22647c0-0.41144-0.29309-0.76636-0.69818-0.83844
				c-1.284-0.22852-3.89645-0.30414-3.96793,2.84119c-0.07962,3.50348,1.92044,3.85568,3.00092,3.79205
				c0.37732-0.02225,0.66974-0.33832,0.66974-0.71631v-0.26343c0-0.35104-0.25253-0.65991-0.60025-0.70795
				c-0.74857-0.10339-1.26617-0.48605-1.26617-1.72745c0-0.98431,1.15149-1.14691,1.99365-1.13419
				c0.47708,0.0072,0.86823-0.37482,0.86823-0.85199V285.22647z"/>
			<path class="st4" d="M503.63342,277.63199h0.57486l0.98523,1.27045c0.91565,1.18066,1.97632,2.24136,3.15698,3.15698
				l1.27045,0.98523v0.5748c0,0.25937,0.21027,0.4696,0.4696,0.4696h0.24289c0.25934,0,0.4696-0.21024,0.4696-0.4696v-5.98111
				c0-0.65634-0.5321-1.18845-1.18845-1.18845h-5.98117c-0.25937,0-0.4696,0.21027-0.4696,0.4696v0.24289
				C503.16382,277.42172,503.37405,277.63199,503.63342,277.63199z M507.44345,278.46924c0-0.32495,0.26343-0.58841,0.58838-0.58841
				h0.75189c0.32495,0,0.58838,0.26346,0.58838,0.58841v0.75186c0,0.32498-0.26343,0.58838-0.58838,0.58838h-0.75189
				c-0.32495,0-0.58838-0.2634-0.58838-0.58838V278.46924z"/>
			<path class="st4" d="M490.86325,277.88083h3.39069c0,0,0.18665,1.43094,1.1821,1.43094
				c0.99542,0,1.18207-1.43094,1.18207-1.43094h3.39069c0.87619,0,1.58649-0.71027,1.58649-1.58646v-0.80881
				c0-1.39157-1.12811-2.51968-2.51971-2.51968h-1.15094c0-0.89334-0.72424-1.61758-1.61758-1.61758h-0.871h-0.871
				c-0.89337,0-1.61761,0.72424-1.61761,1.61758h-1.15097c-1.39157,0-2.51968,1.12811-2.51968,2.51968v0.80881
				C489.27676,277.17056,489.98706,277.88083,490.86325,277.88083z M491.22098,275.82776c0-0.41232,0.33426-0.74658,0.74658-0.74658
				h2.19305c0,0,0.03113-0.46661,0.03113-1.21317c0-0.74658,0.27994-1.07321,0.74655-1.07321s0.49774,0,0.49774,0
				s0.0311,0,0.49771,0s0.74655,0.32663,0.74655,1.07321c0,0.74655,0.03113,1.21317,0.03113,1.21317h2.19305
				c0.41232,0,0.74658,0.33426,0.74658,0.74658l0,0c0,0.41232-0.33426,0.74655-0.74658,0.74655h-3.46844h-3.46848
				C491.55524,276.57431,491.22098,276.24008,491.22098,275.82776L491.22098,275.82776z"/>
			<path class="st4" d="M490.64551,283.97787c3.50345,0.07962,3.85565-1.92044,3.79202-3.00092
				c-0.02222-0.37732-0.33832-0.66974-0.71631-0.66974h-0.26343c-0.35104,0-0.65988,0.2525-0.70792,0.60022
				c-0.10342,0.74857-0.48608,1.2662-1.72748,1.2662c-0.98431,0-1.14691-1.15149-1.13419-1.99365
				c0.0072-0.47708-0.37482-0.86823-0.85196-0.86823h-0.39352c-0.41144,0-0.76633,0.29309-0.83844,0.69818
				C487.57578,281.29395,487.50015,283.90637,490.64551,283.97787z"/>
			<path class="st4" d="M485.02429,289.33359c-0.34775,0.04803-0.60025,0.3569-0.60025,0.70795v0.26343
				c0,0.37799,0.29242,0.69406,0.66974,0.71631c1.08047,0.06363,3.08054-0.28857,3.00092-3.79205
				c-0.0715-3.14532-2.68393-3.0697-3.96793-2.84119c-0.40509,0.07208-0.69818,0.427-0.69818,0.83844v0.39349
				c0,0.47717,0.39114,0.85919,0.86823,0.85199c0.84216-0.01273,1.99365,0.14987,1.99365,1.13419
				C486.29047,288.84753,485.77286,289.23019,485.02429,289.33359z"/>
			<path class="st4" d="M480.5386,284.08905h0.24289c0.25934,0,0.4696-0.21024,0.4696-0.4696v-0.5748l1.27045-0.98523
				c1.18066-0.91562,2.24133-1.97632,3.15698-3.15698l0.98523-1.27045h0.57486c0.25937,0,0.4696-0.21027,0.4696-0.4696v-0.24289
				c0-0.25934-0.21024-0.4696-0.4696-0.4696h-5.98117c-0.65634,0-1.18845,0.5321-1.18845,1.18845v5.98111
				C480.069,283.87881,480.27927,284.08905,480.5386,284.08905z M481.49994,278.46924c0-0.32495,0.26343-0.58841,0.58838-0.58841
				h0.75189c0.32495,0,0.58838,0.26346,0.58838,0.58841v0.75186c0,0.32498-0.26343,0.58838-0.58838,0.58838h-0.75189
				c-0.32495,0-0.58838-0.2634-0.58838-0.58838V278.46924z"/>
			<path class="st4" d="M500.22653,298.72275c-3.50345-0.07962-3.85565,1.92044-3.79202,3.00092
				c0.02222,0.37732,0.33832,0.66974,0.71631,0.66974h0.26343c0.35101,0,0.65988-0.25253,0.70792-0.60025
				c0.10342-0.74857,0.48608-1.26617,1.72748-1.26617c0.98431,0,1.14691,1.15146,1.13419,1.99365
				c-0.0072,0.47708,0.37482,0.86819,0.85196,0.86819h0.39352c0.41144,0,0.76633-0.29306,0.83841-0.69815
				C503.29626,301.40668,503.37186,298.79422,500.22653,298.72275z"/>
			<path class="st4" d="M506.74527,298.31259c0.40509-0.07211,0.69818-0.427,0.69818-0.83844v-0.39352
				c0-0.47714-0.39114-0.85916-0.86823-0.85196c-0.84216,0.0127-1.99365-0.14987-1.99365-1.13419
				c0-1.24139,0.51761-1.62405,1.26617-1.72748c0.34772-0.04803,0.60025-0.3569,0.60025-0.70792v-0.26346
				c0-0.37796-0.29242-0.69406-0.66974-0.71628c-1.08047-0.06363-3.08054,0.28857-3.00092,3.79202
				C502.84882,298.6167,505.46127,298.54111,506.74527,298.31259z"/>
			<path class="st4" d="M510.33344,298.61154h-0.24289c-0.25934,0-0.4696,0.21027-0.4696,0.4696v0.5748l-1.27045,0.98526
				c-1.18066,0.91562-2.24133,1.97629-3.15698,3.15698l-0.98523,1.27045h-0.57486c-0.25937,0-0.4696,0.21024-0.4696,0.4696v0.24286
				c0,0.25937,0.21024,0.4696,0.4696,0.4696h5.98117c0.65634,0,1.18845-0.53207,1.18845-1.18842v-5.98114
				C510.80304,298.82181,510.59277,298.61154,510.33344,298.61154z M509.3721,304.23138c0,0.32495-0.26343,0.58838-0.58838,0.58838
				h-0.75189c-0.32495,0-0.58838-0.26343-0.58838-0.58838v-0.75189c0-0.32495,0.26343-0.58838,0.58838-0.58838h0.75189
				c0.32495,0,0.58838,0.26343,0.58838,0.58838V304.23138z"/>
			<path class="st4" d="M489.57599,293.18936l4.021,4.02097c0.24139,0.24139,0.37698,0.56879,0.37698,0.91016
				c0,0.47006,0.38107,0.8511,0.85114,0.8511h0.61093h0.6109c0.47006,0,0.85114-0.38104,0.85114-0.8511
				c0-0.34137,0.13559-0.66876,0.37698-0.91016l4.021-4.02097c0.24136-0.24139,0.56876-0.37701,0.91013-0.37701
				c0.47006,0,0.85114-0.38107,0.85114-0.8511v-0.61093v-0.61093c0-0.47006-0.38107-0.85114-0.85114-0.85114
				c-0.34137,0-0.66876-0.13559-0.91013-0.37698l-4.021-4.02097c-0.24139-0.24139-0.37698-0.56879-0.37698-0.91016
				c0-0.47006-0.38107-0.85114-0.85114-0.85114h-0.6109h-0.61093c-0.47006,0-0.85114,0.38107-0.85114,0.85114
				c0,0.34137-0.13559,0.66876-0.37698,0.91016l-4.021,4.02097c-0.24136,0.24139-0.56876,0.37698-0.91013,0.37698
				c-0.47006,0-0.85114,0.38107-0.85114,0.85114v0.61093v0.61093c0,0.47003,0.38107,0.8511,0.85114,0.8511
				C489.00723,292.81235,489.33463,292.94797,489.57599,293.18936z M496.4281,291.35031v0.23633
				c0,0.41739-0.33835,0.75577-0.75577,0.75577h-0.2363h-0.23633c-0.41742,0-0.75577-0.33838-0.75577-0.75577v-0.23633v-0.23633
				c0-0.41742,0.33835-0.75577,0.75577-0.75577h0.23633h0.2363c0.41742,0,0.75577,0.33835,0.75577,0.75577V291.35031z
				 M496.49365,295.50815c0,0.38379-0.3111,0.69492-0.69489,0.69492h-0.36273h-0.36276c-0.38379,0-0.69489-0.31113-0.69489-0.69492
				v-1.08655c0-0.38379,0.3111-0.69492,0.69489-0.69492h0.36276h0.36273c0.38379,0,0.69489,0.31113,0.69489,0.69492V295.50815z
				 M497.81238,290.98758c0-0.38379,0.31113-0.69492,0.69492-0.69492h1.08655c0.38379,0,0.69492,0.31113,0.69492,0.69492v0.36273
				v0.36273c0,0.38379-0.31113,0.69492-0.69492,0.69492h-1.08655c-0.38379,0-0.69492-0.31113-0.69492-0.69492v-0.36273V290.98758z
				 M494.37839,287.19247c0-0.38379,0.3111-0.69492,0.69489-0.69492h0.36276h0.36273c0.38379,0,0.69489,0.31113,0.69489,0.69492
				v1.08655c0,0.38379-0.3111,0.69492-0.69489,0.69492h-0.36273h-0.36276c-0.38379,0-0.69489-0.31113-0.69489-0.69492V287.19247z
				 M490.58328,290.98758c0-0.38379,0.31113-0.69492,0.69492-0.69492h1.08655c0.38379,0,0.69492,0.31113,0.69492,0.69492v0.36273
				v0.36273c0,0.38379-0.31113,0.69492-0.69492,0.69492h-1.08655c-0.38379,0-0.69492-0.31113-0.69492-0.69492v-0.36273V290.98758z"
				/>
			<path class="st4" d="M500.00879,304.81976h-3.39069c0,0-0.18665-1.43094-1.18207-1.43094
				c-0.99545,0-1.1821,1.43094-1.1821,1.43094h-3.39069c-0.87619,0-1.58649,0.7103-1.58649,1.58649v0.80878
				c0,1.3916,1.12811,2.51968,2.51968,2.51968h1.15097c0,0.89337,0.72424,1.61758,1.61761,1.61758h0.871h0.871
				c0.89334,0,1.61758-0.72421,1.61758-1.61758h1.15094c1.3916,0,2.51971-1.12808,2.51971-2.51968v-0.80878
				C501.59528,305.53006,500.88498,304.81976,500.00879,304.81976z M499.65106,306.87286c0,0.41232-0.33426,0.74658-0.74658,0.74658
				h-2.19305c0,0-0.03113,0.46658-0.03113,1.21317s-0.27994,1.07318-0.74655,1.07318s-0.49771,0-0.49771,0s-0.03113,0-0.49774,0
				s-0.74655-0.3266-0.74655-1.07318s-0.03113-1.21317-0.03113-1.21317h-2.19305c-0.41232,0-0.74658-0.33426-0.74658-0.74658l0,0
				c0-0.41232,0.33426-0.74658,0.74658-0.74658h3.46848h3.46844C499.3168,306.12628,499.65106,306.46054,499.65106,306.87286
				L499.65106,306.87286z"/>
			<path class="st4" d="M481.53107,295.9231v-3.39072c0,0,1.43091-0.18665,1.43091-1.18207
				c0-0.99545-1.43091-1.18207-1.43091-1.18207v-3.39072c0-0.87619-0.7103-1.58649-1.58649-1.58649h-0.80878
				c-1.3916,0-2.51971,1.12811-2.51971,2.51971v1.15097c-0.89337,0-1.61755,0.72421-1.61755,1.61758v0.871v0.871
				c0,0.89337,0.72418,1.61758,1.61755,1.61758v1.15097c0,1.39157,1.12811,2.51968,2.51971,2.51968h0.80878
				C480.82077,297.50955,481.53107,296.79926,481.53107,295.9231z M480.22455,294.81879c0,0.41232-0.33426,0.74655-0.74658,0.74655
				s-0.74658-0.33423-0.74658-0.74655v-2.19308c0,0-0.46658-0.0311-1.21317-0.0311s-1.07321-0.27997-1.07321-0.74658
				s0-0.49771,0-0.49771s0-0.0311,0-0.49771s0.32663-0.74658,1.07321-0.74658s1.21317-0.03113,1.21317-0.03113v-2.19305
				c0-0.41232,0.33426-0.74658,0.74658-0.74658s0.74658,0.33426,0.74658,0.74658v3.46848V294.81879z"/>
			<path class="st4" d="M489.88821,302.52063c-0.01273-0.84219,0.14987-1.99365,1.13419-1.99365
				c1.24139,0,1.62405,0.51761,1.72748,1.26617c0.04803,0.34772,0.35687,0.60025,0.70792,0.60025h0.26343
				c0.37799,0,0.69409-0.29242,0.71631-0.66974c0.06363-1.08047-0.28857-3.08054-3.79202-3.00092
				c-3.14536,0.07147-3.06973,2.68393-2.84122,3.96793c0.07211,0.40509,0.427,0.69815,0.83844,0.69815h0.39352
				C489.5134,303.38882,489.89542,302.99771,489.88821,302.52063z"/>
			<path class="st4" d="M483.42859,297.47415c0,0.41144,0.29309,0.76633,0.69818,0.83844
				c1.284,0.22852,3.89642,0.30411,3.96793-2.84122c0.07962-3.50345-1.92044-3.85565-3.00092-3.79202
				c-0.37732,0.02222-0.66974,0.33832-0.66974,0.71628v0.26346c0,0.35101,0.2525,0.65988,0.60025,0.70792
				c0.74857,0.10342,1.26617,0.48608,1.26617,1.72748c0,0.98431-1.15149,1.14688-1.99365,1.13419
				c-0.47708-0.0072-0.86823,0.37482-0.86823,0.85196V297.47415z"/>
			<path class="st4" d="M487.23862,305.06863h-0.57486l-0.98523-1.27045c-0.91565-1.18069-1.97632-2.24136-3.15698-3.15698
				l-1.27045-0.98526v-0.5748c0-0.25934-0.21027-0.4696-0.4696-0.4696h-0.24289c-0.25934,0-0.4696,0.21027-0.4696,0.4696v5.98114
				c0,0.65634,0.5321,1.18842,1.18845,1.18842h5.98117c0.25937,0,0.4696-0.21024,0.4696-0.4696v-0.24286
				C487.70822,305.27887,487.49799,305.06863,487.23862,305.06863z M483.42859,304.23138c0,0.32495-0.26343,0.58838-0.58838,0.58838
				h-0.75189c-0.32495,0-0.58838-0.26343-0.58838-0.58838v-0.75189c0-0.32495,0.26343-0.58838,0.58838-0.58838h0.75189
				c0.32495,0,0.58838,0.26343,0.58838,0.58838V304.23138z"/>
		</g>
		<g>
			<path class="st5" d="M491.35986,219.63632L491.35986,219.63632v-1.00061c0-1.20979-0.98074-2.19054-2.19052-2.19054h-0.70316
				c-0.76172,0-1.37921,0.61751-1.37921,1.37923v2.94774c0,0-1.24399,0.16226-1.24399,1.02766
				c0,0.86539,1.24399,1.02765,1.24399,1.02765v2.94775c0,0.76172,0.61749,1.37921,1.37921,1.37921h0.70316
				c1.20978,0,2.19052-0.98073,2.19052-2.19054v-1.0006l0,0c0.77664,0,1.40625-0.62961,1.40625-1.40627v-0.75722v-0.75723
				C492.76611,220.26593,492.13651,219.63632,491.35986,219.63632z M491.50858,222.2325c0,0.40565-0.28394,0.64905-0.93298,0.64905
				s-1.05469,0.02704-1.05469,0.02704v1.90657c0,0.35846-0.29059,0.64903-0.64905,0.64903s-0.64905-0.29057-0.64905-0.64903
				v-3.01535v-3.01537c0-0.35846,0.29059-0.64903,0.64905-0.64903s0.64905,0.29057,0.64905,0.64903v1.90657
				c0,0,0.40564,0.02704,1.05469,0.02704s0.93298,0.24339,0.93298,0.64905s0,0.43271,0,0.43271
				S491.50858,221.82684,491.50858,222.2325z"/>
			<path class="st5" d="M479.82156,212.08875c0.01108,0.73215-0.13028,1.73322-0.98599,1.73322
				c-1.07925,0-1.41193-0.45001-1.5018-1.10078c-0.04178-0.30229-0.31027-0.52184-0.61545-0.52184h-0.22903
				c-0.32861,0-0.60339,0.25423-0.62271,0.58226c-0.05533,0.93932,0.25085,2.6781,3.29666,2.60889
				c2.73441-0.06216,2.66867-2.33331,2.47-3.44958c-0.06268-0.35216-0.37122-0.60695-0.72888-0.60695h-0.34213
				C480.14743,211.33395,479.81531,211.67398,479.82156,212.08875z"/>
			<path class="st5" d="M485.43732,216.47597c0-0.3577-0.25479-0.66623-0.60696-0.72891
				c-1.11624-0.19867-3.38742-0.26439-3.44955,2.47003c-0.06921,3.04578,1.66956,3.35197,2.60889,3.29666
				c0.32803-0.01933,0.58224-0.29413,0.58224-0.62273v-0.22903c0-0.30516-0.21954-0.57368-0.52182-0.61543
				c-0.65079-0.0899-1.1008-0.42258-1.1008-1.5018c0-0.85571,1.00107-0.99707,1.73322-0.98602
				c0.41476,0.00627,0.75479-0.32585,0.75479-0.74066V216.47597z"/>
			<path class="st5" d="M482.12503,209.8736h0.49976l0.85654,1.10449c0.79602,1.02643,1.71814,1.94855,2.74457,2.74455
				l1.10449,0.85654v0.49971c0,0.22546,0.18277,0.40825,0.40823,0.40825h0.21115c0.22546,0,0.40826-0.18279,0.40826-0.40825
				v-5.19977c0-0.5706-0.46259-1.03317-1.03317-1.03317h-5.19983c-0.22546,0-0.40826,0.18279-0.40826,0.40825v0.21115
				C481.71677,209.69083,481.89957,209.8736,482.12503,209.8736z M485.43732,210.60147c0-0.2825,0.22903-0.51152,0.51154-0.51152
				h0.65366c0.2825,0,0.51151,0.22902,0.51151,0.51152v0.65366c0,0.2825-0.229,0.51152-0.51151,0.51152h-0.65366
				c-0.2825,0-0.51154-0.22902-0.51154-0.51152V210.60147z"/>
			<path class="st5" d="M471.02313,210.08995h2.94772c0,0,0.16226,1.244,1.02768,1.244c0.86539,0,1.02765-1.244,1.02765-1.244
				h2.94772c0.76172,0,1.37924-0.61751,1.37924-1.37923v-0.70313c0-1.20979-0.98074-2.19052-2.19052-2.19052h-1.00061
				c0-0.77666-0.62961-1.40627-1.40628-1.40627h-0.7572h-0.75723c-0.77667,0-1.40628,0.62961-1.40628,1.40627h-1.00061
				c-1.20978,0-2.19052,0.98073-2.19052,2.19052v0.70313C469.64389,209.47244,470.26141,210.08995,471.02313,210.08995z
				 M471.33411,208.30507c0-0.35846,0.29059-0.64905,0.64905-0.64905h1.90659c0,0,0.02704-0.40564,0.02704-1.05469
				s0.24338-0.933,0.64905-0.933c0.40564,0,0.43271,0,0.43271,0s0.02704,0,0.43268,0c0.40567,0,0.64905,0.28395,0.64905,0.933
				s0.02704,1.05469,0.02704,1.05469h1.90659c0.35846,0,0.64905,0.29059,0.64905,0.64905v0.00002
				c0,0.35844-0.29059,0.64903-0.64905,0.64903h-3.01535h-3.01538c-0.35846,0-0.64905-0.29059-0.64905-0.64903V208.30507z"/>
			<path class="st5" d="M470.8338,215.39049c3.04581,0.06921,3.35199-1.66957,3.29666-2.60889
				c-0.01932-0.32803-0.2941-0.58226-0.62271-0.58226h-0.22903c-0.30518,0-0.57367,0.21954-0.61545,0.52184
				c-0.08987,0.65077-0.42255,1.10078-1.5018,1.10078c-0.85571,0-0.99707-1.00107-0.98599-1.73322
				c0.00626-0.41476-0.32587-0.75479-0.74066-0.75479h-0.34213c-0.35767,0-0.6662,0.25479-0.72888,0.60695
				C468.16513,213.05717,468.0994,215.32832,470.8338,215.39049z"/>
			<path class="st5" d="M465.94693,220.04655c-0.30228,0.04175-0.52182,0.31027-0.52182,0.61543v0.22903
				c0,0.3286,0.25421,0.60339,0.58224,0.62273c0.93933,0.05531,2.6781-0.25089,2.60889-3.29666
				c-0.06213-2.73442-2.33331-2.6687-3.44955-2.47003c-0.35217,0.06268-0.60696,0.37122-0.60696,0.72891v0.3421
				c0,0.41481,0.34003,0.74693,0.75479,0.74066c0.73215-0.01105,1.73322,0.13031,1.73322,0.98602
				C467.04773,219.62398,466.59772,219.95665,465.94693,220.04655z"/>
			<path class="st5" d="M462.04727,215.48714h0.21115c0.22546,0,0.40823-0.18279,0.40823-0.40825v-0.49971l1.10449-0.85654
				c1.02643-0.79601,1.94855-1.71812,2.74457-2.74455l0.85654-1.10449h0.49976c0.22546,0,0.40826-0.18277,0.40826-0.40825v-0.21115
				c0-0.22546-0.1828-0.40825-0.40826-0.40825h-5.19983c-0.57059,0-1.03317,0.46257-1.03317,1.03317v5.19977
				C461.63901,215.30435,461.82181,215.48714,462.04727,215.48714z M462.88303,210.60147c0-0.2825,0.229-0.51152,0.51151-0.51152
				h0.65366c0.2825,0,0.51154,0.22902,0.51154,0.51152v0.65366c0,0.2825-0.22903,0.51152-0.51154,0.51152h-0.65366
				c-0.2825,0-0.51151-0.22902-0.51151-0.51152V210.60147z"/>
			<path class="st5" d="M479.16324,228.20912c-3.04581-0.06923-3.35199,1.66957-3.29666,2.60887
				c0.01932,0.32803,0.2941,0.58226,0.62271,0.58226h0.22903c0.30518,0,0.57367-0.21953,0.61545-0.52184
				c0.08987-0.65077,0.42255-1.10078,1.5018-1.10078c0.85571,0,0.99707,1.00107,0.98599,1.73322
				c-0.00626,0.41476,0.32587,0.75479,0.74066,0.75479h0.34213c0.35767,0,0.6662-0.25479,0.72888-0.60695
				C481.83191,230.54243,481.89764,228.27127,479.16324,228.20912z"/>
			<path class="st5" d="M484.83035,227.85254c0.35217-0.06268,0.60696-0.37122,0.60696-0.72891v-0.3421
				c0-0.41481-0.34003-0.74693-0.75479-0.74066c-0.73215,0.01105-1.73322-0.13031-1.73322-0.98602
				c0-1.07922,0.45001-1.4119,1.1008-1.5018c0.30228-0.04175,0.52182-0.31027,0.52182-0.61543v-0.22903
				c0-0.3286-0.25421-0.60339-0.58224-0.62271c-0.93933-0.05533-2.6781,0.25087-2.60889,3.29665
				C481.44293,228.11694,483.71411,228.05121,484.83035,227.85254z"/>
			<path class="st5" d="M487.94977,228.11246h-0.21115c-0.22546,0-0.40823,0.18279-0.40823,0.40825v0.49971l-1.10449,0.85654
				c-1.02643,0.79602-1.94855,1.71812-2.74457,2.74457l-0.85654,1.10448h-0.49976c-0.22546,0-0.40826,0.18279-0.40826,0.40825
				v0.21115c0,0.22548,0.1828,0.40825,0.40826,0.40825h5.19983c0.57059,0,1.03317-0.46257,1.03317-1.03317v-5.19977
				C488.35803,228.29524,488.17523,228.11246,487.94977,228.11246z M487.11401,232.99812c0,0.2825-0.229,0.51152-0.51151,0.51152
				h-0.65366c-0.2825,0-0.51154-0.22902-0.51154-0.51152v-0.65366c0-0.2825,0.22903-0.51152,0.51154-0.51152h0.65366
				c0.2825,0,0.51151,0.22902,0.51151,0.51152V232.99812z"/>
			<path class="st5" d="M469.90405,223.39859l3.49567,3.4957c0.20987,0.20984,0.32776,0.49446,0.32776,0.79124
				c0,0.40866,0.33127,0.73993,0.73993,0.73993h0.53113h0.5311c0.40866,0,0.73993-0.33127,0.73993-0.73993
				c0-0.29678,0.11789-0.58141,0.32776-0.79124l3.49567-3.4957c0.20987-0.20985,0.49451-0.32774,0.79126-0.32774
				c0.40866,0,0.73993-0.33128,0.73993-0.73993v-0.53111v-0.53113c0-0.40865-0.33127-0.73993-0.73993-0.73993
				c-0.29675,0-0.58139-0.11789-0.79126-0.32774l-3.49567-3.4957c-0.20987-0.20984-0.32776-0.49446-0.32776-0.79124
				c0-0.40866-0.33127-0.73993-0.73993-0.73993h-0.5311h-0.53113c-0.40866,0-0.73993,0.33127-0.73993,0.73993
				c0,0.29678-0.11789,0.58141-0.32776,0.79124l-3.49567,3.4957c-0.20987,0.20985-0.49448,0.32774-0.79126,0.32774
				c-0.40866,0-0.73993,0.33128-0.73993,0.73993v0.53113v0.53111c0,0.40865,0.33127,0.73993,0.73993,0.73993
				C469.40958,223.07085,469.69418,223.18874,469.90405,223.39859z M475.86102,221.7998v0.20544
				c0,0.36287-0.29419,0.65704-0.65704,0.65704h-0.20544h-0.20547c-0.36285,0-0.65701-0.29417-0.65701-0.65704v-0.20544v-0.20546
				c0-0.36287,0.29416-0.65703,0.65701-0.65703h0.20547h0.20544c0.36285,0,0.65704,0.29416,0.65704,0.65703V221.7998z
				 M475.918,225.41446c0,0.33365-0.27048,0.60413-0.60413,0.60413h-0.31534h-0.31537c-0.33365,0-0.60413-0.27048-0.60413-0.60413
				v-0.94461c0-0.33365,0.27048-0.60413,0.60413-0.60413h0.31537h0.31534c0.33365,0,0.60413,0.27048,0.60413,0.60413V225.41446z
				 M477.06445,221.48445c0-0.33366,0.27048-0.60414,0.60413-0.60414h0.94461c0.33365,0,0.60413,0.27048,0.60413,0.60414v0.31535
				v0.31535c0,0.33365-0.27048,0.60413-0.60413,0.60413h-0.94461c-0.33365,0-0.60413-0.27048-0.60413-0.60413v-0.31535V221.48445z
				 M474.07904,218.18513c0-0.33365,0.27048-0.60413,0.60413-0.60413h0.31537h0.31534c0.33365,0,0.60413,0.27048,0.60413,0.60413
				v0.94461c0,0.33365-0.27048,0.60413-0.60413,0.60413h-0.31534h-0.31537c-0.33365,0-0.60413-0.27048-0.60413-0.60413V218.18513z
				 M470.77972,221.48445c0-0.33366,0.27048-0.60414,0.60413-0.60414h0.94461c0.33365,0,0.60413,0.27048,0.60413,0.60414v0.31535
				v0.31535c0,0.33365-0.27048,0.60413-0.60413,0.60413h-0.94461c-0.33365,0-0.60413-0.27048-0.60413-0.60413v-0.31535V221.48445z"
				/>
			<path class="st5" d="M478.97391,233.50964h-2.94772c0,0-0.16226-1.244-1.02765-1.244c-0.86542,0-1.02768,1.244-1.02768,1.244
				h-2.94772c-0.76172,0-1.37924,0.61751-1.37924,1.37923v0.70313c0,1.20979,0.98074,2.19054,2.19052,2.19054h1.00061
				c0,0.77664,0.62961,1.40625,1.40628,1.40625h0.75723h0.7572c0.77667,0,1.40628-0.62961,1.40628-1.40625h1.00061
				c1.20978,0,2.19052-0.98074,2.19052-2.19054v-0.70313C480.35315,234.12715,479.73563,233.50964,478.97391,233.50964z
				 M478.66293,235.29453c0,0.35846-0.29059,0.64905-0.64905,0.64905h-1.90659c0,0-0.02704,0.40565-0.02704,1.05469
				c0,0.64905-0.24338,0.933-0.64905,0.933c-0.40564,0-0.43268,0-0.43268,0s-0.02707,0-0.43271,0
				c-0.40567,0-0.64905-0.28395-0.64905-0.933c0-0.64903-0.02704-1.05469-0.02704-1.05469h-1.90659
				c-0.35846,0-0.64905-0.29059-0.64905-0.64905l0,0c0-0.35846,0.29059-0.64905,0.64905-0.64905h3.01538h3.01535
				C478.37234,234.64548,478.66293,234.93607,478.66293,235.29453L478.66293,235.29453z"/>
			<path class="st5" d="M462.91006,225.77521v-2.94775c0,0,1.24399-0.16226,1.24399-1.02765
				c0-0.8654-1.24399-1.02766-1.24399-1.02766v-2.94774c0-0.76172-0.61749-1.37923-1.37921-1.37923h-0.70316
				c-1.20978,0-2.19052,0.98074-2.19052,2.19054v1.00061c-0.77664,0-1.40625,0.62961-1.40625,1.40625v0.75723v0.75722
				c0,0.77666,0.62961,1.40627,1.40625,1.40627v1.0006c0,1.20981,0.98074,2.19054,2.19052,2.19054h0.70316
				C462.29257,227.15442,462.91006,226.53693,462.91006,225.77521z M461.77423,224.81516c0,0.35846-0.29059,0.64903-0.64905,0.64903
				s-0.64905-0.29057-0.64905-0.64903v-1.90657c0,0-0.40564-0.02704-1.05469-0.02704s-0.93298-0.24339-0.93298-0.64905
				s0-0.43269,0-0.43269s0-0.02705,0-0.43271s0.28394-0.64905,0.93298-0.64905s1.05469-0.02704,1.05469-0.02704v-1.90657
				c0-0.35846,0.29059-0.64903,0.64905-0.64903s0.64905,0.29057,0.64905,0.64903v3.01537V224.81516z"/>
			<path class="st5" d="M470.17548,231.51085c-0.01108-0.73215,0.13028-1.73322,0.98599-1.73322
				c1.07925,0,1.41193,0.45001,1.5018,1.10078c0.04178,0.30231,0.31027,0.52184,0.61545,0.52184h0.22903
				c0.32861,0,0.60339-0.25423,0.62271-0.58226c0.05533-0.9393-0.25085-2.6781-3.29666-2.60887
				c-2.73441,0.06215-2.66867,2.33331-2.47,3.44957c0.06268,0.35216,0.37122,0.60695,0.72888,0.60695h0.34213
				C469.84961,232.26564,470.18173,231.92561,470.17548,231.51085z"/>
			<path class="st5" d="M464.55972,227.12363c0,0.3577,0.25479,0.66623,0.60696,0.72891
				c1.11624,0.19867,3.38742,0.2644,3.44955-2.47003c0.06921-3.04578-1.66956-3.35197-2.60889-3.29665
				c-0.32803,0.01932-0.58224,0.29411-0.58224,0.62271v0.22903c0,0.30516,0.21954,0.57368,0.52182,0.61543
				c0.65079,0.0899,1.1008,0.42258,1.1008,1.5018c0,0.85571-1.00107,0.99707-1.73322,0.98602
				c-0.41476-0.00627-0.75479,0.32585-0.75479,0.74066V227.12363z"/>
			<path class="st5" d="M467.87201,233.726h-0.49976l-0.85654-1.10448c-0.79602-1.02644-1.71814-1.94855-2.74457-2.74457
				l-1.10449-0.85654v-0.49971c0-0.22546-0.18277-0.40825-0.40823-0.40825h-0.21115c-0.22546,0-0.40826,0.18279-0.40826,0.40825
				v5.19977c0,0.5706,0.46259,1.03317,1.03317,1.03317h5.19983c0.22546,0,0.40826-0.18277,0.40826-0.40825v-0.21115
				C468.28027,233.90878,468.09747,233.726,467.87201,233.726z M464.55972,232.99812c0,0.2825-0.22903,0.51152-0.51154,0.51152
				h-0.65366c-0.2825,0-0.51151-0.22902-0.51151-0.51152v-0.65366c0-0.2825,0.229-0.51152,0.51151-0.51152h0.65366
				c0.2825,0,0.51154,0.22902,0.51154,0.51152V232.99812z"/>
		</g>
		<g>
			<path class="st6" d="M625.02588,229.3028L625.02588,229.3028v-0.84499c0-1.02165-0.82825-1.84987-1.84985-1.84987h-0.59381
				c-0.64325,0-1.16473,0.52147-1.16473,1.16473v2.4893c0,0-1.05048,0.13702-1.05048,0.86783
				c0,0.73082,1.05048,0.86784,1.05048,0.86784v2.4893c0,0.64326,0.52148,1.16473,1.16473,1.16473h0.59381
				c1.02161,0,1.84985-0.82822,1.84985-1.84987v-0.84499l0,0c0.65588,0,1.18756-0.53169,1.18756-1.18756v-0.63947v-0.63945
				C626.21344,229.83449,625.68176,229.3028,625.02588,229.3028z M625.15149,231.49521c0,0.34258-0.23981,0.54811-0.7879,0.54811
				s-0.89069,0.02284-0.89069,0.02284v1.61006c0,0.3027-0.24536,0.5481-0.5481,0.5481s-0.5481-0.24539-0.5481-0.5481v-2.54642
				v-2.5464c0-0.3027,0.24536-0.5481,0.5481-0.5481s0.5481,0.24539,0.5481,0.5481v1.61006c0,0,0.34259,0.02284,0.89069,0.02284
				s0.7879,0.20554,0.7879,0.54811c0,0.34256,0,0.36539,0,0.36539S625.15149,231.15265,625.15149,231.49521z"/>
			<path class="st6" d="M615.28204,222.92903c0.00934,0.61829-0.11005,1.46365-0.8327,1.46365
				c-0.91138,0-1.19232-0.38002-1.26819-0.92958c-0.03528-0.25528-0.26202-0.44067-0.51978-0.44067h-0.19342
				c-0.27747,0-0.50952,0.21469-0.52582,0.4917c-0.04675,0.79323,0.21185,2.26161,2.78394,2.20316
				c2.30914-0.05249,2.25366-1.97044,2.08588-2.9131c-0.05292-0.29739-0.31348-0.51256-0.61554-0.51256h-0.28888
				C615.55719,222.29163,615.27673,222.57878,615.28204,222.92903z"/>
			<path class="st6" d="M620.02441,226.63396c0-0.30208-0.21515-0.56262-0.51257-0.61555
				c-0.94263-0.16777-2.8606-0.22328-2.91309,2.08589c-0.05847,2.5721,1.40991,2.83067,2.20313,2.78395
				c0.27704-0.01631,0.4917-0.24837,0.4917-0.52588v-0.19341c0-0.25771-0.18536-0.48447-0.44067-0.51973
				c-0.54956-0.07591-0.92957-0.35686-0.92957-1.26823c0-0.72264,0.8454-0.84201,1.46368-0.83267
				c0.35022,0.00529,0.63739-0.27518,0.63739-0.62549V226.63396z"/>
			<path class="st6" d="M617.22723,221.0584h0.42206l0.72333,0.93271c0.67224,0.86681,1.45093,1.64551,2.31775,2.31772
				l0.93268,0.72333v0.422c0,0.1904,0.15436,0.34476,0.34479,0.34476h0.17828c0.19043,0,0.34479-0.15436,0.34479-0.34476v-4.3911
				c0-0.48187-0.39063-0.8725-0.8725-0.8725h-4.39117c-0.19037,0-0.34473,0.15436-0.34473,0.34477v0.1783
				C616.88251,220.90404,617.03687,221.0584,617.22723,221.0584z M620.02441,221.67307c0-0.23857,0.19342-0.43198,0.43195-0.43198
				h0.552c0.23859,0,0.43201,0.19341,0.43201,0.43198v0.552c0,0.23856-0.19342,0.43196-0.43201,0.43196h-0.552
				c-0.23853,0-0.43195-0.19341-0.43195-0.43196V221.67307z"/>
			<path class="st6" d="M607.85193,221.24109h2.48932c0,0,0.13702,1.05054,0.8678,1.05054
				c0.73083,0,0.86786-1.05054,0.86786-1.05054h2.48932c0.64325,0,1.16467-0.52147,1.16467-1.16472v-0.59378
				c0-1.02165-0.82819-1.84985-1.84979-1.84985h-0.84503c0-0.65587-0.53168-1.18756-1.18756-1.18756h-0.63947h-0.63947
				c-0.65582,0-1.18756,0.53169-1.18756,1.18756h-0.84497c-1.02167,0-1.84985,0.8282-1.84985,1.84985v0.59378
				C606.68719,220.71962,607.20868,221.24109,607.85193,221.24109z M608.11456,219.7338c0-0.3027,0.24536-0.5481,0.5481-0.5481
				h1.61005c0,0,0.02283-0.34258,0.02283-0.89067c0-0.54811,0.20557-0.78789,0.5481-0.78789c0.34259,0,0.36542,0,0.36542,0
				s0.02283,0,0.36542,0s0.5481,0.23978,0.5481,0.78789c0,0.5481,0.02283,0.89067,0.02283,0.89067h1.61011
				c0.30267,0,0.5481,0.24539,0.5481,0.5481v0.00002c0,0.3027-0.24542,0.5481-0.5481,0.5481h-2.54645h-2.54639
				c-0.30273,0-0.5481-0.24539-0.5481-0.5481V219.7338z"/>
			<path class="st6" d="M607.69208,225.71729c2.57208,0.05846,2.83063-1.40993,2.78394-2.20316
				c-0.0163-0.27701-0.24835-0.4917-0.52588-0.4917h-0.19342c-0.25769,0-0.48444,0.18539-0.51971,0.44067
				c-0.07593,0.54956-0.35687,0.92958-1.26825,0.92958c-0.7226,0-0.84198-0.84537-0.83264-1.46365
				c0.00525-0.35025-0.27521-0.63741-0.62549-0.63741h-0.28888c-0.30206,0-0.56262,0.21516-0.61554,0.51256
				C605.43842,223.74684,605.38287,225.66479,607.69208,225.71729z"/>
			<path class="st6" d="M603.56519,229.64923c-0.25525,0.03526-0.44067,0.26202-0.44067,0.51973v0.19341
				c0,0.27751,0.21466,0.50957,0.4917,0.52588c0.79321,0.04672,2.2616-0.21185,2.20313-2.78395
				c-0.05243-2.30917-1.9704-2.25366-2.91309-2.08589c-0.29736,0.05293-0.51251,0.31348-0.51251,0.61555v0.28888
				c0,0.35031,0.28711,0.63078,0.63739,0.62549c0.61829-0.00934,1.46362,0.11003,1.46362,0.83267
				C604.49475,229.29237,604.11475,229.57332,603.56519,229.64923z"/>
			<path class="st6" d="M600.27197,225.7989h0.17834c0.19037,0,0.34473-0.15436,0.34473-0.34476v-0.422l0.93274-0.72333
				c0.86682-0.67221,1.64551-1.45091,2.31775-2.31772l0.72333-0.93271h0.422c0.19043,0,0.34479-0.15436,0.34479-0.34477v-0.1783
				c0-0.19041-0.15436-0.34477-0.34479-0.34477h-4.39111c-0.48187,0-0.8725,0.39063-0.8725,0.8725v4.3911
				C599.92725,225.64455,600.0816,225.7989,600.27197,225.7989z M600.97778,221.67307c0-0.23857,0.19336-0.43198,0.43195-0.43198
				h0.552c0.23859,0,0.43201,0.19341,0.43201,0.43198v0.552c0,0.23856-0.19342,0.43196-0.43201,0.43196h-0.552
				c-0.23859,0-0.43195-0.19341-0.43195-0.43196V221.67307z"/>
			<path class="st6" d="M614.72607,236.54234c-2.57208-0.05846-2.83069,1.40993-2.78394,2.20316
				c0.0163,0.27701,0.24835,0.4917,0.52582,0.4917h0.19342c0.25775,0,0.4845-0.18539,0.51978-0.44067
				c0.07587-0.54956,0.35681-0.9296,1.26819-0.9296c0.72266,0,0.84204,0.84538,0.8327,1.46367
				c-0.00531,0.35025,0.27515,0.63741,0.62549,0.63741h0.28888c0.30206,0,0.56262-0.21516,0.61554-0.51256
				C616.97974,238.51279,617.03522,236.59483,614.72607,236.54234z"/>
			<path class="st6" d="M619.51184,236.24123c0.29742-0.05293,0.51257-0.31349,0.51257-0.61555v-0.28889
				c0-0.3503-0.28717-0.63077-0.63739-0.62547c-0.61829,0.00934-1.46368-0.11003-1.46368-0.83267
				c0-0.91138,0.38-1.19232,0.92957-1.26823c0.25531-0.03526,0.44067-0.26202,0.44067-0.51973v-0.19341
				c0-0.27751-0.21466-0.50957-0.4917-0.52588c-0.79321-0.04672-2.2616,0.21185-2.20313,2.78395
				C616.65125,236.46451,618.56921,236.409,619.51184,236.24123z"/>
			<path class="st6" d="M622.14612,236.46072h-0.17828c-0.19043,0-0.34479,0.15436-0.34479,0.34476v0.422l-0.93268,0.72333
				c-0.86682,0.67221-1.64551,1.45091-2.31775,2.31772l-0.72333,0.93271h-0.42206c-0.19037,0-0.34473,0.15436-0.34473,0.34477
				v0.1783c0,0.19041,0.15436,0.34477,0.34473,0.34477h4.39117c0.48187,0,0.8725-0.39064,0.8725-0.8725v-4.3911
				C622.49091,236.61508,622.33655,236.46072,622.14612,236.46072z M621.44037,240.58656c0,0.23857-0.19342,0.43198-0.43201,0.43198
				h-0.552c-0.23853,0-0.43195-0.19341-0.43195-0.43198v-0.552c0-0.23857,0.19342-0.43196,0.43195-0.43196h0.552
				c0.23859,0,0.43201,0.19339,0.43201,0.43196V240.58656z"/>
			<path class="st6" d="M606.90686,232.47997l2.95203,2.95204c0.17725,0.1772,0.27679,0.41756,0.27679,0.66818
				c0,0.34511,0.27979,0.62486,0.62488,0.62486h0.44849h0.44855c0.34509,0,0.62482-0.27975,0.62482-0.62486
				c0-0.25063,0.09961-0.49098,0.27679-0.66818l2.95203-2.95204c0.17725-0.17722,0.4176-0.27678,0.66821-0.27678
				c0.34509,0,0.62488-0.27975,0.62488-0.62485v-0.44853v-0.44852c0-0.34509-0.27979-0.62485-0.62488-0.62485
				c-0.25061,0-0.49097-0.09956-0.66821-0.27678l-2.95203-2.95204c-0.17719-0.1772-0.27679-0.41756-0.27679-0.66818
				c0-0.34511-0.27972-0.62486-0.62482-0.62486h-0.44855h-0.44849c-0.34509,0-0.62488,0.27975-0.62488,0.62486
				c0,0.25063-0.09955,0.49098-0.27679,0.66818l-2.95203,2.95204c-0.17719,0.17722-0.41754,0.27678-0.66815,0.27678
				c-0.34515,0-0.62488,0.27975-0.62488,0.62485v0.44852v0.44853c0,0.34509,0.27972,0.62485,0.62488,0.62485
				C606.48932,232.20319,606.72968,232.30275,606.90686,232.47997z M611.93744,231.12981v0.17351
				c0,0.30644-0.24841,0.55486-0.55487,0.55486h-0.17352h-0.17346c-0.30646,0-0.55487-0.24841-0.55487-0.55486v-0.17351v-0.17349
				c0-0.30644,0.24841-0.55486,0.55487-0.55486h0.17346h0.17352c0.30646,0,0.55487,0.24841,0.55487,0.55486V231.12981z
				 M611.98553,234.18233c0,0.28175-0.22839,0.51016-0.51019,0.51016h-0.2663h-0.2663c-0.28174,0-0.51019-0.22841-0.51019-0.51016
				v-0.7977c0-0.28177,0.22845-0.51018,0.51019-0.51018h0.2663h0.2663c0.2818,0,0.51019,0.22841,0.51019,0.51018V234.18233z
				 M612.95367,230.86351c0-0.28177,0.22845-0.51018,0.51019-0.51018h0.79767c0.2818,0,0.51019,0.22841,0.51019,0.51018v0.2663
				v0.26631c0,0.28177-0.22839,0.51018-0.51019,0.51018h-0.79767c-0.28174,0-0.51019-0.22841-0.51019-0.51018v-0.26631V230.86351z
				 M610.43256,228.0773c0-0.28175,0.22845-0.51018,0.51019-0.51018h0.2663h0.2663c0.2818,0,0.51019,0.22842,0.51019,0.51018v0.7977
				c0,0.28177-0.22839,0.51018-0.51019,0.51018h-0.2663h-0.2663c-0.28174,0-0.51019-0.22841-0.51019-0.51018V228.0773z
				 M607.64636,230.86351c0-0.28177,0.22845-0.51018,0.51019-0.51018h0.79773c0.28174,0,0.51013,0.22841,0.51013,0.51018v0.2663
				v0.26631c0,0.28177-0.22839,0.51018-0.51013,0.51018h-0.79773c-0.28174,0-0.51019-0.22841-0.51019-0.51018v-0.26631V230.86351z"
				/>
			<path class="st6" d="M614.56622,241.01854h-2.48932c0,0-0.13702-1.05054-0.86786-1.05054
				c-0.73077,0-0.8678,1.05054-0.8678,1.05054h-2.48932c-0.64325,0-1.16473,0.52147-1.16473,1.16472v0.59378
				c0,1.02165,0.82819,1.84985,1.84985,1.84985h0.84497c0,0.65587,0.53174,1.18756,1.18756,1.18756h0.63947h0.63947
				c0.65588,0,1.18756-0.53169,1.18756-1.18756h0.84503c1.02161,0,1.84979-0.8282,1.84979-1.84985v-0.59378
				C615.7309,241.54001,615.20947,241.01854,614.56622,241.01854z M614.30359,242.52583c0,0.3027-0.24542,0.5481-0.5481,0.5481
				h-1.61011c0,0-0.02283,0.34258-0.02283,0.89067c0,0.54811-0.20551,0.78789-0.5481,0.78789s-0.36542,0-0.36542,0
				s-0.02283,0-0.36542,0c-0.34253,0-0.5481-0.23978-0.5481-0.78789c0-0.5481-0.02283-0.89067-0.02283-0.89067h-1.61005
				c-0.30273,0-0.5481-0.24539-0.5481-0.5481v-0.00002c0-0.3027,0.24536-0.5481,0.5481-0.5481h2.54639h2.54645
				c0.30267,0,0.5481,0.24539,0.5481,0.5481V242.52583z"/>
			<path class="st6" d="M601.00061,234.48695v-2.4893c0,0,1.05054-0.13702,1.05054-0.86784
				c0-0.7308-1.05054-0.86783-1.05054-0.86783v-2.4893c0-0.64326-0.52148-1.16473-1.16473-1.16473h-0.59375
				c-1.02167,0-1.84985,0.82822-1.84985,1.84987v0.84499c-0.65588,0-1.18756,0.53169-1.18756,1.18756v0.63945v0.63947
				c0,0.65587,0.53168,1.18756,1.18756,1.18756v0.84499c0,1.02165,0.82819,1.84987,1.84985,1.84987h0.59375
				C600.47913,235.65169,601.00061,235.13022,601.00061,234.48695z M600.04144,233.67622c0,0.3027-0.24542,0.5481-0.5481,0.5481
				c-0.30273,0-0.54816-0.24539-0.54816-0.5481v-1.61006c0,0-0.34253-0.02284-0.89063-0.02284s-0.7879-0.20554-0.7879-0.54811
				c0-0.34256,0-0.3654,0-0.3654s0-0.02283,0-0.36539c0-0.34258,0.23981-0.54811,0.7879-0.54811s0.89063-0.02284,0.89063-0.02284
				v-1.61006c0-0.3027,0.24542-0.5481,0.54816-0.5481c0.30267,0,0.5481,0.24539,0.5481,0.5481v2.5464V233.67622z"/>
			<path class="st6" d="M607.13611,239.3306c-0.00934-0.61829,0.11005-1.46367,0.83264-1.46367
				c0.91138,0,1.19232,0.38004,1.26825,0.9296c0.03528,0.25528,0.26202,0.44067,0.51971,0.44067h0.19342
				c0.27753,0,0.50958-0.21469,0.52588-0.4917c0.04669-0.79323-0.21185-2.26161-2.78394-2.20316
				c-2.3092,0.05249-2.25366,1.97044-2.08588,2.9131c0.05292,0.29739,0.31348,0.51256,0.61554,0.51256h0.28888
				C606.8609,239.968,607.14136,239.68085,607.13611,239.3306z"/>
			<path class="st6" d="M602.39374,235.62567c0,0.30206,0.21515,0.56262,0.51251,0.61555
				c0.94269,0.16777,2.86066,0.22328,2.91309-2.08589c0.05847-2.5721-1.40991-2.83067-2.20313-2.78395
				c-0.27704,0.01631-0.4917,0.24837-0.4917,0.52588v0.19341c0,0.25771,0.18542,0.48447,0.44067,0.51973
				c0.54956,0.07591,0.92957,0.35686,0.92957,1.26823c0,0.72264-0.84534,0.84201-1.46362,0.83267
				c-0.35028-0.00529-0.63739,0.27518-0.63739,0.62547V235.62567z"/>
			<path class="st6" d="M605.19086,241.20123h-0.422l-0.72333-0.93271c-0.67224-0.86681-1.45093-1.64551-2.31775-2.31772
				l-0.93274-0.72333v-0.422c0-0.1904-0.15436-0.34476-0.34473-0.34476h-0.17834c-0.19037,0-0.34473,0.15436-0.34473,0.34476v4.3911
				c0,0.48186,0.39063,0.8725,0.8725,0.8725h4.39111c0.19043,0,0.34479-0.15436,0.34479-0.34477v-0.1783
				C605.53564,241.35559,605.38129,241.20123,605.19086,241.20123z M602.39374,240.58656c0,0.23857-0.19342,0.43198-0.43201,0.43198
				h-0.552c-0.23859,0-0.43195-0.19341-0.43195-0.43198v-0.552c0-0.23857,0.19336-0.43196,0.43195-0.43196h0.552
				c0.23859,0,0.43201,0.19339,0.43201,0.43196V240.58656z"/>
		</g>
		<g>
			<path class="st7" d="M621.08972,140.97273L621.08972,140.97273v-0.60428c0-0.73059-0.59229-1.32286-1.32288-1.32286h-0.42462
				c-0.46002,0-0.83289,0.37291-0.83289,0.83292v1.78015c0,0-0.75128,0.09798-0.75128,0.62059
				c0,0.52263,0.75128,0.62061,0.75128,0.62061v1.78015c0,0.46001,0.37286,0.83292,0.83289,0.83292h0.42462
				c0.73059,0,1.32288-0.59227,1.32288-1.32286v-0.60428l0,0c0.46899,0,0.84924-0.38022,0.84924-0.84924v-0.45729v-0.45728
				C621.93896,141.35295,621.55872,140.97273,621.08972,140.97273z M621.1795,142.54056c0,0.24498-0.17145,0.39197-0.56342,0.39197
				s-0.6369,0.01633-0.6369,0.01633v1.15138c0,0.21648-0.17554,0.39197-0.39197,0.39197c-0.21649,0-0.39197-0.17549-0.39197-0.39197
				v-1.82098v-1.82097c0-0.21648,0.17548-0.39197,0.39197-0.39197c0.21643,0,0.39197,0.17549,0.39197,0.39197v1.15138
				c0,0,0.24493,0.01633,0.6369,0.01633s0.56342,0.14699,0.56342,0.39197c0,0.24496,0,0.26129,0,0.26129
				S621.1795,142.29559,621.1795,142.54056z"/>
			<path class="st7" d="M614.1217,136.41473c0.00671,0.44214-0.07867,1.04669-0.59546,1.04669
				c-0.65173,0-0.85266-0.27176-0.90692-0.66476c-0.02521-0.18256-0.18738-0.31514-0.3717-0.31514h-0.13831
				c-0.19843,0-0.36438,0.15352-0.37604,0.35162c-0.03339,0.56726,0.15149,1.61731,1.99084,1.57552
				c1.65137-0.03754,1.61163-1.4091,1.49164-2.08321c-0.03784-0.21268-0.22412-0.36655-0.44019-0.36655h-0.20654
				C614.31848,135.95891,614.11792,136.16426,614.1217,136.41473z"/>
			<path class="st7" d="M617.51306,139.06418c0-0.216-0.15387-0.40233-0.36652-0.44019
				c-0.67413-0.11998-2.04565-0.15967-2.08319,1.49165c-0.04181,1.83936,1.00824,2.02428,1.5755,1.99086
				c0.19812-0.01167,0.35162-0.17761,0.35162-0.37605v-0.13832c0-0.1843-0.13257-0.34645-0.31512-0.37166
				c-0.39301-0.05429-0.66479-0.2552-0.66479-0.90695c0-0.51677,0.60455-0.60213,1.04669-0.59546
				c0.25049,0.00378,0.45581-0.19678,0.45581-0.44728V139.06418z"/>
			<path class="st7" d="M615.51276,135.077h0.30182l0.51727,0.66701c0.48071,0.61986,1.0376,1.17673,1.65747,1.65744
				l0.66699,0.51726v0.30179c0,0.13615,0.11035,0.24654,0.24652,0.24654h0.1275c0.13617,0,0.24658-0.11038,0.24658-0.24654v-3.14017
				c0-0.34457-0.27936-0.62393-0.62396-0.62393h-3.1402c-0.13611,0-0.24652,0.11038-0.24652,0.24655v0.12752
				C615.26624,134.96661,615.37665,135.077,615.51276,135.077z M617.51306,135.51656c0-0.17059,0.13831-0.3089,0.3089-0.3089
				h0.39478c0.17059,0,0.3089,0.13831,0.3089,0.3089v0.39474c0,0.17061-0.13831,0.30891-0.3089,0.30891h-0.39478
				c-0.17059,0-0.3089-0.13831-0.3089-0.30891V135.51656z"/>
			<path class="st7" d="M608.80829,135.20766h1.78015c0,0,0.09802,0.75125,0.62061,0.75125
				c0.52264,0,0.62061-0.75125,0.62061-0.75125h1.78015c0.46002,0,0.83295-0.37291,0.83295-0.83292v-0.42462
				c0-0.73061-0.59229-1.32288-1.32288-1.32288h-0.60425c0-0.46901-0.38025-0.84924-0.8493-0.84924h-0.45728h-0.45728
				c-0.46899,0-0.84924,0.38023-0.84924,0.84924h-0.60425c-0.73059,0-1.32288,0.59227-1.32288,1.32288v0.42462
				C607.9754,134.83475,608.34833,135.20766,608.80829,135.20766z M608.99609,134.12976c0-0.21648,0.17554-0.39195,0.39197-0.39195
				h1.15143c0,0,0.0163-0.24498,0.0163-0.63693c0-0.39197,0.14697-0.56345,0.39197-0.56345s0.26129,0,0.26129,0s0.01636,0,0.26135,0
				c0.24493,0,0.39191,0.17148,0.39191,0.56345c0,0.39195,0.01636,0.63693,0.01636,0.63693h1.15137
				c0.21649,0,0.39197,0.17548,0.39197,0.39195l0,0c0,0.21648-0.17548,0.39195-0.39197,0.39195h-1.82098h-1.82098
				C609.17163,134.52171,608.99609,134.34624,608.99609,134.12976L608.99609,134.12976z"/>
			<path class="st7" d="M608.69397,138.40866c1.83936,0.04179,2.02429-1.00826,1.99084-1.57552
				c-0.01166-0.1981-0.17761-0.35162-0.37604-0.35162h-0.13831c-0.18427,0-0.34644,0.13258-0.37164,0.31514
				c-0.05432,0.39301-0.25519,0.66476-0.90698,0.66476c-0.51672,0-0.60211-0.60455-0.59546-1.04669
				c0.00378-0.25047-0.19678-0.45583-0.44727-0.45583h-0.2066c-0.216,0-0.40234,0.15387-0.44019,0.36655
				C607.08234,136.99956,607.04266,138.37112,608.69397,138.40866z"/>
			<path class="st7" d="M605.7428,141.22047c-0.18256,0.02521-0.31512,0.18736-0.31512,0.37166v0.13832
				c0,0.19844,0.1535,0.36438,0.35162,0.37605c0.56726,0.03342,1.61731-0.1515,1.5755-1.99086
				c-0.03754-1.65132-1.40912-1.61163-2.08319-1.49165c-0.21271,0.03786-0.36658,0.22418-0.36658,0.44019v0.2066
				c0,0.2505,0.20538,0.45107,0.45581,0.44728c0.4422-0.00667,1.04669,0.07869,1.04669,0.59546
				C606.40753,140.96527,606.1358,141.16618,605.7428,141.22047z"/>
			<path class="st7" d="M603.38776,138.46703h0.1275c0.13617,0,0.24658-0.11038,0.24658-0.24654v-0.30179l0.66699-0.51726
				c0.61987-0.48071,1.1767-1.03758,1.65741-1.65744l0.51727-0.66701h0.30182c0.13617,0,0.24658-0.11038,0.24658-0.24654v-0.12752
				c0-0.13617-0.11041-0.24655-0.24658-0.24655h-3.1402c-0.34454,0-0.6239,0.27936-0.6239,0.62393v3.14017
				C603.14124,138.35664,603.25159,138.46703,603.38776,138.46703z M603.89246,135.51656c0-0.17059,0.13831-0.3089,0.30896-0.3089
				h0.39471c0.17059,0,0.3089,0.13831,0.3089,0.3089v0.39474c0,0.17061-0.13831,0.30891-0.3089,0.30891h-0.39471
				c-0.17065,0-0.30896-0.13831-0.30896-0.30891V135.51656z"/>
			<path class="st7" d="M613.72412,146.14986c-1.83936-0.04179-2.02423,1.00826-1.99084,1.57552
				c0.01166,0.1981,0.17761,0.35162,0.37604,0.35162h0.13831c0.18433,0,0.3465-0.13258,0.3717-0.31514
				c0.05426-0.39301,0.25519-0.66476,0.90692-0.66476c0.51678,0,0.60217,0.60455,0.59546,1.04669
				c-0.00378,0.25047,0.19678,0.45583,0.44733,0.45583h0.20654c0.21606,0,0.40234-0.15387,0.44019-0.36655
				C615.33575,147.55896,615.37549,146.18739,613.72412,146.14986z"/>
			<path class="st7" d="M617.14655,145.93452c0.21265-0.03786,0.36652-0.22418,0.36652-0.44019v-0.2066
				c0-0.2505-0.20532-0.45107-0.45581-0.44728c-0.44214,0.00667-1.04669-0.07869-1.04669-0.59546
				c0-0.65175,0.27179-0.85266,0.66479-0.90695c0.18256-0.02521,0.31512-0.18736,0.31512-0.37166v-0.13832
				c0-0.19844-0.1535-0.36438-0.35162-0.37605c-0.56726-0.03342-1.61731,0.1515-1.5755,1.99086
				C615.10089,146.09419,616.47241,146.0545,617.14655,145.93452z"/>
			<path class="st7" d="M619.03033,146.09149h-0.1275c-0.13617,0-0.24652,0.11038-0.24652,0.24654v0.30179l-0.66699,0.51726
				c-0.61987,0.48071-1.17676,1.03758-1.65747,1.65744l-0.51727,0.66701h-0.30182c-0.13611,0-0.24652,0.11038-0.24652,0.24654
				v0.12752c0,0.13617,0.11041,0.24655,0.24652,0.24655h3.1402c0.3446,0,0.62396-0.27936,0.62396-0.62393v-3.14017
				C619.27692,146.20187,619.1665,146.09149,619.03033,146.09149z M618.52563,149.04196c0,0.17059-0.13831,0.3089-0.3089,0.3089
				h-0.39478c-0.17059,0-0.3089-0.13831-0.3089-0.3089v-0.39474c0-0.17061,0.13831-0.30891,0.3089-0.30891h0.39478
				c0.17059,0,0.3089,0.13831,0.3089,0.30891V149.04196z"/>
			<path class="st7" d="M608.13251,143.24478l2.11102,2.11105c0.12677,0.12672,0.19794,0.29861,0.19794,0.47783
				c0,0.2468,0.20007,0.44685,0.44684,0.44685h0.32074h0.32074c0.24683,0,0.44684-0.20006,0.44684-0.44685
				c0-0.17921,0.07123-0.3511,0.19794-0.47783l2.11108-2.11105c0.12671-0.12674,0.29858-0.19794,0.47784-0.19794
				c0.24677,0,0.44684-0.20006,0.44684-0.44684v-0.32076v-0.32074c0-0.24678-0.20007-0.44684-0.44684-0.44684
				c-0.17926,0-0.35114-0.0712-0.47784-0.19794l-2.11108-2.11105c-0.12671-0.12672-0.19794-0.29861-0.19794-0.47783
				c0-0.2468-0.20001-0.44685-0.44684-0.44685h-0.32074h-0.32074c-0.24677,0-0.44684,0.20006-0.44684,0.44685
				c0,0.17921-0.07117,0.3511-0.19794,0.47783l-2.11102,2.11105c-0.12677,0.12674-0.29865,0.19794-0.47784,0.19794
				c-0.24683,0-0.44684,0.20006-0.44684,0.44684v0.32074v0.32076c0,0.24678,0.20001,0.44684,0.44684,0.44684
				C607.83386,143.04684,608.00574,143.11804,608.13251,143.24478z M611.72992,142.27925v0.12408
				c0,0.21913-0.17767,0.39677-0.39679,0.39677h-0.12408h-0.12402c-0.21918,0-0.39679-0.17764-0.39679-0.39677v-0.12408v-0.12407
				c0-0.21913,0.17761-0.39677,0.39679-0.39677h0.12402h0.12408c0.21912,0,0.39679,0.17764,0.39679,0.39677V142.27925z
				 M611.76434,144.46216c0,0.20149-0.16333,0.36484-0.36487,0.36484h-0.19043h-0.19043c-0.20148,0-0.36481-0.16335-0.36481-0.36484
				v-0.57045c0-0.20149,0.16333-0.36484,0.36481-0.36484h0.19043h0.19043c0.20154,0,0.36487,0.16335,0.36487,0.36484V144.46216z
				 M612.45667,142.08882c0-0.20149,0.16333-0.36484,0.36487-0.36484h0.57043c0.20148,0,0.36481,0.16335,0.36481,0.36484v0.19043
				v0.19044c0,0.20149-0.16333,0.36484-0.36481,0.36484h-0.57043c-0.20154,0-0.36487-0.16335-0.36487-0.36484v-0.19044V142.08882z
				 M610.65381,140.09636c0-0.20149,0.16333-0.36484,0.36481-0.36484h0.19043h0.19043c0.20154,0,0.36487,0.16335,0.36487,0.36484
				v0.57045c0,0.20149-0.16333,0.36484-0.36487,0.36484h-0.19043h-0.19043c-0.20148,0-0.36481-0.16335-0.36481-0.36484V140.09636z
				 M608.66132,142.08882c0-0.20149,0.16333-0.36484,0.36487-0.36484h0.57043c0.20148,0,0.36481,0.16335,0.36481,0.36484v0.19043
				v0.19044c0,0.20149-0.16333,0.36484-0.36481,0.36484h-0.57043c-0.20154,0-0.36487-0.16335-0.36487-0.36484v-0.19044V142.08882z"
				/>
			<path class="st7" d="M613.6098,149.35086h-1.78015c0,0-0.09796-0.75125-0.62061-0.75125
				c-0.52258,0-0.62061,0.75125-0.62061,0.75125h-1.78015c-0.45996,0-0.83289,0.37291-0.83289,0.83292v0.42462
				c0,0.73061,0.59229,1.32286,1.32288,1.32286h0.60425c0,0.46902,0.38025,0.84926,0.84924,0.84926h0.45728h0.45728
				c0.46906,0,0.8493-0.38023,0.8493-0.84926h0.60425c0.73059,0,1.32288-0.59225,1.32288-1.32286v-0.42462
				C614.44275,149.72377,614.06982,149.35086,613.6098,149.35086z M613.422,150.42876c0,0.21648-0.17548,0.39195-0.39197,0.39195
				h-1.15137c0,0-0.01636,0.24498-0.01636,0.63693c0,0.39197-0.14697,0.56345-0.39191,0.56345c-0.245,0-0.26135,0-0.26135,0
				s-0.0163,0-0.26129,0s-0.39197-0.17148-0.39197-0.56345c0-0.39195-0.0163-0.63693-0.0163-0.63693h-1.15143
				c-0.21643,0-0.39197-0.17548-0.39197-0.39195l0,0c0-0.21648,0.17554-0.39195,0.39197-0.39195h1.82098h1.82098
				C613.24652,150.0368,613.422,150.21228,613.422,150.42876L613.422,150.42876z"/>
			<path class="st7" d="M603.90881,144.68001v-1.78015c0,0,0.75128-0.09798,0.75128-0.62061
				c0-0.52261-0.75128-0.62059-0.75128-0.62059v-1.78015c0-0.46001-0.37292-0.83292-0.83289-0.83292h-0.42468
				c-0.73059,0-1.32281,0.59227-1.32281,1.32286v0.60428c-0.46906,0-0.84924,0.38022-0.84924,0.84924v0.45728v0.45729
				c0,0.46902,0.38019,0.84924,0.84924,0.84924v0.60428c0,0.73059,0.59222,1.32286,1.32281,1.32286h0.42468
				C603.53589,145.51292,603.90881,145.14001,603.90881,144.68001z M603.2229,144.10023c0,0.21648-0.17554,0.39197-0.39197,0.39197
				c-0.21649,0-0.39197-0.17549-0.39197-0.39197v-1.15138c0,0-0.245-0.01633-0.63696-0.01633
				c-0.39191,0-0.56342-0.14699-0.56342-0.39197c0-0.24496,0-0.26131,0-0.26131s0-0.01633,0-0.26129
				c0-0.24498,0.17151-0.39197,0.56342-0.39197c0.39197,0,0.63696-0.01633,0.63696-0.01633v-1.15138
				c0-0.21648,0.17548-0.39197,0.39197-0.39197c0.21643,0,0.39197,0.17549,0.39197,0.39197v1.82097V144.10023z"/>
			<path class="st7" d="M608.29639,148.14378c-0.00665-0.44214,0.07874-1.04669,0.59546-1.04669
				c0.65179,0,0.85266,0.27176,0.90698,0.66476c0.02521,0.18256,0.18738,0.31514,0.37164,0.31514h0.13831
				c0.19843,0,0.36438-0.15352,0.37604-0.35162c0.03345-0.56726-0.15149-1.61731-1.99084-1.57552
				c-1.65131,0.03754-1.61163,1.4091-1.49164,2.08321c0.03784,0.21268,0.22418,0.36655,0.44019,0.36655h0.2066
				C608.09961,148.59961,608.30017,148.39426,608.29639,148.14378z"/>
			<path class="st7" d="M604.90503,145.49434c0,0.216,0.15387,0.40233,0.36658,0.44019
				c0.67407,0.11998,2.04565,0.15967,2.08319-1.49165c0.04181-1.83936-1.00824-2.02428-1.5755-1.99086
				c-0.19812,0.01167-0.35162,0.17761-0.35162,0.37605v0.13832c0,0.1843,0.13257,0.34645,0.31512,0.37166
				c0.39301,0.05429,0.66473,0.2552,0.66473,0.90695c0,0.51677-0.60449,0.60213-1.04669,0.59546
				c-0.25043-0.00378-0.45581,0.19678-0.45581,0.44728V145.49434z"/>
			<path class="st7" d="M606.90533,149.48152h-0.30182l-0.51727-0.66701c-0.48071-0.61986-1.03754-1.17673-1.65741-1.65744
				l-0.66699-0.51726v-0.30179c0-0.13615-0.11041-0.24654-0.24658-0.24654h-0.1275c-0.13617,0-0.24652,0.11038-0.24652,0.24654
				v3.14017c0,0.34457,0.27936,0.62393,0.6239,0.62393h3.1402c0.13617,0,0.24658-0.11038,0.24658-0.24655v-0.12752
				C607.15192,149.5919,607.0415,149.48152,606.90533,149.48152z M604.90503,149.04196c0,0.17059-0.13831,0.3089-0.3089,0.3089
				h-0.39471c-0.17065,0-0.30896-0.13831-0.30896-0.3089v-0.39474c0-0.17061,0.13831-0.30891,0.30896-0.30891h0.39471
				c0.17059,0,0.3089,0.13831,0.3089,0.30891V149.04196z"/>
		</g>
		<g>
			<path class="st8" d="M582.42535,94.01944L582.42535,94.01944v-0.42596c0-0.51501-0.41754-0.93252-0.93256-0.93252h-0.29932
				c-0.32428,0-0.58716,0.26287-0.58716,0.58714v1.25488c0,0-0.52954,0.06907-0.52954,0.43748
				c0,0.3684,0.52954,0.43748,0.52954,0.43748v1.25487c0,0.32426,0.26288,0.58714,0.58716,0.58714h0.29932
				c0.51501,0,0.93256-0.41751,0.93256-0.93253v-0.42596l0,0c0.33063,0,0.59863-0.26802,0.59863-0.59865v-0.32235v-0.32236
				C583.02399,94.28747,582.75598,94.01944,582.42535,94.01944z M582.48865,95.12464c0,0.17269-0.12085,0.27631-0.39716,0.27631
				s-0.44904,0.01151-0.44904,0.01151v0.81163c0,0.1526-0.12366,0.2763-0.27625,0.2763c-0.15265,0-0.27631-0.1237-0.27631-0.2763
				v-1.28365v-1.28365c0-0.1526,0.12366-0.2763,0.27631-0.2763c0.15259,0,0.27625,0.1237,0.27625,0.2763v0.81164
				c0,0,0.17273,0.01151,0.44904,0.01151s0.39716,0.10361,0.39716,0.2763s0,0.1842,0,0.1842S582.48865,94.95196,582.48865,95.12464z
				"/>
			<path class="st8" d="M577.51343,90.8064c0.0047,0.31168-0.05548,0.73784-0.41974,0.73784
				c-0.45941,0-0.60107-0.19157-0.63934-0.46861c-0.01776-0.12868-0.13208-0.22215-0.26196-0.22215h-0.09753
				c-0.13989,0-0.25684,0.10822-0.26508,0.24787c-0.02356,0.39987,0.10681,1.14008,1.40338,1.11061
				c1.16406-0.02646,1.13611-0.9933,1.05151-1.4685c-0.02667-0.14992-0.15802-0.25838-0.3103-0.25838h-0.14563
				C577.65216,90.48508,577.5108,90.62984,577.51343,90.8064z"/>
			<path class="st8" d="M579.90411,92.67406c0-0.15228-0.10852-0.28362-0.25842-0.3103
				c-0.47516-0.08457-1.44202-0.11256-1.46851,1.05151c-0.02942,1.2966,0.71075,1.42695,1.11066,1.4034
				c0.13965-0.00822,0.24786-0.12521,0.24786-0.26509v-0.0975c0-0.12991-0.09351-0.24422-0.22217-0.26199
				c-0.27704-0.03827-0.46863-0.17989-0.46863-0.63932c0-0.36428,0.42615-0.42445,0.73785-0.41975
				c0.17657,0.00267,0.32135-0.13872,0.32135-0.31531V92.67406z"/>
			<path class="st8" d="M578.49402,89.86341h0.21277l0.36462,0.47018c0.33887,0.43696,0.73138,0.82951,1.1684,1.16837
				l0.47015,0.36463v0.21273c0,0.09599,0.07782,0.1738,0.17383,0.1738h0.08984c0.09601,0,0.17383-0.07781,0.17383-0.1738v-2.21357
				c0-0.2429-0.19696-0.43983-0.43982-0.43983h-2.21362c-0.09595,0-0.17377,0.07781-0.17377,0.1738v0.08989
				C578.32025,89.7856,578.39807,89.86341,578.49402,89.86341z M579.90411,90.17326c0-0.12026,0.09747-0.21776,0.21771-0.21776
				h0.27826c0.1203,0,0.21777,0.0975,0.21777,0.21776v0.27827c0,0.12026-0.09747,0.21775-0.21777,0.21775h-0.27826
				c-0.12024,0-0.21771-0.09749-0.21771-0.21775V90.17326z"/>
			<path class="st8" d="M573.76788,89.95551h1.25488c0,0,0.06909,0.52958,0.4375,0.52958s0.43744-0.52958,0.43744-0.52958h1.25488
				c0.32428,0,0.58716-0.26287,0.58716-0.58714v-0.29933c0-0.51501-0.41754-0.93251-0.93256-0.93251h-0.42596
				c0-0.33063-0.26801-0.59866-0.59863-0.59866h-0.32233h-0.32239c-0.33063,0-0.59863,0.26803-0.59863,0.59866h-0.42596
				c-0.51501,0-0.9325,0.4175-0.9325,0.93251v0.29933C573.18079,89.69263,573.4436,89.95551,573.76788,89.95551z
				 M573.90027,89.19568c0-0.1526,0.12372-0.2763,0.27631-0.2763h0.81165c0,0,0.01154-0.17269,0.01154-0.44899
				s0.10358-0.39718,0.27631-0.39718c0.17267,0,0.1842,0,0.1842,0s0.01147,0,0.1842,0c0.17267,0,0.27625,0.12088,0.27625,0.39718
				s0.01154,0.44899,0.01154,0.44899h0.81165c0.15259,0,0.27631,0.1237,0.27631,0.2763l0,0c0,0.1526-0.12372,0.2763-0.27631,0.2763
				h-1.28363h-1.28369C574.02399,89.47198,573.90027,89.34827,573.90027,89.19568L573.90027,89.19568z"/>
			<path class="st8" d="M573.68732,92.21197c1.29657,0.02946,1.42694-0.71074,1.40338-1.11061
				c-0.00824-0.13965-0.12518-0.24787-0.26508-0.24787h-0.09753c-0.12988,0-0.2442,0.09346-0.26196,0.22215
				c-0.03827,0.27704-0.17987,0.46861-0.63934,0.46861c-0.36426,0-0.42444-0.42616-0.41974-0.73784
				c0.00269-0.17657-0.13873-0.32132-0.31531-0.32132h-0.14563c-0.15228,0-0.28363,0.10847-0.3103,0.25838
				C572.55121,91.21867,572.52325,92.18551,573.68732,92.21197z"/>
			<path class="st8" d="M571.60693,94.19408c-0.12866,0.01778-0.22211,0.13209-0.22211,0.26199v0.0975
				c0,0.13988,0.10822,0.25687,0.24786,0.26509c0.39984,0.02355,1.14008-0.1068,1.1106-1.4034
				c-0.02649-1.16406-0.99329-1.13608-1.46851-1.05151c-0.1499,0.02669-0.25836,0.15803-0.25836,0.3103v0.14563
				c0,0.17659,0.14471,0.31798,0.32129,0.31531c0.31171-0.0047,0.73785,0.05547,0.73785,0.41975
				C572.07556,94.01418,571.88397,94.15581,571.60693,94.19408z"/>
			<path class="st8" d="M569.94684,92.25312h0.0899c0.09595,0,0.17377-0.07781,0.17377-0.1738v-0.21273l0.47021-0.36463
				c0.43695-0.33887,0.82947-0.73141,1.16833-1.16837l0.36462-0.47018h0.21277c0.09601,0,0.17377-0.07781,0.17377-0.1738v-0.08989
				c0-0.09599-0.07776-0.1738-0.17377-0.1738h-2.21356c-0.24292,0-0.43982,0.19692-0.43982,0.43983v2.21357
				C569.77307,92.17531,569.85083,92.25312,569.94684,92.25312z M570.30261,90.17326c0-0.12026,0.09747-0.21776,0.21777-0.21776
				h0.27826c0.12024,0,0.21777,0.0975,0.21777,0.21776v0.27827c0,0.12026-0.09753,0.21775-0.21777,0.21775h-0.27826
				c-0.1203,0-0.21777-0.09749-0.21777-0.21775V90.17326z"/>
			<path class="st8" d="M577.23315,97.66891c-1.29657-0.02946-1.42694,0.71075-1.40338,1.11062
				c0.00824,0.13964,0.12518,0.24786,0.26508,0.24786h0.09753c0.12988,0,0.2442-0.09345,0.26196-0.22215
				c0.03827-0.27704,0.17993-0.46861,0.63934-0.46861c0.36426,0,0.42444,0.42616,0.41974,0.73783
				c-0.00262,0.17657,0.13873,0.32132,0.31531,0.32132h0.14563c0.15228,0,0.28363-0.10847,0.3103-0.25838
				C578.36926,98.66222,578.39722,97.69537,577.23315,97.66891z"/>
			<path class="st8" d="M579.64569,97.51712c0.1499-0.02668,0.25842-0.15803,0.25842-0.3103v-0.14563
				c0-0.17659-0.14478-0.31797-0.32135-0.31531c-0.31171,0.00471-0.73785-0.05547-0.73785-0.41975
				c0-0.45943,0.19159-0.60105,0.46863-0.63933c0.12866-0.01778,0.22217-0.13208,0.22217-0.26199v-0.0975
				c0-0.13988-0.10822-0.25687-0.24786-0.26509c-0.3999-0.02355-1.14008,0.1068-1.11066,1.4034
				C578.20367,97.62968,579.17053,97.60169,579.64569,97.51712z"/>
			<path class="st8" d="M580.97363,97.62777h-0.08984c-0.09601,0-0.17383,0.07781-0.17383,0.1738v0.21272l-0.47015,0.36464
				c-0.43701,0.33886-0.82953,0.73141-1.1684,1.16837l-0.36462,0.47018h-0.21277c-0.09595,0-0.17377,0.07781-0.17377,0.1738v0.08988
				c0,0.09599,0.07782,0.1738,0.17377,0.1738h2.21362c0.24286,0,0.43982-0.19691,0.43982-0.43983v-2.21356
				C581.14746,97.70558,581.06964,97.62777,580.97363,97.62777z M580.61786,99.70762c0,0.12026-0.09747,0.21776-0.21777,0.21776
				h-0.27826c-0.12024,0-0.21771-0.0975-0.21771-0.21776v-0.27827c0-0.12026,0.09747-0.21775,0.21771-0.21775h0.27826
				c0.1203,0,0.21777,0.09749,0.21777,0.21775V99.70762z"/>
			<path class="st8" d="M573.2915,95.62106l1.4881,1.48813c0.08936,0.08934,0.13953,0.2105,0.13953,0.33685
				c0,0.17397,0.14105,0.31499,0.315,0.31499h0.22614h0.22607c0.17395,0,0.315-0.14102,0.315-0.31499
				c0-0.12634,0.05017-0.24751,0.13953-0.33685l1.4881-1.48813c0.08936-0.08933,0.21051-0.13952,0.33685-0.13952
				c0.17395,0,0.315-0.14103,0.315-0.31499v-0.2261v-0.2261c0-0.17396-0.14105-0.31499-0.315-0.31499
				c-0.12634,0-0.2475-0.05019-0.33685-0.13953l-1.4881-1.48813c-0.08936-0.08933-0.13953-0.21049-0.13953-0.33684
				c0-0.17397-0.14105-0.31499-0.315-0.31499h-0.22607h-0.22614c-0.17395,0-0.315,0.14103-0.315,0.31499
				c0,0.12634-0.05017,0.24751-0.13953,0.33684l-1.4881,1.48813c-0.08936,0.08934-0.21051,0.13953-0.33685,0.13953
				c-0.17395,0-0.315,0.14103-0.315,0.31499v0.2261v0.2261c0,0.17397,0.14105,0.31499,0.315,0.31499
				C573.08099,95.48154,573.20215,95.53172,573.2915,95.62106z M575.82739,94.94044v0.08746
				c0,0.15448-0.12518,0.27971-0.27966,0.27971h-0.08746h-0.08746c-0.15448,0-0.27972-0.12523-0.27972-0.27971v-0.08746v-0.08746
				c0-0.15448,0.12524-0.2797,0.27972-0.2797h0.08746h0.08746c0.15448,0,0.27966,0.12522,0.27966,0.2797V94.94044z
				 M575.85168,96.47922c0,0.14204-0.11517,0.25719-0.2572,0.25719h-0.13422h-0.13428c-0.14203,0-0.2572-0.11515-0.2572-0.25719
				V96.0771c0-0.14204,0.11517-0.25718,0.2572-0.25718h0.13428h0.13422c0.14203,0,0.2572,0.11514,0.2572,0.25718V96.47922z
				 M576.33972,94.8062c0-0.14204,0.11511-0.25719,0.2572-0.25719h0.4021c0.14203,0,0.2572,0.11515,0.2572,0.25719v0.13425v0.13425
				c0,0.14204-0.11517,0.25718-0.2572,0.25718h-0.4021c-0.14209,0-0.2572-0.11514-0.2572-0.25718v-0.13425V94.8062z
				 M575.06879,93.40166c0-0.14204,0.11517-0.25718,0.2572-0.25718h0.13428h0.13422c0.14203,0,0.2572,0.11514,0.2572,0.25718
				v0.40212c0,0.14204-0.11517,0.25718-0.2572,0.25718h-0.13422h-0.13428c-0.14203,0-0.2572-0.11514-0.2572-0.25718V93.40166z
				 M573.66431,94.8062c0-0.14204,0.11511-0.25719,0.25714-0.25719h0.40216c0.14203,0,0.25714,0.11515,0.25714,0.25719v0.13425
				v0.13425c0,0.14204-0.11511,0.25718-0.25714,0.25718h-0.40216c-0.14203,0-0.25714-0.11514-0.25714-0.25718v-0.13425V94.8062z"/>
			<path class="st8" d="M577.15259,99.92538h-1.25488c0,0-0.06903-0.52958-0.43744-0.52958s-0.4375,0.52958-0.4375,0.52958h-1.25488
				c-0.32428,0-0.5871,0.26287-0.5871,0.58714v0.29932c0,0.51501,0.41748,0.93252,0.9325,0.93252h0.42596
				c0,0.33063,0.26801,0.59865,0.59863,0.59865h0.32239h0.32233c0.33063,0,0.59863-0.26802,0.59863-0.59865h0.42596
				c0.51501,0,0.93256-0.4175,0.93256-0.93252v-0.29932C577.73975,100.18825,577.47687,99.92538,577.15259,99.92538z
				 M577.0202,100.68521c0,0.1526-0.12372,0.2763-0.27631,0.2763h-0.81165c0,0-0.01154,0.17268-0.01154,0.44899
				c0,0.2763-0.10358,0.39718-0.27625,0.39718c-0.17273,0-0.1842,0-0.1842,0s-0.01154,0-0.1842,0
				c-0.17273,0-0.27631-0.12088-0.27631-0.39718c0-0.27631-0.01154-0.44899-0.01154-0.44899h-0.81165
				c-0.15259,0-0.27631-0.1237-0.27631-0.2763v-0.00001c0-0.1526,0.12372-0.2763,0.27631-0.2763h1.28369h1.28363
				C576.89648,100.40891,577.0202,100.53261,577.0202,100.68521L577.0202,100.68521z"/>
			<path class="st8" d="M570.31415,96.63279v-1.25487c0,0,0.52954-0.06908,0.52954-0.43748
				c0-0.36841-0.52954-0.43748-0.52954-0.43748v-1.25488c0-0.32426-0.26288-0.58714-0.58716-0.58714h-0.29932
				c-0.51501,0-0.9325,0.4175-0.9325,0.93252v0.42596c-0.33063,0-0.59869,0.26803-0.59869,0.59865v0.32236v0.32235
				c0,0.33063,0.26807,0.59865,0.59869,0.59865v0.42596c0,0.51501,0.41748,0.93253,0.9325,0.93253h0.29932
				C570.05127,97.21993,570.31415,96.95705,570.31415,96.63279z M569.83063,96.22409c0,0.1526-0.12372,0.2763-0.27631,0.2763
				s-0.27631-0.1237-0.27631-0.2763v-0.81163c0,0-0.17273-0.01151-0.44897-0.01151c-0.27631,0-0.39722-0.10361-0.39722-0.27631
				c0-0.17268,0-0.1842,0-0.1842s0-0.01151,0-0.1842s0.12091-0.2763,0.39722-0.2763c0.27625,0,0.44897-0.01151,0.44897-0.01151
				v-0.81164c0-0.1526,0.12372-0.2763,0.27631-0.2763s0.27631,0.1237,0.27631,0.2763v1.28365V96.22409z"/>
			<path class="st8" d="M573.40704,99.07448c-0.0047-0.31168,0.05548-0.73783,0.41974-0.73783
				c0.45947,0,0.60107,0.19157,0.63934,0.46861c0.01776,0.12869,0.13208,0.22215,0.26196,0.22215h0.09753
				c0.13989,0,0.25684-0.10822,0.26508-0.24786c0.02356-0.39987-0.10681-1.14008-1.40338-1.11062
				c-1.16406,0.02646-1.13611,0.9933-1.05151,1.46851c0.02667,0.14991,0.15802,0.25838,0.3103,0.25838h0.14563
				C573.26831,99.3958,573.40973,99.25105,573.40704,99.07448z"/>
			<path class="st8" d="M571.01642,97.20682c0,0.15228,0.10846,0.28362,0.25836,0.3103
				c0.47522,0.08457,1.44202,0.11256,1.46851-1.0515c0.02948-1.29661-0.71075-1.42696-1.1106-1.4034
				c-0.13965,0.00822-0.24786,0.12521-0.24786,0.26509v0.0975c0,0.12991,0.09344,0.24422,0.22211,0.26199
				c0.27704,0.03828,0.46863,0.17989,0.46863,0.63933c0,0.36428-0.42615,0.42445-0.73785,0.41975
				c-0.17657-0.00266-0.32129,0.13872-0.32129,0.31531V97.20682z"/>
			<path class="st8" d="M572.42645,100.01748h-0.21277l-0.36462-0.47018c-0.33887-0.43696-0.73138-0.82951-1.16833-1.16837
				l-0.47021-0.36464v-0.21272c0-0.09599-0.07782-0.1738-0.17377-0.1738h-0.0899c-0.09601,0-0.17377,0.07781-0.17377,0.1738v2.21356
				c0,0.24291,0.1969,0.43983,0.43982,0.43983h2.21356c0.09601,0,0.17377-0.07781,0.17377-0.1738v-0.08988
				C572.60022,100.09529,572.52246,100.01748,572.42645,100.01748z M571.01642,99.70762c0,0.12026-0.09753,0.21776-0.21777,0.21776
				h-0.27826c-0.1203,0-0.21777-0.0975-0.21777-0.21776v-0.27827c0-0.12026,0.09747-0.21775,0.21777-0.21775h0.27826
				c0.12024,0,0.21777,0.09749,0.21777,0.21775V99.70762z"/>
		</g>
		<g>
			<path class="st9" d="M502.3847,77.22285h-0.00003v-0.42596c0-0.51501-0.41748-0.93252-0.9325-0.93252h-0.29932
				c-0.32428,0-0.58716,0.26287-0.58716,0.58714v1.25488c0,0-0.52957,0.06907-0.52957,0.43748
				c0,0.3684,0.52957,0.43747,0.52957,0.43747v1.25488c0,0.32426,0.26288,0.58714,0.58716,0.58714h0.29932
				c0.51501,0,0.9325-0.41751,0.9325-0.93253v-0.42596h0.00003c0.33063,0,0.59863-0.26802,0.59863-0.59865v-0.32235V77.8215
				C502.98334,77.49088,502.71533,77.22285,502.3847,77.22285z M502.448,78.32806c0,0.17269-0.12088,0.27631-0.39719,0.27631
				c-0.27628,0-0.44897,0.01151-0.44897,0.01151v0.81163c0,0.1526-0.12372,0.2763-0.27631,0.2763s-0.27631-0.1237-0.27631-0.2763
				v-1.28365v-1.28365c0-0.1526,0.12372-0.2763,0.27631-0.2763s0.27631,0.1237,0.27631,0.2763v0.81164
				c0,0,0.1727,0.01151,0.44897,0.01151c0.27631,0,0.39719,0.10361,0.39719,0.2763s0,0.1842,0,0.1842
				S502.448,78.15537,502.448,78.32806z"/>
			<path class="st9" d="M497.47281,74.00982c0.0047,0.31168-0.05548,0.73784-0.41977,0.73784
				c-0.45944,0-0.60104-0.19157-0.63931-0.46861c-0.01779-0.12868-0.13208-0.22215-0.26199-0.22215h-0.0975
				c-0.13989,0-0.25687,0.10822-0.26511,0.24787c-0.02353,0.39986,0.10681,1.14008,1.40341,1.11061
				c1.16406-0.02646,1.13608-0.9933,1.05148-1.4685c-0.02667-0.14992-0.15802-0.25838-0.31027-0.25838h-0.14566
				C497.61151,73.6885,497.47012,73.83325,497.47281,74.00982z"/>
			<path class="st9" d="M499.86343,75.87748c0-0.15228-0.10846-0.28362-0.25836-0.3103
				c-0.47522-0.08457-1.44205-0.11256-1.46851,1.05151c-0.02948,1.2966,0.71072,1.42695,1.1106,1.4034
				c0.13965-0.00822,0.24789-0.12521,0.24789-0.26509v-0.0975c0-0.12991-0.09348-0.24422-0.22217-0.26199
				c-0.27704-0.03827-0.4686-0.17989-0.4686-0.63932c0-0.36428,0.42615-0.42446,0.73782-0.41975
				c0.17657,0.00267,0.32132-0.13872,0.32132-0.31531V75.87748z"/>
			<path class="st9" d="M498.4534,73.06683h0.21274l0.36462,0.47018c0.33887,0.43696,0.73141,0.82951,1.16837,1.16837
				l0.47018,0.36463v0.21273c0,0.09599,0.07782,0.17379,0.1738,0.17379h0.0899c0.09598,0,0.1738-0.0778,0.1738-0.17379v-2.21357
				c0-0.2429-0.19693-0.43983-0.43985-0.43983h-2.21356c-0.09601,0-0.1738,0.07781-0.1738,0.1738v0.08989
				C498.2796,72.98901,498.35739,73.06683,498.4534,73.06683z M499.86343,73.37668c0-0.12026,0.0975-0.21776,0.21777-0.21776
				h0.27826c0.12027,0,0.21774,0.0975,0.21774,0.21776v0.27827c0,0.12026-0.09747,0.21775-0.21774,0.21775h-0.27826
				c-0.12027,0-0.21777-0.09749-0.21777-0.21775V73.37668z"/>
			<path class="st9" d="M493.72726,73.15892h1.25485c0,0,0.06909,0.52958,0.43747,0.52958c0.36841,0,0.4375-0.52958,0.4375-0.52958
				h1.25485c0.32428,0,0.58716-0.26287,0.58716-0.58714v-0.29933c0-0.51501-0.41751-0.93251-0.93253-0.93251h-0.42596
				c0-0.33063-0.26804-0.59866-0.59866-0.59866h-0.32236h-0.32233c-0.33063,0-0.59866,0.26803-0.59866,0.59866h-0.42596
				c-0.51501,0-0.93253,0.4175-0.93253,0.93251v0.29933C493.14011,72.89605,493.40298,73.15892,493.72726,73.15892z
				 M493.85965,72.39909c0-0.1526,0.12369-0.2763,0.27631-0.2763h0.81161c0,0,0.01154-0.17269,0.01154-0.44899
				s0.10361-0.39718,0.27628-0.39718c0.1727,0,0.1842,0,0.1842,0s0.01154,0,0.1842,0c0.1727,0,0.27631,0.12088,0.27631,0.39718
				s0.01151,0.44899,0.01151,0.44899h0.81165c0.15259,0,0.27631,0.1237,0.27631,0.2763l0,0c0,0.1526-0.12372,0.2763-0.27631,0.2763
				h-1.28366h-1.28363C493.98334,72.67539,493.85965,72.55169,493.85965,72.39909L493.85965,72.39909z"/>
			<path class="st9" d="M493.64667,75.41538c1.2966,0.02946,1.42694-0.71075,1.40341-1.11061
				c-0.00824-0.13965-0.12521-0.24787-0.26511-0.24787h-0.0975c-0.12991,0-0.2442,0.09346-0.26199,0.22215
				c-0.03827,0.27704-0.1799,0.46861-0.63931,0.46861c-0.36429,0-0.42447-0.42616-0.41977-0.73784
				c0.00269-0.17657-0.1387-0.32132-0.31531-0.32132h-0.14563c-0.15225,0-0.2836,0.10847-0.3103,0.25838
				C492.51059,74.42208,492.4826,75.38892,493.64667,75.41538z"/>
			<path class="st9" d="M491.56631,77.39749c-0.12869,0.01778-0.22217,0.13209-0.22217,0.26199v0.0975
				c0,0.13988,0.10822,0.25687,0.24786,0.26509c0.39987,0.02355,1.14011-0.1068,1.11063-1.4034
				c-0.02646-1.16406-0.99332-1.13608-1.46851-1.05151c-0.1499,0.02668-0.25839,0.15803-0.25839,0.3103v0.14563
				c0,0.17659,0.14478,0.31798,0.32135,0.31531c0.31168-0.00471,0.73782,0.05547,0.73782,0.41975
				C492.03491,77.2176,491.84335,77.35922,491.56631,77.39749z"/>
			<path class="st9" d="M489.90619,75.45653h0.08987c0.09601,0,0.1738-0.0778,0.1738-0.17379v-0.21273l0.47018-0.36463
				c0.43698-0.33887,0.82953-0.73141,1.1684-1.16837l0.36462-0.47018h0.21274c0.09598,0,0.1738-0.07781,0.1738-0.1738v-0.08989
				c0-0.09599-0.07782-0.1738-0.1738-0.1738h-2.21359c-0.24289,0-0.43982,0.19692-0.43982,0.43983v2.21357
				C489.73239,75.37872,489.81021,75.45653,489.90619,75.45653z M490.26196,73.37668c0-0.12026,0.0975-0.21776,0.21777-0.21776
				h0.27826c0.12027,0,0.21774,0.0975,0.21774,0.21776v0.27827c0,0.12026-0.09747,0.21775-0.21774,0.21775h-0.27826
				c-0.12027,0-0.21777-0.09749-0.21777-0.21775V73.37668z"/>
			<path class="st9" d="M497.19254,80.87233c-1.2966-0.02946-1.42694,0.71075-1.40341,1.11062
				c0.00824,0.13964,0.12521,0.24786,0.26511,0.24786h0.0975c0.12991,0,0.2442-0.09345,0.26199-0.22215
				c0.03827-0.27704,0.17987-0.46861,0.63931-0.46861c0.36429,0,0.42447,0.42616,0.41977,0.73783
				c-0.00269,0.17657,0.1387,0.32132,0.31528,0.32132h0.14566c0.15225,0,0.2836-0.10847,0.31027-0.25838
				C498.32861,81.86563,498.3566,80.89879,497.19254,80.87233z"/>
			<path class="st9" d="M499.60507,80.72054c0.1499-0.02668,0.25836-0.15803,0.25836-0.3103V80.2646
				c0-0.17659-0.14474-0.31797-0.32132-0.31531c-0.31168,0.00471-0.73782-0.05547-0.73782-0.41975
				c0-0.45943,0.19156-0.60105,0.4686-0.63933c0.12869-0.01778,0.22217-0.13208,0.22217-0.26199v-0.0975
				c0-0.13988-0.10825-0.25687-0.24789-0.26509c-0.39987-0.02355-1.14008,0.1068-1.1106,1.4034
				C498.16302,80.83309,499.12985,80.80511,499.60507,80.72054z"/>
			<path class="st9" d="M500.93301,80.83118h-0.0899c-0.09598,0-0.1738,0.07781-0.1738,0.1738v0.21272l-0.47018,0.36463
				c-0.43695,0.33887-0.8295,0.73141-1.16837,1.16837l-0.36462,0.47018h-0.21274c-0.09601,0-0.1738,0.07781-0.1738,0.1738v0.08988
				c0,0.09599,0.07779,0.1738,0.1738,0.1738h2.21356c0.24292,0,0.43985-0.19692,0.43985-0.43983v-2.21356
				C501.10681,80.909,501.02899,80.83118,500.93301,80.83118z M500.57721,82.91103c0,0.12026-0.09747,0.21776-0.21774,0.21776
				h-0.27826c-0.12027,0-0.21777-0.0975-0.21777-0.21776v-0.27827c0-0.12026,0.0975-0.21775,0.21777-0.21775h0.27826
				c0.12027,0,0.21774,0.09749,0.21774,0.21775V82.91103z"/>
			<path class="st9" d="M493.25085,78.82447l1.48813,1.48813c0.08932,0.08933,0.13953,0.2105,0.13953,0.33684
				c0,0.17397,0.14102,0.31499,0.315,0.31499h0.22607h0.2261c0.17398,0,0.315-0.14102,0.315-0.31499
				c0-0.12634,0.05017-0.24751,0.13953-0.33684l1.48813-1.48813c0.08932-0.08933,0.21048-0.13952,0.33682-0.13952
				c0.17398,0,0.315-0.14103,0.315-0.31499v-0.2261v-0.2261c0-0.17396-0.14102-0.31499-0.315-0.31499
				c-0.12634,0-0.2475-0.05019-0.33682-0.13953l-1.48813-1.48813c-0.08936-0.08933-0.13953-0.2105-0.13953-0.33684
				c0-0.17397-0.14102-0.31499-0.315-0.31499h-0.2261h-0.22607c-0.17398,0-0.315,0.14103-0.315,0.31499
				c0,0.12634-0.0502,0.24751-0.13953,0.33684l-1.48813,1.48813c-0.08932,0.08934-0.21051,0.13953-0.33685,0.13953
				c-0.17395,0-0.31497,0.14103-0.31497,0.31499v0.2261v0.2261c0,0.17397,0.14102,0.31499,0.31497,0.31499
				C493.04034,78.68495,493.16153,78.73514,493.25085,78.82447z M495.78677,78.14386v0.08746
				c0,0.15448-0.12524,0.27971-0.27972,0.27971h-0.08746h-0.08743c-0.15448,0-0.27972-0.12523-0.27972-0.27971v-0.08746V78.0564
				c0-0.15448,0.12524-0.2797,0.27972-0.2797h0.08743h0.08746c0.15448,0,0.27972,0.12522,0.27972,0.2797V78.14386z
				 M495.81104,79.68263c0,0.14204-0.11514,0.25719-0.2572,0.25719h-0.13425h-0.13425c-0.14203,0-0.25717-0.11515-0.25717-0.25719
				v-0.40212c0-0.14204,0.11514-0.25718,0.25717-0.25718h0.13425h0.13425c0.14206,0,0.2572,0.11514,0.2572,0.25718V79.68263z
				 M496.29907,78.00961c0-0.14204,0.11514-0.25719,0.25717-0.25719h0.40213c0.14203,0,0.25717,0.11515,0.25717,0.25719v0.13425
				v0.13425c0,0.14204-0.11514,0.25718-0.25717,0.25718h-0.40213c-0.14203,0-0.25717-0.11514-0.25717-0.25718v-0.13425V78.00961z
				 M495.02817,76.60508c0-0.14204,0.11514-0.25718,0.25717-0.25718h0.13425h0.13425c0.14206,0,0.2572,0.11514,0.2572,0.25718
				v0.40212c0,0.14204-0.11514,0.25718-0.2572,0.25718h-0.13425h-0.13425c-0.14203,0-0.25717-0.11514-0.25717-0.25718V76.60508z
				 M493.62363,78.00961c0-0.14204,0.11514-0.25719,0.2572-0.25719h0.40213c0.14203,0,0.25717,0.11515,0.25717,0.25719v0.13425
				v0.13425c0,0.14204-0.11514,0.25718-0.25717,0.25718h-0.40213c-0.14206,0-0.2572-0.11514-0.2572-0.25718v-0.13425V78.00961z"/>
			<path class="st9" d="M497.11194,83.12879h-1.25485c0,0-0.06909-0.52958-0.4375-0.52958
				c-0.36838,0-0.43747,0.52958-0.43747,0.52958h-1.25485c-0.32428,0-0.58716,0.26287-0.58716,0.58714v0.29932
				c0,0.51501,0.41751,0.93252,0.93253,0.93252h0.42596c0,0.33062,0.26804,0.59865,0.59866,0.59865h0.32233h0.32236
				c0.33063,0,0.59866-0.26803,0.59866-0.59865h0.42596c0.51501,0,0.93253-0.4175,0.93253-0.93252v-0.29932
				C497.6991,83.39166,497.43622,83.12879,497.11194,83.12879z M496.97955,83.88862c0,0.1526-0.12372,0.27631-0.27631,0.27631
				h-0.81165c0,0-0.01151,0.17268-0.01151,0.44898c0,0.27631-0.10361,0.39718-0.27631,0.39718c-0.17267,0-0.1842,0-0.1842,0
				s-0.01151,0-0.1842,0c-0.17267,0-0.27628-0.12087-0.27628-0.39718c0-0.2763-0.01154-0.44898-0.01154-0.44898h-0.81161
				c-0.15262,0-0.27631-0.1237-0.27631-0.27631l0,0c0-0.1526,0.12369-0.2763,0.27631-0.2763h1.28363h1.28366
				C496.85583,83.61232,496.97955,83.73602,496.97955,83.88862L496.97955,83.88862z"/>
			<path class="st9" d="M490.2735,79.8362v-1.25488c0,0,0.52957-0.06907,0.52957-0.43747c0-0.36841-0.52957-0.43748-0.52957-0.43748
				v-1.25488c0-0.32426-0.26288-0.58714-0.58716-0.58714h-0.29932c-0.51501,0-0.93253,0.4175-0.93253,0.93252v0.42596
				c-0.33063,0-0.59863,0.26803-0.59863,0.59865v0.32236v0.32235c0,0.33063,0.26801,0.59865,0.59863,0.59865v0.42596
				c0,0.51501,0.41751,0.93253,0.93253,0.93253h0.29932C490.01062,80.42335,490.2735,80.16047,490.2735,79.8362z
				 M489.78995,79.42751c0,0.1526-0.12369,0.2763-0.27628,0.2763c-0.15262,0-0.27631-0.1237-0.27631-0.2763v-0.81163
				c0,0-0.1727-0.01151-0.44901-0.01151s-0.39719-0.10361-0.39719-0.27631c0-0.17268,0-0.1842,0-0.1842s0-0.01151,0-0.1842
				s0.12088-0.2763,0.39719-0.2763s0.44901-0.01151,0.44901-0.01151v-0.81164c0-0.1526,0.12369-0.2763,0.27631-0.2763
				c0.15259,0,0.27628,0.1237,0.27628,0.2763v1.28365V79.42751z"/>
			<path class="st9" d="M493.36639,82.27789c-0.0047-0.31168,0.05548-0.73783,0.41977-0.73783
				c0.45941,0,0.60104,0.19157,0.63931,0.46861c0.01779,0.12869,0.13208,0.22215,0.26199,0.22215h0.0975
				c0.13989,0,0.25687-0.10822,0.26511-0.24786c0.02353-0.39987-0.10681-1.14008-1.40341-1.11062
				c-1.16406,0.02646-1.13608,0.9933-1.05151,1.4685c0.0267,0.14992,0.15805,0.25838,0.3103,0.25838h0.14563
				C493.22769,82.59921,493.36908,82.45446,493.36639,82.27789z"/>
			<path class="st9" d="M490.97574,80.41023c0,0.15228,0.10849,0.28362,0.25839,0.3103
				c0.47519,0.08457,1.44205,0.11256,1.46851-1.05151c0.02948-1.2966-0.71075-1.42695-1.11063-1.4034
				c-0.13965,0.00822-0.24786,0.12521-0.24786,0.26509v0.0975c0,0.12991,0.09348,0.24422,0.22217,0.26199
				c0.27704,0.03828,0.4686,0.17989,0.4686,0.63933c0,0.36428-0.42615,0.42445-0.73782,0.41975
				c-0.17657-0.00266-0.32135,0.13872-0.32135,0.31531V80.41023z"/>
			<path class="st9" d="M492.3858,83.22089h-0.21274l-0.36462-0.47018c-0.33887-0.43696-0.73141-0.82951-1.1684-1.16837
				l-0.47018-0.36463v-0.21272c0-0.09599-0.07779-0.1738-0.1738-0.1738h-0.08987c-0.09598,0-0.1738,0.07781-0.1738,0.1738v2.21356
				c0,0.2429,0.19693,0.43983,0.43982,0.43983h2.21359c0.09598,0,0.1738-0.07781,0.1738-0.1738v-0.08988
				C492.5596,83.29871,492.48178,83.22089,492.3858,83.22089z M490.97574,82.91103c0,0.12026-0.09747,0.21776-0.21774,0.21776
				h-0.27826c-0.12027,0-0.21777-0.0975-0.21777-0.21776v-0.27827c0-0.12026,0.0975-0.21775,0.21777-0.21775h0.27826
				c0.12027,0,0.21774,0.09749,0.21774,0.21775V82.91103z"/>
		</g>
	</g>
	<path class="st10" d="M23.31102,200.40552c0,0-30-47.625-8.25-96.00001s77.625-87,148.125-65.625s108.37502,108.37501,63,178.125
		s-127.125,44.625-142.125,38.625s-31.125-17.25-43.875-18.75c5.25,6.75,15.375,17.625,15.375,17.625s-5.4375-0.75-9.1875-3.9375
		c1.125,3,3.9375,5.4375,3.9375,5.4375l-3.9375,0.1875c0,0,8.4375,5.16113,21.1875,8.76807c-10.5,0-19.5-2.01807-19.5-2.01807
		l4.875,4.6875l-8.25-3.5625c0,0,8.0625,8.8125,24.75,17.25c-7.5-1.125-14.8125-4.125-14.8125-4.125s14.0625,14.0625,21.375,15.9375
		s9.75,1.6875,13.6875,3.1875s8.4375,10.875,50.25,10.875s61.625-14.1875,101.875-56.1875s45.00002-84,32.00002-143.75
		s-66.71368-104.75-130.10686-104.75s-74.89316,17.25-74.89316,17.25s37-20.25,80.75-9.75c-20.75-1.75-117,2.25-145,93
		c9-18.75,32.5-77.5,115-85.75s122,59.25,128,101.25c0,0-19.75-68-85.25-86s-122.5,18.75-141.75,56.25
		S-5.38714,160.63385,23.31102,200.40552z"/>
</g>
</svg>
