<?xml version="1.0" encoding="utf-8"?>
<!-- Generator: Adobe Illustrator 24.0.1, SVG Export Plug-In . SVG Version: 6.00 Build 0)  -->
<svg version="1.1" id="Layer_1" xmlns="http://www.w3.org/2000/svg" xmlns:xlink="http://www.w3.org/1999/xlink" x="0px" y="0px"
	 viewBox="0 0 623.62207 311.81104" style="enable-background:new 0 0 623.62207 311.81104;" xml:space="preserve">
<style type="text/css">
	.st0{clip-path:url(#SVGID_1_);fill:#FFFFFF;}
	.st1{clip-path:url(#SVGID_1_);}
	.st2{clip-path:url(#SVGID_2_);fill:url(#SVGID_3_);}
</style>
<g id="Iwate-Iwate_1_">
	<defs>
		<rect id="SVGID_6_" width="623.62207" height="311.81104"/>
	</defs>
	<clipPath id="SVGID_1_">
		<use xlink:href="#SVGID_6_"  style="overflow:visible;"/>
	</clipPath>
	<rect class="st0" width="623.62207" height="311.81104"/>
	<g class="st1">
		<defs>
			<path id="SVGID_8_" d="M653.05371,34.55865l2.69257-1.6723l-6.24622-10.2362c-0.14063-0.23047-0.37091-0.39197-0.6355-0.44574
				l-3.28589-0.66772c-0.24213-0.04926-0.49396-0.00427-0.7041,0.12567l-1.67346,1.03503l-0.24561-0.40247
				c-0.16919-0.27728-0.53107-0.36487-0.80835-0.19568l-3.30939,2.01941c-0.27728,0.16919-0.36487,0.53113-0.19568,0.80835
				l0.26141,0.42847l-4.29755,2.65796l-0.27728-0.45435c-0.16919-0.27722-0.53107-0.36487-0.80835-0.19568l-3.30939,2.01947
				c-0.27722,0.16919-0.36487,0.53107-0.19568,0.80829l0.29309,0.48035l-4.3717,2.70386l-0.30914-0.50671
				c-0.16919-0.27722-0.53113-0.36487-0.80835-0.19568l-3.30945,2.01947c-0.27722,0.16913-0.36481,0.53107-0.19562,0.80829
				l0.32501,0.53265l-4.3717,2.70386l-0.34113-0.55902c-0.16919-0.27728-0.53107-0.36487-0.80829-0.19568l-3.30945,2.01941
				c-0.27722,0.16919-0.36481,0.53113-0.19568,0.80835l0.35699,0.58496L608.5611,44.122l-0.37317-0.61157
				c-0.16919-0.27722-0.53113-0.36481-0.80835-0.19568l-3.30939,2.01947c-0.27728,0.16919-0.36487,0.53107-0.19568,0.80829
				l0.38818,0.63623l0.22418-0.13684l-2.11365,1.30731c-0.1911,0.11816-0.33527,0.29901-0.40796,0.5116l-1.15125,3.36713
				c-0.09338,0.27307-0.06042,0.57355,0.0899,0.81989l4.46344,7.31464l-3.78369,2.32166l-4.1955-8.52704
				c-0.13684-0.27808-0.38324-0.48663-0.68018-0.57562l-3.68707-1.1048c-0.27173-0.08148-0.56427-0.05621-0.81799,0.07056
				l-2.02069,1.00934l-0.23895-0.48566c-0.16455-0.33453-0.56921-0.47229-0.90369-0.30774l-3.99323,1.96478
				c-0.33453,0.16455-0.47229,0.56921-0.30768,0.90369l0.25433,0.51697l-5.18927,2.5921l-0.26971-0.54828
				c-0.16461-0.33447-0.56921-0.47229-0.90375-0.30768l-3.99323,1.96472c-0.33453,0.16461-0.47229,0.56921-0.30768,0.90375
				l0.28516,0.57959l-5.27869,2.63678l-0.30084-0.61145c-0.16461-0.33447-0.56921-0.47223-0.90375-0.30768l-3.99316,1.96478
				c-0.33453,0.16455-0.47229,0.56921-0.30774,0.90369l0.31622,0.6427l-5.27869,2.63678l-0.33191-0.6745
				c-0.16455-0.33453-0.56921-0.47229-0.90369-0.30774l-3.99323,1.96478c-0.33453,0.16455-0.47229,0.56921-0.30768,0.90369
				l0.34729,0.70587l-5.32349,2.65912l-0.36304-0.73798c-0.16461-0.33447-0.56921-0.47223-0.90375-0.30768l-3.99323,1.96478
				c-0.33453,0.16455-0.47229,0.56921-0.30768,0.90369l0.37769,0.76764l0.27045-0.13306l-2.55212,1.27478
				c-0.23077,0.1153-0.41443,0.30701-0.51959,0.54254l-1.66595,3.72961c-0.13513,0.30255-0.12872,0.64941,0.01758,0.94672
				l4.34253,8.82593l-1.83215,0.90143l-4.7854-11.7912c-0.15625-0.38507-0.46576-0.68756-0.85419-0.83502l-4.8241-1.83148
				c-0.35547-0.13501-0.74908-0.12933-1.10059,0.01575l-2.79889,1.15558l-0.27283-0.67236
				c-0.18799-0.46313-0.71576-0.68622-1.17889-0.49823l-5.52826,2.24359c-0.46313,0.18799-0.68616,0.71576-0.49823,1.17889
				l0.29047,0.7157l-7.18781,2.96759l-0.30804-0.75903c-0.18793-0.46313-0.71576-0.68622-1.17883-0.49823l-5.52826,2.24359
				c-0.46313,0.18799-0.68622,0.71576-0.49823,1.17889l0.32562,0.80237l-7.31171,3.01874l-0.34351-0.84644
				c-0.18799-0.46313-0.71576-0.68616-1.17889-0.49823l-5.52826,2.24359c-0.46313,0.18799-0.68616,0.71576-0.49823,1.17889
				l0.36108,0.88977l-7.31171,3.01874l-0.37897-0.93384c-0.18799-0.46313-0.71576-0.68616-1.17889-0.49823l-5.52826,2.24359
				c-0.46307,0.18799-0.68616,0.71576-0.49823,1.17889l0.39661,0.97717l-7.37366,3.04431l-0.41467-1.02161
				c-0.18793-0.46313-0.71576-0.68616-1.17883-0.49823l-5.52826,2.24359c-0.46313,0.18799-0.68622,0.71582-0.49823,1.17889
				l0.43127,1.06274l0.37445-0.15198l-3.53503,1.45947c-0.31964,0.13202-0.58362,0.37073-0.74689,0.67554l-2.58594,4.82709
				c-0.20972,0.39148-0.23438,0.85602-0.06738,1.26752l4.95892,12.21875l-3.40973,1.3838l-3.32288-18.15772
				c-0.08911-0.48682-0.37689-0.91449-0.79425-1.18048l-5.18292-3.30292c-0.3819-0.24347-0.84235-0.33203-1.28729-0.24786
				l-3.5437,0.67053l-0.15558-0.8501c-0.10718-0.58557-0.66876-0.97339-1.25433-0.86627l-6.98999,1.27924
				c-0.58557,0.10712-0.97339,0.6687-0.86621,1.25427l0.16559,0.90497l-9.10052,1.72205l-0.1756-0.95972
				c-0.10718-0.58557-0.66876-0.97339-1.25433-0.86627l-6.98999,1.27924c-0.58557,0.10718-0.97339,0.66876-0.86621,1.25427
				l0.18561,1.01453l-9.25739,1.75177l-0.19586-1.07025c-0.10718-0.58557-0.66876-0.97339-1.25433-0.86627l-6.98999,1.27924
				c-0.58557,0.10718-0.97339,0.66876-0.86621,1.25433l0.20587,1.125l-9.25745,1.75171l-0.21606-1.18073
				c-0.10718-0.58557-0.66876-0.97339-1.25433-0.86621l-6.98993,1.27917c-0.58557,0.10718-0.97345,0.66876-0.86627,1.25433
				l0.22614,1.23553l-9.33588,1.7666l-0.23639-1.29175c-0.10718-0.58557-0.66876-0.97345-1.25433-0.86627l-6.98999,1.27917
				c-0.58557,0.10718-0.97339,0.66876-0.86621,1.25433l0.24585,1.34369l0.47351-0.08661l-4.47577,0.84692
				c-0.40466,0.0766-0.77032,0.29114-1.03448,0.60718l-4.18353,5.00385c-0.33923,0.40589-0.48047,0.9416-0.38525,1.46192
				l2.82739,15.44958l-4.08325,0.76984v-19.31153c0-0.58112-0.24194-1.13593-0.66779-1.53131l-5.28809-4.9104
				c-0.38965-0.36188-0.90271-0.56152-1.43445-0.55835l-4.23468,0.02545v-1.01477c0-0.69897-0.56665-1.26563-1.26563-1.26563
				h-8.34375c-0.69897,0-1.26563,0.56665-1.26563,1.26563v1.0802l-10.875,0.06537v-1.14557
				c0-0.69897-0.56665-1.26563-1.26563-1.26563h-8.34375c-0.69897,0-1.26563,0.56665-1.26563,1.26563v1.211l-11.0625,0.06653
				v-1.27753c0-0.69897-0.56665-1.26563-1.26563-1.26563h-8.34375c-0.69897,0-1.26563,0.56665-1.26563,1.26563v1.3429
				l-11.0625,0.06653v-1.40942c0-0.69897-0.56665-1.26563-1.26563-1.26563h-8.34375c-0.69897,0-1.26563,0.56665-1.26563,1.26563
				v1.47485l-11.15627,0.06708v-1.54193c0-0.69897-0.56665-1.26563-1.26563-1.26563h-8.34375
				c-0.69897,0-1.26563,0.56665-1.26563,1.26563v1.60394h0.56519l-5.34851,0.03217c-0.48358,0.00293-0.95123,0.17346-1.32312,0.4826
				l-5.88959,4.8952c-0.47766,0.39703-0.75397,0.98596-0.75397,1.60706v18.44172h-6.8125v-6.67206h-2.375c0,0,0-6.9375,0-9.84375
				c0-2.90626-7.75-9.40626-25.75-9.40626s-17.25,6.14197-17.25,6.14197v3.26429v8.17151l-5.72046-1.03918l0.72046-1.60107
				l-4.875-1.6875l3.1875-8.43751l-5.0625-1.6875l9.5-30.875l7,2.1875l1.78741-5.71472l-18.37061-5.63934v0.00006l-28.97931-8.896
				l-5.25,18.5625c0,0-1.60242-0.4538-4.32056-1.22668l1.88599-5.44855c0.63977-1.84821,0.23242-3.92047-1.1076-5.34503
				c-3.25946-3.46509-6.78278-3.99921-9.33154-3.75891c-2.07703,0.1958-3.84259,1.59393-4.52271,3.56622l-2.27679,6.60272
				c-1.97662-0.56665-4.03455-1.15759-6.14374-1.76447l1.7771-6.61761c0.48987-1.82428-0.01477-3.80518-1.39606-5.09363
				c-2.54816-2.37708-6.13837-2.61584-8.77374-2.37573c-2.05988,0.18768-3.79095,1.62543-4.42261,3.59509l-1.99097,6.20837
				l0.00031,0.00012c-2.29944-0.66949-4.56848-1.33264-6.77258-1.9798l3.21967-11.19885l3.55261,1.21173v-11.25l-16.75177-5.625
				l-4.6875,9.5625l4.1156,1.40375l-3.51459,11.70361c-4.54156-1.3847-7.88458-2.45288-9.22601-2.98236
				c-5.0625,0-5.4375,5.0625-5.4375,5.0625l-4.3125-1.875c-12.9375,4.875-11.625,17.0625-11.625,17.0625h-3l-10.3125,11.625
				l16.30469,4.96039c-0.31299,0.82983-0.49219,1.72528-0.49219,2.66461c0,4.17664,3.38586,7.5625,7.5625,7.5625
				c3.58228,0,6.57574-2.49353,7.35724-5.83771l4.70526,1.43146l0.75-5.34375l6.00842,1.79816
				c-0.81299,1.52802-1.27429,3.27112-1.27429,5.12347c0,6.04938,4.90399,10.95337,10.95337,10.95337
				c3.92761,0,7.36963-2.0683,9.30176-5.17438l9.64697,3.508c0.28186,5.79829,5.05817,10.41639,10.92627,10.41639
				c3.8606,0,7.25116-1.99896,9.20056-5.01703l10.93402,3.77032c0.26495,5.81403,5.04846,10.45001,10.92792,10.45001
				c5.60559,0,10.21991-4.21326,10.86792-9.64435l19.85919,5.94324l0.7085-1.57446l7.18939,1.30609v10.14117l3.24481,0.08942
				c-0.17017,0.38281-0.28491,0.79718-0.31,1.24023c-0.11133,1.96417,1.39075,3.64673,3.35492,3.758
				c1.96417,0.11133,3.64667-1.39075,3.758-3.35492l2.82568,0.16016c-0.11133,1.96417,1.39075,3.64667,3.35492,3.758
				s3.64667-1.39075,3.758-3.35492c0.03577-0.63116-0.10938-1.22534-0.36859-1.75555l4.28625,0.1181
				c-0.23993,0.4671-0.39124,0.98749-0.40234,1.54791c-0.03888,1.96692,1.52411,3.59302,3.49103,3.63196
				c1.96692,0.03888,3.59302-1.52411,3.63196-3.49103l2.82965,0.05597c-0.03894,1.96692,1.52405,3.59302,3.49103,3.6319
				c1.96692,0.03894,3.59296-1.52411,3.6319-3.49103c0.01007-0.50867-0.09082-0.99237-0.27429-1.4339l5.07208,0.13971v-4.0625
				h6.8125v5.18781l6.25177-0.04932c-0.85046,0.85345-1.37677,2.03021-1.37677,3.33026c0,2.60608,2.11267,4.71875,4.71875,4.71875
				c2.37085,0,4.31458-1.75427,4.64954-4.03204l3.54224-0.02435c0.32465,2.28955,2.27277,4.0564,4.65198,4.0564
				c2.40118,0,4.36151-1.80011,4.65845-4.12054l69.32253-0.47736c0.06567,2.54889,2.14185,4.5979,4.70654,4.5979
				c2.58691,0,4.68237-2.08313,4.71313-4.66278l3.41516-0.0235c0.01794,2.59076,2.12048,4.68628,4.71545,4.68628
				c2.60608,0,4.71875-2.11267,4.71875-4.71875c0-1.841-1.06482-3.41852-2.60254-4.19623l6.82129-0.05377v-2.2428l4.86548-0.74854
				l0.39874,2.17889l5.22986-0.99976c-0.5816,0.84534-0.8421,1.91187-0.64282,3.00098
				c0.39954,2.18329,2.49335,3.62927,4.67657,3.22974c1.98621-0.36353,3.34558-2.13116,3.27698-4.0907l2.96381-0.56348
				c0.62299,1.86829,2.52588,3.0498,4.5191,2.68506c2.0116-0.3681,3.37787-2.1767,3.27087-4.1662l58.00183-11.02789
				c0.4458,2.12531,2.49921,3.52356,4.64783,3.13037c2.16718-0.39661,3.60327-2.46301,3.23352-4.62885l2.85748-0.54327
				c0.41223,2.16766,2.49487,3.60083,4.66882,3.203c2.18323-0.39954,3.62927-2.49335,3.22974-4.67657
				c-0.28229-1.5423-1.4162-2.70062-2.82367-3.11639l5.7063-1.09082l-0.30298-1.65558l3.75543-1.52411l1.39496,3.43719
				l4.12897-1.71375c-0.33398,0.79419-0.36627,1.71533-0.01672,2.57672c0.70074,1.72668,2.66864,2.55835,4.39532,1.8576
				c1.57086-0.63751,2.38696-2.32251,1.9964-3.92169l2.34039-0.96869c0.83075,1.42969,2.59662,2.07648,4.17297,1.43677
				c1.59094-0.64569,2.40576-2.36554,1.97852-3.9828l45.80212-18.95691c0.72888,1.67114,2.65546,2.47046,4.35474,1.78082
				c1.71399-0.69562,2.54224-2.63928,1.86896-4.35675l2.25641-0.9339c0.70856,1.71173,2.6651,2.53479,4.3844,1.83704
				c1.72668-0.70081,2.55841-2.66864,1.8576-4.39532c-0.495-1.21979-1.62469-1.9787-2.85266-2.08044l4.50507-1.86987
				l-1.64832-4.0614l1.91864-0.94403l1.22156,2.48285l2.98041-1.49573c-0.20605,0.6087-0.18085,1.29578,0.12531,1.91797
				c0.61365,1.24725,2.12225,1.76086,3.36945,1.14722c1.1347-0.55829,1.65186-1.85553,1.27576-3.02454l1.68958-0.84576
				c0.69452,1.01929,2.04291,1.40619,3.18152,0.84589c1.14923-0.56537,1.66351-1.88849,1.25922-3.06897l33.06445-16.55212
				c0.63165,1.20441,2.10773,1.69617,3.33521,1.09222c1.23804-0.60913,1.75037-2.09955,1.15765-3.34137l1.62891-0.81543
				c0.61865,1.23572,2.11835,1.74347,3.36029,1.13245c1.24725-0.61365,1.76086-2.12225,1.14716-3.36951
				c-0.43347-0.88104-1.31458-1.38531-2.23364-1.39539l3.25195-1.63202l-1.36328-2.77075l3.87427-2.37732l1.25562,2.05768
				l2.46777-1.53265c-0.1308,0.54431-0.05475,1.13849,0.25995,1.65411c0.63074,1.03363,1.98004,1.36029,3.01367,0.72955
				c0.94037-0.57385,1.28674-1.74011,0.86829-2.72461l1.39911-0.867c0.68292,0.82959,1.88324,1.05884,2.8269,0.48303
				c0.95239-0.58118,1.29425-1.76965,0.8504-2.76184l27.38025-16.96759c0.64294,0.99512,1.96234,1.3053,2.97961,0.68457
				c1.02606-0.6261,1.35303-1.95953,0.74084-2.99011l1.34888-0.83594c0.63422,1.02325,1.97534,1.34552,3.00458,0.71747
				c1.03363-0.63074,1.36029-1.98004,0.72955-3.01373C654.65601,34.86291,653.85187,34.49493,653.05371,34.55865z
				 M93.63713,122.81762l-8.85852-3.27203c0.38702-0.95996,0.64532-1.98566,0.74597-3.05792l9.2157,2.75793
				C94.18053,120.34295,93.80028,121.54607,93.63713,122.81762z M124.71391,131.95105l-10.04688-3.69244
				c0.35669-0.89399,0.60284-1.84418,0.71295-2.83613l10.3833,3.10737C125.23692,129.58533,124.87865,130.73743,124.71391,131.95105
				z M131.49852,121.37426l-84.375-25.02795l0.84375-1.40955l84.375,25.21875L131.49852,121.37426z M134.68602,101.68676
				l4.125-14.90625l15.3291,3.91382l-3.88715,15.21777L134.68602,101.68676z M151.65562,106.29278l3.84924-15.25l9.74365,2.48773
				l-4.3125,15.28125L151.65562,106.29278z M332.21729,128.78052h9v3.75l-9,0.06293V128.78052z M332.21729,133.29657l9-0.06293
				v4.54688h-9V133.29657z M324.24854,128.78052h5.4375v3.83063l-5.4375,0.03802V128.78052z M324.24854,133.35229l5.4375-0.03802
				v4.46625h-5.4375V133.35229z M309.62354,128.78052h9.5625v3.90405l-9.5625,0.06689V128.78052z M309.62354,133.45459
				l9.5625-0.06689v4.39282h-9.5625V133.45459z M296.96729,128.78052h9.28125v3.99451l-9.28125,0.06494V128.78052z
				 M296.96729,133.54309l9.28125-0.06494v4.30237h-9.28125V133.54309z M285.15479,128.78052h9.28125v4.07715l-9.28125,0.06488
				V128.78052z M285.15479,133.62567l9.28125-0.06488v4.21973h-9.28125V133.62567z M272.96729,128.78052h9.28125v4.16235
				l-9.28125,0.06494V128.78052z M272.96729,133.71094l9.28125-0.06494v4.13452h-9.28125V133.71094z M261.15479,128.78052h9.28125
				v4.245l-9.28125,0.06488V128.78052z M261.15479,133.79352l9.28125-0.06488v4.05188h-9.28125V133.79352z M246.62352,128.78052
				h5.625v4.37213l-5.625,0.03937V128.78052z M246.62352,133.89514l5.625-0.03937v5.33099h-5.625V133.89514z M233.96727,128.78052
				h11.4375v4.42004l-11.4375,0.07996V128.78052z M233.96727,133.98364l11.4375-0.07996v5.28308h-11.4375V133.98364z
				 M345.06104,149.03052l-114.75002,0.9375v-1.3125l114.75002-0.9375V149.03052z M448.43555,120.84618l-7.53973,1.37982
				l-0.68744-3.75647l7.53009-1.4325L448.43555,120.84618z M447.05579,113.30645l0.57489,3.14154l-7.53009,1.4325l-0.58459-3.19427
				L447.05579,113.30645z M438.77527,122.61407l-4.5553,0.83362l-0.67889-3.70972l4.54944-0.86554L438.77527,122.61407z
				 M437.39545,115.07427l0.58728,3.20917l-4.54944,0.86548l-0.59314-3.24097L437.39545,115.07427z M429.97888,124.22381
				l-8.01099,1.46606l-0.66321-3.62402l8.00073-1.52209L429.97888,124.22381z M428.59906,116.68407l0.59851,3.27063
				l-8.00073,1.52209l-0.60876-3.32666L428.59906,116.68407z M419.14044,126.20733l-7.77533,1.42291l-0.64966-3.54993
				l7.76538-1.47729L419.14044,126.20733z M417.76068,118.66753l0.61237,3.34644l-7.76538,1.47729l-0.62238-3.40076
				L417.76068,118.66753z M409.24451,128.01831l-7.77533,1.42291l-0.63702-3.48072l7.76544-1.47729L409.24451,128.01831z
				 M407.86475,120.47857l0.62506,3.41559l-7.76544,1.47729l-0.63501-3.46997L407.86475,120.47857z M399.03442,129.88678
				l-7.77533,1.42297l-0.62396-3.40931l7.76544-1.47736L399.03442,129.88678z M397.65466,122.34704l0.63812,3.487l-7.76544,1.47736
				l-0.64807-3.54144L397.65466,122.34704z M389.13849,131.69781l-7.77533,1.42291l-0.61127-3.34009l7.76544-1.47729
				L389.13849,131.69781z M387.75873,124.15801l0.65076,3.55627l-7.76538,1.4773l-0.66077-3.6106L387.75873,124.15801z
				 M374.11749,135.66425l-4.71234,0.86237l-0.81128-4.43304l4.70636-0.89539L374.11749,135.66425z M372.52209,126.9464
				l0.67029,3.66279l-4.7063,0.89532l-0.67633-3.69575L372.52209,126.9464z M368.38416,136.7135l-9.58179,1.75348l-0.79767-4.35889
				l9.56952-1.8205L368.38416,136.7135z M366.78876,127.99566l0.67767,3.70289l-9.56952,1.8205l-0.68994-3.7699L366.78876,127.99566
				z M357.39227,148.05957l-0.20123-1.09955l95.98816-18.37799l0.20123,1.09955L357.39227,148.05957z M534.23163,90.82446
				l-5.96307,2.4201l-1.20569-2.97095l5.94611-2.46173L534.23163,90.82446z M531.81158,84.86138l1.00836,2.48462l-5.94617,2.46179
				l-1.02527-2.52631L531.81158,84.86138z M526.59149,93.92516l-3.60272,1.46216l-1.19073-2.93396l3.59247-1.48737
				L526.59149,93.92516z M524.17139,87.96215l1.03003,2.53802l-3.59247,1.4873l-1.04022-2.56323L524.17139,87.96215z
				 M519.63458,96.74859l-6.33575,2.57135l-1.16327-2.86621l6.31781-2.61566L519.63458,96.74859z M517.21448,90.78551
				l1.0498,2.58673l-6.31775,2.6156l-1.06781-2.63098L517.21448,90.78551z M511.06268,100.22747l-6.14941,2.49567l-1.13947-2.80756
				l6.13196-2.5387L511.06268,100.22747z M508.64258,94.2644l1.0741,2.64661l-6.1319,2.53876l-1.09161-2.68964L508.64258,94.2644z
				 M503.23615,103.4038l-6.14941,2.49573l-1.11719-2.75287l6.13196-2.5387L503.23615,103.4038z M500.8161,97.44073l1.09631,2.70135
				l-6.13196,2.5387l-1.11377-2.74432L500.8161,97.44073z M495.16119,106.68096l-6.14941,2.49573l-1.0943-2.69635l6.13196-2.53876
				L495.16119,106.68096z M492.74109,100.71795l1.11926,2.75781l-6.13196,2.5387l-1.13672-2.80084L492.74109,100.71795z
				 M487.33466,109.85735l-6.14941,2.49567l-1.07208-2.6416l6.13196-2.5387L487.33466,109.85735z M484.91461,103.89428
				l1.14142,2.81256l-6.13196,2.5387l-1.15887-2.85559L484.91461,103.89428z M475.66241,115.67962l-3.72687,1.51257
				l-1.42291-3.50604l3.71631-1.53864L475.66241,115.67962z M472.86426,108.78484l1.17566,2.89679l-3.71637,1.53864
				l-1.18622-2.92285L472.86426,108.78484z M460.75177,113.70061l7.57806-3.0755l1.18854,2.92853l-7.55658,3.12848
				L460.75177,113.70061z M462.15088,117.148l7.55658-3.12848l1.42059,3.50037l-7.57806,3.0755L462.15088,117.148z
				 M464.02655,128.7218l-0.35297-0.86964l75.77692-31.47705l0.35297,0.86957L464.02655,128.7218z M596.27313,61.23174
				l-4.30725,2.11926l-1.05585-2.14594l4.29242-2.14941L596.27313,61.23174z M594.15387,56.92443l0.88306,1.79474l-4.29248,2.14935
				l-0.89783-1.82483L594.15387,56.92443z M590.75446,63.94707l-2.60236,1.2804l-1.04272-2.11932l2.59338-1.29858
				L590.75446,63.94707z M588.63519,59.63976l0.90198,1.83331l-2.59332,1.29858l-0.91101-1.8515L588.63519,59.63976z
				 M585.72925,66.41955l-4.57648,2.25171l-1.01862-2.07031l4.56073-2.28375L585.72925,66.41955z M583.60999,62.11224
				l0.91931,1.86847l-4.56073,2.28369l-0.93506-1.90045L583.60999,62.11224z M579.53754,69.466l-4.44189,2.18549l-0.9978-2.02795
				l4.42664-2.21661L579.53754,69.466z M577.41827,65.15868l0.94061,1.91174l-4.42657,2.21655l-0.95593-1.94281L577.41827,65.15868z
				 M573.88422,72.24755l-4.44183,2.18549l-0.97839-1.98846l4.42664-2.21655L573.88422,72.24755z M571.76495,67.94024
				l0.96008,1.95129l-4.42664,2.21655l-0.97534-1.98236L571.76495,67.94024z M568.05145,75.11736l-4.44189,2.18549l-0.95825-1.94763
				l4.42657-2.21655L568.05145,75.11736z M565.93219,70.81011l0.9801,1.992l-4.42657,2.21661l-0.99542-2.02313L565.93219,70.81011z
				 M562.39813,77.89892l-4.44189,2.18549l-0.93884-1.90814l4.42664-2.21655L562.39813,77.89892z M560.27887,73.59161
				l0.99957,2.03162l-4.42657,2.21655l-1.01489-2.06268L560.27887,73.59161z M554.02496,82.85461l-2.69202,1.32452l-1.24609-2.53247
				l2.6828-1.34338L554.02496,82.85461z M551.57458,77.87432l1.02954,2.09247l-2.6828,1.34338l-1.03882-2.11133L551.57458,77.87432z
				 M542.82538,82.17907l5.47388-2.69324l1.04077,2.11536l-5.45502,2.73151L542.82538,82.17907z M544.0506,84.66924l5.45502-2.73151
				l1.24402,2.52838l-5.47382,2.69324L544.0506,84.66924z M546.0647,93.18011l-0.30908-0.62817l54.69714-27.46936l0.30902,0.62817
				L546.0647,93.18011z M649.12213,29.22283l-3.5697,2.17828l-1.08527-1.7785l3.5545-2.20325L649.12213,29.22283z
				 M644.54846,32.01373l-2.15674,1.3161l-1.07178-1.75641l2.14752-1.33112L644.54846,32.01373z M646.94385,25.65313
				l0.90765,1.48737l-3.5545,2.20325l-0.92285-1.51233L646.94385,25.65313z M642.37018,28.44403l0.92712,1.51935l-2.14752,1.33118
				l-0.93634-1.53448L642.37018,28.44403z M640.38379,34.55511l-3.79285,2.31439l-1.047-1.71582l3.77661-2.34094L640.38379,34.55511
				z M638.20551,30.98535l0.94489,1.54852l-3.77661,2.34094l-0.96112-1.57501L638.20551,30.98535z M634.211,35.97991
				l1.04132,1.70642l-3.68127,2.2464l-1.02563-1.68073L634.211,35.97991z M630.56702,40.54534l-3.68127,2.24634l-1.00555-1.64795
				l3.66553-2.27209L630.56702,40.54534z M633.07404,34.11663l0.9668,1.58435l-3.66559,2.27216l-0.98248-1.61017L633.07404,34.11663
				z M628.38873,36.97564l0.98682,1.61713l-3.66559,2.27209l-1.0025-1.64288L628.38873,36.97564z M625.73303,43.49511
				l-3.68127,2.24634l-0.98492-1.61414l3.66553-2.27209L625.73303,43.49511z M623.55475,39.92541l1.00745,1.65094l-3.66559,2.27209
				l-1.02313-1.6767L623.55475,39.92541z M621.04779,46.35412l-3.68127,2.24634l-0.96497-1.58136l3.66553-2.27209
				L621.04779,46.35412z M618.86951,42.78436l1.0274,1.68372l-3.66553,2.27209l-1.04315-1.70941L618.86951,42.78436z
				 M614.17432,51.31384l-2.23108,1.36139l-1.2807-2.09882l2.22156-1.37708L614.17432,51.31384z M611.6557,47.18633l1.05817,1.73413
				l-2.2215,1.37701l-1.06775-1.74976L611.6557,47.18633z M604.40472,51.61095l4.5365-2.76825l1.06976,1.75317l-4.51715,2.79993
				L604.40472,51.61095z M606.92334,55.73846l-1.25934-2.06378l4.51721-2.79993l1.27863,2.09546L606.92334,55.73846z
				 M608.08252,60.89959l-0.31763-0.52057l45.28699-28.1449l0.31769,0.52057L608.08252,60.89959z M146.90245,25.78839
				c0.0863,4.66302-0.40393,8.11712-0.40393,8.11712s-2.52582-2.10382-5.68518-5.13367
				c-2.70953,1.10913-5.59888,1.98328-8.47107,2.32117c0.63782-2.83484,1.66302-5.59772,2.83923-8.14569
				c-1.9538-2.21167-3.7536-4.51685-4.99548-6.66681c3.07739-0.07416,5.89429,0.04694,8.45135,0.28156
				c2.56799-4.14893,4.86115-6.84406,4.86115-6.84406c1.27832,2.45435,2.10138,5.2113,2.61902,7.96179
				c5.68079,1.20093,8.81848,2.72571,8.81848,2.72571S151.65825,23.09088,146.90245,25.78839z M325.11905,26.00946
				c-1.99606,4.2151-3.97098,7.091-3.97098,7.091s-1.32697-3.00749-2.80966-7.12612
				c-2.92014-0.2113-5.89682-0.71302-8.61972-1.68745c1.83179-2.2556,3.97855-4.2745,6.16501-6.03376
				c-0.76666-2.84975-1.35379-5.71478-1.51019-8.19271c2.78943,1.3019,5.2587,2.66285,7.44476,4.00997
				c4.14496-2.57442,7.39731-3.96886,7.39731-3.96886c0.05371,2.76677-0.43491,5.60217-1.19421,8.29598
				c4.55435,3.60157,6.68686,6.36246,6.68686,6.36246S330.57828,25.70787,325.11905,26.00946z M535.96826,15.78375
				c-3.48077-3.10412-5.68268-5.81016-5.68268-5.81016s3.25964-0.4246,7.62927-0.68514
				c1.02655-2.74189,2.34766-5.45613,4.05072-7.79352c1.64716,2.39371,2.97845,5.02284,4.04938,7.61681
				c2.95032,0.06845,5.86456,0.31344,8.28601,0.86244c-2.03601,2.30884-4.03827,4.29386-5.94739,6.0111
				c1.30048,4.70286,1.7207,8.2165,1.7207,8.2165c-2.66956-0.72902-5.25189-1.99771-7.62207-3.48614
				c-4.74011,3.35331-7.99048,4.62029-7.99048,4.62029S534.71747,21.10632,535.96826,15.78375z M559.51166,36.37433
				c-0.86163-4.58354-0.95343-8.07105-0.95343-8.07105s2.84088,1.65383,6.46069,4.11524
				c2.487-1.54486,5.19043-2.88795,7.96625-3.69942c-0.15686,2.90147-0.70764,5.7965-1.44312,8.50476
				c2.2948,1.85543,4.45337,3.8287,6.03595,5.74183c-3.02209,0.58559-5.81982,0.93528-8.38025,1.12976
				c-1.84125,4.51863-3.65356,7.558-3.65356,7.558c-1.66919-2.2072-2.93982-4.7886-3.90826-7.41448
				c-5.80145-0.23815-9.14929-1.21913-9.14929-1.21913S555.27148,39.82615,559.51166,36.37433z M488.33966,45.92658
				c-0.8616-4.58354-0.95343-8.07105-0.95343-8.07105s2.84088,1.65382,6.46069,4.11524
				c2.487-1.54486,5.19043-2.88795,7.96625-3.69942c-0.15683,2.90147-0.70761,5.7965-1.44312,8.50476
				c2.29483,1.85543,4.45337,3.8287,6.03595,5.74183c-3.02206,0.58559-5.81979,0.93528-8.38022,1.12976
				c-1.84125,4.51863-3.65356,7.558-3.65356,7.558c-1.66919-2.2072-2.93985-4.7886-3.90829-7.41448
				c-5.80145-0.23815-9.14926-1.21913-9.14926-1.21913S484.09949,49.3784,488.33966,45.92658z M89.51366,45.86021
				c-2.41921,3.98731-4.6796,6.64471-4.6796,6.64471s-1.01044-3.12807-2.06142-7.37742
				c-2.88287-0.51068-5.79213-1.31606-8.40029-2.56552c2.05417-2.05512,4.39729-3.84238,6.75319-5.36731
				c-0.46931-2.91351-0.75851-5.82375-0.6591-8.30462c2.64065,1.58204,4.95676,3.18988,6.99261,4.7548
				c4.38786-2.1342,7.76645-3.18655,7.76645-3.18655c-0.23129,2.75761-1.0091,5.52768-2.0416,8.12904
				c4.15956,4.05112,5.99662,7.01681,5.99662,7.01681S94.97495,46.12202,89.51366,45.86021z M187.03229,70.08167
				c-0.81616,4.59186-1.96446,7.88618-1.96446,7.88618s-2.07179-2.55215-4.5863-6.13527
				c-2.87277,0.56478-5.87656,0.86427-8.75992,0.64091c1.17346-2.65821,2.71312-5.17098,4.35941-7.44373
				c-1.48972-2.54746-2.81027-5.15691-3.61342-7.50629c3.03375,0.52176,5.77419,1.18476,8.23776,1.90896
				c3.32114-3.57466,6.09177-5.776,6.09177-5.776c0.78008,2.65507,1.05502,5.51909,1.03154,8.31777
				c5.34177,2.27578,8.12578,4.37799,8.12578,4.37799S192.21964,68.35375,187.03229,70.08167z M40.89414,33.87276
				c-1.50674,1.61306-2.81116,2.62538-2.81116,2.62538s-0.16532-1.54698-0.24089-3.61735
				c-1.28614-0.51564-2.55598-1.17037-3.64334-2.00168c1.15058-0.75326,2.40911-1.35445,3.64816-1.83286
				c0.0646-1.3952,0.21233-2.77145,0.49852-3.91116c1.07022,0.98853,1.98759,1.95761,2.77927,2.87967
				c2.23939-0.564,3.90648-0.72448,3.90648-0.72448c-0.37408,1.25515-1.00256,2.46318-1.7327,3.56839
				c1.5349,2.27944,2.0989,3.83121,2.0989,3.83121S43.3989,34.52269,40.89414,33.87276z M29.47647,25.41544
				c-1.80333,1.93059-3.36452,3.14217-3.36452,3.14217s-0.19786-1.8515-0.28831-4.32941
				c-1.53931-0.61714-3.05912-1.40075-4.36052-2.39571c1.37707-0.90153,2.88333-1.62106,4.36628-2.19366
				c0.07731-1.66984,0.25412-3.31699,0.59666-4.68105c1.28088,1.18312,2.37884,2.34296,3.32636,3.44652
				c2.68021-0.67501,4.67546-0.8671,4.67546-0.8671c-0.44772,1.50223-1.19992,2.94804-2.07378,4.27081
				c1.83704,2.72814,2.51205,4.58536,2.51205,4.58536S32.47428,26.1933,29.47647,25.41544z M18.14237,48.01369
				c-1.29427,2.30305-2.52375,3.85019-2.52375,3.85019s-0.63113-1.75182-1.30641-4.13766
				c-1.64174-0.23465-3.30398-0.63564-4.80414-1.29373c1.1241-1.20228,2.41686-2.25837,3.7218-3.16618
				c-0.32074-1.64057-0.53944-3.28268-0.53002-4.68906c1.52484,0.84576,2.86645,1.71225,4.04857,2.55975
				c2.44379-1.29113,4.33664-1.95073,4.33664-1.95073c-0.07885,1.56554-0.46686,3.14846-1.00224,4.64068
				c2.43139,2.21489,3.52744,3.85916,3.52744,3.85916S21.23913,48.05874,18.14237,48.01369z M25.27729,84.72998
				c-1.30798,2.1012-2.52361,3.49763-2.52361,3.49763s-0.51719-1.66607-1.0491-3.92738
				c-1.52671-0.28851-3.06563-0.73355-4.44208-1.41242c1.10253-1.07809,2.35678-2.01228,3.61621-2.80717
				c-0.23135-1.54892-0.36714-3.09502-0.29932-4.4109c1.39166,0.85555,2.61096,1.72282,3.68179,2.56563
				c2.3414-1.10588,4.14066-1.6438,4.14066-1.6438c-0.13948,1.46194-0.56905,2.92716-1.13275,4.30132
				c2.18269,2.17501,3.13953,3.75993,3.13953,3.75993S28.17376,84.90208,25.27729,84.72998z M50.81923,64.24261
				c-1.30798,2.1012-2.52361,3.49763-2.52361,3.49763s-0.51719-1.66607-1.0491-3.92739
				c-1.52671-0.2885-3.06564-0.73355-4.44208-1.41242c1.10254-1.07809,2.35678-2.01228,3.61621-2.80717
				c-0.23135-1.54892-0.36714-3.09501-0.29932-4.4109c1.39167,0.85555,2.61096,1.72283,3.68179,2.56563
				c2.3414-1.10588,4.14066-1.6438,4.14066-1.6438c-0.13948,1.46193-0.56905,2.92716-1.13275,4.30132
				c2.18269,2.17501,3.13953,3.75993,3.13953,3.75993S53.7157,64.4147,50.81923,64.24261z M59.73372,12.92456
				c-0.63531,1.31186-1.26037,2.20524-1.26037,2.20524s-0.40649-0.94352-0.85862-2.23473
				c-0.91202-0.07401-1.84093-0.23893-2.68923-0.5509c0.57862-0.69992,1.25504-1.32501,1.94316-1.86884
				c-0.23181-0.8927-0.40748-1.78968-0.4496-2.56451c0.8682,0.41449,1.63618,0.84655,2.3157,1.27352
				c1.30241-0.79324,2.32264-1.22015,2.32264-1.22015c0.00924,0.86482-0.15121,1.74961-0.39587,2.5894
				c1.4135,1.138,2.07241,2.00666,2.07241,2.00666S61.44066,12.84521,59.73372,12.92456z M71.0698,30.74678
				c-0.63531,1.31186-1.26037,2.20524-1.26037,2.20524s-0.40649-0.94352-0.85862-2.23473
				c-0.91203-0.07401-1.84093-0.23893-2.68923-0.5509c0.57862-0.69992,1.25504-1.32501,1.94316-1.86884
				c-0.23181-0.8927-0.40748-1.78968-0.4496-2.56451c0.8682,0.41449,1.63618,0.84655,2.3157,1.27353
				c1.30241-0.79324,2.32264-1.22015,2.32264-1.22015c0.00923,0.86482-0.15121,1.74961-0.39587,2.58941
				c1.4135,1.138,2.07241,2.00666,2.07241,2.00666S72.77675,30.66743,71.0698,30.74678z M59.75877,47.65148
				c-0.63531,1.31186-1.26037,2.20524-1.26037,2.20524s-0.40649-0.94352-0.85862-2.23473
				c-0.91202-0.07401-1.84093-0.23893-2.68923-0.5509c0.57862-0.69992,1.25505-1.325,1.94316-1.86884
				c-0.23182-0.8927-0.40749-1.78968-0.4496-2.56451c0.8682,0.41448,1.63618,0.84655,2.3157,1.27353
				c1.30241-0.79324,2.32264-1.22015,2.32264-1.22015c0.00924,0.86482-0.15121,1.74961-0.39587,2.5894
				c1.4135,1.138,2.07241,2.00666,2.07241,2.00666S61.46572,47.57213,59.75877,47.65148z M36.38377,69.52648
				c-0.63531,1.31185-1.26037,2.20524-1.26037,2.20524s-0.40649-0.94353-0.85862-2.23473
				c-0.91202-0.07401-1.84093-0.23893-2.68923-0.5509c0.57862-0.69992,1.25505-1.325,1.94316-1.86884
				c-0.23182-0.89269-0.40749-1.78968-0.4496-2.56451c0.8682,0.41449,1.63618,0.84656,2.3157,1.27353
				c1.30241-0.79324,2.32264-1.22015,2.32264-1.22015c0.00924,0.86482-0.15121,1.7496-0.39587,2.5894
				c1.4135,1.138,2.07241,2.00666,2.07241,2.00666S38.09072,69.44713,36.38377,69.52648z M110.18602,36.03051
				c-0.63531,1.31186-1.26037,2.20524-1.26037,2.20524s-0.40649-0.94352-0.85862-2.23473
				c-0.91203-0.07401-1.84093-0.23893-2.68923-0.5509c0.57863-0.69992,1.25504-1.32501,1.94316-1.86884
				c-0.23181-0.8927-0.40748-1.78968-0.4496-2.56451c0.8682,0.41448,1.63618,0.84655,2.3157,1.27353
				c1.30241-0.79324,2.32264-1.22015,2.32264-1.22015c0.00924,0.86482-0.15121,1.74961-0.39587,2.58941
				c1.41351,1.138,2.07241,2.00666,2.07241,2.00666S111.89297,35.95116,110.18602,36.03051z M130.68602,68.28051
				c-0.63531,1.31186-1.26036,2.20525-1.26036,2.20525s-0.40649-0.94353-0.85863-2.23473
				c-0.91203-0.07401-1.84093-0.23893-2.68923-0.5509c0.57863-0.69992,1.25504-1.325,1.94316-1.86884
				c-0.23181-0.8927-0.40748-1.78968-0.4496-2.56451c0.8682,0.41449,1.63619,0.84656,2.3157,1.27352
				c1.30241-0.79324,2.32265-1.22015,2.32265-1.22015c0.00923,0.86482-0.15121,1.74961-0.39586,2.58941
				c1.4135,1.138,2.0724,2.00666,2.0724,2.00666S132.39297,68.20116,130.68602,68.28051z M206.68602,65.53051
				c-0.63531,1.31186-1.26036,2.20525-1.26036,2.20525s-0.40649-0.94353-0.85863-2.23473
				c-0.91202-0.07401-1.84093-0.23893-2.68922-0.5509c0.57861-0.69992,1.25504-1.32501,1.94316-1.86884
				c-0.23181-0.8927-0.40749-1.78968-0.4496-2.56451c0.86819,0.41449,1.63618,0.84655,2.31569,1.27353
				c1.30241-0.79324,2.32265-1.22015,2.32265-1.22015c0.00923,0.86482-0.15121,1.74961-0.39586,2.58941
				c1.4135,1.138,2.0724,2.00666,2.0724,2.00666S208.39297,65.45116,206.68602,65.53051z M302.56104,98.53051
				c-0.63531,1.31186-1.26038,2.20525-1.26038,2.20525s-0.40649-0.94353-0.85864-2.23473
				c-0.91202-0.07401-1.84091-0.23893-2.68921-0.5509c0.57861-0.69992,1.25504-1.325,1.94315-1.86884
				c-0.23181-0.8927-0.40747-1.78968-0.44958-2.56451c0.86819,0.41448,1.63617,0.84656,2.3157,1.27352
				c1.3024-0.79324,2.32263-1.22015,2.32263-1.22015c0.00925,0.86481-0.15121,1.7496-0.39587,2.5894
				c1.41351,1.138,2.07242,2.00666,2.07242,2.00666S304.26797,98.45116,302.56104,98.53051z M359.93604,78.28051
				c-0.63531,1.31186-1.26038,2.20525-1.26038,2.20525s-0.40649-0.94353-0.85864-2.23473
				c-0.91202-0.07401-1.84091-0.23893-2.68921-0.5509c0.57861-0.69992,1.25504-1.325,1.94315-1.86884
				c-0.23181-0.8927-0.40747-1.78968-0.44958-2.56451c0.86819,0.41448,1.63617,0.84656,2.3157,1.27352
				c1.3024-0.79324,2.32263-1.22015,2.32263-1.22015c0.00925,0.86481-0.15121,1.7496-0.39587,2.5894
				c1.41351,1.138,2.07242,2.00666,2.07242,2.00666S361.64297,78.20116,359.93604,78.28051z M390.18604,78.40551
				c-0.63531,1.31186-1.26038,2.20525-1.26038,2.20525s-0.40649-0.94353-0.85864-2.23473
				c-0.91202-0.07401-1.84091-0.23893-2.68921-0.5509c0.57861-0.69992,1.25504-1.325,1.94315-1.86884
				c-0.23181-0.8927-0.40747-1.78968-0.44958-2.56451c0.86819,0.41448,1.63617,0.84656,2.3157,1.27352
				c1.3024-0.79324,2.32263-1.22015,2.32263-1.22015c0.00925,0.86481-0.15121,1.7496-0.39587,2.5894
				c1.41351,1.138,2.07242,2.00666,2.07242,2.00666S391.89297,78.32616,390.18604,78.40551z M384.06104,52.65551
				c-0.63531,1.31186-1.26038,2.20524-1.26038,2.20524s-0.40649-0.94352-0.85864-2.23473
				c-0.91202-0.07401-1.84091-0.23893-2.68921-0.5509c0.57861-0.69992,1.25504-1.32501,1.94315-1.86884
				c-0.23181-0.8927-0.40747-1.78968-0.44958-2.56451c0.86819,0.41449,1.63617,0.84655,2.3157,1.27353
				c1.3024-0.79324,2.32263-1.22015,2.32263-1.22015c0.00925,0.86482-0.15121,1.74961-0.39587,2.58941
				c1.41351,1.138,2.07242,2.00666,2.07242,2.00666S385.76797,52.57616,384.06104,52.65551z M390.93604,29.90551
				c-0.63531,1.31186-1.26038,2.20524-1.26038,2.20524s-0.40649-0.94352-0.85864-2.23473
				c-0.91202-0.07401-1.84091-0.23893-2.68921-0.5509c0.57861-0.69992,1.25504-1.32501,1.94315-1.86884
				c-0.23181-0.8927-0.40747-1.78968-0.44958-2.56451c0.86819,0.41448,1.63617,0.84655,2.3157,1.27353
				c1.3024-0.79324,2.32263-1.22015,2.32263-1.22015c0.00925,0.86482-0.15121,1.74961-0.39587,2.5894
				c1.41351,1.138,2.07242,2.00666,2.07242,2.00666S392.64297,29.82616,390.93604,29.90551z M388.06104,104.90551
				c-0.63531,1.31186-1.26038,2.20525-1.26038,2.20525s-0.40649-0.94353-0.85864-2.23473
				c-0.91202-0.07401-1.84091-0.23893-2.68921-0.5509c0.57861-0.69992,1.25504-1.325,1.94315-1.86884
				c-0.23181-0.8927-0.40747-1.78968-0.44958-2.56451c0.86819,0.41448,1.63617,0.84656,2.3157,1.27352
				c1.3024-0.79324,2.32263-1.22015,2.32263-1.22015c0.00925,0.86481-0.15121,1.7496-0.39587,2.5894
				c1.41351,1.138,2.07242,2.00666,2.07242,2.00666S389.76797,104.82616,388.06104,104.90551z M439.06104,79.40551
				c-0.63531,1.31186-1.26038,2.20525-1.26038,2.20525s-0.40649-0.94353-0.85864-2.23473
				c-0.91202-0.07401-1.84091-0.23893-2.68921-0.5509c0.57861-0.69992,1.25504-1.325,1.94315-1.86884
				c-0.23181-0.8927-0.40747-1.78968-0.44958-2.56451c0.86819,0.41448,1.63617,0.84656,2.3157,1.27352
				c1.3024-0.79324,2.32263-1.22015,2.32263-1.22015c0.00925,0.86481-0.15121,1.7496-0.39587,2.5894
				c1.41351,1.138,2.07242,2.00666,2.07242,2.00666S440.76797,79.32616,439.06104,79.40551z M526.68604,68.40551
				c-0.63531,1.31186-1.26038,2.20525-1.26038,2.20525s-0.40649-0.94353-0.85864-2.23473
				c-0.91199-0.07401-1.84094-0.23893-2.68921-0.5509c0.57861-0.69992,1.25507-1.325,1.94318-1.86884
				c-0.23181-0.8927-0.40753-1.78968-0.44965-2.56451c0.86823,0.41449,1.63623,0.84656,2.31573,1.27352
				c1.30243-0.79324,2.32263-1.22015,2.32263-1.22015c0.00922,0.86482-0.15118,1.74961-0.39587,2.58941
				c1.41351,1.138,2.07245,2.00666,2.07245,2.00666S528.39294,68.32616,526.68604,68.40551z M549.56104,59.40551
				c-0.63531,1.31186-1.26038,2.20524-1.26038,2.20524s-0.40649-0.94352-0.85864-2.23473
				c-0.91199-0.07401-1.84094-0.23893-2.68921-0.5509c0.57861-0.69992,1.25507-1.32501,1.94318-1.86884
				c-0.23181-0.8927-0.40753-1.78968-0.44965-2.56451c0.86823,0.41449,1.63623,0.84655,2.31573,1.27353
				c1.30243-0.79324,2.32263-1.22015,2.32263-1.22015c0.00922,0.86482-0.15118,1.74961-0.39587,2.58941
				c1.41351,1.138,2.07245,2.00666,2.07245,2.00666S551.26794,59.32616,549.56104,59.40551z M529.93604,34.03051
				c-0.63531,1.31186-1.26038,2.20524-1.26038,2.20524s-0.40649-0.94352-0.85864-2.23473
				c-0.91199-0.07401-1.84094-0.23893-2.68921-0.5509c0.57861-0.69992,1.25507-1.32501,1.94318-1.86884
				c-0.23181-0.8927-0.40753-1.78968-0.44965-2.56451c0.86823,0.41448,1.63623,0.84655,2.31573,1.27353
				c1.30243-0.79324,2.32263-1.22015,2.32263-1.22015c0.00922,0.86482-0.15118,1.74961-0.39587,2.5894
				c1.41351,1.138,2.07245,2.00666,2.07245,2.00666S531.64294,33.95116,529.93604,34.03051z M498.68604,25.65551
				c-0.63531,1.31186-1.26038,2.20524-1.26038,2.20524s-0.40649-0.94353-0.85864-2.23473
				c-0.91202-0.07401-1.84091-0.23893-2.68921-0.5509c0.57861-0.69992,1.25504-1.32501,1.94315-1.86884
				c-0.23181-0.8927-0.40747-1.78968-0.44958-2.56451c0.86819,0.41448,1.63617,0.84655,2.3157,1.27353
				c1.3024-0.79324,2.32263-1.22015,2.32263-1.22015c0.00925,0.86482-0.15121,1.74961-0.39587,2.5894
				c1.41351,1.138,2.07242,2.00666,2.07242,2.00666S500.39297,25.57616,498.68604,25.65551z M593.56104,43.78051
				c-0.63531,1.31186-1.26038,2.20524-1.26038,2.20524s-0.40649-0.94352-0.85864-2.23473
				c-0.91199-0.07401-1.84094-0.23893-2.68921-0.5509c0.57861-0.69992,1.25507-1.32501,1.94318-1.86884
				c-0.23181-0.8927-0.40753-1.78968-0.44965-2.56451c0.86823,0.41449,1.63623,0.84655,2.31573,1.27353
				c1.30243-0.79324,2.32263-1.22015,2.32263-1.22015c0.00922,0.86482-0.15118,1.74961-0.39587,2.58941
				c1.41351,1.138,2.07245,2.00666,2.07245,2.00666S595.26794,43.70116,593.56104,43.78051z M495.13434,82.69225
				c-0.47638,1.37755-0.99188,2.33833-0.99188,2.33833s-0.51477-0.88908-1.11581-2.11806
				c-0.9144,0.03392-1.85626-0.02046-2.73541-0.23035c0.49216-0.76319,1.09027-1.46359,1.70953-2.08469
				c-0.33533-0.85918-0.61542-1.72924-0.7485-2.49371c0.91098,0.30935,1.72452,0.64796,2.44958,0.99193
				c1.19992-0.94111,2.16278-1.48521,2.16278-1.48521c0.11102,0.85772,0.05591,1.75524-0.08817,2.61801
				c1.53769,0.9636,2.29434,1.74862,2.29434,1.74862S496.82007,82.41241,495.13434,82.69225z M513.50934,70.94225
				c-0.47638,1.37755-0.99188,2.33833-0.99188,2.33833s-0.51477-0.88908-1.11581-2.11806
				c-0.9144,0.03392-1.85626-0.02046-2.73541-0.23035c0.49216-0.76319,1.09027-1.46359,1.70953-2.08469
				c-0.33533-0.85918-0.61542-1.72924-0.7485-2.49371c0.91098,0.30935,1.72452,0.64796,2.44958,0.99193
				c1.19995-0.94111,2.16278-1.48521,2.16278-1.48521c0.11102,0.85772,0.05591,1.75524-0.08813,2.61801
				c1.53766,0.9636,2.29431,1.74862,2.29431,1.74862S515.19507,70.66241,513.50934,70.94225z M438.18604,37.65551
				c-0.03619,1.45715-0.23602,2.52902-0.23602,2.52902s-0.76019-0.69109-1.70563-1.6799
				c-0.86105,0.30963-1.77505,0.54345-2.67645,0.61007c0.23755-0.87651,0.59506-1.72531,0.99683-2.50497
				c-0.58011-0.71702-1.11087-1.46115-1.46954-2.14927c0.96188,0.01851,1.83981,0.09446,2.63504,0.20233
				c0.858-1.26069,1.6105-2.07117,1.6105-2.07117c0.36591,0.78365,0.58557,1.65562,0.70996,2.52144
				c1.75751,0.45189,2.71658,0.97046,2.71658,0.97046S439.70749,36.87763,438.18604,37.65551z M324.93604,43.53051
				c-0.63531,1.31186-1.26038,2.20524-1.26038,2.20524s-0.40649-0.94352-0.85864-2.23473
				c-0.91202-0.07401-1.84091-0.23893-2.68921-0.5509c0.57861-0.69992,1.25504-1.32501,1.94315-1.86884
				c-0.23181-0.8927-0.40747-1.78968-0.44958-2.56451c0.86819,0.41449,1.63617,0.84655,2.3157,1.27353
				c1.3024-0.79324,2.32263-1.22015,2.32263-1.22015c0.00925,0.86482-0.15121,1.74961-0.39587,2.58941
				c1.41351,1.138,2.07242,2.00666,2.07242,2.00666S326.64297,43.45116,324.93604,43.53051z M343.3093,32.21403
				c-0.32162,1.42167-0.72809,2.43342-0.72809,2.43342s-0.60965-0.82692-1.3425-1.98215
				c-0.90509,0.13451-1.8472,0.18428-2.74411,0.07258c0.40503-0.8128,0.92227-1.57486,1.46933-2.26043
				c-0.42801-0.81698-0.80231-1.65086-1.01883-2.39601c0.93951,0.20705,1.7854,0.45392,2.54398,0.71587
				c1.08887-1.06764,1.9859-1.71456,1.9859-1.71456c0.2049,0.84025,0.24902,1.73838,0.20096,2.61177
				c1.63455,0.78823,2.47308,1.48506,2.47308,1.48506S344.95392,31.75009,343.3093,32.21403z M209.51497,34.93932
				c-0.47165,1.37918-0.98383,2.34174-0.98383,2.34174s-0.51784-0.88731-1.12312-2.1142
				c-0.91426,0.03707-1.85631-0.01407-2.73618-0.22092c0.48955-0.76488,1.08522-1.46734,1.70236-2.09056
				c-0.3383-0.85802-0.62138-1.72711-0.7571-2.49112c0.91203,0.30621,1.72673,0.64202,2.45297,0.98349
				c1.19669-0.94524,2.15765-1.49264,2.15765-1.49264c0.11398,0.85733,0.06195,1.75504-0.07913,2.61829
				c1.541,0.95831,2.30032,1.74071,2.30032,1.74071S211.19972,34.65369,209.51497,34.93932z M257.7478,35.26132
				c-0.93527,1.11799-1.7588,1.83257-1.7588,1.83257s-0.16486-1.01405-0.28943-2.37645
				c-0.86665-0.29356-1.72757-0.67942-2.47455-1.1883c0.73146-0.53821,1.53958-0.98005,2.33928-1.34023
				c-0.00778-0.92227,0.03995-1.83505,0.1875-2.59687c0.74136,0.61316,1.38123,1.21902,1.93652,1.79841
				c1.45621-0.45273,2.54962-0.61873,2.54962-0.61873c-0.20132,0.84111-0.57211,1.66032-1.01364,2.41542
				c1.09433,1.44756,1.52225,2.45037,1.52225,2.45037S259.42279,35.59943,257.7478,35.26132z M262.6228,77.38632
				c-0.93527,1.11799-1.75879,1.83257-1.75879,1.83257s-0.16486-1.01405-0.28946-2.37644
				c-0.86664-0.29356-1.72757-0.67942-2.47455-1.1883c0.73148-0.53821,1.53958-0.98005,2.33929-1.34023
				c-0.00778-0.92227,0.03995-1.83504,0.1875-2.59686c0.74136,0.61316,1.38123,1.21901,1.93652,1.7984
				c1.45621-0.45272,2.54962-0.61873,2.54962-0.61873c-0.20132,0.8411-0.57211,1.66032-1.01364,2.41541
				c1.09433,1.44756,1.52225,2.45038,1.52225,2.45038S264.29779,77.72443,262.6228,77.38632z M302.65338,64.41743
				c-0.65997,1.29963-1.30179,2.18105-1.30179,2.18105s-0.38858-0.95103-0.81625-2.25055
				c-0.91046-0.09121-1.83609-0.27365-2.67834-0.60157c0.59174-0.68887,1.27982-1.30107,1.97809-1.83182
				c-0.2149-0.89692-0.37363-1.79706-0.40109-2.57255c0.86023,0.43081,1.6199,0.8773,2.29123,1.31702
				c1.31717-0.76851,2.34528-1.17608,2.34528-1.17608c-0.00711,0.86484-0.1842,1.74644-0.4447,2.58147
				c1.39178,1.16448,2.03418,2.04543,2.03418,2.04543S304.36154,64.37033,302.65338,64.41743z M194.16473,20.03837
				c-0.65143,1.30392-1.28746,2.18954-1.28746,2.18954s-0.39484-0.94847-0.83101-2.24515
				c-0.91103-0.08525-1.83784-0.26161-2.68222-0.58401c0.5872-0.69273,1.27129-1.30943,1.96605-1.84474
				c-0.22078-0.89549-0.38538-1.79457-0.41794-2.56986c0.86302,0.42516,1.62561,0.86666,2.29982,1.30198
				c1.31209-0.77712,2.33751-1.19142,2.33751-1.19142c-0.00143,0.86487-0.17278,1.74761-0.42776,2.58433
				c1.39937,1.15534,2.04752,2.03206,2.04752,2.03206S195.87253,19.98007,194.16473,20.03837z M110.97157,59.40648
				c-2.26695,0.99335-4.05921,1.45767-4.05921,1.45767s0.51556-1.66657,1.35559-3.83241
				c-1.09603-1.10126-2.11362-2.33855-2.86497-3.67681c1.51896-0.26571,3.08168-0.32694,4.56991-0.27037
				c0.68507-1.40832,1.44736-2.76026,2.2474-3.8072c0.664,1.49258,1.17921,2.89737,1.5858,4.198
				c2.55645,0.41193,4.34459,0.98571,4.34459,0.98571c-0.94173,1.12688-2.12458,2.09243-3.36655,2.90702
				c0.57028,3.02813,0.46321,4.87638,0.46321,4.87638S113.26316,61.18631,110.97157,59.40648z M126.12516,43.35073
				c-2.45135-0.34158-4.22121-0.88507-4.22121-0.88507s1.31228-1.14943,3.16251-2.55412
				c-0.35661-1.51225-0.57512-3.09926-0.51397-4.6328c1.43301,0.56948,2.79618,1.33606,4.03417,2.16395
				c1.32135-0.84064,2.67896-1.59282,3.90891-2.06543c-0.2164,1.61922-0.51355,3.08569-0.84865,4.40656
				c1.9617,1.69023,3.18417,3.11579,3.18417,3.11579c-1.39253,0.46645-2.90591,0.66917-4.39056,0.71234
				c-1.10074,2.87806-2.16025,4.39624-2.16025,4.39624S127.14459,46.06733,126.12516,43.35073z M100.27005,15.17455
				c-2.45541-0.31107-4.2319-0.83251-4.2319-0.83251s1.29788-1.16566,3.13049-2.59325
				c-0.37537-1.5077-0.61361-3.09187-0.57154-4.62605c1.43999,0.55162,2.81258,1.30118,4.06078,2.11361
				c1.3108-0.85701,2.65894-1.62601,3.88292-2.11388c-0.19626,1.62178-0.47514,3.09184-0.79379,4.41677
				c1.98257,1.6657,3.22267,3.07595,3.22267,3.07595c-1.38662,0.48374-2.89736,0.70526-4.38136,0.76688
				c-1.06486,2.89152-2.10542,4.42277-2.10542,4.42277S101.32319,17.87826,100.27005,15.17455z M149.52533,61.38935
				c-2.26106-1.0067-3.81136-2.01881-3.81136-2.01881s1.57915-0.74133,3.74586-1.57906
				c0.07588-1.55188,0.30513-3.13737,0.78833-4.59408c1.21942,0.94386,2.31717,2.05776,3.27766,3.19595
				c1.50241-0.4421,3.01515-0.78915,4.32787-0.90287c-0.65611,1.49607-1.34752,2.82302-2.03511,3.99954
				c1.41727,2.16714,2.19743,3.87536,2.19743,3.87536c-1.46722,0.06282-2.9776-0.16124-4.4162-0.53066
				c-1.85429,2.46098-3.29262,3.62661-3.29262,3.62661S149.75307,64.28198,149.52533,61.38935z M173.98183,36.68549
				c-1.72804-1.77193-2.79378-3.28587-2.79378-3.28587s1.74138-0.10435,4.0643-0.08084
				c0.64474-1.41364,1.44443-2.80175,2.43237-3.97625c0.78358,1.32809,1.39122,2.76915,1.86235,4.18196
				c1.55936,0.14524,3.09314,0.38261,4.35475,0.76271c-1.16313,1.14708-2.29649,2.12399-3.37064,2.96255
				c0.51472,2.53775,0.60739,4.41341,0.60739,4.41341c-1.38632-0.48457-2.70657-1.25163-3.90636-2.12718
				c-2.63332,1.60012-4.40088,2.15078-4.40088,2.15078S173.123,39.45705,173.98183,36.68549z M168.35854,20.12728
				c-2.22789-1.07811-3.74521-2.13902-3.74521-2.13902s1.60193-0.69072,3.7942-1.45911
				c0.1252-1.54868,0.40477-3.12608,0.93407-4.56668c1.18878,0.98216,2.25053,2.13043,3.17435,3.2986
				c1.5157-0.39408,3.03871-0.69284,4.35439-0.76475c-0.70337,1.47444-1.43665,2.77873-2.1613,3.93278
				c1.34761,2.21112,2.07304,3.9433,2.07304,3.9433c-1.46848,0.01612-2.97096-0.25587-4.39708-0.67087
				c-1.93164,2.40075-3.40631,3.52005-3.40631,3.52005S168.49416,23.02568,168.35854,20.12728z M217.12038,13.49773
				c-2.22791-1.07811-3.74522-2.13902-3.74522-2.13902s1.60193-0.69072,3.7942-1.45911
				c0.1252-1.54868,0.40477-3.12608,0.93407-4.56668c1.18878,0.98216,2.25053,2.13043,3.17435,3.2986
				c1.5157-0.39408,3.03873-0.69284,4.35439-0.76475c-0.70335,1.47444-1.43663,2.77873-2.1613,3.93278
				c1.34763,2.21112,2.07306,3.9433,2.07306,3.9433c-1.46849,0.01612-2.97096-0.25587-4.39709-0.67087
				c-1.93164,2.40075-3.40631,3.52005-3.40631,3.52005S217.25598,16.39613,217.12038,13.49773z M249.86523,17.88282
				c-2.22789-1.07811-3.74521-2.13902-3.74521-2.13902s1.60193-0.69072,3.7942-1.45911
				c0.1252-1.54868,0.40477-3.12608,0.93405-4.56668c1.18878,0.98216,2.25055,2.13043,3.17435,3.2986
				c1.51572-0.39408,3.03874-0.69284,4.35439-0.76475c-0.70334,1.47444-1.43661,2.77873-2.16129,3.93278
				c1.34763,2.21112,2.07306,3.94329,2.07306,3.94329c-1.46851,0.01612-2.97098-0.25587-4.39711-0.67087
				c-1.93163,2.40075-3.4063,3.52005-3.4063,3.52005S250.00084,20.78123,249.86523,17.88282z M236.78404,56.36699
				c-2.08603-1.33203-3.46841-2.56361-3.46841-2.56361s1.67189-0.49803,3.93918-1.00393
				c0.30602-1.52329,0.76871-3.057,1.46335-4.42556c1.06535,1.11485,1.98508,2.37974,2.76546,3.64821
				c1.55147-0.21355,3.09901-0.33157,4.41403-0.24864c-0.87148,1.38174-1.7527,2.591-2.60774,3.65208
				c1.07892,2.35395,1.59613,4.15926,1.59613,4.15926c-1.46024-0.15627-2.92043-0.60263-4.28802-1.18208
				c-2.19994,2.15757-3.79573,3.09614-3.79573,3.09614S236.57869,59.26129,236.78404,56.36699z M285.02625,35.01541
				c-2.27524-0.97421-3.83987-1.964-3.83987-1.964s1.56836-0.76387,3.72287-1.63256c0.05362-1.5528,0.26013-3.14142,0.72241-4.6049
				c1.23282,0.92629,2.34644,2.02436,3.32312,3.14867c1.49591-0.46357,3.00354-0.83226,4.31448-0.96478
				c-0.63461,1.50531-1.30695,2.84203-1.9776,4.02828c1.44815,2.14662,2.25272,3.84349,2.25272,3.84349
				c-1.46619,0.08383-2.97961-0.11856-4.42334-0.46735c-1.81885,2.48729-3.24033,3.67341-3.24033,3.67341
				S285.29541,37.90448,285.02625,35.01541z M241.49733,85.1749c-2.28458-0.95213-3.85872-1.92673-3.85872-1.92673
				s1.56088-0.77901,3.70688-1.66853c0.0386-1.55325,0.22974-3.14378,0.67783-4.61167
				c1.24173,0.91431,2.36589,2.00155,3.35344,3.11636c1.49136-0.47803,2.99533-0.8613,4.30495-1.0065
				c-0.62001,1.51138-1.27937,2.85455-1.93852,4.04724c1.46887,2.13249,2.28983,3.8215,2.28983,3.8215
				c-1.4653,0.09802-2.98062-0.08971-4.42767-0.42451c-1.79468,2.50478-3.20461,3.70461-3.20461,3.70461
				S241.79443,88.06123,241.49733,85.1749z M315.66974,90.31483c-2.28458-0.95213-3.8587-1.92673-3.8587-1.92673
				s1.56088-0.77902,3.70688-1.66853c0.0386-1.55325,0.22974-3.14378,0.67783-4.61167
				c1.24173,0.91431,2.36591,2.00155,3.35342,3.11636c1.49136-0.47803,2.99533-0.8613,4.30496-1.0065
				c-0.62003,1.51138-1.27939,2.85455-1.93854,4.04724c1.4689,2.13249,2.28983,3.8215,2.28983,3.8215
				c-1.4653,0.09802-2.98059-0.08971-4.42767-0.42451c-1.79468,2.50478-3.20459,3.70461-3.20459,3.70461
				S315.96686,93.20116,315.66974,90.31483z M328.10724,65.16536c-2.28458-0.95213-3.8587-1.92673-3.8587-1.92673
				s1.56088-0.77902,3.70688-1.66853c0.0386-1.55325,0.22974-3.14379,0.67783-4.61168
				c1.24173,0.91431,2.36591,2.00155,3.35342,3.11636c1.49136-0.47803,2.99533-0.86129,4.30496-1.0065
				c-0.62003,1.51139-1.27939,2.85455-1.93854,4.04724c1.4689,2.1325,2.28983,3.82149,2.28983,3.82149
				c-1.4653,0.09803-2.98059-0.08971-4.42767-0.4245c-1.79468,2.50478-3.20459,3.70461-3.20459,3.70461
				S328.40436,68.05169,328.10724,65.16536z M376.21439,16.76c-2.28458-0.95213-3.8587-1.92674-3.8587-1.92674
				s1.56088-0.77902,3.70688-1.66852c0.0386-1.55325,0.22974-3.14379,0.67783-4.61168
				c1.24173,0.91431,2.36591,2.00155,3.35342,3.11635c1.49136-0.47803,2.99533-0.86129,4.30496-1.0065
				c-0.62003,1.51139-1.27939,2.85455-1.93854,4.04724c1.4689,2.13249,2.28983,3.82149,2.28983,3.82149
				c-1.4653,0.09803-2.98059-0.08971-4.42767-0.4245c-1.79468,2.50478-3.20459,3.70461-3.20459,3.70461
				S376.51151,19.64633,376.21439,16.76z M416.98657,13.65006c-1.78549-1.71402-2.90051-3.19202-2.90051-3.19202
				s1.73697-0.16168,4.05942-0.21472c0.59781-1.43412,1.35132-2.84783,2.30002-4.05424
				c0.82693,1.30155,1.48172,2.7218,1.99915,4.11832c1.56329,0.09378,3.10406,0.28047,4.37753,0.6188
				c-1.12473,1.18479-2.22528,2.19851-3.27121,3.07202c0.59808,2.51941,0.7525,4.391,0.7525,4.391
				c-1.40155-0.43863-2.74634-1.16176-3.9743-1.9973c-2.57919,1.68602-4.32764,2.29462-4.32764,2.29462
				S416.21954,16.44842,416.98657,13.65006z M477.87125,19.97164c-2.2543-1.02177-3.79779-2.0442-3.79779-2.0442
				s1.58405-0.73077,3.75632-1.55402c0.08624-1.55133,0.32608-3.13526,0.81897-4.58871
				c1.2131,0.95197,2.30341,2.07318,3.25626,3.21776c1.50534-0.43206,3.02036-0.769,4.3338-0.87396
				c-0.66608,1.49166-1.36633,2.81396-2.06177,3.98587c1.40277,2.17655,2.17151,3.88994,2.17151,3.88994
				c-1.46759,0.05303-2.97644-0.18111-4.41254-0.56013c-1.8707,2.44855-3.31677,3.60456-3.31677,3.60456
				S478.07965,22.86572,477.87125,19.97164z M580.59192,28.00803c-2.25427-1.02177-3.79779-2.0442-3.79779-2.0442
				s1.58405-0.73077,3.75635-1.55402c0.08624-1.55134,0.32605-3.13526,0.81897-4.58871
				c1.21307,0.95197,2.30341,2.07318,3.25623,3.21776c1.50537-0.43206,3.02039-0.769,4.3338-0.87396
				c-0.66608,1.49166-1.36633,2.81396-2.06177,3.98586c1.40277,2.17655,2.17151,3.88994,2.17151,3.88994
				c-1.46759,0.05303-2.97644-0.18111-4.41254-0.56013c-1.87067,2.44855-3.31677,3.60456-3.31677,3.60456
				S580.80035,30.90211,580.59192,28.00803z M347.31516,50.85495c-2.28458-0.95213-3.8587-1.92673-3.8587-1.92673
				s1.56088-0.77902,3.70688-1.66853c0.0386-1.55325,0.22974-3.14379,0.67783-4.61168
				c1.24173,0.91431,2.36591,2.00155,3.35342,3.11636c1.49136-0.47803,2.99536-0.86129,4.30496-1.0065
				c-0.62003,1.51139-1.27939,2.85455-1.93851,4.04724c1.46887,2.13249,2.28979,3.8215,2.28979,3.8215
				c-1.46527,0.09802-2.98059-0.08971-4.42764-0.4245c-1.79471,2.50478-3.20462,3.70461-3.20462,3.70461
				S347.61227,53.74128,347.31516,50.85495z M347.70374,105.66941c-1.35736-2.06965-2.11395-3.75942-2.11395-3.75942
				s1.72919,0.23053,4.00476,0.69776c0.90314-1.26428,1.95349-2.47388,3.14777-3.43781
				c0.5152,1.45341,0.83609,2.98406,1.02838,4.4609c1.50284,0.44071,2.96292,0.96696,4.12857,1.58128
				c-1.36099,0.90353-2.66025,1.6457-3.87491,2.26342c0.02002,2.58935-0.24768,4.44811-0.24768,4.44811
				c-1.26807-0.7407-2.4173-1.74604-3.42755-2.83484c-2.89069,1.06709-4.73093,1.26962-4.73093,1.26962
				S346.33081,108.22562,347.70374,105.66941z M266.75217,97.53934c-2.15625-1.87708-3.52576-3.51954-3.52576-3.51954
				s1.99487-0.28417,4.67123-0.47593c0.60907-1.68813,1.39893-3.36147,2.4256-4.80663
				c1.02719,1.45509,1.86246,3.05681,2.53793,4.63888c1.80881,0.02031,3.59689,0.14908,5.08508,0.46782
				c-1.23099,1.4301-2.4437,2.66148-3.60126,3.72803c0.83163,2.873,1.11499,5.02354,1.11499,5.02354
				c-1.6416-0.42725-3.23373-1.18593-4.69742-2.08085c-2.88077,2.09014-4.86374,2.89056-4.86374,2.89056
				S266.02457,100.81089,266.75217,97.53934z M218.11154,102.31185c-0.48253,4.00276-1.31442,6.90166-1.31442,6.90166
				s-1.91156-2.10268-4.25505-5.07381c-2.45224,0.62632-5.0304,1.02999-7.52988,0.97656
				c0.88437-2.35107,2.09183-4.5943,3.40292-6.63551c-1.40892-2.12676-2.67484-4.3152-3.4816-6.30418
				c2.64371,0.30372,5.04108,0.74352,7.20242,1.24953c2.69379-3.24587,4.97876-5.2798,4.97876-5.2798
				c0.80164,2.25394,1.17735,4.71265,1.29236,7.12937c4.72057,1.70609,7.2251,3.386,7.2251,3.386
				S222.50531,100.56974,218.11154,102.31185z M412.36014,58.88089c-1.57898,2.81527-3.07962,4.70688-3.07962,4.70688
				s-0.77292-2.13976-1.60046-5.05415c-2.00616-0.285-4.03757-0.77323-5.87119-1.57574
				c1.37222-1.47014,2.95065-2.76184,4.54413-3.87238c-0.39359-2.00416-0.66251-4.01032-0.65244-5.72868
				c1.86395,1.03179,3.50406,2.08911,4.94928,3.12338c2.98456-1.58007,5.2966-2.38794,5.2966-2.38794
				c-0.0947,1.9129-0.56714,3.84736-1.21976,5.67115c2.97305,2.7037,4.31393,4.71158,4.31393,4.71158
				S416.14389,58.93272,412.36014,58.88089z M459.06354,32.65027c-0.50201,3.61262-1.30197,6.22106-1.30197,6.22106
				s-1.69458-1.93319-3.76559-4.65899c-2.22833,0.52634-4.56689,0.84924-6.82681,0.75997
				c0.83841-2.11208,1.96732-4.12132,3.18665-5.94613c-1.23953-1.94675-2.34872-3.94695-3.04587-5.7592
				c2.38626,0.31802,4.54749,0.75509,6.49417,1.24818c2.48972-2.89178,4.58981-4.69406,4.58981-4.69406
				c0.68814,2.05183,0.98773,4.2819,1.05215,6.46973c4.24185,1.62049,6.47971,3.18101,6.47971,3.18101
				S463.06625,31.14649,459.06354,32.65027z M628.49475,64.51824c-1.80396,1.47363-3.62036,2.92914-5.44568,4.37189
				l-1.50494-2.09222c2.93207-2.15991,5.80499-4.40363,8.59271-6.76318l-0.65161-0.75848
				c-2.76727,2.33014-5.62354,4.54883-8.54169,6.68665l-0.82098-1.14136l-1.62305,1.16797l0.81799,1.13721
				c-2.2052,1.57935-4.43628,3.12427-6.70294,4.61975l-1.00861-1.32239l-1.58984,1.21289l0.91431,1.19879
				c-2.09131,1.35571-4.1983,2.68848-6.32465,3.99097l-0.73615-1.01007l-1.61719,1.17773l0.6369,0.8739
				c-1.98499,1.20062-3.98004,2.38324-5.98181,3.55194l-0.6131-1.0274l-1.7168,1.02539l0.60413,1.01233
				c-2.09509,1.20801-4.21228,2.37708-6.3266,3.55109l-0.44061-0.72211l-1.70703,1.04199l0.40253,0.65967
				c-2.03534,1.11908-4.08508,2.21185-6.13562,3.30353l-0.42218-0.73322l-1.73242,0.99805l0.3902,0.67767
				c-2.34045,1.23523-4.69067,2.45184-7.04736,3.65668l-0.37506-0.60828l-1.70313,1.0498l0.29163,0.47296
				c-2.17523,1.10382-4.3559,2.19641-6.54187,3.27887l-0.63354-1.23376l-1.7793,0.91406l0.61926,1.20599
				c-1.19312,0.58722-2.38086,1.1853-3.57648,1.76727c-0.76611,0.3692-1.53674,0.72961-2.30371,1.09729l-0.68439-1.55542
				l-1.83008,0.80566l0.70837,1.60999c-2.46045,1.17419-4.92493,2.33929-7.39569,3.49219l-0.51288-0.9718l-1.76953,0.93359
				l0.46375,0.87866c-2.05188,0.95129-4.10327,1.90356-6.16376,2.83514l-0.24628-0.57465l-1.83789,0.78809l0.25598,0.59729
				c-2.14679,0.96265-4.29376,1.92474-6.45142,2.86102l-0.4491-1.20245l-1.87305,0.7002l0.48108,1.28796
				c-2.23145,0.95831-4.46985,1.89923-6.71448,2.82391l-0.27344-0.70074l-1.86328,0.72754l0.28931,0.74133
				c-2.09009,0.84821-4.19232,1.66614-6.29309,2.48755l-0.23352-0.76111l-1.91211,0.58691l0.27972,0.91174
				c-2.33795,0.9043-4.68616,1.78192-7.03607,2.6554l-0.2085-0.66138l-1.9082,0.60156l0.24005,0.76154
				c-2.25439,0.82935-4.51593,1.6391-6.77997,2.44214l-0.17786-0.55817l-1.90625,0.60742l0.19757,0.61994
				c-2.14612,0.75372-4.29565,1.4967-6.44934,2.2287l-0.19452-0.87061l-1.95117,0.43652l0.2406,1.0769
				c-1.50543,0.50684-3.00659,1.02655-4.51526,1.52356c-0.77472,0.2547-1.55383,0.49585-2.32941,0.74805l-0.19965-0.80701
				l-1.94141,0.48047l0.23242,0.93945c-2.11102,0.68018-4.22095,1.36316-6.33795,2.02466l-0.06244-0.37036l-1.97266,0.33203
				l0.10596,0.6286c-2.23071,0.69043-4.46167,1.38-6.69873,2.04962l-0.19238-0.92334l-1.95703,0.4082l0.22577,1.08362
				c-2.16742,0.64246-4.33875,1.27161-6.5119,1.89441l-0.125-0.72656l-1.9707,0.33887l0.16339,0.94989
				c-2.05432,0.58276-4.1153,1.1413-6.1745,1.70642l-0.01428-0.09674l-1.97852,0.29199l0.05023,0.34076
				c-0.68793,0.18683-1.37299,0.38403-2.06146,0.56885c-2.11169,0.56244-4.2298,1.10004-6.34619,1.64441l-0.03125-0.40265
				l-1.99414,0.15527l0.05878,0.75696c-2.48236,0.63141-4.9696,1.24268-7.45819,1.84857l-0.11621-0.71783l-1.97461,0.31934
				l0.14166,0.875c-2.17902,0.52429-4.36133,1.03387-6.54498,1.53802l-0.11523-1.05609l-1.98828,0.2168l0.14069,1.28979
				c-2.34705,0.53503-4.69617,1.05994-7.04834,1.57123l-0.10114-1.41571l-1.99414,0.14258l0.12115,1.69617
				c-1.70343,0.36511-3.40424,0.74261-5.11029,1.09503c-0.50342,0.10425-1.00781,0.20367-1.51147,0.30676l-0.0033-0.0838
				l-1.99805,0.0791l0.01611,0.40759c-2.6452,0.53278-5.29358,1.04926-7.94543,1.54773l-0.07751-0.72583l-1.98828,0.21191
				l0.09399,0.88007c-2.28534,0.42157-4.5722,0.83435-6.8623,1.22791l-0.12036-0.96295l-1.98438,0.24805l0.13062,1.04498
				c-2.42572,0.40771-4.85382,0.80029-7.28473,1.17383l-0.1076-1.18365l-1.99219,0.18164l0.11847,1.30286
				c-2.19403,0.32819-4.39044,0.63879-6.58856,0.93695l-0.03479-0.99078l-1.99805,0.07031l0.04175,1.1897
				c-0.25769,0.03381-0.51501,0.07111-0.77277,0.10449c-2.08368,0.27185-4.17194,0.50635-6.25879,0.75256l-0.01117-1.2157
				l-2,0.01758l0.01318,1.43829c-2.44818,0.27942-4.89905,0.53473-7.35095,0.78143l-0.03821-1.13672l-1.99805,0.06641
				l0.04272,1.27155c-2.38812,0.23187-4.77765,0.44763-7.1687,0.65094v-1.58069h-2v1.74762
				c-2.53381,0.20728-5.06842,0.40259-7.60468,0.58057l-0.02032-1.21979l-2,0.0332l0.02203,1.3219
				c-1.63428,0.10992-3.26752,0.23328-4.90253,0.33203c-0.77472,0.04199-1.55023,0.07111-2.32513,0.11084l-0.04437-2.797l-2,0.03125
				l0.04541,2.86102c-1.96405,0.09576-3.92767,0.19971-5.89252,0.28082l-0.02789-1.67407l-2,0.0332l0.0285,1.71155
				c-2.02026,0.07825-4.04083,0.1463-6.06171,0.20874l0.1543-1.72302l-1.99219-0.17773l-0.17645,1.97015
				c-2.7627,0.07819-5.52594,0.13116-8.28937,0.1792l0.08398-1.11029l-1.99414-0.15039l-0.09851,1.30273
				c-2.70563,0.03986-5.41144,0.05414-8.11731,0.06445l0.08594-1.35352l-1.99609-0.12695l-0.09491,1.49475
				c-2.6217,0.00287-5.24316-0.01941-7.86475-0.0448l0.07977-1.06128l-1.99414-0.15039l-0.09003,1.19763
				c-2.17841-0.02716-4.35645-0.07532-6.53442-0.12238l0.11664-1.14948l-1.99023-0.20117l-0.13263,1.30756
				c-2.37006-0.05792-4.73952-0.13031-7.10884-0.21228l0.10913-1.54938l-1.99512-0.14063l-0.11389,1.61755
				c-2.26959-0.08502-4.53876-0.17682-6.80743-0.2843l0.16205-1.39771l-1.98633-0.23047l-0.17688,1.52539
				c-1.9538-0.09833-3.90814-0.18567-5.86108-0.3009c-0.47662-0.02405-0.95276-0.05475-1.42926-0.08032l0.2016-1.52307
				l-1.98242-0.26172l-0.22131,1.67236c-2.35675-0.13678-4.71271-0.28558-7.06702-0.45563l0.2688-1.81439l-1.97852-0.29297
				l-0.28955,1.95428c-2.64496-0.20056-5.28882-0.41486-7.93097-0.64886l0.32013-1.86499l-1.9707-0.33789l-0.34674,2.02014
				c-2.25598-0.20612-4.51105-0.42169-6.76526-0.64606l0.21552-1.83893l-1.98633-0.23242l-0.2196,1.87408
				c-1.67633-0.17029-3.35229-0.34436-5.02777-0.52191c0.26593-1.21338,0.44482-2.03381,0.47101-2.16467l-1.96094-0.39258
				c-0.02576,0.1286-0.21832,1.01117-0.51019,2.34186c-1.0321-0.11084-2.06439-0.2207-3.09619-0.3335l-5.86938-0.77063
				l0.1828-0.82562l-1.95313-0.43164l-0.22046,0.99591l-2.41547-0.31714l-4.44611-0.58368l0.28516-1.28845l-1.95313-0.43164
				l-0.31671,1.43103c-1.27582-0.1969-2.54999-0.4046-3.8255-0.60309l-3.52026-0.56079l0.36707-1.71735l-1.95605-0.41797
				l-0.38904,1.82019l-4.73444-0.75427c-1.21173-0.20459-2.41882-0.43451-3.62659-0.66101l0.34235-2.29846l-1.97852-0.29492
				l-0.33221,2.23053c-1.52942-0.29321-3.05811-0.59052-4.58923-0.87396c-1.1001-0.20294-2.19727-0.41895-3.29517-0.63184
				l0.81085-4.00354l-1.95996-0.39746l-0.81458,4.02203c-2.1438-0.42749-4.28235-0.87885-6.41827-1.34174l0.54584-1.81946
				l-1.91602-0.57422l-0.58917,1.96393c-2.43823-0.54083-4.87219-1.09985-7.3009-1.68237l0.93353-3.21564l-1.9209-0.55762
				l-0.95764,3.2984c-2.31476-0.5658-4.62646-1.14459-6.93329-1.74414l0.69366-2.64703l-1.93457-0.50684l-0.69305,2.64441
				c-2.17218-0.57343-4.34088-1.16113-6.50653-1.76093l0.62-1.95233l-1.90625-0.60547l-0.64313,2.02515
				c-2.54816-0.71497-5.09088-1.45081-7.63092-2.19708l0.92346-2.70209l-1.89258-0.64648l-0.95166,2.78442
				c-2.13611-0.63416-4.26935-1.27875-6.40033-1.93146l0.73285-1.92377l-1.86914-0.71191l-0.77905,2.04504
				c-2.35577-0.7276-4.70959-1.46155-7.05981-2.2074l0.82959-2.11694l-1.8623-0.72949l-0.87616,2.23572
				c-2.40662-0.76868-4.81097-1.54401-7.21259-2.32703l0.82996-2.18945l-1.87012-0.70898l-0.86292,2.27631
				c-1.25958-0.41254-2.51917-0.82532-3.77753-1.24072c-1.13879-0.38232-2.27075-0.78418-3.40753-1.17242l0.80237-2.30505
				l-1.88867-0.65723l-0.80469,2.31165c-2.14191-0.7384-4.28223-1.48071-6.4165-2.24017l0.83643-1.97822l-1.8418-0.7793
				l-0.87836,2.0774c-2.32935-0.83662-4.65796-1.6753-6.97778-2.53712l0.9494-2.26392l-1.84473-0.77344l-0.97668,2.32898
				c-2.21765-0.8313-4.43646-1.65979-6.64496-2.51434l0.70074-1.50604l-1.81348-0.84375l-0.75104,1.61414
				c-2.20197-0.85956-4.40009-1.7287-6.59241-2.61151l1.14227-2.2536l-1.78418-0.9043l-1.22131,2.40955
				c-2.42694-1.0022-4.84955-2.01483-7.26636-3.04034l1.15271-2.35211l-1.7959-0.87988l-1.20093,2.45056
				c-2.27014-0.97321-4.52863-1.97125-6.77966-2.98529l0.77649-1.58539l-1.7959-0.87988l-0.8042,1.64185
				c-0.2525-0.1156-0.5072-0.22662-0.7594-0.3429c-1.81744-0.83612-3.63354-1.68634-5.44525-2.54651l0.89899-1.56445
				l-1.73438-0.99609l-0.97162,1.69086c-2.60498-1.25543-5.18628-2.54547-7.72687-3.88428l1.06812-1.95355l-1.75488-0.95996
				l-1.07556,1.9671c-0.57611-0.31171-1.16187-0.61292-1.73242-0.93036l-1.37915,2.38641
				c0.59521,0.3291,1.19537,0.63586,1.7923,0.95685l-7.10516,12.995l1.75488,0.95996l7.11493-13.01282
				c2.54608,1.33435,5.10815,2.6087,7.68347,3.84308l-4.3924,7.6438c-2.29895-1.10547-4.58392-2.23071-6.82996-3.40192
				l-1.15698,2.14575c2.24799,1.16608,4.5094,2.27484,6.77728,3.36139l-1.69098,2.94269l1.73438,0.99609l1.7663-3.07379
				c2.34503,1.10291,4.70221,2.17316,7.06934,3.22168l-2.10077,4.28912l1.7959,0.87989l2.13654-4.36207
				c0.46619,0.20398,0.92963,0.41266,1.39667,0.61536c1.7923,0.79626,3.59924,1.5564,5.40851,2.31097l-1.98761,4.05585
				l1.7959,0.87988l2.03986-4.16235c0.77667,0.32404,1.5542,0.64594,2.32898,0.97461c1.6026,0.63605,3.20154,1.2818,4.80194,1.92365
				l-1.83582,3.62201l1.78418,0.9043l1.92017-3.78845c0.99884,0.39691,1.99622,0.79767,2.99908,1.18402
				c1.34674,0.52142,2.70233,1.01904,4.05249,1.53131l-1.89557,4.0741l1.81348,0.84375l1.95831-4.20892
				c2.38031,0.89459,4.76514,1.77576,7.1557,2.64178l-1.94312,4.63354l1.84473,0.77344l1.9834-4.72961
				c2.31854,0.83167,4.63983,1.65472,6.96777,2.45923l-1.79443,4.24402l1.8418,0.7793l1.8504-4.3764
				c2.41687,0.8266,4.83588,1.64673,7.26245,2.44373l-1.72808,4.96442l1.88867,0.65723l1.74323-5.00775
				c2.08716,0.6781,4.17169,1.36438,6.26575,2.02039c0.20349,0.06384,0.40802,0.12433,0.61157,0.18805l-1.74994,4.61621
				l1.87012,0.70898l1.79541-4.73615c2.36835,0.73572,4.73682,1.47089,7.11133,2.18671l-1.64795,4.2052l1.8623,0.72949
				l1.71057-4.36487c2.40466,0.71851,4.81195,1.42804,7.22345,2.12305l-1.67474,4.39612l1.86914,0.7124l1.7348-4.55389
				c2.28687,0.65228,4.57916,1.28485,6.87256,1.91333l-1.73822,5.08588l1.89258,0.64648l1.77551-5.19507
				c2.64557,0.71625,5.29907,1.4024,7.95398,2.08331l-1.50391,4.73578l1.90625,0.60547l1.53558-4.83545
				c0.19598,0.04956,0.39069,0.10382,0.58673,0.15314c2.17896,0.57941,4.36542,1.12805,6.55438,1.6665l-0.97211,3.70917
				l1.93457,0.50781l0.98083-3.7428c2.21417,0.53571,4.4303,1.0636,6.64832,1.58331l-1.30688,4.50128l1.9209,0.55859
				l1.33636-4.60315c1.03705,0.24255,2.0741,0.48486,3.1109,0.72845c1.35461,0.33752,2.71832,0.63983,4.08502,0.93079
				l-1.20074,4.0025l1.91602,0.57422l1.24969-4.16577c1.37433,0.28009,2.75037,0.55353,4.12543,0.83081l3.38104,0.67993
				l-0.81915,4.04468l1.95996,0.39648l0.81964-4.04694l4.8645,0.97827c1.20966,0.21625,2.42084,0.422,3.6319,0.62885
				l-0.53528,3.59412l1.97852,0.29492l0.52911-3.5528c2.54456,0.42377,5.09247,0.823,7.64258,1.20691l-0.63898,2.98944
				l1.95605,0.41797l0.66418-3.10742c2.42834,0.35577,4.85956,0.68903,7.2923,1.0105l-0.53607,2.42212l1.95313,0.43164
				l0.57385-2.59302c2.28979,0.29382,4.58112,0.57532,6.87427,0.84033l-0.90125,4.07104l1.95313,0.43164l0.94727-4.27917
				c3.00311,0.33618,6.00861,0.65039,9.01642,0.93994c-0.33472,1.51843-0.65076,2.95178-0.91681,4.15759l1.95313,0.43164
				c0.04877-0.22113,0.44678-2.02563,0.97021-4.40082c2.05402,0.19086,4.10889,0.37311,6.16461,0.54352l-0.35455,3.02527
				l1.98633,0.23242l0.36273-3.0954c2.06403,0.16455,4.12885,0.31757,6.19415,0.46259l-0.6604,3.84766l1.9707,0.33789
				l0.69458-4.04651c2.73492,0.1839,5.4707,0.35052,8.20728,0.50238l-0.62646,4.2287l1.97852,0.29297l0.65369-4.41241
				c2.41614,0.12744,4.83258,0.24438,7.24933,0.34857l-0.63348,4.7865l1.98242,0.26172l0.65735-4.96649
				c0.82874,0.03363,1.65747,0.07019,2.48621,0.1012c1.6637,0.05951,3.32806,0.09717,4.99213,0.14636l-0.62006,5.34784
				l1.98633,0.23047l0.63995-5.51947c2.42859,0.0658,4.85724,0.11938,7.28625,0.16309l-0.41693,5.92084l1.99512,0.14063
				l0.42456-6.02869c2.2688,0.0351,4.53749,0.06543,6.80647,0.08112l-0.59869,5.90167l1.99023,0.20117l0.61847-6.09631
				c2.26849,0.00995,4.53693,0.02228,6.80536,0.0127l-0.41602,5.53284l1.99414,0.15039l0.42883-5.70313
				c2.6629-0.01801,5.32568-0.03839,7.98822-0.08356l-0.28717,4.52301l1.99609,0.12695l0.29822-4.69653
				c2.6698-0.05219,5.33966-0.10626,8.00873-0.18591l-0.30206,3.99377l1.99414,0.15039l0.31897-4.21716
				c2.72284-0.08832,5.44543-0.18207,8.16718-0.29919l-0.47931,5.35229l1.99219,0.17773l0.50397-5.62775
				c2.35309-0.10754,4.70563-0.22498,7.05768-0.35419l0.06726,4.03467l2-0.0332l-0.06848-4.10767
				c1.96198-0.11298,3.92267-0.24768,5.88373-0.37585l0.05975,3.76575l2-0.03125l-0.06128-3.86212
				c0.68707-0.04675,1.37476-0.08313,2.06171-0.13171l5.17206-0.37592l0.07751,4.65198l2-0.0332l-0.07941-4.76398l3.19806-0.23242
				l4.25635-0.3952v4.6582h2v-4.84387l4.09564-0.38025c1.12549-0.0946,2.24841-0.21539,3.37195-0.3302l0.15839,4.71252
				l1.99805-0.06641l-0.16284-4.84442c1.65851-0.18158,3.31592-0.37451,4.97333-0.56732
				c0.71948-0.08807,1.4397-0.16968,2.15997-0.25098l0.03052,3.32971l2-0.01758l-0.03247-3.53711
				c2.05817-0.22913,4.11578-0.46381,6.16479-0.7724l1.0943-0.15247l0.14935,4.25592l1.99805-0.07031l-0.15662-4.46301
				l7.07513-0.98584l0.46136,5.07483l1.99219-0.18164l-0.47437-5.21814l7.57166-1.25763l0.41443,3.31561l1.98438-0.24805
				l-0.42804-3.4245c2.23505-0.41827,4.46631-0.86163,6.69678-1.30927l0.36993,3.46423l1.98828-0.21289l-0.38928-3.64478
				c0.14496-0.0285,0.28973-0.05853,0.43469-0.08685l6.93622-1.54016l0.15021,3.79327l1.99805-0.08008l-0.16449-4.15363
				l1.22559-0.27216c1.88507-0.43127,3.76648-0.87958,5.64941-1.32086l0.2934,4.10797l1.99414-0.14258l-0.31616-4.42627
				c2.44714-0.57843,4.89136-1.16956,7.33441-1.76587l0.49054,4.49683l1.98828-0.2168l-0.51917-4.75891
				c2.31293-0.56958,4.62335-1.14862,6.93213-1.73517l0.73059,4.51263l1.97461-0.32031l-0.75934-4.68994
				c2.27344-0.5827,4.54529-1.17065,6.81415-1.77081l0.33582,4.32306l1.99414-0.1543l-0.36469-4.69531
				c2.97681-0.79474,5.94958-1.60388,8.91772-2.43042l0.58563,3.97388l1.97852-0.29199l-0.62299-4.22723
				c2.11652-0.59485,4.23273-1.19061,6.34436-1.80249l0.55402,3.22015l1.9707-0.33887l-0.59363-3.45062
				c2.25537-0.65973,4.51166-1.31592,6.76099-1.99597l0.74377,3.57013l1.95703-0.4082l-0.78247-3.75586
				c2.14191-0.65375,4.28186-1.31409,6.41797-1.98712l0.52466,3.1131l1.97266-0.33203l-0.57062-3.38556
				c2.29382-0.72974,4.58093-1.48114,6.86749-2.23413l0.99609,4.02594l1.94141-0.48047l-1.0307-4.16583
				c0.20074-0.06671,0.40271-0.12939,0.60339-0.19629c2.02814-0.67694,4.04712-1.38153,6.06891-2.0777l0.78711,3.52332
				l1.95117-0.43652l-0.83514-3.73834c2.35315-0.81836,4.6983-1.659,7.04163-2.50519l1.23981,3.8905l1.90625-0.60742
				l-1.2627-3.96222c2.25073-0.82111,4.49457-1.66034,6.73517-2.50879l1.2453,3.9505l1.9082-0.60156l-1.28033-4.06177
				c2.32617-0.8902,4.64636-1.79517,6.96033-2.7168l1.03485,3.3728l1.91211-0.58691l-1.08459-3.53503
				c1.54858-0.62348,3.10364-1.23078,4.6463-1.86909l2.099-0.89276l1.2016,3.07911l1.86328-0.72755l-1.22333-3.13483
				l5.62683-2.39319c0.32697-0.14337,0.65125-0.29291,0.9776-0.43756l1.00073,2.67944l1.87305-0.7002l-1.04498-2.79779
				c2.22614-1.00104,4.44769-2.0127,6.67389-3.01355c0.01758-0.00824,0.03491-0.01685,0.05249-0.02509l0.83813,1.95557
				l1.83789-0.78809l-0.87042-2.03101c2.20642-1.04187,4.40924-2.09119,6.60297-3.1579l1.21375,2.29974l1.76953-0.93359
				l-1.18402-2.24347c2.31165-1.13257,4.61426-2.28094,6.91193-3.43756l0.84729,1.92566l1.83008-0.80566l-0.88629-2.01428
				c2.05865-1.03912,4.11096-2.09186,6.16394-3.14319l1.29266,2.51733l1.7793-0.91406l-1.28992-2.51196
				c2.30939-1.18854,4.60913-2.3963,6.90784-3.6062l1.14087,1.8501l1.70313-1.0498l-1.06769-1.73132
				c2.2832-1.20966,4.55438-2.44208,6.82343-3.67889l1.40149,2.43414l1.73242-0.99805l-1.37677-2.39117
				c2.078-1.14191,4.1438-2.30615,6.20697-3.47577l1.07507,1.76196l1.70703-1.04199l-1.0426-1.70868
				c1.06244-0.60803,2.13452-1.19806,3.19238-1.81445c1.01404-0.59271,2.02094-1.19855,3.02899-1.80206l1.10931,1.85889
				l1.7168-1.02539l-1.11047-1.86078c2.12561-1.29156,4.22931-2.61957,6.31848-3.97076l1.5,2.05811l1.61719-1.17773
				l-1.43494-1.96881c1.61938-1.06714,3.2287-2.14996,4.81915-3.26123c0.48218-0.33392,0.95197-0.68463,1.43042-1.02368
				l1.58185,2.07404l1.58984-1.21289l-1.5448-2.02545c2.15863-1.56696,4.28583-3.17517,6.38513-4.81848l1.55322,2.15936
				l1.62305-1.16797l-1.60516-2.23157c1.84076-1.461,3.67102-2.9339,5.48492-4.42218L628.49475,64.51824z M5.27703,118.35332
				l4.39459-7.64771c1.8877,0.89111,3.78021,1.77209,5.68207,2.64178c0.22998,0.10535,0.46204,0.20563,0.69226,0.31036
				l-3.85052,7.86151C9.87798,120.48736,7.56902,119.43548,5.27703,118.35332z M15.32476,122.90588
				c-0.43384-0.18927-0.86597-0.38513-1.29956-0.57581l3.84668-7.85364c2.25439,1.00916,4.51569,2.00146,6.78711,2.96881
				l-3.83417,7.82367C18.9843,124.49688,17.14611,123.7199,15.32476,122.90588z M24.8543,126.96539
				c-0.72614-0.30994-1.45526-0.61346-2.18329-0.91919l3.8338-7.82306c2.40912,1.01538,4.82355,2.01746,7.242,3.00903
				l-3.92114,7.73634C28.16881,128.30017,26.51348,127.62792,24.8543,126.96539z M34.47423,130.81531
				c-0.93042-0.36072-1.85522-0.73517-2.78192-1.10522l3.91852-7.73109c2.22278,0.8891,4.4516,1.76202,6.68347,2.62714
				l-3.63037,7.80262C37.26793,131.87604,35.86632,131.35773,34.47423,130.81531z M40.53832,133.12164l3.62097-7.78242
				c2.24249,0.86157,4.49524,1.69519,6.74658,2.53278l-3.3017,7.87318C45.2434,134.88464,42.88842,134.00995,40.53832,133.12164z
				 M49.48754,136.42657l3.29242-7.85114c2.32025,0.85541,4.64838,1.68799,6.97754,2.51807l-3.30109,7.80719
				C54.12792,138.091,51.8062,137.26349,49.48754,136.42657z M58.35253,139.55164l3.29077-7.78296
				c2.1889,0.77295,4.38348,1.52881,6.57989,2.27954l-2.75482,7.91382C63.09056,141.17548,60.72057,140.36664,58.35253,139.55164z
				 M73.57249,144.59454c-2.07288-0.65424-4.13599-1.33862-6.20178-2.01459l2.74518-7.88611
				c1.14661,0.38824,2.2887,0.79034,3.43726,1.17255c1.22754,0.40631,2.45972,0.79816,3.68878,1.19977l-2.93958,7.75452
				C74.05943,144.74414,73.81535,144.67126,73.57249,144.59454z M76.21635,145.41376l2.92969-7.72827
				c2.39435,0.77698,4.79102,1.5462,7.19128,2.30432l-2.99139,7.63318C80.96507,146.90021,78.59081,146.15662,76.21635,145.41376z
				 M85.27007,148.19476l2.98059-7.60559c2.36084,0.74011,4.72296,1.47528,7.0896,2.19598l-2.87305,7.54187
				C90.06419,149.62946,87.666,148.91571,85.27007,148.19476z M94.3958,150.88318l2.86493-7.52075
				c2.16071,0.65265,4.3205,1.30853,6.48627,1.94403l-2.5578,7.48383C98.92198,152.16418,96.65636,151.53265,94.3958,150.88318z
				 M103.11772,153.33167l2.55383-7.47247c2.54474,0.74017,5.08972,1.47949,7.64148,2.19476
				c0.01398,0.00421,0.0282,0.00781,0.04218,0.01202l-2.33459,7.35156C108.38274,154.73547,105.74608,154.04877,103.11772,153.33167
				z M113.42723,156.05127c-0.15704-0.03992-0.31305-0.08374-0.47003-0.12378l2.32214-7.31226
				c2.20343,0.61066,4.42639,1.16302,6.64264,1.7348l-1.93512,7.38391C117.79607,157.19019,115.60777,156.63623,113.42723,156.05127
				z M121.92906,158.21234l1.92902-7.36084l4.55389,1.1745c0.76831,0.2019,1.53741,0.40015,2.30817,0.59143l-2.0918,7.20502
				C126.3933,159.29376,124.1602,158.75708,121.92906,158.21234z M133.56969,160.99091
				c-0.99725-0.23657-1.99475-0.47198-2.99219-0.70758l2.09454-7.21484c0.26642,0.05896,0.53082,0.12683,0.7981,0.18201
				c2.16827,0.47083,4.33417,0.95374,6.50037,1.43469l-2.18243,7.2746C136.37822,161.65771,134.97057,161.3432,133.56969,160.99091z
				 M143.69768,163.17603c-1.31506-0.26813-2.63068-0.53271-3.94531-0.80286l2.17682-7.25598
				c2.20441,0.48474,4.41046,0.96106,6.6228,1.40521l-1.48627,7.33862L143.69768,163.17603z M153.84776,165.24042l-4.82245-0.98083
				l1.49182-7.36566c1.10693,0.21204,2.21265,0.43024,3.32361,0.62183c1.56268,0.2851,3.12299,0.58435,4.68402,0.87915
				l-1.10974,7.45142C156.22655,165.64056,155.03471,165.45526,153.84776,165.24042z M159.38756,166.18134l1.10651-7.42944
				c1.1925,0.22003,2.38428,0.44403,3.58026,0.6427l4.64294,0.72717l-1.56293,7.31238
				C164.56181,167.03876,161.9735,166.61798,159.38756,166.18134z M169.13683,167.72839l1.55963-7.29669l3.65588,0.57257
				c1.22626,0.1875,2.45142,0.38312,3.67767,0.57037l-1.59222,7.19446C174.00108,168.44257,171.56847,168.08936,169.13683,167.72839
				z M178.42986,169.02466l1.58514-7.16248l4.63641,0.59631l2.229,0.28662l-1.58228,7.14728
				C183.00597,169.62335,180.71812,169.32257,178.42986,169.02466z M187.29839,170.11133l1.57397-7.11005l6.09528,0.78375
				c0.95917,0.10229,1.9187,0.20172,2.87811,0.30237c-0.45007,2.04736-1.00061,4.54803-1.5376,6.98511
				C193.30186,170.77777,190.29918,170.4527,187.29839,170.11133z M198.31554,171.2569
				c0.50934-2.31195,1.07123-4.86426,1.53162-6.95923c1.74866,0.18097,3.49774,0.35852,5.24725,0.53162l-0.81738,6.97516
				C202.28844,171.6355,200.30211,171.44501,198.31554,171.2569z M206.27116,171.97034l0.81427-6.94885
				c2.21667,0.21478,4.43427,0.42096,6.6524,0.61823l-1.16821,6.80591C210.46959,172.29419,208.36955,172.14203,206.27116,171.97034
				z M214.57237,172.59674l1.16345-6.7782c2.65979,0.22913,5.32111,0.43774,7.98334,0.63324l-0.98547,6.65179
				C220.01244,172.94733,217.29161,172.78467,214.57237,172.59674z M224.73772,173.22437l0.98145-6.62482
				c2.36615,0.16522,4.7337,0.3103,7.10205,0.44232l-0.86462,6.53265C229.54997,173.46613,227.14348,173.35583,224.73772,173.22437z
				 M236.26677,173.7738c-0.76862-0.03046-1.5368-0.07391-2.30536-0.10657l0.86267-6.51813
				c0.52985,0.02722,1.05933,0.05975,1.58923,0.08508c1.9118,0.10773,3.82483,0.18781,5.73737,0.27936l-0.74463,6.42206
				C239.69292,173.88159,237.97942,173.83881,236.26677,173.7738z M243.41179,173.99878l0.7406-6.38782
				c2.30042,0.10333,4.60126,0.19141,6.90247,0.27179l-0.44305,6.29108
				C248.21141,174.12579,245.81151,174.06848,243.41179,173.99878z M252.61418,174.21088l0.44092-6.26093
				c2.34882,0.07526,4.69777,0.14191,7.04713,0.19366l-0.62512,6.16193
				C257.18927,174.28528,254.90172,174.25098,252.61418,174.21088z M261.48663,174.31647l0.62238-6.13507
				c2.19617,0.04211,4.39221,0.08594,6.58868,0.10791l-0.45508,6.05243C265.99048,174.3468,263.73859,174.33069,261.48663,174.31647
				z M270.24927,174.32617l0.45319-6.02808c2.62976,0.01898,5.25964,0.03522,7.88947,0.02588l-0.37677,5.9342
				C275.55994,174.29797,272.90466,174.31342,270.24927,174.32617z M280.22198,174.21594l0.37531-5.9115
				c2.6983-0.01697,5.39661-0.03711,8.09467-0.08331l-0.44043,5.82397C285.57544,174.11981,282.89874,174.16895,280.22198,174.21594
				z M290.26227,173.97577l0.43878-5.802c2.75482-0.05457,5.5097-0.11304,8.26379-0.19739l-0.51202,5.7171
				C295.72327,173.80591,292.9928,173.89246,290.26227,173.97577z M300.4696,173.59705l0.51001-5.69537
				c2.08923-0.06946,4.17822-0.14612,6.26678-0.23242l0.09332,5.5979C305.05023,173.38818,302.76013,173.4967,300.4696,173.59705z
				 M309.33856,173.16437l-0.09283-5.57043c1.96423-0.08612,3.92725-0.19574,5.89075-0.29645l0.08734,5.50366
				C313.26221,172.92529,311.30109,173.05548,309.33856,173.16437z M319.19452,172.55615
				c-0.6571,0.0451-1.31494,0.07837-1.97217,0.1217l-0.08698-5.4809c0.80188-0.04315,1.60431-0.0755,2.40601-0.12109
				c1.60828-0.10144,3.21515-0.22717,4.82281-0.33936l0.09082,5.44879L319.19452,172.55615z M329.54132,171.82672l-3.08813,0.21771
				l-0.09076-5.44855c2.52576-0.18353,5.04999-0.38379,7.57361-0.59637v5.42877L329.54132,171.82672z M339.87067,170.8902
				l-3.93463,0.35675v-5.41974c2.41125-0.21082,4.82123-0.43359,7.22986-0.6734l0.18164,5.40356
				C342.18921,170.67383,341.03137,170.79517,339.87067,170.8902z M350.18549,169.81946
				c-1.61438,0.18433-3.22882,0.36816-4.8443,0.54205l-0.18195-5.41425c2.43689-0.25116,4.87299-0.50952,7.30652-0.79291
				l0.04956,5.39948C351.73834,169.63953,350.96143,169.7262,350.18549,169.81946z M360.4823,168.59692
				c-1.98297,0.29437-3.97546,0.51923-5.96887,0.73712l-0.04974-5.42529c2.15918-0.2597,4.31952-0.50885,6.47552-0.79596
				c0.20074-0.02655,0.40106-0.05615,0.60181-0.08301l0.18933,5.396L360.4823,168.59692z M363.72131,168.15277l-0.18939-5.39758
				c2.23047-0.30774,4.45892-0.62848,6.68457-0.96698l0.49152,5.40656L363.72131,168.15277z M372.68732,166.87164l-0.48987-5.38843
				c2.44983-0.38257,4.89642-0.78473,7.34039-1.20178l0.66974,5.35779L372.68732,166.87164z M382.17859,165.28448l-0.66718-5.33771
				c2.2796-0.39758,4.5556-0.81433,6.83002-1.23962l0.56348,5.27649C386.66492,164.42767,384.42419,164.86823,382.17859,165.28448z
				 M391.14673,163.54077c-0.09088,0.01752-0.18152,0.03625-0.2724,0.05383l-0.56165-5.25891
				c2.61426-0.49792,5.22504-1.0127,7.83234-1.54388l0.20459,5.16602L391.14673,163.54077z M401.28015,161.31378l-0.94659,0.20801
				l-0.20349-5.13831c0.59363-0.12286,1.18805-0.24194,1.78131-0.36639c1.63336-0.34192,3.26135-0.70831,4.89215-1.06183
				l0.35693,4.99713C405.20068,160.40771,403.24231,160.86932,401.28015,161.31378z M409.13214,159.49591l-0.35492-4.96906
				c2.37201-0.5213,4.74091-1.05548,7.10736-1.60083l0.5271,4.83154C413.98688,158.34442,411.5611,158.92676,409.13214,159.49591z
				 M418.37183,157.28308l-0.52502-4.81293c2.21033-0.51593,4.41931-1.03668,6.62469-1.57306l0.75824,4.68329
				C422.94568,156.15576,420.6601,156.72437,418.37183,157.28308z M427.17627,155.0871l-0.75641-4.67175
				c2.44464-0.60162,4.88812-1.20697,7.32654-1.83313l0.36627,4.71564C431.8031,153.90417,429.49066,154.4989,427.17627,155.0871z
				 M436.07831,152.77582l-0.36572-4.70862c2.20978-0.57373,4.42108-1.14209,6.62561-1.73547
				c0.62976-0.17084,1.25629-0.35315,1.88556-0.52563l0.67548,4.5835C441.96332,151.20099,439.02289,151.99561,436.07831,152.77582z
				 M446.84106,149.84863l-0.67554-4.58392c2.07037-0.57355,4.14282-1.13977,6.20813-1.73108l0.78009,4.53406
				C451.05261,148.67206,448.94708,149.26111,446.84106,149.84863z M455.08551,147.50269l-0.78046-4.53644
				c2.18921-0.63318,4.37628-1.27405,6.55963-1.92712l0.93646,4.49506C459.56689,146.20483,457.32574,146.85217,455.08551,147.50269
				z M463.7204,144.94446l-0.9328-4.47729c2.21765-0.6698,4.42877-1.36066,6.64014-2.05084l0.76514,4.53949
				C468.03882,143.63,465.88043,144.28992,463.7204,144.94446z M472.11987,142.35291l-0.76385-4.53217
				c2.15131-0.67786,4.2959-1.37653,6.4411-2.07367l1.09344,4.41931C476.63635,140.90369,474.38123,141.63818,472.11987,142.35291z
				 M481.30023,139.38824c-0.16687,0.05524-0.3349,0.10693-0.50183,0.16205l-1.09393-4.42126
				c0.81012-0.26563,1.6239-0.52008,2.43311-0.78845c1.46222-0.48602,2.91705-0.99432,4.37628-1.48956l0.98938,4.42865
				C485.43695,137.98669,483.37323,138.70129,481.30023,139.38824z M489.40735,136.63239l-0.98956-4.42938
				c2.19189-0.75092,4.37982-1.51276,6.56396-2.28619l1.35876,4.26367C494.03308,135.00824,491.72437,135.83154,489.40735,136.63239
				z M498.22522,133.50549l-1.35852-4.26288c2.26074-0.80841,4.5191-1.62312,6.77039-2.45783l1.3316,4.22425
				C502.72534,131.85333,500.47888,132.6886,498.22522,133.50549z M506.84314,130.30042l-1.33099-4.22248
				c2.3446-0.87823,4.68781-1.75995,7.02087-2.66901l1.284,4.18488C511.49854,128.51196,509.17395,129.41382,506.84314,130.30042z
				 M520.22034,125.03399c-1.50726,0.61981-3.02679,1.20911-4.53973,1.81482l-1.2832-4.1825
				c2.12982-0.83887,4.26074-1.67499,6.37988-2.54144l1.56561,4.01178L520.22034,125.03399z M529.77289,120.99548l-5.58691,2.36194
				l-1.55682-3.98938l3.3244-1.36725l3.36584-1.46527l1.49304,3.99738C530.46539,120.68591,530.12054,120.84393,529.77289,120.99548
				z M539.23785,116.75738c-2.20007,0.98328-4.39539,1.97711-6.59509,2.961l-1.48804-3.98407
				c2.18091-0.94019,4.34479-1.91351,6.50385-2.8963l1.66272,3.8797C539.2934,116.73071,539.26575,116.74438,539.23785,116.75738z
				 M541.12854,115.85815l-1.64923-3.84827c0.24225-0.11072,0.48517-0.22015,0.72742-0.33087
				c1.84589-0.84259,3.6814-1.70801,5.52057-2.56531l1.92261,3.64282C545.48236,113.80456,543.30713,114.83501,541.12854,115.85815z
				 M549.45142,111.88354l-1.90741-3.61401c2.44141-1.14532,4.87598-2.30524,7.3067-3.47321l1.59595,3.62714
				C554.11975,109.58874,551.78912,110.74462,549.45142,111.88354z M558.2392,107.53259l-1.58459-3.60138
				c0.77991-0.37677,1.56403-0.74487,2.34296-1.12372c1.2019-0.58893,2.396-1.19415,3.5954-1.78845l1.75403,3.41565
				C562.31287,105.47082,560.27924,106.50829,558.2392,107.53259z M566.13098,103.52984l-1.74689-3.40179
				c2.21063-1.10199,4.41571-2.21466,6.61548-3.33868l1.96759,3.19067C570.69238,101.17077,568.41681,102.35967,566.13098,103.52984
				z M574.74579,99.05267l-1.96246-3.18231c2.34222-1.20563,4.67816-2.42322,7.0047-3.65918l1.82043,3.16174
				C579.32678,96.6101,577.0426,97.84252,574.74579,99.05267z M583.36774,94.42156l-1.81793-3.15747
				c2.05573-1.10156,4.11053-2.20477,6.15131-3.33417l1.85699,3.04333C587.50079,92.13348,585.44061,93.28844,583.36774,94.42156z
				 M594.51434,88.17046c-1.06482,0.61737-2.14478,1.2088-3.21448,1.81781l-1.85638-3.04242
				c2.10535-1.17664,4.21375-2.34784,6.30054-3.55841c0.0022-0.00128,0.00433-0.00256,0.00653-0.00385l1.78815,2.9964
				C596.53223,86.97961,595.52716,87.58141,594.51434,88.17046z M599.25653,85.35638l-1.78302-2.98779
				c2.02716-1.19092,4.04749-2.39587,6.05774-3.61957l1.96979,2.70276C603.43683,82.77978,601.35791,84.08575,599.25653,85.35638z
				 M612.03162,77.10418c-1.59857,1.11182-3.21698,2.19495-4.84576,3.26263l-1.94202-2.66461
				c2.12811-1.31195,4.23779-2.65417,6.33191-4.02045l1.85181,2.42798C612.96063,76.43896,612.50214,76.77984,612.03162,77.10418z
				 M615.05707,74.94884l-1.80048-2.3606c2.25226-1.49548,4.47046-3.04169,6.66467-4.62213l1.5542,2.16064
				C619.36389,71.77282,617.22589,73.38213,615.05707,74.94884z"/>
		</defs>
		<clipPath id="SVGID_2_">
			<use xlink:href="#SVGID_8_"  style="overflow:visible;"/>
		</clipPath>
		
			<linearGradient id="SVGID_3_" gradientUnits="userSpaceOnUse" x1="0" y1="-30.34711" x2="623.62207" y2="-30.34711" gradientTransform="matrix(1 0 0 -5.13772 0 -0.00942)">
			<stop  offset="0" style="stop-color:#9ECFE5"/>
			<stop  offset="1" style="stop-color:#DBE249"/>
		</linearGradient>
		<rect class="st2" width="623.62207" height="311.81104"/>
	</g>
</g>
</svg>
