<?xml version="1.0" encoding="utf-8"?>
<!-- Generator: Adobe Illustrator 24.0.1, SVG Export Plug-In . SVG Version: 6.00 Build 0)  -->
<svg version="1.1" id="Layer_1" xmlns="http://www.w3.org/2000/svg" xmlns:xlink="http://www.w3.org/1999/xlink" x="0px" y="0px"
	 viewBox="0 0 623.62207 311.81256" style="enable-background:new 0 0 623.62207 311.81256;" xml:space="preserve">
<style type="text/css">
	.st0{fill:#CDE8F6;}
	.st1{clip-path:url(#SVGID_1_);fill:#D2D6E2;}
	.st2{clip-path:url(#SVGID_1_);fill:#FFFFFF;}
	.st3{fill:#AED25A;}
	.st4{fill:#FFFFFF;}
	.st5{fill:#C2C6C6;}
	.st6{clip-path:url(#SVGID_2_);}
	.st7{fill:#B69063;}
	.st8{fill:#7F7C65;}
	.st9{fill:#749B9A;}
	.st10{fill:#F8FCFF;}
	.st11{clip-path:url(#SVGID_3_);fill:#607F7E;}
	.st12{clip-path:url(#SVGID_4_);fill:#B1C5C9;}
	.st13{clip-path:url(#SVGID_5_);fill:#7F7C65;}
	.st14{filter:url(#Adobe_OpacityMaskFilter);}
	.st15{mask:url(#Circle_1_);}
	.st16{fill:#B5BEB9;}
	.st17{fill:#F0A079;}
	.st18{fill:#F4F4C1;}
	.st19{fill:#FBDBE8;}
	.st20{fill:#FCE2EB;}
	.st21{fill:#FBD9E7;}
	.st22{fill:#FBD9E6;}
	.st23{fill:#F6DEEA;}
	.st24{fill:#FCDEE6;}
	.st25{fill:#FBD8E6;}
	.st26{fill:#FDEDF3;}
	.st27{fill:#FDF2F7;}
	.st28{fill:#F8DBE7;}
	.st29{fill:#FBDCE9;}
	.st30{fill:#FDECF3;}
	.st31{fill:#FADDEA;}
	.st32{fill:#F8DAE8;}
	.st33{fill:#F7DCE9;}
	.st34{fill:#FEF4F8;}
	.st35{fill:#FEF7FA;}
</style>
<g id="Iwate-Morioka">
	<rect id="Sky" class="st0" width="623.62207" height="311.81256"/>
	<g id="Mountain">
		<defs>
			<path id="SVGID_11_" d="M118.81102,166.40704c10.25,0,33.75-3,48.5-7.5s39.25-10,45-12.75s8.5-3.75,13.75-4.5
				s13.5-2.75,17.75-4.75s4-5.5,8.75-4.75c4.75002,0.75,7.75002,1.79277,11.25002-0.10362c3.5-1.89638,11.75-0.39638,15.5-1.89638
				s8.25-4,14.75-5.5s6.75,0.25,16.5-4s19.75-4.5,35-1.5c10.75-4.75,23.5-8,36.75-6s15.5,5,32.5,15s31.5,21.25,68.75,38.25
				s70.5,26.5,90.5,31s49.56104,7.75,49.56104,7.75v106.65552H118.81102V166.40704z"/>
		</defs>
		<clipPath id="SVGID_1_">
			<use xlink:href="#SVGID_11_"  style="overflow:visible;"/>
		</clipPath>
		<rect x="118.81102" y="112.55663" class="st1" width="504.81104" height="199.25594"/>
		<path class="st2" d="M170.60217,157.93202c0,0,25.90166,1.07028,48.45885-9.52498c-12,11.25-14.25,12.5-14.25,12.5
			s15.25-4,23.75-9.5c-10.25,11.75-19.75,15.75-19.75,15.75s24.25-3.5,41-17.25c-6.25,11.5-6.25,11.5-6.25,11.5
			s12.25-4.25,26.25002-10.25c-9,12.25-21.25002,23-21.25002,23s25.25002,3.75,59.25002-30.25c-5,16.75-17.5,30.37248-17.5,30.37248
			s24-9.87248,36-26.12248c0,12.25-11.75,28.75-11.75,28.75s17-10.75,26.5-27c-2,9.25-6.25,14.75-6.25,14.75s10-8,13.25-14.75
			c3,10.5,1,27,1,27s7.25-6.5,9-16.5c3.75,10.5,5.75,23.25,5.75,23.25l8.5-16l10.75,6.5v-13.5c0,0,7.5,5,15.25,7.75
			c-3-4.625-3-8.5-3-8.5s5.75,9.25,19.75,14.25c-7.25-7-10-16.25-10-16.25s24.75,25.75,62.75,24.5c-13.75-4-35.25-26.5-35.25-26.5
			s72.9068,32.85356,131.82837,39.17679c0-33.17679,0-82.52721,0-82.52721H345.31104l1.22891,6.1762
			c0,0,5.89609,2.67422,16.89609,3.42422c-8.5,0.875-17.875-3-17.875-3l-1.875-6.60042H170.60217V157.93202z"/>
	</g>
	<polygon id="Grass" class="st3" points="342.43604,274.28204 342.43604,242.03204 142.06102,242.03204 142.06102,311.81256 
		342.43604,311.81256 423.56104,311.81256 423.56104,274.28204 	"/>
	<path id="Cloud" class="st4" d="M350.56104,255.78206v-0.00002c0-4.90154,3.97345-8.875,8.87497-8.875h17.75003
		c5.4538,0,9.875-4.42119,9.875-9.87498v-0.00002c0-5.45381-4.4212-9.875-9.875-9.875H142.06102v19.75h184.62502
		c4.90152,0,8.875,3.97346,8.875,8.875v0.00002c0,4.9015-3.97348,8.87498-8.875,8.87498h-87.50002
		c-5.45381,0-9.875,4.42117-9.875,9.875l0,0c0,5.45383,4.42119,9.875,9.875,9.875h184.37502v-19.75H359.436
		C354.53448,264.65704,350.56104,260.68356,350.56104,255.78206z"/>
	<g id="Wall">
		<path class="st4" d="M70.92038,0.00081c1.21732,3.59615,1.49575,7.04211,2.45314,11.03123
			c1.125,4.6875,1.125,8.4375,1.875,11.34375s0.375,6.09375,2.8125,11.90625s5.17537,12.375,5.96268,18.09375
			s3.03732,8.53125,3.97482,12.375s2.8125,9.09375,4.3125,12.65625s0.75,5.0625,2.625,10.6875s4.21875,9.46875,7.78125,19.125
			s2.625,9.5625,5.0625,14.71875s5.0625,16.03125,8.625,23.34375s3.28125,10.78125,3.84375,13.125s1.40625,1.50035,2.625,3.84392
			c1.21875,2.34358,9,24.65608,11.15625,29.24983s1.21875,4.5,2.71875,6.375s8.25,19.3125,10.3125,24.46875
			s4.78125,9.65625,5.0625,11.625s1.3125,6,4.59375,11.71875s11.90625,20.53125,13.78125,23.90625s4.40625,4.78125,6.65625,8.25
			s3.65625,8.15625,5.8125,11.8125s13.40625,18.81104,18.09375,22.15552c-12.75,0-201.06102,0-201.06102,0V0.00153
			C0,0.00153,61.37352,0.00081,70.92038,0.00081z"/>
		<g>
			<path class="st5" d="M16.65477,0.00153c0,0,0.5625,8.40551,0.5625,12.06176s1.5,10.78125,1.5,10.78125
				s-5.34375,3.75-7.78125,3.9375s-6.09375-3.1875-8.34375-5.25S0,19.3758,0,19.3758V0.00153H16.65477z"/>
			<path class="st5" d="M0,22.3758c1.93602,0.84375,2.31102,2.53125,4.27977,3.65625s2.25,2.0625,1.6875,2.90625
				S0,32.3133,0,32.3133V22.3758z"/>
			<path class="st5" d="M7.65477,30.71955c-2.40189,1.24236-2.15625,2.34375,0,2.25s6.09375-1.96875,9.65625-2.25
				s3.65625-0.5625,3.5625-1.96875s-1.125-3.09375-2.15625-3.1875s-2.2888,1.21875-5.2694,2.34375
				S10.37352,29.3133,7.65477,30.71955z"/>
			<path class="st5" d="M21.24852,0c0,0-2.4375,1.65705-2.53125,5.59455s1.5,11.0625,2.53125,14.625s1.6875,8.625,2.8125,9.65625
				s11.71875,0.375,16.96875-1.3125s13.125-3.75,18-4.78125s12.375-2.53125,12.375-2.53125s0.75-6.28125-0.46875-10.3125
				s-2.25-9.68602-2.25-10.93676C63.52977,0.00153,21.24852,0,21.24852,0z"/>
			<path class="st5" d="M0,35.40705c0,0,3.34227,0.09375,12.43602-0.9375s18.65625-0.375,25.21875-2.15625
				c6.5625-1.78125,15.46875-4.59375,22.6875-6.1875s10.96875-2.4375,12.1875-1.96875s3,8.0625,4.5,12.5625
				s3.375,7.21875,2.53125,13.78125c-8.53125,2.71875-14.34375,5.625-26.0625,7.5s-16.40625-0.5625-25.125,1.875
				s-16.40625,4.875-21,4.875S0,58.3758,0,54.0633S0,35.40705,0,35.40705z"/>
			<path class="st5" d="M0,74.40704c0,0,3.38994-3.75,5.94423-5.53125s4.71054-2.53125,7.89804-1.40625s3.75,3.84375,3,6.9375
				c-5.90625,2.34375-6,1.125-9.65625,1.59375S0,76.56329,0,76.56329V74.40704z"/>
			<path class="st5" d="M36.52977,62.8758c0,0-2.4375,3-4.21875,5.15625s-3.28125,2.15625-6.9375,1.78125
				s-5.625-0.375-6.375-1.40625s-2.34375-2.71875,0-3.375s5.8125-1.125,10.21875-2.15625S36.52977,62.8758,36.52977,62.8758z"/>
			<path class="st5" d="M19.46727,73.56329c0,0,1.40625,0.28125,2.71875,0s2.15625-0.84375,2.15625-0.84375
				s-1.5-0.71921-2.90625-0.96898S19.46727,73.56329,19.46727,73.56329z"/>
			<path class="st5" d="M80.96727,52.3758c0,0-5.4375,1.6875-11.53125,4.125s-10.6875,4.21875-17.34375,4.59375
				s-7.40625-0.07292-9.5625,1.32291c-2.15625,1.39584-6.5625,5.52232-7.875,7.58408c-1.3125,2.06175,1.125,5.81175,3.375,8.718
				s3.1875,6,4.21875,9.375s0.28125,4.5,1.40625,5.71875s6,0.65625,8.4375,0s9.09375-1.03125,10.21875-1.03125
				s10.5-3.84375,16.03125-6.65625s12-4.125,12-4.125s0.375-3.31295-2.71875-8.5471
				c-3.09375-5.23415-2.71875-11.1404-4.125-14.98415S83.12352,54.6258,80.96727,52.3758z"/>
			<path class="st5" d="M26.40477,138.53204c0,0,4.40625-1.21875,11.4375-1.21875s7.96875,0.09375,10.40625-0.9375
				s6.46875-5.0625,9-5.90625s6.75-1.3125,12.5625-1.40625s6.1875,0.46875,9.28125-1.59375s11.4375-7.59375,14.8125-9.09375
				s6.84375-0.375,7.59375-2.34375s0-5.15625-1.875-9.375s-3.46875-8.34375-5.0625-12.5625s-1.875-7.96875-3.28125-8.8125
				s-7.3125,0.1875-12.375,2.71875s-12.2612,6.5625-16.58372,7.59375s-9.01003-0.46875-12.85378,1.3125
				s-13.03125,7.40625-17.8125,9.28125s-7.78125,1.59375-9,2.53125s-4.5,4.5-5.15625,5.90625s2.15625,3.09375,3.5625,5.90625
				s1.78125,7.875,2.90625,10.5S26.40477,138.53204,26.40477,138.53204z"/>
			<path class="st5" d="M0,111.76245c2.31102,0.14459,4.46727,1.17584,8.02977,2.11334s7.77331,0.84375,9.37103,5.71875
				s3.47272,6.65625,3.37897,8.0625s-1.875,1.6875-5.71875,4.875s-8.0625,6.1875-10.78125,7.96875S0,142.09454,0,142.09454
				V111.76245z"/>
			<path class="st5" d="M0,109.46954c0,0,1.18602-0.9375,2.59227-1.6875s1.21875-1.59375,0.5625-3S0.40773,102.34454,0,101.21954
				C0,104.03204,0,109.46954,0,109.46954z"/>
			<path class="st5" d="M0,98.68829c0,0,1.90215,1.78125,3.65346,3.65625s4.75131,3.375,9.43881,3.75s9.09375,1.03125,11.71875-0.75
				s7.96875-2.625,11.25-4.59375s5.25-4.3125,5.25-4.3125s-2.15625-3.46875-2.34375-6.5625s-1.78125-6.9375-3.46875-8.90625
				s-3.46875-5.84375-4.03125-7.28125s-2.8125-0.03125-7.125,1.28125s-9.84375,3.65625-14.8125,4.40625s-9.52977,0-9.52977,0
				V98.68829z"/>
			<path class="st5" d="M3.65346,110.31329c0,0,3.11125-2.0625,4.91565-2.0625s6.02316-0.75,7.52316,0s2.37317,1.40625,1.04596,3
				s-2.17096,3-3.95221,2.15625S12.3084,110.68829,3.65346,110.31329z"/>
			<path class="st5" d="M125.93602,311.81256c0,0-2-6.03052-3.25-8.15552s-2.375-4.75,0.75-6.125s14.125-5.25,19.375-7.625
				s11.125-4.375,15.375-7s13.5-7.75,15-7s2.375,2.5,4.875,8.75s8.25,12.625,11.375,17s8.5,10.15552,8.5,10.15552H125.93602z"/>
			<path class="st5" d="M82.43602,307.28204c0,0,9.75-3.875,15.5-6s8.125-3,13.75-3.25s10.375-3,16.125-5.75s13.25-4.125,18-5.75
				s9.5-4.75,13-8s10.875-5,10.875-6.375s-1.875-3.125-7.375-12.625s-9.375-16.75-10.5-19.875s-1.5-3.25-4.875-2.875
				s-8.375,5.5-14.75,8.375s-9.5,7.875-13.125,9.125s-4.25,0.125-8.125,1.625s-15.75,6.375-18.875,7.375s-6.625,0.25-8.375,1
				s-8.5,6.47592-9.625,7.67545c-1.125,1.19955-1.25,4.44955,0.625,9.69955s3.25,10.125,3.375,13.5
				S81.68602,306.28204,82.43602,307.28204z"/>
			<path class="st5" d="M0,145.65704c3.24852-0.65625,6.43602-2.61366,8.68602-3.55682
				c2.25-0.94318,2.34375-1.88068,4.21875-0.56818s7.22551,4.125,7.87838,5.34375c0.65287,1.21875,0.55912,8.15625,0.93412,10.03125
				s-0.09375,1.78125-2.25,3.5625s-7.93264,6.9375-9.0757,8.8125s-0.1118,2.15625-2.45555,1.875S0,171.25026,0,171.25026V145.65704z
				"/>
			<path class="st5" d="M13.37352,138.53204c0,0,6.38176,4.40625,7.40963,4.78125c1.02787,0.375,1.59037-1.5,3.18412-2.39063
				s1.21875-1.45313,0-3.51563s-3.08699-4.125-3.18412-5.4375c-0.09713-1.3125-2.04379,0-2.99233,1.125
				S13.37352,138.53204,13.37352,138.53204z"/>
			<path class="st5" d="M24.06102,156.90704c0,0-0.31883-1.125,0.96558-1.59375s1.28442-1.5,1.28442-1.5s-2.53125-0.1875-2.71875,0
				S23.12352,156.43829,24.06102,156.90704z"/>
			<path class="st5" d="M23.87352,151.84454c0,0,0.84375,0.09375,5.625,0s7.3125-1.78125,10.59375-2.15625s8.34375,0,8.34375,0
				s2.90625-4.68336,5.15625-6.32607c2.25-1.64268,3.1875-4.64268,3-5.29893s-2.53125-1.78125-3.09375-1.78125
				s-2.90625,2.25-6.9375,3.09375s-10.59375,0.46875-14.625,0.75s-5.72178,2.90625-7.07964,4.96875
				S23.87352,151.84454,23.87352,151.84454z"/>
			<path class="st5" d="M55.56102,134.96954c0,0,1.78125,0.75,3.1875,0.5625s4.78125-3.25319,9-4.11098
				C62.96727,130.65704,59.95193,132.3369,55.56102,134.96954z"/>
			<path class="st5" d="M62.21727,175.93829c0.90948,2.61475,1.5,3.1875,4.59375,3.5625
				c3.09375,0.375,7.59375,0.75,12.46875-1.78125s14.625-7.3125,24.28125-11.8125s12.75-5.71875,13.40625-7.59375
				s-0.375-5.0625-2.71875-9.5625s-4.59375-14.53125-7.3125-20.625s-3.17519-8.71875-5.15009-9
				c-1.97491-0.28125-8.06866,2.8125-15.28741,6.84375s-7.40625,5.4375-14.71875,6.46875s-9.75,3.46875-12.5625,7.21875
				s-4.03125,6.5625-6.09375,8.8125s-3.28125,3.29167-1.03125,6.84897C54.34227,158.87579,59.96727,169.46954,62.21727,175.93829z"
				/>
			<path class="st5" d="M66.93602,181.90704c0,0,2.5,0.97632,10.625-2.13684s15.875-5.55171,20.875-8.51994
				c5-2.96822,13.25-6.71822,15.875-8.09322s5.125-1.5,6.125,1.875s6.25,15.875,8.375,20.75s4.375,9.625,2.625,11.625
				s-11,6.125-16.75,10s-9.75,4.875-12.625,5s-6.625-4-9.25-9.5s-2.75-7.875-6.625-10.375S66.43602,185.28204,66.93602,181.90704z"
				/>
			<path class="st5" d="M107.56102,249.03204c2.25,2.25,5.375,3.125,8.125,3.125s3.58781-1.5,5.73141-4
				c2.14359-2.5,4.26859-2.875,7.64359-4.375s8-4.125,11.625-6.25s5.75-1.375,7.125-2.625s2.5-2,0-5.75s-5.75-10.875-8.125-16
				s-4.25-9.75-5.25-12.5s-3.375-1.125-8.75,2.625s-12.125,6.50554-15.75,9.12776c-3.625,2.62224-8.75,5.99724-11.5,7.62224
				s-4.125,1.74857-3,5.68678s4.375,9.31322,6.25,14.06322S107.56102,249.03204,107.56102,249.03204z"/>
			<path class="st5" d="M57.56102,196.65704c0,0,1.625-1.25,5.25-3.5c3.625-2.25,4.75-4.75,5.75-4.875s9.5,1.625,13.375,4.1875
				s6.125,4.0625,8.25,10.1875s0.5,10.125,1.125,14.25s1.875,5,1.625,7.375s-1.625,5.375-6.75,4.625s-13.625-3.625-18.25-6
				s-6.625-11.375-8.375-13.625S56.68602,204.40704,57.56102,196.65704z"/>
			<path class="st5" d="M93.56102,216.53204c-1.90473,0.16806,0,2.75,0.875,2.75s1.25-0.75,2.125-1.375
				S97.81102,216.15704,93.56102,216.53204z"/>
			<path class="st5" d="M92.96863,208.03204c-1.17891-2.37024-0.2174,3.75,0,5.125c0.21739,1.375,0.96739,0.75,2.84239,0.875
				S96.03973,214.20662,92.96863,208.03204z"/>
			<path class="st5" d="M87.68602,231.53204c-0.86416,0.51851-1.625,1.25-0.875,3s1.5,5.75,3.25,8.75s2.74037,4.5,2.68269,5.25
				s2.5589,0.25,4.37561-1.125c1.8167-1.375,2.8167-3.77663,1.5667-7.20081c-1.25-3.42419-3.87411-6.79919-4.18706-8.67419
				S92.68602,228.53204,87.68602,231.53204z"/>
			<path class="st5" d="M0,174.02974c1,0.12631,5.92291-1.64198,8.19643,0s4.54703,5.43118,5.68379,9.34668
				s2.27351,7.45207,0.63153,11.36758c-1.64198,3.9155-2.38957,1.76828-3.59461,7.32576
				c-1.20504,5.5575-2.60005,12.49069-4.86792,14.38748C2.89156,219.09821,0,220.00528,0,220.00528V174.02974z"/>
			<path class="st5" d="M0,223.84454c1.93602,2.15625,3.08584,2.34375,7.66718,3.75s7.39384,2.25,9.08134,3.84375
				s2.25,2.34375,1.59375,6.1875s-1.5,7.03125-4.125,11.71875s-4.5,6.375-7.5,8.90625S0,264.62579,0,264.62579V223.84454z"/>
			<path class="st5" d="M0,222.71954c1.93602,0.375,3.06102,0.5625,4.56102,0s1.03125-1.125,1.3125-2.25
				s-0.46875-1.49103-2.4375-0.46426S0,221.68829,0,221.68829V222.71954z"/>
			<path class="st5" d="M0,269.21954c3.81102-6.1875,5.96727-8.0625,11.21727-11.0625s6.9375-3.84375,9-4.6875
				s7.3125,0.65625,8.625,1.6875s2.53125,3.46875,0.9375,8.34375s-3,5.625-3.75,10.21875s-0.1875,6.46875-2.53125,7.6875
				s-5.8125,1.21875-7.40625,2.90625s-6.46875,1.59375-10.96875,0.9375S0,283.93829,0,283.93829V269.21954z"/>
			<path class="st5" d="M0,294.90704c2.02977,1.40625,3.34227,1.875,6.24852,1.875s3.75-0.375,5.0625,1.96875
				s2.34375,5.4375,2.71875,7.59375s-0.5625,5.46802-0.5625,5.46802H0V294.90704z"/>
			<path class="st5" d="M0,293.12579c2.21727-0.09375,2.96727,1.3125,4.65477,1.78125s2.54961-0.9375,4.6498-1.3125
				s1.36856-4.03125,0-4.875S5.75148,288.15704,0,289.18829C0,291.15704,0,293.12579,0,293.12579z"/>
			<path class="st5" d="M15.81102,311.81256c0.84375-4.62427,0.03984-7.06177-0.54258-10.24927
				c-0.58242-3.1875-2.17617-5.34375-2.83242-7.78125s0.78984-4.40625,2.83242-6.1875s2.88633-2.71875,10.10508-2.71875
				s13.875-0.15207,17.25,0.81461c3.375,0.96664,8.15625,3.02914,11.25,6.31039s4.21875,5.15625,1.875,8.8125
				s-6.09375,7.74854-6.75,10.99927C42.15477,311.81256,15.81102,311.81256,15.81102,311.81256z"/>
			<path class="st5" d="M51.15477,311.81256c2.90625-5.09302,6.09375-8.28052,8.4375-10.53052s7.5-2.25,11.8125-1.78125
				s5.8125,2.25,5.625,4.3125s-0.46875,4.59375-3,5.34375s-4.125,1.46729-4.5,2.65552
				C65.02977,311.81256,51.15477,311.81256,51.15477,311.81256z"/>
			<path class="st5" d="M73.65477,311.81256c3.28125-0.21802,5.25-1.06177,9.75-2.18677s9.75-5.15625,13.875-4.96875
				s4.3125,0.5625,4.96875,2.625s0,4.53052,0,4.53052H73.65477z"/>
			<path class="st5" d="M104.21727,311.81256c0.375-3.31177,0.09375-4.62427,0-5.74927s1.6875-1.21875,3.9375-2.625
				s4.5-2.34375,6.375-3.09375s2.90625-2.34375,4.21875,0s4.125,5.31104,4.125,11.46802
				C118.46727,311.81256,104.21727,311.81256,104.21727,311.81256z"/>
			<path class="st5" d="M98.02977,302.96954c0,0,2.15625,0.09375,3.375,0.75s2.15625-0.28125,4.21875-1.59375
				s4.21875-1.6875,4.21875-1.6875S103.24645,300.31039,98.02977,302.96954z"/>
			<path class="st5" d="M58.18602,294.90704c1.46593,1.25604,1.6875,2.15625,2.8125,2.34375s9.375-0.28125,11.0625-0.46875
				s2.54169-3.49567,3.05209-5.16971s-0.61459-4.20529-3.33334-5.23654s-9-1.125-11.71875,0.46875s-4.96875,2.53125-3.84375,3.75
				S56.74099,293.66891,58.18602,294.90704z"/>
			<path class="st5" d="M45.99852,283.75079c1.5,0.84375,3.46875,2.90625,5.625,3.9375s3.09375,0.09375,4.6875-1.40625
				s0.5625-2.4375,5.53125-2.53125s8.53125-0.28125,9.375-1.21875s0.75-2.90625-1.875-5.4375s-6.5625-6.1875-8.0625-6.28125
				s-4.6875,1.21875-8.34375,4.5s-4.21875,3.9375-5.0625,5.8125S45.99852,283.75079,45.99852,283.75079z"/>
			<path class="st5" d="M73.65477,298.33981c-0.9562,1.51477,2.09375,0.50919,2.84375,0.91321s0.0625-1.19659-0.375-1.95877
				C75.68602,296.53204,74.52293,296.96454,73.65477,298.33981z"/>
			<path class="st5" d="M33.18602,257.40704c-0.0625-1.1875,0.125-2.0625,2.0625-3.3125s2.625-3.5,3.0625,0.4375
				s1.25,9.59821,2.1875,14.9241s1.875,5.8884,2.4375,7.7009s0.17774,4.375-4.87988,5.3125s-7.43262,0.80515-7.24512-3.00369
				c0.1875-3.80881,0.75-6.24631,1.6875-11.18381S33.18602,257.40704,33.18602,257.40704z"/>
			<path class="st5" d="M30.53689,269.03204c-1.47587,3.1875-1.60087,4-1.60087,6.4375s-0.125,4,0.3125,5.4375
				s0.6875,2.22202-1.4375,2.04849c-2.125-0.17349-2.375-0.04849-1.5625-2.11099s1.625-1.6777,1.5625-4.83884
				c-0.0625-3.16116-0.3125-3.97366,0.8125-5.59866S30.53689,269.03204,30.53689,269.03204z"/>
			<path class="st5" d="M14.12352,254.46954c-0.83924,1.84634,3.3125-1.37619,3.625-2.15685s0.75-1.84315,0.375-3.34315
				s-1.125-2-2.1875,0S15.06102,252.40704,14.12352,254.46954z"/>
			<path class="st5" d="M19.93602,249.21954c1.18428,1.07703,2.75,1.43102,5.4375,2.12177
				c2.6875,0.69073,4.20173,0.69073,5.16337,1.56573c0.96163,0.875,1.89913-0.1875,3.39913-1.25s2.30927-1.5625,3.02963-3.5
				s-1.09213-3.625-1.15463-6.75s0.3125-4.8125-1.0625-5.125s-3.9375-1-5.5625-1.625s-2.5-0.9375-4.9375,0.625
				s-3.1875,0.625-3.5625,4.1875s-0.9375,5.1875-1.1875,6.5625S19.22481,248.57275,19.93602,249.21954z"/>
			<path class="st5" d="M16.81102,229.02435c0,0,2.75,0.94519,3.5625,2.44519s0.625,2.375,2.0625,2.25s2.125-0.875,1.125-1.5625
				S20.06102,229.26666,16.81102,229.02435z"/>
			<path class="st5" d="M68.74852,274.34454c0.80206,0.61337,1.5625,1.78922,2.3125,1.48834
				c0.75-0.30084,0.4375-1.73834,1.125-2.92584S66.77058,272.83188,68.74852,274.34454z"/>
			<path class="st5" d="M64.09999,270.34454c0.5974,0.91711,2.27353-0.00934,4.02353,0.46408s2.32121,0.09842,3.56686-0.90158
				s5.80814-4.3125,6.74564-4.8125s-2.14137-0.125-6.19568,0.75C68.18602,266.71954,63.32646,269.15704,64.09999,270.34454z"/>
			<path class="st5" d="M91.68602,260.09454c-2.6133,1.25574-4.6875,1.3125-4.5,0s0.875-4.0625,3.5625-6.375
				s6.6756-3.3125,8.49405-4.125s2.94345-1.6875,4.00595-0.4375s1.1875,3.375,2,4.25s0.9375,2.3125-1.75,2.6875
				S96.49852,257.78204,91.68602,260.09454z"/>
			<path class="st5" d="M108.56102,254.40704c0.66439,1.32877,1.6875,0.5,1.9375-0.5s0.375-1.18869-0.96875-1.59435
				S107.37352,252.03204,108.56102,254.40704z"/>
			<path class="st5" d="M38.96727,239.87579c0.12241-2.05887-0.09375-2.90625,2.4375-3.84375s9-4.52713,14.53125-4.65419
				s9.50167-2.93956,14.36021-3.50206s9.17104,0.89005,11.04604,1.8044s2.625,4.5706,4.5,8.8831s2.53125,7.59375,2.15625,10.96875
				s-2.53125,7.3125-3.1875,9.46875s-1.21875,3.375-2.34375,3.375s-8.8125,0-13.59375,1.5s-11.625,6.56393-15.75,8.53198
				c-4.125,1.96802-4.59375,4.37024-6.5625,3.591s-2.7359-2.49442-3.43045-6.98056
				c-0.69455-4.48618-2.2883-10.99265-2.94455-17.67691S38.85379,241.78453,38.96727,239.87579z"/>
			<path class="st5" d="M62.74852,221.53204c0.84141,0.73624,0.93237,2.8125,0.77869,3.8125
				c-0.15369,1-1.09119,1.4375-2.52869,2.125s0-1.6875,0.4375-2.96875S61.74852,220.65704,62.74852,221.53204z"/>
			<path class="st5" d="M8.12352,221.23778c0.18546-3.72003,0.3125-6.26823,2-9.33073s3.9375-8.125,4.8125-10.75
				s2.25-2.9375,4.9375-4s6.4375-1.6875,8.875-3.4375s8.5-0.8125,11.5-1.5s5.5-1.25,7-0.8125s6.875,5.75,7.75,7
				s0.1875,8.6875,1.625,13s2.1875,5.48793,1.5,7.99397c-0.6875,2.50603-2.875,5.38103-3.8125,7.75603s-2.75,3.5625-7.125,4.75
				s-7.375,1.75-8.75,2.625s-3.875-0.5-8.0625-2.125s-5.46504-1.68916-9.95127-4.65709
				c-4.48623-2.96791-7.11123-1.78041-9.23623-1.59291S7.81102,227.50603,8.12352,221.23778z"/>
			<path class="st5" d="M52.74852,193.40704c1.2269,1.2849,1.5,2.1875,2.375,2.5625s0.375-0.8125,1.75-1.625s2.25-1.8125,1-1.875
				S51.73203,192.34251,52.74852,193.40704z"/>
			<path class="st5" d="M50.88588,190.96954c2.13914,0.39906,5.61264-0.25,7.92514-0.6875s2.6875-1.77831,4.3125-2.95166
				c1.625-1.17334,1.875-3.04834,1.25-4.48584c-0.625-1.4375-5.125-2.5-7.8125-2.6875s-4.66278-0.5-5.67514,2.875
				C49.87352,186.40704,49.21074,190.65704,50.88588,190.96954z"/>
			<path class="st5" d="M17.24852,187.33038c0.52581,1.88214,1.5,3.70471,3.125,5.10944s3.3125,0.46722,5.9375-0.34528
				s7.9375-2.625,12.8125-3.125s6.25-0.98001,7.875-3.39626s3.28653-6.29124,5.61201-11.04124
				c2.32549-4.75,2.95049-6.0625,1.57549-9.3125s-4.4375-9.125-5.3125-10.75s-2-2.25-7-1.875s-10.875,0.875-12.5,2
				s-7.8125,7.5625-10.9375,10s-3,3.5-5.0625,4.25s-0.0625,3.5,1.0625,5.25S15.49852,181.06624,17.24852,187.33038z"/>
			<path class="st5" d="M55.543,172.59454c0.45935-2.19144,1.90894-3.75,2.83848-1.875c0.92954,1.875,1.49204,5.0625,2.30454,6
				s-1.3125,0.5625-2.9375,0.5625s-3.625,1.33565-3.4375,0.07408C54.49852,176.09454,55.14998,174.46954,55.543,172.59454z"/>
		</g>
	</g>
	<g id="Pillar">
		<g>
			<defs>
				<rect id="SVGID_13_" x="601.06104" y="148.15704" width="22.56102" height="36.375"/>
			</defs>
			<clipPath id="SVGID_2_">
				<use xlink:href="#SVGID_13_"  style="overflow:visible;"/>
			</clipPath>
			<g class="st6">
				<g>
					<rect x="601.18567" y="151.93829" class="st7" width="23.18652" height="27.46875"/>
					<path class="st4" d="M623.62207,152.68829v25.96875h-21.68604v-25.96875H623.62207 M625.12207,151.18829h-1.5h-21.68604h-1.5
						v1.5v25.96875v1.5h1.5h21.68604h1.5v-1.5v-25.96875V151.18829L625.12207,151.18829z"/>
				</g>
				<rect x="601.93604" y="170.03204" class="st8" width="21.68602" height="8.625"/>
			</g>
		</g>
		<g>
			<g>
				<path class="st9" d="M550.31067,126.40704v-45.375c0-5.51758,5.81445-9.02197,9.47852-9.93506
					c0.30762-0.07666,0.52148-0.36035,0.52148-0.69043V67.992c0-0.30566-0.18848-0.57666-0.46973-0.67432
					c-2.86621-0.99756-9.53027-4.16748-9.53027-12.03564c0-9.0498,8.26855-11.43848,13.20996-12.86572
					c0.42578-0.12305,0.82715-0.23877,1.19629-0.35156c4.13574-1.26367,6.09961-2.54541,7.5498-7.21436
					c0.13281-0.43115,0.52734-0.72168,0.98145-0.72168c0.45313,0,0.84766,0.28955,0.98242,0.7207
					c1.44922,4.66992,3.41211,5.95166,7.54883,7.21533c0.36914,0.11279,0.77051,0.22852,1.19727,0.35156
					c4.94043,1.42725,13.20898,3.81592,13.20898,12.86572c0,7.86865-6.66406,11.03808-9.52832,12.03564
					c-0.28223,0.09766-0.47168,0.36865-0.47168,0.67432v2.41455c0,0.33008,0.21484,0.61377,0.52148,0.68994
					c3.66504,0.91309,9.47852,4.41797,9.47852,9.93555v45.375H550.31067z"/>
				<path class="st4" d="M573.2486,34.87876c0.11279,0,0.22565,0.06474,0.26587,0.19424
					c1.55243,4.99962,3.79553,6.41011,8.04657,7.70905c4.5,1.375,13.875,3.25,13.875,12.5
					c0,7.46411-6.51135,10.45166-9.02563,11.32702c-0.5871,0.20439-0.97437,0.76129-0.97437,1.38293v2.41473
					c0,0.66696,0.44342,1.25668,1.09064,1.41792c2.90564,0.72392,8.90936,3.79301,8.90936,9.20738c0,6.25,0,44.625,0,44.625
					h-22.1875h-22.1875c0,0,0-38.375,0-44.625c0-5.41437,6.00372-8.48346,8.90942-9.20738
					c0.64716-0.16124,1.09058-0.75096,1.09058-1.41792V67.992c0-0.62164-0.38727-1.17854-0.9743-1.38293
					c-2.51434-0.87537-9.0257-3.86291-9.0257-11.32702c0-9.25,9.375-11.125,13.875-12.5
					c4.2511-1.29893,6.4942-2.70943,8.04663-7.70905C573.02289,34.9435,573.13574,34.87876,573.2486,34.87876 M573.2486,33.37876
					c-0.78387,0-1.46637,0.50211-1.69843,1.2494c-1.32935,4.28104-3.00348,5.48218-7.05243,6.71936
					c-0.36511,0.11154-0.76288,0.22636-1.18536,0.34843c-4.80585,1.38829-13.75134,3.97244-13.75134,13.58609
					c0,8.58372,7.67902,11.92425,10.03253,12.74363l-0.03217,2.35518c-2.82745,0.72055-10.00037,3.99405-10.00037,10.65118v44.625
					v1.5h1.5h22.1875h22.1875h1.5v-1.5v-44.625c0-6.65669-7.17218-9.93028-10-10.65111V67.992
					c2.32104-0.78572,10-4.12629,10-12.70996c0-9.61365-8.9455-12.1978-13.75134-13.58609
					c-0.42249-0.12207-0.82025-0.23689-1.1853-0.34843c-4.04895-1.2372-5.72308-2.43832-7.05243-6.71935
					C574.7149,33.88086,574.03241,33.37876,573.2486,33.37876L573.2486,33.37876z"/>
			</g>
			<path class="st10" d="M551.06104,79.65704h44.375v1.59375h-44.375V79.65704z M551.06104,84.34454h44.375v-1.59375h-44.375
				V84.34454z M551.06104,102.81329h44.375v-1.59375h-44.375V102.81329z M551.06104,121.28204h44.375v-1.59375h-44.375V121.28204z
				 M576.34229,95.75079c0-1.70863-1.38513-3.09375-3.09375-3.09375s-3.09375,1.38512-3.09375,3.09375
				c0,1.70863,1.38513,3.09375,3.09375,3.09375S576.34229,97.45943,576.34229,95.75079z M576.34229,114.23517
				c0-1.70863-1.38513-3.09375-3.09375-3.09375s-3.09375,1.38512-3.09375,3.09375c0,1.70863,1.38513,3.09375,3.09375,3.09375
				S576.34229,115.9438,576.34229,114.23517z"/>
			<g>
				<defs>
					<path id="SVGID_15_" d="M586.52661,71.82466c-0.64716-0.16124-1.09058-0.75095-1.09058-1.41792V67.992
						c0-0.62164,0.38727-1.17854,0.9743-1.38293c2.51434-0.87537,9.0257-3.86291,9.0257-11.32703c0-9.25-9.375-11.125-13.875-12.5
						c-4.2511-1.29893-6.4942-2.70942-8.04663-7.70905c-0.08044-0.25901-0.45135-0.25901-0.5318,0
						c-1.55243,4.99963-3.79553,6.41011-8.04657,7.70905c-4.5,1.375-13.875,3.25-13.875,12.5
						c0,7.46412,6.51135,10.45166,9.02563,11.32703c0.5871,0.20439,0.97437,0.76128,0.97437,1.38293v2.41473
						c0,0.66697-0.44342,1.25668-1.09064,1.41792c-2.90564,0.72392-8.90936,3.79301-8.90936,9.20738c0,6.25,0,44.625,0,44.625
						h22.1875h22.1875c0,0,0-38.375,0-44.625C595.43604,75.61768,589.43231,72.54858,586.52661,71.82466z"/>
				</defs>
				<clipPath id="SVGID_3_">
					<use xlink:href="#SVGID_15_"  style="overflow:visible;"/>
				</clipPath>
				<path class="st11" d="M577.95972,41.32869c6.85132,4.32836,9.85132,6.07836,9.85132,13.32836s-2.625,8.5-5.5,11.75
					c-2.875,3.25-2.10132,4.625,0.57434,6.125s3.17566,1.875,3.17566,12.75s0,40.375,0,40.375h9.375V41.32869H577.95972z"/>
			</g>
			<g>
				<defs>
					<path id="SVGID_17_" d="M551.06104,79.65704h44.375v1.59375h-44.375V79.65704z M551.06104,84.34454h44.375v-1.59375h-44.375
						V84.34454z M551.06104,102.81329h44.375v-1.59375h-44.375V102.81329z M551.06104,121.28204h44.375v-1.59375h-44.375V121.28204z
						 M576.34229,95.75079c0-1.70863-1.38513-3.09375-3.09375-3.09375s-3.09375,1.38512-3.09375,3.09375
						c0,1.70863,1.38513,3.09375,3.09375,3.09375S576.34229,97.45943,576.34229,95.75079z M576.34229,114.23517
						c0-1.70863-1.38513-3.09375-3.09375-3.09375s-3.09375,1.38512-3.09375,3.09375c0,1.70863,1.38513,3.09375,3.09375,3.09375
						S576.34229,115.9438,576.34229,114.23517z"/>
				</defs>
				<clipPath id="SVGID_4_">
					<use xlink:href="#SVGID_17_"  style="overflow:visible;"/>
				</clipPath>
				<path class="st12" d="M577.95972,41.32869c6.85132,4.32836,9.85132,6.07836,9.85132,13.32836s-2.625,8.5-5.5,11.75
					c-2.875,3.25-2.10132,4.625,0.57434,6.125s3.17566,1.875,3.17566,12.75s0,40.375,0,40.375h9.375V41.32869H577.95972z"/>
			</g>
		</g>
		<g>
			<g>
				<path class="st7" d="M543.81067,244.15704V129.70392c0-2.64502,2.15234-4.79688,4.79688-4.79688h49.28125
					c2.64453,0,4.79688,2.15186,4.79688,4.79688v114.45313H543.81067z"/>
				<path class="st4" d="M597.88916,125.65704c2.23505,0,4.04688,1.81186,4.04688,4.04688v113.70313h-57.375V129.70392
					c0-2.23502,1.81183-4.04688,4.04688-4.04688H597.88916 M597.88916,124.15704h-49.28125
					c-3.05859,0-5.54688,2.48831-5.54688,5.54688v113.70313v1.5h1.5h57.375h1.5v-1.5V129.70392
					C603.43604,126.64536,600.94769,124.15704,597.88916,124.15704L597.88916,124.15704z"/>
			</g>
			<g>
				<defs>
					<path id="SVGID_19_" d="M601.93604,243.40704h-57.375V129.70392c0-2.23502,1.81183-4.04688,4.04688-4.04688h49.28125
						c2.23499,0,4.04688,1.81185,4.04688,4.04688V243.40704z"/>
				</defs>
				<clipPath id="SVGID_5_">
					<use xlink:href="#SVGID_19_"  style="overflow:visible;"/>
				</clipPath>
				<path class="st13" d="M587.38916,125.65704c2.23505,0,4.04688,1.81183,4.04688,4.04688v113.70313h10.5v-117.75H587.38916z"/>
			</g>
		</g>
	</g>
	<defs>
		
			<filter id="Adobe_OpacityMaskFilter" filterUnits="userSpaceOnUse" x="325.56104" y="226.71085" width="328.05322" height="281.9462">
			<feColorMatrix  type="matrix" values="1 0 0 0 0  0 1 0 0 0  0 0 1 0 0  0 0 0 1 0"/>
		</filter>
	</defs>
	<mask maskUnits="userSpaceOnUse" x="325.56104" y="226.71085" width="328.05322" height="281.9462" id="Circle_1_">
		<g class="st14">
			<rect class="st4" width="623.62207" height="311.81256"/>
		</g>
	</mask>
	<g id="Circle" class="st15">
		<g>
			<g>
				<path class="st16" d="M557.83215,417.40704c-31.14941,0-60.32327-15.26563-78.04007-40.83496
					c-29.78223-42.98438-19.04199-102.18555,23.94336-131.96875c15.94925-11.05127,34.59769-16.89258,53.92972-16.89258
					c31.14941,0,60.32324,15.26563,78.04004,40.83496c29.78223,42.98438,19.04199,102.18555-23.94336,131.96973
					C595.81262,411.56622,577.16418,417.40704,557.83215,417.40704z"/>
				<path class="st4" d="M557.66553,228.71082c29.74384-0.00131,58.99451,14.10443,77.21692,40.40433
					c29.51624,42.59991,18.90979,101.06155-23.69012,130.57773c-16.29999,11.29376-34.92639,16.71417-53.36078,16.71417
					c-29.74384,0-58.99454-14.10443-77.21695-40.4043c-29.51617-42.59991-18.90976-101.06155,23.69016-130.57773
					C520.60474,234.13126,539.23114,228.71164,557.66553,228.71082 M557.6698,226.71085v2l-0.00153-2
					c-19.54047,0.00085-38.38617,5.90366-54.50256,17.07025c-21.04233,14.57956-35.14761,36.48083-39.71747,61.66937
					c-4.56982,25.18848,0.94278,50.64896,15.52243,71.69131c17.90302,25.83899,47.38376,41.26526,78.86087,41.26526
					c19.53638,0,38.38214-5.90277,54.49982-17.07025c21.04236-14.57953,35.14758-36.48083,39.71747-61.66937
					c4.56982-25.18851-0.94281-50.64899-15.52246-71.69131C618.62335,242.13712,589.14423,226.71085,557.6698,226.71085
					L557.6698,226.71085z"/>
			</g>
			<g>
				<polygon class="st17" points="499.78622,272.07501 504.02646,244.56232 533.34387,252.22052 549.20618,228.39874 
					570.30969,249.11115 597.77161,237.52863 605.04504,265.19025 632.35461,265.92853 631.23254,285.08771 				"/>
				<path class="st4" d="M549.32843,229.56924l20.81256,20.42734l27.12512-11.44061l7.19733,27.36884l27.0976,0.73224
					l-1.03156,17.60754l-129.88126-12.85754l3.99289-25.90927l29.03107,7.58368L549.32843,229.56924 M549.08496,227.22852
					l-1.00507,1.50937l-15.06348,22.62195l-27.99619-7.31335l-1.60843-0.42017l-0.2532,1.64301l-3.99289,25.90927l-0.24118,1.56516
					l1.57593,0.15601l129.88126,12.85754l1.55383,0.15381l0.09137-1.55878l1.03156-17.60754l0.09052-1.54538l-1.54742-0.04181
					l-25.97345-0.70187l-6.91132-26.28125l-0.43988-1.67279l-1.59375,0.67218l-26.20453,11.05237l-20.09949-19.72751
					L549.08496,227.22852L549.08496,227.22852z"/>
			</g>
			<g>
				<path class="st18" d="M557.83508,398.60529c-4.5498,0-9.14453-0.41504-13.65918-1.2334
					c-19.9834-3.62598-37.35843-14.81641-48.92484-31.50977c-11.56738-16.69336-15.94043-36.89258-12.31543-56.87598
					c6.56836-36.2002,37.99515-62.47412,74.72659-62.47412c4.54883,0,9.14453,0.41553,13.65918,1.23438
					c19.9834,3.62549,37.3584,14.81592,48.9248,31.50928c11.56738,16.69336,15.94043,36.89258,12.31543,56.87598
					C625.99329,372.33185,594.56653,398.60529,557.83508,398.60529z"/>
				<path class="st4" d="M557.66211,247.51221c4.4458-0.00012,8.95142,0.39645,13.48083,1.2182
					c40.77435,7.39752,67.83167,46.44855,60.43414,87.22293c-6.57581,36.24503-38.16571,61.65231-73.74207,61.65231
					c-4.44586,0-8.95148-0.39642-13.4809-1.2182c-40.77435-7.39752-67.83163-46.44855-60.43414-87.2229
					C490.49576,272.91956,522.08575,247.5134,557.66211,247.51221 M557.66461,245.51224v2l-0.00092-2h-0.00165
					c-37.21558,0.00122-69.05624,26.62073-75.70993,63.29529c-7.58255,41.79425,20.2507,81.96524,62.04501,89.54782
					c4.57288,0.82965,9.22858,1.25031,13.83789,1.25031c37.21539,0,69.05603-26.61951,75.70996-63.29529
					c7.58252-41.79428-20.25073-81.96527-62.04504-89.54782C566.92712,245.93289,562.27222,245.51224,557.66461,245.51224
					L557.66461,245.51224z"/>
			</g>
		</g>
		<g>
			<g>
				<path class="st16" d="M451.06161,507.65704c-33.25586,0-64.52051-12.9502-88.03516-36.46484
					c-48.54248-48.54297-48.54248-127.52734,0-176.07031c23.51465-23.51465,54.7793-36.46533,88.03516-36.46533
					c33.25488,0,64.51956,12.95068,88.03421,36.46533c48.54199,48.54297,48.54199,127.52734,0,176.07031
					C515.58118,494.70685,484.3165,507.65704,451.06161,507.65704z"/>
				<path class="st4" d="M451.06104,259.65704c31.60638,0,63.21283,12.05743,87.3277,36.1723
					c48.22974,48.22977,48.22974,126.42566,0,174.6554c-24.11487,24.11487-55.72131,36.1723-87.3277,36.1723
					s-63.21283-12.05743-87.3277-36.1723c-48.22977-48.22974-48.22977-126.42563,0-174.6554
					C387.84821,271.71448,419.45462,259.65704,451.06104,259.65704 M451.06104,257.65704
					c-33.52225,0-65.03806,13.05426-88.74191,36.75809c-23.7038,23.70383-36.75809,55.21964-36.75809,88.74191
					c-0.00003,33.52228,13.05429,65.03809,36.75809,88.74194c23.70389,23.7038,55.2197,36.75806,88.74191,36.75806
					s65.03809-13.05426,88.74188-36.75806c23.70386-23.70386,36.75812-55.21967,36.75812-88.74194
					s-13.05426-65.03809-36.75812-88.74191C516.09912,270.7113,484.58331,257.65704,451.06104,257.65704L451.06104,257.65704z"/>
			</g>
			<g>
				<polygon class="st17" points="363.43564,295.03497 403.08408,298.05646 417.98154,263.58966 450.06845,285.38068 
					482.81161,263.99396 498.7081,298.05646 537.06067,295.03302 537.06067,317.18243 363.43564,326.07111 				"/>
				<path class="st4" d="M418.311,264.71954l31.75,21.5625l32.4375-21.1875l15.75,33.75l38.06253-3v20.625l-172.12503,8.8125
					v-29.4375l39.375,3L418.311,264.71954 M417.65359,262.45987l-0.71945,1.66455l-14.32565,33.14319l-38.30853-2.91873
					l-1.61395-0.12296v1.61862v29.4375v1.57874l1.57669-0.08069l172.125-8.8125l1.42334-0.07288v-1.42517v-20.625v-1.62286
					l-1.61786,0.1275l-37.02536,2.91827l-15.31003-32.80725l-0.73145-1.56738l-1.44812,0.94586l-31.60101,20.64114
					l-30.92349-21.00119L417.65359,262.45987L417.65359,262.45987z"/>
			</g>
			<g>
				<circle class="st18" cx="451.06064" cy="383.15704" r="99.75"/>
				<path class="st4" d="M451.061,284.40704c54.53812,0,98.75003,44.21188,98.75003,98.75s-44.21191,98.75-98.75003,98.75
					s-98.75-44.21185-98.75-98.75S396.52289,284.40704,451.061,284.40704 M451.061,282.40704
					c-55.55374,0-100.75,45.19626-100.75,100.75s45.19626,100.75,100.75,100.75s100.75003-45.19629,100.75003-100.75
					S506.61475,282.40704,451.061,282.40704L451.061,282.40704z"/>
			</g>
		</g>
	</g>
	<g id="Sakura">
		<path class="st19" d="M606.06104,11.40705c0,0,0.1875,3.9375-3.9375,7.5s-12,2.4375-12,2.4375
			S588.62354,11.03205,606.06104,11.40705z"/>
		<path class="st20" d="M577.37354,21.51312c0,0-2.8125,6.01892-9.375,7.89392s-9.1875,0.9375-9.1875,0.9375
			S554.87354,15.68169,577.37354,21.51312z"/>
		<path class="st21" d="M548.12354,20.14247c0,0,1.5-10.06789-14.0625-8.74541
			C531.81104,20.14247,541.74854,21.5654,548.12354,20.14247z"/>
		<path class="st21" d="M539.68604,38.59455c0,0-5.0625,13.875-15,10.3125
			C524.68604,39.71955,526.18604,39.34455,539.68604,38.59455z"/>
		<path class="st22" d="M554.87354,57.15705c0,0-1.60913,3.9375-6.71082,7.125c-5.10168,3.1875-8.47668,2.625-8.47668,2.625
			S536.49854,55.28205,554.87354,57.15705z"/>
		<path class="st23" d="M606.06232,74.40704c0,0,5.24872-0.75,8.62372-6s1.125-8.625,1.125-8.625
			S597.6261,65.96954,606.06232,74.40704z"/>
		<path class="st24" d="M536.31104,82.84454c0,0-5.8125,7.125-11.625,5.8125s-6-5.8125-6-5.8125
			S522.62354,76.28204,536.31104,82.84454z"/>
		<path class="st25" d="M514.93604,125.96954c0,0,11.0625,1.3125,14.25-3s-1.6875-9.9375-1.6875-9.9375
			S525.24854,118.28204,514.93604,125.96954z"/>
		<path class="st26" d="M507.62354,152.21954c0,0-1.3125,11.8125-14.25,10.5
			C488.49854,153.53204,498.06104,151.28204,507.62354,152.21954z"/>
		<path class="st27" d="M504.81104,195.90704c0,0-5.0625,15.1875-17.25,11.0625c1.125-2.0625-1.5-2.625-1.5-2.625
			S486.24854,193.28204,504.81104,195.90704z"/>
		<path class="st28" d="M493.37354,109.46954c0,0-2.8125,13.125-18.9375,12.1875
			C477.06104,113.03204,482.49854,108.71954,493.37354,109.46954z"/>
		<path class="st29" d="M435.24854,113.03204c0,0-3.75,11.625-11.4375,11.0625
			C419.49854,113.03204,423.62354,113.96954,435.24854,113.03204z"/>
		<path class="st30" d="M504.06104,61.94885c0,0,1.6875,15.45819-10.6875,13.39569
			C482.68604,65.59454,495.81104,64.30316,504.06104,61.94885z"/>
		<path class="st30" d="M501.99854,23.59455c0,0,14.4375,2.02465,16.6875-2.08142s0-7.10607,0-7.10607
			S502.37354,14.03205,501.99854,23.59455z"/>
		<path class="st31" d="M467.49854,25.3607c0,0,12.1875,0.6335,15.1875-3.84758c-2.8125-7.10806-14.25-5.60607-15.1875-3.54358
			S467.49854,25.3607,467.49854,25.3607z"/>
		<path class="st21" d="M397.37354,17.21955c0,0,7.6875,6.18353,18.9375-2.81448
			C406.84229,9.34455,400.37354,8.78205,397.37354,17.21955z"/>
		<path class="st32" d="M324.24854,21.71955c0,0,1.125-9.5625,14.4375-9.375
			C340.37354,20.82487,336.06104,23.40705,324.24854,21.71955z"/>
		<path class="st33" d="M278.12354,107.96954c0,0-4.125,15.9375-15.1875,12.5625
			C262.93604,109.84454,266.31104,108.34454,278.12354,107.96954z"/>
		<path class="st21" d="M141.06102,127.84454c0,0-4.875,14.8125-17.25,9.5625
			C124.93602,125.96954,129.43602,129.15704,141.06102,127.84454z"/>
		<path class="st34" d="M235.93602,207.90704c0,0,0,14.625-14.4375,13.5c0-3.1875-2.4375-3-2.4375-3
			S214.37352,209.96954,235.93602,207.90704z"/>
		<path class="st35" d="M400.93604,175.28204c0,0-3,25.6875-9.9375,16.6875
			C383.87354,192.53204,385.74854,182.96954,400.93604,175.28204z"/>
	</g>
</g>
</svg>
