<svg xmlns="http://www.w3.org/2000/svg" viewBox="0 0 262.09 324"><title>hiragana</title><g id="Layer_4" data-name="Layer 4"><path d="M153.5,0h8c7.93,3.72,16.08,7,23.68,11.32,4.53,2.55,8.41,6.4,12.17,10.1,2.65,2.61,2.75,5.77,0,8.89-3,3.36-5.56,7-8.37,10.55-22.68,28.28-45.45,56.49-68,84.88-4.92,6.19-9,13-14.38,20.82,3-.95,4.48-1.45,6-1.91,9-2.75,18-5.82,27.15-8.18,32.61-8.39,63.19-4.44,90.9,15.84,15.43,11.3,26.43,25.59,29.91,44.91.59,3.25,1,6.52,1.55,9.78v11a19.27,19.27,0,0,0-.74,2.85c-2.17,21.74-12.32,39.51-27.75,54.26-24.25,23.15-52.46,39.19-85.51,46-4.51.93-9,1.91-13.51,2.87H112.66a16,16,0,0,0-2.19-1.1c-19.84-6.38-31.66-20.58-34.72-40.54-4-26,4.61-48.69,23.51-67,8-7.8,18.28-9.82,29.18-7.93,17,3,29.82,13.14,41.46,25.12,3.8,3.92,7.32,8.13,11.14,12.39,11.6-7.33,21.18-16.21,25.68-29.55,5.84-17.3,1.09-29.86-14.6-38.94-16.1-9.33-33-8.72-50.14-3.92-21.67,6.07-40.56,17.49-57.27,32.24-15.55,13.75-30.2,28.52-45.32,42.77C32,254.49,24.69,261.51,17,268c-4.63,3.9-7.73,2.87-10.81-2.46A35,35,0,0,1,4.05,261c-7.61-19.45-4.32-37.21,8.38-53.45,17.72-22.66,36.17-44.79,53.06-68.07,16.58-22.86,31.58-46.88,47.25-70.41.14-.2,0-.6-.07-1-5.12.26-10.24.71-15.35.74C85.18,68.94,74.74,64.4,67,55.21c-7.19-8.48-13.45-17.76-20-26.77-.65-.9-.51-2.39-.73-3.6,1.33-.21,2.74-.81,4-.55,6,1.27,11.89,3.39,17.93,4,5.65.57,12,1,17.09-.89C108.16,18.75,130.77,9.22,153.5,0ZM152,262.45c-5.36-6.32-9.75-12.73-15.37-17.74-4.29-3.83-10-6.31-15.36-8.6-4-1.68-7.8.13-9.48,4.16-2.55,6.09-5.35,12.27-6.51,18.69-1.76,9.82,8.1,20.83,17,18.94A63.55,63.55,0,0,0,152,262.45Z"/></g></svg>