<svg id="Layer_1" data-name="Layer 1" xmlns="http://www.w3.org/2000/svg" viewBox="0 0 251.04 335"><title>hiragana</title><path d="M251,71c-8,16.16-22.48,24.68-37.88,32.12-6.23,3-12.24,6.48-18.79,10,4.8,7.3,9.29,14.07,13.7,20.87,7.88,12.14,16.21,24,23.37,36.57a93.3,93.3,0,0,1,9.85,24.36c3.47,14.58-3.95,23.29-18.83,22.24-13.85-1-27.61-3.33-41.4-5.17q-32.52-4.34-65-8.79c-.9-.13-1.79-.35-4.28-.85,5.09-2.89,8.72-5.48,12.73-7.14,10.58-4.36,21.46-8,31.95-12.56a63.14,63.14,0,0,0,15.19-9.17c5.19-4.31,5.59-9.4,1.91-15.11-5.84-9.09-12.13-17.88-18.08-26.89-2-3-3.9-3.47-7.35-2.1-32.52,13-65,26-95.46,43.5-4,2.32-7.64,2.4-11-.19C35,167.67,28,163,22.45,157,14.65,148.39,8,138.72,1,129.44c-.75-1-.71-2.62-1-3.94,1.46-.19,3.05-.86,4.35-.49,11.25,3.1,22.13,2.85,33.06-1.82C65.93,111,94.59,99.12,123.19,87.1c1.18-.5,2.26-1.27,4.44-2.51-4.44-9.57-9-18.93-13.15-28.47-4.08-9.33-10.8-15.72-19.93-19.86-5.28-2.39-10.46-5-15.7-7.53-4.51-2.14-5.27-6.19-1.26-9.2,8.88-6.67,18-13,27-19.53h3c8.71,2,17.53,3.57,26.08,6.08,5.14,1.51,10,4.2,14.67,6.92a6.55,6.55,0,0,1,2.56,5.37c-3,18.85,9,32.16,16.43,48,6.22-3.74,11.88-6.59,16.94-10.27,10.79-7.86,22.85-9.85,35.5-7.77,12.37,2,24.44,5.34,31.26,17.64Z"/><path d="M130.51,335c-7.82-1.35-15.67-2.55-23.46-4.07-16.42-3.21-32-8.76-46.16-17.85C41.1,300.35,30.33,282.5,31,258.47a33.21,33.21,0,0,1,22.52-30.61,36.71,36.71,0,0,1,.89,6.17c-.59,24.79,12.45,38.18,38,39.82,20.48,1.31,41.1.65,61.66.72,7.13,0,14.26-.37,21.39-.58a47.42,47.42,0,0,1,26,7.12c15.26,9.06,17,27.6,3.64,39.43-9,7.94-20.2,10.38-31.58,12.29-4.08.68-8.14,1.44-12.21,2.17Z"/></svg>