<?xml version="1.0" encoding="utf-8"?>
<!-- Generator: Adobe Illustrator 24.0.1, SVG Export Plug-In . SVG Version: 6.00 Build 0)  -->
<svg version="1.1" xmlns="http://www.w3.org/2000/svg" xmlns:xlink="http://www.w3.org/1999/xlink" x="0px" y="0px"
	 viewBox="0 0 252.50653 341" style="enable-background:new 0 0 252.50653 341;" xml:space="preserve">
<g id="Layer_1">
</g>
<g id="Layer_2">
</g>
<g id="Layer_3">
</g>
<g id="Layer_4">
	<g>
		<path d="M137.95929,341c-14.2769,0-28.5538,0-42.83071,0c-1.58949-0.36526-3.18983-0.6889-4.76672-1.10257
			c-9.91579-2.6012-20.27258-4.14493-29.64726-8.05783c-20.53504-8.5712-29.38893-25.68152-26.86006-47.82462
			c2.21077-19.3577,10.2118-36.03917,22.15555-51.04965c10.8602-13.6487,23.9269-24.91707,37.82902-35.30096
			c1.57147-1.17378,3.46823-3.13515,3.57144-4.83202c0.30051-4.94025,0.32439-10.03586-0.57406-14.87776
			c-1.25224-6.7484-6.18737-9.80322-12.89532-8.56367c-4.06049,0.75032-8.22907,1.59193-11.97791,3.24234
			c-15.48369,6.81659-30.86169,13.87962-46.20219,21.01746c-6.26013,2.91278-9.005,2.23795-11.98593-4.17108
			c-5.14019-11.05148-7.00066-21.81224,2.96344-31.575c3.07187-3.0098,5.45533-6.71437,8.36255-9.90955
			c7.72482-8.48996,15.56971-16.86971,23.34828-25.31053c0.93625-1.01597,1.75822-2.13807,2.85558-3.48371
			C28.90236,113.5196,14.49707,98.09342,0,80.93116c2.51886-1.06039,4.31759-2.57159,5.90308-2.37237
			c25.1079,3.15506,49.18688-2.61893,73.34613-8.03875c3.8918-0.87308,6.62114-2.60599,8.6414-5.9359
			c6.47237-10.66814,13.04378-21.27568,19.53211-31.93412c6.51067-10.69508,6.26198-12.36215-3.10378-21.08837
			c-1.82168-1.69728-3.8715-3.14779-5.69294-4.84531c-0.73247-0.68264-1.13331-1.72394-1.81846-2.81423
			C102.2545,2.50874,107.15807,1.25437,112.06165,0c2.65617,0,5.31234,0,7.96851,0c1.40469,0.31338,2.79541,0.73051,4.21633,0.92332
			c9.3045,1.26259,17.63068,4.80792,24.53903,11.19485c7.13759,6.59888,7.88158,13.96871,3.00853,22.31149
			c-3.52333,6.03206-6.7482,12.23984-10.35553,18.82441c7.93436-2.45549,14.78056-4.97982,21.82567-6.66727
			c13.29015-3.18325,24.92899,0.12764,34.64899,9.97955c9.01085,9.13314,7.59792,18.38545-3.78664,23.87945
			c-2.09189,1.00951-4.17618,2.11691-6.38113,2.79548c-21.38667,6.58159-42.80142,13.07113-64.19696,19.62386
			c-1.71022,0.52378-3.70219,0.92014-4.94486,2.05699c-10.53259,9.6358-20.9431,19.40681-31.32504,29.20686
			c-1.23653,1.16722-2.08212,2.75185-3.4103,4.55133c26.35169-2.07173,48.91594,1.71114,58.16539,29.93277
			c19.58807-11.07524,38.77617-21.9897,58.05965-32.73157c2.04768-1.14066,4.78555-2.09212,6.98061-1.73851
			c17.24794,2.7785,33.58601,7.67766,45.43265,21.85698c0,1.66667,0,3.33333,0,5
			c-9.21936,8.91733-20.14363,15.166-31.86829,19.99176c-9.35159,3.849-19.0174,6.93294-28.34535,10.83449
			c-14.06178,5.88152-27.95903,12.16054-41.90758,18.31322c-3.93935,1.73764-5.87195,4.76978-6.62485,9.14421
			c-1.26843,7.36983-2.87988,14.71297-4.91634,21.90486c-1.29669,4.57945-3.00218,9.2809-5.61122,13.19803
			c-5.63435,8.45932-17.05317,8.26669-22.40235-0.40561c-2.36711-3.83765-3.34956-8.58548-4.66167-13.00949
			c-0.68692-2.31601-0.72725-4.82532-1.19736-8.2515c-6.81435,4.35016-13.07656,8.05833-19.02652,12.21683
			c-8.08805,5.65282-15.51838,12.14731-20.14891,21.08023c-8.94158,17.24954-2.45768,26.72876,16.4741,27.5538
			c6.87052,0.29941,14.05624-0.50909,20.69436-2.31122c13.56783-3.68335,26.89237-8.29013,40.25346-12.71051
			c5.06348-1.67529,9.93346-3.4556,15.46466-2.3078c4.69717,0.97473,9.58987,1.0166,14.27301,2.03922
			c9.32741,2.03674,19.15433,3.1633,27.71014,7.0365c12.59883,5.70343,14.74638,20.7655,5.25577,30.95834
			c-3.54756,3.81006-7.98312,7.23624-12.66798,9.4281c-7.7699,3.63531-15.90666,6.74518-24.18649,8.94958
			C158.85706,337.37143,148.34233,338.93652,137.95929,341z"/>
	</g>
</g>
</svg>
