<svg xmlns="http://www.w3.org/2000/svg" viewBox="0 0 334.19 333"><title>hiragana</title><g id="Layer_3" data-name="Layer 3"><path d="M116.84,0c6.19,2.32,12.54,4.29,18.54,7.05a92.08,92.08,0,0,1,15,8.71c5.28,3.78,6.7,9.08,4.43,15.48-3.39,9.55-6.67,19.16-9.46,28.89-1.06,3.69-.64,7.81-.84,10.92,10.33,0,19.94-.52,29.47.14a42.39,42.39,0,0,1,27.29,11.9c8.4,8.09,5.84,16.28.05,22.9a27.53,27.53,0,0,1-10.24,6.78c-10.61,4.31-21.51,7.89-32.18,12.07a216.45,216.45,0,0,0-20,9,9,9,0,0,0-3.95,5.55c-1.33,6.18-2.15,12.47-2.86,18.76a7,7,0,0,0,1.35,4.82c11.18,13,12.54,28,8.49,43.63-1.89,7.29-6,14-9.33,20.91s-7.42,13.81-10.26,21.06c-7.7,19.69,2.55,37.61,23.29,40.8,22,3.39,40.15-4.12,55-20.3,11.93-12.95,19.77-28.35,25.75-44.7,5.27-14.37,9.86-29,14.86-43.46.67-1.91,2-3.59,3.64-6.41,6.44,11.68,10.55,22.58,11.74,34.21,3.52,34.5-2.8,66.62-24,94.92-11.37,15.14-26.48,23.85-44.87,27.29-2.75.51-5.44,1.39-8.15,2.1H152.73c-2.38-.68-4.74-1.45-7.14-2-27.93-6.49-50.08-20.18-60.44-48.63-.1-.27-.47-.45.24.19C75.8,286,67,290.15,57.76,292.22,34.24,297.49,14,285.55,8.65,263c-1.93-8.2-1.92-17.28-.81-25.69C11,213.22,25,195.58,43.66,181.19c13.12-10.13,27.66-17.73,42.81-24.29,1.59-.69,3.57-2.23,3.92-3.71.74-3.16.52-6.55.73-10.49-2.47.71-4.39,1.14-6.2,1.82-7,2.6-14,5.29-21,7.95-5.37,2.05-10.47,1.76-15.92-.43C29.22,144.47,13.88,132.37,1,116.93a10.82,10.82,0,0,1-1-2.27c5.66-.61,10.89-1.22,16.14-1.72,28.33-2.7,55.67-9.08,81.36-21.77,3-1.51,4.38-3.32,4.6-6.78,1-15,1.83-29.93,3.49-44.82.73-6.56-1.61-11-6.3-14.64-2.45-1.91-5.53-3-8.09-4.79-1.49-1-3.18-2.62-3.5-4.21-.22-1.07,1.51-3.09,2.84-3.84C97.9,7.92,105.4,4,112.85,0ZM91.6,196.14a6.94,6.94,0,0,0-1.88,0c-15.58,4.67-29.27,12.42-39.93,25a47.64,47.64,0,0,0-11.16,24.63,6.65,6.65,0,0,0,3.18,7.16c5.68,3.89,11.52,3.41,17.49.75C80.54,244.21,93.9,220.48,91.6,196.14Z"/><path d="M334.19,167c-.68,2.55-1.22,5.15-2.06,7.65-2.32,6.88-7.05,10.23-14.24,10.16a27.41,27.41,0,0,1-19.78-8.18A120.33,120.33,0,0,1,282.16,157c-6.56-10.38-11.57-21.74-18-32.19-5.91-9.55-12.88-18.45-19.36-27.65-.9-1.27-1.67-2.64-2.5-4l.72-1.35c8.69,1.74,17.47,3.09,26,5.3,15.57,4,30.09,10.5,42.71,20.68,12,9.65,19.9,21.74,21.66,37.38a6.4,6.4,0,0,0,.79,1.76Z"/></g></svg>