<svg xmlns="http://www.w3.org/2000/svg" viewBox="0 0 308.83 342"><title>hiragana</title><g id="Layer_2" data-name="Layer 2"><path d="M92.53,0c.27.19.52.48.82.54,26.5,5.47,33.64,24.64,35,44.67.17,2.45,0,4.92,0,8.16,3.81-.33,7.06-.49,10.27-.92,9.6-1.27,18.93-.52,27.75,3.7C179.11,62.26,182,74.56,172,84.55c-6.11,6.12-13.85,10.75-21.3,15.31-9.63,5.89-19.81,10.84-29.54,16.57a51.9,51.9,0,0,0-20.26,21.48q-22.35,43.51-45,86.87c-5.33,10.16-10.93,20.2-16.93,30a66.5,66.5,0,0,1-10.72,13.06c-8.4,8-15.8,6.51-20-4.22C5.73,257.46,4.51,250.83,3,244.36c-3.42-14.22-.84-27.08,7.52-39.32,15.21-22.25,29.78-44.94,44.62-67.45.9-1.37,1.77-2.76,3-4.62-4-.73-7.58-1.29-11.11-2C28.57,127,12.6,119.3,3.48,101.64,1.74,98.28,1.18,94.3,0,90.34c7.61,0,14,.24,20.4,0,21.82-1,42-8,61.25-17.76,1.75-.89,3.17-3.29,3.84-5.3C91.86,48.12,91.3,28.92,86,9.66c-.86-3.14-3-6.64.53-9.66Z"/><path d="M146.35,342a10.38,10.38,0,0,0-2.49-1.5c-12.28-3.27-20-11.27-24.14-23.09-7.11-20.06-15-39.87-21.25-60.19-4.19-13.57.79-23.2,13.75-28.79a58.57,58.57,0,0,1,21.56-5c13.74-.21,27.53,1,41.26,2.06,4.21.33,5.7-1.07,6.09-4.87,1.28-12.76,2.49-25.52,4-38.24,1.27-10.59,4.43-20.56,11.66-28.7,1.86-2.11,4.53-3.5,7.34-5.61,3.07,9.3,5.76,17.62,8.54,25.91,5.13,15.26,12,30,13.7,46.3.17,1.66.7,3.38.41,5-1.33,7.27,2.48,10.33,8.66,13a210.48,210.48,0,0,1,26.44,13.86c11.16,6.88,20,15.92,22.45,29.69C286.81,296,280,304.25,265.77,304c-14.11-.21-26.87-5.55-39.5-11.13-9.67-4.28-9.65-4.36-16.24,3.78-2.3,2.85-4.66,5.65-6.79,8.62-12.75,17.79-30,28.91-50.88,34.63a41.64,41.64,0,0,0-5,2.07Zm26.77-77.56a76.27,76.27,0,0,0-45.73-7c-4,.59-4.26,3.27-3.19,6.28A51,51,0,0,0,145.3,290c1.35.87,3.92.81,5.53.17C162.46,285.54,169,276.41,173.12,264.44Z"/><path d="M308.83,136c-11.17,12.85-25.49,12.7-39.74,8.12-9.33-3-18.22-8-26.54-13.36-14.81-9.48-29.05-19.87-44.29-30.41,1.59-1.33,3.11-3.38,5.13-4.17,26.83-10.58,53.85-10.3,80.73-.39,12.34,4.55,20.88,13.29,24.71,26.21Z"/></g></svg>