<?xml version="1.0" encoding="utf-8"?>
<!-- Generator: Adobe Illustrator 24.0.1, SVG Export Plug-In . SVG Version: 6.00 Build 0)  -->
<svg version="1.1" xmlns="http://www.w3.org/2000/svg" xmlns:xlink="http://www.w3.org/1999/xlink" x="0px" y="0px"
	 viewBox="0 0 251.03651 335" style="enable-background:new 0 0 251.03651 335;" xml:space="preserve">
<g id="Layer_1">
	<g>
		<path d="M251.03651,71c-8.0448,16.15763-22.47188,24.67956-37.88045,32.12276c-6.22647,3.00772-12.23346,6.4734-18.78339,9.96701
			c4.79684,7.30338,9.28322,14.06567,13.69986,20.87356c7.87419,12.13737,16.20488,24.01532,23.36934,36.56306
			c4.31332,7.55431,7.83839,15.91635,9.84782,24.36374c3.46716,14.57539-3.9507,23.28502-18.83049,22.24417
			c-13.8531-0.96901-27.61218-3.33685-41.40118-5.17555c-21.67595-2.89037-43.34256-5.85144-65.01173-8.79285
			c-0.90112-0.12231-1.78827-0.34836-4.27863-0.84363c5.09344-2.89679,8.72276-5.48688,12.73498-7.14072
			c10.57903-4.36072,21.45453-8.01184,31.9494-12.55669c5.39157-2.33484,10.67781-5.42297,15.18646-9.17116
			c5.19064-4.31514,5.5867-9.39989,1.9115-15.11581c-5.8407-9.08386-12.12737-17.87753-18.08269-26.88899
			c-1.97691-2.99141-3.90086-3.47171-7.34579-2.09775c-32.52043,12.97034-65.00335,26.01596-95.46617,43.50208
			c-4.02794,2.3121-7.6341,2.39909-11.0489-0.18996c-6.58539-4.99292-13.6497-9.65593-19.15559-15.70355
			c-7.80056-8.56808-14.41067-18.23491-21.40899-27.52371c-0.75591-1.0033-0.71382-2.61261-1.04189-3.94081
			c1.45846-0.18806,3.04708-0.85094,4.35494-0.48961c11.24681,3.10727,22.12465,2.85722,33.05566-1.81779
			c28.52025-12.19766,57.18115-24.06379,85.77487-36.08869c1.18596-0.49876,2.26017-1.26528,4.44754-2.51168
			c-4.43945-9.56286-8.99556-18.93-13.158-28.47026c-4.07019-9.32879-10.79945-15.71274-19.9246-19.85334
			c-5.28445-2.39785-10.45909-5.03858-15.7018-7.53045c-4.50909-2.14319-5.26572-6.19583-1.2629-9.20158
			C86.47374,12.85768,95.59129,6.49164,104.61526,0c0.99606,0,1.99213,0,2.98819,0
			c8.70742,1.97937,17.52811,3.57028,26.07981,6.08367c5.13712,1.50983,10.00722,4.19506,14.67043,6.91661
			c1.45271,0.84785,2.82054,3.69971,2.55753,5.36901c-2.9706,18.85449,8.97054,32.16511,16.42798,48.02819
			c6.22415-3.7333,11.88087-6.58925,16.94055-10.27201c10.79001-7.85369,22.85342-9.84587,35.50293-7.76777
			c12.36514,2.03138,24.44041,5.34635,31.25385,17.6423C251.03651,67.66666,251.03651,69.33334,251.03651,71z"/>
		<path d="M130.51289,335c-7.82261-1.34717-15.67286-2.55154-23.46212-4.07104c-16.42531-3.20419-32.00577-8.7547-46.1573-17.85287
			c-19.79663-12.72754-30.56218-30.57394-29.89323-54.60507c0.38739-13.91666,9.16881-25.95599,22.52238-30.61029
			c0.3207,2.11276,0.9378,4.14796,0.88925,6.16704c-0.59616,24.7943,12.44406,38.18654,38.02695,39.82097
			c20.48615,1.30881,41.10102,0.65018,61.65928,0.72296c7.13147,0.02524,14.26462-0.37048,21.39674-0.58234
			c9.40356-0.2793,18.01593,2.35443,26.04771,7.12234c15.25987,9.05872,17.02727,27.60019,3.63492,39.42548
			c-8.99098,7.93896-20.202,10.38123-31.5777,12.28973c-4.07639,0.68393-8.13966,1.44644-12.20894,2.1731
			C151.09821,335,140.80554,335,130.51289,335z"/>
	</g>
</g>
<g id="Layer_2">
</g>
<g id="Layer_3">
</g>
<g id="Layer_4">
</g>
</svg>
