<svg xmlns="http://www.w3.org/2000/svg" viewBox="0 0 302.01 322"><title>hiragana</title><g id="Layer_4" data-name="Layer 4"><path d="M120.61,322h-13l3.33-4.95c10.81-16.16,22.24-32,32.16-48.65,4.74-8,6.61-17.65,9.78-26.56,1.1-3.09-.45-4.62-2.88-6.46-8.48-6.39-17-12.76-24.88-19.89a61,61,0,0,1-17-26.11c-.65-2-.65-4.17-1.12-7.39,15.64,8.77,30.6,13.95,48.34,11.6.57-31,1.14-61.68,1.72-93-2.25.53-3.21.68-4.11,1-17.48,6-32.58,15.69-44.67,29.82C94.7,147.32,86,166,78.61,185.37,68,213.2,59.15,241.73,45.38,268.28c-3.8,7.32-8.39,9.82-16.12,6.87a37.05,37.05,0,0,1-13.12-8.54A58.94,58.94,0,0,1,1.21,238.77c-2.8-11.87-.06-23.56,1.35-35.25C6.12,173.75,10,144,13.64,114.25c2.29-18.84.16-37.59-1.53-56.35-.22-2.46.38-5,.64-8a70.54,70.54,0,0,1,27.86,18.7c11,12.21,16.66,26.26,14.23,43-1.62,11.2-3,22.45-4.45,33.68q-4.05,30.91-8.07,61.82a5.55,5.55,0,0,0,1.78-2.86A326.78,326.78,0,0,1,69.26,144c18.93-34.48,44-63.09,79.63-80.82,7.17-3.56,9.18-7.43,9-15-.25-10-4.55-16.4-13.27-20.31-2.57-1.14-5.27-2-7.94-2.9-3.7-1.21-4.56-3.1-1.59-6Q144.78,9.5,154.5,0h5a69.51,69.51,0,0,1,8.16,2c7.55,2.85,15.33,5.34,22.43,9.09,7.56,4,12.21,10.76,12.53,19.7.24,6.57.05,13.16.05,19.72,9.46.9,18,1.64,26.57,2.53,36.57,3.79,61.47,24.79,70.34,59.29q1.23,4.81,2.45,9.63v36c-1,4.36-1.9,8.75-3,13.08-8.46,32.56-27.12,55.72-60.59,64.33-12,3.08-24.4,4.72-36.7,6.38-4.2.56-5.81,1.87-6.83,5.94a133.21,133.21,0,0,1-6.59,19.86c-11,25.83-28.63,44.57-56.64,51.76C128,320.29,124.28,321.12,120.61,322Zm77.85-126.6a45.72,45.72,0,0,0,39.31-12.73c17.49-17.54,22.8-39,18.5-63-2.43-13.49-10.83-23.09-23.55-27.53-7.81-2.73-16.49-3-24.8-4.26-4.85-.73-6.92,1-6.91,6.43,0,23-.26,46-.74,69C200,174,199.09,184.56,198.46,195.4Z"/></g></svg>