<svg xmlns="http://www.w3.org/2000/svg" viewBox="0 0 329.7 319"><title>hiragana</title><g id="Layer_2" data-name="Layer 2"><path d="M208.07,319H166.2c-5.53-1-11.07-1.95-16.59-3C109,308,86,284.2,81.57,243c-2-18.79-.88-37.92-1.17-56.89,0-2,0-3.92,0-6.65a91.29,91.29,0,0,0-9.21,2.19,150.46,150.46,0,0,0-15.72,6.27c-7.48,3.64-14,2.47-20.36-2.51A152.66,152.66,0,0,1,2.21,150.15,47.54,47.54,0,0,1,0,145.73c3.17-.31,5.47-.84,7.74-.7,7.74.45,15.8,2.86,23.11,1.38,16.87-3.43,33.39-8.64,50-13.31a4.94,4.94,0,0,0,3.06-3.17c1.74-12.88,3.54-25.73-2.11-38.31-2.45-5.43-4-11.28-5.73-17-1.54-5.1,0-6.82,5.38-6.24,2.47.27,5,.6,7.4,1,24.12,4.39,30.8,11.37,33.87,35.79.72,5.75.76,11.57,1.14,17.91,1.87-.28,3.49-.4,5-.77,20.79-5,41.55-10.22,62.38-15.11,4.19-1,5.68-3.08,5.68-7.16,0-16.32-.74-32.71.52-48.94.93-12.05-4-20.4-11.82-28.1-2.13-2.1-4.39-4.06-6.69-6-4.21-3.52-3.94-5.94,1.13-8.24,6.64-3,13.32-5.88,20-8.81h7c11,7,22.26,13.65,33.07,21,6.25,4.22,8.5,10.62,7.59,18.35-1.18,10.08-1.83,20.23-2.64,30.35-.65,8.08-1.19,16.16-1.83,25,2.73-.78,4.76-1.38,6.81-1.94,7.69-2.08,15.37-4.2,23.07-6.22,18.69-4.89,50.26,7.08,56.55,23.55v7c-5.9,7.16-14.12,10.63-22.6,12.82-19.92,5.16-40,9.74-60.07,14.21-3.87.86-5.5,2.11-5.77,6.25-.91,13.8-1.83,27.62-3.61,41.31a124.74,124.74,0,0,1-5.87,24.61c-2.8,8.05-8.66,14-16.28,18.2-6.73,3.74-12.8,3.39-18-2.17-6.38-6.76-12.75-13.6-18.44-20.93-6.63-8.54-14.09-15.87-23.48-21.29-1.89-1.09-3.1-3.36-4.93-5.44h40.57c1.26-11.64,2.49-23.15,3.79-35.21-2.31.41-4.07.62-5.78,1.06-19.3,4.92-38.62,9.78-57.89,14.85-12,3.17-12.27,3.29-13.45,15.54-1.79,18.41-3.06,36.88-.46,55.34,3.38,24.06,17,35.37,41.21,34.44a125.68,125.68,0,0,0,14.4-1.12c23-3.54,45.89-7.39,68.87-10.9,15.38-2.35,29.92.22,42.53,9.73,9.94,7.5,10.5,19.62,1.37,28.06-3.83,3.55-8.44,6.89-13.3,8.53a346.88,346.88,0,0,1-35.39,9.87C227.56,316.87,217.75,317.64,208.07,319Z"/></g></svg>