<?xml version="1.0" encoding="utf-8"?>
<!-- Generator: Adobe Illustrator 24.0.1, SVG Export Plug-In . SVG Version: 6.00 Build 0)  -->
<svg version="1.1" xmlns="http://www.w3.org/2000/svg" xmlns:xlink="http://www.w3.org/1999/xlink" x="0px" y="0px"
	 viewBox="0 0 244.66605 301" style="enable-background:new 0 0 244.66605 301;" xml:space="preserve">
<g id="Layer_1">
</g>
<g id="Layer_2">
	<g>
		<path d="M143.05482,301c-12.28632,0-24.57264,0-36.85896,0c-3.20567-0.67432-6.39275-1.45947-9.62-2.00522
			c-23.3884-3.95508-45.4492-11.21692-64.04752-26.63794c-9.37457-7.77307-16.03928-17.50896-17.06324-30.0163
			c-1.95059-23.82607,5.17434-45.20541,19.46253-63.93843c11.48417-15.05669,23.99529-29.32411,36.10303-44.00514
			c-1.94653-3.79356-4.09496-7.37839-5.69439-11.19505c-10.67134-25.46476-21.34075-50.9316-31.77385-76.49521
			C27.44354,31.71394,18.01295,19.70882,4.0009,11.4762C2.91991,10.84107,1.922,10.06346,0,8.74434
			c2.70741-1.8324,4.66136-3.59959,6.94803-4.6018C10.69537,2.50016,14.65893,1.35491,18.53129,0c4.98094,0,9.96188,0,14.94283,0
			c14.58556,3.75868,26.62127,11.54268,36.36393,23.03545c7.61618,8.98429,13.41751,19.03375,17.51497,30.04479
			c5.05,13.57079,9.87727,27.22501,14.81994,40.83617c1.32583,3.65106,2.72133,7.27663,4.23751,11.32115
			c20.90453-15.02054,40.67612-30.08982,56.83358-49.46782c6.55453-7.86102,9.77863-16.39384,8.87718-26.64375
			c-0.5042-5.73293,1.15678-7.00492,6.60664-5.67015c9.18513,2.24959,18.37199,4.50084,27.50906,6.93682
			c8.8015,2.34651,16.74664,6.34347,23.14066,13.05035c12.2614,12.86137,12.53101,25.2837-0.2814,37.49369
			c-7.41852,7.06969-15.80106,13.22054-24.20973,19.12479c-31.5484,22.15203-63.58334,43.61826-94.81467,66.20708
			c-13.53742,9.79128-25.82944,21.39732-38.14851,32.76715c-4.92099,4.54181-9.01321,10.30673-12.38937,16.15129
			c-7.24139,12.53578-3.65808,23.75226,9.08611,30.57861c7.49644,4.01541,15.6232,5.4086,24.02775,5.52068
			c21.14475,0.28197,41.52228-3.80052,61.56201-10.35101c11.01962-3.60202,22.15131-7.22325,33.50897-9.34322
			c24.27292-4.53069,45.9785,6.33894,56.9473,27.40793c0,1,0,2,0,3c-8.53302,15.95563-22.91992,24.12775-39.45123,28.71832
			c-11.30309,3.13879-22.94458,5.17575-34.53313,7.1123C161.55057,299.35651,152.26938,299.97723,143.05482,301z"/>
	</g>
</g>
<g id="Layer_3">
</g>
<g id="Layer_4">
</g>
</svg>
