<?xml version="1.0" encoding="utf-8"?>
<!-- Generator: Adobe Illustrator 24.0.1, SVG Export Plug-In . SVG Version: 6.00 Build 0)  -->
<svg version="1.1" xmlns="http://www.w3.org/2000/svg" xmlns:xlink="http://www.w3.org/1999/xlink" x="0px" y="0px"
	 viewBox="0 0 225.52858 342" style="enable-background:new 0 0 225.52858 342;" xml:space="preserve">
<g id="Layer_1">
	<g>
		<path d="M64.19997,342c15.01266-14.10526,30.30022-27.93008,44.9466-42.40894
			c10.74006-10.61722,21.1163-21.68942,30.81236-33.26999c19.54352-23.34187,31.35767-50.50876,36.09573-80.52974
			c1.29832-8.22636,0.89119-17.02103-0.38689-25.29739c-2.49393-16.14943-13.45395-25.56624-29.70268-27.55815
			c-15.20859-1.8644-29.31017,2.02296-42.9983,7.98071c-17.48113,7.60867-33.6096,17.243-46.8233,31.40912
			c-4.96798,5.32607-10.9371,9.69704-16.22458,14.74149c-2.83883,2.70836-5.41344,2.48282-7.69117-0.12418
			c-3.48409-3.98772-7.20585-7.94777-9.79139-12.51106C14.8974,161.1261,7.84214,147.54294,0.6674,134.03096
			c-1.62498-3.06027-0.17771-5.20647,3.20282-4.90724c1.64196,0.14532,3.25116,0.63225,4.88542,0.90198
			c10.98471,1.81302,21.06714,0.25851,31.05458-5.47427c22.89497-13.14174,46.39098-25.16858,71.39273-33.93235
			c18.62836-6.52973,37.59264-10.40689,57.09774-5.00409c32.0569,8.8796,49.11832,31.53285,55.96358,63.13905
			c0.38065,1.75757,0.84103,3.49771,1.2643,5.24597c0,12,0,24,0,36c-0.36125,1.60924-0.70119,3.22366-1.08713,4.8269
			c-3.30136,13.71313-5.06001,28.04243-10.19235,41.0267c-19.99956,50.5968-54.58559,86.28842-107.84423,101.53616
			C99.4376,339.38449,92.21648,340.4852,85.11294,342C78.14195,342,71.17096,342,64.19997,342z"/>
		<path d="M136.89743,0c12.02731,3.92994,23.63814,8.84441,33.69827,16.64089c5.07251,3.93112,9.70786,8.55717,13.94829,13.39291
			c2.20421,2.51366,3.61166,6.02845,4.53018,9.3292c3.3681,12.10363-2.28139,20.69823-14.74933,20.72431
			c-10.19768,0.02134-20.5209-1.39763-30.57156-3.32104c-15.36156-2.93976-30.54326-4.10635-45.83648-0.05247
			c-1.0228,0.27112-2.15199,0.13758-4.11922,0.23719c3.43417-4.39754,6.23972-8.27314,9.35654-11.87733
			c1.93251-2.2347,1.98963-4.37545-0.02028-6.08986c-4.39117-3.7456-8.9925-7.25285-13.61871-10.70797
			c-5.56425-4.15569-11.44064-7.91797-16.76098-12.35902c-1.75063-1.4613-2.19102-4.50535-2.81169-5.89074
			C85.38136,6.5121,99.68706,3.25605,113.99275,0C121.62764,0,129.26253,0,136.89743,0z"/>
	</g>
</g>
<g id="Layer_2">
</g>
<g id="Layer_3">
</g>
<g id="Layer_4">
</g>
</svg>
