<?xml version="1.0" encoding="utf-8"?>
<!-- Generator: Adobe Illustrator 24.0.1, SVG Export Plug-In . SVG Version: 6.00 Build 0)  -->
<svg version="1.1" xmlns="http://www.w3.org/2000/svg" xmlns:xlink="http://www.w3.org/1999/xlink" x="0px" y="0px"
	 viewBox="0 0 327.98483 346" style="enable-background:new 0 0 327.98483 346;" xml:space="preserve">
<g id="Layer_1">
</g>
<g id="Layer_2">
	<g>
		<path d="M194.78763,0c8.43079,2.9632,17.01012,5.56403,25.26094,8.96633c16.31302,6.72679,17.35675,10.52263,9.70659,26.40394
			c-2.23895,4.64793-3.48283,10.04324-3.96909,15.21088c-0.66373,7.05361-0.16566,14.2172-0.16566,21.86159
			c9.73662-1.60722,19.42886-2.815,28.94296-4.85752c21.15932-4.54253,40.18886,1.16515,58.03362,11.92039
			c4.68896,2.82609,9.02524,7.01344,12.13812,11.53516c6.24634,9.07336,3.18408,19.36981-6.58051,24.41786
			c-10.39905,5.37604-21.74478,4.29578-32.76291,3.75399c-12.42169-0.61082-24.763-2.72628-37.17928-3.6399
			c-7.24374-0.533-14.56615,0.07075-21.85252,0.03485c-3.82761-0.01885-4.7088,2.10226-5.46751,5.49698
			c-2.88257,12.89769-0.15997,25.28023,3.33681,37.44327c10.10793,35.15875,6.77838,69.69296-4.7812,103.66615
			c-8.4283,24.77051-22.44318,46.03088-43.43428,62.12006c-15.13832,11.60312-32.41444,18.03659-51.20422,20.61899
			c-1.61555,0.22198-3.1972,0.69208-4.79459,1.04697c-6.64646,0-13.29293,0-19.93939,0
			c0.91751-1.38574,1.57156-3.08813,2.792-4.1098c18.68173-15.63937,36.23415-32.36417,50.46711-52.3111
			c8.55479-11.9892,15.64868-24.74496,19.95287-38.93021c0.28476-0.93845,0.43683-1.91742,0.8194-3.63545
			c-5.17996,1.20827-9.91031,2.3577-14.66183,3.4109c-11.87732,2.63264-23.78529,4.6376-36.03436,2.76544
			c-20.75385-3.17207-31.12836-15.26393-30.97472-36.57202c0.11153-15.46629,4.74117-29.58685,13.78367-42.04922
			c16.21394-22.34604,37.24439-37.73845,64.52573-43.76791c1.27849-0.28255,2.53038-0.68611,4.10454-1.11842
			c0.12816-2.65466,0.25446-5.27081,0.41605-8.61822c-3.76701,0.38984-7.14592,0.64249-10.49684,1.10104
			c-42.17612,5.77139-82.51761,17.23828-119.72371,38.58939c-1.71035,0.98151-4.52648,0.94836-6.49189,0.32422
			c-2.44398-0.77611-4.78417-2.37976-6.74405-4.1104C18.38915,145.11763,9.61254,129.8192,0,114.15051
			c2.48822-0.3881,4.37528-1.24457,5.93995-0.84161c21.21997,5.46488,41.00166-1.97664,61.12711-6.56001
			c36.58805-8.33258,73.18832-16.61368,109.83418-24.68479c4.11096-0.90541,5.8199-2.36827,5.86157-6.68377
			c0.11096-11.48878,0.77466-22.97284,0.83746-34.46088c0.01198-2.18824-1.16248-4.99992-2.75659-6.46634
			c-5.11981-4.70978-10.62589-9.01016-16.11656-13.29627c-3.13109-2.44416-3.2868-5.74623,0.03311-7.86648
			C171.75494,8.82321,178.79404,4.42594,185.8149,0C188.8058,0,191.79671,0,194.78763,0z M182.31966,185.56635
			c-0.21283-3.50316-0.31876-6.16173-0.54482-8.80998c-1.00851-11.81409-5.70631-15.18965-18.20065-12.61945
			c-2.55217,0.52501-5.23592,1.45502-7.33716,2.94081c-6.34045,4.48332-12.73305,8.9814-18.53369,14.12254
			c-8.26112,7.32185-11.83008,17.01328-12.11458,27.99342c-0.15743,6.07611,1.60628,9.75703,7.49121,10.50903
			c7.93001,1.01331,16.20544,1.47906,24.0708,0.34801c13.66589-1.96523,21.54031-10.86145,24.01698-24.42497
			C181.82167,192.04454,182.00862,188.37753,182.31966,185.56635z"/>
	</g>
</g>
<g id="Layer_3">
</g>
<g id="Layer_4">
</g>
</svg>
