<svg xmlns="http://www.w3.org/2000/svg" viewBox="0 0 335.38 297.34"><title>hiragana</title><g id="Layer_3" data-name="Layer 3"><path d="M132.78,0c8.09,1.67,16.28,3,24.24,5.07,23.27,6.19,43.68,16.8,56.61,38.42,4,6.7,6.66,13.62,6,21.71-1.29,14.57-10.8,21.64-25.3,19.53-17.54-2.55-35.2-4.26-52.8-6.39a51.93,51.93,0,0,1-5.7-1.4c4.75-4,9-7.15,12.74-10.81,9.29-9.07,9.74-11.8.44-20.55C135.54,32.94,121.34,21.15,107.47,9c-1.58-1.4-3.14-2.83-5.91-5.34L115.83,0Z"/><path d="M130.18,100.41c9.15,12.82,17.41,25.3,26.6,37,12.1,15.45,24.86,30.38,37.46,45.44,11,13.11,17.36,28.09,19.89,45,3.42,22.85-11.41,60.58-44.07,67.47-36.69,7.74-68.5-7.78-86.28-43.22a6.75,6.75,0,0,1-1-2.78c0-1.88,0-4,.84-5.54.35-.64,3-.37,4.43,0,15.37,4,30.83,6.74,46.79,4.19,16.35-2.61,25.78-12,25.53-26.79a34.29,34.29,0,0,0-4.08-15.19,306.79,306.79,0,0,0-16.66-26.61c-7-10.35-13.9-20.78-17.35-33C117.6,130.06,120.83,114.94,130.18,100.41Z"/><path d="M228.55,154.6c2.73-.6,4.69-1.52,6.57-1.36C268.6,156,296.79,169.7,319,195.12c10.39,11.92,15.56,26.2,16.38,42,.5,9.57-2.78,18-7.69,25.9-2.89,4.64-7.07,6.7-12.69,6.08-10.17-1.13-17.88-6.3-23.09-14.78a125.37,125.37,0,0,1-10.37-20.44c-11.1-28.78-28.19-53.49-49.6-75.4C231,157.59,230.21,156.55,228.55,154.6Z"/><path d="M8.81,185.67c9.41,6.19,16.5,13.17,21.31,22.1,2.26,4.2,4.88,5.12,8.74,3.18,7.86-3.93,15.81-7.74,23.38-12.18,9.15-5.36,17.95-11.32,28.28-17.9-1.06,3.49-1.39,5.72-2.37,7.61-4.49,8.73-8.89,17.51-13.81,26Q57.93,242.76,41,270.74c-2.91,4.81-6.56,9.18-10,13.67-2.9,3.83-6.69,4-9.87,1-4.24-4.11-8.72-8.39-11.55-13.46-8.08-14.46-11.69-30-8.39-46.69C3.76,212.36,6.17,199.46,8.81,185.67Z"/></g></svg>