<svg xmlns="http://www.w3.org/2000/svg" viewBox="0 0 315.28 286"><title>hiragana</title><g id="Layer_4" data-name="Layer 4"><path d="M195.65,286l-4.33-1.54c1.56-1.47,2.85-2.64,4.09-3.87,13-12.84,26.53-25.24,38.94-38.65,20.56-22.19,31-48.89,32.82-79.13,1.9-31.16-14.79-51.36-45.82-54.57a79.3,79.3,0,0,0-42.27,6.9,14.3,14.3,0,0,0-5.76,5.09c-16.92,26.92-33.63,54-50.54,80.89a11.3,11.3,0,0,0-1.48,9.4c2.47,10.36,5.4,20.69,6.71,31.21a50.75,50.75,0,0,1-1.92,19.64c-2.77,9.74-10.59,11.95-18.91,6.37C98.43,261.88,92,254,86.93,244c-4.31,3.63-8.19,6.91-12.08,10.17-7.26,6.08-14.21,12.61-21.89,18.12-10.77,7.73-18.48,6.22-25.68-4.85-8-12.26-15.73-24.69-22.91-37.42-5.88-10.44-4.85-22-2.55-33.19,4.24-20.68,16.36-36.62,31.74-50.16,7.84-6.9,16.45-12.95,25-19,2.63-1.88,3.27-3.42,2.43-6.46-5.87-21.29-6.14-43.12-5.71-65,0-2.1,1.45-4.18,2.61-7.32,16.46,16,28.23,33.76,35.69,54.65a17.05,17.05,0,0,0,2.53-.72c16.57-7.71,33.15-15.4,49.65-23.26a10.3,10.3,0,0,0,4.52-4.24c6.1-12,12.29-24,17.67-36.37A13.24,13.24,0,0,0,167,28.23c-3.69-5.8-8.79-10.7-13.23-16-1.45-1.75-2.64-3.72-4-5.61L180.7,0h4c1.71.6,3.43,1.18,5.13,1.8a74.53,74.53,0,0,1,30.73,20.54c5.61,6.29,5.9,10.36,1.74,17.61-3.06,5.33-6.64,10.36-9.81,15.63-2.53,4.2-4.79,8.56-7.78,13.92,2.92,0,4.51-.12,6.07,0,9.74.82,19.61.9,29.17,2.68,37.49,7,65.62,34.09,73.07,69.63.78,3.72,1.51,7.45,2.27,11.17v25c-.33,1.43-.75,2.84-1,4.28-4,26.61-12.71,51-30.72,71.74-12.9,14.86-28.33,24.8-47.45,29-5.16,1.13-10.38,2-15.56,3ZM67.3,159.91c-10.09,6.15-27.07,26-31,36.23-3,7.85-2,15.36,2.15,22.54,5,8.65,11.46,10.62,19.33,4.55,7.19-5.54,13.53-12.22,20-18.68,1-1,.9-3.62.44-5.25-2.42-8.47-5.26-16.82-7.69-25.29C69.16,169.43,68.36,164.71,67.3,159.91Zm55.3-25.13-1.23-1c-4.54,2.84-9.11,5.6-13.55,8.58a3.55,3.55,0,0,0-1.12,2.89c.62,4.5,1.49,9,2.27,13.43l1.44.39Q116.52,146.93,122.6,134.78Z"/></g></svg>