<svg xmlns="http://www.w3.org/2000/svg" viewBox="0 0 325.93 308.64"><title>hiragana</title><g id="Layer_3" data-name="Layer 3"><path d="M158.44,308.64l-3-2.87C177.84,279.87,197,251.91,209,219c-3.08-1.34-5.76-2.57-8.5-3.67a253.39,253.39,0,0,0-68.41-17c-3.81-.41-5.56.89-7.52,3.85-9.29,14-18.42,28.15-28.38,41.66-14.49,19.64-32.6,34.94-55.65,43.91-4.16,1.62-7.72,1.35-10.34-1.87-3.41-4.19-7.14-8.56-9-13.51-4.84-13.14-10-26-16.84-38.3C-3.14,220.56-.55,207.5,9,195.91c10.58-12.87,24.2-21.7,39.33-28.26a139.8,139.8,0,0,1,46.31-11c3.6-.26,5.68-1.31,7-4.85,10-27.16,20.18-54.26,30.27-81.39a51.63,51.63,0,0,0,1.24-5.11c-8.19,3.12-15.48,6.23-23,8.6-3,1-7,1.32-9.86.22C82.4,67.26,68.1,55.62,57.12,40a44.12,44.12,0,0,1-4.82-9.27,5.45,5.45,0,0,1,.84-4.48c.55-.73,2.64-.79,3.85-.45,7.35,2.06,14.58,4.61,22,6.4a19.89,19.89,0,0,0,10,0c22.38-6.86,42.93-17.78,63.07-29.48,3.79-2.2,7.26-3.5,11.63-2.07C175.5,4.47,187.39,8.06,199.16,12a33.34,33.34,0,0,1,7.39,4.1c10.5,6.87,11.58,9.93,2.89,18.62-28.66,28.65-43.55,65.33-60.07,101.12-3.41,7.39-6.59,14.9-10.25,23.21,28.3,3,55.66,8.4,83.44,18.07,4.29-14.1,8.44-27.74,12.58-41.38.19-.64.27-1.31.41-2,2.89-12.52,2.29-13.9-8.55-21.17a63.31,63.31,0,0,1-5.82-5c7.64-5.28,14.19-9.78,20.71-14.33a10.33,10.33,0,0,1,9.74-1.69c13.7,4.23,25.09,12,35.07,22a11,11,0,0,1,2.72,12q-9.9,28.54-19.89,57c-.92,2.66-1.83,5.32-2.87,8.33,2.95,1.62,5.7,3.08,8.39,4.64,8.06,4.66,16.23,9.14,24.1,14.09,13.78,8.68,23,20.82,26.78,36.89v12c-5.23,12.21-12.08,15.34-24.88,10.58a100.25,100.25,0,0,1-16.94-8.29c-9.78-5.94-19.25-12.41-28.86-18.64-1.18-.76-2.43-1.39-2.84-1.62-7.76,11.6-14.56,23.28-22.81,33.8-13.55,17.27-31.18,28.66-53.06,32.75-1.74.32-3.43.94-5.14,1.42Zm-75.29-120a44.06,44.06,0,0,0-6.19,0A62.11,62.11,0,0,0,39,209.5c-2.45,2.8-3.83,7-4.45,10.8-.74,4.52-.76,9.67,3.78,12.65,4.21,2.77,8.45.61,12.16-1.55a56.52,56.52,0,0,0,11.3-8C71.58,213.8,76.25,201,83.15,188.6Z"/></g></svg>