<?xml version="1.0" encoding="utf-8"?>
<!-- Generator: Adobe Illustrator 24.0.1, SVG Export Plug-In . SVG Version: 6.00 Build 0)  -->
<svg version="1.1" id="Layer_1" xmlns="http://www.w3.org/2000/svg" xmlns:xlink="http://www.w3.org/1999/xlink" x="0px" y="0px"
	 viewBox="0 0 290.4 324" style="enable-background:new 0 0 290.4 324;" xml:space="preserve">
<path d="M51.7,21.9c0,0,12.8,14.9,50.2,0s47-27.7,63-19.2S206.4,38,203.2,54s-54.1,42.7-75.6,59.8s-37.5,34.1-15.1,26.7
	c22.4-7.5,87.5-28.8,128.1-7.5s60.8,52.3,43.8,101.4s-88.6,88.6-128.1,89.6s-47-11.7-47-11.7s103.5-43.8,127-81.1
	s25.6-69.9-42.7-69.1S80.5,193.8,60.3,210.8s-32,37.3-45.9,30.9S-7,206.6,9,185.2S110.4,97.7,123.2,86s11.7-22.4,3.2-21.3
	s-28.8,19.2-47,7.5S53.9,43.3,51.7,21.9z"/>
</svg>
