<?xml version="1.0" encoding="utf-8"?>
<!-- Generator: Adobe Illustrator 24.0.1, SVG Export Plug-In . SVG Version: 6.00 Build 0)  -->
<svg version="1.1" xmlns="http://www.w3.org/2000/svg" xmlns:xlink="http://www.w3.org/1999/xlink" x="0px" y="0px"
	 viewBox="0 0 329.70462 319" style="enable-background:new 0 0 329.70462 319;" xml:space="preserve">
<g id="Layer_1">
</g>
<g id="Layer_2">
	<g>
		<path d="M208.0721,319c-13.95784,0-27.91566,0-41.8735,0c-5.52995-1.00467-11.07214-1.94629-16.58791-3.02405
			c-40.66431-7.94559-63.66299-31.77634-68.03584-73.02118c-1.99265-18.79468-0.88673-37.92009-1.17805-56.89563
			c-0.0301-1.96013-0.00405-3.92113-0.00405-6.64955c-3.52689,0.81602-6.4745,1.21573-9.21765,2.19292
			c-5.31185,1.89226-10.65939,3.79858-15.71744,6.26567c-7.47569,3.64627-13.98641,2.4695-20.35419-2.50623
			C22.28671,175.34706,11.296,163.65164,2.20776,150.15485C1.58864,149.2354,1.2001,148.15976,0,145.73189
			c3.16703-0.31073,5.4732-0.83701,7.74126-0.70493c7.73396,0.45035,15.80264,2.85986,23.11,1.37814
			c16.87189-3.42114,33.38547-8.63853,49.99619-13.30016c1.25558-0.35234,2.89996-1.96811,3.06248-3.17313
			c1.73677-12.87736,3.54312-25.73289-2.11428-38.30994c-2.44275-5.43052-3.99697-11.28168-5.7254-17.01138
			c-1.53771-5.09753,0.03297-6.82016,5.3801-6.2393c2.47401,0.26875,4.9481,0.59439,7.39584,1.03978
			c24.12004,4.38879,30.80426,11.36465,33.87405,35.79343c0.72146,5.74134,0.756,11.56952,1.13989,17.90807
			c1.87109-0.28039,3.49124-0.39783,5.04863-0.77547c20.79294-5.04199,41.55356-10.22117,62.38309-15.10517
			c4.19067-0.9826,5.67943-3.07963,5.67831-7.16453c-0.00441-16.31881-0.74034-32.70626,0.51796-48.93385
			c0.93488-12.05641-4.00113-20.40299-11.82127-28.10302c-2.12883-2.0961-4.39124-4.06532-6.68486-5.98131
			c-4.21481-3.52085-3.94684-5.94404,1.13231-8.23642C186.74933,5.8181,193.43329,2.9325,200.09619,0c2.32629,0,4.65262,0,6.97891,0
			c11.04596,6.95342,22.26251,13.65288,33.07242,20.95773c6.25049,4.22381,8.49846,10.6181,7.59369,18.34806
			c-1.18027,10.08384-1.83292,20.23119-2.6436,30.35677c-0.64659,8.07606-1.18991,16.16043-1.83047,24.94601
			c2.73584-0.77891,4.76775-1.38085,6.81245-1.93537c7.68845-2.08512,15.3681-4.2044,23.07458-6.2204
			c18.68756-4.8886,50.25507,7.07697,56.55045,23.5472c0,2.33334,0,4.66666,0,7
			c-5.90298,7.15895-14.12289,10.62947-22.60489,12.8241c-19.91696,5.15331-39.98651,9.73233-60.06886,14.20712
			c-3.87036,0.8624-5.49982,2.10617-5.7733,6.2514c-0.90999,13.79305-1.83241,27.61304-3.60991,41.31042
			c-1.08075,8.32826-3.11766,16.66884-5.87238,24.60312c-2.79561,8.052-8.65875,13.98422-16.27196,18.20787
			c-6.72838,3.7328-12.80151,3.38557-18.04462-2.17505c-6.37766-6.76389-12.74525-13.59903-18.44131-20.93158
			c-6.63004-8.53484-14.08975-15.87141-23.47609-21.28996c-1.88864-1.09029-3.09998-3.36095-4.93019-5.43481
			c14.09352,0,27.12744,0,40.57213,0c1.25198-11.64494,2.48967-23.15691,3.78612-35.21548
			c-2.30643,0.41737-4.07143,0.62724-5.77931,1.06261c-19.30345,4.92059-38.62204,9.78453-57.88649,14.85506
			c-12.02115,3.16403-12.27057,3.2822-13.45731,15.53061c-1.78442,18.41696-3.05379,36.88733-0.45656,55.34848
			c3.38377,24.05176,16.94617,35.36981,41.21001,34.43225c4.80971-0.18588,9.65573-0.37903,14.40164-1.11191
			c22.96815-3.54688,45.88986-7.39752,68.86392-10.90405c15.38031-2.34744,29.92297,0.22256,42.5361,9.73438
			c9.93765,7.4942,10.50323,19.61633,1.36813,28.06006c-3.83032,3.54047-8.44284,6.88306-13.30115,8.52075
			c-11.59503,3.90848-23.44324,7.22354-35.38899,9.87161C227.56342,316.86639,217.75223,317.63577,208.0721,319z"/>
	</g>
</g>
<g id="Layer_3">
</g>
<g id="Layer_4">
</g>
</svg>
