<svg xmlns="http://www.w3.org/2000/svg" viewBox="0 0 288.02 311"><title>hiragana</title><g id="Layer_2" data-name="Layer 2"><path d="M237.87,311c-6.5-1.2-13.08-2.08-19.5-3.66-37.48-9.2-63.78-33-79.77-67-25.35-53.85-20.83-106,14.65-154.58a17.06,17.06,0,0,0,3.34-6.17c-12,3.76-24,7.3-35.92,11.35-20.58,7-41,14.43-61.62,21.4a10.33,10.33,0,0,1-7.37-.76c-14.94-8-26.48-19.91-37-32.93C9.92,72.79,5.5,66.61,0,59.34c3.51-.23,5.59-.75,7.52-.42,7.69,1.29,15.37,2.68,23,4.35a44.54,44.54,0,0,0,23.12-.81C75.82,55.58,98,48.54,120.17,41.71c17.12-5.27,34.42-10,51.44-15.59C182,22.7,192,18.19,202,13.94,212.72,9.44,223.28,4.66,233.89,0h6c1.53.53,3,1.1,4.59,1.58,14.6,4.56,28.23,11,38.85,22.34,7.51,8,5.83,14.84-3.54,20-23.84,13.14-48.1,25.63-71.11,40.13a105.37,105.37,0,0,0-45,58c-13.25,40.74,7,73.74,38.39,90.73,11.38,6.17,23.19,11.57,34.55,17.78,11.74,6.42,20.74,15.52,24.62,28.81,3.32,11.36,1.38,25.7-12.39,31.68Z"/></g></svg>