<svg xmlns="http://www.w3.org/2000/svg" viewBox="0 0 200.34 350"><title>hiragana</title><g id="Layer_3" data-name="Layer 3"><path d="M153.2,294.61c11-12.17,9.82-25.14,14.53-44,2.75-11,3.54-36.14,13-42.43,13,15.32,19.64,42,19.64,64.43,0,22-9,42.42-25.14,56.56C161.05,341.75,139.45,350,115.88,350c-26.32,0-49.1-9-64-24.75-13.35-13.75-22-36.92-22-63.24,0-7.86.79-19.25,1.18-24.36-12.17-1.17-16.5-3.92-31-20l1.57-18.85,17.29-4.72c16.1,7.07,8.24,6.29,16.49,8.64.4-5.1,6.68-34.56,14.93-68.74-14.53-2-16.1-7.46-34.57-29.46l9.43-18.86C55.39,98.6,41.25,99.38,57,97.42,65.6,59.32,70.71,33.78,70.71,24l-.79-13.35L83.67,0c18.86,11.78,29.46,23.57,29.46,35,0,5.5-2,14.93-5.89,30.64-1.18,3.93-2.75,9.43-4.71,16.89S98.2,98.6,95.85,107.63c0,0,2.35.79,7.85,4.72,6.68,5.1,16.11,5.89,18.86,6.28,2.75.79,11,7.46,15.71,12.57,2.75,3.14-3.14-1.57-3.14,3.14,0,7.47-8.64,14.54-15.71,15.72-5.5,1.17-20-4.72-30.25-15.32-6.68,23.57-13,52.24-16.11,70.31,2.36-12.57-4.71,4.71,3.93,3.14,3.54-.39,3.93,1.18,7.86,3.15,3.53,2,6.68,3.14,9.43,3.14,6.28,0,18.46,3.53,23.57,6.28,4.71,4.72,7.85,9,7.85,15.72,0,11-15.71,13-29.85,14.14-20.82,2-25.14-11.39-31.43-11.39,2,5.5,3.54,6.28,3.14,16.89,0,37.31,13.36,52.63,48.32,53C133.16,309.15,144.16,304.83,153.2,294.61Z"/></g></svg>