<svg xmlns="http://www.w3.org/2000/svg" viewBox="0 0 320.34 331.02"><title>hiragana</title><g id="Layer_6" data-name="Layer 6"><path d="M4.35,268.53C.79,264.18,0,258.64,0,253.5c0-5.93,6.72-15,17.4-27.29,5.14-5.93,23.33-37.17,52.2-94.91v-2.77c-13.84,7.91-31.24,17.4-38.75,17.4s-15.43-3.56-25.31-11.07L7.91,121c17-4.35,34.8-11.47,55.76-26.1l5.93-4,.8-43.11c0-14.63-1.59-24.52-6.33-36L74,0c21.76,5.54,34,16.61,34,28.87,0,2.77-.4,8.31-.79,16.21-.8,8.31,3.55,26.9-.8,25.71,4.75,0,11.47,3.56,15.82,7.12,5.54,5.54,9.1,11.86,9.1,15.42,0,3.17-3.56,9.49-7.91,14.24-5.93,6.72-13,17.4-19.77,28.87l-.4,28.48v4.35c46.67-36.78,100.06-61.7,143.16-61.7,19.38,0,38,8.7,52.6,24.92a83.89,83.89,0,0,1,21.36,55.36c0,24.92-12.66,50.23-36.39,72-22.54,20.57-36.77,31.64-80.28,42.71L178.36,301c70.79-33.62,100.45-75.14,100.45-110.34,0-13.44-3.56-23.33-13.84-34.8-9.09-9.89-18.19-13.84-30.85-13.84-34.4,0-77.51,21-130.9,62.88v36.78l.79,58.53c0,17-4,30.85-15,30.85-5.93,0-14.63-4-17.4-10.68-4.74-6.33-6.33-13-6.33-20.17,0-6.72.4-14.24,1.19-22.94s1.58-23.33,2-43.9l.39-7.51c10.68-4.75-7.51,15.82-30.45,37.57-7.91,7.51-16.61,12.66-21.75,12.66C11.07,276.05,5.93,271.3,4.35,268.53Z"/></g></svg>