<?xml version="1.0" encoding="utf-8"?>
<!-- Generator: Adobe Illustrator 24.0.1, SVG Export Plug-In . SVG Version: 6.00 Build 0)  -->
<svg version="1.1" xmlns="http://www.w3.org/2000/svg" xmlns:xlink="http://www.w3.org/1999/xlink" x="0px" y="0px"
	 viewBox="0 0 296.41199 339" style="enable-background:new 0 0 296.41199 339;" xml:space="preserve">
<g id="Layer_1">
</g>
<g id="Layer_2">
	<g>
		<path d="M110.99772,0c8.2452,2.40216,16.47658,4.85352,24.73989,7.19123c6.86363,1.94173,12.29379,5.8331,16.03311,11.8902
			c3.47096,5.6224,4.53072,11.05774,1.26547,17.74045c-4.28009,8.75978-7.08734,18.24957-10.41457,27.46662
			c-0.58591,1.62315-0.61537,3.44844-1.05702,6.11889c7.42401-3.66608,14.0761-6.66347,20.43678-10.18978
			c4.47981-2.48358,8.89552-3.21481,13.85509-2.16729c11.0063,2.32467,21.41905,6.11543,30.61902,12.67698
			c9.97742,7.11604,10.38882,15.60019,0.75641,23.27921c-4.60966,3.67487-10.00981,6.57737-15.43292,8.95542
			c-13.38167,5.86791-27.18193,10.8006-40.42551,16.95091c-8.52032,3.95683-16.63474,8.99004-24.40691,14.31121
			c-6.65952,4.55939-11.0996,11.23572-14.4703,18.72275c-22.75205,50.53722-45.39467,101.12756-68.70513,151.40567
			C38.17263,316.47098,30.17719,327.4805,23.27483,339c-0.66457,0-1.32914,0-1.99371,0
			c-9.79927-3.82947-16.59768-10.60815-18.5585-21.0795c-1.55529-8.30573-3.09695-16.87579-2.64151-25.21844
			c0.38625-7.07504,2.51724-14.58145,5.80577-20.88379c20.47264-39.23486,41.4903-78.18355,62.3153-117.23354
			c0.59396-1.11377,1.05439-2.29921,1.80568-3.95509c-23.82544-2.96028-42.67696-14.61572-60.56424-30.68009
			c2.67576-1.97829,4.54132-4.51222,6.66521-4.75298c27.63857-3.13305,53.14419-12.9414,77.97099-24.81029
			c2.47598-1.18369,5.06904-4.00497,5.83726-6.59473c5.11139-17.23133,9.79914-34.59088,14.43696-51.95917
			c0.46933-1.75757,0.06965-3.98747-0.57235-5.76331c-2.70413-7.48004-5.65324-14.87096-8.51005-22.28761
			c1.22069-1.23674,2.47653-2.50909,3.73237-3.78145C109.66858,0,110.33315,0,110.99772,0z"/>
		<path d="M296.41199,299c-9.07184,19.98151-26.80316,26.25314-46.42979,29.8551
			c-26.84941,4.92758-52.11026-1.33551-76.86589-10.74564c-9.70638-3.68958-18.19829-9.65561-25.07674-17.6051
			c-10.8214-12.50641-13.42436-26.97348-10.08919-43.69202c2.03635,1.12283,3.85323,1.63419,4.96463,2.81421
			c9.8779,10.48764,22.74294,13.78363,36.30884,15.50201c17.51308,2.21841,34.77061-0.72763,52.0873-2.54449
			c12.06177-1.26553,24.13797-2.61401,36.14149,0.46863c8.1225,2.08594,16.09628,4.84769,21.90036,11.13257
			c3.04395,3.29611,4.74921,7.83633,7.05899,11.81473C296.41199,297,296.41199,298,296.41199,299z"/>
		<path d="M190.08858,206.78221c7.05397-8.9283,13.53847-17.1358,20.02296-25.34331
			c-0.39603-0.50146-0.79205-1.00293-1.18808-1.50438c-6.52287,0.51744-13.06064,0.89371-19.56543,1.58296
			c-11.94508,1.26569-23.16553-0.52034-33.24713-7.44601c-5.85927-4.02505-9.71922-9.39714-10.8367-16.58926
			c0.43474-0.40192,0.7392-0.91682,1.15541-1.03474c22.0069-6.23442,44.22028-11.82091,65.97377-18.84178
			c16.24797-5.24397,31.39569-4.43173,46.04349,3.86928c8.18524,4.63861,16.45413,9.44324,23.6636,15.41444
			c7.69525,6.37358,7.82336,13.67267,1.60486,21.52992c-1.66296,2.10121-4.64996,3.69196-7.31741,4.36171
			c-18.65991,4.68518-37.46733,8.79137-56.07504,13.6684c-8.63362,2.26283-16.92337,5.8437-25.37529,8.80904
			C193.5325,205.75496,192.08525,206.15924,190.08858,206.78221z"/>
	</g>
</g>
<g id="Layer_3">
</g>
<g id="Layer_4">
</g>
</svg>
