<?xml version="1.0" encoding="utf-8"?>
<!-- Generator: Adobe Illustrator 24.0.1, SVG Export Plug-In . SVG Version: 6.00 Build 0)  -->
<svg version="1.1" xmlns="http://www.w3.org/2000/svg" xmlns:xlink="http://www.w3.org/1999/xlink" x="0px" y="0px"
	 viewBox="0 0 270.33282 336" style="enable-background:new 0 0 270.33282 336;" xml:space="preserve">
<g id="Layer_1">
</g>
<g id="Layer_2">
	<g>
		<path d="M128.85297,336c-11.84766-1.38733-23.71454-2.63199-35.53299-4.23608c-4.38976-0.59583-9.37615-0.02841-13.12817-4.72958
			c2.26765-0.75375,4.1002-1.38223,5.94468-1.97311c31.49155-10.08871,62.71283-20.9725,91.54849-37.44464
			c10.59792-6.05396,20.4304-13.5997,30.06325-21.16861c7.69165-6.04361,12.60912-14.52203,16.3985-23.52917
			c4.76714-11.33115,1.91484-22.27251-7.92842-29.76042c-10.5761-8.04543-22.83029-10.28456-35.76198-9.66306
			c-15.88371,0.7634-30.53752,5.93294-44.60776,12.97182c-23.08052,11.54646-43.11687,27.41521-62.26936,44.50925
			c-6.412,5.7229-12.35856,5.39542-16.80999-2.12262c-8.34523-14.09427-11.39217-29.40318-7.62365-45.60565
			c0.69089-2.97043,2.62066-5.69751,4.20381-8.40422c9.05643-15.48376,18.19911-30.91673,27.25352-46.40167
			c0.88183-1.5081,1.36164-3.25298,2.56884-6.21469c-8.40635,1.92525-15.62842,3.53603-22.82833,5.24109
			c-6.45261,1.52808-12.89954,3.088-19.31395,4.76855c-5.24593,1.37437-9.6847-0.125-13.01823-4.08511
			c-3.83829-4.55977-7.83109-9.18459-10.62642-14.39235c-6.05121-11.27359-11.42378-22.91663-16.93939-34.47325
			c-0.53154-1.11371-0.64012-3.4628-0.03493-3.86753c1.12121-0.74985,3.37121-1.1869,4.36122-0.53877
			c14.88907,9.7472,30.76235,7.83916,46.96305,4.72024c16.12603-3.10457,32.35605-5.68051,48.57478-8.27195
			c3.4035-0.54381,5.33855-2.15547,6.51784-5.20557c6.23447-16.1246,12.57164-32.2095,18.74023-48.35934
			c4.60703-12.06155,0.12917-22.06851-7.45548-31.25727c-0.73772-0.89375-1.64837-1.64154-2.44875-2.48574
			c-3.24329-3.4209-2.47701-6.08768,1.93442-7.4543C124.36675,4.46927,131.08199,2.19755,137.81999,0c2.98901,0,5.97803,0,8.96704,0
			c8.04753,6.01073,16.98354,11.1407,23.95161,18.22152c13.1821,13.39541,11.32813,11.692,4.17711,25.92381
			c-6.18999,12.31918-13.64941,23.99401-20.48473,35.98983c-1.42473,2.50037-2.57297,5.15944-3.84863,7.74537
			c0.32993,0.33061,0.65982,0.66122,0.98975,0.99183c9.66504-4.63662,19.21695-9.53315,29.0274-13.83575
			c9.54739-4.18724,19.08363-8.88203,29.11279-11.38074c21.07561-5.25086,38.50188,3.28545,53.07471,17.87283
			c7.17468,7.18182,5.35529,15.79087-3.80157,19.54948c-11.94069,4.90128-24.21574,9.10138-36.58308,12.80981
			c-21.75656,6.52384-44.00665,11.51937-65.47244,18.85715c-26.25746,8.97574-23.22621,4.93317-37.94034,34.62434
			c-2.82241,5.69524-4.93367,11.7455-7.92128,18.955c18.91965-10.34869,37.89409-14.57323,57.62334-15.79846
			c23.34857-1.44997,46.1391,0.63559,67.34734,11.61754c15.73332,8.14691,27.23895,20.03867,31.76437,37.68977
			c1.18787,4.63321,1.70453,9.43974,2.52945,14.16669c0,1.66667,0,3.33333,0,5c-0.30756,1.78397-0.74866,3.55646-0.90201,5.35368
			c-1.49588,17.53123-8.177,32.91026-19.76819,45.95018c-19.9917,22.49036-45.15538,36.17633-74.332,42.61755
			c-5.80531,1.28165-11.71977,2.06531-17.58389,3.07858C148.11548,336,138.48422,336,128.85297,336z"/>
	</g>
</g>
<g id="Layer_3">
</g>
<g id="Layer_4">
</g>
</svg>
