<svg xmlns="http://www.w3.org/2000/svg" viewBox="0 0 252.51 341"><title>hiragana</title><g id="Layer_4" data-name="Layer 4"><path d="M138,341H95.13c-1.59-.37-3.19-.69-4.77-1.1-9.91-2.6-20.27-4.15-29.65-8.06C40.18,323.27,31.33,306.16,33.85,284c2.22-19.35,10.22-36,22.16-51,10.86-13.65,23.93-24.92,37.83-35.31,1.57-1.17,3.47-3.13,3.57-4.83A62.2,62.2,0,0,0,96.84,178c-1.26-6.74-6.19-9.8-12.9-8.56a54.23,54.23,0,0,0-12,3.24c-15.48,6.82-30.86,13.88-46.2,21-6.26,2.91-9,2.24-12-4.17-5.15-11-7-21.81,3-31.58,3.07-3,5.45-6.71,8.36-9.9,7.73-8.49,15.57-16.87,23.35-25.32.94-1,1.76-2.13,2.85-3.48C28.9,113.52,14.5,98.09,0,80.93c2.52-1.06,4.32-2.57,5.9-2.37,25.11,3.15,49.19-2.62,73.35-8a12.45,12.45,0,0,0,8.64-5.94c6.47-10.66,13-21.27,19.53-31.93s6.26-12.36-3.1-21.09c-1.82-1.7-3.87-3.15-5.69-4.84A14,14,0,0,1,96.81,3.9L112.06,0h8c1.4.31,2.8.73,4.22.92a44,44,0,0,1,24.54,11.2c7.13,6.6,7.88,14,3,22.31-3.52,6-6.74,12.24-10.35,18.82,7.93-2.45,14.78-5,21.82-6.66,13.29-3.19,24.93.12,34.65,10,9,9.13,7.6,18.38-3.78,23.88a47.27,47.27,0,0,1-6.38,2.79c-21.39,6.58-42.81,13.07-64.2,19.63-1.71.52-3.7.92-5,2q-15.8,14.46-31.32,29.21a35.11,35.11,0,0,0-3.41,4.55c26.35-2.07,48.91,1.71,58.16,29.93,19.59-11.07,38.78-22,58.06-32.73,2-1.14,4.79-2.09,7-1.74,17.25,2.78,33.59,7.68,45.44,21.86v5c-9.22,8.92-20.15,15.17-31.87,20-9.35,3.85-19,6.93-28.35,10.84-14.06,5.88-28,12.16-41.9,18.31-3.94,1.74-5.88,4.77-6.63,9.14a212.72,212.72,0,0,1-4.92,21.91,46.83,46.83,0,0,1-5.61,13.2c-5.63,8.46-17,8.26-22.4-.41-2.37-3.84-3.35-8.58-4.66-13-.69-2.31-.73-4.82-1.2-8.25-6.81,4.35-13.08,8.06-19,12.22C77.86,250.59,70.43,257.08,65.8,266c-8.95,17.25-2.46,26.73,16.47,27.55A68.75,68.75,0,0,0,103,291.26c13.57-3.68,26.9-8.29,40.26-12.71,5.06-1.68,9.93-3.46,15.46-2.31,4.7,1,9.59,1,14.28,2,9.32,2,19.15,3.16,27.71,7,12.59,5.7,14.74,20.76,5.25,31a42.33,42.33,0,0,1-12.67,9.42,145.36,145.36,0,0,1-24.18,8.95C158.86,337.37,148.34,338.94,138,341Z"/></g></svg>