<svg xmlns="http://www.w3.org/2000/svg" viewBox="0 0 298.25 296"><title>hiragana</title><g id="Layer_2" data-name="Layer 2"><path d="M30.13,0c0,.16,0,.39.12.48,22.6,19.6,28.82,45.66,29.52,74.12.61,25.1-2.3,49.9-5.34,74.71-.9,7.42-1.72,14.84-2.7,23.3l22-10.31c-.77,2.86-1.19,4.87-1.84,6.79-10.86,32.1-16.78,65.46-25.1,98.2-2.48,9.77-6.44,19.15-9.72,28.71h-13C14.2,291.58,9.2,283.15,6.28,273.27A159.65,159.65,0,0,1,1,210.43C5.19,171.71,10.08,133.06,18.8,95,25.41,66.16,29.43,37,26,7.36,25.61,4,26,1.56,29.13,0Z"/><path d="M298.25,248c-10.79,16.52-27.72,22.55-45.7,26-26.41,5.15-52.68,4.19-77.84-6.13-24-9.84-37.32-28-38.87-54.3-.27-4.65-.82-9.32-.68-14,.08-2.76,1.26-5.5,2.26-9.48,1.45,2.14,2.06,2.89,2.5,3.72,12,23,34.57,32.11,59.49,29.45,14.27-1.52,28.24-5.75,42.35-8.77,16.37-3.5,31.75-1.47,44,10.65,5.23,5.18,8.38,12.46,12.48,18.78Z"/><path d="M191.33,101.89l18.88-21c-28.51-4-56.06-8.78-78-30a22.9,22.9,0,0,1,3.55-1.34C157.35,46,178,39.44,198.32,31.44a185.7,185.7,0,0,1,26.59-8.2,35.42,35.42,0,0,1,15.2,0c15.38,3.47,28,11.94,38.1,24a25.11,25.11,0,0,1,6.16,16.51c0,10.29-4.57,16.93-14.54,19.29-15.18,3.58-30.59,6.19-45.71,10-9.12,2.28-17.88,6-26.83,9a51.08,51.08,0,0,1-5.51,1.24Z"/></g></svg>