<svg xmlns="http://www.w3.org/2000/svg" viewBox="0 0 327.98 346"><title>hiragana</title><g id="Layer_2" data-name="Layer 2"><path d="M194.79,0c8.43,3,17,5.56,25.26,9,16.31,6.72,17.36,10.52,9.71,26.4a45.25,45.25,0,0,0-4,15.21c-.67,7.05-.17,14.22-.17,21.86,9.74-1.6,19.43-2.81,28.94-4.85,21.16-4.55,40.19,1.16,58,11.92A40.82,40.82,0,0,1,324.74,91c6.24,9.07,3.18,19.37-6.59,24.42-10.39,5.37-21.74,4.29-32.76,3.75-12.42-.61-24.76-2.72-37.18-3.64-7.24-.53-14.56.07-21.85,0-3.83,0-4.71,2.1-5.47,5.49-2.88,12.9-.16,25.28,3.34,37.45,10.11,35.16,6.78,69.69-4.78,103.66C211,287,197,308.24,176,324.33c-15.13,11.61-32.41,18-51.2,20.62-1.62.23-3.2.7-4.8,1.05H100.08c.91-1.39,1.57-3.09,2.79-4.11,18.68-15.64,36.23-32.36,50.46-52.31,8.56-12,15.65-24.75,20-38.93.28-.94.43-1.92.82-3.64-5.18,1.21-9.91,2.36-14.66,3.41-11.88,2.64-23.79,4.64-36,2.77-20.75-3.17-31.13-15.26-31-36.57a71,71,0,0,1,13.78-42.05c16.21-22.35,37.24-37.74,64.53-43.77,1.27-.28,2.53-.69,4.1-1.12.13-2.65.25-5.27.42-8.62-3.77.39-7.15.65-10.5,1.11-42.18,5.77-82.52,17.23-119.72,38.58-1.71,1-4.53.95-6.5.33A19.78,19.78,0,0,1,31.81,157C18.39,145.12,9.61,129.82,0,114.15c2.49-.39,4.38-1.24,5.94-.84,21.22,5.46,41-2,61.13-6.56Q122,94.26,176.9,82.06c4.11-.9,5.82-2.36,5.86-6.68.11-11.49.78-23,.84-34.46a9.68,9.68,0,0,0-2.76-6.47c-5.12-4.71-10.62-9-16.11-13.29-3.13-2.45-3.29-5.75,0-7.87,7-4.47,14-8.86,21.05-13.29ZM182.32,185.57c-.21-3.51-.32-6.17-.55-8.81-1-11.82-5.7-15.19-18.2-12.62a19.67,19.67,0,0,0-7.33,2.94A212.58,212.58,0,0,0,137.7,181.2c-8.26,7.32-11.83,17-12.11,28-.16,6.08,1.61,9.76,7.49,10.51,7.93,1,16.21,1.48,24.07.35,13.67-2,21.54-10.86,24-24.42C181.82,192,182,188.38,182.32,185.57Z"/></g></svg>