<svg xmlns="http://www.w3.org/2000/svg" viewBox="0 0 317.2 292"><title>hiragana</title><g id="Layer_3" data-name="Layer 3"><path d="M121.78,292H100.84a4.49,4.49,0,0,0-1.28-.7c-25.76-4.3-43.18-20-56.18-41.56C32.56,231.8,28.16,212,26.59,191.29c-3.28-43,5.86-82.69,30.24-118.53.7-1,1.21-2.18,2.19-4A38.49,38.49,0,0,1,30,62,78,78,0,0,1,1.77,27.27a22,22,0,0,1-1.71-5.2,5.87,5.87,0,0,1,.82-4c.42-.56,2.39-.26,3.5.11a108.66,108.66,0,0,1,10.72,4,33.3,33.3,0,0,0,25.7,1.14c22.05-7.65,44-15.52,66-23.31h6c1.86.66,3.72,1.31,5.56,2,11.58,4.24,22,10.28,29.78,20.1,5.39,6.83,5,11.46-1.56,16.74a194.87,194.87,0,0,1-20.24,14.52A91.24,91.24,0,0,0,97.79,81.44c-14.12,21.3-27.32,43.08-33.39,68.26-4.68,19.42-7.12,39.08-1.56,58.79,5.94,21.06,20.5,34.24,39.83,36.12,13.24,1.29,24.89-3,35.2-11.15C147,226.2,153.8,217,159.69,207.05a232.31,232.31,0,0,0,23.83-57c8.84-32.1,16.56-64.5,25.19-96.65a256.88,256.88,0,0,1,11.41-33.95c4.3-10.12,9.77-11.3,19.72-6.42C254,20,263.78,38,261,53.76c-3,17.26,3.3,30.67,15.48,42,6.45,6,13.17,11.73,20,17.29,9.32,7.58,17.14,16.16,20.71,28v10c-3.63,10.44-11.86,13.53-21.87,13.68a54.6,54.6,0,0,1-36.74-13c-9.36-7.79-16.17-17.55-21.92-28.16-.75-1.39-1.58-2.75-2.72-4.72-2.64,14-4.9,27.2-7.65,40.31-7.36,35-21.06,67.24-44,95C166.64,273,148.64,288.28,123,291.29,122.6,291.34,122.2,291.75,121.78,292Z"/></g></svg>