<svg xmlns="http://www.w3.org/2000/svg" viewBox="0 0 256.67 350"><title>hiragana</title><g id="Layer_6" data-name="Layer 6"><path d="M22.15,223.84c9.88-6.33,34-12.26,47.45-7.91,17.41,5.93,64.47,27.29,64.86,20.57,0-5.94-2.37,8.7-8.7-153,.79-38-1.58-56.56-11.07-68L130.11,0A94.27,94.27,0,0,1,157.4,14.24C165.31,21,170.06,29.66,170.06,36l-1.59,39.55V89.38c6.73-.79,15.82-2,29.27,4.74,6.72,3.56,25.31,17.41,25.31,17.41,3.16-5.94,5.14,2,11.07,4.74,5.94,5.14,14.24,24.92,14.24,30.06,0,10.28-7.91,14.63-22.15,17.4-12.65,2.77-27.28-33.22-44.29-33.22-7.51,0-13.45-6.72-13.45-6.72,0,11.46.4,36.77,1.19,65.65l2.77,50.22-1.58,9.49c30.45,10.68,55.36,43.51,66,49.44,13.05,6.33,19.78,19.77,19.78,30.45,0,11.47-6.33,21-16.61,21-4.75,0-15.82-5.93-27.29-13.45-15.82-10.67-28.48-50.62-43.5-57.34C167.68,299.38,127.34,337,89,337c-22.14,0-43.1-3.56-56.55-12.66C19.38,317.57,0,280.79,0,265,0,253.5,12.26,232.15,22.15,223.84Zm44.29,34.8c-13-1.58-43.11-2-26.89,17.41,5.53,7.11,15,25.7,43.11,25.7,16.21,0,25.7-1.58,32-4.74,5.93-1.59,21-37.57,15-28.87C104.41,258.25,83.05,261,66.44,258.64Z"/></g></svg>