<?xml version="1.0" encoding="utf-8"?>
<!-- Generator: Adobe Illustrator 24.0.1, SVG Export Plug-In . SVG Version: 6.00 Build 0)  -->
<svg version="1.1" xmlns="http://www.w3.org/2000/svg" xmlns:xlink="http://www.w3.org/1999/xlink" x="0px" y="0px"
	 viewBox="0 0 197.63724 339" style="enable-background:new 0 0 197.63724 339;" xml:space="preserve">
<g id="Layer_1">
	<g>
		<path d="M177.73022,339c-25.20195-11.70746-40.75693-33.90942-58.21803-54.03424c-3.15862-3.6405-6.17358-7.40829-9.3735-11.01093
			c-17.47659-19.67606-36.66681-37.2303-61.32466-47.42064c-7.76649-3.20964-16.14823-4.88838-24.16077-7.53546
			c-5.16462-1.70621-10.53699-3.27121-15.17091-6.00404c-10.08044-5.9449-12.38109-16.39476-5.6609-25.86412
			c4.40241-6.2034,9.52364-11.97008,14.831-17.43422c31.36238-32.28876,59.61501-66.94091,83.12811-105.54555
			c10.17879-16.71191,17.29571-33.39842,13.59256-53.40437C114.73942,7.32287,115.76134,3.58999,116.01844,0
			c1.65891,0,3.31784,0,4.97675,0c1.3395,0.87962,2.61803,1.87572,4.02796,2.6208
			c13.76379,7.27343,26.47001,15.99104,36.46598,28.11547c8.53372,10.35079,9.43686,17.37819,2.38271,28.68882
			c-6.84651,10.97771-14.3987,21.59464-22.46861,31.7031c-23.96703,30.02141-48.34485,59.71174-72.54696,89.54389
			c-1.11285,1.3717-2.07887,2.86363-3.20441,4.42607c11.30221,5.46428,22.55077,10.05434,32.97127,16.08789
			C143.0264,226.89601,183.35956,256.54016,197.63724,310c0,4,0,8,0,12c-2.04045,7.41275-5.87303,13.44867-12.93956,17
			C182.3752,339,180.0527,339,177.73022,339z"/>
	</g>
</g>
<g id="Layer_2">
</g>
<g id="Layer_3">
</g>
<g id="Layer_4">
</g>
</svg>
