<?xml version="1.0" encoding="utf-8"?>
<!-- Generator: Adobe Illustrator 24.0.1, SVG Export Plug-In . SVG Version: 6.00 Build 0)  -->
<svg version="1.1" xmlns="http://www.w3.org/2000/svg" xmlns:xlink="http://www.w3.org/1999/xlink" x="0px" y="0px"
	 viewBox="0 0 298.24786 296" style="enable-background:new 0 0 298.24786 296;" xml:space="preserve">
<g id="Layer_1">
</g>
<g id="Layer_2">
	<g>
		<path d="M30.12544,0c0.03966,0.16182,0.02427,0.38754,0.12677,0.47643c22.60097,19.60001,28.81896,45.66215,29.51588,74.12822
			c0.61452,25.10033-2.29856,49.89376-5.33386,74.70474c-0.90736,7.41689-1.724,14.84492-2.70125,23.29761
			c7.53099-3.52382,14.31232-6.69687,22.02845-10.30733c-0.76993,2.86391-1.19217,4.86722-1.84344,6.79257
			c-10.85732,32.09727-16.78049,65.45584-25.10186,98.20085C44.33521,277.05569,40.3815,286.44153,37.1026,296
			c-4.3192,0-8.63839,0-12.95759,0c-9.94863-4.41583-14.94019-12.84802-17.86623-22.73083
			c-6.08756-20.56097-7.53473-41.75212-5.26263-62.84062c4.17109-38.71405,9.05916-77.3716,17.78045-115.41104
			c6.61685-28.86058,10.63492-57.97252,7.20255-87.65575C25.61035,3.99945,25.9869,1.5638,29.1287,0
			C29.46095,0,29.79319,0,30.12544,0z"/>
		<path d="M298.24786,248c-10.78864,16.51523-27.72141,22.5452-45.69501,26.04477
			c-26.41313,5.14273-52.68729,4.18033-77.83925-6.1362c-23.97552-9.83401-37.32524-27.9781-38.86896-54.29968
			c-0.27292-4.65349-0.82332-9.31683-0.68347-13.95859c0.08331-2.76483,1.26285-5.4964,2.25784-9.47581
			c1.44664,2.14027,2.06062,2.8838,2.49831,3.7202c12.03719,23.00261,34.57106,32.10216,59.49622,29.44458
			c14.26253-1.52069,28.2381-5.75308,42.34181-8.76973c16.37831-3.50319,31.75774-1.46782,44.0114,10.6535
			c5.22855,5.17207,8.38376,12.45386,12.48111,18.77696C298.24786,245.33333,298.24786,246.66667,298.24786,248z"/>
		<path d="M191.32806,101.89321c6.07591-6.76749,12.15186-13.53497,18.88409-21.03346
			c-28.51685-4.03715-56.06299-8.78316-77.97603-29.98734c1.61475-0.62064,2.55478-1.17329,3.5584-1.33954
			c21.55193-3.57022,42.22168-10.0956,62.52306-18.09522c8.61488-3.39463,17.5701-6.12555,26.58987-8.19734
			c4.83861-1.1114,10.34814-1.10421,15.19768-0.00922c15.38309,3.47338,27.97247,11.93782,38.10406,23.96903
			c3.94247,4.68169,6.16357,10.20723,6.15887,16.50829c-0.00763,10.28815-4.56641,16.93156-14.54114,19.28845
			c-15.17357,3.58535-30.58237,6.19145-45.70279,9.97217c-9.12575,2.2818-17.8839,6.03201-26.83357,9.04352
			c-1.77611,0.59765-3.67233,0.83612-5.51315,1.24022C191.62762,102.79958,191.47784,102.3464,191.32806,101.89321z"/>
	</g>
</g>
<g id="Layer_3">
</g>
<g id="Layer_4">
</g>
</svg>
