<svg xmlns="http://www.w3.org/2000/svg" viewBox="0 0 314.02 285"><title>hiragana</title><g id="Layer_3" data-name="Layer 3"><path d="M165.48,0h11c1.06.41,2.11.84,3.18,1.21,10.91,3.73,21.49,8.11,30,16.28,4.74,4.59,5.33,8.17,2.55,13.87-4,8.22-8.28,16.31-12.34,24.51-1,2.12-1.72,4.42-2.39,6.16h19.29c55.65.15,94.51,42.86,89.78,98.48-1.52,17.88-5.65,35.12-11.1,52.13-.58,1.82-.95,4.69,0,5.87,8.94,10.8,15.68,22.65,18.62,36.49v8a20,20,0,0,0-1.22,3.2c-2.08,10.57-15.63,16.7-24.3,11.32-7.88-4.89-15.8-9.76-23.35-15.14-2.86-2-4.47-2.28-7.67-.52-12.32,6.82-24.73,13.56-37.56,19.31-4.88,2.19-11,2.6-16.49,2.14-9.87-.84-16.93-7.2-22.82-14.72a110.51,110.51,0,0,1-21.51-47.84,100.34,100.34,0,0,1-1.29-27.25c1.15-13.26,8.45-23,21-28a59.51,59.51,0,0,1,30.83-3.71c15,2.1,27.13,10.37,38.85,19.27,2.32,1.76,4.57,3.61,7.37,5.83,5.27-21,7.7-41.16,3-61.65-2.64-11.4-9.42-19.71-20.68-23-22-6.44-43.38-4.48-63.41,7.3a13.68,13.68,0,0,0-4.87,5.38q-21.56,42.25-42.74,84.69a11.89,11.89,0,0,0-.63,7.89c2.54,8.79,5.83,17.36,8.49,26.11a37.83,37.83,0,0,1-.56,24.55c-2.74,7.45-9.24,10.08-16.53,6.89a21.73,21.73,0,0,1-6-3.48c-5.67-5.22-11.1-10.69-17-16.47-.86.75-2.54,2-4,3.54-7,6.9-13.57,14.24-20.94,20.68-6.57,5.74-14,10.5-21,15.7h-1c-5.6-4.36-11.87-8.09-16.64-13.22-8.57-9.25-16.42-19.2-24.21-29.15a32.21,32.21,0,0,1-6.93-22.4C1.12,203,7.78,188,17.87,174.36c11.09-15,24.94-27.13,39.78-38.22,1.43-1.07,2.84-2.16,4.19-3.18-7.68-21.26-11-43-13.18-64.84C48.41,65.58,50,62.86,51,59l39.34,49.35c17.07-9.82,33.65-19.27,50.1-28.94,1.48-.87,2.49-3,3.17-4.74,4.52-11.63,8.49-23.49,13.48-34.91,2.39-5.46,1.83-9.92-1.76-13.76-4-4.33-8.93-7.85-13.35-11.84-1.79-1.6-3.31-3.5-5.3-5.65ZM69.15,163.06c-9,7.71-17.46,14.8-25.66,22.23a36.11,36.11,0,0,0-6.28,8.32c-8.9,14.8-3.18,32.49,12.58,39.7,2.9,1.32,5.41,1.51,7.76-.72,6.61-6.27,13-12.78,19.8-18.83,6.51-5.79,8.33-11.41,3.26-19.52-3.63-5.8-5.27-12.87-7.67-19.43C71.65,171.28,70.62,167.65,69.15,163.06Zm164.37,58.65c-4.77-4.92-7.91-9.2-12-12.12a62.6,62.6,0,0,0-15.65-8.17c-4.39-1.53-8.94,0-11.81,4.27-3.45,5.16-3.44,14.46-.06,18.67,7.54,9.39,14.27,12.48,22.07,8.72C221.92,230.26,227.08,226,233.52,221.71Zm-112-87.2-1.26-.89c-4,2.59-8,5.1-11.91,7.85a4,4,0,0,0-1.59,3.16c1.07,5,2.47,9.88,3.76,14.81l1.32.2Z"/></g></svg>