<svg xmlns="http://www.w3.org/2000/svg" viewBox="0 0 270.2 344"><title>hiragana</title><g id="Layer_2" data-name="Layer 2"><path d="M199.46,344c-5.14-1.17-10.32-2.16-15.4-3.53-50.19-13.5-82-60.86-77-114.33,2-21.55,8.54-41.33,23.21-59.39-2.49,1-3.8,1.35-5,1.95Q72.11,195,19,221.22a54.32,54.32,0,0,1-6.85,2.94c-5.87,1.93-8.3.9-10.16-5.12a47.78,47.78,0,0,1-.2-26.61c1-3.68,2.85-7.1,4.09-10.71,2.77-8,8.59-11.53,16.74-11.32,9.75.26,18-3.26,25.81-8.88C98.4,125.56,145,86,183.11,37.05c3.46-4.44,3.84-8.17.29-11.72-4.75-4.75-10.21-8.77-15.29-13.19a25.13,25.13,0,0,1-2.77-3.36,30.9,30.9,0,0,1,4-1.82c7.71-2.37,15.44-4.65,23.16-7h10c.23.22.44.57.71.64,19.24,4.85,33.18,17.47,45.72,31.88,4.06,4.67,3.76,8.44-.75,12.87-4.7,4.6-9.85,9.1-15.57,12.22-13.26,7.24-24.82,16.58-35.88,26.69s-22,20.21-33.1,30.28a21.79,21.79,0,0,1-3.33,2.1l1,1.27c10.46-4,20.86-8.24,31.39-12.1,10.18-3.72,20.06-7.68,31.51-7.41,19,.45,39.43,11.86,46,27.56v5c-2.41,7.14-7.33,10.22-14.88,11-26.82,2.59-51.8,11.15-75,24.82-13.28,7.81-24.23,18-31.92,31.55a45,45,0,0,0-6.17,25.85c1.27,17.77,10.86,30.45,25.06,39.9,12.59,8.38,25.81,15.8,38.29,24.32,6.78,4.63,13.54,9.91,18.67,16.23,12,14.87,8,31.29-8.81,39.37Z"/><path d="M29.75,35.25c5.22.49,9.93.17,14.14,1.49A76.73,76.73,0,0,1,85.47,67.63c6.77,10,7,21.44,3.7,32.67a17,17,0,0,1-28.49,7.19A52.8,52.8,0,0,1,50,90.89c-5.16-12.6-9.23-25.65-13.81-38.49C34.3,47.1,32.24,41.86,29.75,35.25Z"/></g></svg>