<svg xmlns="http://www.w3.org/2000/svg" viewBox="0 0 311.24 313.62"><title>hiragana</title><g id="Layer_6" data-name="Layer 6"><path d="M120.23,267.34,91.75,157.4c-6.33,4-19,9.49-28.08,15C55,178.76,47.06,183.9,41.92,183.9c-7.51,0-15.42-2-21.75-7.52C13.84,173.22,6.33,168.87,0,156.21L10.28,140.4l11.08.39c11.07,0,32-8.3,58.53-21.75C66.84,70,57.34,38,47.06,25.71L55,8.31c21.36.79,31.64,2.37,36.78,7.11s8.7,14.24,9.49,21.76c2,17.4,7.52,42.71,12.66,64.06,56.55-28.47,104.8-44.69,133.67-44.69,17.8,0,32.43,7.12,44.29,15.82,12.26,11.47,19.38,27.29,19.38,43.51,0,19-9.49,38-25.7,52.59-16.22,12.66-35.6,21-55.77,21l-26.49-1.19V164.12c48.25-7.51,64.06-19.77,64.06-41.52,0-7.52-1.58-12.26-5.93-17.4-7.12-6.73-11.86-8.7-19.77-8.7-22.94,0-63.28,15.82-115.48,42.71l37.17,119.43c4.75,13.45,7.52,25.31,7.52,33.62,0,11.47-6.33,21.36-17.4,21.36C139.21,313.62,127.34,295,120.23,267.34ZM174.8,54.18c-2.37-5.93-.39-18.59-2-22.94-1.58-11.86-3.95-12.65-16.61-19.77L163.73,0c20.17,8.7,36.38,3.16,45.87,10.28,7.52,8.31,18.2,40.34,18.2,48.65,0,0-7.52,1.58-12.66,2.76,0,0-14.63,5.54-21,5.54C186.67,67.23,179.55,61.69,174.8,54.18Z"/></g></svg>