<?xml version="1.0" encoding="utf-8"?>
<!-- Generator: Adobe Illustrator 24.0.1, SVG Export Plug-In . SVG Version: 6.00 Build 0)  -->
<svg version="1.1" xmlns="http://www.w3.org/2000/svg" xmlns:xlink="http://www.w3.org/1999/xlink" x="0px" y="0px"
	 viewBox="0 0 247.0899 324" style="enable-background:new 0 0 247.0899 324;" xml:space="preserve">
<g id="Layer_1">
</g>
<g id="Layer_2">
</g>
<g id="Layer_3">
</g>
<g id="Layer_4">
	<g>
		<path d="M106.62525,324c-6.83082-1.57993-13.66164-3.15985-20.49246-4.73978c-0.01218-0.38382-0.02436-0.76764-0.03654-1.15149
			c5.13023-2.63004,10.26484-5.25156,15.38994-7.89169c20.3964-10.50699,40.60555-21.3147,58.07454-36.51407
			c14.64227-12.73996,26.5443-27.5208,33.44356-45.90973c1.57013-4.18488,2.68748-8.58318,3.59155-12.97079
			c6.24211-30.29393-18.98972-48.6787-40.52652-48.73247c-18.08316-0.04514-34.62691,4.80084-48.94752,15.56973
			c-13.11032,9.85876-25.74989,20.45656-37.80214,31.59518c-12.68633,11.72459-24.32161,24.58762-36.63131,36.73349
			c-6.24615,6.16304-10.94059,6.09471-16.73105-0.68655c-9.68532-11.34259-14.67727-24.88142-15.79687-39.68527
			c-1.12864-14.92326,3.95109-28.91141,7.3002-43.14693c3.65782-15.54774,7.87873-31.01338,10.45401-46.74577
			c1.39626-8.52975,0.11337-17.55463-0.41705-26.32838c-0.30404-5.02927,1.40459-7.27802,6.62679-6.8074
			c8.30985,0.74888,14.63925,4.97522,19.52637,11.56468c7.32871,9.88153,10.53597,21.03484,9.96202,33.29413
			c-0.55326,11.81737-1.19582,23.63049-1.77449,35.4467c-0.07756,1.58369-0.01066,3.17448-0.01066,5.47389
			c7.80947-4.73474,15.02316-9.06628,22.1959-13.4651c18.92402-11.6055,38.31644-22.1132,60.67219-25.40843
			c19.29295-2.84375,38.77008-5.13651,57.73106,1.0313c30.14304,9.80525,48.08624,30.77299,53.72374,62.19052
			c0.2001,1.11519,0.62126,2.19038,0.93938,3.28423c0,8,0,16,0,24c-0.27292,0.7597-0.6734,1.49857-0.80049,2.28209
			c-7.64964,47.15874-34.68394,77.46941-79.71925,91.76567c-8.77127,2.78439-18.03412,4.00845-27.07021,5.95224
			C128.54172,324,117.58349,324,106.62525,324z"/>
		<path d="M63.78851,0c1.69921,1.06701,3.32104,2.8851,5.11103,3.07092C76.61948,3.87234,84.4594,5.1187,92.12736,4.52727
			c28.14353-2.17071,47.96404,12.18337,65.22666,31.95618c1.92549,2.20547,3.26254,5.03254,4.46173,7.75374
			c3.73868,8.48386,3.13054,13.26906-7.99307,16.83313c-8.26416,2.64788-17.22882,3.64605-25.95402,4.17669
			c-18.70188,1.13737-37.44865,1.5739-56.18287,2.07988c-2.41563,0.06524-4.86585-1.16023-7.31676-2.4264
			c10.05654-5.3981,19.96719-10.36255,27.77273-19.3562c-2.30537-2.08193-4.50092-4.02051-6.64829-6.01142
			c-10.17713-9.43561-19.5977-19.49593-25.27226-32.43264C59.27512,4.94337,59.25532,2.37709,58.8075,0
			C60.46783,0,62.12817,0,63.78851,0z"/>
	</g>
</g>
</svg>
