<svg id="Layer_1" data-name="Layer 1" xmlns="http://www.w3.org/2000/svg" viewBox="0 0 225.53 342"><title>hiragana</title><path d="M64.2,342c15-14.11,30.3-27.93,45-42.41C119.89,289,130.26,277.9,140,266.32c19.54-23.34,31.36-50.51,36.09-80.53a83.23,83.23,0,0,0-.38-25.3c-2.5-16.15-13.46-25.56-29.7-27.55-15.21-1.87-29.32,2-43,8-17.48,7.61-33.61,17.24-46.83,31.41-5,5.32-10.93,9.69-16.22,14.74-2.84,2.71-5.41,2.48-7.69-.13-3.49-4-7.21-7.94-9.79-12.51C14.9,161.13,7.84,147.54.67,134c-1.63-3.06-.18-5.21,3.2-4.91,1.64.15,3.25.64,4.89.91a45,45,0,0,0,31.05-5.48c22.9-13.14,46.39-25.17,71.39-33.93,18.63-6.53,37.6-10.41,57.1-5,32.06,8.88,49.12,31.54,56,63.14.38,1.76.85,3.5,1.27,5.25v36c-.36,1.61-.7,3.22-1.09,4.83-3.3,13.71-5.06,28-10.19,41-20,50.6-54.59,86.29-107.85,101.54-7,2-14.18,3.1-21.29,4.61Z"/><path d="M136.9,0c12,3.93,23.64,8.84,33.7,16.64A102,102,0,0,1,184.54,30a24,24,0,0,1,4.53,9.33c3.37,12.11-2.28,20.7-14.75,20.73a162.51,162.51,0,0,1-30.57-3.32c-15.36-2.94-30.54-4.11-45.83-.06A24.71,24.71,0,0,1,93.8,57c3.43-4.4,6.24-8.27,9.35-11.88,1.94-2.23,2-4.37,0-6.09-4.39-3.74-9-7.25-13.61-10.7C84,24.12,78.07,20.36,72.75,15.92,71,14.46,70.56,11.41,69.94,10L114,0Z"/></svg>