<svg xmlns="http://www.w3.org/2000/svg" viewBox="0 0 296.21 320.73"><title>hiragana</title><g id="Layer_6" data-name="Layer 6"><path d="M7.91,276.44C3.56,271.69,0,264.58,0,260.23c0-3.56,3.16-9.5,7.12-14.64,2.77-2.37,6.33-6.32,10.68-12.65,14.63-21.75,35.59-57.35,64.46-102.83-2,0-10.28,4.75-19.38,8.31-9.09,4-14.24,6.33-15.82,6.72-5.93,3.56-11.47,5.14-15,5.14-9.09,0-19-4.74-30-13.84l4.35-15C22.54,121,45.88,111.92,78.7,96.5l.4-49c0-17-1.19-26.9-4.75-36.39L83.84,0c21,5.14,33.22,13.45,33.22,25.31a89.78,89.78,0,0,1-1.18,11.87,159.41,159.41,0,0,0-1.59,16.21l-1.18,36.38c6.72,4.75,14.63,13,14.63,20.57,0,5.93-6.72,15-15.82,26.1v16.22c48.64-51.42,82.66-85,86.22-88.2l10.28-10.28c4.74-4.35,11.07-7.91,15.42-7.91,5.93,0,12.26,1.58,19,6.72,6.73,3.56,10.68,10.29,10.68,16.22a58.6,58.6,0,0,1-.79,7.91,43.09,43.09,0,0,0-2,8.3c-5.53,27.29-8.3,60.12-8.3,100.85,0,31.24,2.77,51.41,8.7,62.88,4,11.47,4.35,14.24,8.7,24.13,3.16,7.91,19,19,19,19l17.4,9.49c-12.65,17.8,7.12-1.19-4.74,6.33-13.84,9.1-22.94,0-34.8,0-41.53,0-52.21-47.85-52.21-113.9,0-32,1.59-58.53,4.35-80.68,2.77-20.56,5.94-24.12-5.93-13-36,33.22-66,64.07-91.75,94.13v47.06q1.19,22.55,1.19,58.13c0,10.29-5.54,21-14.64,21-14.63,0-22.93-14.63-22.93-32.42l1.58-53s-5.54,6.33-13.84,15.42-13.45,15-15.43,17.41a99.3,99.3,0,0,0-7.12,9.49c-2.76,5.53-9.49,9.09-14.63,9.09C19,286.72,13.84,282.77,7.91,276.44Z"/></g></svg>