<?xml version="1.0" encoding="utf-8"?>
<!-- Generator: Adobe Illustrator 24.0.1, SVG Export Plug-In . SVG Version: 6.00 Build 0)  -->
<svg version="1.1" xmlns="http://www.w3.org/2000/svg" xmlns:xlink="http://www.w3.org/1999/xlink" x="0px" y="0px"
	 viewBox="0 0 307.05899 312" style="enable-background:new 0 0 307.05899 312;" xml:space="preserve">
<g id="Layer_1">
</g>
<g id="Layer_2">
</g>
<g id="Layer_3">
	<g>
		<path d="M307.05899,276c-0.80682,3.36505-1.35196,6.82047-2.46921,10.07837c-3.44861,10.05627-11.98987,14.21329-21.32047,9.21762
			c-10.79718-5.78088-20.98584-12.72903-31.30215-19.38348c-8.51033-5.48953-8.37411-5.57074-16.12976,1.07675
			c-4.79308,4.10828-9.55826,8.2966-14.68497,11.957c-16.06554,11.47055-33.81972,14.82324-52.98912,10.17636
			c-4.01959-0.9744-7.98305-2.28604-11.85432-3.75537c-30.37766-11.52969-44.2738-31.71329-44.44433-64.3922
			c-0.11606-22.24312,16.719-39.69928,38.98341-40.29671c14.12396-0.37901,27.64572,3.01935,41.05623,6.95435
			c4.42392,1.29808,8.8054,2.74161,14.02048,4.37338c0.56636-27.81194,1.12286-55.14105,1.69318-83.14706
			c-11.25754,1.26865-21.83574,1.99549-32.24854,3.72469c-27.15906,4.51012-54.2396,9.49474-81.37233,14.16808
			c-2.23578,0.38507-4.62974-0.15425-7.8163-0.30507c6.06964-12.59119,12.86259-23.07919,22.9298-31.15329
			c17.15537-13.75893,37.08962-21.94459,57.77001-28.40559c13.2812-4.14935,26.8069-7.51094,39.90692-11.13811
			c4.6808-18.86891-1.25491-33.94382-16.27312-45.874c-6.50818-5.17-6.23628-6.67312,0.68414-11.18943
			C195.60799,5.80865,199.99516,2.89662,204.39232,0c2.9903,0,5.98059,0,8.97087,0c1.46233,0.70563,2.95186,1.36003,4.38254,2.12522
			c9.33163,4.99097,18.86411,9.65208,27.89729,15.13948c5.86749,3.5643,8.59276,9.16618,7.67769,16.60623
			c-1.09167,8.87592-1.29596,17.86168-1.84491,26.19629c8.30466,3.77058,16.31891,6.97659,23.91504,10.981
			c7.46387,3.93471,13.51266,9.63371,16.93872,17.65499c2.93866,6.88016,2.68512,9.71191-3.93463,13.20227
			c-7.70642,4.06329-15.96649,7.30379-24.29993,9.88046c-12.1834,3.76707-12.16058,3.38002-12.18745,16.51992
			c-0.05717,27.95331-0.32365,55.90633-0.29648,83.85925c0.0014,1.44624,1.63275,3.40927,3.03168,4.25005
			c7.96468,4.78674,16.4875,8.73326,24.07051,14.0435c12.815,8.97414,26.67462,17.474,28.34573,35.54135
			C307.05899,269.33334,307.05899,272.66666,307.05899,276z M198.94402,245.37013
			c-11.3614-9.25169-22.8082-17.42702-36.69632-21.11081c-4.87354-1.29268-10.20049-2.05814-15.16908-1.55641
			c-11.48526,1.15977-15.55746,10.62378-8.26445,19.53215c8.32469,10.16856,19.18901,16.17332,32.7397,16.11034
			C182.38271,258.29504,191.59662,254.68736,198.94402,245.37013z"/>
		<path d="M26.96837,312c-13.22353-4.44998-18.75003-15.19293-21.76648-27.58459c-4.8019-19.72629-6.5722-39.78357-4.06849-59.9901
			c3.37831-27.26509,6.78435-54.53947,10.98176-81.68488c2.51349-16.25516,6.63567-32.25635,9.90025-48.39908
			c4.84866-23.97567,6.54481-48.13357,4.09072-72.54696c-0.19238-1.91375,1.16887-3.98469,1.80806-5.98258
			c1.77848,0.7861,3.93145,1.16699,5.27846,2.41997c16.44436,15.29634,23.89822,34.59636,25.73205,56.74807
			c2.28495,27.6011-0.73988,54.8778-3.58737,82.21162c-1.2075,11.59117-2.08612,23.21698-3.08392,34.82965
			c-0.07857,0.91449,0.08128,1.84959,0.16855,3.49646c7.16817-3.79068,13.79776-7.29655,21.64283-11.44521
			c-1.68771,5.41028-3.17091,9.41197-4.18248,13.53024c-6.4279,26.16934-12.56429,52.4124-19.20863,78.52568
			c-2.41413,9.48788-5.57284,18.84109-9.19811,27.93213c-1.25605,3.14981-4.94963,5.32126-7.52986,7.93958
			C31.61994,312,29.29416,312,26.96837,312z"/>
	</g>
</g>
<g id="Layer_4">
</g>
</svg>
