<?xml version="1.0" encoding="utf-8"?>
<!-- Generator: Adobe Illustrator 24.0.1, SVG Export Plug-In . SVG Version: 6.00 Build 0)  -->
<svg version="1.1" xmlns="http://www.w3.org/2000/svg" xmlns:xlink="http://www.w3.org/1999/xlink" x="0px" y="0px"
	 viewBox="0 0 320.79102 311.85297" style="enable-background:new 0 0 320.79102 311.85297;" xml:space="preserve">
<g id="Layer_1">
</g>
<g id="Layer_2">
</g>
<g id="Layer_3">
	<g>
		<path d="M77.54643,0c5.31683,0,10.63364,0,15.95047,0c2.01086,0.69205,4.06326,1.28298,6.0255,2.09348
			c9.00246,3.71847,18.4045,6.73758,26.84222,11.47797c7.8639,4.418,8.8334,9.76132,5.91467,18.38467
			c-1.65405,4.88689-3.69156,9.66818-4.98742,14.64607c-1.84521,7.08817-0.44566,9.38968,6.19958,11.94783
			c13.33528,5.13356,17.56477,14.12408,11.77739,27.3401c-3.03595,6.93286-7.58226,13.22686-11.68834,19.65388
			c-3.93657,6.16163-8.30866,12.04278-12.26318,18.1935c-3.97119,6.17664-3.65523,12.75752-1.06373,20.24248
			c6.48045-6.19191,12.71111-11.87161,18.63589-17.85606c19.90085-20.10124,39.57178-40.43279,59.57864-60.42654
			c9.58719-9.58092,20.69595-17.22414,32.944-23.08836c11.49312-5.50275,23.53654-8.45637,36.25031-6.04132
			c14.80011,2.81138,24.0527,12.73339,30.56934,25.62551c7.93695,15.702,11.99557,32.55694,12.77243,50.00143
			c1.84271,41.38014,0.51855,82.6234-7.23373,123.46896c-0.33896,1.7861-0.38675,4.0741,0.44016,5.56416
			c5.3707,9.67792,11.02139,19.19946,16.58041,28.77222c0,5,0,10,0,15c-2.22366,4.61899-3.89041,9.62936-6.78653,13.7757
			c-6.0871,8.71466-14.56866,10.01718-23.44418,4.21603c-2.21503-1.44778-4.44208-3.02991-6.2283-4.95636
			c-5.26154-5.67468-10.30472-11.55307-15.61658-17.55884c-7.8331,8.13782-18.05864,12.61469-29.57893,14.02368
			c-26.79332,3.27704-49.98642-2.95688-65.93909-26.57181c-10.49152-15.53069-13.07048-32.93353-10.13962-51.18256
			c2.13702-13.30594,9.40076-23.43077,21.03249-30.04559c13.28131-7.5529,27.68486-7.70775,41.46434-2.70102
			c11.44568,4.15877,22.02129,10.73097,32.96913,16.26039c1.68311,0.8501,3.29507,1.84193,5.4342,3.04652
			c0.7944-3.48145,1.55496-6.19627,2.02292-8.96094c4.71039-27.83035,4.04437-55.79301,1.42596-83.72365
			c-0.7551-8.05439-2.5899-16.14265-5.02573-23.86765c-2.9007-9.19947-8.33212-12.17736-17.76482-10.09783
			c-5.24918,1.15723-10.7571,3.02208-15.09406,6.0751c-10.16548,7.15599-20.23564,14.62804-29.38383,23.02512
			c-29.13701,26.74467-53.39905,57.98295-79.0552,87.92204c-1.21339,1.41592-1.6162,3.94044-1.60159,5.94284
			c0.16409,22.49763,0.5751,44.99358,0.70517,67.49124c0.03748,6.4826-0.28539,13.00742-1.03036,19.44449
			c-0.96408,8.3302-2.96629,16.39963-8.81284,22.93594c-2.13533,2.38724-4.21978,2.96786-7.43088,1.72186
			c-19.60359-7.60684-33.64628-34.43851-28.72321-54.91202c1.67206-6.95357,2.93165-14.02177,4.04387-21.09077
			c0.75122-4.77461,0.91484-9.64224,1.34131-14.46826c-0.65107-0.32726-1.30214-0.6545-1.95321-0.98174
			c-8.00787,9.02374-16.25418,17.84807-23.96178,27.12289c-9.1443,11.00363-17.76701,22.44189-26.73434,33.59583
			c-3.66016,4.5527-8.13473,5.36923-13.06376,2.25504c-2.31963-1.46561-4.56891-3.50919-6.01909-5.81638
			c-8.20237-13.04971-10.75773-26.80394-3.85457-41.27769c2.28886-4.79901,4.74274-9.58725,7.71097-13.97935
			c9.97087-14.75394,20.55269-29.10159,30.2485-44.03091c10.30669-15.86995,19.87005-32.22565,30.49176-49.56725
			c-6.60065,1.39459-11.70602,2.73419-16.89624,3.4791c-3.52335,0.50566-7.31993,0.86626-10.72754,0.09918
			c-13.09505-2.94766-23.00931-10.66402-30.57135-21.66747c-2.45654-3.57449-1.11195-5.20701,2.36306-6.71103
			c8.06481-3.49052,16.29649-6.73796,23.95197-11.00253c12.62361-7.0321,24.54107-15.38019,37.34804-22.02583
			c7.96161-4.13135,10.40202-9.31345,9.92847-17.96991c-0.75269-13.75917-1.66885-27.37376-8.22443-39.75435
			C77.40729,8.34917,75.83836,4.57954,77.54643,0z M245.68172,247.49089c-8.36615-15.15384-19.31877-26.41559-36.86858-29.3394
			c-2.54346-0.42372-5.3269-0.0743-7.89229,0.44713c-5.9075,1.20071-8.50777,4.5383-8.46564,10.54797
			c0.05969,8.51311,3.79259,15.00401,10.99709,19.48744C217.55339,257.40927,231.34187,254.16856,245.68172,247.49089z"/>
	</g>
</g>
<g id="Layer_4">
</g>
</svg>
