<svg xmlns="http://www.w3.org/2000/svg" viewBox="0 0 222.09 340.01"><title>hiragana</title><g id="Layer_5" data-name="Layer 5"><path d="M0,0H134.32C164.91,0,188,7.09,199.48,19.5,210.56,31.47,215,56.3,215,89.1c0,24.83-2.22,44.33-7.09,56.3-6.21,11.53-12,16.85-18.18,12.41,2.66,0,16.4,11.09,21.72,23.94,7.54,11.08,10.64,33.25,10.64,59.4,0,37.24-6.21,64.72-19.5,77.58C188.84,332,161.8,340,125,340H0ZM135.2,139.19c14.19,0,21.28-1.77,24.83-6.65,4-4.87,6.65-16.84,6.65-39.45,0-20.39-3.1-31.47-6.65-35.46-3.55-3.1-14.63-5.76-37.68-5.76H47v87.32Zm1.33,149.39c16,0,24.83-2.21,28.82-6.2,4.43-4.88,7.53-19.06,7.53-46.1,0-21.28-3.1-33.25-8.42-38.13-4.43-4.87-19.06-8.42-46.54-8.42H47v98.85Z"/></g></svg>