<?xml version="1.0" encoding="utf-8"?>
<!-- Generator: Adobe Illustrator 24.0.1, SVG Export Plug-In . SVG Version: 6.00 Build 0)  -->
<svg version="1.1" xmlns="http://www.w3.org/2000/svg" xmlns:xlink="http://www.w3.org/1999/xlink" x="0px" y="0px"
	 viewBox="0 0 294.27161 327" style="enable-background:new 0 0 294.27161 327;" xml:space="preserve">
<g id="Layer_1">
	<g>
		<path d="M150.75645,327c3.65897-6.89108,7.39467-13.74237,10.96414-20.67981
			c19.38135-37.66818,30.17101-77.76587,33.00761-119.98029c1.29434-19.26215,1.77966-38.57916,2.60941-57.87228
			c0.08365-1.94482,0.01125-3.89641,0.01125-7.3273c-11.49704,1.46751-22.41251,2.14803-33.00775,4.36752
			c-19.63332,4.11282-39.0704,9.16438-58.6151,13.71297c-2.396,0.55762-4.95074,0.42848-7.43192,0.61761
			c-0.15355-0.42087-0.30711-0.84174-0.46066-1.26259c1.09477-1.39055,2.15957-2.80611,3.2887-4.16797
			c24.25851-29.2584,55.21648-48.51565,90.74941-60.76176c4.27971-1.47498,5.4861-3.68391,5.55615-7.83523
			c0.33388-19.78543-5.73705-36.65687-21.56461-49.28502c-1.29765-1.03533-2.66904-2.04031-3.735-3.29189
			c-2.07896-2.44095-2.42276-4.66145,1.15828-6.22955C178.43529,4.74977,183.5177,2.34226,188.62851,0
			c5.64758,0,11.29517,0,16.94276,0c1.46558,0.686,2.95183,1.33112,4.3933,2.0648
			c7.80197,3.97102,15.75783,7.6762,23.33167,12.04691c5.36385,3.09537,8.01346,7.9716,7.2811,14.65318
			c-0.63139,5.76053-0.46112,11.61552-0.53297,17.43015c-0.0753,6.09312-0.01683,12.18792-0.01683,18.59321
			c3.50784,0.43143,7.11644,0.72996,10.67276,1.33694c18.73718,3.198,36.70486,7.62174,43.57132,28.87481c0,3.66666,0,7.33334,0,11
			c-3.61761,6.93311-9.69653,10.3498-17.09085,11.34972c-6.56528,0.8878-13.21057,1.18816-19.82336,1.71211
			c-6.2171,0.49261-12.4379,0.9385-18.67136,1.40601c0,5.32543-0.05946,9.97919,0.00951,14.63104
			c0.49203,33.18587-0.33667,66.28944-6.18054,99.07376c-3.49263,19.59387-8.45543,38.73962-18.21521,56.27518
			c-9.68932,17.40894-23.09592,30.36346-43.0233,35.27188c-0.90982,0.22409-1.72266,0.84448-2.58064,1.2803
			C162.71605,327,156.73625,327,150.75645,327z"/>
		<path d="M47.91733,217.37383c8.92167-12.49234,17.84335-24.98468,27.53505-38.55522
			c-0.36596,2.85466-0.53812,4.69466-0.84451,6.51187c-3.68129,21.83443-7.39451,43.66344-11.07393,65.49817
			c-2.21267,13.13062-4.07176,26.33182-6.71649,39.37338c-1.10358,5.44189-3.66449,10.62546-5.88427,15.78729
			c-1.63878,3.81082-4.358,4.59302-8.47452,2.92902c-12.8513-5.19485-22.45071-13.9122-29.54054-25.70871
			C1.34043,263.94598-1.9268,242.80209,1.02364,221.06653c4.92351-36.27101,11.02112-72.383,16.75062-108.54182
			c2.86578-18.08591,5.88927-36.14891,9.07776-54.1802c1.70154-9.62239-0.40574-18.88006-1.72722-28.25898
			c-0.21485-1.52484,0.20228-4.3295,0.93577-4.55563c1.62157-0.49993,3.97639-0.29915,5.42974,0.59811
			c23.7177,14.64266,33.82976,35.50384,29.18359,63.48717c-4.6344,27.9124-8.90406,55.8903-12.92104,83.89907
			c-1.53335,10.69139-2.07,21.53879-2.74692,32.3349c-0.22372,3.56802,0.53706,7.1982,0.84771,10.79994
			C46.54154,216.89067,47.22943,217.13225,47.91733,217.37383z"/>
	</g>
</g>
<g id="Layer_2">
</g>
<g id="Layer_3">
</g>
<g id="Layer_4">
</g>
</svg>
