<?xml version="1.0" encoding="utf-8"?>
<!-- Generator: Adobe Illustrator 24.0.1, SVG Export Plug-In . SVG Version: 6.00 Build 0)  -->
<svg version="1.1" xmlns="http://www.w3.org/2000/svg" xmlns:xlink="http://www.w3.org/1999/xlink" x="0px" y="0px"
	 viewBox="0 0 334.19 333" style="enable-background:new 0 0 334.19 333;" xml:space="preserve">
<g id="Layer_1">
</g>
<g id="Layer_2">
</g>
<g id="Layer_3">
	<g>
		<path d="M116.83688,0c6.1957,2.31627,12.54771,4.29123,18.53998,7.05174c5.23576,2.41201,10.32135,5.3505,15.0087,8.70872
			c5.28094,3.7835,6.70642,9.07977,4.43498,15.482c-3.38805,9.54958-6.66566,19.15598-9.45845,28.89168
			c-1.05791,3.68798-0.63951,7.80198-0.84151,10.91275c10.33199,0,19.93861-0.51576,29.46513,0.13952
			c10.31441,0.70948,19.58479,4.47456,27.29419,11.90066c8.40497,8.09612,5.83878,16.28059,0.05145,22.89865
			c-2.61508,2.99044-6.49805,5.26784-10.2422,6.78622c-10.61263,4.30379-21.51173,7.89169-32.17732,12.07133
			c-6.78812,2.66016-13.47716,5.64568-19.95692,8.98113c-1.82646,0.94017-3.5089,3.46761-3.95764,5.54892
			c-1.33102,6.17307-2.14772,12.47154-2.85561,18.7561c-0.17552,1.55829,0.35258,3.65742,1.35316,4.81721
			c11.17264,12.95049,12.53119,28.01375,8.48593,43.63593c-1.88722,7.28821-6.04485,14.00334-9.32695,20.90477
			c-3.35536,7.05551-7.42063,13.81551-10.25938,21.06555c-7.70743,19.68443,2.54908,37.60255,23.283,40.80168
			c21.97156,3.39001,40.15622-4.12198,55.04573-20.30042c11.92435-12.9566,19.76234-28.3537,25.75087-44.70024
			c5.2653-14.37238,9.8562-28.99243,14.86075-43.46283c0.6618-1.91357,2.00816-3.58897,3.63387-6.40935
			c6.43649,11.68259,10.55014,22.57693,11.73784,34.20667c3.52356,34.50063-2.79642,66.61832-24.03973,94.92117
			c-11.36728,15.14487-26.4789,23.85101-44.87012,27.29041c-2.75009,0.51431-5.4328,1.39099-8.14668,2.10001
			c-8.9733,0-17.94659,0-26.91989,0c-2.38011-0.67688-4.73683-1.45486-7.14391-2.01517
			c-27.92207-6.49966-50.07641-20.18399-60.43436-48.63681c-0.09886-0.27158-0.46812-0.44409,0.23505,0.1889
			c-9.58698,3.43143-18.37415,7.61444-27.63103,9.6864c-23.5197,5.26437-43.77774-6.66843-49.10488-29.22403
			c-1.93565-8.19571-1.92339-17.27835-0.81388-25.6929c3.17653-24.0909,17.18746-41.72324,35.8251-56.11572
			c13.11298-10.12621,27.66177-17.72792,42.80619-24.2901c1.59438-0.69086,3.57375-2.22696,3.92165-3.71307
			c0.73981-3.16026,0.52326-6.54575,0.73346-10.49121c-2.47572,0.71625-4.38895,1.14095-6.20834,1.81897
			c-7.00126,2.60902-13.97317,5.29733-20.95469,7.95961c-5.36737,2.04677-10.46652,1.75555-15.91561-0.4352
			c-18.82076-7.56674-34.16526-19.66512-47.08127-35.10923c-0.371-0.44362-0.48202-1.10595-0.96355-2.26775
			c5.65924-0.60869,10.89435-1.22758,16.14078-1.72675c28.33416-2.69582,55.67069-9.07341,81.3601-21.76604
			c3.04647-1.5052,4.38056-3.31892,4.59967-6.77808c0.9473-14.95586,1.8275-29.93355,3.48913-44.81829
			c0.73304-6.56649-1.60884-11.00149-6.29669-14.6426c-2.45773-1.90895-5.53522-2.99821-8.09792-4.79472
			c-1.48447-1.04065-3.17049-2.61323-3.49652-4.20755c-0.21891-1.07047,1.51097-3.08613,2.84146-3.84064
			C97.8961,7.91646,105.39729,4.00234,112.84875,0C114.17813,0,115.50751,0,116.83688,0z M91.59908,196.13835
			c-0.62072,0-1.29708-0.15143-1.87672,0.02209c-15.58446,4.66565-29.27709,12.42274-39.93121,24.98418
			c-6.03709,7.11783-9.84236,15.26474-11.16138,24.62192c-0.46947,3.33041,0.63841,5.43092,3.17866,7.16841
			c5.68146,3.88603,11.51686,3.40321,17.4921,0.74072C80.53616,244.21335,93.90379,220.48418,91.59908,196.13835z"/>
		<path d="M334.19,167c-0.67834,2.55293-1.22064,5.15193-2.0611,7.64999c-2.31403,6.87791-7.04575,10.23145-14.24017,10.16336
			c-7.67252-0.07262-14.56546-2.8568-19.77722-8.18346c-5.87482-6.00433-11.48615-12.51175-15.95612-19.59741
			c-6.55069-10.38397-11.5607-21.74025-18.0199-32.18928c-5.90707-9.55588-12.87491-18.45142-19.35345-27.65341
			c-0.89722-1.27439-1.66898-2.63762-2.49881-3.95973c0.24013-0.44897,0.48026-0.89794,0.7204-1.34691
			c8.68352,1.73785,17.46609,3.08932,26.02893,5.29775c15.56757,4.01497,30.08246,10.49605,42.71014,20.67834
			c11.96774,9.65012,19.8959,21.7369,21.6618,37.38461c0.06851,0.60733,0.51508,1.17174,0.78549,1.75615
			C334.19,160.33333,334.19,163.66667,334.19,167z"/>
	</g>
</g>
<g id="Layer_4">
</g>
</svg>
