<?xml version="1.0" encoding="utf-8"?>
<!-- Generator: Adobe Illustrator 24.0.1, SVG Export Plug-In . SVG Version: 6.00 Build 0)  -->
<svg version="1.1" xmlns="http://www.w3.org/2000/svg" xmlns:xlink="http://www.w3.org/1999/xlink" x="0px" y="0px"
	 viewBox="0 0 314.02481 285" style="enable-background:new 0 0 314.02481 285;" xml:space="preserve">
<g id="Layer_1">
</g>
<g id="Layer_2">
</g>
<g id="Layer_3">
	<g>
		<path d="M165.48483,0c3.65535,0,7.31068,0,10.96603,0c1.06044,0.40543,2.10959,0.84401,3.18303,1.21118
			c10.9014,3.7288,21.48874,8.11332,29.94266,16.27991c4.74655,4.58523,5.33,8.16552,2.55438,13.86469
			c-4.00574,8.22501-8.28055,16.31781-12.34122,24.51653c-1.04716,2.11428-1.72321,4.41353-2.39053,6.15912
			c6.73071,0,13.00847-0.01456,19.28612,0.00228c55.6524,0.14933,94.51035,42.85912,89.78363,98.48114
			c-1.51877,17.87248-5.64615,35.11896-11.09985,52.12697c-0.58209,1.81538-0.94489,4.68539,0.03204,5.86647
			c8.93729,10.80499,15.67697,22.64993,18.62369,36.49171c0,2.66666,0,5.33334,0,8
			c-0.41583,1.06393-1.00348,2.09378-1.22083,3.19705c-2.08374,10.57675-15.63824,16.7038-24.30722,11.3226
			c-7.88092-4.89197-15.79782-9.76083-23.34784-15.13602c-2.85977-2.03601-4.46826-2.28546-7.66418-0.51913
			c-12.3248,6.81168-24.73746,13.55231-37.56786,19.30911c-4.87357,2.18671-11.04515,2.60031-16.48241,2.13693
			c-9.87466-0.84152-16.93816-7.20157-22.81992-14.72272c-11.07036-14.15588-18.15997-30.32082-21.51424-47.83395
			c-1.69727-8.86156-2.0675-18.25313-1.28883-27.25282c1.14708-13.25786,8.4485-22.97498,21.01007-28.02504
			c9.89879-3.97952,20.29691-5.18748,30.8326-3.70853c15.01154,2.10725,27.12187,10.36856,38.85075,19.26974
			c2.31718,1.75856,4.56551,3.6084,7.36716,5.82965c5.26581-20.97818,7.70267-41.16185,2.96616-61.64983
			c-2.6351-11.39825-9.4173-19.70937-20.68114-23.00004c-22.02527-6.43458-43.37871-4.48116-63.40247,7.30526
			c-2.00105,1.17787-3.80478,3.27857-4.87427,5.3749c-14.3705,28.16814-28.65442,56.38148-42.73774,84.69476
			c-1.10455,2.22061-1.33144,5.49469-0.63689,7.89159c2.54587,8.78598,5.83644,17.35225,8.49661,26.10825
			c2.48325,8.17369,2.40491,16.48424-0.5596,24.54767c-2.74065,7.45453-9.24397,10.08374-16.53167,6.88815
			c-2.11449-0.92719-4.3461-1.94293-6.01185-3.47751c-5.66477-5.2186-11.10072-10.68712-17.0437-16.46848
			c-0.85701,0.74463-2.5382,2.05054-4.04112,3.5377c-6.97671,6.9037-13.57304,14.23888-20.94775,20.67973
			C63.29718,275.03659,55.88586,279.80429,48.84607,285c-0.3323,0-0.66461,0-0.99691,0
			c-5.59517-4.36151-11.87409-8.08545-16.63594-13.224c-8.57176-9.24985-16.42178-19.19975-24.20964-29.1438
			c-5.05955-6.46037-7.44692-14.01157-6.93584-22.3997c1.04906-17.21759,7.71428-32.21727,17.80438-45.87067
			c11.08785-15.00351,24.93967-27.13345,39.77743-38.22148c1.42646-1.06598,2.83548-2.15544,4.18552-3.18294
			c-7.67655-21.26145-10.94754-42.95946-13.17054-64.83797c-0.25791-2.53836,1.31117-5.26351,2.36944-9.13068
			c13.86819,17.40196,26.66721,33.4623,39.33231,49.35461c17.07784-9.82264,33.6501-19.27804,50.09873-28.94508
			c1.48526-0.87289,2.49843-2.98356,3.17896-4.73515c4.51872-11.6305,8.48633-23.4961,13.47821-34.91347
			c2.38739-5.46041,1.82387-9.91714-1.75986-13.76172c-4.03778-4.33167-8.93208-7.85135-13.3549-11.83475
			c-1.7838-1.60658-3.30522-3.50629-5.29974-5.65333C147.14143,5.41805,156.31314,2.70903,165.48483,0z M69.15211,163.05673
			c-8.9642,7.71635-17.46702,14.80469-25.66587,22.23073c-2.53236,2.29367-4.49037,5.35374-6.2773,8.32552
			c-8.89968,14.80087-3.17824,32.48323,12.58311,39.69275c2.89731,1.32527,5.403,1.51923,7.75645-0.71223
			c6.61204-6.2693,13.00233-12.786,19.80607-18.83629c6.50397-5.78372,8.3231-11.40486,3.25477-19.51534
			c-3.62742-5.80466-5.26879-12.87506-7.66885-19.42769C71.64694,171.28259,70.6214,167.65224,69.15211,163.05673z
			 M233.51747,221.70656c-4.76538-4.91882-7.90721-9.19193-12.00406-12.12103c-4.75868-3.40227-10.14114-6.24278-15.65543-8.16524
			c-4.38774-1.52971-8.93567-0.04329-11.81094,4.26678c-3.44582,5.16534-3.43858,14.46152-0.05791,18.67009
			c7.54131,9.3882,14.26662,12.48254,22.07027,8.72725C221.91931,230.26445,227.07907,225.98058,233.51747,221.70656z
			 M121.5072,134.51186c-0.41817-0.29684-0.83635-0.59369-1.25452-0.89052c-3.9875,2.59364-8.03784,5.09818-11.91453,7.84897
			c-0.87493,0.62083-1.78446,2.23689-1.58702,3.16002c1.06469,4.97781,2.47314,9.88165,3.76299,14.81102
			c0.43853,0.06693,0.87706,0.13385,1.31559,0.20078C115.05555,151.26537,118.28137,142.88861,121.5072,134.51186z"/>
	</g>
</g>
<g id="Layer_4">
</g>
</svg>
