<svg xmlns="http://www.w3.org/2000/svg" viewBox="0 0 296.41 339"><title>hiragana</title><g id="Layer_2" data-name="Layer 2"><path d="M111,0c8.24,2.4,16.47,4.85,24.74,7.19a26.66,26.66,0,0,1,16,11.89c3.47,5.62,4.53,11.06,1.27,17.74-4.28,8.76-7.09,18.25-10.42,27.47-.58,1.62-.61,3.45-1.06,6.12C149,66.74,155.64,63.74,162,60.22a19,19,0,0,1,13.86-2.17c11,2.33,21.42,6.12,30.62,12.68,10,7.11,10.38,15.6.75,23.28A70,70,0,0,1,191.8,103c-13.38,5.87-27.18,10.8-40.43,17A172.08,172.08,0,0,0,127,134.22c-6.66,4.56-11.1,11.24-14.47,18.73-22.76,50.53-45.4,101.12-68.71,151.4C38.17,316.47,30.18,327.48,23.27,339h-2c-9.8-3.83-16.6-10.61-18.56-21.08C1.17,309.61-.37,301,.08,292.7a52.75,52.75,0,0,1,5.81-20.88c20.47-39.24,41.49-78.19,62.31-117.24.6-1.11,1.06-2.29,1.81-4C46.18,147.67,27.33,136,9.44,120c2.68-2,4.54-4.51,6.67-4.75,27.64-3.14,53.14-12.94,78-24.81a12.14,12.14,0,0,0,5.84-6.6c5.11-17.23,9.8-34.59,14.43-52a10.32,10.32,0,0,0-.57-5.76c-2.7-7.48-5.65-14.87-8.51-22.29L109,0Z"/><path d="M296.41,299c-9.07,20-26.8,26.25-46.43,29.86-26.85,4.92-52.11-1.34-76.86-10.75A62.19,62.19,0,0,1,148,300.5c-10.82-12.5-13.42-27-10.09-43.69,2,1.13,3.85,1.64,5,2.82,9.87,10.48,22.74,13.78,36.3,15.5,17.52,2.22,34.77-.73,52.09-2.55,12.06-1.26,24.14-2.61,36.14.47,8.13,2.09,16.1,4.85,21.9,11.14,3,3.29,4.75,7.83,7.06,11.81Z"/><path d="M190.09,206.78l20-25.34-1.19-1.51c-6.52.52-13.06.9-19.56,1.59-12,1.26-23.17-.52-33.25-7.45-5.86-4-9.72-9.4-10.84-16.59.44-.4.74-.91,1.16-1,22-6.24,44.22-11.82,66-18.84,16.25-5.25,31.4-4.44,46,3.86,8.18,4.64,16.45,9.45,23.66,15.42,7.7,6.37,7.82,13.67,1.61,21.53a14.23,14.23,0,0,1-7.32,4.36c-18.66,4.69-37.47,8.79-56.08,13.67-8.63,2.26-16.92,5.84-25.37,8.81C193.53,205.75,192.09,206.16,190.09,206.78Z"/></g></svg>