<?xml version="1.0" encoding="utf-8"?>
<!-- Generator: Adobe Illustrator 24.0.1, SVG Export Plug-In . SVG Version: 6.00 Build 0)  -->
<svg version="1.1" xmlns="http://www.w3.org/2000/svg" xmlns:xlink="http://www.w3.org/1999/xlink" x="0px" y="0px"
	 viewBox="0 0 286.88187 335" style="enable-background:new 0 0 286.88187 335;" xml:space="preserve">
<g id="Layer_1">
	<g>
		<path d="M99.48675,0c4.31939,0,8.63878,0,12.95817,0c1.56384,0.46354,3.10973,1.00356,4.69444,1.37817
			c10.07577,2.38184,19.92326,5.37145,28.42352,11.57692c9.64552,7.04155,10.34032,12.15214,3.21056,21.62032
			c-1.60162,2.12691-3.26546,4.2184-4.71005,6.45035c-4.0435,6.2474-5.44156,13.3243-6.97563,21.27101
			c2.87677-1.28789,4.82381-2.18663,6.79196-3.03612c10.0578-4.34107,19.95943-9.10973,30.21991-12.89989
			c15.71469-5.80491,29.92142-1.13365,42.41217,8.67083c7.74925,6.08267,10.91649,14.37719,0.01031,21.57464
			c-8.93962,5.89963-18.51942,11.24324-28.49126,15.05299c-16.26183,6.21284-32.91631,11.56318-49.71988,16.10558
			c-8.62842,2.33247-12.82791,6.33512-13.38286,15.26904c-0.47729,7.68385-2.06979,15.29798-3.2917,23.79504
			c9.45259-2.63161,17.63429-4.76425,25.69292-7.2919c1.38748-0.43518,3.05042-2.4549,3.22139-3.90466
			c0.80812-6.85213,1.4411-13.75623,1.54008-20.65042c0.06615-4.60558,2.27618-6.7809,6.63135-5.20564
			c4.99835,1.8079,9.93126,3.79813,14.93123,5.60126c6.10045,2.20001,11.15691,5.52639,14.79144,11.19183
			c3.05403,4.76051,2.28629,9.26851-0.16779,14.09741c3.72487,0.49669,6.67447,0.8705,9.61832,1.28563
			c23.66011,3.33641,46.12389,9.93709,65.4483,24.73877c11.33105,8.67908,19.11404,19.79889,22.04471,34.01903
			c0.5007,2.42935,0.99579,4.85986,1.4935,7.28983c0,3.66667,0,7.33333,0,11c-0.2908,1.45242-0.5939,2.90251-0.87036,4.35767
			c-1.79538,9.44945-2.45328,19.29565-5.57455,28.28093c-12.73679,36.66536-35.463,64.45848-73.05481,77.56813
			c-8.67311,3.02463-18.08441,3.91873-27.15602,5.79327c-3.65486,0-7.30972,0-10.9646,0
			c-6.18771-2.65817-13.77567,0.00729-20.01781-4.89639c2.02226-1.47311,3.47475-2.54962,4.94577-3.60001
			c22.3828-15.98184,43.80858-33.06012,61.36401-54.49844c9.77434-11.93622,17.86229-24.84901,21.95108-39.94611
			c5.80447-21.4319,0.7319-35.72929-16.50111-46.03133c-11.21323-6.70334-23.53238-9.62654-36.46291-10.7124
			c-4.24673-0.35663-6.5298,0.69658-8.63156,4.51295c-14.53802,26.39799-29.65268,52.44614-47.76999,76.61639
			c-1.18141,1.57611-1.53422,4.34351-1.21381,6.38995c1.51802,9.69611,3.66338,19.29684,5.05377,29.00812
			c0.74252,5.18622,1.64922,11.3989-3.2751,14.80014c-5.26464,3.63629-11.19743,1.33698-16.58132-1.24988
			c-1.04491-0.50208-2.05727-1.09451-3.02126-1.74045c-7.4568-4.99646-13.46051-11.27817-17.09019-20.1723
			c-1.47155,1.38165-2.64553,2.49741-3.83385,3.59753c-11.5181,10.66348-23.82155,20.28632-37.95063,27.22061
			c-9.65366,4.73788-18.48708,3.51855-24.76101-4.5275c-7.62926-9.78415-14.5895-20.19412-20.87067-30.905
			c-5.43311-9.26474-5.57198-19.62759-2.88385-30.06735c3.09047-12.0023,8.99055-22.54819,16.31329-32.32135
			c16.84583-22.48289,37.2754-41.08153,61.00811-56.06274c1.69055-1.06715,3.86919-2.74715,4.16069-4.4314
			c2.11806-12.23772,3.80982-24.5497,5.72514-37.43526c-2.11565,0.38029-4.08733,0.47423-5.87153,1.10332
			c-5.78944,2.04131-11.75178,3.79855-17.19878,6.55703c-7.52347,3.81004-13.65405,2.26709-18.50944-3.93545
			c-8.08005-10.32191-15.78918-20.94042-23.46231-31.57362c-1.08979-1.51022-1.10054-3.80411-1.61071-5.73529
			c1.87384,0.08524,3.85714-0.20204,5.60421,0.31463c14.0054,4.14186,27.93392,4.08582,41.54186-1.24866
			c8.63715-3.38586,17.03246-7.42938,25.3652-11.52792c1.59769-0.78586,3.05569-3.05864,3.45491-4.89165
			c1.91299-8.78342,3.2265-17.69865,5.15513-26.47815c2.73177-12.43557,1.27695-24.22733-4.92779-35.27999
			C96.96111,3.18371,97.75706,1.7032,99.48675,0z M82.72445,201.54529c-2.0071,0.43069-2.52727,0.43016-2.93358,0.64566
			c-17.32488,9.18907-32.83931,20.7052-45.1753,36.12817c-4.84636,6.0591-8.42693,12.8308-7.84243,20.99438
			c0.66652,9.30905,11.00713,15.63559,19.37009,11.65619c13.34854-6.35172,25.06176-14.95572,34.30718-26.6441
			c1.14309-1.44513,2.14808-3.47932,2.17523-5.25659C82.81329,226.7924,82.72445,214.51152,82.72445,201.54529z
			 M117.92055,210.17491c0.64789,0.21907,1.29578,0.43816,1.94368,0.65723c5.81624-10.37729,11.63249-20.75458,17.44873-31.13187
			c-0.42252-0.42828-0.84505-0.85655-1.26755-1.28484c-4.90459,1.80829-9.85268,3.51118-14.67643,5.51526
			c-0.94608,0.39305-1.93142,1.91034-2.01488,2.97861C118.74901,194.6545,118.37064,202.41753,117.92055,210.17491z"/>
	</g>
</g>
<g id="Layer_2">
</g>
<g id="Layer_3">
</g>
<g id="Layer_4">
</g>
</svg>
