<svg xmlns="http://www.w3.org/2000/svg" viewBox="0 0 197.08 350"><title>hiragana</title><g id="Layer_4" data-name="Layer 4"><path d="M52.8,350c10.14-9.77,20.91-19,30.3-29.42,29.62-33,47-72.23,56.33-115.3C148.86,162,150.17,118.1,148.88,74c-.14-4.83-.35-9.66-.59-14.48-.59-11.63-6.4-19.78-16.78-24.54-4-1.85-8.5-2.72-12.64-4.37-2.88-1.15-5.53-2.88-9.17-4.83,8.55-9.55,14-20.08,24.69-25.8h9c3,2.94,5.68,6.58,9.23,8.65A80.48,80.48,0,0,0,169.37,16c11.49,3.55,17.57,11.59,19.58,22.85,2.38,13.4,4.3,26.89,6,40.4,1.08,8.53,1.43,17.15,2.11,25.73v65c-.3,1.77-.7,3.54-.88,5.32-1.11,10.92-1.8,21.89-3.3,32.75-3.8,27.4-10.86,53.83-25.8,77.45-18.58,29.37-43.39,50.9-77.51,60-7.48,2-15.23,3-22.86,4.46Z"/><path d="M25.36,16.27A25,25,0,0,1,40.85,22c10.47,8.35,17.72,19,17.63,32.69C58.32,77.78,57.73,101,56.2,124c-1.41,21.24-3.67,42.48-6.78,63.53-1.41,9.54-5.36,18.81-9,27.85A23.12,23.12,0,0,1,27,228.82c-1.9.69-5.26.42-6.55-.85a53.07,53.07,0,0,1-9.61-11.92C1.7,199.39-2.57,181.76,1.61,162.67c4.53-20.64,9.76-41.18,13.11-62,4.22-26.28,6.85-52.82,10.16-79.25C25.08,19.8,25.18,18.18,25.36,16.27Z"/></g></svg>