<svg id="Layer_1" data-name="Layer 1" xmlns="http://www.w3.org/2000/svg" viewBox="0 0 294.27 327"><title>hiragana</title><path d="M150.76,327c3.66-6.89,7.39-13.74,11-20.68a304.15,304.15,0,0,0,33-120c1.29-19.26,1.78-38.58,2.61-57.87.08-2,0-3.9,0-7.33-11.5,1.47-22.41,2.15-33,4.37-19.63,4.11-39.07,9.16-58.61,13.71a49.46,49.46,0,0,1-7.44.62l-.46-1.26c1.1-1.39,2.16-2.81,3.29-4.17,24.26-29.26,55.22-48.52,90.75-60.76,4.28-1.48,5.49-3.69,5.56-7.84.33-19.78-5.74-36.66-21.57-49.28a26.13,26.13,0,0,1-3.73-3.3c-2.08-2.44-2.42-4.66,1.16-6.23,5.15-2.25,10.23-4.66,15.34-7h16.94c1.47.69,3,1.33,4.39,2.06,7.81,4,15.76,7.68,23.34,12,5.36,3.1,8,8,7.28,14.65-.63,5.77-.46,11.62-.54,17.44-.07,6.09,0,12.18,0,18.59,3.51.43,7.11.73,10.67,1.34,18.74,3.19,36.71,7.62,43.57,28.87v11c-3.62,6.93-9.69,10.35-17.09,11.35-6.56.89-13.21,1.19-19.82,1.71-6.22.49-12.44.94-18.67,1.41,0,5.32-.06,10,0,14.63.49,33.18-.34,66.29-6.18,99.07-3.5,19.6-8.46,38.74-18.22,56.28s-23.1,30.36-43,35.27A12.4,12.4,0,0,0,168.7,327Z"/><path d="M47.92,217.37l27.53-38.55c-.36,2.85-.54,4.69-.84,6.51q-5.52,32.74-11.08,65.5c-2.21,13.13-4.07,26.33-6.71,39.37-1.11,5.44-3.67,10.63-5.89,15.79-1.64,3.81-4.35,4.59-8.47,2.93C29.61,303.72,20,295,12.92,283.21,1.34,264-1.93,242.8,1,221.07,6,184.8,12,148.68,17.77,112.52q4.31-27.12,9.08-54.18c1.7-9.62-.4-18.88-1.73-28.25-.21-1.53.21-4.33.94-4.56a7.32,7.32,0,0,1,5.43.6c23.72,14.64,33.83,35.5,29.18,63.49s-8.9,55.89-12.92,83.89c-1.53,10.7-2.07,21.54-2.74,32.34-.23,3.57.53,7.2.84,10.8Z"/></svg>