<svg xmlns="http://www.w3.org/2000/svg" viewBox="0 0 320.79 311.85"><title>hiragana</title><g id="Layer_3" data-name="Layer 3"><path d="M77.55,0h16c2,.69,4.06,1.28,6,2.09,9,3.72,18.41,6.74,26.84,11.48,7.87,4.42,8.84,9.76,5.92,18.39-1.65,4.88-3.69,9.66-5,14.64-1.84,7.09-.44,9.39,6.2,11.95,13.34,5.13,17.57,14.12,11.78,27.34-3,6.93-7.58,13.23-11.69,19.65-3.94,6.17-8.31,12-12.26,18.2s-3.66,12.76-1.07,20.24c6.48-6.19,12.71-11.87,18.64-17.86,19.9-20.1,39.57-40.43,59.58-60.42a118.81,118.81,0,0,1,32.94-23.09c11.5-5.5,23.54-8.46,36.25-6,14.8,2.81,24.06,12.73,30.57,25.62a121.75,121.75,0,0,1,12.77,50c1.85,41.38.52,82.63-7.23,123.47-.34,1.79-.39,4.08.44,5.57,5.37,9.68,11,19.2,16.58,28.77v15c-2.22,4.62-3.89,9.63-6.79,13.78-6.08,8.71-14.56,10-23.44,4.21a33.66,33.66,0,0,1-6.23-4.95c-5.26-5.68-10.3-11.56-15.61-17.56-7.84,8.13-18.06,12.61-29.58,14-26.8,3.28-50-3-65.94-26.57-10.49-15.53-13.07-32.94-10.14-51.18,2.13-13.31,9.4-23.43,21-30.05,13.28-7.55,27.69-7.71,41.46-2.7,11.45,4.16,22,10.73,33,16.26,1.69.85,3.3,1.84,5.44,3.05.79-3.49,1.55-6.2,2-9,4.71-27.84,4-55.8,1.43-83.73a116.33,116.33,0,0,0-5-23.87c-2.9-9.2-8.33-12.17-17.76-10.09-5.25,1.15-10.76,3-15.1,6.07a290.81,290.81,0,0,0-29.38,23c-29.14,26.74-53.4,58-79.06,87.92-1.21,1.41-1.61,3.94-1.6,5.94.17,22.5.58,45,.71,67.49a164,164,0,0,1-1,19.45c-1,8.33-3,16.4-8.82,22.93-2.13,2.39-4.22,3-7.43,1.72-19.6-7.6-33.64-34.43-28.72-54.91,1.67-7,2.93-14,4-21.09.75-4.77.92-9.64,1.34-14.47l-1.95-1c-8,9-16.25,17.85-24,27.12-9.14,11-17.77,22.45-26.73,33.6-3.66,4.55-8.14,5.37-13.07,2.26a19.56,19.56,0,0,1-6-5.82C-.36,263.87-2.92,250.12,4,235.64a107.23,107.23,0,0,1,7.71-14c10-14.75,20.55-29.1,30.25-44,10.3-15.87,19.87-32.22,30.49-49.57-6.6,1.4-11.71,2.74-16.9,3.48-3.52.51-7.32.87-10.72.1-13.1-2.95-23-10.66-30.58-21.67-2.45-3.57-1.11-5.2,2.37-6.71,8.06-3.49,16.29-6.73,24-11,12.62-7,24.54-15.38,37.35-22,8-4.14,10.4-9.32,9.93-18-.76-13.76-1.67-27.38-8.23-39.76C77.41,8.35,75.84,4.58,77.55,0ZM245.68,247.49c-8.36-15.15-19.32-26.41-36.87-29.34a22.4,22.4,0,0,0-7.89.45c-5.91,1.2-8.51,4.54-8.46,10.55,0,8.51,3.79,15,11,19.48C217.55,257.41,231.34,254.17,245.68,247.49Z"/></g></svg>