<?xml version="1.0" encoding="utf-8"?>
<!-- Generator: Adobe Illustrator 24.0.1, SVG Export Plug-In . SVG Version: 6.00 Build 0)  -->
<svg version="1.1" xmlns="http://www.w3.org/2000/svg" xmlns:xlink="http://www.w3.org/1999/xlink" x="0px" y="0px"
	 viewBox="0 0 226.0986 280" style="enable-background:new 0 0 226.0986 280;" xml:space="preserve">
<g id="Layer_1">
	<g>
		<path d="M98.62585,280c-7.98975-1.31821-16.0434-2.3334-23.95641-4.01566c-18.32052-3.89478-35.77029-10.11258-50.97173-21.45981
			C7.74473,242.61635-0.93315,226.96852,0.07975,206.55765c0.65144-13.12724,6.50186-23.78835,15.74865-33.97873
			c1.18517,4.86769,2.33488,8.92039,3.1483,13.04005c5.00394,25.34299,18.63414,30.67984,38.69389,33.29321
			c30.34505,3.9534,60.48052,1.90053,90.37431-5.13557c13.34059-3.13998,27.03125-4.94273,40.64841-6.67622
			c8.5183-1.08438,17.13872,0.41225,24.43991,5.05989c4.86017,3.09381,8.67995,7.83556,12.96538,11.83972c0,4.33333,0,8.66667,0,13
			c-6.7982,14.12532-16.62402,25.3244-31.57066,30.81927c-8.98358,3.30267-18.24423,6.11304-27.60606,8.03796
			c-10.01262,2.05878-20.29047,2.81693-30.45255,4.14276C123.85484,280,111.24034,280,98.62585,280z"/>
		<path d="M150.41167,0c7.88995,2.41964,16.108,4.09535,23.59636,7.42554c12.63394,5.61852,22.87408,14.17352,27.13336,28.17244
			c1.96703,6.46497,0.63499,11.40572-5.42807,14.25699c-5.07755,2.38783-11.00101,4.01481-16.5759,4.09219
			c-19.1122,0.26527-38.27188,0.18101-56.69335,5.93402c-15.95525,4.98281-31.59366,10.9891-47.36751,16.55618
			c-1.49155,0.52641-2.95016,1.14698-5.56434,2.17013c3.60719-7.4669,6.6767-13.8208,10.10486-20.91713
			C53.3286,47.99329,33.55995,31.71305,24.4313,3.35456c2.76394,0,4.84402-0.17898,6.88549,0.02726
			c24.57906,2.48309,49.03623,0.03663,73.50659-1.78932C110.40111,1.1763,115.9623,0.53675,121.53111,0
			C131.15797,0,140.78481,0,150.41167,0z"/>
	</g>
</g>
<g id="Layer_2">
</g>
<g id="Layer_3">
</g>
<g id="Layer_4">
</g>
</svg>
