<svg id="Layer_1" data-name="Layer 1" xmlns="http://www.w3.org/2000/svg" viewBox="0 0 197.64 339"><title>hiragana</title><path d="M177.73,339c-25.2-11.71-40.76-33.91-58.22-54-3.16-3.64-6.17-7.41-9.37-11-17.48-19.67-36.67-37.23-61.33-47.42-7.76-3.21-16.14-4.88-24.16-7.53-5.16-1.71-10.53-3.27-15.17-6C-.6,207.05-2.9,196.6,3.82,187.13A150.07,150.07,0,0,1,18.65,169.7C50,137.41,78.27,102.76,101.78,64.15c10.18-16.71,17.3-33.4,13.59-53.4-.63-3.43.39-7.16.65-10.75h5a47.71,47.71,0,0,0,4,2.62c13.77,7.27,26.47,16,36.47,28.12,8.53,10.35,9.44,17.37,2.38,28.69a335.61,335.61,0,0,1-22.47,31.7c-24,30-48.34,59.71-72.54,89.54-1.12,1.37-2.08,2.87-3.21,4.43,11.3,5.46,22.55,10.05,33,16.09,44.41,25.71,84.74,55.35,99,108.81v12c-2,7.41-5.88,13.45-12.94,17Z"/></svg>