<svg xmlns="http://www.w3.org/2000/svg" viewBox="0 0 270.33 336"><title>hiragana</title><g id="Layer_2" data-name="Layer 2"><path d="M128.85,336c-11.84-1.39-23.71-2.63-35.53-4.24-4.39-.59-9.38,0-13.13-4.73,2.27-.75,4.1-1.38,6-2,31.49-10.09,62.71-21,91.54-37.44,10.6-6.06,20.44-13.6,30.07-21.17,7.69-6.05,12.61-14.52,16.4-23.53,4.76-11.33,1.91-22.27-7.93-29.76-10.58-8-22.83-10.29-35.76-9.66-15.89.76-30.54,5.93-44.61,13C112.77,228,92.73,243.88,73.58,261c-6.41,5.72-12.36,5.39-16.81-2.13-8.35-14.09-11.39-29.4-7.62-45.6.69-3,2.62-5.7,4.2-8.41,9.06-15.48,18.2-30.91,27.25-46.4a58.77,58.77,0,0,0,2.57-6.21c-8.4,1.92-15.63,3.53-22.83,5.24-6.45,1.53-12.9,3.09-19.31,4.77a12,12,0,0,1-13-4.09c-3.84-4.56-7.83-9.18-10.63-14.39C11.33,132.49,6,120.84.45,109.29c-.54-1.12-.64-3.47,0-3.87,1.12-.75,3.37-1.19,4.36-.54,14.89,9.75,30.76,7.84,47,4.72s32.36-5.68,48.58-8.27a7.58,7.58,0,0,0,6.52-5.21C113.06,80,119.4,63.91,125.57,47.76c4.6-12.06.13-22.06-7.46-31.25-.74-.9-1.65-1.65-2.45-2.49-3.24-3.42-2.47-6.09,1.94-7.45,6.77-2.1,13.48-4.37,20.22-6.57h9c8,6,17,11.14,24,18.22,13.18,13.4,11.33,11.69,4.18,25.93-6.19,12.31-13.65,24-20.49,36-1.42,2.5-2.57,5.15-3.85,7.74l1,1c9.67-4.63,19.22-9.53,29-13.83,9.55-4.19,19.08-8.89,29.11-11.38,21.08-5.25,38.5,3.28,53.08,17.87,7.17,7.18,5.35,15.79-3.8,19.55-12,4.9-24.22,9.1-36.59,12.81-21.75,6.52-44,11.52-65.47,18.86-26.26,9-23.23,4.93-37.94,34.62-2.82,5.69-4.93,11.74-7.92,18.95C130,176,149,171.75,168.69,170.53c23.35-1.45,46.14.63,67.35,11.61,15.73,8.15,27.24,20,31.76,37.69,1.19,4.64,1.71,9.44,2.53,14.17v5c-.3,1.78-.75,3.56-.9,5.35a77.6,77.6,0,0,1-19.77,46c-20,22.49-45.15,36.18-74.33,42.62-5.8,1.28-11.72,2.07-17.58,3.08Z"/></g></svg>