<svg xmlns="http://www.w3.org/2000/svg" viewBox="0 0 328.15 217"><title>hiragana</title><g id="Layer_2" data-name="Layer 2"><path d="M178.6,217c-9.49-2.28-19.06-4.29-28.44-7-5.4-1.53-10.55-4-15.68-6.34-2-.89-3.54-2.61-6.14-4.6,2.69-1.2,4.27-2,5.89-2.62,27.12-10.94,53.82-22.8,79.19-37.46,14.27-8.26,27.9-17.41,39.7-29.11,14.39-14.26,19.58-31.79,18.08-51.47C269.74,59.21,251.13,43,230.77,42.69a157.51,157.51,0,0,0-56.63,10C143.6,63.81,113.51,76.23,83.3,88.27,72,92.76,61.06,98,49.72,102.24c-3.22,1.22-7.8,1.54-10.78.15-5.46-2.55-11.12-5.85-15-10.31-8.28-9.47-15.54-19.83-23-30C0,60.92-.33,58.33.38,57.28S3.5,56,5.06,56.22c7.25.92,14.51,1.85,21.66,3.27A29.25,29.25,0,0,0,43.79,58.2c23.87-9.6,47.77-19.11,71.63-28.75C146.12,17,177.29,6.24,210.25,1.51c3.08-.44,6.15-1,9.23-1.51H244.4a17.39,17.39,0,0,0,2.84.78c37.95,4.33,74.93,36.75,80.12,74.44a7.35,7.35,0,0,0,.79,1.78v28c-.38,1.59-.87,3.17-1.13,4.78-3.13,19.51-10.81,37.05-23.86,51.82-22.52,25.51-49.87,43.54-83.17,51.69-6.4,1.57-13,2.49-19.45,3.71Z"/></g></svg>