<svg xmlns="http://www.w3.org/2000/svg" viewBox="0 0 244.67 301"><title>hiragana</title><g id="Layer_2" data-name="Layer 2"><path d="M143.05,301H106.2c-3.21-.67-6.4-1.46-9.62-2-23.39-3.95-45.45-11.21-64-26.63-9.38-7.78-16-17.51-17.06-30-2-23.83,5.17-45.2,19.46-63.94,11.48-15.05,24-29.32,36.1-44-2-3.8-4.09-7.38-5.69-11.2C54.66,97.74,44,72.27,33.56,46.71,27.44,31.71,18,19.71,4,11.48c-1.08-.64-2.08-1.42-4-2.74,2.71-1.83,4.66-3.6,7-4.6C10.7,2.5,14.66,1.35,18.53,0H33.47A69.36,69.36,0,0,1,69.84,23a99.94,99.94,0,0,1,17.51,30c5.05,13.57,9.88,27.23,14.82,40.84,1.33,3.65,2.72,7.27,4.24,11.32,20.9-15,40.68-30.09,56.83-49.47,6.56-7.86,9.78-16.39,8.88-26.64-.5-5.74,1.16-7,6.61-5.67,9.18,2.25,18.37,4.5,27.51,6.93,8.8,2.35,16.74,6.35,23.14,13,12.26,12.86,12.53,25.29-.28,37.5-7.42,7.07-15.8,13.22-24.21,19.12-31.55,22.15-63.59,43.62-94.82,66.21-13.54,9.79-25.83,21.4-38.15,32.77a68.78,68.78,0,0,0-12.39,16.15c-7.24,12.53-3.65,23.75,9.09,30.58,7.5,4,15.62,5.4,24,5.52,21.14.28,41.52-3.8,61.56-10.35,11-3.61,22.15-7.23,33.51-9.35,24.27-4.53,46,6.34,56.95,27.41v3c-8.54,16-22.92,24.13-39.46,28.72-11.3,3.14-22.94,5.17-34.53,7.11C161.55,299.36,152.27,300,143.05,301Z"/></g></svg>