<svg xmlns="http://www.w3.org/2000/svg" viewBox="0 0 307.06 312"><title>hiragana</title><g id="Layer_3" data-name="Layer 3"><path d="M307.06,276c-.81,3.37-1.35,6.82-2.47,10.08-3.45,10.05-12,14.21-21.32,9.22-10.8-5.78-21-12.73-31.3-19.39-8.51-5.49-8.38-5.57-16.13,1.08-4.8,4.11-9.56,8.3-14.69,12-16.06,11.47-33.82,14.82-53,10.17a98.76,98.76,0,0,1-11.85-3.75C125.93,283.84,112,263.65,111.86,231c-.11-22.25,16.72-39.7,39-40.3,14.12-.38,27.64,3,41.05,6.95,4.43,1.3,8.81,2.74,14,4.38.57-27.82,1.13-55.14,1.7-83.15-11.26,1.27-21.84,2-32.25,3.72-27.16,4.51-54.24,9.5-81.37,14.17-2.24.39-4.63-.15-7.82-.3,6.07-12.59,12.86-23.08,22.93-31.16,17.16-13.76,37.09-21.94,57.77-28.4,13.28-4.15,26.81-7.51,39.91-11.14,4.68-18.87-1.26-33.94-16.28-45.87-6.5-5.17-6.23-6.68.69-11.19C195.61,5.81,200,2.9,204.39,0h9c1.47.71,3,1.36,4.39,2.13,9.33,5,18.86,9.65,27.89,15.13,5.87,3.57,8.6,9.17,7.68,16.61-1.09,8.88-1.3,17.86-1.84,26.2,8.3,3.77,16.31,7,23.91,11s13.51,9.63,16.94,17.65c2.94,6.88,2.68,9.72-3.94,13.21a142.58,142.58,0,0,1-24.3,9.88c-12.18,3.76-12.16,3.38-12.18,16.52-.06,27.95-.33,55.9-.3,83.86,0,1.44,1.63,3.4,3,4.25,8,4.78,16.49,8.73,24.07,14,12.82,9,26.68,17.47,28.35,35.54ZM198.94,245.37c-11.36-9.25-22.8-17.43-36.69-21.11a43.65,43.65,0,0,0-15.17-1.56c-11.49,1.16-15.56,10.63-8.27,19.54,8.33,10.16,19.19,16.17,32.74,16.11C182.38,258.3,191.6,254.69,198.94,245.37Z"/><path d="M27,312C13.74,307.55,8.22,296.81,5.2,284.42c-4.8-19.73-6.57-39.79-4.07-60,3.38-27.27,6.79-54.54,11-81.69,2.51-16.25,6.63-32.26,9.9-48.4,4.84-24,6.54-48.13,4.09-72.55-.2-1.91,1.17-4,1.8-6,1.78.79,3.94,1.17,5.28,2.42C49.64,33.53,57.09,52.83,58.92,75c2.29,27.6-.74,54.88-3.58,82.21-1.21,11.59-2.09,23.22-3.09,34.83a29.72,29.72,0,0,0,.17,3.5l21.64-11.45c-1.68,5.41-3.17,9.41-4.18,13.53C63.45,223.77,57.32,250,50.67,276.13a226.37,226.37,0,0,1-9.19,27.93c-1.26,3.15-4.95,5.32-7.53,7.94Z"/></g></svg>