<svg id="Layer_1" data-name="Layer 1" xmlns="http://www.w3.org/2000/svg" viewBox="0 0 249.94 344"><title>hiragana</title><path d="M249.94,146c-3.5,2.62-6.63,6.32-10.56,7.65-11.77,4-23.87,7-35.82,10.44-3.63,1-7.22,2.23-11.49,3.56,1.45,1.76,2.51,2.93,3.43,4.21,8,11,16.49,21.71,23.6,33.27,3.53,5.74,5.14,13,6.35,19.77,1.81,10.07-4.13,15.7-14.36,13.87-8.47-1.52-16.75-4.09-25.16-6-18.91-4.28-37.86-8.41-56.78-12.66a48.37,48.37,0,0,1-5.76-2.2c5.11-2.57,9.41-4.34,13.29-6.78,5.88-3.7,11.48-7.84,17.16-11.86,2.94-2.08,3.46-5.06,1.62-7.89a69.22,69.22,0,0,0-8.78-11.25c-1.16-1.15-4.39-1.06-6.33-.44C109.68,189.45,79,199,48.53,209.51c-7.53,2.59-13.2,2.16-18.37-3.36C20.5,195.86,11,185.39,1.62,174.89.66,173.82.52,172,0,170.54c1.6-.57,3.34-1.86,4.8-1.59,17,3.05,33-.49,49.22-5.55C74.43,157,95.21,151.77,115.82,146c2.53-.71,5-1.7,8.14-2.79-4-7.85-7.74-15.4-11.84-22.73-.56-1-3.15-1.45-4.65-1.21-12,1.9-23.93,3.84-35.82,6.15a28.07,28.07,0,0,1-19.27-2.91c-14.84-8-25.19-20.71-36.29-34.37,14.91.74,28.3-1.9,41.52-5.5S84.06,75.25,97.87,71.4C91.55,58,85.44,44.88,79.15,31.87c-.65-1.35-2.29-2.34-3.65-3.21-4.33-2.78-8.79-5.38-13.13-8.15-3.32-2.12-3.4-5.34,0-7.38C69.69,8.65,77.17,4.36,84.6,0h11c6.52,3.2,13.16,6.18,19.52,9.68s10.18,8.59,11.24,16.08a128.6,128.6,0,0,0,4.34,17.93c1.72,5.83,3.89,11.53,5.86,17.27,6.66-2.34,12.51-4.69,18.54-6.41,4.26-1.21,9.32-3.22,13.06-2,10.14,3.38,20.45,7.23,29.4,12.92,10.8,6.86,10.29,19.11-.36,26.33-5.25,3.56-11.45,6-17.52,8-9.69,3.23-19.62,5.7-30.17,8.7,3.65,5.69,6.94,10.82,10.24,15.94,3.93,6.1,4,6.3,10.87,3.59,8.47-3.35,16.68-7.41,25.23-10.56,19.74-7.28,44.82,2.38,54.14,20.51Z"/><path d="M103.52,344c-7.31-1.35-14.69-2.41-21.92-4.12C67.91,336.65,55,331.43,44,322.34,23,305,20.09,275,37.48,254.69c3.13-3.66,7.24-6.46,10.9-9.66l1.37.86c0,3.08.14,6.17,0,9.23-1.22,23.07,11.09,32.88,31.94,36,15.45,2.3,30.39-.82,45.39-3.59,16.5-3,33-4.13,49.14,1.55,11.66,4.09,18,12.56,17.63,23.83a16.64,16.64,0,0,1-2.68,8.27,38.89,38.89,0,0,1-21.39,15.53c-8.82,2.72-18,4.23-27.06,6.26-1.76.39-3.54.69-5.31,1Z"/></svg>