<svg id="Layer_1" data-name="Layer 1" xmlns="http://www.w3.org/2000/svg" viewBox="0 0 307.91 222"><title>hiragana</title><path d="M105.56,222c-7-2.93-14.34-5.3-21-8.9-16.36-8.86-27.48-22.85-35.84-39.16-14-27.31-22.56-56.5-29.36-86.28Q9.84,46,.17,4.43A23.42,23.42,0,0,1,0,2c2-.12,4.06-.78,5.85-.29a92.83,92.83,0,0,1,33.3,16.38C51.83,28,57.59,41.64,60.66,56.93q4.17,20.81,9,41.47a84.61,84.61,0,0,0,14,31.22c2.45,3.32,5.31,6.32,8.44,10,12.47-19.8,20.37-40.95,30.3-61.7.45,1.58,1.24,3.15,1.29,4.75.94,33.63,2,67.27,2.56,100.92a97.09,97.09,0,0,1-2.07,23.29c-1.23,5.35-5,10.1-7.7,15.11Z"/><path d="M307.91,115c-3.73,7.16-6.69,14.9-11.45,21.29-3.27,4.38-8.65,7.8-13.79,10-7.72,3.28-13.09.87-18.12-5.93-6.11-8.27-7.15-18-8.57-27.78-2.28-15.59-3.64-31.46-7.59-46.64-6.27-24.11-17.75-45.8-35.92-63.4A8.92,8.92,0,0,1,211.22,0h2c8.52,2.69,17.35,4.63,25.49,8.19,32.49,14.17,56.05,37,66.54,71.78,1,3.31,1.78,6.68,2.67,10Z"/></svg>