<?xml version="1.0" encoding="utf-8"?>
<!-- Generator: Adobe Illustrator 24.0.1, SVG Export Plug-In . SVG Version: 6.00 Build 0)  -->
<svg version="1.1" xmlns="http://www.w3.org/2000/svg" xmlns:xlink="http://www.w3.org/1999/xlink" x="0px" y="0px"
	 viewBox="0 0 325.9285 308.63806" style="enable-background:new 0 0 325.9285 308.63806;" xml:space="preserve">
<g id="Layer_1">
</g>
<g id="Layer_2">
</g>
<g id="Layer_3">
	<g>
		<path d="M158.4407,308.63806c-0.91222-0.87067-1.82443-1.74133-3.00513-2.86826
			c22.4081-25.89624,41.55994-53.86113,53.52374-86.80075c-3.07666-1.33452-5.76003-2.56905-8.4955-3.6738
			c-22.00809-8.88817-44.80652-14.5132-68.41177-17.0374c-3.80827-0.40721-5.56625,0.892-7.52598,3.84811
			c-9.28548,14.00648-18.41273,28.14961-28.37753,41.66455c-14.48419,19.64439-32.60297,34.94029-55.64458,43.90788
			c-4.1671,1.6218-7.72174,1.35022-10.3463-1.87277c-3.40954-4.18695-7.14176-8.55933-8.9663-13.50803
			c-4.84299-13.13565-9.99272-26.00774-16.83955-38.29797c-7.4886-13.44223-4.90332-26.49638,4.62214-38.0918
			c10.57405-12.87186,24.19311-21.70163,39.32815-28.26167c14.77602-6.40443,30.29697-9.86346,46.30844-10.98076
			c3.59613-0.25093,5.67764-1.30211,6.98206-4.84373c10.00393-27.16139,20.1758-54.26054,30.26291-81.39121
			c0.49669-1.3359,0.69019-2.78522,1.24857-5.11536c-8.19013,3.12309-15.48032,6.23727-23.00325,8.60857
			c-3.04677,0.96037-6.99045,1.31734-9.86102,0.21175c-17.84322-6.87222-32.13527-18.51894-43.11695-34.17617
			c-1.98804-2.83448-3.56309-6.03733-4.82576-9.26793c-0.48796-1.24847,0.00467-3.36252,0.84502-4.48243
			c0.54844-0.73089,2.64038-0.78922,3.84599-0.45058c7.35367,2.06549,14.58509,4.60715,21.99903,6.40044
			c3.17916,0.76899,6.9453,0.92977,10.02476-0.01313c22.37752-6.85179,42.92666-17.77395,63.06977-29.47364
			c3.78691-2.19955,7.26308-3.50406,11.62715-2.0709c11.79347,3.87297,23.67982,7.46313,35.45299,11.39545
			c2.62831,0.87788,5.03021,2.5652,7.38829,4.10762c10.49576,6.86525,11.58066,9.92486,2.89085,18.61424
			c-28.65654,28.65516-43.55075,65.33548-60.07153,101.1217c-3.4136,7.39429-6.58531,14.90091-10.24529,23.21121
			c28.2972,2.99237,55.6564,8.39914,83.43239,18.06668c4.28961-14.09891,8.44144-27.73671,12.58138-41.37816
			c0.19272-0.63501,0.26712-1.30527,0.41685-1.95441c2.8867-12.51487,2.28055-13.89708-8.5528-21.1692
			c-2.09839-1.40859-3.87805-3.29493-5.82388-4.97744c7.64336-5.28219,14.19591-9.77453,20.70714-14.32633
			c3.01317-2.10641,5.94283-2.86324,9.74921-1.68816c13.69112,4.22665,25.08342,11.98903,35.06349,22.0389
			c3.32608,3.34935,4.28613,7.47871,2.72034,11.99131c-6.60062,19.0232-13.25443,38.02784-19.88544,57.04044
			c-0.92563,2.65402-1.83234,5.31467-2.86865,8.32314c2.94434,1.62637,5.69547,3.08675,8.39001,4.64557
			c8.05386,4.65915,16.22519,9.13364,24.09497,14.08887c13.77612,8.67419,23.01804,20.81786,26.77936,36.88554c0,4,0,8,0,12
			c-5.22745,12.21429-12.07809,15.34082-24.87814,10.58456c-5.86914-2.18088-11.57965-5.04266-16.9397-8.29587
			c-9.78503-5.93887-19.25101-12.40608-28.86322-18.63254c-1.17587-0.76172-2.43216-1.3985-2.83629-1.62878
			c-7.75664,11.60794-14.55797,23.27979-22.81384,33.80353c-13.5522,17.27487-31.17892,28.65793-53.05876,32.74872
			c-1.74002,0.32535-3.42625,0.94012-5.13748,1.42038C167.08095,308.63806,162.76082,308.63806,158.4407,308.63806z
			 M83.14777,188.59837c-2.68057,0-4.47651-0.23529-6.19247,0.03683c-15.13226,2.39989-27.91428,9.38957-37.97331,20.86905
			c-2.4476,2.79323-3.83505,7.02168-4.45396,10.79735c-0.7412,4.52173-0.75971,9.67215,3.77975,12.65053
			c4.21122,2.763,8.45092,0.60742,12.16006-1.54826c3.98453-2.31577,8.02729-4.82834,11.30033-8.02242
			C71.58475,213.80168,76.25402,200.9995,83.14777,188.59837z"/>
	</g>
</g>
<g id="Layer_4">
</g>
</svg>
