<?xml version="1.0" encoding="utf-8"?>
<!-- Generator: Adobe Illustrator 24.0.1, SVG Export Plug-In . SVG Version: 6.00 Build 0)  -->
<svg version="1.1" xmlns="http://www.w3.org/2000/svg" xmlns:xlink="http://www.w3.org/1999/xlink" x="0px" y="0px"
	 viewBox="0 0 317.19702 292" style="enable-background:new 0 0 317.19702 292;" xml:space="preserve">
<g id="Layer_1">
</g>
<g id="Layer_2">
</g>
<g id="Layer_3">
	<g>
		<path d="M121.77654,292c-6.9793,0-13.95861,0-20.93791,0c-0.42448-0.24149-0.82487-0.62836-1.27688-0.7037
			c-25.76191-4.29468-43.18223-19.99539-56.18643-41.56061c-10.81626-17.93695-15.21044-37.74892-16.78888-58.44199
			c-3.27865-42.98264,5.86024-82.6927,30.24473-118.53732c0.69573-1.02271,1.20496-2.17306,2.1895-3.97445
			c-11.08607,1.68924-20.51218-0.89774-28.98688-6.79996C17.32873,53.13352,7.71952,41.67725,1.77257,27.26726
			c-0.69635-1.68731-1.46827-3.41589-1.71424-5.19367c-0.18386-1.32887,0.06085-3.04356,0.82141-4.04837
			c0.41794-0.55217,2.38658-0.25783,3.50187,0.11668c3.6167,1.21446,7.25777,2.43386,10.71613,4.02929
			c8.45184,3.89904,17.08202,4.13171,25.70018,1.14173C62.84735,15.6631,84.81846,7.78613,106.82088,0
			c1.99409,0,3.98817,0,5.98226,0c1.85384,0.66281,3.71195,1.31388,5.56082,1.99034
			c11.58075,4.23711,22.03586,10.28327,29.77957,20.10097c5.38371,6.82564,4.97662,11.46163-1.55956,16.7347
			c-6.45685,5.20909-13.17902,10.18767-20.24072,14.51974c-11.7374,7.20041-20.98312,16.66548-28.55355,28.09111
			c-14.11762,21.30693-27.31666,43.08105-33.38636,68.26617c-4.67972,19.41762-7.12591,39.07275-1.56773,58.78288
			c5.94123,21.0685,20.50259,34.24091,39.83223,36.12682c13.24206,1.29198,24.8936-2.94778,35.20039-11.1514
			c9.11859-7.25786,15.92888-16.4585,21.81807-26.41026c10.58084-17.87997,18.35501-37.04008,23.83821-56.97031
			c8.83054-32.09721,16.55867-64.49811,25.18517-96.65395c3.0899-11.51785,6.74596-22.99166,11.40649-33.94505
			c4.30466-10.11695,9.77409-11.3004,19.72853-6.4221c14.18436,6.95122,23.93123,24.88792,21.15263,40.69934
			c-3.03329,17.26102,3.30286,30.67311,15.47943,41.98585c6.45554,5.99756,13.17728,11.72722,20.01474,17.28591
			c9.31863,7.57581,17.14172,16.1582,20.70551,27.96923c0,3.33333,0,6.66667,0,10
			c-3.63147,10.43811-11.85858,13.53471-21.86417,13.67627c-13.8237,0.1956-26.08109-4.12596-36.73935-12.9884
			c-9.36002-7.78294-16.17471-17.54958-21.92271-28.15846c-0.75395-1.39153-1.57675-2.74553-2.71744-4.72338
			c-2.63983,13.98252-4.90239,27.19997-7.65601,40.3137c-7.36021,35.0522-21.05582,67.24504-44.0412,94.9874
			c-15.62012,18.85278-33.61511,34.17554-59.21741,37.17896C122.59629,291.33792,122.19633,291.75391,121.77654,292z"/>
	</g>
</g>
<g id="Layer_4">
</g>
</svg>
