<svg xmlns="http://www.w3.org/2000/svg" viewBox="0 0 247.09 324"><title>hiragana</title><g id="Layer_4" data-name="Layer 4"><path d="M106.63,324l-20.5-4.74,0-1.15,15.39-7.89c20.39-10.51,40.6-21.32,58.07-36.52C174.2,261,186.11,246.18,193,227.79a87.39,87.39,0,0,0,3.6-13c6.24-30.29-19-48.68-40.53-48.73-18.08-.05-34.63,4.8-48.95,15.57a489.31,489.31,0,0,0-37.8,31.59C56.63,225,45,237.84,32.69,250c-6.25,6.16-10.94,6.09-16.73-.69C6.27,238,1.28,224.42.16,209.62s4-28.91,7.3-43.15c3.66-15.55,7.88-31,10.45-46.75,1.4-8.53.12-17.55-.41-26.32-.31-5,1.4-7.28,6.62-6.81,8.31.75,14.64,5,19.53,11.56a50.3,50.3,0,0,1,10,33.3c-.55,11.81-1.19,23.63-1.77,35.44-.08,1.59,0,3.18,0,5.48,7.81-4.74,15-9.07,22.19-13.47,18.93-11.6,38.32-22.11,60.68-25.41,19.29-2.84,38.77-5.13,57.73,1,30.14,9.8,48.08,30.77,53.72,62.19a32.13,32.13,0,0,0,.94,3.28v24a14.05,14.05,0,0,0-.8,2.28c-7.65,47.16-34.68,77.47-79.72,91.77-8.77,2.78-18,4-27.07,5.95Z"/><path d="M63.79,0c1.7,1.07,3.32,2.89,5.11,3.07,7.72.8,15.56,2.05,23.23,1.46,28.14-2.17,48,12.18,65.22,31.95a30.3,30.3,0,0,1,4.47,7.76c3.73,8.48,3.13,13.27-8,16.83-8.26,2.65-17.23,3.65-25.95,4.18-18.7,1.13-37.45,1.57-56.18,2.08-2.42.06-4.87-1.16-7.32-2.43,10.06-5.4,20-10.36,27.77-19.36-2.3-2.08-4.5-4-6.65-6C75.32,30.1,65.9,20,60.22,7.1c-.94-2.16-1-4.72-1.41-7.1Z"/></g></svg>