<svg xmlns="http://www.w3.org/2000/svg" viewBox="0 0 301.97 298"><title>hiragana</title><g id="Layer_3" data-name="Layer 3"><path d="M302,270c-.9,3-1.6,6.11-2.74,9-3.62,9.33-11.8,12.89-20.44,8-11-6.2-21.48-13.25-32.16-20-2.52-1.59-4.93-3.35-7.57-5.15-5.27,4.51-10.41,8.93-15.58,13.31-34.31,29.14-73.8,18.25-99.13-4.6a47.56,47.56,0,0,1-15.93-31.35c-.49-4.8-.58-9.64-1-14.44-2.32-24.73,19.85-47,47.48-42.13,13.67,2.39,27,6.54,40.53,9.93,1.71.43,3.38,1.06,6.19,2V148.09c-14.7,3.15-28.74,6.18-42.79,9.14-4.38.93-8.79,1.77-13.22,2.44-15.37,2.36-30.7-12-31.37-29.5-.4-10.58,3.05-19.94,10.66-28.85a48.19,48.19,0,0,1,3.61,5.85c3.09,7.33,6.62,9.9,14.14,8,18.3-4.65,36.45-9.91,54.69-14.82,3-.81,4-2.53,3.79-5.43a26.87,26.87,0,0,1,.16-5c1.32-11.15-3.24-19.34-12.33-25.46-1.22-.83-1.71-2.75-2.53-4.16,1.32-.75,2.56-1.91,4-2.16,3.76-.69,7.58-1,11.37-1.43,15.18-1.81,27.66,4.9,34.17,18.72,2,4.33,3.36,9,5.27,14.21,6.38-2,12.95-4.09,19.5-6.19,9.47-3,27.95,4.08,32.79,12.8,3.09,5.57,2.57,11.31-1.57,15.82-4,4.35-8.52,8.66-13.66,11.38-9.51,5-19.58,9-29.53,13.17-2.57,1.08-4,1.92-3.82,5.21.85,20.47,1.34,41,2.2,61.42a7.19,7.19,0,0,0,3.09,4.84c7.29,4.62,14.85,8.83,22.22,13.33a89.92,89.92,0,0,1,9.41,6.56c9,7.24,18.74,14,20.16,27ZM194.43,238.18c-10.39-8.89-20.55-16.87-33-20.61a51.31,51.31,0,0,0-20.46-2c-10.05,1.22-13.19,9.67-7.48,18a38.67,38.67,0,0,0,24.85,16.28C172.06,252.59,184.31,249.38,194.43,238.18Z"/><path d="M33.86,298C12.31,290.94,5.31,273.43,2,253.31A150.49,150.49,0,0,1,1.76,206c3.22-21.42,5.58-43,9.12-64.32,3.21-19.36,7.54-38.54,11.31-57.81a240,240,0,0,0,3.92-68.13A19.27,19.27,0,0,1,26,11.3c.18-1.16.74-2.85,1.56-3.17a4.63,4.63,0,0,1,3.86.58C48.33,22.05,59,39.12,61.74,60.78c2.3,18.55-.55,36.91-2.51,55.28-2.33,21.86-4.8,43.7-7.17,65.56-.18,1.62,0,3.28,0,5.59l21.59-10.39c-2.19,7.26-4.38,13.5-5.94,19.88C61.6,221.59,56,246.6,49.58,271.41c-2.35,9.1-6.44,17.74-9.74,26.59Z"/><path d="M234.2,0c5,1.66,10.07,3.08,14.93,5a52.3,52.3,0,0,1,20.95,14.81c6.23,7.39,4.53,15.93-4.59,19.44a128.19,128.19,0,0,1-22,6c-22,4.22-44.14,8.47-66.64,6.37-10.59-1-21.13-3.83-31.38-6.91-7.34-2.21-13.2-7.39-18.2-14.65,30.82-10.8,61-21.7,92-30Z"/></g></svg>