<svg id="Layer_1" data-name="Layer 1" xmlns="http://www.w3.org/2000/svg" viewBox="0 0 271.09 338"><title>hiragana</title><path d="M179.41,338c-3.52-.83-7-1.74-10.57-2.47-37.42-7.74-57.2-31.89-57.62-70.38-.12-11.83-.37-23.66-.27-35.48,0-4.29-2.06-5.66-5.48-4.54-3.87,1.26-8.24,2.63-11,5.38C87,238,79.31,245.58,73.37,254.27c-12.78,18.66-24.44,38.08-36.73,57.08a215.91,215.91,0,0,1-12.78,17.84c-4.79,6-9.92,5.86-14.81-.12C3.24,322,1.28,313.34.28,304.49-1,293.36,1.92,283.74,9.38,275c35.89-42.21,71.46-84.68,107.13-127.07.63-.74,1.18-1.55,2.34-3.06-22.35,5.61-44.07,10.25-63.8,21.07-4.81,2.63-9.74,5-14.53,7.7-3.73,2.07-7.21,1.57-10.06-1.22-3.17-3.13-6.72-6.31-8.65-10.19C15.4,149.26,9.47,136.08,3.74,122.83c-2-4.62-.42-6.37,4.53-5.5a161.72,161.72,0,0,1,17,3.93,50.23,50.23,0,0,0,27,.32c28.39-7.23,55.8-17.26,82.61-29,6.24-2.72,12.45-5.51,18.77-8,2.43-1,5.18-2,7.68-1.82,18.58,1.67,34.11,9.36,45.16,24.78,3.71,5.18,3.23,6.17-2.12,10-3.9,2.82-8,5.43-12.06,8-23.59,14.5-42.51,33.94-58.93,56-1.87,2.52-3.37,5.31-5,7.83.23.58.26,1,.47,1.16,13.13,6.76,17.9,18.4,17.64,32.25-.21,11-1.72,21.89-2.53,32.85a112.28,112.28,0,0,0-.44,13.47c.51,11.44,7,18.36,18.4,17.78,9.69-.5,19.29-2.89,28.92-4.46,9.47-1.55,18.92-4.29,28.41-4.46,23.36-.43,41.07,9.76,51.8,31.08v7c-3.25,9.5-9.41,15.56-19.68,16.83-1.95.24-3.86.87-5.81,1.2-8.11,1.35-16.22,2.65-24.34,4Z"/><path d="M78.75,0C88.84,1.33,98.94,3.84,109,3.72c15.38-.18,29.21,4.11,42.24,11.38a98.11,98.11,0,0,1,17.48,13c4.92,4.42,7.49,10.51,8.29,17.2,1,8.45-2.12,13.54-10.4,15.55-11.94,2.88-23.82,1.59-35.27-2.46a73.65,73.65,0,0,1-16.06-7.81C96.5,38.07,83.51,20.71,74.76,0Z"/></svg>