<svg xmlns="http://www.w3.org/2000/svg" viewBox="0 0 248.07 332"><title>hiragana</title><g id="Layer_3" data-name="Layer 3"><path d="M120.08,0h8c9.16,4.21,18.45,8.16,27.42,12.73,5.9,3,8.64,8.19,8.65,15.13,0,7.28.87,14.56,1.3,21.11,8.31.75,16.2.61,23.67,2.34,12.3,2.84,23.54,8.29,31.39,18.85,4.84,6.5,4.56,9.88-.94,15.77-6.66,7.14-15.18,11.22-24.33,14-9.83,3-19.75,5.74-29.59,8.76-1.34.41-3.35,1.73-3.41,2.73-.34,5.39-.16,10.81-.16,16.64,2.51-.6,4.28-.94,6-1.44,17.74-5.2,33.83,0,49.09,8.48,8.48,4.71,9.49,12.52,3.47,20.28a23.61,23.61,0,0,1-6.9,6.37,142,142,0,0,1-18.87,8.84c-10.75,3.91-21.72,7.25-32.66,10.63-2.68.83-3.6,2.09-3.63,4.91-.13,14.33-.37,28.66-.8,43-.1,3.16,1,4.3,3.9,5.09,10.08,2.78,20.14,5.64,30.09,8.83,21.86,7,40.07,19,52.41,39,4.78,7.76,4.74,15.77,2.25,24a12.93,12.93,0,0,1-11.54,9.67c-3.89.41-8.24.62-11.77-.72a236.39,236.39,0,0,1-26.72-11.92c-11.74-6.2-23.05-13.21-34.61-19.75a59.25,59.25,0,0,0-7.31-2.95c-8.55,27-27.29,42-53.21,49.05-3,.82-6,1.67-9,2.5H64.3c-3-.72-6.06-1.55-9.13-2.15-20.27-4-37.08-13.14-47.76-31.75-17-29.54-3.76-62.15,28.93-71,16.94-4.6,34.19-4.2,51.44-2.43,9,.92,18,2.35,28.19,3.71V190.59c-12.25,2.91-24.84,5.81-37.38,8.9-11.34,2.79-20.91-.34-29.31-8.17-10.39-9.69-18-21.32-23.87-34.14-.62-1.36-.5-3.07-.72-4.63a25.44,25.44,0,0,1,4.71.12c12.29,2.62,24.76,4.36,37,1.09,16-4.28,31.77-9.53,47.59-14.5,1.18-.37,2.85-1.76,2.89-2.73.26-6.44.14-12.88.14-19.77-16.17,1.13-31.26-1.3-44.89-8.82C59,100.69,44.81,94.24,36.91,79c4.24-.71,7.62-1.29,11-1.84C70.56,73.42,93,69,114.46,60.49c3.25-1.29,4.7-2.83,4.15-6.58a55.29,55.29,0,0,1-.54-13c.77-8.56-3.61-14.17-9.73-19a55,55,0,0,0-5.79-3.87c-4.49-2.68-4.59-5.17,0-7.9C108.32,6.7,114.22,3.39,120.08,0ZM109.22,269.32c-16.19-8.61-32.94-12.61-50.7-10.58-5.72.65-11.43,3.05-16.68,5.62-4.5,2.2-5.46,6.57-3.91,11.58,2,6.38,6,10.88,12.08,13,14.69,5,29.38,4.7,43.65-1.59C101.29,283.94,106.26,277.84,109.22,269.32Z"/></g></svg>