<?xml version="1.0" encoding="utf-8"?>
<!-- Generator: Adobe Illustrator 24.0.1, SVG Export Plug-In . SVG Version: 6.00 Build 0)  -->
<svg version="1.1" xmlns="http://www.w3.org/2000/svg" xmlns:xlink="http://www.w3.org/1999/xlink" x="0px" y="0px"
	 viewBox="0 0 328.14966 217" style="enable-background:new 0 0 328.14966 217;" xml:space="preserve">
<g id="Layer_1">
</g>
<g id="Layer_2">
	<g>
		<path d="M178.60283,217c-9.49167-2.28282-19.06215-4.28694-28.44466-6.95583c-5.39514-1.53467-10.55055-4.00343-15.68063-6.34537
			c-1.95523-0.89259-3.53795-2.60612-6.14084-4.59547c2.69402-1.20465,4.26881-1.97076,5.88887-2.62404
			c27.12752-10.93909,53.82805-22.79572,79.19598-37.46381c14.27318-8.25298,27.89386-17.40454,39.69991-29.10159
			c14.39273-14.25986,19.57663-31.79756,18.07922-51.47451c-1.46356-19.23232-20.0666-35.42537-40.42654-35.75016
			c-19.50046-0.31108-38.52747,3.36081-56.63348,9.97053c-30.54309,11.14997-60.62829,23.56873-90.84348,35.61187
			c-11.25957,4.48783-22.24014,9.69446-33.57322,13.97299c-3.2279,1.21861-7.80661,1.53159-10.78268,0.14175
			c-5.45835-2.54909-11.1227-5.84892-15.02377-10.31112C15.64269,82.61017,8.37844,72.24704,0.89612,62.10643
			c-0.87402-1.18454-1.22709-3.77175-0.51737-4.82154c0.66883-0.98928,3.11714-1.25979,4.68441-1.06233
			c7.24405,0.91272,14.5025,1.851,21.66076,3.26431c5.89538,1.16397,11.49031,0.95051,17.06494-1.29142
			c23.86906-9.59938,47.77417-19.10878,71.62793-28.74614c30.70818-12.40668,61.875-23.2108,94.82933-27.93584
			c3.08644-0.44254,6.15564-1.0061,9.23283-1.51347c8.30815,0,16.61632,0,24.92447,0
			c0.94554,0.26832,1.87541,0.67523,2.83891,0.78499c37.94492,4.32289,74.92935,36.74254,80.11923,74.43018
			c0.0853,0.61951,0.51767,1.19096,0.78809,1.78483c0,9.33334,0,18.66666,0,28c-0.38162,1.5934-0.86972,3.1696-1.12872,4.78281
			c-3.13284,19.51093-10.81131,37.05019-23.85672,51.82127c-22.52209,25.50131-49.87054,43.53281-83.17108,51.68733
			c-6.40474,1.56839-12.96712,2.48911-19.45677,3.70859C193.22519,217,185.914,217,178.60283,217z"/>
	</g>
</g>
<g id="Layer_3">
</g>
<g id="Layer_4">
</g>
</svg>
