<svg xmlns="http://www.w3.org/2000/svg" viewBox="0 0 296.34 265"><title>hiragana</title><g id="Layer_3" data-name="Layer 3"><path d="M296.34,105v43a21.41,21.41,0,0,0-1,3.24c-4.81,30.54-18.42,56.75-39.13,79.35-15.84,17.29-35,28.86-58.31,33-2.08.37-4.13.95-6.19,1.43H167.75l-19.56-3.85c2.4-1.74,3.79-2.77,5.2-3.77,24.65-17.44,46.25-37.95,63.25-63.11,16.57-24.53,26.76-51.07,27-81.18.39-42.15-36.15-80.51-89.49-71.11-.27.05-.48.42-.77.69,2.62,10.26,1.73,20.5-.24,30.72-4.88,25.22-14.77,48.69-25.25,71.93-11.73,26-24.66,51.36-42.42,73.87-10.66,13.51-23.42,24.46-39.36,31.43a11,11,0,0,1-10.41-.52c-7.44-4-11.27-10.73-13.16-18.57A248.17,248.17,0,0,0,7,186.35c-2.62-5.71-5.66-11.77-6.08-17.84C-.63,147.19-1.07,125.66,7,105.36c22.36-56,63.64-89.65,122.19-102.31C135,1.8,140.94,1,146.81,0h42.87c1.55.43,3.09.94,4.67,1.28,50.06,10.94,82.45,41.38,98.39,89.87C294.23,95.67,295.16,100.38,296.34,105ZM118.5,45.4c-2.84.46-4.15.59-5.42.89-53.31,12.63-88.3,64.24-79.63,118.26,1.31,8.18,4.66,16.22,8.24,23.77,2.59,5.48,6.2,5.79,11,1.81a46.92,46.92,0,0,0,10-11c6.71-10.88,13.36-21.87,19-33.33,13.1-26.74,25.56-53.79,33.56-82.62C116.72,57.7,117.32,51.93,118.5,45.4Z"/></g></svg>