<svg id="Layer_1" data-name="Layer 1" xmlns="http://www.w3.org/2000/svg" viewBox="0 0 344.28 317"><title>hiragana</title><path d="M114,0c1.64.72,3.24,1.55,4.93,2.14,12.57,4.43,20.87,13.33,25.77,25.45a14.37,14.37,0,0,1,.15,8.64c-3.17,11.19-6.8,22.25-10.58,34.4,2.55-.75,4.36-1.16,6.1-1.8,13.15-4.89,26.75-6.74,40.55-4.41a36.71,36.71,0,0,1,15.34,6.46c5.92,4.41,11.09,10,15.93,15.65,11.38,13.29,15.67,28.29,11.69,45.93C213.21,179.59,199,225.35,175.66,267.9q-2.28,4.16-4.81,8.17c-11,17.58-23.47,33.57-43.94,40.93h-3c-9.81-5-15.07-13.46-18.88-23.43-3-7.91-7.17-15.39-10.47-23.2Q86,250.14,78,229.69c-.75-1.93-.1-4.41-.1-7.52,3,1.72,4.84,2.89,6.77,3.81,9.43,4.49,18.81,9.12,28.38,13.31,8.86,3.88,16.48,1.19,22.07-6.22a108,108,0,0,0,11.63-18.54,316.76,316.76,0,0,0,23.88-73.44,76.42,76.42,0,0,0,1.29-17.87c-.42-10.45-7.74-17.1-18.2-17.15a64.13,64.13,0,0,0-36.19,11,17.11,17.11,0,0,0-5.86,6.94c-17,37.79-33.64,75.76-50.79,113.49A94,94,0,0,1,32.49,273.1c-11.1,8.59-17.1,8.42-22-7.58-2-6.53-1.61-13.8-2.23-20.74-.81-9,2.48-16.46,8.34-23.24a121,121,0,0,0,13-17.63c12.46-21.24,24.48-42.74,36.65-64.16a13.89,13.89,0,0,0,.67-2.23c-8,2.82-15.11,5.45-22.34,7.82-1.78.58-4.1,1-5.72.32-16.08-6.45-28-17.85-38.91-32.93,3.44-.81,5.84-1.94,8.2-1.85,15.62.6,30.37-2.82,44.49-9.22C64.34,96.38,76,91,87.44,85.37A9.44,9.44,0,0,0,91.77,80c2.69-9.79,4.6-19.8,7.39-29.56,4.19-14.64,4.59-29.08-.26-43.64-.67-2,0-4.49.09-6.76Z"/><path d="M344.28,142c-.66,2.9-1.32,5.8-2,8.7-3.2,13.64-12.89,19.11-26.21,14.76a45.24,45.24,0,0,1-6-2.35q-26.12-12.84-52.18-25.8c-1.45-.72-2.79-1.66-5-3,4.45-1.1,8.06-1.86,11.6-2.89,6.54-1.9,12.29-5,15.87-11.18,1.7-2.93,2.28-5.81.19-8.85-7-10.12-13.52-20.54-20.91-30.32-6.9-9.13-14.68-17.59-23-27.39,2.85-.59,4.84-1.58,6.62-1.29,29,4.64,55.12,15.71,77,35.8,12.63,11.61,21,25.66,23.18,43a17.38,17.38,0,0,0,.87,2.83Z"/></svg>