<svg id="Layer_1" data-name="Layer 1" xmlns="http://www.w3.org/2000/svg" viewBox="0 0 286.88 335"><title>hiragana</title><path d="M99.49,0h13c1.57.46,3.11,1,4.7,1.38C127.22,3.76,137.06,6.75,145.56,13c9.65,7,10.34,12.15,3.21,21.62-1.6,2.12-3.26,4.21-4.71,6.45-4,6.24-5.44,13.32-7,21.27,2.87-1.29,4.82-2.19,6.79-3,10.06-4.34,20-9.11,30.22-12.9,15.71-5.8,29.92-1.13,42.41,8.67,7.75,6.08,10.92,14.38,0,21.58a149,149,0,0,1-28.49,15,519.05,519.05,0,0,1-49.72,16.1c-8.63,2.34-12.83,6.34-13.38,15.27-.48,7.69-2.07,15.3-3.29,23.8,9.45-2.63,17.63-4.77,25.69-7.29a5.7,5.7,0,0,0,3.22-3.91A201,201,0,0,0,152.09,115c.07-4.6,2.28-6.78,6.63-5.2,5,1.8,9.93,3.79,14.93,5.6,6.1,2.2,11.16,5.52,14.79,11.19,3.06,4.76,2.29,9.27-.16,14.1,3.72.49,6.67.87,9.62,1.28,23.66,3.34,46.12,9.94,65.44,24.74,11.33,8.68,19.12,19.8,22.05,34,.5,2.43,1,4.86,1.49,7.29v11c-.29,1.45-.59,2.9-.87,4.36-1.79,9.45-2.45,19.29-5.57,28.28C267.7,288.3,245,316.1,207.38,329.21c-8.67,3-18.08,3.92-27.15,5.79h-11c-6.19-2.66-13.77,0-20-4.9,2-1.47,3.48-2.55,4.95-3.6,22.38-16,43.81-33.06,61.36-54.49,9.78-11.94,17.87-24.85,21.95-39.95,5.81-21.43.74-35.73-16.5-46-11.21-6.71-23.53-9.63-36.46-10.71-4.25-.36-6.53.69-8.63,4.51-14.54,26.4-29.65,52.44-47.77,76.61a9.28,9.28,0,0,0-1.21,6.39c1.51,9.7,3.66,19.3,5,29,.74,5.19,1.65,11.4-3.28,14.8-5.26,3.64-11.19,1.34-16.58-1.25a24.58,24.58,0,0,1-3-1.74c-7.46-5-13.46-11.28-17.09-20.17-1.47,1.38-2.64,2.5-3.83,3.6-11.52,10.66-23.82,20.28-38,27.22-9.66,4.74-18.49,3.52-24.76-4.53a284.55,284.55,0,0,1-20.88-30.9C-.84,269.6-1,259.24,1.71,248.8c3.09-12,9-22.55,16.31-32.32a226.78,226.78,0,0,1,61-56.07c1.69-1.06,3.87-2.74,4.16-4.43,2.12-12.23,3.81-24.55,5.73-37.43a38.56,38.56,0,0,0-5.87,1.1c-5.79,2-11.75,3.8-17.2,6.56-7.53,3.81-13.66,2.27-18.51-3.94C39.26,112,31.55,101.33,23.88,90.7c-1.09-1.51-1.1-3.81-1.61-5.74,1.87.09,3.85-.2,5.6.32,14,4.14,27.93,4.08,41.54-1.25,8.64-3.39,17-7.43,25.37-11.53a7.86,7.86,0,0,0,3.45-4.89c1.91-8.78,3.23-17.7,5.16-26.48,2.73-12.43,1.27-24.23-4.93-35.28C97,3.18,97.76,1.7,99.49,0ZM82.72,201.55a20.28,20.28,0,0,0-2.93.64C62.47,211.38,47,222.9,34.62,238.32c-4.85,6.06-8.43,12.83-7.85,21,.67,9.31,11,15.64,19.37,11.66,13.35-6.35,25.06-15,34.31-26.64a9.6,9.6,0,0,0,2.18-5.26C82.81,226.79,82.72,214.51,82.72,201.55Zm35.2,8.62,1.94.66q8.73-15.57,17.45-31.13l-1.26-1.28c-4.91,1.8-9.86,3.51-14.68,5.51a4.16,4.16,0,0,0-2,3C118.75,194.65,118.37,202.42,117.92,210.17Z"/></svg>