<svg id="Layer_1" data-name="Layer 1" xmlns="http://www.w3.org/2000/svg" viewBox="0 0 226.1 280"><title>hiragana</title><path d="M98.63,280c-8-1.32-16-2.33-24-4-18.32-3.89-35.77-10.11-51-21.46-16-11.9-24.63-27.55-23.62-48,.65-13.13,6.5-23.79,15.75-34,1.18,4.87,2.33,8.92,3.15,13C24,211,37.61,216.3,57.67,218.91c30.35,4,60.48,1.9,90.37-5.13,13.35-3.14,27-4.95,40.65-6.68a36.54,36.54,0,0,1,24.44,5.06c4.86,3.09,8.68,7.84,13,11.84v13c-6.8,14.13-16.63,25.32-31.57,30.82a194.55,194.55,0,0,1-27.61,8c-10,2.06-20.29,2.81-30.45,4.14Z"/><path d="M150.41,0c7.89,2.42,16.11,4.1,23.6,7.43C186.64,13,196.88,21.6,201.14,35.6c2,6.46.64,11.4-5.43,14.25A41.55,41.55,0,0,1,179.14,54c-19.11.26-38.27.18-56.7,5.93-16,5-31.59,11-47.36,16.56-1.49.52-3,1.14-5.57,2.17L79.62,57.69C53.33,48,33.56,31.71,24.43,3.35c2.77,0,4.85-.17,6.89,0,24.58,2.48,49,0,73.5-1.79C110.4,1.18,116,.54,121.53,0Z"/></svg>