<?xml version="1.0" encoding="utf-8"?>
<!-- Generator: Adobe Illustrator 24.0.1, SVG Export Plug-In . SVG Version: 6.00 Build 0)  -->
<svg version="1.1" id="Layer_1" xmlns="http://www.w3.org/2000/svg" xmlns:xlink="http://www.w3.org/1999/xlink" x="0px" y="0px"
	 viewBox="0 0 623.62207 311.81104" style="enable-background:new 0 0 623.62207 311.81104;" xml:space="preserve">
<style type="text/css">
	.st0{clip-path:url(#SVGID_1_);fill:url(#SVGID_2_);}
	.st1{clip-path:url(#SVGID_1_);fill:#8CB5DE;}
	.st2{clip-path:url(#SVGID_1_);}
	.st3{clip-path:url(#SVGID_3_);fill:url(#SVGID_4_);}
	.st4{clip-path:url(#SVGID_1_);fill:url(#SVGID_5_);}
</style>
<g>
	<defs>
		<rect id="SVGID_8_" width="623.62207" height="311.81104"/>
	</defs>
	<clipPath id="SVGID_1_">
		<use xlink:href="#SVGID_8_"  style="overflow:visible;"/>
	</clipPath>
	<linearGradient id="SVGID_2_" gradientUnits="userSpaceOnUse" x1="311.81104" y1="176.31064" x2="311.81104" y2="-0.34416">
		<stop  offset="0" style="stop-color:#FFFFFF"/>
		<stop  offset="0.39975" style="stop-color:#F6F9FD"/>
		<stop  offset="0.91411" style="stop-color:#E5EEF8"/>
		<stop  offset="1" style="stop-color:#E2ECF7"/>
	</linearGradient>
	<rect y="-0.34416" class="st0" width="623.62207" height="176.6548"/>
	<path class="st1" d="M0,153.65552c0,0,11.31102-3.25,34.06102-4.5s43.5-6.75,58-11.5s60.75-9.75001,73.5-11.00001
		s20.5,2.87501,28.1875,0.625c7.6875-2.25,14.625-3,18.375-3.5625s11.8125-9,13.125-9.9375s9,5.4375,12.375,7.3125
		s3,2.625,9.5625-0.9375s10.68752-6,12.18752-7.3125s2.625-0.75,6.75,1.6875s6.75,2.4375,9.1875,2.4375s6.75-5.625,8.625-6
		s3.75-5.8125,5.0625-5.8125s6.375,6.375,8.8125,6.1875s8.625-0.75,10.6875,0.375s3.5625,3.75,5.8125,3.75
		s7.6875-5.8125,10.6875-9.1875s5.4375-4.875,6.5625-4.875s13.875,6.1875,18.5625,9s8.25,5.0625,11.0625,5.625
		s14.625,0,16.6875-0.75s6.5625-5.8125,8.8125-5.4375s6.375,5.4375,8.25,5.8125s5.8125,0,8.0625-1.3125s1.875-1.5,7.875,0.375
		s24,7.6875,34.5,11.625c10.5,3.93751,31.3125,9.18751,50.4375,11.62501s41.625,0.375,54.375,2.625s28.125,6,48.1875,6.5625
		s25.24854,0.9375,25.24854,0.9375v32.8125H0V153.65552z"/>
	<g class="st2">
		<defs>
			<path id="SVGID_11_" d="M0,153.65552c0,0,11.31102-3.25,34.06102-4.5s43.5-6.75,58-11.5s60.75-9.75001,73.5-11.00001
				s20.5,2.87501,28.1875,0.625c7.6875-2.25,14.625-3,18.375-3.5625s11.8125-9,13.125-9.9375s9,5.4375,12.375,7.3125
				s3,2.625,9.5625-0.9375s10.68752-6,12.18752-7.3125s2.625-0.75,6.75,1.6875s6.75,2.4375,9.1875,2.4375s6.75-5.625,8.625-6
				s3.75-5.8125,5.0625-5.8125s6.375,6.375,8.8125,6.1875s8.625-0.75,10.6875,0.375s3.5625,3.75,5.8125,3.75
				s7.6875-5.8125,10.6875-9.1875s5.4375-4.875,6.5625-4.875s13.875,6.1875,18.5625,9s8.25,5.0625,11.0625,5.625
				s14.625,0,16.6875-0.75s6.5625-5.8125,8.8125-5.4375s6.375,5.4375,8.25,5.8125s5.8125,0,8.0625-1.3125s1.875-1.5,7.875,0.375
				s24,7.6875,34.5,11.625c10.5,3.93751,31.3125,9.18751,50.4375,11.62501s41.625,0.375,54.375,2.625s28.125,6,48.1875,6.5625
				s25.24854,0.9375,25.24854,0.9375v32.8125H0V153.65552z"/>
		</defs>
		<clipPath id="SVGID_3_">
			<use xlink:href="#SVGID_11_"  style="overflow:visible;"/>
		</clipPath>
		<linearGradient id="SVGID_4_" gradientUnits="userSpaceOnUse" x1="247.43602" y1="83.40551" x2="247.43602" y2="153.71802">
			<stop  offset="0.22756" style="stop-color:#7DA8D4"/>
			<stop  offset="0.6051" style="stop-color:#82ACD7"/>
			<stop  offset="1" style="stop-color:#8CB5DE"/>
		</linearGradient>
		<path class="st3" d="M98.31102,144.90552c-11.625,1.5-20.25,6.75-20.25,6.75l-11.0625,2.0625
			C74.87352,145.46802,98.31102,144.90552,98.31102,144.90552z M56.68602,146.59302c0,0,12-1.5,20.25-3.1875
			s24.5625-7.5,33.375-9.5625s48.9375-5.4375,48.9375-5.4375l-17.4375,6.9375c0,0,12.1875-2.0625,18.5625-3.1875
			s14.625-6.00001,20.8125-7.31251s9.5625,3,9.5625,3s9.75-1.5,13.3125-1.6875s4.875,4.31251,5.4375,5.25001
			s-3.375,8.4375-11.0625,12.1875s-9.9375,10.125-9.9375,10.125s11.8125-7.125,18.75-6.5625s14.625,0.375,14.625,0.375
			s-10.6875-4.125-15.75-2.625s-9.9375,2.8125-9.9375,2.8125s9-9.1875,12.9375-11.25s11.25-1.875,11.25-1.875
			s-7.3125-7.24715-8.4375-9.99858s9.9375-11.37643,9.9375-11.37643s6,5.0625,10.5,6.75s9.375,2.0625,9.375,2.0625l7.3125-3.375
			c0,0,0.9375,5.4375,4.6875,6.375c3.75002,0.9375,2.62502,2.8125-2.8125,3.18751c-5.4375,0.375-9.1875-1.87501-12.5625-2.81251
			s-7.875-0.75-7.875-0.75s5.25,0.1875,7.3125,4.12501c2.0625,3.9375,2.8125,5.8125,6.75,4.6875s5.70566-4.3125,11.38408-4.3125
			c5.67844,0,9.42844-1.68751,11.67844-3.75001s1.6875-3.5625-4.3125-3.375s-10.68752-1.6875-7.125-4.6875
			c3.5625-3,7.5-6.75,7.5-6.75s15.125,4.8125,18.625,1.1875s5.5-7.125,8-7s3.23889,3.79616,6.30695,6.27308
			s9.31805,7.35192,16.06805,13.47692c6.75,6.12501,16.25,11.00001,16.375,14.00001c0,0,4.125-2.25,5.5-4.75
			s-5.75-4.375-2.125-7.12501c3.625-2.75,6.125-2.875,6.125-2.875s-6.125-1-9-0.875s-1.875-1.75-6.875-1.75s-5.75,0.25-9.375-2.5
			s-5.625-1-6.375-4.375s-2.5-4.625-3.625-5s20.125-1,21.875-2.875s2.5-0.375,3.75,2c0,0,0.25-2.875,2.75-3.125s6.25-1,8.375-2.375
			s8,4.375,10.25,9.625s14.5,10.125,14.5,10.125s-6-4.625-1.375-5.5s7.625-4.625,8.625-4.625s-1.75,4.375,0,6.25
			s4.25,4.25,7.75,5.625s10.75,0.875,14.5,3c3.75,2.12501,5.75,1.37501,11.875,3.50001s7.125,3.75,12.5,4.125
			c-3.625-1.75-8.875-5.64397-12.125-6.82199c-3.25-1.17802-6.625-0.55302-10-1.80302s-3.375-1.625-8.625-2.625s-5.375,0.75-6.25-3
			s-2.5-9.25-2.5-9.25s-1.25,1.5-0.625,3.375s2.125,5.5,1.625,6.5s-2.875,0.875-4.125-1.25s-2.375-4.875-2-6.25
			s3.625-4.875,3.625-4.875s3.75,1,3.625,2.5s0.5,2.5,2.5,2s2.5-3.25,5.375,1.5s4.125,6.5,10.125,8.25s8.875,1.875,8.875,1.875
			s-5.25-2.375-8.375-4.5s-3.875-3.125-5.625-7s0.25-1.5,5.875,2.375s11,6.5,18.625,9.25c7.625,2.75001,18.875,6.50001,27,7.50001
			c0,0-14.75-5.12501-23.25-8.62501s-16.25-6.375-17.625-9.25s0-5.625,0-5.625l-31.4375-25.875h-107.625l-163.68752,21.5625
			l-52.875,30.37501L56.68602,146.59302z M271.43604,134.40552c0,0,7.625-5.375,10.875-8.75001c3.25-3.375,4.875-4.625,6.875-5.125
			s0.75-1.75,1.375-3.25s0.875-2.125,0.875-2.125s-2.875,1.6875-3.5,3.40625s-5,6.09375-8.25,8.46875
			C276.43604,129.40552,275.93604,129.15552,271.43604,134.40552z M287.06104,134.40552c3.5,2.375,7.375,2.375,7.5,4.375
			s4.375,3.125,9.5,4.5s6.875-1.375,9.25-3.25s9.75-1.02136,9.75-1.02136s-7.25-2.97864-11.25-0.85364s-6.5-0.25-9.25-1.375
			s-3.125-3.75-6.25-6.75c-3.125-3.00001-10.125-1.875-10.125-1.875S283.56104,132.03052,287.06104,134.40552z M332.18604,118.03051
			c0,0,8.125,5.5,13,6.75C341.68604,121.40551,336.93604,116.65551,332.18604,118.03051z M367.18604,135.33778
			c-4.625-2.44273-5-2.30727-1.875-3.18227s7.25,0.375,12.375,2.25s6,2,6,2s-2.375-3-6.125-4s-2.875-2.375-7.25-4.45664
			c-4.375-2.08163-13.125,0-13.125,0l5.75,1.58164c0,0-1,0-3.875,1s-0.25,1.875,7.125,6.625s13.5,6.49634,13.5,6.49634
			C376.81104,139.89819,371.81104,137.78052,367.18604,135.33778z"/>
	</g>
	<linearGradient id="SVGID_5_" gradientUnits="userSpaceOnUse" x1="311.81104" y1="312.15518" x2="311.81104" y2="173.21577">
		<stop  offset="0" style="stop-color:#E9F6F9"/>
		<stop  offset="1" style="stop-color:#ABDDF3"/>
	</linearGradient>
	<path class="st4" d="M0,179.40552c0,0,128.81102-6,160.31102-5.5s98.50002,1.4408,117.50002-0.0296s89.5-0.0296,131,0
		s106.5,2.43472,150.5,2.43472s64.31104,0,64.31104,0v135.84454H0V179.40552z"/>
</g>
</svg>
