<?xml version="1.0" encoding="utf-8"?>
<!-- Generator: Adobe Illustrator 24.0.1, SVG Export Plug-In . SVG Version: 6.00 Build 0)  -->
<svg version="1.1" id="Layer_1" xmlns="http://www.w3.org/2000/svg" xmlns:xlink="http://www.w3.org/1999/xlink" x="0px" y="0px"
	 viewBox="0 0 623.62207 311.81104" style="enable-background:new 0 0 623.62207 311.81104;" xml:space="preserve">
<style type="text/css">
	.st0{clip-path:url(#SVGID_1_);fill:#FFFFFF;}
	.st1{clip-path:url(#SVGID_1_);}
	.st2{fill:url(#SVGID_2_);}
	.st3{fill:url(#SVGID_3_);}
	.st4{fill:url(#SVGID_4_);}
	.st5{fill:url(#SVGID_5_);}
	.st6{fill:url(#SVGID_6_);}
	.st7{fill:url(#SVGID_7_);}
	.st8{fill:url(#SVGID_8_);}
	.st9{fill:url(#SVGID_9_);}
	.st10{fill:url(#SVGID_10_);}
	.st11{fill:url(#SVGID_11_);}
	.st12{fill:url(#SVGID_12_);}
	.st13{fill:url(#SVGID_13_);}
	.st14{fill:url(#SVGID_14_);}
	.st15{fill:url(#SVGID_15_);}
	.st16{fill:url(#SVGID_16_);}
	.st17{fill:url(#SVGID_17_);}
	.st18{fill:url(#SVGID_18_);}
	.st19{fill:url(#SVGID_19_);}
	.st20{fill:url(#SVGID_20_);}
	.st21{fill:url(#SVGID_21_);}
	.st22{fill:url(#SVGID_22_);}
	.st23{clip-path:url(#SVGID_1_);fill:#8FAE71;}
	.st24{fill:#E92F3F;}
	.st25{fill:url(#SVGID_23_);}
	.st26{fill:url(#SVGID_24_);}
	.st27{fill:url(#SVGID_25_);}
	.st28{fill:url(#SVGID_26_);}
	.st29{fill:url(#SVGID_27_);}
	.st30{fill:url(#SVGID_28_);}
	.st31{fill:url(#SVGID_29_);}
	.st32{fill:url(#SVGID_30_);}
	.st33{fill:url(#SVGID_31_);}
	.st34{fill:url(#SVGID_32_);}
	.st35{fill:url(#SVGID_33_);}
	.st36{fill:url(#SVGID_34_);}
	.st37{fill:url(#SVGID_35_);}
	.st38{fill:url(#SVGID_36_);}
	.st39{fill:url(#SVGID_37_);}
	.st40{fill:url(#SVGID_38_);}
	.st41{fill:url(#SVGID_39_);}
	.st42{fill:url(#SVGID_40_);}
	.st43{fill:url(#SVGID_41_);}
</style>
<g id="Yamagata-Yamagata">
	<defs>
		<rect id="SVGID_43_" width="623.62207" height="311.81104"/>
	</defs>
	<clipPath id="SVGID_1_">
		<use xlink:href="#SVGID_43_"  style="overflow:visible;"/>
	</clipPath>
	<rect class="st0" width="623.62207" height="311.81104"/>
	<g class="st1">
		<linearGradient id="SVGID_2_" gradientUnits="userSpaceOnUse" x1="52.75652" y1="273.71359" x2="52.75652" y2="232.08688">
			<stop  offset="0" style="stop-color:#FFFFFE"/>
			<stop  offset="0.29397" style="stop-color:#F0ECE0"/>
			<stop  offset="1" style="stop-color:#D1E0BC"/>
		</linearGradient>
		<path class="st2" d="M4.52101,250.45424c8.92542-9.31529,46.60726-41.76582,97.35251,11.26378
			c-28.59323,10.44751-67.22023,23.58267-97.31496-6.83453C3.34847,253.66043,3.3307,251.69655,4.52101,250.45424z"/>
		<linearGradient id="SVGID_3_" gradientUnits="userSpaceOnUse" x1="114.80244" y1="288.90552" x2="114.80244" y2="222.93088">
			<stop  offset="0" style="stop-color:#FFFFFE"/>
			<stop  offset="0.29397" style="stop-color:#F0ECE0"/>
			<stop  offset="1" style="stop-color:#D1E0BC"/>
		</linearGradient>
		<path class="st3" d="M87.54008,224.7489c0.75244,10.98141,6.7972,62.81573,53.89594,64.15662
			c3.14417-35.5157-4.11052-60.25745-51.99651-65.96246C88.38176,222.81705,87.46725,223.68617,87.54008,224.7489z"/>
		<linearGradient id="SVGID_4_" gradientUnits="userSpaceOnUse" x1="75.69855" y1="300.67334" x2="75.69855" y2="246.15865">
			<stop  offset="0" style="stop-color:#FFFFFE"/>
			<stop  offset="0.29397" style="stop-color:#F0ECE0"/>
			<stop  offset="1" style="stop-color:#D1E0BC"/>
		</linearGradient>
		<path class="st4" d="M110.68602,246.34302c0,0,4.58327,56.2825-67.64529,54.27802
			c-1.3869-0.03848-2.49081-1.21414-2.38014-2.59717C42.7743,271.61023,78.15496,243.61694,110.68602,246.34302z"/>
		<linearGradient id="SVGID_5_" gradientUnits="userSpaceOnUse" x1="230.9873" y1="311.13181" x2="230.9873" y2="259.09387">
			<stop  offset="0" style="stop-color:#FFFFFE"/>
			<stop  offset="0.29397" style="stop-color:#F0ECE0"/>
			<stop  offset="1" style="stop-color:#D1E0BC"/>
		</linearGradient>
		<path class="st5" d="M197.00725,307.85931c-0.36694-9.07794,1.4053-51.93326,67.99129-48.5788
			c-6.65323,25.50403-30.24753,58.65884-66.29413,50.6268C197.74092,309.69263,197.0471,308.84561,197.00725,307.85931z"/>
		<linearGradient id="SVGID_6_" gradientUnits="userSpaceOnUse" x1="166.23589" y1="306.19666" x2="166.23589" y2="267.15128">
			<stop  offset="0" style="stop-color:#FFFFFE"/>
			<stop  offset="0.29397" style="stop-color:#F0ECE0"/>
			<stop  offset="1" style="stop-color:#D1E0BC"/>
		</linearGradient>
		<path class="st6" d="M145.18602,306.15552c0,0,41.77678,2.73703,42.09966-36.42981
			c0.00807-0.98004-0.71025-1.81454-1.67235-2.0014C165.19876,263.75909,146.28136,280.78043,145.18602,306.15552z"/>
		<linearGradient id="SVGID_7_" gradientUnits="userSpaceOnUse" x1="187.27541" y1="298.32632" x2="187.27541" y2="230.96802">
			<stop  offset="0" style="stop-color:#FFFFFE"/>
			<stop  offset="0.29397" style="stop-color:#F0ECE0"/>
			<stop  offset="1" style="stop-color:#D1E0BC"/>
		</linearGradient>
		<path class="st7" d="M213.54785,296.42032c-0.51877-11.6431-1.4781-62.84187-51.29933-65.4523
			c-4.2263,37.51468,0,55.5,49.24307,67.3158C212.58836,298.547,213.59805,297.54709,213.54785,296.42032z"/>
		<linearGradient id="SVGID_8_" gradientUnits="userSpaceOnUse" x1="153.28189" y1="270.32889" x2="153.28189" y2="185.88802">
			<stop  offset="0" style="stop-color:#FFFFFE"/>
			<stop  offset="0.29397" style="stop-color:#F0ECE0"/>
			<stop  offset="1" style="stop-color:#D1E0BC"/>
		</linearGradient>
		<path class="st8" d="M151.09703,186.55701c-6.67329,8.75356-36.29779,51.71544-1.76555,83.77188
			c25.7767-24.63358,36.63161-48.02066,4.38428-83.87767C153.00345,185.65918,151.74284,185.70987,151.09703,186.55701z"/>
		<linearGradient id="SVGID_9_" gradientUnits="userSpaceOnUse" x1="390.74042" y1="295.69147" x2="390.74042" y2="259.09363">
			<stop  offset="0" style="stop-color:#FFFFFE"/>
			<stop  offset="0.29397" style="stop-color:#F0ECE0"/>
			<stop  offset="1" style="stop-color:#D1E0BC"/>
		</linearGradient>
		<path class="st9" d="M405.06104,259.09387c0,0-29.94412-0.43835-28.59708,35.43665
			C399.99335,298.10349,403.81104,295.28223,405.06104,259.09387z"/>
		<linearGradient id="SVGID_10_" gradientUnits="userSpaceOnUse" x1="327.16531" y1="311.23242" x2="327.16531" y2="251.21802">
			<stop  offset="0" style="stop-color:#FFFFFE"/>
			<stop  offset="0.29397" style="stop-color:#F0ECE0"/>
			<stop  offset="1" style="stop-color:#D1E0BC"/>
		</linearGradient>
		<path class="st10" d="M310.37354,251.21802c0,0-13.11441,42.13467,28.33749,59.83389
			c1.0647,0.45459,2.29681,0.02515,2.83112-1.00186C352.75882,288.4895,342.48444,254.31964,310.37354,251.21802z"/>
		<linearGradient id="SVGID_11_" gradientUnits="userSpaceOnUse" x1="304.82022" y1="276.87177" x2="304.82022" y2="237.82253">
			<stop  offset="0" style="stop-color:#FFFFFE"/>
			<stop  offset="0.29397" style="stop-color:#F0ECE0"/>
			<stop  offset="1" style="stop-color:#D1E0BC"/>
		</linearGradient>
		<path class="st11" d="M328.37354,238.28052c0,0-2.17172,33.66153-44.74207,38.57693
			c-1.25772,0.14523-2.37469-0.83264-2.3645-2.09866C281.45593,251.24574,300.95947,234.83105,328.37354,238.28052z"/>
		<linearGradient id="SVGID_12_" gradientUnits="userSpaceOnUse" x1="276.58945" y1="311.69742" x2="276.58945" y2="225.71802">
			<stop  offset="0" style="stop-color:#FFFFFE"/>
			<stop  offset="0.29397" style="stop-color:#F0ECE0"/>
			<stop  offset="1" style="stop-color:#D1E0BC"/>
		</linearGradient>
		<path class="st12" d="M259.56104,225.71802c0,0,33,14.24153,35.8125,41.43326c2.16095,20.89246-5.97223,36.43457-9.85651,42.51434
			c-1.17035,1.83188-3.49176,2.5379-5.47607,1.65012c-5.17059-2.31335-14.70758-9.04749-19.35492-28.03522
			C254.12352,256.46802,259.56104,225.71802,259.56104,225.71802z"/>
		<linearGradient id="SVGID_13_" gradientUnits="userSpaceOnUse" x1="351.14761" y1="294.53052" x2="351.14761" y2="233.15646">
			<stop  offset="0" style="stop-color:#FFFFFE"/>
			<stop  offset="0.29397" style="stop-color:#F0ECE0"/>
			<stop  offset="1" style="stop-color:#D1E0BC"/>
		</linearGradient>
		<path class="st13" d="M328.37354,294.53052c0,0,56.73904-7.34488,43.56354-60.19423
			c-0.22491-0.90221-1.20172-1.40779-2.0715-1.07903C345.31448,242.53755,331.49252,258.57019,328.37354,294.53052z"/>
		<linearGradient id="SVGID_14_" gradientUnits="userSpaceOnUse" x1="376.46396" y1="325.9476" x2="376.46396" y2="270.25934">
			<stop  offset="0" style="stop-color:#FFFFFE"/>
			<stop  offset="0.29397" style="stop-color:#F0ECE0"/>
			<stop  offset="1" style="stop-color:#D1E0BC"/>
		</linearGradient>
		<path class="st14" d="M352.93604,270.32889c0,0-0.90158,42.02646,42.38519,55.50031
			c1.43744,0.44742,2.96823-0.41501,3.31537-1.87994C405.1113,296.62549,388.17328,268.68045,352.93604,270.32889z"/>
		<linearGradient id="SVGID_15_" gradientUnits="userSpaceOnUse" x1="412.14102" y1="308.75635" x2="412.14102" y2="237.82253">
			<stop  offset="0" style="stop-color:#FFFFFE"/>
			<stop  offset="0.29397" style="stop-color:#F0ECE0"/>
			<stop  offset="1" style="stop-color:#D1E0BC"/>
		</linearGradient>
		<path class="st15" d="M385.93604,237.82253c0,0-4.92474,53.52318,47.47067,70.82085
			c1.21994,0.40277,2.51511-0.30789,2.8363-1.55179C444.68481,274.4017,429.37537,240.67403,385.93604,237.82253z"/>
		<linearGradient id="SVGID_16_" gradientUnits="userSpaceOnUse" x1="483.854" y1="272.18884" x2="483.854" y2="240.4908">
			<stop  offset="0" style="stop-color:#FFFFFE"/>
			<stop  offset="0.29397" style="stop-color:#F0ECE0"/>
			<stop  offset="1" style="stop-color:#D1E0BC"/>
		</linearGradient>
		<path class="st16" d="M511.32181,266.52896c-3.87384-7.819-19.58478-33.50563-55.14407-23.92834
			c11.02841,26.9444,25.72638,34.40253,53.86661,26.74771C511.26343,269.01672,511.88266,267.66101,511.32181,266.52896z"/>
		<linearGradient id="SVGID_17_" gradientUnits="userSpaceOnUse" x1="447.21832" y1="291.82562" x2="447.21832" y2="240.94691">
			<stop  offset="0" style="stop-color:#FFFFFE"/>
			<stop  offset="0.29397" style="stop-color:#F0ECE0"/>
			<stop  offset="1" style="stop-color:#D1E0BC"/>
		</linearGradient>
		<path class="st17" d="M428.68604,291.71802c0,0,42.09341,4.75839,36.59714-49.00931
			c-0.11438-1.11899-1.15952-1.90356-2.2724-1.74028C434.2142,245.19336,428.18942,276.66064,428.68604,291.71802z"/>
		<linearGradient id="SVGID_18_" gradientUnits="userSpaceOnUse" x1="476.44824" y1="325.9476" x2="476.44824" y2="255.01241">
			<stop  offset="0" style="stop-color:#FFFFFE"/>
			<stop  offset="0.29397" style="stop-color:#F0ECE0"/>
			<stop  offset="1" style="stop-color:#D1E0BC"/>
		</linearGradient>
		<path class="st18" d="M462.06326,255.93546c-2.73233,9.00485-12.92038,51.07574,28.31027,70.01215
			c7.20645-24.86371,5.85416-47.07642-26.30997-70.68636C463.34601,254.73453,462.32172,255.08368,462.06326,255.93546z"/>
		<linearGradient id="SVGID_19_" gradientUnits="userSpaceOnUse" x1="568.78699" y1="292.65552" x2="568.78699" y2="259.22672">
			<stop  offset="0" style="stop-color:#FFFFFE"/>
			<stop  offset="0.29397" style="stop-color:#F0ECE0"/>
			<stop  offset="1" style="stop-color:#D1E0BC"/>
		</linearGradient>
		<path class="st19" d="M555.22711,260.60831c-1.4184,6.20258-4.66602,29.45044,25.52142,32.04721
			c6.06927-15.26526,1.85547-30.71091-23.61292-33.41888C556.24487,259.14191,555.42682,259.73508,555.22711,260.60831z"/>
		<linearGradient id="SVGID_20_" gradientUnits="userSpaceOnUse" x1="539.07947" y1="304.72079" x2="539.07947" y2="236.21802">
			<stop  offset="0" style="stop-color:#FFFFFE"/>
			<stop  offset="0.29397" style="stop-color:#F0ECE0"/>
			<stop  offset="1" style="stop-color:#D1E0BC"/>
		</linearGradient>
		<path class="st20" d="M505.59695,302.05844c-1.07889-12.18457-0.99277-60.43971,67.08908-65.84042
			c1.83551,31.02017-21.48499,65.81372-63.98083,68.49677C507.11642,304.81509,505.73737,303.6442,505.59695,302.05844z"/>
		<linearGradient id="SVGID_21_" gradientUnits="userSpaceOnUse" x1="566.95306" y1="330.90552" x2="566.95306" y2="286.28052">
			<stop  offset="0" style="stop-color:#FFFFFE"/>
			<stop  offset="0.29397" style="stop-color:#F0ECE0"/>
			<stop  offset="1" style="stop-color:#D1E0BC"/>
		</linearGradient>
		<path class="st21" d="M584.68604,286.28052c0,0,8.0625,35.625-33.75,44.625
			C543.24854,308.75635,554.49854,287.78052,584.68604,286.28052z"/>
		<linearGradient id="SVGID_22_" gradientUnits="userSpaceOnUse" x1="598.95599" y1="305.01404" x2="598.95599" y2="274.7226">
			<stop  offset="0" style="stop-color:#FFFFFE"/>
			<stop  offset="0.29397" style="stop-color:#F0ECE0"/>
			<stop  offset="1" style="stop-color:#D1E0BC"/>
		</linearGradient>
		<path class="st22" d="M570.89929,280.20404c7.0708-4.7164,30.97253-16.22296,57.66174,20.51398
			c-20.17975,6.54477-50.33466,8.68274-59.02118-16.48837C569.02576,282.73999,569.58832,281.07852,570.89929,280.20404z"/>
	</g>
	<path class="st23" d="M577.06104-7.34449c-14.25,2.25-14.25,5-14.25,5s8.25,33.5,30.5,45.25c0,0-8.47937-0.95508-17.75-12.03558
		v10.91058l-1.46588-12.7417c-2.50897-3.27173-5.04504-7.31158-7.46075-12.29565c-0.47034,2.74371-1.37292,8.33221-1.82336,13.28735
		c-1.11682-4.56024,0.01801-12.16626,0.6709-15.75641c-1.92963-4.30334-3.76373-9.24738-5.4209-14.93475l-5.5-2.68384
		c0,0-18,57,74.25,75.25C628.81104,71.90551,627.56104,13.40551,577.06104-7.34449z"/>
	<path class="st23" d="M48.43205,63.68184l-3.47674-7.82243l1.58393,6.41077c-1.2639-0.89996-2.55645-1.75143-3.87483-2.52835
		l-4.26471-6.92635l1.87231,5.60571c-3.72771-1.92959-7.53897-3.2907-11.11282-3.8167
		c12.68429,3.66055,22.44451,14.16972,27.9574,22.83785c-0.29737,0.11234-0.61502,0.18527-0.95376,0.18478
		C24.17213,77.57784,12.03317,65.17908,5.24516,48.81045c-0.47758-1.15164,0.26652-2.44229,1.50082-2.61821
		C51.2833,39.8443,57.88454,65.68922,58.84253,74.64437C56.23916,70.71593,52.58443,66.91476,48.43205,63.68184z"/>
	<g class="st1">
		<path class="st24" d="M82.43602,111.65551c14.75,0,26.875,10.875,21.125,29.00001s-27.375,17-35.125,7.75
			C61.04352,139.5822,59.06102,111.65551,82.43602,111.65551z"/>
		<path class="st24" d="M50.68511,121.03033c15.16238,4.55924,21.62591,22.62519,7.50092,34.87519s-33.625,3.625-34.875-11.75
			S32.80919,115.65514,50.68511,121.03033z"/>
		<linearGradient id="SVGID_23_" gradientUnits="userSpaceOnUse" x1="53.74852" y1="126.58607" x2="53.74852" y2="91.60835">
			<stop  offset="0" style="stop-color:#E98B6B"/>
			<stop  offset="0.11945" style="stop-color:#D3976B"/>
			<stop  offset="0.26862" style="stop-color:#BCA36A"/>
			<stop  offset="0.42567" style="stop-color:#A7AA68"/>
			<stop  offset="0.59193" style="stop-color:#98AF66"/>
			<stop  offset="0.77369" style="stop-color:#8FB165"/>
			<stop  offset="1" style="stop-color:#8BB265"/>
		</linearGradient>
		<path class="st25" d="M49.81102,126.03051c0,0,2.875-21.75,11.875-31.25c-2.625-5.125-5.9375-2.5-5.9375-2.5
			s-8.1875,17.375-9.9375,33.75C45.81102,126.03051,47.68602,127.28051,49.81102,126.03051z"/>
		<linearGradient id="SVGID_24_" gradientUnits="userSpaceOnUse" x1="79.31102" y1="118.57005" x2="79.31102" y2="93.03051">
			<stop  offset="0" style="stop-color:#E98B6B"/>
			<stop  offset="0.11945" style="stop-color:#D3976B"/>
			<stop  offset="0.26862" style="stop-color:#BCA36A"/>
			<stop  offset="0.42567" style="stop-color:#A7AA68"/>
			<stop  offset="0.59193" style="stop-color:#98AF66"/>
			<stop  offset="0.77369" style="stop-color:#8FB165"/>
			<stop  offset="1" style="stop-color:#8BB265"/>
		</linearGradient>
		<path class="st26" d="M73.31102,95.90551c0,0,5.25,11.875,7.375,22.25c0,0.625,4.125,1,4.625-2.375
			c-1.875-4.5-5.875-16-7.25-22.75C73.31102,93.03051,73.31102,95.90551,73.31102,95.90551z"/>
		<path class="st24" d="M77.31102,60.81176c17.0417,9.4221,11.53125,27.46875,0,36.375s-31.125-3.28125-32.0625-16.59375
			S57.81102,50.03051,77.31102,60.81176z"/>
		<path class="st24" d="M119.31102,72.15551c19.16089,2.39511,23.4375,21.5625,14.34375,34.3125s-30,12.1875-36.1875-2.53125
			S101.31102,69.90551,119.31102,72.15551z"/>
		<linearGradient id="SVGID_25_" gradientUnits="userSpaceOnUse" x1="92.34743" y1="80.95583" x2="118.84995" y2="17.02599">
			<stop  offset="0" style="stop-color:#E98B6B"/>
			<stop  offset="0.11945" style="stop-color:#D3976B"/>
			<stop  offset="0.26862" style="stop-color:#BCA36A"/>
			<stop  offset="0.42567" style="stop-color:#A7AA68"/>
			<stop  offset="0.59193" style="stop-color:#98AF66"/>
			<stop  offset="0.77369" style="stop-color:#8FB165"/>
			<stop  offset="1" style="stop-color:#8BB265"/>
		</linearGradient>
		<path class="st27" d="M73.31102,62.12426c0,0,1.9375,5.4375,5.03125,2.90625c0.96875-5.34375,6-12.1875,18-24.28125
			s24.28125-19.59375,24.28125-19.59375s1.40625,13.3125,0.5625,31.125s-6.1875,24.375-6.1875,24.375s2.0625,4.5,5.625,0.84375
			c1.5-8.90625,2.34375-18.09375,3.09375-29.0625s0.46875-29.25,0.46875-29.25l-4.125-1.03125
			c0,0-11.34375,4.6875-24.84375,18.28125S76.34227,56.21801,73.31102,62.12426z"/>
		<path class="st24" d="M542.43604,38.40551c6.26605,3.59718,16.5,11,10.5,29.125s-29,20.75-39.5,9s-10.375-23.875-3.375-33.125
			S528.93604,30.65551,542.43604,38.40551z"/>
		<path class="st24" d="M571.43604,53.65551c13.2594,0,21.625,3.875,26.5,17.375s-5.75,33-24,33.875
			s-27.23969-18.3699-22.93237-32.99745C555.31104,57.28051,563.31104,53.65551,571.43604,53.65551z"/>
		<linearGradient id="SVGID_26_" gradientUnits="userSpaceOnUse" x1="547.32343" y1="57.67299" x2="601.32343" y2="8.54799">
			<stop  offset="0" style="stop-color:#E98B6B"/>
			<stop  offset="0.11945" style="stop-color:#D3976B"/>
			<stop  offset="0.26862" style="stop-color:#BCA36A"/>
			<stop  offset="0.42567" style="stop-color:#A7AA68"/>
			<stop  offset="0.59193" style="stop-color:#98AF66"/>
			<stop  offset="0.77369" style="stop-color:#8FB165"/>
			<stop  offset="1" style="stop-color:#8BB265"/>
		</linearGradient>
		<path class="st28" d="M536.68604,39.34301c0,0,0.5625,5.4375,5.8125,3.375c6.75-12.5625,24.5625-39.375,51-45.375
			c-6.1875,12.375-15.5625,25.875-18.375,63.5625c1.875,2.625,5.4375,0,5.4375,0s-1.3125-10.5,2.0625-27.75
			s18.9375-38.0625,18.9375-38.0625l-8.625-1.125C592.93604-6.03199,576.81104-12.21949,536.68604,39.34301z"/>
		<path class="st24" d="M494.12354,80.4717c14.68253-5.60514,23.4375-0.44119,28.21875,14.84006s-13.03125,28.40625-23.90625,25.125
			s-18.09375-13.5-15.84375-25.5S489.52979,82.2254,494.12354,80.4717z"/>
		<linearGradient id="SVGID_27_" gradientUnits="userSpaceOnUse" x1="498.77423" y1="84.43388" x2="482.27423" y2="26.68388">
			<stop  offset="0" style="stop-color:#E98B6B"/>
			<stop  offset="0.11945" style="stop-color:#D3976B"/>
			<stop  offset="0.26862" style="stop-color:#BCA36A"/>
			<stop  offset="0.42567" style="stop-color:#A7AA68"/>
			<stop  offset="0.59193" style="stop-color:#98AF66"/>
			<stop  offset="0.77369" style="stop-color:#8FB165"/>
			<stop  offset="1" style="stop-color:#8BB265"/>
		</linearGradient>
		<path class="st29" d="M485.12354,17.21801c0,0-3.375,36.75,15.5625,66c0.9375,0,0.1875,4.875-4.125,3
			c-3.59396-8.8125-9.9375-21.5625-12.9375-36.5625s-1.5-29.625-1.5-29.625L485.12354,17.21801z"/>
		<linearGradient id="SVGID_28_" gradientUnits="userSpaceOnUse" x1="494.62842" y1="91.90906" x2="512.81592" y2="83.28406">
			<stop  offset="0" style="stop-color:#E92F3F"/>
			<stop  offset="0.0451" style="stop-color:#EA4D4D"/>
			<stop  offset="0.14421" style="stop-color:#EF796B"/>
			<stop  offset="0.24807" style="stop-color:#F39A8A"/>
			<stop  offset="0.35478" style="stop-color:#F7B7A9"/>
			<stop  offset="0.46506" style="stop-color:#FAD0C4"/>
			<stop  offset="0.57999" style="stop-color:#FCE3DB"/>
			<stop  offset="0.70162" style="stop-color:#FEF1EC"/>
			<stop  offset="0.83456" style="stop-color:#FFFAF9"/>
			<stop  offset="1" style="stop-color:#FFFFFF"/>
		</linearGradient>
		<path class="st30" d="M492.24854,89.40551c5.25,2.53125,10.94855-0.75,12.88052-3.46875s4.46323-3.54777,3.52573,0.71049
			c-0.9375,4.25826-7.6875,5.75826-12,5.38326S492.24854,89.40551,492.24854,89.40551z"/>
		<linearGradient id="SVGID_29_" gradientUnits="userSpaceOnUse" x1="493.62259" y1="113.39828" x2="484.24759" y2="98.39828">
			<stop  offset="0" style="stop-color:#E92F3F"/>
			<stop  offset="0.14535" style="stop-color:#D72C39"/>
			<stop  offset="0.39222" style="stop-color:#C62A34"/>
			<stop  offset="0.66288" style="stop-color:#BC2931"/>
			<stop  offset="1" style="stop-color:#B92930"/>
		</linearGradient>
		<path class="st31" d="M501.43604,118.65551c0,0-8.71875-4.875-12.84375-13.125s-5.90625-2.71875-2.53125,3
			S494.40479,116.87426,501.43604,118.65551z"/>
		<linearGradient id="SVGID_30_" gradientUnits="userSpaceOnUse" x1="541.9856" y1="49.05908" x2="531.8606" y2="30.12158">
			<stop  offset="0" style="stop-color:#E92F3F"/>
			<stop  offset="0.0451" style="stop-color:#EA4D4D"/>
			<stop  offset="0.14421" style="stop-color:#EF796B"/>
			<stop  offset="0.24807" style="stop-color:#F39A8A"/>
			<stop  offset="0.35478" style="stop-color:#F7B7A9"/>
			<stop  offset="0.46506" style="stop-color:#FAD0C4"/>
			<stop  offset="0.57999" style="stop-color:#FCE3DB"/>
			<stop  offset="0.70162" style="stop-color:#FEF1EC"/>
			<stop  offset="0.83456" style="stop-color:#FFFAF9"/>
			<stop  offset="1" style="stop-color:#FFFFFF"/>
		</linearGradient>
		<path class="st32" d="M547.74854,46.37426c0,0-7.6875,1.875-11.71875-3.46875s-3.08105-7.5-6.0874-6.75
			s0.4624,4.3125,4.3999,9.1875S547.74854,46.37426,547.74854,46.37426z"/>
		<linearGradient id="SVGID_31_" gradientUnits="userSpaceOnUse" x1="539.86462" y1="78.65676" x2="550.11462" y2="64.15676">
			<stop  offset="0" style="stop-color:#E92F3F"/>
			<stop  offset="0.14535" style="stop-color:#D72C39"/>
			<stop  offset="0.39222" style="stop-color:#C62A34"/>
			<stop  offset="0.66288" style="stop-color:#BC2931"/>
			<stop  offset="1" style="stop-color:#B92930"/>
		</linearGradient>
		<path class="st33" d="M537.24854,80.31176c0,0,9.46875-3.9375,11.71875-11.53125s-1.96875-5.71875-4.78125,0
			S537.24854,80.31176,537.24854,80.31176z"/>
		<linearGradient id="SVGID_32_" gradientUnits="userSpaceOnUse" x1="581.52863" y1="65.81361" x2="564.93488" y2="60.18861">
			<stop  offset="0" style="stop-color:#E92F3F"/>
			<stop  offset="0.0451" style="stop-color:#EA4D4D"/>
			<stop  offset="0.14421" style="stop-color:#EF796B"/>
			<stop  offset="0.24807" style="stop-color:#F39A8A"/>
			<stop  offset="0.35478" style="stop-color:#F7B7A9"/>
			<stop  offset="0.46506" style="stop-color:#FAD0C4"/>
			<stop  offset="0.57999" style="stop-color:#FCE3DB"/>
			<stop  offset="0.70162" style="stop-color:#FEF1EC"/>
			<stop  offset="0.83456" style="stop-color:#FFFAF9"/>
			<stop  offset="1" style="stop-color:#FFFFFF"/>
		</linearGradient>
		<path class="st34" d="M586.37354,63.76381c0,0-11.90625,3.60004-15-1.69163s-8.15625-1.82508-3.84375,1.69163
			S578.49854,68.8721,586.37354,63.76381z"/>
		<linearGradient id="SVGID_33_" gradientUnits="userSpaceOnUse" x1="587.76752" y1="95.4165" x2="594.51752" y2="78.0415">
			<stop  offset="0" style="stop-color:#E92F3F"/>
			<stop  offset="0.14535" style="stop-color:#D72C39"/>
			<stop  offset="0.39222" style="stop-color:#C62A34"/>
			<stop  offset="0.66288" style="stop-color:#BC2931"/>
			<stop  offset="1" style="stop-color:#B92930"/>
		</linearGradient>
		<path class="st35" d="M584.12354,98.87426c0,0,10.5-5.25,9.28125-16.875S590.59229,87.53051,584.12354,98.87426z"/>
		<linearGradient id="SVGID_34_" gradientUnits="userSpaceOnUse" x1="116.55316" y1="81.3379" x2="127.05316" y2="76.6504">
			<stop  offset="0" style="stop-color:#E92F3F"/>
			<stop  offset="0.0451" style="stop-color:#EA4D4D"/>
			<stop  offset="0.14421" style="stop-color:#EF796B"/>
			<stop  offset="0.24807" style="stop-color:#F39A8A"/>
			<stop  offset="0.35478" style="stop-color:#F7B7A9"/>
			<stop  offset="0.46506" style="stop-color:#FAD0C4"/>
			<stop  offset="0.57999" style="stop-color:#FCE3DB"/>
			<stop  offset="0.70162" style="stop-color:#FEF1EC"/>
			<stop  offset="0.83456" style="stop-color:#FFFAF9"/>
			<stop  offset="1" style="stop-color:#FFFFFF"/>
		</linearGradient>
		<path class="st36" d="M112.06102,78.03051c0,0,5.375,4.5,9.125,3.125s4.125-4.36373,6.5-1.43186
			C130.06102,82.65551,117.18602,86.65551,112.06102,78.03051z"/>
		<linearGradient id="SVGID_35_" gradientUnits="userSpaceOnUse" x1="102.49535" y1="105.43327" x2="98.74535" y2="88.68327">
			<stop  offset="0" style="stop-color:#E92F3F"/>
			<stop  offset="0.14535" style="stop-color:#D72C39"/>
			<stop  offset="0.39222" style="stop-color:#C62A34"/>
			<stop  offset="0.66288" style="stop-color:#BC2931"/>
			<stop  offset="1" style="stop-color:#B92930"/>
		</linearGradient>
		<path class="st37" d="M106.43602,109.09721c0,0-4.375-2.5667-5-12.5667s-1.6819-10.01327-3.5-3.5
			C96.11793,99.54378,101.18602,108.03891,106.43602,109.09721z"/>
		<linearGradient id="SVGID_36_" gradientUnits="userSpaceOnUse" x1="75.20853" y1="93.1235" x2="86.08353" y2="81.2485">
			<stop  offset="0" style="stop-color:#E92F3F"/>
			<stop  offset="0.14535" style="stop-color:#D72C39"/>
			<stop  offset="0.39222" style="stop-color:#C62A34"/>
			<stop  offset="0.66288" style="stop-color:#BC2931"/>
			<stop  offset="1" style="stop-color:#B92930"/>
		</linearGradient>
		<path class="st38" d="M73.31102,93.03051c0,0,5.5-1,7.875-7.625s1.875-1.125,1.25,1.625S77.18602,93.40551,73.31102,93.03051z"/>
		<linearGradient id="SVGID_37_" gradientUnits="userSpaceOnUse" x1="73.85912" y1="66.491" x2="68.23412" y2="57.866">
			<stop  offset="0" style="stop-color:#E92F3F"/>
			<stop  offset="0.0451" style="stop-color:#EA4D4D"/>
			<stop  offset="0.14421" style="stop-color:#EF796B"/>
			<stop  offset="0.24807" style="stop-color:#F39A8A"/>
			<stop  offset="0.35478" style="stop-color:#F7B7A9"/>
			<stop  offset="0.46506" style="stop-color:#FAD0C4"/>
			<stop  offset="0.57999" style="stop-color:#FCE3DB"/>
			<stop  offset="0.70162" style="stop-color:#FEF1EC"/>
			<stop  offset="0.83456" style="stop-color:#FFFAF9"/>
			<stop  offset="1" style="stop-color:#FFFFFF"/>
		</linearGradient>
		<path class="st39" d="M80.93602,69.65551c0,0-7.5-1.625-9.375-5.375s-2.42074-6.5-4.89787-4.25
			C64.18602,62.28051,70.68602,70.15551,80.93602,69.65551z"/>
		<linearGradient id="SVGID_38_" gradientUnits="userSpaceOnUse" x1="44.52222" y1="128.27673" x2="62.14722" y2="127.15174">
			<stop  offset="0" style="stop-color:#E92F3F"/>
			<stop  offset="0.0451" style="stop-color:#EA4D4D"/>
			<stop  offset="0.14421" style="stop-color:#EF796B"/>
			<stop  offset="0.24807" style="stop-color:#F39A8A"/>
			<stop  offset="0.35478" style="stop-color:#F7B7A9"/>
			<stop  offset="0.46506" style="stop-color:#FAD0C4"/>
			<stop  offset="0.57999" style="stop-color:#FCE3DB"/>
			<stop  offset="0.70162" style="stop-color:#FEF1EC"/>
			<stop  offset="0.83456" style="stop-color:#FFFAF9"/>
			<stop  offset="1" style="stop-color:#FFFFFF"/>
		</linearGradient>
		<path class="st40" d="M41.68602,125.78051c0,0,4.125,4.00001,8.5,2.87501c4.375-1.12501,5.875-2.12501,7.125-0.625
			C58.56102,129.53052,47.43602,133.78052,41.68602,125.78051z"/>
		<linearGradient id="SVGID_39_" gradientUnits="userSpaceOnUse" x1="26.15431" y1="147.15115" x2="28.40431" y2="130.77615">
			<stop  offset="0" style="stop-color:#E92F3F"/>
			<stop  offset="0.14535" style="stop-color:#D72C39"/>
			<stop  offset="0.39222" style="stop-color:#C62A34"/>
			<stop  offset="0.66288" style="stop-color:#BC2931"/>
			<stop  offset="1" style="stop-color:#B92930"/>
		</linearGradient>
		<path class="st41" d="M27.31102,149.90552c0,0-1.75-8,2-13.875s-2.5-3.375-3.875,0S25.31102,147.90552,27.31102,149.90552z"/>
		<linearGradient id="SVGID_40_" gradientUnits="userSpaceOnUse" x1="89.53529" y1="120.46911" x2="74.91029" y2="119.15661">
			<stop  offset="0" style="stop-color:#E92F3F"/>
			<stop  offset="0.0451" style="stop-color:#EA4D4D"/>
			<stop  offset="0.14421" style="stop-color:#EF796B"/>
			<stop  offset="0.24807" style="stop-color:#F39A8A"/>
			<stop  offset="0.35478" style="stop-color:#F7B7A9"/>
			<stop  offset="0.46506" style="stop-color:#FAD0C4"/>
			<stop  offset="0.57999" style="stop-color:#FCE3DB"/>
			<stop  offset="0.70162" style="stop-color:#FEF1EC"/>
			<stop  offset="0.83456" style="stop-color:#FFFAF9"/>
			<stop  offset="1" style="stop-color:#FFFFFF"/>
		</linearGradient>
		<path class="st42" d="M91.18602,116.90551c0,0-6.625,5.92145-11.875,2.89822s-5.75-2.38237-5.125,0.8597
			S87.18602,125.65551,91.18602,116.90551z"/>
		<linearGradient id="SVGID_41_" gradientUnits="userSpaceOnUse" x1="100.31799" y1="141.21994" x2="103.81799" y2="120.46994">
			<stop  offset="0" style="stop-color:#E92F3F"/>
			<stop  offset="0.14535" style="stop-color:#D72C39"/>
			<stop  offset="0.39222" style="stop-color:#C62A34"/>
			<stop  offset="0.66288" style="stop-color:#BC2931"/>
			<stop  offset="1" style="stop-color:#B92930"/>
		</linearGradient>
		<path class="st43" d="M97.55888,144.90552c0,0,4.25214-7.05991,3.62714-12.40495c-0.625-5.34505,3.125-2.47005,2.25,2.90495
			S97.55888,144.90552,97.55888,144.90552z"/>
	</g>
	<path class="st23" d="M483.51324,13.87664l-5.32721,7.40387l3.0459-6.34283c-1.51404,0.664-3.04742,1.27118-4.59155,1.79498
		l-5.95435,6.29785l3.17169-5.44037c-4.30792,1.20239-8.57941,1.79364-12.42169,1.56537
		c14.02698-1.06085,26.49268-9.90131,34.12769-17.74469c-0.28577-0.18182-0.60126-0.32697-0.95471-0.40009
		c-33.38074-6.90326-48.73853,3.39111-59.37769,18.98981c-0.74854,1.09747-0.25293,2.60553,0.99634,3.05737
		c45.07758,16.30389,57.58203-9.22028,60.52814-18.35327C493.18616,8.23651,488.54749,11.40704,483.51324,13.87664z"/>
	<path class="st23" d="M122.93721,13.59697l4.12212,8.13662l-2.03165-6.73658c1.39357,0.88947,2.81502,1.72579,4.25993,2.48138
		l4.91226,7.14051l-2.29506-5.86429c4.07106,1.85215,8.20032,3.09484,12.03186,3.46164
		c-13.69574-3.21063-24.64953-13.86716-30.98409-22.79383c0.31038-0.1356,0.64448-0.23036,1.00497-0.24812
		c34.04592-1.67461,47.63308,10.86431,55.74029,27.91671c0.5704,1.19975-0.15176,2.61337-1.45576,2.86722
		c-47.05216,9.15963-55.47221-17.98714-56.97511-27.46514C114.24944,6.53304,118.34388,10.38079,122.93721,13.59697z"/>
</g>
</svg>
