<?xml version="1.0" encoding="utf-8"?>
<!-- Generator: Adobe Illustrator 24.0.1, SVG Export Plug-In . SVG Version: 6.00 Build 0)  -->
<svg version="1.1" id="Layer_1" xmlns="http://www.w3.org/2000/svg" xmlns:xlink="http://www.w3.org/1999/xlink" x="0px" y="0px"
	 viewBox="0 0 375.8732 749.94318" style="enable-background:new 0 0 375.8732 749.94318;" xml:space="preserve">
<g>
	<path d="M169.42081,0c11.30334,0,22.6067,0,33.91005,0c1.1068,0.31387,2.19597,0.80113,3.32297,0.91576
		c18.71254,1.90329,36.3654,7.35402,52.98991,16.07554c36.98776,19.40445,61.40723,50.38532,78.10587,87.65508
		c18.63806,41.59846,23.5921,85.14811,14.8511,130.08994c-4.39935,22.6194-10.01889,44.83055-23.60205,63.96623
		c-12.39771,17.46555-25.27206,34.59186-37.68243,51.5213c9.99323,12.30185,20.8761,24.88623,30.86118,38.14835
		c26.20776,34.80896,44.04156,73.3161,49.87277,116.90463c1.20587,9.01395,2.5452,18.0101,3.82303,27.01437
		c0,5.32623,0,10.65253,0,15.97876c-1.00464,6.86383-2.05164,13.72174-3.00647,20.59259
		c-3.92981,28.27875-10.97293,55.68933-23.13092,81.60675c-20.02692,42.69202-50.64557,74.11121-96.19691,89.11267
		c-33.26494,10.9552-67.26549,12.81396-101.82547,7.49896c-61.5568-9.46692-105.21511-42.19843-130.10822-99.59363
		C8.89952,618.19232,2.8989,587.36652,0.72072,555.66736c-2.52859-36.79852,1.39412-72.83755,14.9846-107.22238
		c14.05315-35.55539,36.48912-65.83936,62.22519-93.78043c1.41219-1.5332,2.81387-3.07611,4.27007-4.66879
		c-2.58484-3.14047-4.97908-5.7005-6.98105-8.53802c-13.49313-19.12473-29.26961-37.09781-39.80404-57.74695
		c-17.25002-33.81274-23.03814-70.80222-19.70198-108.89354c3.09902-35.38382,13.74605-68.2379,33.22596-98.05104
		c23.52488-36.00379,54.85373-61.58037,97.17859-72.17545C153.7883,2.67068,161.64838,1.51082,169.42081,0z M268.31396,533.9809
		c-1.10211-25.89398-7.80084-50.16422-23.32684-70.91684c-16.29097-21.77505-38.77066-32.98422-66.17299-29.38004
		c-21.70332,2.85458-40.07597,13.42529-51.76282,32.73093c-15.59064,25.75436-24.34168,53.34164-19.53873,83.99667
		c3.12547,19.94836,9.02328,38.82886,21.36298,55.13397c27.29228,36.06268,83.7422,38.42145,113.90421,3.8576
		C261.52966,587.91693,266.67587,561.43726,268.31396,533.9809z M252.84976,194.96111
		c-0.67583-21.54718-5.13916-38.46919-13.89214-54.38799c-20.40559-37.11108-76.57623-40.23743-99.81714-4.81752
		c-21.40943,32.62869-24.56942,76.54459,0.76945,111.96188c20.89278,29.20277,67.44383,31.91048,91.07617,4.83807
		C245.72845,235.66725,252.33394,215.36198,252.84976,194.96111z"/>
</g>
</svg>
