<?xml version="1.0" encoding="utf-8"?>
<!-- Generator: Adobe Illustrator 24.0.1, SVG Export Plug-In . SVG Version: 6.00 Build 0)  -->
<svg version="1.1" id="Layer_1" xmlns="http://www.w3.org/2000/svg" xmlns:xlink="http://www.w3.org/1999/xlink" x="0px" y="0px"
	 viewBox="0 0 376.0799 750.1485" style="enable-background:new 0 0 376.0799 750.1485;" xml:space="preserve">
<g>
	<path d="M376.0799,551.29077c-1.00079,7.3822-1.51941,14.86792-3.07645,22.13068
		c-16.53058,77.10718-57.05432,134.87012-133.14308,163.06427c-25.08452,9.29492-51.61031,12.41754-78.22903,13.29077
		c-14.74831,0.48383-29.81154,0.90118-44.25704-1.50922c-15.55971-2.59644-30.8224-7.8111-45.74986-13.17896
		c-23.56248-8.47302-45.12069-20.95624-65.22959-35.90009c-7.98159-5.93158-8.49982-13.2652-1.50867-20.33075
		c19.18616-19.39026,38.35312-38.7995,57.53745-58.19153c7.02285-7.09894,11.01606-7.34552,18.95406-1.25519
		c19.78146,15.17694,41.44125,25.64594,66.84409,26.76563c22.89671,1.00909,44.97208-3.03326,66.32396-11.09814
		c16.9424-6.39935,31.07559-16.66406,40.54436-32.35687c9.14801-15.16113,16.1369-31.40027,19.21161-48.89429
		c7.99326-45.4783-3.98541-85.71732-32.49817-121.6004c-9.94353-12.51382-21.13167-23.3923-34.75571-31.77615
		c-9.75966-6.00583-19.33401-12.31396-29.10863-18.29462c-2.67143-1.63449-3.95401-3.33197-3.94257-6.67059
		c0.12785-37.27899,0.11752-74.55862,0.01505-111.83777c-0.00867-3.15836,1.19727-4.59219,3.9173-5.96725
		c17.61713-8.90593,35.21173-17.86552,52.62442-27.16284c6.12585-3.27081,11.78748-7.44107,17.54254-11.3744
		c16.28358-11.12904,22.5504-27.41641,24.42366-46.35379c2.16495-21.88608-7.13434-38.08772-24.01706-50.5036
		c-17.44432-12.82887-37.39252-19.98084-58.61694-23.43203c-45.60736-7.41598-85.75487,7.38436-123.5854,31.08337
		c-8.29003,5.19333-8.04719,5.2814-13.86388-2.64825C36.89875,106.10704,21.24178,85.0131,5.62829,63.88722
		c-4.47478-6.05461-4.49934-6.0757,1.40642-10.30686C43.7883,27.24841,84.37652,10.03618,128.94147,2.34328
		C134.47481,1.38811,140.06665,0.7728,145.63141,0c11.30626,0,22.61255,0,33.91882,0c0.91403,0.31251,1.81,0.82315,2.74477,0.90873
		c27.4433,2.51236,53.65221,9.87097,79.5601,19.06934c84.4725,29.99124,122.03787,118.5054,108.32202,186.32297
		c-5.14713,25.44962-14.33786,48.3098-34.07809,65.98189c-12.13452,10.86325-24.14929,21.86127-36.33832,32.66248
		c-5.52872,4.89923-11.34991,9.46759-17.23386,14.34818c2.54944,2.9166,4.89441,5.28427,6.88098,7.92242
		c14.38281,19.09988,29.59601,37.65234,42.82303,57.5275c21.88205,32.88046,35.87317,69.10736,41.04657,108.50354
		c0.8804,6.70456,1.86563,13.39536,2.80246,20.09256C376.0799,525.98999,376.0799,538.64032,376.0799,551.29077z"/>
</g>
</svg>
