<?xml version="1.0" encoding="utf-8"?>
<!-- Generator: Adobe Illustrator 24.0.1, SVG Export Plug-In . SVG Version: 6.00 Build 0)  -->
<svg version="1.1" id="Layer_1" xmlns="http://www.w3.org/2000/svg" xmlns:xlink="http://www.w3.org/1999/xlink" x="0px" y="0px"
	 viewBox="0 0 371.12039 750.3642" style="enable-background:new 0 0 371.12039 750.3642;" xml:space="preserve">
<g>
	<path d="M371.12039,11.98404c0,27.62988,0,55.25976,0,82.88963c-3.43555,10.05231-10.95819,13.44713-20.92065,12.9169
		c-1.65744-0.08821-3.32361-0.01212-4.98575-0.01213c-75.12881-0.00056-150.25764-0.00201-225.38647-0.00034
		c-7.42306,0.00017-10.97947,3.28532-10.9837,10.31931c-0.02562,42.60829-0.03288,85.2166-0.00706,127.82486
		c0.00387,6.38522,3.51515,9.86343,9.83277,9.93054c4.32094,0.04593,8.64417,0.05928,12.9642-0.02443
		c26.48253-0.51315,52.85686,1.00343,78.78618,6.46162c40.2263,8.46777,73.60701,28.71552,99.72304,60.61053
		c22.15564,27.0582,41.36337,55.54749,48.67282,90.82837c9.84821,47.53494,15.50931,95.08942,7.31552,143.50974
		c-7.28711,43.06219-20.8468,83.28534-49.20551,117.5835c-15.54419,18.79968-30.63516,38.09387-53.41418,48.4436
		c-16.40535,7.45386-33.26974,14.23596-50.48557,19.49036c-38.93416,11.88281-78.21851,8.36035-117.1741-0.42035
		c-31.55584-7.11285-60.9796-20.29431-90.09033-34.03741c-2.55993-1.20862-4.54323-5.13196-5.37228-8.18182
		c-1.28159-4.71484,0.75398-9.00311,3.86846-12.84796c17.16579-21.19141,34.23891-42.45819,51.32201-63.7168
		c6.42913-8.00043,14.4948-9.25647,23.88379-4.84167c8.50524,3.99908,17.32645,7.51276,26.30824,10.25574
		c9.48914,2.89777,19.32365,4.67194,29.02349,6.86511c21.80789,4.93097,43.10837,5.2431,64.42224-3.61688
		c24.84659-10.32843,44.72009-26.18567,56.11879-50.46033c18.37122-39.12317,24.26602-79.74872,13.30923-122.68829
		c-9.88071-38.72238-31.00578-66.97833-67.67393-83.297c-21.42345-9.53421-44.25131-11.66757-67.16679-12.14441
		c-35.55537-0.7399-71.1319-0.45343-106.69926-0.63986c-3.15099-0.01648-6.32271-0.12964-9.4463-0.51276
		c-7.3956-0.90689-12.16031-5.3374-13.48431-12.59442c-0.53381-2.92584-0.79944-5.94257-0.80054-8.91806
		C3.33498,234.10483,3.38562,127.2507,3.26731,20.39674C3.25644,10.58529,6.044,3.1768,16.07473,0
		c114.35928,0,228.71854,0,343.07782,0C364.80209,2.33217,369.24615,5.87145,371.12039,11.98404z"/>
</g>
</svg>
