<?xml version="1.0" encoding="utf-8"?>
<!-- Generator: Adobe Illustrator 24.0.1, SVG Export Plug-In . SVG Version: 6.00 Build 0)  -->
<svg version="1.1" id="Layer_1" xmlns="http://www.w3.org/2000/svg" xmlns:xlink="http://www.w3.org/1999/xlink" x="0px" y="0px"
	 viewBox="0 0 183.07909 749.62836" style="enable-background:new 0 0 183.07909 749.62836;" xml:space="preserve">
<style type="text/css">
	.st0{display:none;}
	.st1{display:inline;}
</style>
<g class="st0">
	<path class="st1" d="M85.5528-0.00001c3.98933,0,7.97867,0,11.96799,0c1.75415,0.35917,3.49597,0.80137,5.2644,1.06417
		c12.45256,1.85057,25.21275,2.50855,37.3167,5.68165c66.7787,17.5063,110.01082,60.04617,130.7758,125.68812
		c2.9346,9.27692,4.80008,18.89294,7.16043,28.35199c0,143.14273,0,286.28546,0,429.42819
		c-1.68835,7.06085-3.17621,14.17682-5.09933,21.17303c-8.96368,32.60962-23.78424,62.18311-48.29251,85.78601
		c-30.84042,29.70111-67.44005,47.42975-110.65805,51.2525c-20.37621,1.80231-40.66435,1.91907-60.48977-2.03265
		c-63.83067-12.72351-109.27503-48.98352-134.63882-109.39343c-7.59589-18.09137-13.72499-36.8089-13.74142-56.7348
		c-0.11124-134.93433-0.11909-269.86884,0.07391-404.80298c0.01341-9.37611,0.97121-18.97055,3.1015-28.0858
		c9.00912-38.549,26.10402-72.81507,56.20536-99.37318C-6.7457,22.63228,26.50746,6.84965,64.95639,2.81825
		C71.84457,2.09602,78.68845,0.95022,85.5528-0.00001z M12.23616,376.50467c0,60.08188,0.12856,120.16422-0.11643,180.24509
		c-0.04504,11.0437,1.90525,21.50928,5.82122,31.62689c6.64903,17.17896,16.09311,32.48901,33.86943,39.91022
		c25.65837,10.71179,52.16832,11.47894,77.43924-0.03888c27.42383-12.49896,39.29091-37.79541,39.55458-65.68732
		c1.15326-121.98343,0.37564-243.98428,0.61044-365.97821c0.04111-21.34407-7.32129-39.52769-19.95786-56.08856
		c-6.6183-8.67361-14.82071-15.13622-25.31393-18.54003c-16.91428-5.48667-34.14554-6.66064-51.63829-3.79314
		c-10.55354,1.72997-21.35308,4.04718-29.48443,11.12261c-18.52172,16.11652-30.41055,36.44499-30.61666,61.48503
		C11.89394,252.67673,12.23629,314.59213,12.23616,376.50467z"/>
</g>
<g>
	<path d="M6.90967,323.84305c56.4195,0,112.839,0,169.2585,0c5.37309,2.58191,7.17953,6.63782,7.10338,12.71729
		c-0.33289,26.57721-0.13586,53.16092-0.14552,79.74225c-0.00241,6.67691-3.60312,10.57303-10.24422,10.57962
		c-54.22491,0.05383-108.44992,0.05429-162.67484-0.00226c-6.64369-0.0069-10.25469-3.91837-10.25676-10.57968
		c-0.00824-26.58133,0.18812-53.16501-0.14285-79.74228C-0.2683,330.48151,1.52917,326.41992,6.90967,323.84305z"/>
</g>
</svg>
