<?xml version="1.0" encoding="utf-8"?>
<!-- Generator: Adobe Illustrator 24.0.1, SVG Export Plug-In . SVG Version: 6.00 Build 0)  -->
<svg version="1.1" id="Layer_1" xmlns="http://www.w3.org/2000/svg" xmlns:xlink="http://www.w3.org/1999/xlink" x="0px" y="0px"
	 viewBox="0 0 376.01361 750.02911" style="enable-background:new 0 0 376.01361 750.02911;" xml:space="preserve">
<g>
	<path d="M376.01361,656.12634c0,27.62988,0,55.2597,0,82.88959c-4.62552,6.50287-10.20184,11.01917-18.83713,11.01318
		c-114.02649-0.07892-228.05304-0.04877-342.07956-0.05957c-9.66208-0.00079-15.05496-5.44855-15.05795-15.13049
		c-0.0091-29.45972,0.05652-58.91949-0.03867-88.37885c-0.02976-9.21167,2.20479-17.77814,6.56302-25.78107
		c32.0431-58.83936,66.11655-116.48035,102.92094-172.45743c35.97655-54.71799,72.68332-108.95508,108.57826-163.72604
		c12.09331-18.45279,23.32979-37.54597,33.75954-56.99095c8.96481-16.71382,12.63895-35.07477,13.11395-54.22308
		c0.74612-30.07875-21.72475-53.43388-42.88281-60.62572c-23.43303-7.96513-46.98306-7.72392-70.577-1.30507
		c-30.55322,8.31213-54.63972,26.58983-75.31453,49.93307c-4.83988,5.46455-7.7292,5.63564-12.73425,0.62299
		c-19.1562-19.18526-38.31136-38.37155-57.4433-57.58104c-6.9315-6.95959-7.03251-13.25179-0.50459-20.49916
		C45.34531,39.56718,95.93029,15.21934,153.55946,4.09074C162.8017,2.30601,172.20218,1.34292,181.52948,0
		c10.9709,0,21.9418,0,32.9127,0c1.10619,0.30793,2.19803,0.81335,3.32062,0.89498
		c29.84302,2.1698,56.49025,12.36366,79.74638,31.38831c17.75018,14.52048,36.62891,28.02533,47.97015,48.68436
		c7.00864,12.76677,13.63303,25.86858,18.99747,39.3898c9.75458,24.58669,12.69702,50.21317,7.38116,76.33798
		c-3.76303,18.49348-11.25665,35.74817-19.21069,52.75497c-20.46338,43.75345-45.68707,84.83325-71.5574,125.46823
		c-53.10306,83.4097-105.39961,167.28253-152.32616,254.39197c-5.57014,10.33978-2.97686,14.80176,8.73468,14.80219
		c71.30482,0.00256,142.61055,0.17792,213.91347-0.18683C362.25336,643.87048,370.46948,646.66821,376.01361,656.12634z"/>
</g>
</svg>
