<?xml version="1.0" encoding="utf-8"?>
<!-- Generator: Adobe Illustrator 24.0.1, SVG Export Plug-In . SVG Version: 6.00 Build 0)  -->
<svg version="1.1" id="Layer_1" xmlns="http://www.w3.org/2000/svg" xmlns:xlink="http://www.w3.org/1999/xlink" x="0px" y="0px"
	 viewBox="0 0 383.26071 749.77271" style="enable-background:new 0 0 383.26071 749.77271;" xml:space="preserve">
<g>
	<path d="M289.48355,0c2.66031,0,5.32068,0,7.98102,0c1.9624,1.22195,4.02225,2.31237,5.87238,3.68593
		c21.88464,16.24748,43.78659,32.47262,65.55215,48.87889c3.67413,2.76949,7.08652,6.07628,9.96915,9.65942
		c3.36392,4.18149,2.51453,6.76447-1.63089,10.06892c-22.34009,17.80804-45.17126,35.05156-66.78607,53.7056
		c-29.99814,25.88902-58.04379,53.74627-80.74695,86.61819c-35.01576,50.69936-59.98906,106.2683-80.56462,164.03572
		c-0.18637,0.52328-0.11118,1.13992-0.1828,2.01483c1.43233-0.13342,2.42412-0.1156,3.36337-0.32932
		c27.78053-6.31995,55.56502-6.19217,83.53711-0.93961c77.62065,14.5755,130.98558,69.24814,143.39149,147.35641
		c1.40308,8.8338,2.68414,17.68707,4.02182,26.53125c0,7.32385,0,14.64777,0,21.97156
		c-0.63629,4.23663-1.35345,8.46295-1.89645,12.71155c-6.31952,49.44293-28.48602,90.24316-67.15692,121.64819
		c-35.42902,28.77228-76.84361,41.4043-121.90045,42.14001c-17.93718,0.29303-35.59497-3.71588-52.87549-8.7605
		C70.99397,721.01862,4.33654,661.6601,0.41694,564.10565c-1.95148-48.57025,2.96814-96.77939,14.32313-144.0076
		c22.22215-92.4274,59.54219-178.46423,113.04413-257.12024C171.52353,98.6743,225.67361,44.47248,289.48355,0z
		 M120.65979,561.84875c-1.55862,37.77948,36.11978,73.28131,73.50613,73.39502
		c38.37984,0.11682,73.56622-34.5943,73.98251-73.11163c0.4136-38.27325-35.06956-73.82947-73.78214-73.93399
		C155.61549,488.09354,120.80728,522.87537,120.65979,561.84875z"/>
</g>
</svg>
