<?xml version="1.0" encoding="utf-8"?>
<!-- Generator: Adobe Illustrator 24.0.1, SVG Export Plug-In . SVG Version: 6.00 Build 0)  -->
<svg version="1.1" id="Layer_1" xmlns="http://www.w3.org/2000/svg" xmlns:xlink="http://www.w3.org/1999/xlink" x="0px" y="0px"
	 viewBox="0 0 370.98434 749.9762" style="enable-background:new 0 0 370.98434 749.9762;" xml:space="preserve">
<g>
	<path d="M370.98434,511.31915c0,31.62457,0,63.24908,0,94.87366c-2.98459,5.43811-7.73709,7.12988-13.69525,7.00922
		c-9.96671-0.20184-19.94043-0.06122-29.91122-0.05273c-6.99936,0.00604-7.31,0.31689-7.31052,7.37286
		c-0.00299,39.60443,0.00635,79.20874-0.005,118.81317c-0.00214,7.37482-3.24716,10.62439-10.62448,10.62836
		c-29.24762,0.01569-58.4953,0.01935-87.74292-0.00519c-6.70087-0.00568-10.09604-3.45825-10.09409-10.11102
		c0.01154-39.60419,0.03093-79.20837,0.04199-118.81256c0.00217-7.79077-0.09688-7.88641-7.76866-7.88666
		c-63.97925-0.00195-127.9585,0.00024-191.93776-0.00287c-9.13495-0.00043-11.91803-2.72137-11.92224-11.80066
		c-0.01775-38.27313-0.03596-76.54639,0.05992-114.81927c0.00599-2.39142,0.58917-4.95853,1.56921-7.14481
		C42.4472,388.35385,83.32391,297.3598,124.19878,206.36493c27.95274-62.22791,55.96423-124.42944,83.81144-186.70465
		C211.3313,12.23329,214.1662,4.67626,221.38649,0c29.91957,0,59.83916,0,89.75871,0
		c6.79599,3.1565,8.86334,9.00583,8.88962,15.91288c0.05441,14.31378,0.02991,28.62788,0.03,42.94185
		c0.00116,145.80307,0.00034,291.60611,0.00186,437.40915c0.00009,7.27625,0.27563,7.55829,7.57501,7.57095
		c9.80673,0.01706,19.61374,0.04538,29.42026-0.00116C363.09009,503.80505,368.1814,505.39487,370.98434,511.31915z
		 M211.64473,414.00281c0.01256,0,0.02513,0,0.03769,0c0-27.61093,0.0153-55.22195-0.03001-82.83279
		c-0.00349-2.13416-0.05602-4.39828-0.73947-6.37543c-1.66977-4.83044-5.85005-5.68277-9.10286-1.77335
		c-2.09705,2.52032-3.7941,5.46085-5.24265,8.42279c-24.42245,49.9386-48.79013,99.90408-73.11062,149.89255
		c-1.22018,2.508-2.25642,5.21158-2.77144,7.93896c-2.00389,10.61194,1.28638,14.52942,12.11343,14.55042
		c23.91931,0.04642,47.83876,0.02457,71.75816,0.00903c6.77187-0.00439,7.08156-0.32227,7.08385-6.99884
		C211.65021,469.22504,211.64473,441.61392,211.64473,414.00281z"/>
</g>
</svg>
