<?xml version="1.0" encoding="utf-8"?>
<!-- Generator: Adobe Illustrator 24.0.1, SVG Export Plug-In . SVG Version: 6.00 Build 0)  -->
<svg version="1.1" id="Layer_1" xmlns="http://www.w3.org/2000/svg" xmlns:xlink="http://www.w3.org/1999/xlink" x="0px" y="0px"
	 viewBox="0 0 372.99841 749.62836" style="enable-background:new 0 0 372.99841 749.62836;" xml:space="preserve">
<g>
	<path d="M180.51309,0c3.98933,0,7.97867,0,11.96799,0c1.75415,0.35917,3.49597,0.80137,5.2644,1.06417
		c12.45256,1.85057,25.21275,2.50855,37.3167,5.68165c66.7787,17.5063,110.01082,60.04616,130.7758,125.6881
		c2.9346,9.27692,4.80008,18.89294,7.16043,28.35199c0,143.14275,0,286.28546,0,429.42822
		c-1.68835,7.06085-3.17621,14.17682-5.09933,21.17303c-8.96368,32.60962-23.78424,62.18311-48.29251,85.78601
		c-30.84042,29.70111-67.44005,47.42975-110.65805,51.2525c-20.37621,1.80231-40.66435,1.91907-60.48978-2.03265
		C84.62807,733.66949,39.18371,697.40948,13.81992,636.99957c-7.59589-18.09137-13.72499-36.8089-13.74142-56.7348
		c-0.11125-134.93433-0.11909-269.86884,0.07391-404.80298c0.01341-9.37611,0.97121-18.97055,3.1015-28.0858
		c9.00913-38.54899,26.10402-72.81506,56.20536-99.37318C88.2146,22.63229,121.46775,6.84966,159.91669,2.81826
		C166.80487,2.09603,173.64874,0.95023,180.51309,0z M107.19646,376.50467c0,60.08188,0.12856,120.16422-0.11643,180.24509
		c-0.04504,11.0437,1.90525,21.50928,5.82122,31.62689c6.64903,17.17896,16.09311,32.48901,33.86943,39.91022
		c25.65837,10.71179,52.16832,11.47894,77.43924-0.03888c27.42383-12.49896,39.29091-37.79541,39.55458-65.68732
		c1.15326-121.98343,0.37564-243.98428,0.61044-365.97821c0.04111-21.34407-7.32129-39.52769-19.95786-56.08856
		c-6.6183-8.67361-14.82071-15.13621-25.31393-18.54002c-16.91428-5.48667-34.14554-6.66064-51.63829-3.79314
		c-10.55354,1.72997-21.35309,4.04718-29.48444,11.12261c-18.52171,16.11652-30.41055,36.44499-30.61665,61.48503
		C106.85423,252.67673,107.19659,314.59213,107.19646,376.50467z"/>
</g>
</svg>
