<?xml version="1.0" encoding="utf-8"?>
<!-- Generator: Adobe Illustrator 24.0.1, SVG Export Plug-In . SVG Version: 6.00 Build 0)  -->
<svg version="1.1" id="Layer_1" xmlns="http://www.w3.org/2000/svg" xmlns:xlink="http://www.w3.org/1999/xlink" x="0px" y="0px"
	 viewBox="0 0 373.60294 750.06921" style="enable-background:new 0 0 373.60294 750.06921;" xml:space="preserve">
<g>
	<path d="M373.60294,173.76862c0,139.48093,0,278.96188,0,418.44281c-0.33304,1.07764-0.83328,2.13367-0.9747,3.2359
		c-4.02698,31.38684-13.7359,60.41113-34.32544,85.16211c-17.52173,21.06305-36.82294,39.93018-62.63876,50.43579
		c-45.54439,18.53412-92.72067,23.0401-141.21716,15.62695c-48.14087-7.35864-88.75725-30.24487-125.81126-60.5885
		c-5.50758-4.51025-5.84672-10.64819-1.2454-16.14838c11.5236-13.77484,23.02846-27.56543,34.54918-41.34265
		c7.68066-9.18512,15.26035-18.45837,23.1005-27.50519c6.28292-7.24982,13.32484-7.80286,20.83598-2.09802
		c15.16191,11.51575,31.78505,20.34668,49.19493,28.01074c25.54103,11.24347,51.40691,11.52808,77.82927,4.23987
		c36.96355-10.1958,52.56573-43.46301,52.41147-70.00891c-0.36749-63.24036-0.11847-126.48425-0.11847-189.72675
		c0-1.89249-0.00003-3.785-0.00003-5.92749c-1.24503,0.27448-1.73538,0.32346-2.18231,0.48953
		c-36.47929,13.55594-74.00777,15.37-111.84749,8.36414C81.99955,361.62512,35.19446,321.3316,10.64477,255.66299
		c-13.9277-37.25555-12.69979-75.76917-4.82556-114.09135C20.29003,71.14536,77.11987,16.33244,147.67357,4.045
		C156.46278,2.5143,165.31386,1.33964,174.13626,0c11.63556,0,23.2711,0,34.90668,0
		c9.12822,1.53908,18.44403,2.36819,27.35509,4.72913C310.23361,24.2914,353.04916,73.24389,369.46231,146.7715
		C371.44119,155.63652,372.25116,164.76321,373.60294,173.76862z M192.93546,115.40617
		c-4.61723,0.40226-9.27435,0.54428-13.84561,1.24658c-52.23563,8.02505-79.1189,71.59162-47.46333,113.97764
		c19.3598,25.92226,46.82985,34.32106,77.92505,27.84602c38.30695-7.97667,61.77013-38.52539,57.01659-78.78433
		C261.51328,136.881,226.84109,114.2065,192.93546,115.40617z"/>
</g>
</svg>
