<?xml version="1.0" encoding="utf-8"?>
<!-- Generator: Adobe Illustrator 24.0.1, SVG Export Plug-In . SVG Version: 6.00 Build 0)  -->
<svg version="1.1" id="Layer_1" xmlns="http://www.w3.org/2000/svg" xmlns:xlink="http://www.w3.org/1999/xlink" x="0px" y="0px"
	 viewBox="0 0 375.0394 749.96692" style="enable-background:new 0 0 375.0394 749.96692;" xml:space="preserve">
<g>
	<path d="M375.0394,153.79521c-6.38998,9.86745-13.01447,19.59148-19.134,29.62433
		c-67.95953,111.41856-117.48174,230.4782-147.22449,357.65796c-10.32907,44.16699-18.4516,88.7616-23.2739,133.89301
		c-2.36615,22.14478-4.11018,44.35675-6.0712,66.54407c-0.67328,7.61774-1.46609,8.45154-9.03111,8.45135
		c-31.41183-0.00098-62.82366,0.00568-94.2355-0.00616c-6.84749-0.00262-8.76569-1.78418-8.07915-8.64423
		c2.23418-22.32422,4.25346-44.68481,7.19967-66.91925c4.1009-30.94855,8.59676-61.85522,13.57439-92.67456
		c12.73716-78.86273,32.61841-155.83575,60.90852-230.63071c27.64975-73.10187,59.75522-144.11536,96.9386-212.84851
		c2.78546-5.14886,4.48242-11.02628,5.85028-16.76463c1.21255-5.08674-0.63499-6.95512-5.91722-7.43887
		c-2.80643-0.25701-5.64403-0.23378-8.46758-0.23425c-72.62947-0.01228-145.25894-0.01061-217.88843-0.01405
		c-1.99421-0.00009-3.99256,0.04782-5.98195-0.05854c-10.56775-0.56494-14.1445-4.33624-14.14474-14.84423
		C0.06097,72.42707,0.17262,45.96548,0.00095,19.50572C-0.05886,10.28749,2.69452,3.22995,12.00488,0
		c117.02211,0,234.04424,0,351.06635,0c6.04987,1.93147,9.61682,6.34916,11.96817,11.98404
		C375.0394,59.25443,375.0394,106.52482,375.0394,153.79521z"/>
</g>
</svg>
