<?xml version="1.0" encoding="utf-8"?>
<!-- Generator: Adobe Illustrator 24.0.1, SVG Export Plug-In . SVG Version: 6.00 Build 0)  -->
<svg version="1.1" id="Layer_1" xmlns="http://www.w3.org/2000/svg" xmlns:xlink="http://www.w3.org/1999/xlink" x="0px" y="0px"
	 viewBox="0 0 623.62207 311.81104" style="enable-background:new 0 0 623.62207 311.81104;" xml:space="preserve">
<style type="text/css">
	.st0{clip-path:url(#SVGID_1_);fill:#FFFFFF;}
	.st1{clip-path:url(#SVGID_1_);fill:#F0F5FB;}
	.st2{clip-path:url(#SVGID_1_);fill:url(#SVGID_2_);}
	.st3{clip-path:url(#SVGID_1_);fill:url(#SVGID_3_);}
	.st4{clip-path:url(#SVGID_1_);}
	.st5{fill:url(#SVGID_4_);}
	.st6{fill:#E9B0CF;}
	.st7{fill:#E072A9;}
	.st8{fill:#ECB4B9;}
	.st9{fill:#D8E8E2;}
	.st10{fill:#E7ADCD;}
	.st11{fill:#DBE0DD;}
	.st12{fill:#D678AC;}
	.st13{fill:#E46DA6;}
	.st14{fill:#F5A4B9;}
	.st15{fill:url(#SVGID_5_);}
	.st16{fill:url(#SVGID_6_);}
	.st17{fill:url(#SVGID_7_);}
	.st18{clip-path:url(#SVGID_8_);fill:#FFFFFF;}
	.st19{fill:url(#SVGID_9_);}
	.st20{fill:#DFE2E4;}
	.st21{fill:#A8BADB;}
	.st22{fill:#91C1E3;}
	.st23{fill:#88B9E1;}
	.st24{fill:#C1DFED;}
	.st25{fill:#DAE1E7;}
	.st26{fill:#94CAD5;}
	.st27{fill:#BADDE8;}
	.st28{fill:#8ABDE1;}
	.st29{fill:url(#SVGID_10_);}
	.st30{fill:url(#SVGID_11_);}
	.st31{fill:url(#SVGID_12_);}
	.st32{clip-path:url(#SVGID_13_);fill:#FEFFFF;}
	.st33{fill:url(#SVGID_14_);}
	.st34{fill:#DEE1E6;}
	.st35{fill:#FBD97E;}
	.st36{fill:#F2DA7E;}
	.st37{fill:#FCF2B6;}
	.st38{fill:#DEE2E1;}
	.st39{fill:#F9F4B0;}
	.st40{fill:#F4E88D;}
	.st41{fill:#F7DB7A;}
	.st42{fill:url(#SVGID_15_);}
	.st43{fill:url(#SVGID_16_);}
	.st44{fill:url(#SVGID_17_);}
	.st45{clip-path:url(#SVGID_18_);fill:#FFFFFF;}
</style>
<g id="Sendai-Miyagi">
	<defs>
		<rect id="SVGID_23_" width="623.62207" height="311.81104"/>
	</defs>
	<clipPath id="SVGID_1_">
		<use xlink:href="#SVGID_23_"  style="overflow:visible;"/>
	</clipPath>
	<rect class="st0" width="623.62207" height="311.81104"/>
	<path class="st1" d="M322.18604,72.90551c-54.15845,0-98.06252,43.90405-98.06252,98.06251
		c0,54.15839,43.90407,98.0625,98.06252,98.0625s98.0625-43.90411,98.0625-98.0625
		C420.24854,116.80956,376.34448,72.90551,322.18604,72.90551z M314.31104,249.51288
		c-8.18304-0.81061-15.99536-2.87463-23.25-5.99103V98.41418c7.25464-3.11639,15.06696-5.18042,23.25-5.99103V249.51288z
		 M330.06104,92.42315c8.18304,0.81061,15.99536,2.87463,23.25,5.99103v145.10767c-7.25464,3.11639-15.06696,5.18042-23.25,5.99103
		V92.42315z M243.24852,170.96802c0-26.0412,12.6156-49.12989,32.06252-63.50758v127.01514
		C255.86412,220.0979,243.24852,197.00922,243.24852,170.96802z M369.06104,234.47559V107.46044
		c19.4469,14.37769,32.0625,37.46638,32.0625,63.50758S388.50793,220.0979,369.06104,234.47559z"/>
	<linearGradient id="SVGID_2_" gradientUnits="userSpaceOnUse" x1="128.36514" y1="96.03051" x2="128.36514" y2="311.81104">
		<stop  offset="0" style="stop-color:#BFDC92"/>
		<stop  offset="0.236" style="stop-color:#B5D892"/>
		<stop  offset="0.6337" style="stop-color:#9ACF92"/>
		<stop  offset="1" style="stop-color:#7BC691"/>
	</linearGradient>
	<path class="st2" d="M220.81102,238.65552c-3.75-1.25-11.25-3.25-17.75-9.25s-7.5-9.25-21.75-20s-16.625-11.0625-26.4375-12.125
		c-7.8125-8.5625-17.4375-17.5625-17.4375-17.5625l6.8125,3.625l1-0.8125l-4.3125-3l4.4375,2.1875l0.875-0.5625
		c0,0-11.3125-5.5625-14-8.8125c8.125,0.25,12.875-1.5,13.1875-3.625s-0.1875-13.5625-2.25-18.25s-4.6875-9.125-6.875-10.125
		s-7.375-0.8125-10.6875-1c-0.42444-0.02405-0.86499-0.02313-1.31616-0.00348c-0.09692-0.59235-0.23761-1.4574-0.38586-2.3822
		c0.9292-0.29688,1.68134-0.57269,2.13953-0.80182c2.5-1.25,3.375-5,0.75-7.25c-2.45807-2.10694-3.38171-3.33765-4.92621-7.07789
		c0.8429-0.2417,1.37537-0.61261,1.42621-1.17212c0.125-1.375-1.5-1.5-3.625-2.875c-1.21124-0.78375-1.1225-2.33759-0.89203-3.53027
		c12.15759-4.03149,22.74982-12.36975,24.76703-18.21973c-6,7-17.75,14.5-30.5,16.375s-24.625-1.625-24.625-1.625
		c4.83075,4.19336,10.77124,5.84015,16.9469,5.81946c0.46985,1.77374,0.19171,3.89734-1.3219,4.80554c-1.875,1.125-3.75,2-3.25,3
		c0.15906,0.31805,1.47089,0.20538,3.29584-0.09308c-0.4726,2.76538-0.75348,4.75623-2.29584,5.96809c-1.75,1.375-3,3.375,1.25,7
		c4.09564,3.49335,5.06006,2.80957,7.02637,2.75519c0.53003,0.83899,0.73163,1.68549,0.87561,2.49866
		c-0.62268,0.23663-0.97949,0.49377-1.08948,0.93365c-0.25,1,0.0625,2.1875-1.125,1.875s-3.875-1-3.875-1
		c0,4.3125-1.3125,4.125-7.3125,10.5s-6.1875,13.125-6.1875,13.125s-6.375-12-13.5-18.1875s-17.0625-14.4375-25.875-13.5
		c0.1875-6.5625-3.9375-7.3125-5.625-14.06251c-3.1875,5.4375-1.875,12.56251-1.875,12.56251s-1.125,0-3.375,1.125
		c-1.125-2.25-4.5-4.5-4.5-4.5s-3,1.875-0.1875,8.8125c-2.25,6.1875-0.375,12.1875-0.75,21.1875s-2.0625,11.4375-2.0625,15.375
		s0.375,4.125,5.0625,5.8125c1.5,2.0625,5.0625,1.6875,5.8125,2.4375s0.375,2.625,0.9375,6s0.9375,4.875,3.5625,3.9375
		s6.9375-4.5,6-6.5625s-5.625,0.5625-6-2.625s0-11.0625,5.0625-14.8125c-0.1875,11.25,5.25,12.375,8.625,23.0625
		c3.375,10.6875,0.5625,12-3,19.875s0.9375,7.875,0.375,11.66205c-0.5625,3.78711-8.625,9.15045-14.25,12.71295
		s-6.1875,4.125-5.25,9.1875s3.5625,7.5,6.5625,12.75s6.1875,13.3125,9,18.75s8.4375,10.125,13.6875,11.4375
		c2.0625-1.125,2.25-12,0.5625-14.4375s-3.375-2.8125-8.4375-1.5c0.75-2.0625-0.75-5.25-3.375-9s-4.875-11.625-5.4375-15.1875
		s4.3125-3.75,12.9375-6.5625c-0.375,9,21.5625,10.5,26.25,5.0625c5.8125,6.75,3.1875,7.6875,4.6875,14.25s5.25,10.125,6.75,17.8125
		s0.9375,10.125-3,13.3125c-2.41064,1.95148-3.90411,4.53119-4.70264,6.24176c-13.72363-0.81921-22.98486-0.24176-22.98486-0.24176
		s-2.25,2.25-7.5,4.5s-14.25,7.15552-14.25,7.15552h121.5c0,0-7.44446-1.00153-19.65936-2.98706
		c1.37231-9.61847,2.57001-12.78345,5.90936-23.85596c3.5625-11.8125,4.125-38.90625,4.125-38.90625s4.3125,2.8125,10.21875,9.09375
		s15.65625,13.40625,19.125,18.75s4.96875,15.09375,5.34375,18.75s2.0625,11.25,0.28125,13.22858s-2.4375,5.92694-2.4375,5.92694
		h12.84375c0,0,0.375-4.90552-3-4.90552c3-1.5,4-2.75,2.75-6.94836s-3-3.30164-3.5-11.05164s-2.5-20.25-9.5-30
		s-8.5-11.75-9.25-25.75c11,12.5,20.75,9.75,29.5,9.5S224.56102,239.90552,220.81102,238.65552z M125.06102,303.90552
		c-4.79572-0.89917-9.46869-1.5965-13.9292-2.14111c-0.14349-2.96173-1.9458-6.29639-1.9458-6.29639s3.75-0.5625,4.3125-3
		s-0.9375-10.6875-3.1875-19.3125s-4.125-21.75-4.125-21.75s6.5625,0.375,10.5-0.9375s10.3125-0.375,20.625-1.125
		c4.875,11.0625,10.3125,11.0625,11.625,16.875s-0.375,21.9375-3,31.6875c-1.26917,4.71399-2.57941,7.48792-3.59711,9.10779
		C137.06773,306.1051,131.26848,305.0694,125.06102,303.90552z"/>
	<linearGradient id="SVGID_3_" gradientUnits="userSpaceOnUse" x1="491.31104" y1="75.15551" x2="491.31104" y2="-8.00373">
		<stop  offset="0" style="stop-color:#BFDC92"/>
		<stop  offset="0.236" style="stop-color:#B5D892"/>
		<stop  offset="0.6337" style="stop-color:#9ACF92"/>
		<stop  offset="1" style="stop-color:#7BC691"/>
	</linearGradient>
	<path class="st3" d="M451.74854,13.65551c-2.25,4.6875-25.125,6.5625-49.875,4.6875c0,0,1.47534-0.92517,6.06293-1.97119
		c2.06134-4.79431,4.99957-10.40381,4.99957-10.40381s-13.10901,8.1662-18.44342,11.27094
		c-2.22198,6.95337-5.06818,12.75757-7.43158,13.66656c3.9375-8.8125,4.875-25.6875,4.875-25.6875s-4.6875,6.1875-8.8125,9
		c0.375-4.6875,6.375-15.75,6.375-15.75s-1.125,0-8.4375,0.87134c-2.4375,9.8714-11.25,16.94116-11.25,16.94116
		s-0.9375-1.125,0-7.3125c-6.375,4.6875-17.625,11.0625-17.625,11.0625s7.78125-11.0625,17.625-17.625
		c-13.3125-0.5625-19.6875-1.3125-19.6875-1.3125s47.25-16.125,48-5.4375c0.33917,4.8335-0.89636,12.11932-2.80005,18.82648
		c4.54559-4.23322,18.22607-16.62354,24.73755-18.63898c7.875-2.4375,2.625,3.49634,2.625,3.49634
		s-5.97705,9.76123-12.99475,16.65875c5.81836-1.15692,15.55731-2.34515,31.36975-2.53009
		c-6.9375-2.8125-15.375-7.6875-15.375-7.6875S446.12354,4.84301,451.74854,13.65551z M487.74854,41.96801
		c0.01953,0.00653,0.05804,0.00775,0.1076,0.00604C487.77472,41.96453,487.72491,41.96014,487.74854,41.96801z M520.28571,40.28875
		c-7.65436-9.21856-25.59967-7.88324-25.59967-7.88324c2.08344,4.26892,11.8125,4.3125,13.5,8.4375
		c-6.33429-1.99078-18.95386,1.08337-20.3299,1.13104c1.67444,0.19629,24.64301,3.8349,31.88916,1.11377
		c-5.21619,3.42963-20.63177,14.32642-25.43427,26.25519c9.98529-3.27606,20.90112-16.97449,26.67731-26.52081l9.49072,3.83331
		L520.28571,40.28875z M625.78638,60.34301l4.94861,14.8125l-8.54895-1.875c0,0-1.875-5.25-5.25-9.5625s-15-10.125-15-10.125
		l-1.20508,2.0625l-18.62549,12.375l-14.20068-0.9375l-4.42474-13.6875c0,0,1.76147-2.68103,4.72925-4.66394l-2.65845-1.73248
		c-1.90845,0.78851-3.60138,1.56464-5.04999,2.27448c0.12738,3.11627-1.57776,2.7821-3.18188,1.64929
		c-1.77185,0.97375-2.7077,1.58972-2.63293,1.53516c0.8064-0.58868,1.61163-1.1474,2.41614-1.69269
		c-1.40179-1.05658-2.65265-2.63208-2.42035-2.90106c0.51678-0.59845-2.39661-14.31378,0.63977-23.31274
		c-1.85876-0.08984-3.34302-0.2038-4.32977-0.29187c0.17755,3.40894,0.23395,7.06506-0.05579,9.93213
		c-2.46942-2.52698-3.73322-10.10693-4.23425-13.99548c-3.12793,4.55255-5.39728,9.86566-7.04956,14.99127
		c7.81335,2.09351,12.03381,6.77045,12.03381,6.77045h-14.51453l-13.98547-6.5625c4.57013-1.21887,8.64014-1.4126,12.17432-1.0199
		c1.16071-3.84741,3.92743-10.96551,9.8822-17.86114c-4.96649,1.3252-8.47626,3.19128-10.44202,4.43677
		c-2.07135,5.76624-8.06116,9.95111-14.052,14.44427c0-3,2.0625-4.5,5.0625-10.125c-4.3125,4.125-14.25,7.125-14.25,7.125
		c2.31647-4.34338,9.77423-8.80603,17.02374-10.61957c-1.66107-1.35022-3.89862-3.6394-5.89697-5.7959
		c-2.84668,1.12347-5.23297,1.43701-5.23297,1.43701h-0.00006c3.94867,1.99213,5.31976,4.25171,4.60626,5.4068
		c-1.34558,2.17834-25.09479,6.93884-44.521,4.91901c-3.69696,6.71405-7.7915,9.15265-7.7915,9.15265
		s1.84607-4.06403,3.89954-9.6626c-0.87506-0.13959-1.74158-0.28937-2.58704-0.4624c0.9303-0.40137,1.99811-0.78503,3.16876-1.15271
		c2.41052-6.80322,4.89374-15.35309,4.89374-21.72229c-2.625,8.4375-9.9375,25.875-20.4375,31.3125
		c6.75-5.25,10.3125-20.4375,13.6875-31.3125c-7.22003,4.51251-14.30811,7.25128-16.83386,8.15991
		c-0.88959,1.38416-1.81592,2.80408-2.7641,4.23016c1.43262,4.12054,3.65625,12.45856,1.78546,20.60992
		c-2.30353-2.76801-3.97467-10.30957-3.4751-18.09918c-2.39471,3.51471-4.8595,6.93781-7.15082,9.77203
		c4.25751,10.42407-2.12408,15.63965-2.12408,15.63965s-7.70886-2.31061-4.875-10.69208
		c-8.4375,5.62958-18.375,9.56708-18.375,9.56708s7.5-12.1875,19.125-15c-8.4375-0.375-15.9375-1.5-20.0625-4.6875
		c0,0,15.55731-2.62402,25.495,3.37219c1.51831-1.87091,4.72473-5.96381,8.33484-11.42841
		c0.08594-0.56732,0.18298-1.13275,0.29517-1.69379c0,0,0.1228,0.26807,0.32001,0.75336
		c2.02466-3.11438,4.14758-6.63239,6.151-10.40814c-7.93793,4.89368-16.03351-0.09521-16.03351-0.09521
		c2.25-4.125,10.96875-8.65015,21.9375-5.8125c0,0-3.31866,5.71124-7.75604,12.67889
		c16.25183-14.37921,31.94354-18.77563,31.94354-18.77563l1.6875,17.53424c0,0-2.0625-0.9375-6.75-12.32404
		c0.59418,12.20074-1.40332,20.95404-4.02924,27.0896c9.36499-2.15143,22.25195-3.56824,32.15424-4.26556
		c-8.0625-1.3125-17.0625-6.375-17.0625-6.375c2.53033-0.06598,4.86243-0.02002,7.01819,0.11023
		c1.24335-3.24066,4.19214-10.14038,7.98181-13.76575c-4.875,0.66058-12.65942,4.09302-12.65942,4.09302s0.47192-6.375,16.78442-6
		c9.59216,0.22052,14.77246,0.61255,17.41547,0.89819l0.20953-0.89819l0.62323,0.99414
		c1.20758,0.14972,1.62677,0.2522,1.62677,0.2522s-0.46747,0.18262-1.16498,0.48456l5.54266,8.8418
		c-0.71899-2.68481-1.40759-6.52332-1.00269-10.57269c0.75-7.5,19.6875,1.24634,19.6875,1.24634s-1.125,7.75751-12.9375,9.5368
		c3.375,2.57471,3.75,3.5304,3.75,3.5304s-2.13568-0.44312-8.23474-1.50464c-0.01471,0.92242-0.01526,1.50464-0.01526,1.50464
		s-0.26007-0.59729-0.60522-1.61243c-2.06903-0.35846-4.56812-0.78369-7.55145-1.28027
		c-1.1153,2.04474-2.80414,3.57928-4.61035,4.72516c3.03949,2.28894,5.07526,5.08844,6.17114,6.85742
		c0.44867-0.05096,0.89307-0.09088,1.33246-0.11938c2.41022-3.51917,7.80334-5.42377,13.38721-6.43799
		c0.74933-0.77612,1.53809-1.54559,2.37622-2.302c3.66516-3.3078,7.57574-5.18158,11.33978-6.08014l-0.01862-0.00238
		c0,0,0.11633-5.62402-1.57117-9.94061c0,0,10.125-4.87091,10.3125,0c0.12927,3.35889-0.67731,7.24951-1.19073,9.34222
		c3.74384,0.28802,6.95837,1.41071,9.11121,2.75964c1.59454-4.48035,2.39203-11.91028,2.39203-11.91028s0-1.3125,6.375,2.93384
		c-0.27319,3.09528-0.48462,5.95667-0.94598,8.61542l6.19598-4.61176c0,0,0,0-1.6875-1.65985s-8.25-9.77765,0.375-4.71515
		c0.54156,0.31787,1.17535,0.75549,1.88666,1.29523l2.23834-2.93573c0,0,7.87158,1.82751,14.34186,5.70905
		c-1.18109-3.37476-2.28613-5.70905-2.28613-5.70905l7.25677-3.33124l18.9375,1.22174c0,0-0.75,14.25-3,18.23285
		c-1.41577,2.50616-6.91302,5.78912-10.79596,7.87994l1.04333,6.17035c6.2254,6.63544,10.87762,11.77936,10.87762,11.77936
		s0.9375,0.80438-2.625,4.6875c-0.4621-1.06488-1.23553-2.34229-2.22284-3.75812l-10.15216-5.20038c0,0.92035,0,1.80225,0,2.5835
		c0,2.88171-1.77002,3.63483-3.13495,3.78949c-0.02014,0.14691-0.05042,0.30072-0.07971,0.45367
		c9.61761,2.13165,15.58966,5.50684,15.58966,5.50684s0,0,0,3.1875c-5.50452-2.97467-10.99731-4.9671-16.36127-6.21497
		c-0.2442,0.59106-0.53302,1.21802-0.88873,1.90247c-0.32538-0.78839-0.66272-1.55804-1.00793-2.31439
		c-2.07104-0.41699-4.12-0.72601-6.1405-0.93762c-0.64856,2.08636-2.60156,8.40765-2.60156,8.87701
		c0,0.5625,13.6875,8.4375,20.4375,16.3125c-2.18604-6.5625-15.13177-19.5-15.13177-19.5l9.31927,6.5625c0,0,0-3.1875-2.0625-7.3125
		c2.33002,2.66327,5.0625,8.4375,5.0625,8.4375L625.78638,60.34301z M539.00629,8.61492
		c1.15216-0.14838,2.12891-0.33911,2.74225-0.58441c2.8125-1.125,5.625-6.34735,5.625-6.34735s-5.4375,0.41132-7.6875-1.68317
		C539.27539,2.50042,539.09039,5.97613,539.00629,8.61492z M530.48163,8.68102c0.35199,0.18042,0.57941,0.28699,0.57941,0.28699
		c-0.02209,0.04669-0.04773,0.09027-0.07043,0.13647c1.71857-0.03619,4.06128-0.11755,6.18091-0.29803
		c-1.30914-1.28528-3.008-2.75079-3.86047-2.64667C532.51422,6.25714,531.37604,7.51867,530.48163,8.68102z M520.28564,13.34332
		c-0.46881-0.52661-0.88812-1.00287-1.23785-1.40308c-3.82092-0.92792-7.94714-2.89819-10.27905-4.11194
		c-2.50409,2.59265-3.75745,5.22998-4.17078,6.21454c4.7066,0.52112,8.38287,1.48206,11.13159,2.60303
		C516.72144,15.87164,518.37714,14.6209,520.28564,13.34332z M523.18604,1.68316
		c-6.32837,0.17651-10.71088,2.65143-13.63806,5.37585C513.15906,7.19708,519.5589,6.6527,523.18604,1.68316z M528.81012,7.74114
		l1.66895-7.15369c-2.23779,1.08038-4.96692,2.65546-4.85553,3.88055C525.72662,5.60229,527.36005,6.84783,528.81012,7.74114z
		 M584.26715,36.25115c-0.633,1.07233-1.18036,2.33197-1.59186,3.40247c1.11249-0.23889,2.21368-0.44659,3.3031-0.62457
		C585.4342,38.10863,584.86157,37.17754,584.26715,36.25115z M591.83984,38.33013c1.00403-0.07544,1.99463-0.12805,2.97119-0.15894
		v-7.26568c0,0,2.01215,3.05383,4.95514,7.2854c0.30695,0.01221,0.61115,0.02722,0.91449,0.04327
		c0.17871-4.42108-0.09143-8.43036-1.39734-12.59741c-2.37982-2.74402-4.76105-5.05103-6.96857-6.95209
		c-2.06366,0.06158-4.03595,0.37543-5.8985,0.86743C587.32556,21.64117,589.58484,27.48242,591.83984,38.33013z M610.93604,25.46801
		c-4.90607-3.86053-9.64728-5.81091-14.07025-6.49933c6.48615,5.09607,11.71466,11.22656,13.13275,13.36853
		c0.33429,0.50488,0.64819,0.97803,0.9375,1.43683C610.93604,31.73083,610.93604,29.02801,610.93604,25.46801z M619.91785,30.90551
		c-1.35187-1.54132-2.79694-3.12903-4.29431-4.72968c0,1.39514,0,3.06165,0,4.72968H619.91785z M610.64606,8.29705
		c-2.41675,0.3468-4.63403,0.78699-6.22363,1.34039c2.25922,2.24811,4.59131,4.62354,6.89636,7.00769
		C611.55939,14.01611,611.23248,11.10516,610.64606,8.29705z M617.3905,20.0252c-0.77435,0.40295-1.43207,0.73364-1.90363,0.96661
		c0.80603,0.84741,1.59509,1.68091,2.37012,2.5022L617.3905,20.0252z M595.70374,1.34258
		c1.62433,1.44196,3.43451,3.13843,5.34479,4.98419c1.70111-0.37909,3.4151-0.73834,5.11237-1.07635
		C602.38031,3.50585,598.58966,2.21038,595.70374,1.34258z M584.91302,9.60211c-0.18225,0.80768-0.396,1.59625-0.6507,2.36578
		c3.45795,0.97534,6.98187,2.92358,10.27777,5.26099c5.98566,0.07635,11.48859,1.58722,15.37109,3.00946
		c-8.37329-8.49237-16.41266-15.85822-16.41266-15.85822L584.91302,9.60211z M584.02759,12.64416
		c-0.24811,0.67291-0.53381,1.33044-0.85785,1.97504l5.08765,0.83917C586.56824,14.22473,585.11945,13.29626,584.02759,12.64416z
		 M563.52954,8.48504c-4.36127,0.75854-8.03833,2.68103-11.15228,5.32806c4.44788-0.43024,8.40393-0.42297,10.30267-0.38245
		c0.08759-0.39233,0.17365-0.78918,0.2561-1.1936C563.20068,10.93878,563.39063,9.67047,563.52954,8.48504z M576.92731,9.53344
		c-4.19214-1.21674-7.96277-1.59906-11.34979-1.3053c0.28937,1.2868,0.56628,2.65295,0.78693,3.99609
		c2.08496-0.01819,6.07086-0.04706,8.47107-0.02771c0.73029-0.64063,1.28101-1.22906,1.60052-1.73602
		C576.60651,10.19,576.76971,9.87579,576.92731,9.53344z M556.37323,22.09979c0.00012-0.00018,0.00018-0.00037,0.00031-0.00055
		l0.00043,0.00031c1.48798-0.53986,2.96765-1.1322,4.41302-1.75891c0.41394-1.27631,0.96454-3.09332,1.49072-5.20544
		c-4.35968-0.35919-8.25299-0.18298-11.6709,0.30286c-0.10138,0.10217-0.19647,0.21155-0.29645,0.31525
		c0.18829,1.77917,0.47443,4.77301,0.65656,8.04602C552.74548,23.33367,554.56384,22.75622,556.37323,22.09979z M559.13324,24.68731
		c-0.12891,1.45148-0.4375,5.60632-0.28558,10.60278c3.1593,1.08691,8.60767,3.51599,11.90308,8.08716
		c3.79266-1.56903,7.51367-2.72943,11.1228-3.55035v-7.07849c-1.57806-2.15863-3.26459-4.1651-5.00928-5.78039
		c4.25928,1.35364,5.00928,1.875,5.00928,1.875V21.1596c-8.04022,3.57733-13.125,9.74591-13.125,9.74591
		c3.83789-5.73529,8.39044-9.25995,13.125-11.29395v-0.00208l0.00995-0.00232c2.9295-1.2572,5.92798-1.94434,8.87109-2.22595
		c-0.16205-0.13104-0.32324-0.26129-0.48254-0.3877l-7.90283-0.95062c-1.86096,2.9801-4.77612,5.65594-9.49567,8.09058
		C567.83331,24.65905,563.04242,24.7564,559.13324,24.68731z M564.49677,46.32214l-4.37323-2.85004l3.75-0.61414
		c0,0-2.508-2.28699-4.84784-4.10364c0.19293,2.60455,0.53302,5.31256,1.09784,7.90118
		c0.16504,0.75629,0.26752,1.4007,0.32709,1.96576C561.8045,47.79742,563.15363,47.03252,564.49677,46.32214z M579.81104,65.03051
		l-7.0014-7.39203c-0.92889,3.61896-1.87823,6.26703-1.87823,6.26703L579.81104,65.03051z M581.87354,53.59301
		c0,0,5.4375,2.0625,10.3125,4.3125c-3.75-5.625-3.9375-7.6875-13.875-9c5.18396-1.82397,9.37561-1.77747,12.24121-1.30035
		c-0.8418-1.74554-1.97717-3.99158-3.33441-6.41852c-5.77283,0.73187-11.04388,2.06445-15.5863,3.56549
		c0.3783,0.66443,0.71185,1.36658,0.98785,2.11157c0.62512-0.12408,1.26862-0.20819,1.94165-0.20819
		c-0.07703,3.15826-0.7049,6.62494-1.4162,9.62305c2.65985,0.66595,7.49994,1.62695,13.33466,1.62695
		C583.77289,54.53051,581.87354,53.59301,581.87354,53.59301z M594.81104,48.90551v-8.2912
		c-0.83832,0.01953-1.66846,0.05438-2.49121,0.10193c0.45685,2.35089,0.90942,4.90887,1.34656,7.69208
		C594.41516,48.68475,594.81104,48.90551,594.81104,48.90551z"/>
	<g class="st4">
		
			<radialGradient id="SVGID_4_" cx="600.72913" cy="83.35323" r="27.70219" fx="584.05164" fy="61.23372" gradientUnits="userSpaceOnUse">
			<stop  offset="0" style="stop-color:#F4DCE8"/>
			<stop  offset="0.2834" style="stop-color:#F3D8E6"/>
			<stop  offset="0.58683" style="stop-color:#F0CEDF"/>
			<stop  offset="0.89863" style="stop-color:#ECBCD4"/>
			<stop  offset="1" style="stop-color:#EAB5CF"/>
		</radialGradient>
		<path class="st5" d="M628.96643,81.53821c0.95984,14.93266-10.90436,27.85057-26.49939,28.85297
			c-15.59503,1.00241-29.01544-10.29028-29.97528-25.22293s10.90436-27.85057,26.49945-28.85297
			C614.58624,55.31287,628.00665,66.60556,628.96643,81.53821z"/>
		<path class="st6" d="M626.03479,184.03108c0,0,5.05762,19.22264,6.50427,61.21632s6.76599,79.14197,11.93085,98.6954
			c-8.08331,0.51959-8.08331,0.51959-8.08331,0.51959s-9.98816-57.34494-10.24329-88.59569
			c-0.25507-31.25075-4.65649-63.7773-7.74011-77.10695C621.67419,178.5495,626.03479,184.03108,626.03479,184.03108z"/>
		<polyline class="st7" points="594.43304,172.74127 597.51074,262.21323 599.71564,290.65552 605.56104,292.40552 
			609.73071,174.14615 		"/>
		<path class="st8" d="M590.04144,343.60913c0,0,5.3017-21.9682,3.4939-73.76932
			c-1.68726-48.34593-1.02142-77.14069-6.59869-93.81728c9.79639-3.88638,10.5741-1.87639,10.5741-1.87639
			s2.2049,18.25937,3.55029,41.25937c1.28772,22.01503,0.90295,69.62759,0.37531,88.70071s-1.388,43.24792-1.388,43.24792
			L590.04144,343.60913z"/>
		<path class="st9" d="M619.0722,342.03217c-1.27228-13.94711-2.1507-50.22504,0.88074-73.21683s2.99524-66.54871,2.14532-79.77142
			c-0.84991-13.2227-7.58606-12.78973-7.58606-12.78973s0.60046,13.23875-1.66125,48.20584
			c-2.26166,34.96707-2.38739,66.2453-3.1073,95.60193c-0.22919,9.34521,2.65851,21.14639,2.65851,21.14639L619.0722,342.03217"/>
		<path class="st10" d="M611.54437,345.32272l-9.72632-0.43164c0,0-2.88177-22.59879,0.11139-56.48557
			c2.99323-33.8868,3.50482-77.99869,2.93292-92.74237s-4.32318-21.517-4.32318-21.517l15.07202,2.06531
			c0,0,0.55164,50.94406-2.80017,82.93091C610.25323,283.55145,602.90594,325.29718,611.54437,345.32272z"/>
		<path class="st11" d="M572.95734,226.29202c-6.51593,25.52167-38.90594,92.05261-71.21683,97.90585
			c-0.44901-6.9856-0.44901-6.9856-0.44901-6.9856s37.44678,4.59784,72.51965-122.47705
			C571.62714,207.52666,572.95734,226.29202,572.95734,226.29202z"/>
		<path class="st12" d="M589.31104,173.53139c-7.07635,26.258-3.80432,85.92522-6,114.12413
			c-2.19574,28.19891-2.70428,55.2438-2.70428,55.2438l-7.48456,0.48108c0,0,4.12988-57.70657,3.30316-73.79404
			s-4.83771-51.74313-1.95404-71.21822s5.95953-26.1862,5.95953-26.1862L589.31104,173.53139z"/>
		<path class="st13" d="M568.98669,184.44124c0,0-4.11346,10.41078-4.27936,31.21428s-12.40015,60.38583-12.40015,60.38583
			c-4.7948,26.35635-16.67548,50.36121-30.37811,59.91379c2.138,6.74551,2.138,6.74551,2.138,6.74551
			s29.6651-15.39667,38.8291-79.0827c0,0,2.01263-22.4361,5.35138-39.99254c3.33875-17.55638,4.01123-41.89961,4.01123-41.89961
			L568.98669,184.44124z"/>
		<path class="st14" d="M573.12219,343.3804c0,0,4.26379-36.13547,3.88959-64.67023s-2.2019-57.56685-0.89374-76.1891
			s4.52124-27.09583,4.52124-27.09583l-9.87622,3.64101c0,0,0.6402,66.8903,0.8421,96.22672
			c0.20142,29.26639-3.79822,63.34402-6.89783,69.68515C570.94446,344.57721,573.12219,343.3804,573.12219,343.3804z"/>
		
			<linearGradient id="SVGID_5_" gradientUnits="userSpaceOnUse" x1="622.48035" y1="118.05052" x2="569.73035" y2="118.05052" gradientTransform="matrix(0.99794 -0.06414 0.06414 0.99794 -2.71929 36.25761)">
			<stop  offset="0" style="stop-color:#D2D1D3"/>
			<stop  offset="0.34456" style="stop-color:#DBDADC"/>
			<stop  offset="0.75628" style="stop-color:#ECECEE"/>
			<stop  offset="1" style="stop-color:#D9DBD9"/>
		</linearGradient>
		<path class="st15" d="M573.93927,125.75273l0.73608-15.82982c0,0,6.60077-6.43666,22.06885-7.43091
			c15.46808-0.99424,24.43164,5.94508,29.13885,9.02448c0.60138,9.3557,1.03436,16.0918,1.03436,16.0918
			s-6.97479-11.07542-32.67181-9.42368C579.02704,119.1628,573.93927,125.75273,573.93927,125.75273z"/>
		
			<linearGradient id="SVGID_6_" gradientUnits="userSpaceOnUse" x1="617.98035" y1="175.30052" x2="561.02344" y2="175.30052" gradientTransform="matrix(0.99794 -0.06414 0.06414 0.99794 -2.71929 36.25761)">
			<stop  offset="0" style="stop-color:#D2D1D3"/>
			<stop  offset="0.34456" style="stop-color:#DBDADC"/>
			<stop  offset="0.75628" style="stop-color:#ECECEE"/>
			<stop  offset="1" style="stop-color:#D9DBD9"/>
		</linearGradient>
		<path class="st16" d="M568.98669,184.44127l0.73615-15.82982c0,0,6.60071-6.43665,22.06879-7.43089
			s28.49359,3.5546,33.20081,6.63399c0.60138,9.3557,1.04236,16.21654,1.04236,16.21654s-11.04474-8.80968-36.7417-7.15794
			C574.07446,177.85135,568.98669,184.44127,568.98669,184.44127z"/>
		
			<radialGradient id="SVGID_7_" cx="593.69031" cy="147.3517" r="26.70518" fx="577.85327" fy="140.48958" gradientTransform="matrix(0.99794 -0.06414 0.06414 0.99794 -2.71929 36.25761)" gradientUnits="userSpaceOnUse">
			<stop  offset="0" style="stop-color:#F4DCE8"/>
			<stop  offset="0.18012" style="stop-color:#F1D3E2"/>
			<stop  offset="0.69478" style="stop-color:#ECBDD4"/>
			<stop  offset="1" style="stop-color:#EAB5CF"/>
		</radialGradient>
		<path class="st17" d="M569.86786,164.71913c0,0-1.60669-14.05182,2.80304-35.31502
			c7.89624-5.76839,35.75159-11.96256,55.48303,3.67897c3.67041,14.23137,0.23669,32.51526,0.23669,32.51526
			S599.2475,151.1817,569.86786,164.71913z"/>
		<g>
			<defs>
				<path id="SVGID_31_" d="M569.86786,164.71913c0,0-1.60669-14.05182,2.80304-35.31502
					c7.89624-5.76839,35.75159-11.96256,55.48303,3.67897c3.67041,14.23137,0.23669,32.51526,0.23669,32.51526
					S599.2475,151.1817,569.86786,164.71913z"/>
			</defs>
			<clipPath id="SVGID_8_">
				<use xlink:href="#SVGID_31_"  style="overflow:visible;"/>
			</clipPath>
			<path class="st18" d="M631.18896,145.01831c-28.9209-19.83253-51.27637-8.03076-61.3457-0.07959
				c24.28125-26.33497,59.09082-3.00977,59.43848-2.77197c17.13574,11.79492,17.50684,11.27783,18.1875,10.35254
				c0.74609-1.01514,0.99707-1.35693-15.41602-14.21338c-35.47754-27.79053-63.49805-0.19775-63.77734,0.08398l1.42188,1.40674
				c0.06641-0.06738,6.8252-6.79248,17.69434-10.1084c14.52441-4.43409,29.13672-1.00195,43.42871,10.19189
				c3.15527,2.47217,5.64941,4.45508,7.62012,6.04541c-2.52539-1.66162-5.34082-3.55859-8.02637-5.40723
				c-0.36426-0.25-36.69727-24.63233-62.16504,3.19922c-13.39941,14.64209-13.30078,14.73682-12.36426,15.63428
				c0.84277,0.80566,0.99609,0.94727,9.59375-7.62305c0.06543-0.0791,6.66016-7.96582,17.87402-12.49072
				c14.98535-6.04639,30.69922-3.54541,46.70508,7.42969c7.31934,5.01904,11.61328,8.12256,14.125,10.0415
				c-3.08887-1.53223-7.37402-3.84082-11.33789-6.08789c-1.5293-1.06201-38.75879-26.36475-64.56738-0.4209
				c-13.12793,13.19629-12.8418,13.50098-11.99512,14.40625c0.74414,0.79883,1.12402,1.19531,11.66406-7.98486
				c0.13379-0.13037,13.5918-12.98682,32.38867-11.2334c16.63672,1.55664,27.71954,8.0249,29.51349,9.23584v1.12744
				c-4.3418-2.20654-20.30939-9.56592-35.4881-8.46875c-18.33203,1.32568-27.64551,11.1499-28.0332,11.56689l-0.2666,0.28809
				l0.00195,5.54199l1.69043-1.61523c0.09961-0.09473,10.22754-9.48877,32.64844-8.90967
				c18.96289,0.49854,28.10059,6.5835,30.52441,8.50342l-1.33398,1.66211c-5.08008-2.66699-34.58105-16.76465-60.56152,0.44336
				c-9.59375,6.35449-14.90137,10.07031-17.78906,12.33203l-1.23438-30.16895l-1.99805,0.08203l1.29688,31.7041
				c-1.63965,1.5127-1.41699,1.9209-1.16406,2.38574c0.24316,0.44629,0.63965,0.59277,1.0625,0.59277
				c0.58105,0,1.21387-0.27637,1.56934-0.43262l0.62695-0.27344l-0.05859-1.41992
				c2.04297-1.67285,6.96582-5.30176,18.79199-13.13379c27.34961-18.11328,58.89648-0.15332,59.21191,0.03027l0.74414,0.43262
				l3.55957-4.43457l-0.62891-0.63379c-0.36621-0.36914-9.24023-9.05713-32.56641-9.67041
				c-18.29102-0.48926-28.59375,5.35693-32.39355,8.1001v-0.31152c1.62402-1.56738,10.59668-9.52051,26.44434-10.6665
				c17.61035-1.28125,32.84082,7.40527,32.99219,7.49268l4.35138,2.38477v-5.53125l-3.23029-1.81543
				c-0.33887-0.26807-8.51953-6.58008-28.09766-8.41162c-19.73535-1.84277-33.39844,11.23486-33.92871,11.75439
				c-0.79785,0.69434-1.62012,1.40088-2.43262,2.09082c1.47363-1.52246,3.29199-3.37598,5.53613-5.63184
				c25.02051-25.14942,61.66797,0.41113,62.03516,0.67236l0.08691,0.05469c16.50195,9.35986,17.02734,8.51611,17.58594,7.62256
				C650.07275,158.88989,650.47607,158.24341,631.18896,145.01831z"/>
		</g>
	</g>
	<g class="st4">
		
			<radialGradient id="SVGID_9_" cx="541.01538" cy="65.31176" r="27.7012" fx="522.44818" fy="44.75417" gradientUnits="userSpaceOnUse">
			<stop  offset="0" style="stop-color:#D5E9F3"/>
			<stop  offset="0.23568" style="stop-color:#CDE7F1"/>
			<stop  offset="0.59636" style="stop-color:#B7E0ED"/>
			<stop  offset="1" style="stop-color:#95D6E7"/>
		</radialGradient>
		<ellipse class="st19" cx="541.01538" cy="65.31176" rx="28.29561" ry="27.09375"/>
		<g>
			<path class="st20" d="M537.93604,314.90552c-0.375-14,2.125-41,6.625-63.75s11-65.75,11-79s-6.75-13.25-6.75-13.25
				s-0.25,13.25-4.75,48s-10.12695,67-12.72845,96.25c-0.82819,9.31125,0,11.75,0,11.75l6.60345,1.25"/>
			<path class="st21" d="M531.33258,314.90552c0,0,1.22131-32.1712,7.34985-67.83562
				c6.1286-35.66438,9.38055-75.91438,10.00458-85.41438c-2.12598-2.75-2.12598-2.75-2.12598-2.75
				s-12.43604,78.61243-12.62695,96.8125C533.7431,273.91809,526.85413,298.65552,531.33258,314.90552z"/>
			<path class="st22" d="M511.56104,313.52631c0,0,0-8.37079,7.75-59.62079s6.49213-80,1.99603-97
				c10.02551-3.25,16.62897-1,16.62897-1s4.36877,19.13441,0,40.75c-4.36884,21.61559-8.625,70-10.375,89
				s-6.25397,32.25-6.25397,32.25L511.56104,313.52631z"/>
			<path class="st23" d="M559.81104,167.40552c0,0,2.5,19.25,1.25,61.25s-3.54999,63.311,0.34998,83.15552
				c-8.09998,0-8.09998,0-8.09998,0s-1.75-41,0-72.20277s1.44446-64.45274-0.77777-77.95274
				C555.81104,161.65552,559.81104,167.40552,559.81104,167.40552z"/>
			<path class="st24" d="M530.98969,313.52631l-9.67865-1.05466c0,0-0.32135-9.81613,4.83929-43.44113
				c5.16071-33.625,11.41071-76.625,11.78571-91.375s-2.93408-21.75-2.93408-21.75l11.55908,3
				c0,0-8.80328,57.56462-10.51819,82.04735S527.66827,306.89706,530.98969,313.52631z"/>
			<path class="st25" d="M488.81104,227.15552c-8,22.75-28.5,59.5-61.75,71.5c0-7,0-7,0-7s35.75-9.25,68.5-84.875
				C492.56104,219.40552,488.81104,227.15552,488.81104,227.15552z"/>
			<path class="st26" d="M502.8541,164.15552c0,0-3.29306,3-4.79306,23.75s-22.5,64-22.5,64l11.5-10.5
				c0,0,8.08398-20.88785,12.54199-38.19392s6.69058-41.55608,6.69058-41.55608L502.8541,164.15552z"/>
			<path class="st27" d="M521.30707,156.90552c-8.74603,25.75-9.24603,80.75-13.24603,108.75s-7,46.81613-7,46.81613h-7.5
				c0,0,9.08615-46.85141,9.29306-62.95877c0.20694-16.10736,0.45297-51.85736,4.57996-71.10736s7.62698-25.75,7.62698-25.75
				L521.30707,156.90552z"/>
			<path class="st28" d="M493.56104,312.47165c0,0,7.83615-25.31613,9.29306-53.81613c1.45694-28.5,3.45694-57.5,5.95694-76
				s6.25-26.75,6.25-26.75l-10.08945,3c0,0-9.41055,66.5-8.41055,95.75s-8,52.74155-11.5,58.87079
				C491.31104,313.52631,493.56104,312.47165,493.56104,312.47165z"/>
		</g>
		<linearGradient id="SVGID_10_" gradientUnits="userSpaceOnUse" x1="564.31104" y1="97.65551" x2="511.56104" y2="97.65551">
			<stop  offset="0" style="stop-color:#D2D1D3"/>
			<stop  offset="0.34456" style="stop-color:#DBDADC"/>
			<stop  offset="0.75628" style="stop-color:#ECECEE"/>
			<stop  offset="1" style="stop-color:#D9DBD9"/>
		</linearGradient>
		<path class="st29" d="M511.56104,105.90551l1.75-15.75c0,0,7-6,22.5-6s24,7.5,28.5,10.875c0,9.375,0,16.125,0,16.125
			s-6.25-11.5-32-11.5C517.06104,99.65551,511.56104,105.90551,511.56104,105.90551z"/>
		<linearGradient id="SVGID_11_" gradientUnits="userSpaceOnUse" x1="559.81104" y1="154.90552" x2="502.8541" y2="154.90552">
			<stop  offset="0" style="stop-color:#D2D1D3"/>
			<stop  offset="0.34456" style="stop-color:#DBDADC"/>
			<stop  offset="0.75628" style="stop-color:#ECECEE"/>
			<stop  offset="1" style="stop-color:#D9DBD9"/>
		</linearGradient>
		<path class="st30" d="M502.8541,164.15552l1.75-15.75c0,0,7-6,22.50003-6c15.5,0,28.20691,5.375,32.70691,8.75
			c0,9.375,0,16.25,0,16.25s-10.45691-9.5-36.20691-9.5C508.3541,157.90552,502.8541,164.15552,502.8541,164.15552z"/>
		
			<radialGradient id="SVGID_12_" cx="535.00195" cy="125.75677" r="26.15136" fx="520.06091" fy="120.74674" gradientUnits="userSpaceOnUse">
			<stop  offset="0" style="stop-color:#D5E9F3"/>
			<stop  offset="0.32263" style="stop-color:#BCE1EE"/>
			<stop  offset="0.74778" style="stop-color:#A0D9E9"/>
			<stop  offset="1" style="stop-color:#95D6E7"/>
		</radialGradient>
		<path class="st31" d="M504.99854,144.53052c0,0-0.70206-14.12595,5.0625-35.06251c8.25-5.25,35.5625-10.875,54.25,6
			c2.75,14.43751-3.25,31.87501-3.25,31.87501S535.18604,132.90552,504.99854,144.53052z"/>
		<g>
			<defs>
				<path id="SVGID_37_" d="M504.99854,144.53052c0,0-0.70206-14.12595,5.0625-35.06251c8.25-5.25,35.5625-10.875,54.25,6
					c2.75,14.43751-3.25,31.87501-3.25,31.87501S535.18604,132.90552,504.99854,144.53052z"/>
			</defs>
			<clipPath id="SVGID_13_">
				<use xlink:href="#SVGID_37_"  style="overflow:visible;"/>
			</clipPath>
			<path class="st32" d="M512.71979,106.65551c-4.34625,7.5-6.42618,15.1875-6.42618,15.1875v3.75
				c0,0,6.03018-15.49301,10.70493-21.09375h0.9375c0,0-11.71875,23.34375-13.03125,30.46876
				c-1.3125,7.125,0.65625,10.21875,0.65625,10.21875l4.6875-1.3125c0,0-0.28125-12.09375,5.90625-25.59376
				s7.21875-17.34375,7.21875-17.34375l1.96875,1.125c0,0-3.46875,8.53125-7.96875,19.5s-5.34375,21.46876-5.34375,21.46876
				l3.9375-0.625l0.9375-0.40625c0,0,1.78125-11.34375,5.25-21.46876s9.1778-19.59375,9.1778-19.59375l0.9472,0.9375
				c0,0-0.65625,4.875-4.21875,11.25s-8.71875,22.12501-8.25,28.31251c4.21875-0.46875,4.21875-0.46875,4.21875-0.46875
				s1.3125-11.0625,5.625-21.28126s8.28125-18.75,8.28125-18.75l1.1875,0.46875c0,0-0.9375,4.03125-4.96875,13.96875
				s-7.125,19.03126-7.125,25.50001c4.78125,0.5625,5.4375,0.46875,5.4375,0.46875s-0.28125-5.15625,3.1875-16.68751
				s9-22.125,9-22.125l1.6875,0.65625c0,0-4.03125,8.90625-7.6875,17.625s-3.84375,20.43751-3.84375,20.43751l2.71875,0.1875
				c0,0,0.5625-5.625,4.40625-16.87501s9.375-20.625,9.375-20.625l1.6875,1.21875c0,0-2.90625,4.21875-7.125,15
				s-6.1875,21.65626-6.1875,21.65626l3.65625,0.59375c0,0,0.65625-7.8125,5.53125-19.34376s8.4375-16.21875,8.4375-16.21875
				l1.3125,1.5c0,0-3.28125,3.46875-7.6875,16.125s-4.875,18.46876-4.875,18.46876l4.40625,0.46875
				c0,0,0.09375-8.53125,4.5-20.81251s6.9375-12.5625,6.9375-12.5625v2.53125c0,0-3.75,5.71875-6.5625,14.625
				s-3.375,16.87501-3.375,16.87501l2.25,1.875c0,0,0.75-7.96875,4.96875-19.03126s7.96875-13.6875,7.96875-13.6875v2.625
				c0,0-7.125,9-10.6875,30.65626c2.15625,0.65625,3.34375,1.59375,3.34375,1.59375s0.5-14.0625,5.84375-21.93751
				c4.875-3.75,0.5625,5.34376,0.5625,5.34376s-3.79999,1.21875-4.80627,17.53125c-4.4389,1.5-62.59998-0.75-62.59998-0.75
				l-5.25-31.00001l18.47253-15.62804L512.71979,106.65551z"/>
		</g>
	</g>
	<g class="st4">
		
			<radialGradient id="SVGID_14_" cx="476.10095" cy="53.90027" r="27.70138" fx="455.05673" fy="35.8862" gradientUnits="userSpaceOnUse">
			<stop  offset="0" style="stop-color:#F3EEB6"/>
			<stop  offset="0.20411" style="stop-color:#F4EBB1"/>
			<stop  offset="0.4601" style="stop-color:#F5E4A2"/>
			<stop  offset="0.74261" style="stop-color:#F7D88C"/>
			<stop  offset="1" style="stop-color:#F9CB73"/>
		</radialGradient>
		<path class="st33" d="M504.38742,53.18084c0.38046,14.95863-11.9754,27.40709-27.5976,27.80442
			s-28.59488-11.40693-28.97534-26.36556s11.9754-27.40709,27.5976-27.80442S504.00696,38.22221,504.38742,53.18084z"/>
		<g>
			<path class="st34" d="M484.40622,313.09573c-0.73083-13.98593-0.20282-50.27066,3.71732-73.12772
				c3.9201-22.85707,5.57178-66.38266,5.23489-79.62837s-7.08472-13.0741-7.08472-13.0741s0.08698,13.25208-3.52802,48.10526
				c-3.61502,34.85318-4.95273,66.10301-6.80966,95.40971c-0.59116,9.32932,1.83707,21.23352,1.83707,21.23352L484.40622,313.09573"
				/>
			<path class="st35" d="M455.33612,313.54651c0,0,6.14902-21.74622,6.34991-73.57849
				c0.1875-48.375,1.96863-77.12233-2.95822-94.00252c9.93961-3.50385,16.59814-1.42247,16.59814-1.42247
				s3.24792,18.74638-0.56985,40.46606c-3.81781,21.71968-5.23648,70.46742-6.50281,89.50577
				c-1.26636,19.03836-3.06293,43.16165-3.06293,43.16165L455.33612,313.54651z"/>
			<path class="st36" d="M497.4863,155.48312c0,0,4.30887,19.40419,4.12714,61.42239
				c-0.1817,42.01819,3.69409,79.3447,8.09738,99.08362c-8.09738,0.20593-8.09738,0.20593-8.09738,0.20593
				s-7.75848-57.6889-6.8024-88.92606s-2.18164-63.90985-4.74637-77.34898
				C493.34137,149.83669,497.4863,155.48312,497.4863,155.48312z"/>
			<path class="st37" d="M476.75656,316.0921l-9.70233-0.80823c0,0-4.93796-23.60742-0.63388-57.35275
				s9.45877-76.89037,9.45862-91.64513s-3.48615-21.66837-3.48615-21.66837l14.98071,2.64781c0,0-6.52798,57.74484-7.61987,82.26326
				C478.6618,254.04712,468.9006,295.74683,476.75656,316.0921z"/>
			<path class="st38" d="M442.81104,195.65552c-7.5,25.25-36.92407,92.40323-69.4375,97
				c-0.17798-6.99774-0.17798-6.99774-0.17798-6.99774s31.7207,4.11807,71.6915-121.50226
				C442.20901,176.85271,442.81104,195.65552,442.81104,195.65552z"/>
			<path class="st39" d="M458.72781,145.9655c-8.0885,25.96405-0.51141,80.57448-3.79822,108.66713
				c-3.28677,28.09265-8.99356,57.83902-8.99356,57.83902l-7.49759,0.19067c0,0,6.36298-57.50319,6.16028-73.61061
				c-0.20267-16.10741-2.82898-51.89172,0.80719-71.24043c3.6362-19.34871,6.96982-25.93559,6.96982-25.93559L458.72781,145.9655z"
				/>
			<path class="st40" d="M440.46515,153.68231c0,0-3.21576,3.08276-4.18768,23.8642s-16.02893,67.02075-16.02893,67.02075
				c-5.8125,26.15076-13.5,49.87555-27.5625,58.88995c1.875,6.8233,1.875,6.8233,1.875,6.8233s25.125-14.4339,36.75-77.71698
				c0,0,2.88055-22.34125,6.89709-39.75513c4.01654-17.41382,5.63184-41.71271,5.63184-41.71271L440.46515,153.68231z"/>
			<path class="st41" d="M438.43845,312.66232c0,0,5.66092-35.94308,6.39276-64.47092
				c0.73181-28.52783,0.03049-57.60892,2.0593-76.1665c2.02884-18.55759,5.56784-26.90027,5.56784-26.90027l-10.00989,3.25557
				c0,0-1.95236,66.86485-2.88742,96.18704c-0.93286,29.25221-6.25,63.14928-9.59302,69.36552
				C436.216,313.77386,438.43845,312.66232,438.43845,312.66232z"/>
		</g>
		
			<linearGradient id="SVGID_15_" gradientUnits="userSpaceOnUse" x1="499.10385" y1="85.91258" x2="446.35385" y2="85.91258" gradientTransform="matrix(0.99968 -0.02543 0.02543 0.99968 -0.91548 12.44646)">
			<stop  offset="0" style="stop-color:#D2D1D3"/>
			<stop  offset="0.34456" style="stop-color:#DBDADC"/>
			<stop  offset="0.75628" style="stop-color:#ECECEE"/>
			<stop  offset="1" style="stop-color:#D9DBD9"/>
		</linearGradient>
		<path class="st42" d="M447.6882,95.22979l1.349-15.78941c0,0,6.84518-6.17603,22.34015-6.57013
			c15.495-0.3941,24.18295,6.88736,28.7673,10.14685c0.23837,9.37197,0.40997,16.11979,0.40997,16.11979
			s-6.54037-11.33737-32.28204-10.68266C453.02753,88.84197,447.6882,95.22979,447.6882,95.22979z"/>
		
			<linearGradient id="SVGID_16_" gradientUnits="userSpaceOnUse" x1="494.60385" y1="143.16258" x2="437.64691" y2="143.16258" gradientTransform="matrix(0.99968 -0.02543 0.02543 0.99968 -0.91548 12.44646)">
			<stop  offset="0" style="stop-color:#D2D1D3"/>
			<stop  offset="0.34456" style="stop-color:#DBDADC"/>
			<stop  offset="0.75628" style="stop-color:#ECECEE"/>
			<stop  offset="1" style="stop-color:#D9DBD9"/>
		</linearGradient>
		<path class="st43" d="M440.46515,153.68234l1.34897-15.78941c0,0,6.84518-6.17604,22.34018-6.57013
			c15.495-0.3941,28.33447,4.65608,32.91882,7.91557c0.23837,9.37198,0.41318,16.24475,0.41318,16.24475
			s-10.6951-9.23105-36.43677-8.57634C445.80444,147.29451,440.46515,153.68234,440.46515,153.68234z"/>
		
			<radialGradient id="SVGID_17_" cx="470.31381" cy="115.21376" r="26.70518" fx="454.47681" fy="108.35164" gradientTransform="matrix(0.99968 -0.02543 0.02543 0.99968 -0.91548 12.44646)" gradientUnits="userSpaceOnUse">
			<stop  offset="0" style="stop-color:#F3EEB6"/>
			<stop  offset="0.42819" style="stop-color:#F6DB92"/>
			<stop  offset="0.78752" style="stop-color:#F8D07B"/>
			<stop  offset="1" style="stop-color:#F9CB73"/>
		</radialGradient>
		<path class="st44" d="M442.10989,134.00916c0,0-1.06097-14.10352,4.16937-35.17988
			c8.11386-5.45806,36.18832-10.56817,55.29883,5.82623c3.11618,14.36292-1.02347,32.50001-1.02347,32.50001
			S471.99207,121.62038,442.10989,134.00916z"/>
		<g>
			<defs>
				<path id="SVGID_43_" d="M442.10989,134.00916c0,0-1.06097-14.10352,4.16937-35.17988
					c8.11386-5.45806,36.18832-10.56817,55.29883,5.82623c3.11618,14.36292-1.02347,32.50001-1.02347,32.50001
					S471.99207,121.62038,442.10989,134.00916z"/>
			</defs>
			<clipPath id="SVGID_18_">
				<use xlink:href="#SVGID_43_"  style="overflow:visible;"/>
			</clipPath>
			<path class="st45" d="M499.88776,118.84301l-8.76422-24.1875l-9.375,15.9375c0,0-9.36786-15.375-20.4375-18.16986
				c-11.625,5.08014-15.5625,20.04486-15.5625,20.04486l-1.90857-12.1875c0,0-4.84143,0.1875-5.40149,0.5625
				c-0.56012,0.375-2.81494,38.81251-2.81494,38.81251s0,0,6.19061-1.76257c0.76471-8.95068,3.07294-17.73743,3.07294-17.73743
				l12.48645,11.14552l8.60175-1.02051l15.58575-14.93l5.8125,17.7425l1.875,0.75c0,0,4.15253-6.75001,9-11.62501
				c3.5625,6.93751,4.49127,22.3996,4.49127,22.3996l1.32123-31.0246L499.88776,118.84301z M458.72784,129.6842l-12.22931-11.16383
				c15-7.07263,33-4.17737,33-4.17737C464.84595,129.15552,458.72784,129.6842,458.72784,129.6842z M446.49854,115.35052
				c3.06653-11.35443,15.1875-20.32001,15.1875-20.32001s9.9375,5.25,17.8125,16.3125
				C461.17169,109.53478,446.49854,115.35052,446.49854,115.35052z M488.68604,131.30103l-4.875-15.95051
				c0,0,7.51532,1.25214,13.67523,4.61749C492.06104,126.71801,488.68604,131.30103,488.68604,131.30103z M483.81104,112.84301
				l6.83765-13.70612c0,0,4.22485,11.26862,6.83759,18.58112C491.23004,114.36456,483.81104,112.84301,483.81104,112.84301z"/>
		</g>
	</g>
</g>
</svg>
