<?xml version="1.0" encoding="utf-8"?>
<!-- Generator: Adobe Illustrator 24.0.1, SVG Export Plug-In . SVG Version: 6.00 Build 0)  -->
<svg version="1.1" id="Layer_1" xmlns="http://www.w3.org/2000/svg" xmlns:xlink="http://www.w3.org/1999/xlink" x="0px" y="0px"
	 viewBox="0 0 361.2171 137.00006" style="enable-background:new 0 0 361.2171 137.00006;" xml:space="preserve">
<style type="text/css">
	.st0{fill:#ED2024;}
	.st1{fill:#FFFFFF;}
</style>
<g id="eng_2_">
	<path id="White_Fill_4_" class="st0" d="M130.93813,107.23154c0,0.30204-0.15134,0.45275-0.45276,0.45275h-1.67473
		c-0.2115,0-0.32445-0.06783-0.33949-0.20381c-0.01535-0.13567-0.03807-0.27841-0.06784-0.42973
		c-0.12094-0.69402-0.30205-1.38773-0.543-2.08206c-0.24187-0.69402-0.45275-1.38773-0.63386-2.08206
		c-0.12094-0.45276-0.24187-0.91257-0.3619-1.38068c-0.12093-0.46749-0.27165-0.92792-0.45275-1.38036
		c-0.09055-0.21088-0.17404-0.36927-0.24894-0.47517c-0.07551-0.10559-0.20351-0.23359-0.38461-0.38492
		c-0.48314-0.33151-1.01141-0.47517-1.58418-0.43004c-0.57369,0.04543-1.13174,0.06783-1.67474,0.06783
		c-1.96173,0-3.71136,0.43802-5.25043,1.31284c-1.53876,0.87543-2.79143,2.17262-3.7568,3.89247
		c-0.84504,1.53876-1.47092,3.25892-1.87824,5.15988c-0.40733,1.90096-0.61115,3.84029-0.61115,5.81614
		c0,1.97678,0.21088,3.90813,0.63386,5.79343c0.42206,1.88623,1.07066,3.59841,1.94608,5.13747
		c0.96536,1.71986,2.27789,3.03238,3.9379,3.93759c1.65908,0.9052,3.46949,1.35796,5.43153,1.35796
		c0.27135,0,0.63355-0.00706,1.086-0.02272c0.45275-0.01472,0.7993-0.09761,1.04118-0.24893
		c0.06017-0.02977,0.09761-0.07489,0.11327-0.13567c0.01473-0.06017,0.02241-0.12033,0.02241-0.18111v-12.8997
		c0-0.12032-0.04512-0.22623-0.13567-0.31677c-0.06078-0.09055-0.15133-0.19584-0.27165-0.31678
		c-0.12094-0.12032-0.25661-0.1811-0.40733-0.1811c-0.18111,0-0.45245-0.01473-0.81465-0.04543
		c-0.36221-0.02946-0.73976-0.06783-1.13174-0.11295c-0.39229-0.04543-0.76217-0.09761-1.10872-0.15839
		c-0.34716-0.06016-0.5961-0.12032-0.74681-0.1811c-0.15133-0.06017-0.22623-0.19584-0.22623-0.40733
		c0-0.18111,0.10529-0.27165,0.31677-0.27165h13.986c0.12003,0,0.22623,0.02271,0.31677,0.06783
		c0.09056,0.04543,0.09056,0.14365,0,0.29437c-0.18109,0.27134-0.43771,0.44539-0.76953,0.52028
		c-0.33243,0.07582-0.66393,0.13599-0.99574,0.18111c-0.33244,0.04543-0.61882,0.09853-0.86009,0.15839
		c-0.24187,0.06078-0.36189,0.19675-0.36189,0.40733v11.94937c0,0.18111-0.07582,0.31677-0.22653,0.40732
		c-0.45245,0.30205-0.93559,0.55098-1.4482,0.74683c-0.51353,0.19644-1.01141,0.41499-1.49364,0.65627
		c-1.17686,0.5433-2.40682,0.88249-3.68896,1.01846c-1.28275,0.13568-2.57288,0.20351-3.86975,0.20351
		c-2.5956,0-4.96404-0.42267-7.10627-1.26709c-2.14284-0.84444-3.98302-2.02927-5.52208-3.55329
		c-1.53876-1.5231-2.73833-3.34917-3.5981-5.47665c-0.86008-2.12718-1.29012-4.48796-1.29012-7.08355
		c0-2.65484,0.4371-5.05367,1.31253-7.19651c0.87482-2.14223,2.0971-3.96767,3.66624-5.47665
		c1.56883-1.50867,3.44708-2.67049,5.63535-3.48545c2.18735-0.81465,4.59386-1.22198,7.21922-1.22198
		c0.33151,0,1.00282,0.0531,2.01423,0.15839c1.01049,0.10621,2.05934,0.25692,3.14565,0.45276
		c1.0863,0.19645,2.05167,0.42298,2.89671,0.67898c0.84442,0.25661,1.26741,0.53594,1.26741,0.83736V107.23154z
		 M154.11183,116.19364c0.02979-0.02978,0.04512-0.09055,0.04512-0.18111c0-0.69371,0.01505-1.36502,0.04544-2.01422
		c0.02977-0.64859-0.0304-1.3196-0.18111-2.01423c-0.24188-1.14647-0.67899-2.10447-1.31253-2.874
		c-0.63387-0.76953-1.58418-1.15414-2.85159-1.15414c-0.99576,0-1.82607,0.36189-2.4894,1.0863
		c-0.63354,0.63355-1.12436,1.39602-1.47092,2.28557c-0.34746,0.89047-0.60408,1.81839-0.76953,2.78376
		c-0.16637,0.96598-0.26459,1.93134-0.29436,2.89671c-0.0304,0.96598-0.04512,1.87119-0.04512,2.71561
		c0,1.23764,0.18816,2.44427,0.5657,3.62112c0.37694,1.17686,0.92792,2.24812,1.65202,3.21349
		c0.57309,0.75449,1.24469,1.38834,2.01422,1.90096c0.76953,0.51353,1.58418,0.87573,2.44427,1.0863
		c0.85977,0.2115,1.74963,0.27165,2.67049,0.18111c0.91994-0.09055,1.80273-0.3622,2.64778-0.81465
		c0.42206-0.24127,0.81465-0.49788,1.17685-0.76953c0.36189-0.27165,0.75388-0.52765,1.17686-0.76953
		c0.24095-0.15041,0.42206-0.23328,0.543-0.24894c0.12032-0.01473,0.16544,0.17404,0.13567,0.56602
		c-0.03038,0.30173-0.15839,0.61083-0.38461,0.9276c-0.22623,0.31709-0.44539,0.58138-0.65627,0.79225
		c-0.78519,0.72411-1.75024,1.30547-2.89671,1.74257c-1.14708,0.43771-2.35371,0.72411-3.62112,0.86008
		c-1.26741,0.13568-2.51978,0.13568-3.75679,0c-1.23764-0.13597-2.33868-0.39964-3.30405-0.79224
		c-1.93135-0.78427-3.47807-1.92368-4.63928-3.41731c-1.16212-1.49363-1.95406-3.13798-2.37643-4.93365
		c-0.42267-1.79475-0.47516-3.62787-0.15839-5.49905c0.31709-1.87088,0.98808-3.56802,2.01422-5.09204
		c1.02554-1.52341,2.4059-2.77578,4.14142-3.7568c1.73489-0.9801,3.80928-1.47092,6.22377-1.47092
		c1.56853,0,3.03944,0.24894,4.41307,0.74681c1.37268,0.49788,2.54156,1.39603,3.50754,2.6929
		c0.36221,0.48314,0.69403,1.07157,0.99576,1.76528c0.30144,0.69463,0.55037,1.41874,0.74683,2.17262
		c0.19614,0.75449,0.34654,1.50928,0.45274,2.26316c0.10529,0.75449,0.12801,1.41874,0.06784,1.99152
		c-0.03038,0.15132-0.06784,0.26428-0.11296,0.33949c-0.04543,0.07552-0.15869,0.11296-0.33949,0.11296h-13.53354
		c-0.18111,0-0.32446-0.04512-0.43005-0.13567c-0.1059-0.09055-0.15839-0.19584-0.15839-0.31677
		c0-0.12033,0.05249-0.22653,0.15839-0.31678c0.10559-0.09055,0.29437-0.13598,0.56602-0.13598h4.70712
		c0.72411,0,1.28215-0.1811,1.67473-0.543C153.50775,117.32507,153.84018,116.82719,154.11183,116.19364z M174.16292,130.45099
		c0.15041,0.06078,0.35422,0.11327,0.61084,0.15839c0.256,0.04543,0.51291,0.09055,0.76953,0.13597
		c0.256,0.04514,0.47516,0.09824,0.65627,0.1584c0.18109,0.06078,0.27165,0.15132,0.27165,0.27165
		c0,0.21149-0.09056,0.31677-0.27165,0.31677h-11.45119c-0.24188,0-0.3622-0.12033-0.3622-0.36221
		c0-0.24126,0.14304-0.36926,0.43004-0.38461c0.28638-0.01503,0.59549-0.00705,0.92792,0.02272
		c0.33151,0.0304,0.64061,0.0304,0.92792,0c0.28639-0.02977,0.43004-0.18111,0.43004-0.45276v-19.64375
		c0-0.30112-0.15132-0.45275-0.45276-0.45275h-2.44426c-0.12094,0-0.1808-0.03745-0.1808-0.11296c0-0.0749,0-0.14304,0-0.20382
		c0.05986-0.12002,0.12003-0.19583,0.1808-0.22622c0.02977-0.09055,0.12032-0.16545,0.27165-0.22623l8.01147-2.39883
		c0.42206-0.12033,0.73914-0.04543,0.95032,0.22622c0.21088,0.27165,0.35454,0.61882,0.43004,1.04088
		c0.07491,0.42298,0.09761,0.86008,0.06784,1.31284c-0.03038,0.45245-0.06078,0.79961-0.09024,1.04088
		c-0.0307,0.15133-0.01566,0.33244,0.04512,0.54331c0.06017,0.21118,0.12033,0.37755,0.18111,0.49787v18.55714L174.16292,130.45099z
		 M175.3849,111.21487c-0.24188,0.06078-0.40027,0.03806-0.47517-0.06815c-0.07581-0.10529-0.0531-0.26367,0.06784-0.47517
		c0.02977-0.02977,0.18111-0.1811,0.45276-0.45275c0.27135-0.27135,0.4368-0.4368,0.49788-0.49788
		c1.02522-0.96506,2.02098-1.65202,2.98726-2.05935c0.96536-0.40733,2.15697-0.61083,3.5757-0.61083
		c0.87482,0,1.74257,0.13567,2.60234,0.40733c0.86009,0.27135,1.62164,0.66394,2.28589,1.17686
		c0.66331,0.51322,1.19926,1.14708,1.60689,1.90096c0.40733,0.75449,0.61084,1.61457,0.61084,2.57994v17.19949
		c0,0.2115,0.13599,0.33243,0.40733,0.36221c0.27165,0.03038,0.57307,0.04512,0.9052,0.04512
		c0.33182,0,0.64859,0.02271,0.95064,0.06784c0.30142,0.04543,0.49788,0.15839,0.58842,0.33948
		c0.06017,0.15134,0.04512,0.24895-0.04512,0.29437c-0.09056,0.04512-0.19676,0.06784-0.31708,0.06784h-11.63229
		c-0.24188,0-0.3622-0.12033-0.3622-0.36221c0-0.24126,0.14304-0.36926,0.43004-0.38461
		c0.28638-0.01503,0.59549-0.00705,0.92792,0.02272c0.33182,0.0304,0.64091,0.0304,0.92792,0
		c0.28639-0.02977,0.43004-0.18111,0.43004-0.45276v-17.19949c0-0.84443-0.16637-1.50867-0.49788-1.99151
		c-0.33243-0.48253-0.76247-0.8297-1.29012-1.04118c-0.52827-0.21057-1.1167-0.29406-1.76498-0.24894
		c-0.64951,0.04543-1.30577,0.17404-1.9691,0.38461c-0.18111,0.06108-0.36987,0.13598-0.56572,0.22653
		c-0.19675,0.09055-0.38461,0.19645-0.5657,0.31677l-0.54332,0.27165C175.52057,111.12431,175.44505,111.18509,175.3849,111.21487z
		 M212.1824,116.19364c0.02979-0.02978,0.04512-0.09055,0.04512-0.18111c0-0.69371,0.01505-1.36502,0.04544-2.01422
		c0.02977-0.64859-0.0304-1.3196-0.18111-2.01423c-0.24188-1.14647-0.67899-2.10447-1.31253-2.874
		c-0.63387-0.76953-1.58418-1.15414-2.85159-1.15414c-0.99576,0-1.82607,0.36189-2.4894,1.0863
		c-0.63354,0.63355-1.12436,1.39602-1.47092,2.28557c-0.34747,0.89047-0.60408,1.81839-0.76953,2.78376
		c-0.16637,0.96598-0.26459,1.93134-0.29436,2.89671c-0.0304,0.96598-0.04512,1.87119-0.04512,2.71561
		c0,1.23764,0.18816,2.44427,0.5657,3.62112c0.37694,1.17686,0.92792,2.24812,1.65202,3.21349
		c0.57307,0.75449,1.24469,1.38834,2.01422,1.90096c0.76953,0.51353,1.58418,0.87573,2.44427,1.0863
		c0.85977,0.2115,1.74962,0.27165,2.67049,0.18111c0.91994-0.09055,1.80273-0.3622,2.64777-0.81465
		c0.42207-0.24127,0.81467-0.49788,1.17686-0.76953c0.36189-0.27165,0.75388-0.52765,1.17685-0.76953
		c0.24097-0.15041,0.42207-0.23328,0.54301-0.24894c0.12032-0.01473,0.16544,0.17404,0.13567,0.56602
		c-0.0304,0.30173-0.15839,0.61083-0.38461,0.9276c-0.22623,0.31709-0.44539,0.58138-0.65627,0.79225
		c-0.78519,0.72411-1.75024,1.30547-2.89671,1.74257c-1.14708,0.43771-2.35371,0.72411-3.62112,0.86008
		c-1.26741,0.13568-2.51978,0.13568-3.75679,0c-1.23764-0.13597-2.33868-0.39964-3.30405-0.79224
		c-1.93135-0.78427-3.47809-1.92368-4.63928-3.41731c-1.16212-1.49363-1.95407-3.13798-2.37643-4.93365
		c-0.42267-1.79475-0.47516-3.62787-0.15839-5.49905c0.31708-1.87088,0.98808-3.56802,2.01422-5.09204
		c1.02553-1.52341,2.4059-2.77578,4.14142-3.7568c1.73489-0.9801,3.80928-1.47092,6.22377-1.47092
		c1.56853,0,3.03944,0.24894,4.41306,0.74681c1.3727,0.49788,2.54158,1.39603,3.50755,2.6929
		c0.36221,0.48314,0.69403,1.07157,0.99576,1.76528c0.30142,0.69463,0.55037,1.41874,0.74681,2.17262
		c0.19615,0.75449,0.34656,1.50928,0.45276,2.26316c0.10529,0.75449,0.12801,1.41874,0.06784,1.99152
		c-0.0304,0.15132-0.06784,0.26428-0.11296,0.33949c-0.04543,0.07552-0.15869,0.11296-0.33949,0.11296h-13.53355
		c-0.18109,0-0.32445-0.04512-0.43004-0.13567c-0.1059-0.09055-0.15839-0.19584-0.15839-0.31677
		c0-0.12033,0.05249-0.22653,0.15839-0.31678c0.10559-0.09055,0.29437-0.13598,0.56602-0.13598h4.70712
		c0.72411,0,1.28214-0.1811,1.67473-0.543C211.57832,117.32507,211.91075,116.82719,212.1824,116.19364z M236.35249,131.28835
		c0.02977,0.13599-0.06078,0.20383-0.27165,0.20383h-13.2616c-0.24188,0-0.3622-0.12033-0.3622-0.36221
		c0-0.24126,0.14304-0.36926,0.43004-0.38461c0.28638-0.01503,0.59549-0.00705,0.92792,0.02272
		c0.33151,0.0304,0.64061,0.0304,0.92792,0c0.28639-0.02977,0.43004-0.18111,0.43004-0.45276v-19.64375
		c0-0.30112-0.16637-0.45982-0.49788-0.47516c-0.33243-0.01505-0.70169-0.00706-1.10902,0.02241
		c-0.40732,0.03069-0.76953,0.04543-1.0863,0.04543s-0.44569-0.12032-0.38461-0.36221
		c0.05986-0.12002,0.12003-0.19583,0.1808-0.22622c0.02977-0.09055,0.12033-0.16545,0.27165-0.22623l8.01147-2.39883
		c0.15071-0.06017,0.33948-0.06815,0.5657-0.02272c0.22623,0.04513,0.38461,0.14365,0.47517,0.29407
		c0.09055,0.15132,0.15839,0.43771,0.20381,0.86008c0.04512,0.42298,0.08257,0.89815,0.11327,1.4258
		c0.02946,0.52827,0.05219,1.03382,0.06784,1.51635c0.01472,0.48283,0.05217,0.83031,0.11295,1.04088
		c0.02979,0.15133,0.05249,0.24187,0.06815,0.27165c0.01474,0.03039,0.09761,0.06078,0.24895,0.09055
		c0.30112,0.03039,0.64828-0.24127,1.04088-0.81466c0.39166-0.57308,0.86714-1.20663,1.4258-1.90126
		c0.55803-0.69372,1.22197-1.33525,1.9915-1.92337c0.76953-0.58842,1.68179-0.8828,2.73833-0.8828
		c0.48222,0,0.96538,0.0531,1.44852,0.15839c0.48222,0.10621,0.91226,0.27933,1.28981,0.52059
		c0.37694,0.24188,0.67899,0.55865,0.90521,0.95064c0.22653,0.39228,0.33948,0.87543,0.33948,1.4482
		c0,2.0219-1.0114,3.03269-3.03238,3.03269c-0.42299,0-0.79993-0.02978-1.13173-0.09055
		c-0.33244-0.06016-0.66394-0.21088-0.99576-0.45275c-0.09056-0.09055-0.2339-0.23328-0.43004-0.43005
		c-0.19646-0.19583-0.40027-0.40733-0.61084-0.63354c-0.21149-0.22623-0.40027-0.43005-0.56572-0.61115
		c-0.16637-0.18079-0.27963-0.27135-0.33949-0.27135c-0.24187-0.06017-0.4684-0.04543-0.67897,0.04512
		c-0.45276,0.15133-0.90521,0.51353-1.35796,1.08631c-0.45245,0.57369-0.85303,1.22198-1.19958,1.94639
		c-0.34715,0.7241-0.62648,1.4482-0.83705,2.1723c-0.21149,0.72441-0.31709,1.31284-0.31709,1.76529v12.17558
		c0,0.15134,0.10561,0.34717,0.31709,0.58844c0.21057,0.24187,0.39166,0.3622,0.543,0.3622h3.07782l0.18109,0.13568
		C236.27698,131.02467,236.3221,131.15268,236.35249,131.28835z M263.41867,132.0806
		c-0.36221-0.12094-0.73975-0.31677-1.13174-0.58842c-0.39227-0.27165-0.75449-0.58842-1.0863-0.95064
		c-0.33212-0.36189-0.61084-0.74681-0.83707-1.15414c-0.2265-0.40732-0.33948-0.80698-0.33948-1.19926v-0.90551l0.13568-8.87125
		c0-0.24126-0.12094-0.40733-0.36221-0.49787c-0.18109-0.06017-0.40732-0.0749-0.67899-0.04513
		c-0.27133,0.03039-0.55066,0.09025-0.83707,0.1808c-0.28729,0.09055-0.56601,0.1811-0.83734,0.27165
		c-0.27167,0.09055-0.48315,0.1811-0.63388,0.27165c-1.84079,0.9052-3.15332,2.32394-3.93758,4.25467
		c-0.30205,0.69433-0.49081,1.44115-0.56602,2.24046c-0.07552,0.79992,0,1.54673,0.22653,2.24045
		c0.22623,0.69432,0.61084,1.26741,1.15414,1.71985c0.543,0.45276,1.29688,0.67899,2.26317,0.67899
		c0.12001,0,0.3542-0.05219,0.70137-0.15839c0.34656-0.10529,0.68604-0.19583,1.01849-0.27165
		c0.33148-0.07491,0.59549-0.09761,0.79193-0.06784c0.19614,0.0304,0.21854,0.19676,0.06815,0.49788
		c-0.39261,0.75449-1.04886,1.32051-1.96912,1.69745c-0.92085,0.37755-1.91661,0.58842-2.98726,0.63354
		c-1.07127,0.04514-2.11246-0.04512-3.12294-0.27165c-1.01141-0.22621-1.81839-0.58044-2.42155-1.06358
		c-0.69463-0.543-1.16212-1.19159-1.40308-1.9464c-0.24188-0.75388-0.36221-1.55348-0.36221-2.39883
		c0-1.32726,0.33182-2.46667,0.99576-3.4173c0.66333-0.95033,1.50838-1.7573,2.53482-2.42155
		c1.02522-0.66333,2.13425-1.1916,3.32675-1.58418c1.19159-0.39168,2.33101-0.70845,3.41701-0.95033
		c0.18109-0.02977,0.42236-0.06783,0.7244-0.11327c0.30112-0.04512,0.61792-0.09761,0.95035-0.15839
		c0.33182-0.06016,0.6409-0.12002,0.92792-0.1811c0.28638-0.05986,0.4902-0.12002,0.61115-0.18079
		c0.33148-0.15072,0.4902-0.39966,0.47516-0.74682c-0.01566-0.34655-0.02274-0.65657-0.02274-0.92792c0-0.51292,0-1.07096,0-1.67474
		c0-0.60347-0.03036-1.21431-0.09024-1.83312c-0.06107-0.6182-0.17404-1.20663-0.33948-1.76529
		c-0.16638-0.55804-0.41531-1.06359-0.74683-1.51634c-0.45276-0.63355-1.07156-0.95033-1.85583-0.95033
		c-0.18109,0-0.46042-0.00706-0.83737-0.02272c-0.37755-0.01473-0.76247-0.02271-1.15413-0.02271
		c-0.39259,0-0.75481,0.01566-1.08632,0.04543c-0.33243,0.03039-0.55865,0.07551-0.67897,0.13567
		c-0.12094,0.06078-0.19646,0.27932-0.22623,0.65627c-0.0304,0.37785-0.06784,0.83736-0.11327,1.38067
		c-0.04512,0.543-0.12094,1.10872-0.22623,1.69714c-0.1062,0.58843-0.27933,1.13941-0.52058,1.65202
		c-0.24188,0.51353-0.58138,0.9359-1.01848,1.2674c-0.43771,0.33244-1.00342,0.49788-1.69714,0.49788
		c-0.78519,0-1.38068-0.18816-1.78799-0.56571c-0.40733-0.37694-0.6492-0.84443-0.72411-1.40308
		c-0.07582-0.55804-0.00768-1.13879,0.20351-1.74257c0.21088-0.60347,0.52766-1.13174,0.95064-1.58418
		c0.57277-0.60347,1.22903-1.10135,1.9688-1.49364c0.73915-0.39198,1.53139-0.69402,2.37643-0.9052
		c0.84442-0.21088,1.69714-0.35453,2.55722-0.43004c0.86008-0.0749,1.68179-0.11327,2.46667-0.11327
		c0.42236,0,0.84442,0.00768,1.2674,0.02271c0.42239,0.01566,0.84445,0.02272,1.26743,0.02272
		c0.90521,0,1.75729,0.19645,2.55722,0.58812c0.79932,0.39259,1.49362,0.91319,2.08206,1.56178
		c0.58844,0.64921,1.04825,1.39602,1.38068,2.24045c0.33151,0.84504,0.49786,1.70512,0.49786,2.57994v15.07231
		c0,0.21149,0.06784,0.38461,0.20352,0.52028c0.13599,0.13599,0.27872,0.24895,0.43002,0.33949
		c0.27167,0.18111,0.50494,0.29437,0.70172,0.33949c0.19583,0.04543,0.37692,0.0531,0.543,0.02271
		c0.16544-0.02977,0.33948-0.09055,0.52057-0.18109c0.18112-0.09056,0.40735-0.18111,0.67899-0.27165
		c0.24097-0.09056,0.4144-0.13568,0.52029-0.13568c0.10559,0,0.12799,0.16606,0.06815,0.49788
		c-0.0307,0.15132-0.09055,0.287-0.18112,0.40732c-0.09055,0.12094-0.18109,0.22623-0.27164,0.31679
		c-0.36221,0.3622-0.80759,0.62679-1.33524,0.79224c-0.52829,0.16545-1.07925,0.27872-1.65204,0.33949
		c-0.5737,0.06017-1.14706,0.08257-1.71985,0.06784c-0.5737-0.01566-1.10196-0.02272-1.5842-0.02272
		C263.50922,132.12572,263.44846,132.11037,263.41867,132.0806z M275.8205,109.17793c0-0.30143-0.18909-0.46749-0.56604-0.49788
		c-0.37753-0.02978-0.79193-0.02271-1.24469,0.02271c-0.45245,0.04513-0.86774,0.06784-1.24469,0.06784
		c-0.37753,0-0.5657-0.15072-0.5657-0.45276c0-0.15041,0.02975-0.24096,0.09055-0.27135
		c0.06015-0.02977,0.15073-0.06016,0.27167-0.09055c0.18109-0.02978,0.45242-0.06017,0.81464-0.09055
		c0.36221-0.02978,0.73914-0.0749,1.13144-0.13598c0.39197-0.05986,0.73914-0.14274,1.04117-0.24894
		c0.30112-0.10529,0.49789-0.24894,0.58844-0.42973c0.45245-0.99576,0.80698-2.02927,1.0636-3.10053
		c0.25598-1.07066,0.5657-2.13455,0.92792-3.19109c0.09055-0.24095,0.22623-0.36189,0.40732-0.36189l3.44003-0.22653
		c0.33148,0,0.49786,0.15133,0.49786,0.45275v6.60809c0,0.30204,0.15042,0.45275,0.45245,0.45275h4.52634
		c0.21054,0,0.33948,0.05311,0.38458,0.15839c0.04544,0.1062,0.06784,0.24894,0.06784,0.43004
		c0,0.30204-0.15131,0.45245-0.45242,0.45245h-4.52634c-0.30203,0-0.45245,0.15133-0.45245,0.45276v17.51627
		c0,0.96629,0.33151,1.7131,0.99576,2.24076c0.66333,0.52826,1.46326,0.79193,2.39883,0.79193
		c0.5126,0,0.91995-0.02272,1.22198-0.06784c0.30142-0.04543,0.67899-0.18816,1.13174-0.43004
		c0.18079-0.09055,0.32382-0.13567,0.42972-0.13567c0.10559,0,0.12799,0.13567,0.06815,0.40732
		c-0.0611,0.27135-0.24188,0.56572-0.5433,0.88249c-0.30203,0.31677-0.6492,0.60408-1.04089,0.86008
		c-0.39258,0.25662-0.7999,0.46811-1.22226,0.63356c-0.423,0.16545-0.76923,0.24893-1.04089,0.24893h-4.84311
		c-0.543,0-1.07156-0.15839-1.58417-0.47516c-0.51355-0.31677-0.95831-0.70876-1.33527-1.17686
		c-0.37753-0.46748-0.68665-0.98808-0.92792-1.56146c-0.24185-0.57277-0.36188-1.11608-0.36188-1.62962V109.17793z
		 M291.39005,119.58823c0-1.84019,0.30911-3.53058,0.92792-5.06933c0.61823-1.53906,1.478-2.85865,2.57996-3.96062
		c1.10104-1.10104,2.42154-1.96112,3.9603-2.57993c1.53906-0.6179,3.22855-0.92761,5.06964-0.92761
		c1.93042,0,3.6506,0.30972,5.15988,0.92761c1.50836,0.61881,2.78345,1.48657,3.82462,2.60265
		c1.04089,1.11669,1.84021,2.45961,2.39883,4.02844c0.55804,1.56915,0.83737,3.28931,0.83737,5.15988
		c0,1.8408-0.29434,3.51553-0.88278,5.0239c-0.58844,1.50929-1.41077,2.80647-2.46667,3.89278
		c-1.05655,1.086-2.33868,1.93135-3.84735,2.53452c-1.50928,0.60316-3.18372,0.9052-5.0239,0.9052
		c-1.87149,0-3.57568-0.30203-5.11475-0.9052c-1.53876-0.60316-2.85928-1.45558-3.96033-2.55724
		c-1.10196-1.10134-1.95404-2.42155-2.55753-3.9606C291.6915,123.16393,291.39005,121.45941,291.39005,119.58823z
		 M298.58688,119.58823c0,0.60378,0.00705,1.31253,0.0224,2.12718c0.01505,0.81496,0.06815,1.65202,0.15869,2.5121
		c0.09024,0.86008,0.24097,1.7128,0.45245,2.55722c0.21088,0.84535,0.51291,1.59217,0.90521,2.24046
		c0.39197,0.64951,0.88983,1.17685,1.49362,1.58418c0.60349,0.40764,1.34232,0.61115,2.21805,0.61115
		c0.90521,0,1.65201-0.20351,2.24045-0.61115c0.58841-0.40733,1.07065-0.93468,1.44821-1.58418
		c0.37692-0.64828,0.6633-1.3951,0.86008-2.24046c0.19583-0.84442,0.33182-1.69714,0.40732-2.55722
		c0.07489-0.86008,0.11325-1.69714,0.11325-2.5121c0-0.81465,0-1.52341,0-2.12718c0-0.9052-0.00797-2.02129-0.02271-3.34947
		c-0.01566-1.32726-0.16605-2.60265-0.45276-3.82463c-0.28699-1.22198-0.76923-2.27023-1.44818-3.14565
		c-0.67899-0.87482-1.68243-1.31253-3.00998-1.31253c-1.38837,0-2.44427,0.42267-3.1684,1.2671
		c-0.72409,0.84535-1.25235,1.87856-1.58417,3.10053c-0.33243,1.22228-0.5206,2.49737-0.5657,3.82463
		C298.60928,117.47639,298.58688,118.62286,298.58688,119.58823z M334.11697,131.28835
		c0.02979,0.13599-0.06076,0.20383-0.27164,0.20383h-13.2616c-0.24188,0-0.36221-0.12033-0.36221-0.36221
		c0-0.24126,0.14304-0.36926,0.43005-0.38461c0.28638-0.01503,0.59549-0.00705,0.92792,0.02272
		c0.33151,0.0304,0.64059,0.0304,0.92792,0c0.28638-0.02977,0.43002-0.18111,0.43002-0.45276v-19.64375
		c0-0.30112-0.16635-0.45982-0.49786-0.47516c-0.33243-0.01505-0.70169-0.00706-1.10904,0.02241
		c-0.40732,0.03069-0.76953,0.04543-1.0863,0.04543s-0.44568-0.12032-0.38461-0.36221
		c0.05988-0.12002,0.12003-0.19583,0.18082-0.22622c0.02975-0.09055,0.1203-0.16545,0.27164-0.22623l8.01147-2.39883
		c0.15073-0.06017,0.33948-0.06815,0.5657-0.02272c0.22623,0.04513,0.38461,0.14365,0.47519,0.29407
		c0.09055,0.15132,0.15839,0.43771,0.2038,0.86008c0.04514,0.42298,0.08258,0.89815,0.11328,1.4258
		c0.02945,0.52827,0.05219,1.03382,0.06784,1.51635c0.01471,0.48283,0.05215,0.83031,0.11295,1.04088
		c0.02979,0.15133,0.05249,0.24187,0.06815,0.27165c0.01474,0.03039,0.0976,0.06078,0.24893,0.09055
		c0.30112,0.03039,0.64828-0.24127,1.04089-0.81466c0.39166-0.57308,0.86713-1.20663,1.42578-1.90126
		c0.55804-0.69372,1.22198-1.33525,1.99152-1.92337c0.76953-0.58842,1.68179-0.8828,2.73831-0.8828
		c0.48224,0,0.96536,0.0531,1.44852,0.15839c0.48224,0.10621,0.91226,0.27933,1.28983,0.52059
		c0.37692,0.24188,0.67899,0.55865,0.90521,0.95064c0.22653,0.39228,0.33948,0.87543,0.33948,1.4482
		c0,2.0219-1.01141,3.03269-3.03238,3.03269c-0.423,0-0.79993-0.02978-1.13174-0.09055
		c-0.33243-0.06016-0.66394-0.21088-0.99576-0.45275c-0.09055-0.09055-0.23389-0.23328-0.43002-0.43005
		c-0.19647-0.19583-0.40027-0.40733-0.61084-0.63354c-0.21149-0.22623-0.40027-0.43005-0.56573-0.61115
		c-0.16635-0.18079-0.27963-0.27135-0.33948-0.27135c-0.24188-0.06017-0.46841-0.04543-0.67899,0.04512
		c-0.45276,0.15133-0.90521,0.51353-1.35797,1.08631c-0.45242,0.57369-0.853,1.22198-1.19955,1.94639
		c-0.34717,0.7241-0.6265,1.4482-0.83707,2.1723c-0.21149,0.72441-0.31708,1.31284-0.31708,1.76529v12.17558
		c0,0.15134,0.10559,0.34717,0.31708,0.58844c0.21057,0.24187,0.39166,0.3622,0.543,0.3622h3.07782l0.18109,0.13568
		C334.04147,131.02467,334.08658,131.15268,334.11697,131.28835z"/>
	<g id="Main_4_">
		<g>
			<g>
				<g>
					<path class="st0" d="M26.56836,39.97084c0.19092,0.09668,0.2876,0.24072,0.2876,0.43213
						c0,3.84082-0.01221,7.64404-0.03564,11.41211c-0.0249,3.76855-0.08447,7.57227-0.18018,11.41162
						c-0.09668,3.07276-0.10791,6.14502-0.03613,9.21631c0.07227,3.07227,0.01123,6.14453-0.17969,9.21582
						c-0.14404,2.16016-0.64795,4.28418-1.51221,6.37207c-0.86377,2.08789-2.01611,3.89941-3.45605,5.43604
						c-3.07227,3.35938-6.93652,5.04004-11.5918,5.04004c-1.87207,0-3.67236-0.27686-5.3999-0.82813
						c-1.72803-0.55225-3.16846-1.64453-4.32031-3.27588C0.04834,94.21059,0,94.06654,0,93.97084
						c0.04834-0.72021,0.22852-1.33203,0.54004-1.83594c0.31299-0.50391,0.75586-0.97217,1.33203-1.40381
						c1.2959-0.96094,2.46045-1.44043,3.49219-1.44043c1.03271,0,1.95605,0.26367,2.77197,0.79199
						c0.81543,0.52783,1.53564,1.18799,2.15967,1.97998c0.62354,0.79199,1.19971,1.5,1.72803,2.12402
						c0.52783,0.62354,1.0083,1.06787,1.44043,1.33203c0.43164,0.26318,0.86377,0.1084,1.2959-0.46777
						c0.23975-0.38477,0.479-0.99658,0.71973-1.83594c0.23975-0.84033,0.36035-1.47607,0.36035-1.9082V45.65882
						c0-0.479-0.24072-0.72021-0.72021-0.72021h-3.6001c-0.09668-0.09521-0.20459-0.25195-0.32373-0.46777
						c-0.12061-0.21582-0.18018-0.37109-0.18018-0.46777c0-0.0957,0.07227-0.19141,0.21582-0.28809
						c0.0957-0.04736,0.50439-0.18018,1.22412-0.396c0.72021-0.21631,1.59521-0.45557,2.62793-0.72021
						c1.03174-0.26318,2.14795-0.56348,3.34814-0.8999c1.19922-0.33545,2.3042-0.63574,3.31201-0.8999
						c1.00781-0.26318,1.85986-0.47949,2.55615-0.64795c0.69531-0.16797,1.06738-0.25195,1.11572-0.25195
						c0.19141,0,0.37158,0.02441,0.54004,0.07178C26.12354,40.01918,26.32715,40.01918,26.56836,39.97084z M15.76807,26.00307
						c0-1.72803,0.55127-3.04785,1.65625-3.96045c1.10352-0.91113,2.32764-1.37891,3.67188-1.40381
						c1.34326-0.02344,2.56738,0.396,3.67188,1.26025c1.10352,0.86377,1.65625,2.23193,1.65625,4.104
						c0,1.82471-0.55273,3.18018-1.65625,4.06787c-1.10449,0.88867-2.32861,1.3208-3.67188,1.2959
						c-1.34424-0.02344-2.56836-0.4917-3.67188-1.40381C16.31934,29.0514,15.76807,27.73109,15.76807,26.00307z"/>
					<path class="st0" d="M51.83887,76.69106c0,0.33594,0,1.03271,0,2.08789s0,2.25537,0,3.6001
						c0,1.34326-0.01221,2.77197-0.03564,4.28369c-0.0249,1.51221-0.0249,2.8916,0,4.14014
						c0.02344,1.24756,0.04688,2.3042,0.07178,3.16797c0.02344,0.86377,0.05957,1.31982,0.10791,1.36816
						c0.0957,0.0957,0.20361,0.21582,0.32422,0.35986c0.11914,0.14404,0.22705,0.26318,0.32373,0.35986
						c0.23975,0.23975,0.6123,0.36035,1.11621,0.36035s1.00781-0.0249,1.51221-0.07227c0.50391-0.04834,0.94678-0.04834,1.33154,0
						c0.38379,0.04736,0.57617,0.23975,0.57617,0.57617c0,0.3833-0.19238,0.57568-0.57617,0.57568H37.0791
						c-0.38477,0-0.57617-0.19238-0.57617-0.57568c0-0.38477,0.25195-0.58838,0.75635-0.6123
						c0.50391-0.02441,1.05518,0,1.65576,0.07227c0.59961,0.07178,1.15186,0.08301,1.65625,0.03613
						c0.50391-0.04883,0.75586-0.31299,0.75586-0.79199V46.45082c0-0.23975-0.04834-0.40723-0.14404-0.50391
						c-0.09668-0.0957-0.20459-0.21582-0.32422-0.35986c-0.12012-0.14404-0.22803-0.26367-0.32373-0.36035
						c-0.14404-0.14404-0.40869-0.23926-0.79199-0.28809c-0.38477-0.04688-0.80469-0.07178-1.26025-0.07178
						c-0.45654,0-0.8999,0.01221-1.33203,0.03613c-0.43164,0.02441-0.74463,0.03564-0.93604,0.03564
						c-0.2876,0-0.38477-0.16748-0.2876-0.50391c0.09521-0.19092,0.19092-0.31152,0.2876-0.35986
						c0.04736-0.14404,0.19141-0.26318,0.43213-0.35986l12.81592-3.81592c0.57617-0.19141,1.03174-0.16797,1.36816,0.07178
						c0.33545,0.24072,0.57617,0.57617,0.72021,1.00781c0.14355,0.43213,0.22705,0.90039,0.25195,1.4043
						c0.02344,0.50391,0.03564,0.94824,0.03564,1.33203c0,0.38477,0.16797,0.57568,0.50439,0.57568
						c0.67139,0,1.43994-0.22705,2.30371-0.68359c0.86426-0.45605,1.80029-0.95996,2.80811-1.51221
						c1.00781-0.55127,2.08789-1.05518,3.23975-1.51221c1.15234-0.45557,2.37646-0.68359,3.67236-0.68359
						c3.50293,0,6.35938,0.88867,8.56787,2.66357c2.20703,1.77637,3.87549,4.00879,5.00391,6.69629
						c1.12744,2.68848,1.73926,5.60449,1.83594,8.74805c0.0957,3.14404-0.24072,6.1084-1.00781,8.89209
						c-0.52881,1.91992-1.27246,3.67188-2.23193,5.25586c-0.96094,1.58398-2.11279,2.94092-3.45605,4.06787
						c-1.34424,1.12842-2.87988,2.00488-4.60791,2.62793c-1.72803,0.62354-3.6001,0.93604-5.61621,0.93604
						c-1.24854,0-2.42432-0.27686-3.52783-0.82813c-1.10498-0.55127-2.2085-1.13965-3.31201-1.76367
						c-0.24072-0.14404-0.50391-0.27588-0.79199-0.396c-0.28809-0.11914-0.52881-0.25195-0.72021-0.396
						c-0.24072-0.19141-0.33643-0.38379-0.28809-0.57617c0.04736-0.19141,0.21631-0.31152,0.50439-0.35986
						c2.87988,0.71973,5.20752,0.73242,6.98389,0.03613c1.77539-0.69531,3.14307-1.83643,4.104-3.42041
						c0.95947-1.58398,1.60742-3.45557,1.94385-5.61572c0.33545-2.16016,0.50391-4.36719,0.50391-6.62403
						c0-1.63135-0.08398-3.39551-0.25195-5.29199c-0.16846-1.89551-0.56445-3.64746-1.18799-5.25586
						c-0.62451-1.60791-1.56006-2.93994-2.80811-3.99609c-1.24854-1.05518-2.97656-1.58398-5.18359-1.58398
						c-0.38477,0-0.93604,0.03564-1.65625,0.10791c-0.71973,0.07178-1.43994,0.19238-2.16016,0.35986
						c-0.71973,0.16895-1.34424,0.4209-1.87158,0.75586c-0.52881,0.33643-0.79199,0.74512-0.79199,1.22412v27.86426
						c0,0.24072,0.01123,0.45654,0.03564,0.64795c0.02393,0.19238,0.03613,0.4082,0.03613,0.64795l-0.35986,0.86377
						C51.91113,76.3307,51.83887,76.49965,51.83887,76.69106z"/>
				</g>
			</g>
			<g>
				<path class="st1" d="M84.79712,87.62445c-0.79594,0-1.04802-0.28809-0.75845-0.86723
					c0.2168-0.50416,0.68569-0.88412,1.40887-1.13767c0.72097-0.25208,1.53381-0.43361,2.43851-0.54165
					c0.9025-0.10876,1.78809-0.18005,2.65458-0.2168c0.86722-0.03601,1.51764-0.05438,1.95125-0.05438
					c0.79372,0,1.19206-0.39613,1.19206-1.19206V12.84867c0-0.43361-0.09187-0.70407-0.27119-0.81284
					c-0.18153-0.10804-0.45198-0.23371-0.81284-0.37922c-1.08329-0.28809-2.38412-0.4145-3.90102-0.37923
					c-1.51764,0.03748-2.78246-0.19843-3.79299-0.70407c-0.36232-0.14405-0.56075-0.45051-0.59603-0.92161
					c-0.03748-0.46889,0.23371-0.70407,0.81284-0.70407h38.90443c1.95125,0,3.97305,0.1999,6.06908,0.59603
					c2.09456,0.3976,4.15384,0.99363,6.17712,1.78809c2.02179,0.79593,3.93703,1.77119,5.7435,2.92577
					c1.80499,1.15679,3.35938,2.49289,4.6602,4.0098c1.80501,2.02327,2.70897,4.44341,2.70897,7.26114v12.24546
					c0,3.18005-0.90396,5.79789-2.70897,7.85717c-1.80719,2.05855-4.0289,3.73861-6.6651,5.0387
					c-2.63841,1.30083-5.45541,2.27608-8.45247,2.9265c-2.99927,0.64968-5.72733,1.12077-8.18201,1.40887
					c-1.30083,0.14552-2.63841,0.28956-4.0098,0.43288c-1.37359,0.14625-2.70969,0.2168-4.0098,0.2168
					c-0.43361,0-0.77756-0.12494-1.02964-0.37923c-0.25429-0.25208-0.4167-0.55855-0.48799-0.92087
					c-0.07276-0.36085-0.03675-0.68569,0.10876-0.97525c0.14405-0.28809,0.39613-0.5049,0.75845-0.65042
					c0.2168-0.07129,0.39613-0.08966,0.54165-0.05438c0.14404,0.03748,0.28809,0.05438,0.43361,0.05438
					c4.26188-0.14405,7.89245-1.24644,10.89171-3.30499c2.99706-2.05928,5.14747-5.14821,6.44756-9.26604
					c0.65042-2.0218,1.04655-4.2435,1.19206-6.66437c0.14406-2.42014,0-4.82263-0.43361-7.20676
					c-0.43288-2.38412-1.17516-4.62273-2.22096-6.7195c-1.04875-2.09456-2.43851-3.86354-4.17295-5.30989
					c-1.22881-1.01053-2.54655-1.67932-3.95541-2.0049c-1.40887-0.32484-2.87138-0.55855-4.38902-0.70407
					c-0.28956,0-0.72243-0.03601-1.30009-0.10877c-0.57912-0.07129-1.19206-0.12494-1.84248-0.16242
					c-0.65041-0.03528-1.24644-0.07129-1.78809-0.10804c-0.54165-0.03601-0.92087-0.0169-1.13768,0.05365
					c-0.72317,0.21681-1.12077,0.61514-1.19205,1.19206c-0.21681,1.22954-0.34395,2.60093-0.37923,4.11857
					c-0.03748,1.5169-0.09187,2.92577-0.16242,4.22587c-0.14626,3.39686-0.2168,6.77315-0.2168,10.13326
					c0,3.35938,0,6.77315,0,10.24056c0,2.81773-0.01911,5.63547-0.05438,8.4532c-0.03748,2.81773-0.05439,5.67221-0.05439,8.56124
					c0,4.11783,0.01691,8.23566,0.05439,12.35423c0.03527,4.11783,0.05438,8.23566,0.05438,12.35423
					c0,0.36232,0.23371,0.77682,0.70406,1.24571c0.46889,0.47109,0.88412,0.7048,1.24644,0.7048
					c0.43362,0,1.1002,0.03748,2.0049,0.10803c0.9025,0.07276,1.85938,0.16315,2.87139,0.27119
					c1.01126,0.10876,1.93214,0.23518,2.76334,0.37923c0.82974,0.14552,1.42577,0.28956,1.78809,0.43361
					c0.36086,0.2168,0.59603,0.54164,0.7048,0.97526c0.10803,0.43361-0.16242,0.65041-0.81284,0.65041H84.79712z"/>
				<path class="st1" d="M159.24658,87.62445c-0.57912,0-0.86722-0.28809-0.86722-0.86723
					c0-0.65041,0.37923-0.97525,1.13841-0.97525c0.75845,0,1.5882,0.05438,2.49216,0.16241
					c0.9025,0.10877,1.7337,0.12714,2.49289,0.05439c0.75845-0.07129,1.13768-0.46889,1.13768-1.19206V7.43001
					c0-0.72097-0.36232-1.08329-1.08403-1.08329h-5.30989c-0.57912,0-0.86722-0.28809-0.86722-0.86722
					c0-0.57766,0.2881-0.93778,0.86722-1.08329l21.34908-4.33537c0.86649-0.21681,1.30009,0.14625,1.30009,1.08403v83.22825
					c0,0.36232,0.16243,0.7048,0.48801,1.02964c0.32483,0.32484,0.66731,0.48799,1.02963,0.48799h4.76825
					c0.57692,0,0.93777,0.28883,1.0833,0.86649c0.14404,0.57913-0.1808,0.86723-0.97527,0.86723H159.24658z"/>
				<path class="st1" d="M239.76514,89.03332c-0.86722-0.28957-1.77119-0.75845-2.7097-1.40887
					c-0.93924-0.65041-1.80646-1.40887-2.60092-2.27609c-0.7952-0.86649-1.46252-1.78809-2.00417-2.76334
					c-0.54239-0.97526-0.81284-1.93214-0.81284-2.87138v-2.16805l0.32484-21.24031c0-0.57766-0.28957-0.97526-0.86723-1.19206
					c-0.43361-0.14405-0.97525-0.17933-1.62567-0.10804c-0.64967,0.07276-1.31847,0.21607-2.00417,0.43288
					c-0.6879,0.2168-1.35521,0.43361-2.00488,0.65041c-0.65042,0.21681-1.1568,0.43361-1.51764,0.65042
					c-4.40739,2.16732-7.54997,5.56418-9.42773,10.18691c-0.72318,1.66242-1.17516,3.45052-1.35521,5.36428
					c-0.1808,1.91524,0,3.70332,0.54237,5.36427c0.54166,1.66242,1.46252,3.03454,2.76335,4.11784
					c1.30009,1.08402,3.1051,1.62567,5.41867,1.62567c0.28735,0,0.84811-0.12494,1.67932-0.37923
					c0.82974-0.25208,1.64258-0.46889,2.43851-0.65041c0.79373-0.17933,1.42577-0.23371,1.89612-0.16242
					c0.46964,0.07275,0.52328,0.47109,0.16316,1.19206c-0.93999,1.80647-2.51126,3.16168-4.7146,4.06418
					c-2.2048,0.90397-4.58891,1.40887-7.15237,1.51691c-2.56491,0.10803-5.0578-0.10804-7.4772-0.65042
					c-2.4216-0.54164-4.35374-1.38976-5.79788-2.54654c-1.66316-1.3001-2.78247-2.85301-3.35939-4.66022
					c-0.57912-1.80499-0.86722-3.7195-0.86722-5.7435c0-3.17785,0.79446-5.90592,2.38412-8.18201
					c1.5882-2.27535,3.61147-4.20749,6.06908-5.79789c2.45468-1.58819,5.10999-2.85301,7.96521-3.79299
					c2.85301-0.93777,5.58109-1.69622,8.18127-2.27535c0.43361-0.07129,1.01126-0.16242,1.73444-0.27119
					c0.72098-0.10804,1.47943-0.23371,2.27536-0.37923c0.79446-0.14405,1.53455-0.28736,2.22169-0.43361
					c0.6857-0.14331,1.17369-0.28736,1.46326-0.43288c0.79373-0.36085,1.17369-0.95688,1.13768-1.78809
					c-0.03748-0.82974-0.05438-1.57203-0.05438-2.22171c0-1.22807,0-2.56418,0-4.0098c0-1.44488-0.07277-2.90739-0.21608-4.38902
					c-0.14624-1.48016-0.4167-2.88902-0.81284-4.2266c-0.39833-1.33611-0.99435-2.54654-1.78809-3.63057
					c-1.08403-1.5169-2.56566-2.27535-4.44341-2.27535c-0.43361,0-1.1024-0.0169-2.0049-0.05439
					c-0.90398-0.03528-1.82558-0.05438-2.76335-0.05438c-0.93997,0-1.80721,0.03748-2.60092,0.10877
					c-0.79594,0.07276-1.33759,0.18079-1.62567,0.32484c-0.28957,0.14552-0.47037,0.66879-0.54166,1.57129
					c-0.07275,0.9047-0.16241,2.0049-0.27119,3.30573c-0.10803,1.3001-0.28955,2.65458-0.54164,4.06345
					c-0.25429,1.40887-0.66879,2.72807-1.24644,3.95541c-0.57913,1.22955-1.39197,2.24081-2.43851,3.03454
					c-1.04802,0.79593-2.4025,1.19206-4.06345,1.19206c-1.87996,0-3.30573-0.45051-4.28099-1.35448
					c-0.97525-0.9025-1.55438-2.0218-1.7337-3.35938c-0.18153-1.33611-0.01837-2.7266,0.48726-4.17222
					c0.5049-1.44488,1.26335-2.7097,2.27609-3.79299c1.37138-1.44488,2.94267-2.63694,4.71385-3.57619
					c1.76973-0.93851,3.6666-1.66168,5.68987-2.16732c2.02179-0.5049,4.06345-0.84885,6.12273-1.02964
					c2.05928-0.17932,4.0267-0.27119,5.90591-0.27119c1.01128,0,2.0218,0.01837,3.03455,0.05439
					c1.01126,0.03748,2.0218,0.05438,3.03455,0.05438c2.16731,0,4.20749,0.47036,6.12273,1.40813
					c1.91376,0.93998,3.57619,2.18643,4.98505,3.73934c1.40887,1.55438,2.5098,3.34248,3.30573,5.36428
					c0.79373,2.02327,1.19206,4.08255,1.19206,6.17711v36.08743c0,0.50637,0.16243,0.92088,0.48726,1.24571
					c0.32558,0.32558,0.66733,0.59603,1.02965,0.81284c0.65042,0.43362,1.20897,0.7048,1.68005,0.81284
					c0.46889,0.10877,0.9025,0.12714,1.30009,0.05439c0.39613-0.07129,0.81284-0.2168,1.24646-0.43361
					c0.43361-0.2168,0.97525-0.43362,1.62567-0.65042c0.57692-0.2168,0.99216-0.32484,1.2457-0.32484
					c0.25284,0,0.30649,0.3976,0.16318,1.19206c-0.07352,0.36232-0.21683,0.68716-0.43362,0.97526
					c-0.2168,0.28956-0.43361,0.54164-0.65042,0.75845c-0.86722,0.86723-1.93361,1.50073-3.19696,1.89687
					c-1.26482,0.39613-2.58401,0.66732-3.9554,0.81284c-1.3736,0.14404-2.74644,0.19769-4.11783,0.16242
					c-1.3736-0.03748-2.63841-0.05439-3.793-0.05439C239.98195,89.14135,239.83643,89.10461,239.76514,89.03332z"/>
				<path class="st1" d="M269.45865,34.19774c0-0.7217-0.45273-1.1193-1.35522-1.19206
					c-0.90396-0.07129-1.89612-0.05438-2.98016,0.05439c-1.08328,0.10804-2.07764,0.16242-2.98013,0.16242
					c-0.90399,0-1.35449-0.36086-1.35449-1.08403c0-0.36012,0.07129-0.57692,0.2168-0.64968
					c0.14404-0.07129,0.36087-0.14405,0.65042-0.2168c0.43362-0.07129,1.08328-0.14405,1.95053-0.21681
					c0.86722-0.07129,1.76971-0.17932,2.70895-0.32557c0.93851-0.14331,1.76971-0.34174,2.49289-0.59603
					c0.72098-0.25208,1.19205-0.59603,1.40887-1.02891c1.08328-2.38412,1.93213-4.85864,2.54654-7.42356
					c0.61295-2.56345,1.35449-5.11073,2.22171-7.64037c0.2168-0.57692,0.54163-0.86649,0.97525-0.86649l8.23639-0.54238
					c0.79373,0,1.19208,0.36232,1.19208,1.08403v15.82164c0,0.72318,0.36011,1.08403,1.08328,1.08403h10.83731
					c0.50418,0,0.81284,0.12714,0.92087,0.37922c0.1088,0.25429,0.16245,0.59603,0.16245,1.02964
					c0,0.72318-0.36234,1.08329-1.08331,1.08329h-10.83731c-0.72318,0-1.08328,0.36232-1.08328,1.08403v41.93897
					c0,2.31357,0.7937,4.10166,2.38412,5.36501c1.58817,1.26482,3.50342,1.89613,5.7435,1.89613
					c1.22733,0,2.20258-0.05439,2.92575-0.16242c0.72171-0.10877,1.62567-0.45052,2.70972-1.02964
					c0.43286-0.2168,0.77536-0.32484,1.0289-0.32484c0.25281,0,0.30646,0.32484,0.16315,0.97526
					c-0.14624,0.64968-0.57913,1.35448-1.30081,2.11294c-0.72318,0.75845-1.55441,1.44634-2.49219,2.05928
					c-0.93997,0.6144-1.91522,1.12077-2.92648,1.5169c-1.01276,0.39613-1.84174,0.59603-2.49216,0.59603h-11.59579
					c-1.30008,0-2.56564-0.37923-3.79297-1.13767c-1.22955-0.75845-2.29446-1.69696-3.19696-2.81773
					c-0.90399-1.11931-1.64404-2.36575-2.22171-3.73861c-0.57913-1.37138-0.86649-2.67222-0.86649-3.90176V34.19774z"/>
				<path class="st1" d="M345.64182,50.99538c0.07129-0.07129,0.10803-0.2168,0.10803-0.43361
					c0-1.66095,0.03601-3.26825,0.1088-4.82263c0.07126-1.55291-0.07278-3.15948-0.43362-4.82263
					c-0.57913-2.74498-1.62567-5.0387-3.14258-6.88118c-1.51764-1.84248-3.793-2.76335-6.82751-2.76335
					c-2.38412,0-4.37213,0.86649-5.96033,2.60093c-1.51691,1.5169-2.69205,3.34248-3.52179,5.47231
					c-0.83194,2.13204-1.44635,4.35374-1.84247,6.66511c-0.39835,2.31283-0.63351,4.6242-0.7048,6.93556
					c-0.07278,2.31284-0.10803,4.48016-0.10803,6.50196c0,2.96325,0.4505,5.85227,1.35446,8.67001
					c0.9025,2.81773,2.22171,5.38265,3.95541,7.69402c1.37213,1.80647,2.98016,3.3241,4.82263,4.55145
					c1.84247,1.22954,3.793,2.09676,5.85226,2.60093c2.05856,0.50636,4.18912,0.65041,6.39392,0.43361
					c2.20261-0.2168,4.31628-0.86723,6.33954-1.95052c1.01053-0.57766,1.95053-1.19206,2.81775-1.84248
					c0.86649-0.65041,1.80499-1.26335,2.81772-1.84248c0.57693-0.36012,1.01053-0.55855,1.30011-0.59603
					c0.28809-0.03528,0.39612,0.4167,0.32483,1.35522c-0.07275,0.72243-0.37921,1.46252-0.92087,2.22097
					c-0.54166,0.75919-1.06638,1.39196-1.57129,1.89686c-1.87994,1.73371-4.19058,3.12567-6.93558,4.17222
					c-2.74643,1.04801-5.63547,1.7337-8.66998,2.05928c-3.03455,0.32484-6.03308,0.32484-8.99484,0
					c-2.96326-0.32558-5.59946-0.95688-7.91083-1.89686c-4.62421-1.87775-8.32755-4.60583-11.10779-8.18201
					c-2.78247-3.57619-4.67859-7.51322-5.68985-11.81258c-1.01199-4.29715-1.1377-8.68618-0.37924-13.16633
					c0.75919-4.47942,2.36575-8.54286,4.82263-12.19181c2.45541-3.64747,5.76041-6.646,9.91574-8.99485
					c4.15384-2.34664,9.12051-3.5218,14.90149-3.5218c3.75552,0,7.27731,0.59603,10.56613,1.78809
					c3.28662,1.19206,6.08527,3.34248,8.3981,6.44757c0.86722,1.15679,1.66168,2.56565,2.38412,4.2266
					c0.72168,1.66315,1.31772,3.39686,1.78809,5.20186c0.4696,1.80647,0.82974,3.61367,1.08401,5.41866
					c0.25208,1.80647,0.30649,3.39686,0.16241,4.76825c-0.07275,0.36232-0.16241,0.63278-0.27045,0.81284
					c-0.10876,0.18079-0.37994,0.27046-0.81284,0.27046h-32.4032c-0.43362,0-0.77682-0.10804-1.02963-0.32484
					c-0.25357-0.2168-0.37924-0.46889-0.37924-0.75845c0-0.28809,0.12567-0.54238,0.37924-0.75845
					c0.25281-0.2168,0.7048-0.32558,1.35519-0.32558h11.2702c1.7337,0,3.06982-0.43361,4.0098-1.30009
					C344.19547,53.70434,344.99139,52.51228,345.64182,50.99538z"/>
			</g>
		</g>
		<g>
			<path class="st1" d="M308.43115,112.41412c-0.28699-1.22192-0.76917-2.27026-1.44818-3.14575
				c-0.67896-0.87476-1.68237-1.3125-3.00995-1.3125c-1.38837,0-2.44427,0.42285-3.1684,1.26709
				c-0.72412,0.84546-1.25238,1.87866-1.58417,3.10059c-0.33246,1.22217-0.52063,2.49731-0.56573,3.82471
				c-0.04541,1.32813-0.06781,2.47461-0.06781,3.43994c0,0.60376,0.00702,1.3125,0.0224,2.1272
				c0.01501,0.81494,0.06812,1.6521,0.15869,2.51221c0.09021,0.86011,0.24097,1.71265,0.45245,2.55713
				c0.21088,0.84546,0.51288,1.59204,0.90521,2.24048c0.39197,0.64941,0.88983,1.17676,1.49359,1.58423
				c0.60352,0.40747,1.34235,0.61108,2.21808,0.61108c0.90521,0,1.65198-0.20361,2.24042-0.61108s1.07068-0.93481,1.44824-1.58423
				c0.37689-0.64844,0.66333-1.39502,0.86005-2.24048c0.19586-0.84448,0.33185-1.69702,0.40735-2.55713
				c0.07489-0.86011,0.11328-1.69727,0.11328-2.51221c0-0.8147,0-1.52344,0-2.1272c0-0.90527-0.008-2.02124-0.02277-3.34937
				C308.86829,114.91144,308.7179,113.63605,308.43115,112.41412z"/>
			<path class="st1" d="M83.92266,93.1236v43.87646H361.2171V93.1236H83.92266z M135.01172,116.19366
				c-0.18109,0.27124-0.43774,0.44531-0.76953,0.52026c-0.33246,0.07593-0.66394,0.13599-0.99573,0.18115
				c-0.33246,0.04541-0.61884,0.09839-0.86011,0.15845c-0.24188,0.06055-0.36188,0.19678-0.36188,0.40723v11.94922
				c0,0.18115-0.07587,0.31689-0.22656,0.40747c-0.45245,0.302-0.93561,0.55103-1.44818,0.74683
				c-0.51355,0.19629-1.01141,0.41504-1.49365,0.65625c-1.17689,0.54346-2.40681,0.88257-3.68897,1.01855
				c-1.28278,0.1355-2.57288,0.20337-3.86975,0.20337c-2.59558,0-4.96405-0.42261-7.10626-1.26709
				c-2.14282-0.84448-3.98303-2.0293-5.52209-3.55322c-1.53876-1.52319-2.73834-3.34912-3.59808-5.47681
				c-0.86011-2.12695-1.2901-4.48779-1.2901-7.0835c0-2.65479,0.43707-5.05371,1.3125-7.19629
				c0.87482-2.14233,2.09711-3.96777,3.66626-5.47681c1.56885-1.50854,3.44708-2.67041,5.63531-3.48535
				c2.18738-0.8147,4.59387-1.22192,7.21924-1.22192c0.33154,0,1.00281,0.05298,2.01422,0.1582
				c1.0105,0.1062,2.05939,0.25684,3.14569,0.45288c1.0863,0.19629,2.05164,0.42285,2.89668,0.67896
				c0.84442,0.25659,1.26746,0.53589,1.26746,0.8374v7.42261c0,0.302-0.15137,0.45288-0.45276,0.45288h-1.67474
				c-0.21149,0-0.32446-0.06787-0.33948-0.20386c-0.01538-0.13574-0.03809-0.27856-0.06787-0.42993
				c-0.12091-0.69385-0.30206-1.3877-0.54298-2.08203c-0.24188-0.69385-0.45276-1.3877-0.63391-2.08203
				c-0.12091-0.45264-0.24182-0.9126-0.36188-1.38062c-0.12091-0.46753-0.27167-0.92798-0.45276-1.38037
				c-0.09052-0.21094-0.17401-0.36938-0.2489-0.4751c-0.07556-0.10571-0.20355-0.23364-0.38464-0.38501
				c-0.48315-0.33154-1.01141-0.4751-1.58417-0.42993c-0.57373,0.04541-1.13171,0.06787-1.67474,0.06787
				c-1.96173,0-3.71136,0.43799-5.25043,1.31274c-1.53876,0.87549-2.79144,2.17261-3.75677,3.89258
				c-0.84509,1.53857-1.47095,3.25879-1.8783,5.15967c-0.40729,1.90112-0.61115,3.84033-0.61115,5.81616
				c0,1.97681,0.21088,3.9082,0.63391,5.79346c0.42206,1.88623,1.07062,3.59839,1.94604,5.13745
				c0.96539,1.71997,2.27789,3.03247,3.93793,3.93774c1.65906,0.90503,3.46948,1.35791,5.43152,1.35791
				c0.27136,0,0.63354-0.00708,1.086-0.02271c0.45276-0.01465,0.79932-0.09766,1.0412-0.24902
				c0.06012-0.02979,0.0976-0.07471,0.11322-0.13574c0.01477-0.06006,0.02246-0.12012,0.02246-0.18091v-12.89966
				c0-0.12036-0.04517-0.22632-0.13568-0.31689c-0.06079-0.09058-0.15137-0.1958-0.27167-0.31689
				c-0.12097-0.12012-0.25659-0.18091-0.40735-0.18091c-0.18109,0-0.45245-0.01489-0.81464-0.04541
				c-0.36218-0.02954-0.73975-0.06787-1.13171-0.11304c-0.39233-0.04541-0.76221-0.09766-1.1087-0.15845
				c-0.34717-0.06006-0.59613-0.12036-0.74683-0.18091c-0.15137-0.0603-0.22626-0.19604-0.22626-0.40747
				c0-0.18115,0.10529-0.27173,0.31677-0.27173h13.98603c0.12,0,0.2262,0.02271,0.31677,0.06787
				C135.10229,115.94464,135.10229,116.04279,135.01172,116.19366z M160.58429,118.68292
				c-0.0304,0.15137-0.06787,0.2644-0.11298,0.3396c-0.04541,0.07544-0.15869,0.11304-0.33948,0.11304h-13.53357
				c-0.18109,0-0.32446-0.04517-0.43005-0.13574c-0.1059-0.09058-0.15839-0.1958-0.15839-0.31689
				c0-0.12012,0.05249-0.22656,0.15839-0.31665c0.10559-0.09058,0.29437-0.13599,0.56604-0.13599h4.70709
				c0.72412,0,1.28217-0.18115,1.67474-0.54297c0.39166-0.3623,0.72412-0.86011,0.99579-1.49365
				c0.02972-0.02979,0.0451-0.09058,0.0451-0.18115c0-0.6936,0.01501-1.36499,0.04541-2.01416
				c0.02979-0.64868-0.0304-1.31958-0.18109-2.01416c-0.24188-1.14648-0.67896-2.10449-1.3125-2.87402
				c-0.63391-0.76953-1.58423-1.1543-2.85162-1.1543c-0.99573,0-1.82605,0.36206-2.48938,1.08643
				c-0.63354,0.63354-1.12439,1.396-1.47095,2.28564c-0.34747,0.89038-0.60406,1.81836-0.76953,2.78369
				c-0.16632,0.96582-0.26459,1.93115-0.29431,2.89673c-0.0304,0.96606-0.04517,1.87109-0.04517,2.71558
				c0,1.23755,0.18817,2.44434,0.56573,3.62109c0.37695,1.17676,0.92792,2.24805,1.65204,3.21338
				c0.57306,0.75464,1.24469,1.38843,2.01422,1.90112c0.76953,0.51343,1.58417,0.87573,2.44427,1.08618
				c0.85974,0.21143,1.74957,0.27173,2.67047,0.18115c0.91992-0.09058,1.80273-0.3623,2.64777-0.8147
				c0.42206-0.24121,0.81464-0.4978,1.17688-0.76953c0.36188-0.27173,0.75385-0.52759,1.17682-0.76953
				c0.24097-0.15039,0.42206-0.23315,0.54303-0.24878c0.1203-0.01489,0.16541,0.17383,0.13568,0.56592
				c-0.0304,0.30176-0.15839,0.61084-0.38464,0.92773c-0.2262,0.31689-0.44537,0.5813-0.65625,0.79199
				c-0.78522,0.72412-1.75024,1.30566-2.89673,1.74268c-1.14709,0.43774-2.3537,0.72412-3.62109,0.86011
				c-1.26746,0.13574-2.51978,0.13574-3.75684,0c-1.23761-0.13599-2.33868-0.39966-3.30402-0.79224
				c-1.93134-0.78418-3.47809-1.92358-4.63928-3.41724c-1.16211-1.49365-1.9541-3.13794-2.37646-4.93384
				c-0.42267-1.79468-0.47516-3.62769-0.15839-5.49902c0.31708-1.87085,0.9881-3.56787,2.01422-5.09204
				c1.02557-1.52319,2.40594-2.77563,4.14142-3.75659c1.73492-0.98022,3.80933-1.47119,6.22382-1.47119
				c1.56848,0,3.03943,0.24902,4.41302,0.74707c1.37268,0.4978,2.54156,1.396,3.50757,2.69287
				c0.36218,0.48291,0.69403,1.07153,0.99573,1.76514c0.30145,0.69482,0.55042,1.41895,0.74683,2.17261
				c0.19617,0.75464,0.34656,1.50928,0.45276,2.26318C160.6217,117.44611,160.64441,118.11017,160.58429,118.68292z
				 M176.19958,131.49225h-11.45117c-0.24188,0-0.36224-0.12036-0.36224-0.3623c0-0.24121,0.14307-0.36938,0.43005-0.38452
				c0.28638-0.01514,0.59552-0.00708,0.92792,0.02271c0.33148,0.03027,0.64063,0.03027,0.92792,0
				c0.28638-0.02979,0.43005-0.18115,0.43005-0.45288v-19.64355c0-0.30127-0.15137-0.45288-0.45276-0.45288h-2.44427
				c-0.12091,0-0.18079-0.03735-0.18079-0.11304c0-0.07471,0-0.14307,0-0.20361c0.05988-0.12012,0.12-0.19604,0.18079-0.22632
				c0.02979-0.09058,0.1203-0.16553,0.27167-0.22632l8.01147-2.39893c0.42206-0.12012,0.73914-0.04541,0.95032,0.22632
				c0.21088,0.27173,0.35455,0.6189,0.43005,1.04102c0.07489,0.42285,0.0976,0.86011,0.06781,1.31274
				c-0.0304,0.45239-0.06079,0.79956-0.09021,1.04102c-0.0307,0.15112-0.01569,0.33228,0.0451,0.54321
				c0.06018,0.21118,0.1203,0.37744,0.18109,0.4978v18.55713l0.09058,0.18115c0.15039,0.06079,0.35419,0.11328,0.61084,0.15845
				c0.25598,0.04541,0.51288,0.09058,0.76953,0.13599c0.25598,0.04492,0.47516,0.09814,0.65625,0.1582
				c0.18109,0.06104,0.27167,0.15137,0.27167,0.27173C176.47125,131.38702,176.38068,131.49225,176.19958,131.49225z
				 M192.40363,131.42438c-0.09058,0.04517-0.19678,0.06787-0.31708,0.06787h-11.63232c-0.24188,0-0.36218-0.12036-0.36218-0.3623
				c0-0.24121,0.14307-0.36938,0.43005-0.38452c0.28638-0.01514,0.59546-0.00708,0.92792,0.02271
				c0.33179,0.03027,0.64093,0.03027,0.92792,0c0.28638-0.02979,0.43005-0.18115,0.43005-0.45288v-17.19946
				c0-0.84448-0.16638-1.50854-0.49792-1.99146c-0.3324-0.48242-0.76245-0.82959-1.2901-1.04126
				c-0.52826-0.21045-1.1167-0.29395-1.76495-0.24878c-0.64954,0.04541-1.30579,0.17383-1.96912,0.38452
				c-0.18109,0.06104-0.36987,0.13599-0.56573,0.22656c-0.19672,0.09058-0.38458,0.19653-0.56567,0.31665l-0.54333,0.27173
				c-0.09058,0.09058-0.16608,0.15137-0.2262,0.18115c-0.24188,0.06079-0.40027,0.03809-0.47522-0.06812
				c-0.07581-0.10547-0.0531-0.26367,0.06787-0.4751c0.02979-0.02979,0.18109-0.18115,0.45276-0.45288
				c0.27136-0.27124,0.43677-0.43677,0.49786-0.4978c1.02521-0.96509,2.021-1.6521,2.98724-2.05957
				c0.96539-0.40723,2.15698-0.61084,3.57574-0.61084c0.87482,0,1.74255,0.13574,2.60229,0.40747
				c0.86011,0.27124,1.62164,0.66382,2.28589,1.177c0.66333,0.51318,1.19928,1.14697,1.60693,1.90088
				c0.40729,0.75439,0.61084,1.6145,0.61084,2.57983v17.19946c0,0.21143,0.13593,0.33252,0.40729,0.3623
				c0.27167,0.03027,0.57312,0.04517,0.90521,0.04517c0.33185,0,0.64862,0.02271,0.95062,0.06763
				c0.30145,0.04541,0.49786,0.15845,0.58844,0.3396C192.50891,131.28131,192.49384,131.37897,192.40363,131.42438z
				 M218.65485,118.68292c-0.0304,0.15137-0.06787,0.2644-0.11298,0.3396c-0.04541,0.07544-0.15869,0.11304-0.33948,0.11304
				h-13.53357c-0.18109,0-0.32446-0.04517-0.43005-0.13574c-0.1059-0.09058-0.15839-0.1958-0.15839-0.31689
				c0-0.12012,0.05249-0.22656,0.15839-0.31665c0.10559-0.09058,0.29437-0.13599,0.56604-0.13599h4.70715
				c0.72406,0,1.2821-0.18115,1.67468-0.54297c0.39172-0.3623,0.72412-0.86011,0.99579-1.49365
				c0.02979-0.02979,0.0451-0.09058,0.0451-0.18115c0-0.6936,0.01508-1.36499,0.04541-2.01416
				c0.02979-0.64868-0.03033-1.31958-0.18109-2.01416c-0.24188-1.14648-0.67896-2.10449-1.3125-2.87402
				c-0.63385-0.76953-1.58417-1.1543-2.85162-1.1543c-0.99573,0-1.82605,0.36206-2.48938,1.08643
				c-0.63354,0.63354-1.12433,1.396-1.47089,2.28564c-0.34747,0.89038-0.60413,1.81836-0.76953,2.78369
				c-0.16638,0.96582-0.26459,1.93115-0.29437,2.89673c-0.0304,0.96606-0.04517,1.87109-0.04517,2.71558
				c0,1.23755,0.18817,2.44434,0.56573,3.62109c0.37695,1.17676,0.92792,2.24805,1.65204,3.21338
				c0.57306,0.75464,1.24469,1.38843,2.01422,1.90112c0.76953,0.51343,1.58417,0.87573,2.44427,1.08618
				c0.85974,0.21143,1.74963,0.27173,2.67047,0.18115c0.91992-0.09058,1.80273-0.3623,2.64777-0.8147
				c0.42206-0.24121,0.81464-0.4978,1.17688-0.76953c0.36188-0.27173,0.75385-0.52759,1.17682-0.76953
				c0.24097-0.15039,0.42212-0.23315,0.54303-0.24878c0.1203-0.01489,0.16547,0.17383,0.13568,0.56592
				c-0.0304,0.30176-0.15839,0.61084-0.38464,0.92773c-0.2262,0.31689-0.44537,0.5813-0.65625,0.79199
				c-0.78516,0.72412-1.75024,1.30566-2.89673,1.74268c-1.14703,0.43774-2.3537,0.72412-3.62109,0.86011
				c-1.2674,0.13574-2.51978,0.13574-3.75677,0c-1.23767-0.13599-2.33868-0.39966-3.30408-0.79224
				c-1.93134-0.78418-3.47809-1.92358-4.63928-3.41724c-1.16211-1.49365-1.95404-3.13794-2.3764-4.93384
				c-0.42267-1.79468-0.47516-3.62769-0.15839-5.49902c0.31708-1.87085,0.98804-3.56787,2.01422-5.09204
				c1.02551-1.52319,2.40588-2.77563,4.14142-3.75659c1.73486-0.98022,3.80927-1.47119,6.22375-1.47119
				c1.56854,0,3.03943,0.24902,4.41302,0.74707c1.37274,0.4978,2.54163,1.396,3.50757,2.69287
				c0.36224,0.48291,0.69403,1.07153,0.99579,1.76514c0.30139,0.69482,0.55035,1.41895,0.74677,2.17261
				c0.19617,0.75464,0.34656,1.50928,0.45276,2.26318C218.69226,117.44611,218.71503,118.11017,218.65485,118.68292z
				 M240.56207,113.11578c-0.42297,0-0.79993-0.02979-1.13177-0.09058c-0.3324-0.06006-0.66388-0.21094-0.99573-0.45264
				c-0.09058-0.09058-0.23389-0.2334-0.43005-0.43018c-0.19641-0.1958-0.40027-0.40723-0.61084-0.63354
				c-0.21149-0.22607-0.40027-0.42993-0.56567-0.61108c-0.16638-0.18066-0.27966-0.27124-0.33954-0.27124
				c-0.24188-0.0603-0.46838-0.04565-0.67896,0.04517c-0.45276,0.15112-0.90521,0.51343-1.35797,1.08618
				c-0.45245,0.57373-0.85303,1.22192-1.19958,1.94629c-0.34711,0.72412-0.62646,1.44824-0.83704,2.17236
				c-0.21149,0.72437-0.31708,1.31274-0.31708,1.76538v12.17554c0,0.15137,0.10559,0.34717,0.31708,0.58838
				c0.21057,0.24194,0.39166,0.3623,0.54303,0.3623h3.07776l0.18115,0.1355c0.06012,0.12109,0.10529,0.24902,0.13568,0.38477
				c0.02972,0.13599-0.06079,0.20386-0.27167,0.20386h-13.2616c-0.24188,0-0.36224-0.12036-0.36224-0.3623
				c0-0.24121,0.14307-0.36938,0.43005-0.38452c0.28638-0.01514,0.59552-0.00708,0.92792,0.02271
				c0.33154,0.03027,0.64063,0.03027,0.92792,0c0.28638-0.02979,0.43005-0.18115,0.43005-0.45288v-19.64355
				c0-0.30127-0.16638-0.45996-0.49786-0.47534c-0.33246-0.01489-0.70172-0.00708-1.10901,0.02246
				c-0.40735,0.03076-0.76953,0.04541-1.0863,0.04541s-0.44574-0.12036-0.38464-0.36206
				c0.05988-0.12012,0.12006-0.19604,0.18079-0.22632c0.02979-0.09058,0.12036-0.16553,0.27167-0.22632l8.01147-2.39893
				c0.1507-0.06006,0.33948-0.06787,0.56573-0.02246c0.2262,0.04492,0.38458,0.14355,0.47516,0.29395
				c0.09052,0.15137,0.15839,0.43774,0.2038,0.86011c0.0451,0.4231,0.08258,0.89819,0.11328,1.42578
				c0.02948,0.52832,0.05219,1.03394,0.06781,1.51636c0.01477,0.48291,0.05219,0.83032,0.11298,1.04077
				c0.02979,0.15137,0.05249,0.24194,0.06812,0.27173c0.01477,0.03027,0.09766,0.06079,0.24896,0.09058
				c0.30115,0.03052,0.64832-0.24121,1.04089-0.8147c0.39166-0.573,0.86713-1.20654,1.42578-1.90137
				c0.55804-0.6936,1.22198-1.33496,1.99152-1.92334s1.68176-0.88281,2.73834-0.88281c0.48218,0,0.96533,0.05322,1.44849,0.15845
				c0.48224,0.1062,0.91229,0.27954,1.28979,0.52075c0.37695,0.2417,0.67902,0.55859,0.90521,0.95068
				c0.22656,0.39209,0.33948,0.87524,0.33948,1.448C243.59442,112.10504,242.58307,113.11578,240.56207,113.11578z
				 M270.34387,130.22491c-0.0307,0.15112-0.09058,0.28687-0.18109,0.40723c-0.09058,0.12085-0.18115,0.22607-0.27167,0.31665
				c-0.36224,0.3623-0.80762,0.62695-1.33527,0.79224c-0.52826,0.16553-1.07922,0.27881-1.65204,0.3396
				c-0.57367,0.06006-1.14703,0.08252-1.71985,0.06787c-0.57367-0.01563-1.10193-0.02271-1.58417-0.02271
				c-0.09058,0-0.15131-0.01538-0.18109-0.04517c-0.36218-0.12085-0.73975-0.31665-1.13171-0.58838
				c-0.39233-0.27173-0.75452-0.58862-1.08636-0.95068c-0.33209-0.36206-0.61078-0.74683-0.83704-1.15405
				c-0.2265-0.40747-0.33948-0.80713-0.33948-1.19946v-0.90552l0.13568-8.87109c0-0.24121-0.12097-0.40747-0.36224-0.49805
				c-0.18109-0.06006-0.40729-0.07471-0.67896-0.04492c-0.27136,0.03027-0.55066,0.09009-0.83704,0.18066
				c-0.28735,0.09058-0.56604,0.18115-0.8374,0.27173c-0.27167,0.09058-0.48315,0.18115-0.63385,0.27173
				c-1.84082,0.90503-3.15332,2.32373-3.93756,4.25464c-0.30206,0.69434-0.49084,1.44116-0.56604,2.24048
				c-0.0755,0.7998,0,1.54663,0.2265,2.24023c0.22626,0.69434,0.61084,1.26758,1.15417,1.71997
				c0.54297,0.45288,1.29688,0.67896,2.26312,0.67896c0.12006,0,0.35425-0.05225,0.70142-0.15845
				c0.34656-0.10522,0.68604-0.1958,1.01849-0.27148c0.33148-0.07495,0.59546-0.09766,0.79193-0.06787
				c0.19611,0.03027,0.21851,0.19678,0.06812,0.4978c-0.39258,0.75439-1.04883,1.32056-1.96912,1.69751
				c-0.92084,0.37744-1.91656,0.58838-2.98724,0.63354c-1.07129,0.04517-2.11243-0.04517-3.12292-0.27173
				c-1.01141-0.22632-1.81842-0.58032-2.42157-1.06348c-0.69464-0.54321-1.16211-1.19165-1.40308-1.94653
				c-0.24188-0.75391-0.36218-1.55347-0.36218-2.39868c0-1.32739,0.33179-2.4668,0.99573-3.41748
				c0.66333-0.9502,1.50836-1.75708,2.53485-2.42139c1.02521-0.66333,2.13422-1.19165,3.32672-1.58423
				c1.19159-0.3916,2.33099-0.7085,3.41699-0.95044c0.18109-0.02954,0.42236-0.06763,0.72443-0.11304
				c0.30115-0.04541,0.61792-0.09766,0.95032-0.15845c0.33185-0.0603,0.64093-0.12012,0.92792-0.18115
				c0.28638-0.05981,0.49023-0.12012,0.61115-0.18091c0.33154-0.15063,0.49023-0.39966,0.47516-0.74683
				c-0.01563-0.34644-0.02271-0.65649-0.02271-0.92798c0-0.5127,0-1.0708,0-1.67456c0-0.60352-0.0304-1.21436-0.09027-1.83325
				c-0.06104-0.61816-0.17401-1.20654-0.33948-1.76514c-0.16638-0.55811-0.41528-1.06372-0.74683-1.51636
				c-0.45276-0.63354-1.07153-0.95044-1.85583-0.95044c-0.18109,0-0.46039-0.00684-0.83734-0.02271
				c-0.37756-0.01465-0.76245-0.02271-1.15417-0.02271c-0.39258,0-0.75476,0.01563-1.0863,0.04541
				c-0.3324,0.03052-0.55865,0.07568-0.67896,0.13574c-0.12091,0.06079-0.19647,0.2793-0.2262,0.65625
				c-0.0304,0.37793-0.06787,0.8374-0.11328,1.38062c-0.0451,0.54321-0.12097,1.10864-0.22626,1.69727
				c-0.1062,0.58838-0.2793,1.1394-0.52057,1.6521c-0.24188,0.51343-0.58136,0.93579-1.01849,1.26733
				c-0.43768,0.33228-1.00342,0.4978-1.69714,0.4978c-0.78516,0-1.38068-0.18799-1.78796-0.56567
				c-0.40735-0.37695-0.64923-0.84448-0.72412-1.40308c-0.07581-0.55811-0.00769-1.13867,0.20349-1.74268
				c0.21088-0.60352,0.52765-1.13159,0.95068-1.58398c0.57275-0.60352,1.229-1.10156,1.96875-1.49365
				c0.73914-0.39209,1.53143-0.69409,2.37646-0.90527c0.84442-0.21094,1.69714-0.35449,2.55719-0.43018
				c0.86011-0.07471,1.68182-0.11328,2.46667-0.11328c0.42236,0,0.84442,0.00781,1.26746,0.02295
				c0.42236,0.01563,0.84442,0.02246,1.2674,0.02246c0.90521,0,1.75726,0.19653,2.55719,0.58838
				c0.79932,0.39258,1.49365,0.91309,2.08209,1.56152c0.58844,0.64941,1.04822,1.39624,1.38068,2.24072
				c0.33148,0.84497,0.49786,1.70508,0.49786,2.57983v15.07227c0,0.21143,0.06781,0.38452,0.20349,0.52026
				c0.13599,0.13599,0.27875,0.24902,0.43005,0.3396c0.27167,0.18091,0.50494,0.29419,0.70172,0.33936
				c0.1958,0.04541,0.37689,0.05322,0.54297,0.02271c0.16547-0.02979,0.33948-0.09033,0.52063-0.18115
				c0.18109-0.09033,0.40729-0.18091,0.67896-0.27148c0.24097-0.09058,0.41437-0.13574,0.52026-0.13574
				C270.38129,129.72687,270.40369,129.89288,270.34387,130.22491z M288.72021,129.50079
				c-0.0611,0.27124-0.24188,0.56543-0.54333,0.88232c-0.302,0.31689-0.64917,0.604-1.04083,0.86011
				c-0.39264,0.25659-0.79993,0.46802-1.22229,0.63354c-0.42297,0.16553-0.76923,0.24902-1.04089,0.24902h-4.84308
				c-0.54303,0-1.07159-0.15845-1.58423-0.4751c-0.51349-0.31689-0.95831-0.70898-1.33521-1.177
				c-0.37756-0.46753-0.68671-0.98804-0.92792-1.56152c-0.24188-0.57275-0.36194-1.11597-0.36194-1.62964v-18.10449
				c0-0.30151-0.18909-0.46753-0.56598-0.49805c-0.37756-0.02979-0.79199-0.02271-1.24475,0.02271
				c-0.45239,0.04517-0.86774,0.06787-1.24469,0.06787c-0.3775,0-0.56567-0.15063-0.56567-0.45264
				c0-0.15063,0.02979-0.24097,0.09052-0.27148c0.06018-0.02979,0.15076-0.06006,0.27167-0.09058
				c0.18109-0.02979,0.45245-0.06006,0.81464-0.09033c0.36224-0.02979,0.7392-0.07495,1.13147-0.13623
				c0.39197-0.05981,0.73914-0.14258,1.04114-0.24878c0.30115-0.10522,0.49792-0.24902,0.58844-0.42993
				c0.45245-0.99561,0.80701-2.02905,1.0636-3.10034c0.25598-1.07056,0.56573-2.13452,0.92792-3.19116
				c0.09058-0.24097,0.22626-0.36182,0.40735-0.36182l3.44-0.22656c0.33154,0,0.49786,0.15137,0.49786,0.45264v6.60815
				c0,0.302,0.15045,0.45288,0.45245,0.45288h4.52637c0.21057,0,0.33948,0.05298,0.38458,0.1582
				c0.04541,0.10645,0.06787,0.24902,0.06787,0.43018c0,0.302-0.15137,0.45239-0.45245,0.45239h-4.52637
				c-0.302,0-0.45245,0.15137-0.45245,0.45288v17.51611c0,0.96631,0.33154,1.71313,0.99579,2.24072
				c0.66333,0.52832,1.46326,0.79199,2.3988,0.79199c0.51263,0,0.91998-0.02271,1.22198-0.06787
				c0.30145-0.04541,0.67902-0.18799,1.13177-0.42993c0.18079-0.09058,0.32379-0.13574,0.42969-0.13574
				C288.75763,129.09332,288.78009,129.22906,288.72021,129.50079z M315.26581,124.79327
				c-0.58844,1.50928-1.41077,2.8064-2.46667,3.89282c-1.05652,1.08594-2.33868,1.9314-3.84735,2.53442
				c-1.50928,0.60303-3.18372,0.90527-5.02393,0.90527c-1.87146,0-3.57568-0.30225-5.11475-0.90527
				c-1.53876-0.60303-2.85925-1.45557-3.96027-2.55713c-1.10199-1.10156-1.9541-2.42163-2.55756-3.96069
				c-0.60376-1.53882-0.90521-3.24341-0.90521-5.1145c0-1.84009,0.30908-3.53052,0.92792-5.06934
				c0.61823-1.53906,1.47797-2.85864,2.57996-3.96045c1.10101-1.10107,2.42157-1.96118,3.96027-2.58008
				c1.53906-0.61792,3.22858-0.92773,5.06964-0.92773c1.93042,0,3.65063,0.30981,5.15991,0.92773
				c1.50836,0.6189,2.78345,1.48657,3.82465,2.60254c1.04083,1.1167,1.84015,2.45972,2.3988,4.02856
				c0.55804,1.56909,0.8374,3.28931,0.8374,5.15991C316.14862,121.61017,315.85425,123.28497,315.26581,124.79327z
				 M338.32654,113.11578c-0.42297,0-0.79993-0.02979-1.13171-0.09058c-0.33246-0.06006-0.66394-0.21094-0.99579-0.45264
				c-0.09052-0.09058-0.23389-0.2334-0.42999-0.43018c-0.19647-0.1958-0.40027-0.40723-0.61084-0.63354
				c-0.21149-0.22607-0.40027-0.42993-0.56573-0.61108c-0.16638-0.18066-0.27966-0.27124-0.33948-0.27124
				c-0.24188-0.0603-0.46844-0.04565-0.67902,0.04517c-0.45276,0.15112-0.90515,0.51343-1.35791,1.08618
				c-0.45245,0.57373-0.85303,1.22192-1.19958,1.94629c-0.34717,0.72412-0.62653,1.44824-0.8371,2.17236
				c-0.21149,0.72437-0.31708,1.31274-0.31708,1.76538v12.17554c0,0.15137,0.10559,0.34717,0.31708,0.58838
				c0.21057,0.24194,0.39172,0.3623,0.54303,0.3623h3.07782l0.18109,0.1355c0.06018,0.12109,0.10529,0.24902,0.13568,0.38477
				c0.02979,0.13599-0.06079,0.20386-0.27167,0.20386h-13.2616c-0.24188,0-0.36218-0.12036-0.36218-0.3623
				c0-0.24121,0.14301-0.36938,0.43005-0.38452c0.28638-0.01514,0.59546-0.00708,0.92792,0.02271
				c0.33148,0.03027,0.64056,0.03027,0.92792,0c0.28638-0.02979,0.42999-0.18115,0.42999-0.45288v-19.64355
				c0-0.30127-0.16632-0.45996-0.49786-0.47534c-0.3324-0.01489-0.70166-0.00708-1.10901,0.02246
				c-0.40735,0.03076-0.76953,0.04541-1.0863,0.04541s-0.44568-0.12036-0.38458-0.36206
				c0.05981-0.12012,0.12-0.19604,0.18079-0.22632c0.02979-0.09058,0.1203-0.16553,0.27161-0.22632l8.01147-2.39893
				c0.15076-0.06006,0.33954-0.06787,0.56573-0.02246c0.2262,0.04492,0.38464,0.14355,0.47516,0.29395
				c0.09058,0.15137,0.15839,0.43774,0.2038,0.86011c0.04517,0.4231,0.08258,0.89819,0.11328,1.42578
				c0.02948,0.52832,0.05219,1.03394,0.06787,1.51636c0.01471,0.48291,0.05219,0.83032,0.11292,1.04077
				c0.02979,0.15137,0.05249,0.24194,0.06818,0.27173c0.01471,0.03027,0.0976,0.06079,0.2489,0.09058
				c0.30115,0.03052,0.64832-0.24121,1.04089-0.8147c0.39166-0.573,0.86713-1.20654,1.42578-1.90137
				c0.55804-0.6936,1.22198-1.33496,1.99152-1.92334s1.68182-0.88281,2.73834-0.88281c0.48224,0,0.96539,0.05322,1.44849,0.15845
				c0.48224,0.1062,0.91229,0.27954,1.28986,0.52075c0.37695,0.2417,0.67896,0.55859,0.90521,0.95068
				c0.2265,0.39209,0.33948,0.87524,0.33948,1.448C341.35895,112.10504,340.34753,113.11578,338.32654,113.11578z"/>
		</g>
	</g>
</g>
</svg>
