<?xml version="1.0" encoding="utf-8"?>
<!-- Generator: Adobe Illustrator 24.0.1, SVG Export Plug-In . SVG Version: 6.00 Build 0)  -->
<svg version="1.1" id="Layer_1" xmlns="http://www.w3.org/2000/svg" xmlns:xlink="http://www.w3.org/1999/xlink" x="0px" y="0px"
	 viewBox="0 0 362.2 138" style="enable-background:new 0 0 362.2 138;" xml:space="preserve">
<style type="text/css">
	.st0{fill:#ED2024;}
	.st1{fill:#FFFFFF;}
	.st2{fill:#231F20;}
</style>
<g id="eng_2_">
	<path id="White_Fill_4_" class="st0" d="M130.9,108.2c0,0.3-0.2,0.5-0.5,0.5h-1.7c-0.2,0-0.3-0.1-0.3-0.2c0-0.1,0-0.3-0.1-0.4
		c-0.1-0.7-0.3-1.4-0.5-2.1c-0.2-0.7-0.5-1.4-0.6-2.1c-0.1-0.5-0.2-0.9-0.4-1.4c-0.1-0.5-0.3-0.9-0.5-1.4c-0.1-0.2-0.2-0.4-0.2-0.5
		c-0.1-0.1-0.2-0.2-0.4-0.4c-0.5-0.3-1-0.5-1.6-0.4c-0.6,0-1.1,0.1-1.7,0.1c-2,0-3.7,0.4-5.3,1.3c-1.5,0.9-2.8,2.2-3.8,3.9
		c-0.8,1.5-1.5,3.3-1.9,5.2c-0.4,1.9-0.6,3.8-0.6,5.8c0,2,0.2,3.9,0.6,5.8c0.4,1.9,1.1,3.6,1.9,5.1c1,1.7,2.3,3,3.9,3.9
		c1.7,0.9,3.5,1.4,5.4,1.4c0.3,0,0.6,0,1.1,0c0.5,0,0.8-0.1,1-0.2c0.1,0,0.1-0.1,0.1-0.1c0-0.1,0-0.1,0-0.2v-12.9
		c0-0.1,0-0.2-0.1-0.3c-0.1-0.1-0.2-0.2-0.3-0.3c-0.1-0.1-0.3-0.2-0.4-0.2c-0.2,0-0.5,0-0.8,0c-0.4,0-0.7-0.1-1.1-0.1
		c-0.4,0-0.8-0.1-1.1-0.2c-0.3-0.1-0.6-0.1-0.7-0.2c-0.2-0.1-0.2-0.2-0.2-0.4c0-0.2,0.1-0.3,0.3-0.3h14c0.1,0,0.2,0,0.3,0.1
		c0.1,0,0.1,0.1,0,0.3c-0.2,0.3-0.4,0.4-0.8,0.5c-0.3,0.1-0.7,0.1-1,0.2c-0.3,0-0.6,0.1-0.9,0.2c-0.2,0.1-0.4,0.2-0.4,0.4v11.9
		c0,0.2-0.1,0.3-0.2,0.4c-0.5,0.3-0.9,0.6-1.4,0.7c-0.5,0.2-1,0.4-1.5,0.7c-1.2,0.5-2.4,0.9-3.7,1c-1.3,0.1-2.6,0.2-3.9,0.2
		c-2.6,0-5-0.4-7.1-1.3c-2.1-0.8-4-2-5.5-3.6c-1.5-1.5-2.7-3.3-3.6-5.5c-0.9-2.1-1.3-4.5-1.3-7.1c0-2.7,0.4-5.1,1.3-7.2
		c0.9-2.1,2.1-4,3.7-5.5c1.6-1.5,3.4-2.7,5.6-3.5c2.2-0.8,4.6-1.2,7.2-1.2c0.3,0,1,0.1,2,0.2c1,0.1,2.1,0.3,3.1,0.5
		c1.1,0.2,2.1,0.4,2.9,0.7c0.8,0.3,1.3,0.5,1.3,0.8L130.9,108.2L130.9,108.2z M154.1,117.2c0,0,0-0.1,0-0.2c0-0.7,0-1.4,0-2
		c0-0.6,0-1.3-0.2-2c-0.2-1.1-0.7-2.1-1.3-2.9c-0.6-0.8-1.6-1.2-2.9-1.2c-1,0-1.8,0.4-2.5,1.1c-0.6,0.6-1.1,1.4-1.5,2.3
		c-0.3,0.9-0.6,1.8-0.8,2.8c-0.2,1-0.3,1.9-0.3,2.9c0,1,0,1.9,0,2.7c0,1.2,0.2,2.4,0.6,3.6c0.4,1.2,0.9,2.2,1.7,3.2
		c0.6,0.8,1.2,1.4,2,1.9c0.8,0.5,1.6,0.9,2.4,1.1c0.9,0.2,1.7,0.3,2.7,0.2c0.9-0.1,1.8-0.4,2.6-0.8c0.4-0.2,0.8-0.5,1.2-0.8
		c0.4-0.3,0.8-0.5,1.2-0.8c0.2-0.2,0.4-0.2,0.5-0.2c0.1,0,0.2,0.2,0.1,0.6c0,0.3-0.2,0.6-0.4,0.9c-0.2,0.3-0.4,0.6-0.7,0.8
		c-0.8,0.7-1.8,1.3-2.9,1.7c-1.1,0.4-2.4,0.7-3.6,0.9c-1.3,0.1-2.5,0.1-3.8,0c-1.2-0.1-2.3-0.4-3.3-0.8c-1.9-0.8-3.5-1.9-4.6-3.4
		c-1.2-1.5-2-3.1-2.4-4.9c-0.4-1.8-0.5-3.6-0.2-5.5c0.3-1.9,1-3.6,2-5.1c1-1.5,2.4-2.8,4.1-3.8c1.7-1,3.8-1.5,6.2-1.5
		c1.6,0,3,0.2,4.4,0.7c1.4,0.5,2.5,1.4,3.5,2.7c0.4,0.5,0.7,1.1,1,1.8c0.3,0.7,0.6,1.4,0.7,2.2c0.2,0.8,0.3,1.5,0.5,2.3
		c0.1,0.8,0.1,1.4,0.1,2c0,0.2-0.1,0.3-0.1,0.3c0,0.1-0.2,0.1-0.3,0.1h-13.5c-0.2,0-0.3,0-0.4-0.1c-0.1-0.1-0.2-0.2-0.2-0.3
		c0-0.1,0.1-0.2,0.2-0.3c0.1-0.1,0.3-0.1,0.6-0.1h4.7c0.7,0,1.3-0.2,1.7-0.5C153.5,118.3,153.8,117.8,154.1,117.2z M174.2,131.5
		c0.2,0.1,0.4,0.1,0.6,0.2c0.3,0,0.5,0.1,0.8,0.1c0.3,0,0.5,0.1,0.7,0.2c0.2,0.1,0.3,0.2,0.3,0.3c0,0.2-0.1,0.3-0.3,0.3h-11.5
		c-0.2,0-0.4-0.1-0.4-0.4c0-0.2,0.1-0.4,0.4-0.4c0.3,0,0.6,0,0.9,0c0.3,0,0.6,0,0.9,0c0.3,0,0.4-0.2,0.4-0.5v-19.6
		c0-0.3-0.2-0.5-0.5-0.5h-2.4c-0.1,0-0.2,0-0.2-0.1c0-0.1,0-0.1,0-0.2c0.1-0.1,0.1-0.2,0.2-0.2c0-0.1,0.1-0.2,0.3-0.2l8-2.4
		c0.4-0.1,0.7,0,1,0.2c0.2,0.3,0.4,0.6,0.4,1c0.1,0.4,0.1,0.9,0.1,1.3c0,0.5-0.1,0.8-0.1,1c0,0.2,0,0.3,0,0.5
		c0.1,0.2,0.1,0.4,0.2,0.5v18.6L174.2,131.5z M175.4,112.2c-0.2,0.1-0.4,0-0.5-0.1c-0.1-0.1-0.1-0.3,0.1-0.5c0,0,0.2-0.2,0.5-0.5
		c0.3-0.3,0.4-0.4,0.5-0.5c1-1,2-1.7,3-2.1c1-0.4,2.2-0.6,3.6-0.6c0.9,0,1.7,0.1,2.6,0.4c0.9,0.3,1.6,0.7,2.3,1.2
		c0.7,0.5,1.2,1.1,1.6,1.9c0.4,0.8,0.6,1.6,0.6,2.6v17.2c0,0.2,0.1,0.3,0.4,0.4c0.3,0,0.6,0,0.9,0c0.3,0,0.6,0,1,0.1
		c0.3,0,0.5,0.2,0.6,0.3c0.1,0.2,0,0.2,0,0.3c-0.1,0-0.2,0.1-0.3,0.1h-11.6c-0.2,0-0.4-0.1-0.4-0.4c0-0.2,0.1-0.4,0.4-0.4
		c0.3,0,0.6,0,0.9,0c0.3,0,0.6,0,0.9,0c0.3,0,0.4-0.2,0.4-0.5v-17.2c0-0.8-0.2-1.5-0.5-2c-0.3-0.5-0.8-0.8-1.3-1
		c-0.5-0.2-1.1-0.3-1.8-0.2c-0.6,0-1.3,0.2-2,0.4c-0.2,0.1-0.4,0.1-0.6,0.2c-0.2,0.1-0.4,0.2-0.6,0.3l-0.5,0.3
		C175.5,112.1,175.4,112.2,175.4,112.2z M212.2,117.2c0,0,0-0.1,0-0.2c0-0.7,0-1.4,0-2c0-0.6,0-1.3-0.2-2c-0.2-1.1-0.7-2.1-1.3-2.9
		c-0.6-0.8-1.6-1.2-2.9-1.2c-1,0-1.8,0.4-2.5,1.1c-0.6,0.6-1.1,1.4-1.5,2.3c-0.3,0.9-0.6,1.8-0.8,2.8c-0.2,1-0.3,1.9-0.3,2.9
		c0,1,0,1.9,0,2.7c0,1.2,0.2,2.4,0.6,3.6c0.4,1.2,0.9,2.2,1.7,3.2c0.6,0.8,1.2,1.4,2,1.9c0.8,0.5,1.6,0.9,2.4,1.1
		c0.9,0.2,1.7,0.3,2.7,0.2c0.9-0.1,1.8-0.4,2.6-0.8c0.4-0.2,0.8-0.5,1.2-0.8c0.4-0.3,0.8-0.5,1.2-0.8c0.2-0.2,0.4-0.2,0.5-0.2
		c0.1,0,0.2,0.2,0.1,0.6c0,0.3-0.2,0.6-0.4,0.9c-0.2,0.3-0.4,0.6-0.7,0.8c-0.8,0.7-1.8,1.3-2.9,1.7c-1.1,0.4-2.4,0.7-3.6,0.9
		c-1.3,0.1-2.5,0.1-3.8,0c-1.2-0.1-2.3-0.4-3.3-0.8c-1.9-0.8-3.5-1.9-4.6-3.4c-1.2-1.5-2-3.1-2.4-4.9c-0.4-1.8-0.5-3.6-0.2-5.5
		c0.3-1.9,1-3.6,2-5.1c1-1.5,2.4-2.8,4.1-3.8c1.7-1,3.8-1.5,6.2-1.5c1.6,0,3,0.2,4.4,0.7c1.4,0.5,2.5,1.4,3.5,2.7
		c0.4,0.5,0.7,1.1,1,1.8c0.3,0.7,0.6,1.4,0.7,2.2c0.2,0.8,0.3,1.5,0.5,2.3c0.1,0.8,0.1,1.4,0.1,2c0,0.2-0.1,0.3-0.1,0.3
		c0,0.1-0.2,0.1-0.3,0.1h-13.5c-0.2,0-0.3,0-0.4-0.1c-0.1-0.1-0.2-0.2-0.2-0.3c0-0.1,0.1-0.2,0.2-0.3c0.1-0.1,0.3-0.1,0.6-0.1h4.7
		c0.7,0,1.3-0.2,1.7-0.5C211.6,118.3,211.9,117.8,212.2,117.2z M236.4,132.3c0,0.1-0.1,0.2-0.3,0.2h-13.3c-0.2,0-0.4-0.1-0.4-0.4
		c0-0.2,0.1-0.4,0.4-0.4c0.3,0,0.6,0,0.9,0c0.3,0,0.6,0,0.9,0c0.3,0,0.4-0.2,0.4-0.5v-19.6c0-0.3-0.2-0.5-0.5-0.5
		c-0.3,0-0.7,0-1.1,0c-0.4,0-0.8,0-1.1,0s-0.4-0.1-0.4-0.4c0.1-0.1,0.1-0.2,0.2-0.2c0-0.1,0.1-0.2,0.3-0.2l8-2.4
		c0.2-0.1,0.3-0.1,0.6,0c0.2,0,0.4,0.1,0.5,0.3c0.1,0.2,0.2,0.4,0.2,0.9c0,0.4,0.1,0.9,0.1,1.4c0,0.5,0.1,1,0.1,1.5
		c0,0.5,0.1,0.8,0.1,1c0,0.2,0.1,0.2,0.1,0.3c0,0,0.1,0.1,0.2,0.1c0.3,0,0.6-0.2,1-0.8c0.4-0.6,0.9-1.2,1.4-1.9
		c0.6-0.7,1.2-1.3,2-1.9c0.8-0.6,1.7-0.9,2.7-0.9c0.5,0,1,0.1,1.4,0.2c0.5,0.1,0.9,0.3,1.3,0.5c0.4,0.2,0.7,0.6,0.9,1
		c0.2,0.4,0.3,0.9,0.3,1.4c0,2-1,3-3,3c-0.4,0-0.8,0-1.1-0.1c-0.3-0.1-0.7-0.2-1-0.5c-0.1-0.1-0.2-0.2-0.4-0.4
		c-0.2-0.2-0.4-0.4-0.6-0.6c-0.2-0.2-0.4-0.4-0.6-0.6c-0.2-0.2-0.3-0.3-0.3-0.3c-0.2-0.1-0.5,0-0.7,0c-0.5,0.2-0.9,0.5-1.4,1.1
		c-0.5,0.6-0.9,1.2-1.2,1.9c-0.3,0.7-0.6,1.4-0.8,2.2c-0.2,0.7-0.3,1.3-0.3,1.8v12.2c0,0.2,0.1,0.3,0.3,0.6c0.2,0.2,0.4,0.4,0.5,0.4
		h3.1l0.2,0.1C236.3,132,236.3,132.2,236.4,132.3z M263.4,133.1c-0.4-0.1-0.7-0.3-1.1-0.6c-0.4-0.3-0.8-0.6-1.1-1
		c-0.3-0.4-0.6-0.7-0.8-1.2c-0.2-0.4-0.3-0.8-0.3-1.2v-0.9l0.1-8.9c0-0.2-0.1-0.4-0.4-0.5c-0.2-0.1-0.4-0.1-0.7,0
		c-0.3,0-0.6,0.1-0.8,0.2c-0.3,0.1-0.6,0.2-0.8,0.3c-0.3,0.1-0.5,0.2-0.6,0.3c-1.8,0.9-3.2,2.3-3.9,4.3c-0.3,0.7-0.5,1.4-0.6,2.2
		c-0.1,0.8,0,1.5,0.2,2.2c0.2,0.7,0.6,1.3,1.2,1.7c0.5,0.5,1.3,0.7,2.3,0.7c0.1,0,0.4-0.1,0.7-0.2c0.3-0.1,0.7-0.2,1-0.3
		c0.3-0.1,0.6-0.1,0.8-0.1c0.2,0,0.2,0.2,0.1,0.5c-0.4,0.8-1,1.3-2,1.7c-0.9,0.4-1.9,0.6-3,0.6c-1.1,0-2.1,0-3.1-0.3
		c-1-0.2-1.8-0.6-2.4-1.1c-0.7-0.5-1.2-1.2-1.4-1.9c-0.2-0.8-0.4-1.6-0.4-2.4c0-1.3,0.3-2.5,1-3.4c0.7-1,1.5-1.8,2.5-2.4
		c1-0.7,2.1-1.2,3.3-1.6c1.2-0.4,2.3-0.7,3.4-1c0.2,0,0.4-0.1,0.7-0.1c0.3,0,0.6-0.1,1-0.2c0.3-0.1,0.6-0.1,0.9-0.2
		c0.3-0.1,0.5-0.1,0.6-0.2c0.3-0.2,0.5-0.4,0.5-0.7c0-0.3,0-0.7,0-0.9c0-0.5,0-1.1,0-1.7c0-0.6,0-1.2-0.1-1.8
		c-0.1-0.6-0.2-1.2-0.3-1.8c-0.2-0.6-0.4-1.1-0.7-1.5c-0.5-0.6-1.1-1-1.9-1c-0.2,0-0.5,0-0.8,0c-0.4,0-0.8,0-1.2,0
		c-0.4,0-0.8,0-1.1,0c-0.3,0-0.6,0.1-0.7,0.1c-0.1,0.1-0.2,0.3-0.2,0.7c0,0.4-0.1,0.8-0.1,1.4c0,0.5-0.1,1.1-0.2,1.7
		c-0.1,0.6-0.3,1.1-0.5,1.7c-0.2,0.5-0.6,0.9-1,1.3c-0.4,0.3-1,0.5-1.7,0.5c-0.8,0-1.4-0.2-1.8-0.6c-0.4-0.4-0.6-0.8-0.7-1.4
		c-0.1-0.6,0-1.1,0.2-1.7c0.2-0.6,0.5-1.1,1-1.6c0.6-0.6,1.2-1.1,2-1.5c0.7-0.4,1.5-0.7,2.4-0.9c0.8-0.2,1.7-0.4,2.6-0.4
		c0.9-0.1,1.7-0.1,2.5-0.1c0.4,0,0.8,0,1.3,0c0.4,0,0.8,0,1.3,0c0.9,0,1.8,0.2,2.6,0.6c0.8,0.4,1.5,0.9,2.1,1.6
		c0.6,0.6,1,1.4,1.4,2.2c0.3,0.8,0.5,1.7,0.5,2.6v15.1c0,0.2,0.1,0.4,0.2,0.5c0.1,0.1,0.3,0.2,0.4,0.3c0.3,0.2,0.5,0.3,0.7,0.3
		c0.2,0,0.4,0.1,0.5,0c0.2,0,0.3-0.1,0.5-0.2c0.2-0.1,0.4-0.2,0.7-0.3c0.2-0.1,0.4-0.1,0.5-0.1c0.1,0,0.1,0.2,0.1,0.5
		c0,0.2-0.1,0.3-0.2,0.4c-0.1,0.1-0.2,0.2-0.3,0.3c-0.4,0.4-0.8,0.6-1.3,0.8c-0.5,0.2-1.1,0.3-1.7,0.3c-0.6,0.1-1.1,0.1-1.7,0.1
		c-0.6,0-1.1,0-1.6,0C263.5,133.1,263.4,133.1,263.4,133.1z M275.8,110.2c0-0.3-0.2-0.5-0.6-0.5c-0.4,0-0.8,0-1.2,0
		c-0.5,0-0.9,0.1-1.2,0.1c-0.4,0-0.6-0.2-0.6-0.5c0-0.2,0-0.2,0.1-0.3c0.1,0,0.2-0.1,0.3-0.1c0.2,0,0.5-0.1,0.8-0.1
		c0.4,0,0.7-0.1,1.1-0.1c0.4-0.1,0.7-0.1,1-0.2c0.3-0.1,0.5-0.2,0.6-0.4c0.5-1,0.8-2,1.1-3.1c0.3-1.1,0.6-2.1,0.9-3.2
		c0.1-0.2,0.2-0.4,0.4-0.4l3.4-0.2c0.3,0,0.5,0.2,0.5,0.5v6.6c0,0.3,0.2,0.5,0.5,0.5h4.5c0.2,0,0.3,0.1,0.4,0.2
		c0,0.1,0.1,0.2,0.1,0.4c0,0.3-0.2,0.5-0.5,0.5h-4.5c-0.3,0-0.5,0.2-0.5,0.5v17.5c0,1,0.3,1.7,1,2.2c0.7,0.5,1.5,0.8,2.4,0.8
		c0.5,0,0.9,0,1.2-0.1c0.3,0,0.7-0.2,1.1-0.4c0.2-0.1,0.3-0.1,0.4-0.1c0.1,0,0.1,0.1,0.1,0.4c-0.1,0.3-0.2,0.6-0.5,0.9
		c-0.3,0.3-0.6,0.6-1,0.9c-0.4,0.3-0.8,0.5-1.2,0.6c-0.4,0.2-0.8,0.2-1,0.2H280c-0.5,0-1.1-0.2-1.6-0.5c-0.5-0.3-1-0.7-1.3-1.2
		c-0.4-0.5-0.7-1-0.9-1.6c-0.2-0.6-0.4-1.1-0.4-1.6V110.2z M291.4,120.6c0-1.8,0.3-3.5,0.9-5.1c0.6-1.5,1.5-2.9,2.6-4
		c1.1-1.1,2.4-2,4-2.6c1.5-0.6,3.2-0.9,5.1-0.9c1.9,0,3.7,0.3,5.2,0.9c1.5,0.6,2.8,1.5,3.8,2.6c1,1.1,1.8,2.5,2.4,4
		c0.6,1.6,0.8,3.3,0.8,5.2c0,1.8-0.3,3.5-0.9,5c-0.6,1.5-1.4,2.8-2.5,3.9c-1.1,1.1-2.3,1.9-3.8,2.5c-1.5,0.6-3.2,0.9-5,0.9
		c-1.9,0-3.6-0.3-5.1-0.9c-1.5-0.6-2.9-1.5-4-2.6c-1.1-1.1-2-2.4-2.6-4C291.7,124.2,291.4,122.5,291.4,120.6z M298.6,120.6
		c0,0.6,0,1.3,0,2.1c0,0.8,0.1,1.7,0.2,2.5c0.1,0.9,0.2,1.7,0.5,2.6c0.2,0.8,0.5,1.6,0.9,2.2c0.4,0.6,0.9,1.2,1.5,1.6
		c0.6,0.4,1.3,0.6,2.2,0.6c0.9,0,1.7-0.2,2.2-0.6c0.6-0.4,1.1-0.9,1.4-1.6c0.4-0.6,0.7-1.4,0.9-2.2c0.2-0.8,0.3-1.7,0.4-2.6
		c0.1-0.9,0.1-1.7,0.1-2.5c0-0.8,0-1.5,0-2.1c0-0.9,0-2,0-3.3c0-1.3-0.2-2.6-0.5-3.8c-0.3-1.2-0.8-2.3-1.4-3.1
		c-0.7-0.9-1.7-1.3-3-1.3c-1.4,0-2.4,0.4-3.2,1.3c-0.7,0.8-1.3,1.9-1.6,3.1c-0.3,1.2-0.5,2.5-0.6,3.8
		C298.6,118.5,298.6,119.6,298.6,120.6z M334.1,132.3c0,0.1-0.1,0.2-0.3,0.2h-13.3c-0.2,0-0.4-0.1-0.4-0.4c0-0.2,0.1-0.4,0.4-0.4
		c0.3,0,0.6,0,0.9,0c0.3,0,0.6,0,0.9,0c0.3,0,0.4-0.2,0.4-0.5v-19.6c0-0.3-0.2-0.5-0.5-0.5c-0.3,0-0.7,0-1.1,0c-0.4,0-0.8,0-1.1,0
		s-0.4-0.1-0.4-0.4c0.1-0.1,0.1-0.2,0.2-0.2c0-0.1,0.1-0.2,0.3-0.2l8-2.4c0.2-0.1,0.3-0.1,0.6,0c0.2,0,0.4,0.1,0.5,0.3
		c0.1,0.2,0.2,0.4,0.2,0.9c0,0.4,0.1,0.9,0.1,1.4c0,0.5,0.1,1,0.1,1.5c0,0.5,0.1,0.8,0.1,1c0,0.2,0.1,0.2,0.1,0.3
		c0,0,0.1,0.1,0.2,0.1c0.3,0,0.6-0.2,1-0.8c0.4-0.6,0.9-1.2,1.4-1.9c0.6-0.7,1.2-1.3,2-1.9c0.8-0.6,1.7-0.9,2.7-0.9
		c0.5,0,1,0.1,1.4,0.2c0.5,0.1,0.9,0.3,1.3,0.5c0.4,0.2,0.7,0.6,0.9,1c0.2,0.4,0.3,0.9,0.3,1.4c0,2-1,3-3,3c-0.4,0-0.8,0-1.1-0.1
		c-0.3-0.1-0.7-0.2-1-0.5c-0.1-0.1-0.2-0.2-0.4-0.4c-0.2-0.2-0.4-0.4-0.6-0.6c-0.2-0.2-0.4-0.4-0.6-0.6c-0.2-0.2-0.3-0.3-0.3-0.3
		c-0.2-0.1-0.5,0-0.7,0c-0.5,0.2-0.9,0.5-1.4,1.1c-0.5,0.6-0.9,1.2-1.2,1.9c-0.3,0.7-0.6,1.4-0.8,2.2c-0.2,0.7-0.3,1.3-0.3,1.8v12.2
		c0,0.2,0.1,0.3,0.3,0.6c0.2,0.2,0.4,0.4,0.5,0.4h3.1l0.2,0.1C334,132,334.1,132.2,334.1,132.3z"/>
	<g id="Main_4_">
		<g>
			<g>
				<g>
					<path class="st0" d="M26.6,41c0.2,0.1,0.3,0.2,0.3,0.4c0,3.8,0,7.6,0,11.4c0,3.8-0.1,7.6-0.2,11.4c-0.1,3.1-0.1,6.1,0,9.2
						c0.1,3.1,0,6.1-0.2,9.2c-0.1,2.2-0.6,4.3-1.5,6.4c-0.9,2.1-2,3.9-3.5,5.4c-3.1,3.4-6.9,5-11.6,5c-1.9,0-3.7-0.3-5.4-0.8
						c-1.7-0.6-3.2-1.6-4.3-3.3C0,95.2,0,95.1,0,95c0-0.7,0.2-1.3,0.5-1.8c0.3-0.5,0.8-1,1.3-1.4c1.3-1,2.5-1.4,3.5-1.4
						c1,0,2,0.3,2.8,0.8c0.8,0.5,1.5,1.2,2.2,2c0.6,0.8,1.2,1.5,1.7,2.1c0.5,0.6,1,1.1,1.4,1.3c0.4,0.3,0.9,0.1,1.3-0.5
						c0.2-0.4,0.5-1,0.7-1.8c0.2-0.8,0.4-1.5,0.4-1.9V46.7c0-0.5-0.2-0.7-0.7-0.7h-3.6c-0.1-0.1-0.2-0.3-0.3-0.5
						C11.1,45.3,11,45.1,11,45c0-0.1,0.1-0.2,0.2-0.3c0.1,0,0.5-0.2,1.2-0.4c0.7-0.2,1.6-0.5,2.6-0.7c1-0.3,2.1-0.6,3.3-0.9
						c1.2-0.3,2.3-0.6,3.3-0.9c1-0.3,1.9-0.5,2.6-0.6c0.7-0.2,1.1-0.3,1.1-0.3c0.2,0,0.4,0,0.5,0.1C26.1,41,26.3,41,26.6,41z
						 M15.8,27c0-1.7,0.6-3,1.7-4c1.1-0.9,2.3-1.4,3.7-1.4c1.3,0,2.6,0.4,3.7,1.3c1.1,0.9,1.7,2.2,1.7,4.1c0,1.8-0.6,3.2-1.7,4.1
						c-1.1,0.9-2.3,1.3-3.7,1.3c-1.3,0-2.6-0.5-3.7-1.4C16.3,30.1,15.8,28.7,15.8,27z"/>
					<path class="st0" d="M51.8,77.7c0,0.3,0,1,0,2.1s0,2.3,0,3.6c0,1.3,0,2.8,0,4.3c0,1.5,0,2.9,0,4.1c0,1.2,0,2.3,0.1,3.2
						c0,0.9,0.1,1.3,0.1,1.4c0.1,0.1,0.2,0.2,0.3,0.4c0.1,0.1,0.2,0.3,0.3,0.4c0.2,0.2,0.6,0.4,1.1,0.4s1,0,1.5-0.1
						c0.5,0,0.9,0,1.3,0c0.4,0,0.6,0.2,0.6,0.6c0,0.4-0.2,0.6-0.6,0.6H37.1c-0.4,0-0.6-0.2-0.6-0.6c0-0.4,0.3-0.6,0.8-0.6
						c0.5,0,1.1,0,1.7,0.1c0.6,0.1,1.2,0.1,1.7,0c0.5,0,0.8-0.3,0.8-0.8V47.5c0-0.2,0-0.4-0.1-0.5c-0.1-0.1-0.2-0.2-0.3-0.4
						c-0.1-0.1-0.2-0.3-0.3-0.4c-0.1-0.1-0.4-0.2-0.8-0.3c-0.4,0-0.8-0.1-1.3-0.1c-0.5,0-0.9,0-1.3,0c-0.4,0-0.7,0-0.9,0
						c-0.3,0-0.4-0.2-0.3-0.5c0.1-0.2,0.2-0.3,0.3-0.4c0-0.1,0.2-0.3,0.4-0.4l12.8-3.8c0.6-0.2,1-0.2,1.4,0.1c0.3,0.2,0.6,0.6,0.7,1
						c0.1,0.4,0.2,0.9,0.3,1.4c0,0.5,0,0.9,0,1.3c0,0.4,0.2,0.6,0.5,0.6c0.7,0,1.4-0.2,2.3-0.7c0.9-0.5,1.8-1,2.8-1.5
						c1-0.6,2.1-1.1,3.2-1.5c1.2-0.5,2.4-0.7,3.7-0.7c3.5,0,6.4,0.9,8.6,2.7c2.2,1.8,3.9,4,5,6.7c1.1,2.7,1.7,5.6,1.8,8.7
						c0.1,3.1-0.2,6.1-1,8.9c-0.5,1.9-1.3,3.7-2.2,5.3c-1,1.6-2.1,2.9-3.5,4.1c-1.3,1.1-2.9,2-4.6,2.6c-1.7,0.6-3.6,0.9-5.6,0.9
						c-1.2,0-2.4-0.3-3.5-0.8c-1.1-0.6-2.2-1.1-3.3-1.8c-0.2-0.1-0.5-0.3-0.8-0.4c-0.3-0.1-0.5-0.3-0.7-0.4
						c-0.2-0.2-0.3-0.4-0.3-0.6c0-0.2,0.2-0.3,0.5-0.4c2.9,0.7,5.2,0.7,7,0c1.8-0.7,3.1-1.8,4.1-3.4c1-1.6,1.6-3.5,1.9-5.6
						c0.3-2.2,0.5-4.4,0.5-6.6c0-1.6-0.1-3.4-0.3-5.3c-0.2-1.9-0.6-3.6-1.2-5.3c-0.6-1.6-1.6-2.9-2.8-4c-1.2-1.1-3-1.6-5.2-1.6
						c-0.4,0-0.9,0-1.7,0.1c-0.7,0.1-1.4,0.2-2.2,0.4c-0.7,0.2-1.3,0.4-1.9,0.8c-0.5,0.3-0.8,0.7-0.8,1.2V75c0,0.2,0,0.5,0,0.6
						c0,0.2,0,0.4,0,0.6l-0.4,0.9C51.9,77.3,51.8,77.5,51.8,77.7z"/>
				</g>
			</g>
			<g>
				<g>
					<path class="st1" d="M84.8,89.1c-0.2,0-0.9,0-1.2-0.5c-0.2-0.3-0.2-0.7,0-1.1c0.3-0.6,0.8-1.1,1.7-1.4c0.8-0.3,1.6-0.5,2.5-0.6
						c0.9-0.1,1.8-0.2,2.7-0.2c0.9,0,1.5-0.1,2-0.1c0.5,0,0.7-0.2,0.7-0.7V13.8c0-0.3-0.1-0.4-0.1-0.4c-0.1-0.1-0.4-0.2-0.7-0.3
						c-0.9-0.2-2-0.3-3.2-0.3c-0.2,0-0.8,0-0.8,0c-1.5,0-2.7-0.3-3.7-0.8c-0.3-0.1-0.8-0.5-0.9-1.3c0-0.4,0.1-0.7,0.3-0.9
						c0.2-0.2,0.6-0.4,1-0.4H124c2,0,4,0.2,6.2,0.6c2.1,0.4,4.2,1,6.3,1.8c2,0.8,4,1.8,5.8,3c1.8,1.2,3.4,2.6,4.8,4.1
						c1.9,2.1,2.8,4.7,2.8,7.6v12.2c0,3.3-1,6-2.8,8.2c-1.8,2.1-4.1,3.8-6.8,5.2c-2.7,1.3-5.5,2.3-8.6,3c-3,0.7-5.8,1.1-8.2,1.4
						c-1.3,0.1-2.6,0.3-4,0.4c-1.4,0.1-2.7,0.2-4.1,0.2c-0.6,0-1-0.2-1.4-0.5c-0.3-0.3-0.5-0.7-0.6-1.2c-0.1-0.5,0-0.9,0.2-1.3
						c0.2-0.4,0.5-0.7,1-0.9c0.2-0.1,0.4-0.1,0.6-0.1c0.1,0,0.2,0,0.3,0c0.1,0,0.2,0,0.3,0c4.1-0.1,7.7-1.2,10.6-3.2
						c2.9-2,5-5,6.3-9c0.6-2,1-4.2,1.2-6.5c0.1-2.4,0-4.8-0.4-7.1c-0.4-2.3-1.2-4.5-2.2-6.6c-1-2-2.4-3.8-4-5.1
						c-1.2-1-2.4-1.6-3.7-1.9c-1.4-0.3-2.8-0.6-4.3-0.7c0,0,0,0,0,0c-0.3,0-0.7,0-1.3-0.1c-0.6-0.1-1.2-0.1-1.8-0.2
						c-0.7,0-1.2-0.1-1.8-0.1c-0.2,0-0.3,0-0.5,0c-0.3,0-0.5,0-0.5,0c-0.7,0.2-0.8,0.5-0.9,0.8c-0.2,1.2-0.3,2.6-0.4,4.1
						c0,1.5-0.1,2.9-0.2,4.2c-0.1,3.3-0.2,6.7-0.2,10.1v10.2c0,2.8,0,5.6-0.1,8.5c0,2.8-0.1,5.7-0.1,8.6c0,4.1,0,8.2,0.1,12.3
						c0,4.1,0.1,8.2,0.1,12.4c0,0.1,0.1,0.4,0.6,0.9c0.5,0.5,0.8,0.6,0.9,0.6c0.4,0,1.1,0,2,0.1c0.9,0.1,1.9,0.2,2.9,0.3
						c1,0.1,2,0.2,2.8,0.4c0.9,0.2,1.5,0.3,1.9,0.5c0.5,0.3,0.9,0.8,1,1.3c0.1,0.4,0,0.7-0.1,0.9c-0.2,0.3-0.6,0.4-1.2,0.4H84.8z"/>
					<path class="st2" d="M124,9.9c2,0,4,0.2,6.1,0.6c2.1,0.4,4.2,1,6.2,1.8c2,0.8,3.9,1.8,5.7,2.9c1.8,1.2,3.4,2.5,4.7,4
						c1.8,2,2.7,4.4,2.7,7.3v12.2c0,3.2-0.9,5.8-2.7,7.9c-1.8,2.1-4,3.7-6.7,5c-2.6,1.3-5.5,2.3-8.5,2.9c-3,0.6-5.7,1.1-8.2,1.4
						c-1.3,0.1-2.6,0.3-4,0.4c-1.4,0.1-2.7,0.2-4,0.2c-0.4,0-0.8-0.1-1-0.4c-0.3-0.3-0.4-0.6-0.5-0.9c-0.1-0.4,0-0.7,0.1-1
						c0.1-0.3,0.4-0.5,0.8-0.7c0.1,0,0.3-0.1,0.4-0.1c0.1,0,0.1,0,0.2,0c0.1,0,0.3,0.1,0.4,0.1c4.3-0.1,7.9-1.2,10.9-3.3
						c3-2.1,5.1-5.1,6.4-9.3c0.7-2,1-4.2,1.2-6.7c0.1-2.4,0-4.8-0.4-7.2c-0.4-2.4-1.2-4.6-2.2-6.7c-1-2.1-2.4-3.9-4.2-5.3
						c-1.2-1-2.5-1.7-4-2c-1.4-0.3-2.9-0.6-4.4-0.7c-0.3,0-0.7,0-1.3-0.1c-0.6-0.1-1.2-0.1-1.8-0.2c-0.7,0-1.2-0.1-1.8-0.1
						c-0.2,0-0.3,0-0.5,0c-0.3,0-0.5,0-0.7,0.1c-0.7,0.2-1.1,0.6-1.2,1.2c-0.2,1.2-0.3,2.6-0.4,4.1c0,1.5-0.1,2.9-0.2,4.2
						c-0.1,3.4-0.2,6.8-0.2,10.1c0,3.4,0,6.8,0,10.2c0,2.8,0,5.6-0.1,8.5c0,2.8-0.1,5.7-0.1,8.6c0,4.1,0,8.2,0.1,12.4
						c0,4.1,0.1,8.2,0.1,12.4c0,0.4,0.2,0.8,0.7,1.2c0.5,0.5,0.9,0.7,1.2,0.7c0.4,0,1.1,0,2,0.1c0.9,0.1,1.9,0.2,2.9,0.3
						c1,0.1,1.9,0.2,2.8,0.4c0.8,0.1,1.4,0.3,1.8,0.4c0.4,0.2,0.6,0.5,0.7,1c0.1,0.4-0.2,0.7-0.8,0.7H84.8v0c-0.8,0-1-0.3-0.8-0.9
						c0.2-0.5,0.7-0.9,1.4-1.1c0.7-0.3,1.5-0.4,2.4-0.5c0.9-0.1,1.8-0.2,2.7-0.2c0.9,0,1.5-0.1,2-0.1c0.8,0,1.2-0.4,1.2-1.2V13.8
						c0-0.4-0.1-0.7-0.3-0.8c-0.2-0.1-0.5-0.2-0.8-0.4c-1-0.3-2.1-0.4-3.4-0.4c-0.2,0-0.3,0-0.5,0c-0.1,0-0.2,0-0.3,0
						c-1.4,0-2.5-0.2-3.5-0.7c-0.4-0.1-0.6-0.5-0.6-0.9c0-0.5,0.2-0.7,0.8-0.7H124 M124,8.9H85.1c-0.6,0-1.1,0.2-1.4,0.5
						c-0.2,0.2-0.4,0.6-0.4,1.2c0.1,1.1,0.8,1.6,1.2,1.8c1.1,0.5,2.4,0.8,3.9,0.8c0.1,0,0.2,0,0.3,0c0.2,0,0.3,0,0.5,0
						c1.2,0,2.2,0.1,3.1,0.3c0.2,0.1,0.3,0.1,0.4,0.2c0,0,0,0,0,0.1v70.8c0,0.1,0,0.1,0,0.2c0,0-0.1,0-0.2,0c-0.4,0-1.1,0-2,0.1
						c-0.9,0-1.8,0.1-2.7,0.2c-1,0.1-1.9,0.3-2.6,0.6c-1,0.3-1.7,0.9-2,1.7c-0.4,0.7-0.2,1.2,0,1.6c0.3,0.5,0.9,0.7,1.7,0.7l37.5,0
						c0.7,0,1.2-0.2,1.5-0.6c0.2-0.2,0.4-0.6,0.2-1.3c-0.2-0.7-0.6-1.2-1.2-1.6c0,0-0.1-0.1-0.1-0.1c-0.4-0.2-1.1-0.3-2-0.5
						c-0.9-0.1-1.8-0.3-2.8-0.4c-1-0.1-2-0.2-2.9-0.3c-1-0.1-1.6-0.1-2.1-0.1c0,0-0.2,0-0.5-0.4c-0.4-0.4-0.4-0.6-0.4-0.6
						c0-4,0-8.1-0.1-12.3c0-4-0.1-8.1-0.1-12.3c0-3,0-5.8,0.1-8.5c0-2.9,0.1-5.7,0.1-8.5V31.9c0-3.4,0.1-6.8,0.2-10.1
						c0.1-1.3,0.1-2.7,0.2-4.2c0-1.5,0.2-2.8,0.4-4c0,0,0,0,0-0.1c0-0.1,0-0.2,0.5-0.4c0,0,0.1,0,0.4,0c0.1,0,0.3,0,0.4,0
						c0.5,0,1.1,0.1,1.8,0.1c0.6,0,1.2,0.1,1.8,0.2c0.6,0.1,1,0.1,1.4,0.1c1.5,0.1,2.9,0.4,4.2,0.7c1.2,0.3,2.4,0.9,3.5,1.8
						c1.6,1.3,2.9,3,3.9,5c1,2,1.7,4.2,2.1,6.5c0.4,2.3,0.6,4.6,0.4,7c-0.1,2.3-0.5,4.5-1.1,6.4c-1.2,3.9-3.3,6.8-6.1,8.7
						c-2.8,1.9-6.3,3-10.4,3.1c0,0-0.1,0-0.1,0c-0.1,0-0.3,0-0.4,0c-0.2,0-0.4,0-0.7,0.1c0,0,0,0-0.1,0c-0.6,0.2-1,0.6-1.3,1.1
						c-0.2,0.5-0.3,1-0.2,1.6c0.1,0.6,0.4,1,0.8,1.4c0.3,0.3,0.8,0.7,1.7,0.7c1.3,0,2.7-0.1,4.1-0.2c1.4-0.1,2.7-0.3,4-0.4
						c2.5-0.3,5.3-0.8,8.3-1.4c3.1-0.7,6-1.7,8.7-3c2.7-1.4,5.1-3.1,7-5.3c2-2.2,3-5.1,3-8.5V26.5c0-3.1-1-5.7-3-7.9
						c-1.3-1.6-3-3-4.9-4.2c-1.9-1.2-3.8-2.2-5.9-3c-2.1-0.8-4.2-1.4-6.4-1.8C128.1,9.2,126,8.9,124,8.9L124,8.9z"/>
				</g>
				<g>
					<path class="st1" d="M159.2,89.1c-0.9,0-1.4-0.5-1.4-1.4c0-0.9,0.6-1.5,1.6-1.5c0.8,0,1.6,0.1,2.6,0.2c0.5,0.1,1,0.1,1.5,0.1
						c0.3,0,0.6,0,0.9,0c0.6-0.1,0.7-0.3,0.7-0.7V8.4c0-0.4-0.1-0.6-0.6-0.6h-5.3c-0.9,0-1.4-0.5-1.4-1.4c0-0.8,0.4-1.4,1.2-1.6
						l21.4-4.3c0.2,0,0.4-0.1,0.5-0.1c0.4,0,1.4,0.2,1.4,1.6v83.2c0,0.2,0.1,0.4,0.3,0.7c0.2,0.2,0.5,0.3,0.7,0.3h4.8
						c0.8,0,1.4,0.4,1.6,1.2c0.1,0.5,0,0.8-0.2,1c-0.3,0.3-0.7,0.5-1.3,0.5H159.2z"/>
					<path class="st2" d="M181,1c0.6,0,0.9,0.4,0.9,1.1v83.2c0,0.4,0.2,0.7,0.5,1c0.3,0.3,0.7,0.5,1,0.5h4.8c0.6,0,0.9,0.3,1.1,0.9
						c0.1,0.6-0.2,0.9-1,0.9h-29v0c-0.6,0-0.9-0.3-0.9-0.9c0-0.7,0.4-1,1.1-1c0.8,0,1.6,0.1,2.5,0.2c0.5,0.1,1.1,0.1,1.5,0.1
						c0.3,0,0.6,0,0.9,0c0.8-0.1,1.1-0.5,1.1-1.2V8.4c0-0.7-0.4-1.1-1.1-1.1h-5.3c-0.6,0-0.9-0.3-0.9-0.9c0-0.6,0.3-0.9,0.9-1.1
						l21.3-4.3C180.8,1,180.9,1,181,1 M181,0c-0.2,0-0.4,0-0.7,0.1L159,4.4c-1.1,0.3-1.7,1-1.7,2.1c0,1.1,0.7,1.9,1.9,1.9h5.3
						c0,0,0.1,0,0.1,0c0,0,0,0,0,0.1v77.4c0,0.1,0,0.1,0,0.2c0,0,0,0,0,0c0,0-0.1,0-0.2,0c-0.3,0-0.6,0-0.9,0c-0.4,0-0.9,0-1.4-0.1
						c-0.9-0.1-1.8-0.2-2.6-0.2c-1.6,0-2.1,1-2.1,2c0,1.1,0.7,1.9,1.9,1.9l29,0c0.8,0,1.3-0.2,1.7-0.7c0.2-0.3,0.4-0.7,0.3-1.4
						c-0.3-1-1-1.6-2.1-1.6h-4.8c-0.1,0-0.2-0.1-0.3-0.2c-0.1-0.1-0.2-0.2-0.2-0.3V2.1C182.9,0.6,181.9,0,181,0L181,0z"/>
				</g>
				<g>
					<path class="st1" d="M244.8,90.7c-0.3,0-0.6,0-0.8,0c-1.4,0-2.6-0.1-3.8-0.1c-0.3,0-0.5-0.1-0.7-0.2c-0.9-0.3-1.8-0.8-2.8-1.4
						c-1-0.7-1.9-1.5-2.7-2.3c-0.8-0.9-1.5-1.9-2.1-2.9c-0.6-1-0.9-2.1-0.9-3.1v-2.2l0.3-21.2c0-0.4-0.2-0.6-0.5-0.7
						c-0.2-0.1-0.5-0.1-0.8-0.1c-0.2,0-0.4,0-0.6,0c-0.6,0.1-1.3,0.2-1.9,0.4c-0.7,0.2-1.3,0.4-2,0.6c-0.6,0.2-1.1,0.4-1.4,0.6
						c-4.3,2.1-7.4,5.5-9.2,9.9c-0.7,1.6-1.1,3.4-1.3,5.2c-0.2,1.8,0,3.6,0.5,5.2c0.5,1.6,1.4,2.9,2.6,3.9c1.2,1,2.9,1.5,5.1,1.5
						c0.1,0,0.5,0,1.5-0.4c0.8-0.3,1.7-0.5,2.5-0.7c0.6-0.1,1.1-0.2,1.6-0.2c0.2,0,0.4,0,0.5,0c0.4,0.1,0.6,0.3,0.7,0.5
						c0.2,0.5,0,1-0.2,1.4c-1,1.9-2.7,3.4-5,4.3c-2.2,0.9-4.7,1.4-7.3,1.6c-0.4,0-0.9,0-1.3,0c-2.1,0-4.3-0.2-6.3-0.7
						c-2.5-0.6-4.5-1.4-6-2.6c-1.7-1.4-2.9-3-3.5-4.9c-0.6-1.8-0.9-3.8-0.9-5.9c0-3.3,0.8-6.1,2.5-8.5c1.6-2.3,3.7-4.3,6.2-5.9
						c2.5-1.6,5.2-2.9,8.1-3.8c2.8-0.9,5.6-1.7,8.2-2.3c0.5-0.1,1-0.2,1.8-0.3c0.7-0.1,1.5-0.2,2.3-0.4c0.8-0.1,1.5-0.3,2.2-0.4
						c0.8-0.2,1.2-0.3,1.3-0.4c0.6-0.3,0.9-0.7,0.9-1.3c0-0.8-0.1-1.6-0.1-2.2v-4c0-1.4-0.1-2.9-0.2-4.3c-0.1-1.4-0.4-2.8-0.8-4.1
						c-0.4-1.3-1-2.4-1.7-3.5c-1-1.4-2.3-2.1-4-2.1c-0.4,0-1.1,0-2-0.1c-0.9,0-1.8-0.1-2.7-0.1c-0.9,0-1.8,0-2.6,0.1
						c-1,0.1-1.3,0.2-1.4,0.3l0,0c0,0-0.2,0.2-0.3,1.2c-0.1,0.9-0.2,2-0.3,3.3c-0.1,1.3-0.3,2.7-0.5,4.1c-0.3,1.5-0.7,2.8-1.3,4.1
						c-0.6,1.3-1.5,2.4-2.6,3.2c-1.1,0.9-2.6,1.3-4.4,1.3c-2,0-3.6-0.5-4.6-1.5c-1.1-1-1.7-2.2-1.9-3.7c-0.2-1.4,0-2.9,0.5-4.4
						c0.5-1.5,1.3-2.8,2.4-4c1.4-1.5,3-2.7,4.8-3.7c1.8-1,3.8-1.7,5.8-2.2c2-0.5,4.1-0.9,6.2-1c2.1-0.2,4.1-0.3,6-0.3
						c1,0,2,0,3.1,0.1c1,0,2,0.1,3,0.1c2.2,0,4.4,0.5,6.3,1.5c2,1,3.7,2.3,5.1,3.9c1.4,1.6,2.6,3.4,3.4,5.5c0.8,2.1,1.2,4.2,1.2,6.4
						v36.1c0,0.4,0.1,0.7,0.3,0.9c0.3,0.3,0.6,0.5,0.9,0.7c0.6,0.4,1.1,0.7,1.5,0.8c0.2,0.1,0.5,0.1,0.7,0.1c0.1,0,0.3,0,0.4,0
						c0.3-0.1,0.7-0.2,1.1-0.4c0.5-0.2,1-0.5,1.7-0.7c0.6-0.2,1.1-0.4,1.4-0.4c0.2,0,0.4,0.1,0.5,0.2c0.2,0.3,0.3,0.7,0.1,1.5
						c-0.1,0.4-0.3,0.8-0.5,1.2c-0.2,0.3-0.5,0.6-0.7,0.8c-0.9,0.9-2.1,1.6-3.4,2c-1.3,0.4-2.7,0.7-4.1,0.8
						C247.1,90.6,245.9,90.7,244.8,90.7z"/>
					<path class="st2" d="M225.9,30c1,0,2,0,3,0.1c1,0,2,0.1,3,0.1c2.2,0,4.2,0.5,6.1,1.4c1.9,0.9,3.6,2.2,5,3.7
						c1.4,1.6,2.5,3.3,3.3,5.4c0.8,2,1.2,4.1,1.2,6.2v36.1c0,0.5,0.2,0.9,0.5,1.2c0.3,0.3,0.7,0.6,1,0.8c0.7,0.4,1.2,0.7,1.7,0.8
						c0.3,0.1,0.6,0.1,0.8,0.1c0.2,0,0.3,0,0.5,0c0.4-0.1,0.8-0.2,1.2-0.4c0.4-0.2,1-0.4,1.6-0.7c0.6-0.2,1-0.3,1.2-0.3
						c0.3,0,0.3,0.4,0.2,1.2c-0.1,0.4-0.2,0.7-0.4,1c-0.2,0.3-0.4,0.5-0.7,0.8c-0.9,0.9-1.9,1.5-3.2,1.9c-1.3,0.4-2.6,0.7-4,0.8
						c-1.1,0.1-2.2,0.2-3.3,0.2c-0.3,0-0.5,0-0.8,0c-1.4,0-2.6-0.1-3.8-0.1c-0.2,0-0.4,0-0.4-0.1c-0.9-0.3-1.8-0.8-2.7-1.4
						c-0.9-0.7-1.8-1.4-2.6-2.3c-0.8-0.9-1.5-1.8-2-2.8c-0.5-1-0.8-1.9-0.8-2.9v-2.2l0.3-21.2c0-0.6-0.3-1-0.9-1.2
						c-0.3-0.1-0.6-0.1-1-0.1c-0.2,0-0.4,0-0.6,0c-0.6,0.1-1.3,0.2-2,0.4c-0.7,0.2-1.4,0.4-2,0.7c-0.7,0.2-1.2,0.4-1.5,0.7
						c-4.4,2.2-7.5,5.6-9.4,10.2c-0.7,1.7-1.2,3.5-1.4,5.4c-0.2,1.9,0,3.7,0.5,5.4c0.5,1.7,1.5,3,2.8,4.1c1.3,1.1,3.1,1.6,5.4,1.6
						c0.3,0,0.8-0.1,1.7-0.4c0.8-0.3,1.6-0.5,2.4-0.7c0.6-0.1,1.1-0.2,1.5-0.2c0.2,0,0.3,0,0.4,0c0.5,0.1,0.5,0.5,0.2,1.2
						c-0.9,1.8-2.5,3.2-4.7,4.1c-2.2,0.9-4.6,1.4-7.2,1.5c-0.4,0-0.9,0-1.3,0c-2.1,0-4.2-0.2-6.2-0.7c-2.4-0.5-4.4-1.4-5.8-2.5
						c-1.7-1.3-2.8-2.9-3.4-4.7c-0.6-1.8-0.9-3.7-0.9-5.7c0-3.2,0.8-5.9,2.4-8.2c1.6-2.3,3.6-4.2,6.1-5.8c2.5-1.6,5.1-2.9,8-3.8
						c2.9-0.9,5.6-1.7,8.2-2.3c0.4-0.1,1-0.2,1.7-0.3c0.7-0.1,1.5-0.2,2.3-0.4c0.8-0.1,1.5-0.3,2.2-0.4c0.7-0.1,1.2-0.3,1.5-0.4
						c0.8-0.4,1.2-1,1.1-1.8c0-0.8-0.1-1.6-0.1-2.2c0-1.2,0-2.6,0-4c0-1.4-0.1-2.9-0.2-4.4c-0.1-1.5-0.4-2.9-0.8-4.2
						c-0.4-1.3-1-2.5-1.8-3.6c-1.1-1.5-2.6-2.3-4.4-2.3c-0.4,0-1.1,0-2-0.1c-0.9,0-1.8-0.1-2.8-0.1c-0.9,0-1.8,0-2.6,0.1
						c-0.8,0.1-1.3,0.2-1.6,0.3c-0.3,0.1-0.5,0.7-0.5,1.6c-0.1,0.9-0.2,2-0.3,3.3c-0.1,1.3-0.3,2.7-0.5,4.1c-0.3,1.4-0.7,2.7-1.2,4
						c-0.6,1.2-1.4,2.2-2.4,3c-1,0.8-2.4,1.2-4.1,1.2c-1.9,0-3.3-0.5-4.3-1.4c-1-0.9-1.6-2-1.7-3.4c-0.2-1.3,0-2.7,0.5-4.2
						c0.5-1.4,1.3-2.7,2.3-3.8c1.4-1.4,2.9-2.6,4.7-3.6c1.8-0.9,3.7-1.7,5.7-2.2c2-0.5,4.1-0.8,6.1-1C222,30.1,224,30,225.9,30
						 M225.9,29c-1.9,0-3.9,0.1-6,0.3c-2.1,0.2-4.2,0.5-6.3,1.1c-2.1,0.5-4.1,1.3-5.9,2.3c-1.9,1-3.5,2.3-5,3.8
						c-1.1,1.2-1.9,2.6-2.5,4.2c-0.6,1.6-0.7,3.2-0.5,4.6c0.2,1.6,0.9,2.9,2,4c1.2,1.1,2.8,1.6,5,1.6c1.9,0,3.4-0.5,4.7-1.4
						c1.2-0.9,2.1-2,2.7-3.4c0.6-1.3,1.1-2.7,1.3-4.2c0.3-1.4,0.4-2.8,0.6-4.2c0.1-1.3,0.2-2.4,0.3-3.3c0-0.4,0.1-0.7,0.1-0.8
						c0.2,0,0.5-0.1,1.1-0.2c0.8-0.1,1.6-0.1,2.5-0.1c0.9,0,1.8,0,2.7,0.1c0.9,0,1.6,0.1,2,0.1c1.5,0,2.7,0.6,3.6,1.9
						c0.7,1,1.3,2.1,1.6,3.3c0.4,1.3,0.6,2.6,0.8,4c0.1,1.4,0.2,2.9,0.2,4.3v4c0,0.7,0,1.5,0.1,2.3c0,0.4-0.1,0.6-0.6,0.8
						c-0.2,0.1-0.5,0.2-1.3,0.4c-0.7,0.1-1.4,0.3-2.2,0.4c-0.8,0.1-1.5,0.3-2.2,0.4c-0.7,0.1-1.3,0.2-1.7,0.3c0,0,0,0-0.1,0
						c-2.6,0.6-5.4,1.4-8.3,2.3c-2.9,1-5.7,2.3-8.2,3.9c-2.6,1.7-4.7,3.7-6.3,6.1c-1.7,2.4-2.6,5.4-2.6,8.8c0,2.1,0.3,4.2,0.9,6
						c0.6,2,1.9,3.7,3.7,5.1c1.5,1.2,3.6,2.2,6.2,2.7c2.1,0.5,4.2,0.7,6.4,0.7c0.4,0,0.9,0,1.3,0c2.7-0.1,5.2-0.6,7.5-1.6
						c2.4-1,4.2-2.5,5.2-4.5c0.1-0.3,0.6-1.2,0.2-1.9c-0.1-0.2-0.4-0.6-1.1-0.7c-0.2,0-0.4,0-0.6,0c-0.5,0-1,0.1-1.7,0.2
						c-0.8,0.2-1.7,0.4-2.5,0.7c-1.1,0.3-1.4,0.3-1.4,0.3c-2.1,0-3.7-0.5-4.8-1.4c-1.2-1-2-2.2-2.5-3.7c-0.5-1.5-0.7-3.2-0.5-5
						c0.2-1.8,0.6-3.5,1.3-5.1c1.8-4.4,4.8-7.6,9-9.7c0,0,0,0,0.1,0c0.3-0.2,0.7-0.4,1.3-0.6c0.6-0.2,1.3-0.4,2-0.6
						c0.6-0.2,1.2-0.3,1.8-0.4c0.2,0,0.3,0,0.5,0c0.3,0,0.5,0,0.7,0.1c0.2,0.1,0.2,0.1,0.2,0.2l-0.3,21.2l0,2.2
						c0,1.1,0.3,2.2,0.9,3.4c0.6,1,1.3,2,2.1,3c0.8,0.9,1.8,1.7,2.8,2.4c1,0.7,1.9,1.2,2.8,1.5c0.4,0.2,0.7,0.2,0.9,0.2
						c1.2,0,2.5,0,3.8,0.1c0.3,0,0.6,0,0.8,0c1.1,0,2.3-0.1,3.4-0.2c1.4-0.2,2.8-0.4,4.1-0.9c1.4-0.4,2.6-1.2,3.6-2.1
						c0.3-0.3,0.5-0.5,0.7-0.9c0.3-0.4,0.5-0.9,0.6-1.4c0.1-0.7,0.2-1.5-0.2-2c-0.2-0.3-0.6-0.4-0.9-0.4c-0.4,0-0.9,0.1-1.6,0.4
						c-0.7,0.2-1.2,0.5-1.7,0.7c-0.3,0.2-0.7,0.3-1,0.3c-0.1,0-0.2,0-0.3,0c-0.2,0-0.4,0-0.6-0.1c-0.2-0.1-0.7-0.2-1.4-0.7
						c-0.3-0.2-0.6-0.4-0.9-0.7c-0.1-0.1-0.2-0.2-0.2-0.5V46.8c0-2.2-0.4-4.4-1.3-6.5c-0.8-2.1-2-4-3.5-5.7c-1.5-1.6-3.3-3-5.3-4
						c-2-1-4.3-1.5-6.6-1.5c-1,0-2,0-3-0.1C227.9,29,226.9,29,225.9,29L225.9,29z"/>
				</g>
				<g>
					<path class="st1" d="M279.5,90.6c-1.4,0-2.8-0.4-4.1-1.2c-1.3-0.8-2.4-1.8-3.3-2.9c-0.9-1.1-1.7-2.4-2.3-3.9
						c-0.6-1.4-0.9-2.8-0.9-4.1V35.2c0-0.2,0-0.6-0.9-0.7c-0.3,0-0.7,0-1.1,0c-0.6,0-1.2,0-1.8,0.1c-1.1,0.1-2.1,0.2-3,0.2
						c-1.7,0-1.9-1.1-1.9-1.6c0-0.2,0-0.9,0.5-1.1c0.2-0.1,0.4-0.2,0.8-0.3c0.5-0.1,1.2-0.2,2-0.2c0.9-0.1,1.8-0.2,2.7-0.3
						c0.9-0.1,1.7-0.3,2.4-0.6c0.6-0.2,1-0.5,1.1-0.8c1.1-2.3,1.9-4.8,2.5-7.3c0.6-2.6,1.4-5.1,2.2-7.7c0.4-1,1-1.2,1.4-1.2
						c0,0,8.2-0.5,8.2-0.5c1.1,0,1.7,0.6,1.7,1.6v15.8c0,0.4,0.1,0.6,0.6,0.6h10.8c0.7,0,1.2,0.2,1.4,0.7c0.1,0.3,0.2,0.7,0.2,1.2
						c0,1-0.6,1.6-1.6,1.6h-10.8c-0.4,0-0.6,0.1-0.6,0.6v41.9c0,2.2,0.7,3.8,2.2,5c1.5,1.2,3.3,1.8,5.4,1.8c1.2,0,2.2-0.1,2.9-0.2
						c0.7-0.1,1.5-0.4,2.5-1c0.5-0.3,0.9-0.4,1.3-0.4c0.2,0,0.4,0.1,0.6,0.3c0.2,0.3,0.2,0.7,0.1,1.3c-0.2,0.7-0.6,1.5-1.4,2.3
						c-0.7,0.8-1.6,1.5-2.6,2.1c-1,0.6-2,1.2-3,1.6c-1.1,0.4-2,0.6-2.7,0.6H279.5z"/>
					<path class="st2" d="M284.2,13.6c0.8,0,1.2,0.4,1.2,1.1v15.8c0,0.7,0.4,1.1,1.1,1.1h10.8c0.5,0,0.8,0.1,0.9,0.4
						c0.1,0.3,0.2,0.6,0.2,1c0,0.7-0.4,1.1-1.1,1.1h-10.8c-0.7,0-1.1,0.4-1.1,1.1v41.9c0,2.3,0.8,4.1,2.4,5.4
						c1.6,1.3,3.5,1.9,5.7,1.9c1.2,0,2.2-0.1,2.9-0.2c0.7-0.1,1.6-0.5,2.7-1c0.4-0.2,0.8-0.3,1-0.3c0.3,0,0.3,0.3,0.2,1
						c-0.1,0.6-0.6,1.4-1.3,2.1c-0.7,0.8-1.6,1.4-2.5,2.1c-0.9,0.6-1.9,1.1-2.9,1.5c-1,0.4-1.8,0.6-2.5,0.6h-11.6
						c-1.3,0-2.6-0.4-3.8-1.1c-1.2-0.8-2.3-1.7-3.2-2.8c-0.9-1.1-1.6-2.4-2.2-3.7c-0.6-1.4-0.9-2.7-0.9-3.9V35.2
						c0-0.7-0.5-1.1-1.4-1.2c-0.4,0-0.7,0-1.1,0c-0.6,0-1.2,0-1.9,0.1c-1.1,0.1-2.1,0.2-3,0.2c-0.9,0-1.4-0.4-1.4-1.1
						c0-0.4,0.1-0.6,0.2-0.6c0.1-0.1,0.4-0.1,0.7-0.2c0.4-0.1,1.1-0.1,2-0.2c0.9-0.1,1.8-0.2,2.7-0.3c0.9-0.1,1.8-0.3,2.5-0.6
						c0.7-0.3,1.2-0.6,1.4-1c1.1-2.4,1.9-4.9,2.5-7.4c0.6-2.6,1.4-5.1,2.2-7.6c0.2-0.6,0.5-0.9,1-0.9L284.2,13.6 M284.2,12.6
						C284.2,12.6,284.2,12.6,284.2,12.6l-8.3,0.5c-0.5,0-1.4,0.2-1.9,1.5c-0.9,2.6-1.6,5.2-2.3,7.8c-0.6,2.5-1.4,4.9-2.5,7.2
						c0,0.1-0.2,0.3-0.8,0.5c-0.7,0.2-1.4,0.4-2.3,0.6c-0.9,0.1-1.8,0.2-2.6,0.3c-0.9,0.1-1.6,0.2-2,0.2c0,0-0.1,0-0.1,0
						c-0.4,0.1-0.6,0.2-0.9,0.3c-0.5,0.3-0.8,0.8-0.8,1.5c0,1,0.6,2.1,2.4,2.1c0.9,0,2-0.1,3.1-0.2c0.6-0.1,1.2-0.1,1.8-0.1
						c0.4,0,0.7,0,1.1,0c0.3,0,0.4,0.1,0.4,0.1c0,0,0,0,0,0.1v43.3c0,1.4,0.3,2.8,0.9,4.3c0.6,1.5,1.4,2.8,2.4,4
						c1,1.2,2.1,2.2,3.4,3c1.4,0.9,2.8,1.3,4.3,1.3h11.6c0.8,0,1.7-0.2,2.9-0.7c1.1-0.4,2.1-1,3.1-1.6c1-0.7,1.9-1.4,2.7-2.2
						c0.9-0.9,1.4-1.7,1.6-2.6c0.1-0.6,0.2-1.2-0.2-1.7c-0.2-0.3-0.6-0.4-0.9-0.4c-0.4,0-0.9,0.1-1.5,0.4c-1,0.5-1.8,0.8-2.4,0.9
						c-0.7,0.1-1.6,0.2-2.8,0.2c-2,0-3.7-0.5-5.1-1.7c-1.4-1.1-2-2.6-2-4.6V35.2c0,0,0-0.1,0-0.1c0,0,0,0,0.1,0h10.8
						c1.3,0,2.1-0.8,2.1-2.1c0-0.6-0.1-1-0.2-1.4c-0.2-0.5-0.7-1-1.8-1h-10.8c0,0-0.1,0-0.1,0c0,0,0,0,0-0.1V14.7
						C286.4,13.4,285.5,12.6,284.2,12.6L284.2,12.6z"/>
				</g>
				<g>
					<path class="st1" d="M336.7,90.6c-1.5,0-3-0.1-4.5-0.2c-3-0.3-5.7-1-8-1.9c-4.7-1.9-8.5-4.7-11.3-8.3c-2.8-3.6-4.8-7.7-5.8-12
						c-1-4.3-1.2-8.8-0.4-13.4c0.8-4.5,2.4-8.7,4.9-12.4c2.5-3.7,5.9-6.8,10.1-9.2c4.2-2.4,9.3-3.6,15.1-3.6c3.8,0,7.4,0.6,10.7,1.8
						c3.4,1.2,6.3,3.4,8.6,6.6c0.9,1.2,1.7,2.6,2.4,4.3c0.7,1.7,1.3,3.5,1.8,5.3c0.5,1.8,0.8,3.6,1.1,5.5c0.3,1.8,0.3,3.5,0.2,4.9
						c-0.1,0.5-0.2,0.8-0.3,1c-0.3,0.5-1,0.5-1.2,0.5h-32.4c-0.6,0-1-0.1-1.4-0.4c-0.4-0.3-0.6-0.7-0.6-1.1c0-0.4,0.2-0.8,0.6-1.1
						c0.3-0.3,0.9-0.4,1.7-0.4h11.3c1.6,0,2.8-0.4,3.7-1.2c0.9-0.8,1.6-2,2.3-3.4c0,0,0-0.1,0.1-0.1c0,0,0,0,0-0.1
						c0-1.7,0-3.3,0.1-4.8c0.1-1.5-0.1-3.1-0.4-4.7c-0.6-2.7-1.6-4.9-3-6.7c-1.4-1.7-3.6-2.6-6.4-2.6c-2.3,0-4.1,0.8-5.6,2.4
						c-1.5,1.5-2.6,3.3-3.4,5.3c-0.8,2.1-1.4,4.3-1.8,6.6c-0.4,2.3-0.6,4.6-0.7,6.9c-0.1,2.3-0.1,4.4-0.1,6.5c0,2.9,0.4,5.8,1.3,8.5
						c0.9,2.7,2.2,5.3,3.9,7.5c1.3,1.8,2.9,3.2,4.7,4.4c1.8,1.2,3.7,2,5.7,2.5c1.4,0.3,2.8,0.5,4.3,0.5c0.6,0,1.3,0,1.9-0.1
						c2.1-0.2,4.2-0.8,6.2-1.9c1-0.6,1.9-1.2,2.8-1.8c0.9-0.7,1.8-1.3,2.9-1.9c0.6-0.4,1.1-0.6,1.5-0.7c0,0,0,0,0,0
						c0.3,0,0.5,0.1,0.6,0.2c0.3,0.3,0.3,0.8,0.3,1.7c-0.1,0.8-0.4,1.6-1,2.5c-0.6,0.8-1.1,1.4-1.6,2c-1.9,1.8-4.3,3.2-7.1,4.3
						c-2.8,1.1-5.7,1.8-8.8,2.1C339.7,90.5,338.2,90.6,336.7,90.6z"/>
					<path class="st2" d="M336.8,30.1c3.8,0,7.3,0.6,10.6,1.8c3.3,1.2,6.1,3.3,8.4,6.4c0.9,1.2,1.7,2.6,2.4,4.2
						c0.7,1.7,1.3,3.4,1.8,5.2c0.5,1.8,0.8,3.6,1.1,5.4c0.3,1.8,0.3,3.4,0.2,4.8c-0.1,0.4-0.2,0.6-0.3,0.8c-0.1,0.2-0.4,0.3-0.8,0.3
						h-32.4c-0.4,0-0.8-0.1-1-0.3c-0.3-0.2-0.4-0.5-0.4-0.8c0-0.3,0.1-0.5,0.4-0.8c0.3-0.2,0.7-0.3,1.4-0.3h11.3
						c1.7,0,3.1-0.4,4-1.3c0.9-0.9,1.7-2.1,2.4-3.6c0.1-0.1,0.1-0.2,0.1-0.4c0-1.7,0-3.3,0.1-4.8c0.1-1.6-0.1-3.2-0.4-4.8
						c-0.6-2.7-1.6-5-3.1-6.9c-1.5-1.8-3.8-2.8-6.8-2.8c-2.4,0-4.4,0.9-6,2.6c-1.5,1.5-2.7,3.3-3.5,5.5c-0.8,2.1-1.4,4.4-1.8,6.7
						c-0.4,2.3-0.6,4.6-0.7,6.9c-0.1,2.3-0.1,4.5-0.1,6.5c0,3,0.5,5.9,1.4,8.7c0.9,2.8,2.2,5.4,4,7.7c1.4,1.8,3,3.3,4.8,4.6
						c1.8,1.2,3.8,2.1,5.9,2.6c1.4,0.4,2.9,0.5,4.4,0.5c0.6,0,1.3,0,2-0.1c2.2-0.2,4.3-0.9,6.3-2c1-0.6,2-1.2,2.8-1.8
						c0.9-0.7,1.8-1.3,2.8-1.8c0.6-0.4,1-0.6,1.3-0.6c0,0,0,0,0,0c0.3,0,0.4,0.5,0.3,1.4c-0.1,0.7-0.4,1.5-0.9,2.2
						c-0.5,0.8-1.1,1.4-1.6,1.9c-1.9,1.7-4.2,3.1-6.9,4.2c-2.7,1-5.6,1.7-8.7,2.1c-1.5,0.2-3,0.2-4.5,0.2s-3-0.1-4.5-0.2
						c-3-0.3-5.6-1-7.9-1.9c-4.6-1.9-8.3-4.6-11.1-8.2c-2.8-3.6-4.7-7.5-5.7-11.8c-1-4.3-1.1-8.7-0.4-13.2c0.8-4.5,2.4-8.5,4.8-12.2
						c2.5-3.6,5.8-6.6,9.9-9C326,31.3,331,30.1,336.8,30.1 M336.8,29.1c-5.9,0-11.1,1.2-15.4,3.7c-4.3,2.4-7.7,5.5-10.3,9.3
						c-2.5,3.7-4.2,8-5,12.6c-0.8,4.6-0.6,9.2,0.4,13.6c1,4.4,3,8.5,5.9,12.2c2.9,3.7,6.8,6.6,11.5,8.5c2.4,1,5.1,1.6,8.2,2
						c1.5,0.2,3.1,0.2,4.6,0.2c1.5,0,3.1-0.1,4.6-0.2c3.1-0.3,6.1-1,8.9-2.1c2.8-1.1,5.3-2.6,7.3-4.4c0.6-0.6,1.1-1.3,1.7-2.1
						c0.6-0.9,1-1.8,1.1-2.7c0.1-1.1,0-1.7-0.4-2.1c-0.2-0.3-0.5-0.4-0.9-0.4c0,0-0.1,0-0.2,0c-0.5,0.1-1,0.3-1.7,0.7
						c-1,0.6-2,1.2-2.9,1.9c-0.8,0.6-1.7,1.2-2.7,1.8c-1.9,1-3.9,1.6-5.9,1.8c-0.6,0.1-1.3,0.1-1.9,0.1c-1.4,0-2.8-0.2-4.2-0.5
						c-1.9-0.5-3.8-1.3-5.5-2.5c-1.7-1.2-3.3-2.6-4.6-4.3c-1.7-2.2-2.9-4.7-3.8-7.4c-0.9-2.7-1.3-5.5-1.3-8.4c0-2,0-4.2,0.1-6.5
						c0.1-2.3,0.3-4.5,0.7-6.8c0.4-2.2,1-4.4,1.8-6.5c0.8-2,1.9-3.7,3.3-5.1c1.4-1.6,3.1-2.3,5.3-2.3c2.7,0,4.7,0.8,6.1,2.4
						c1.4,1.7,2.4,3.9,2.9,6.5c0.3,1.6,0.5,3.1,0.4,4.6c-0.1,1.6-0.1,3.2-0.1,4.8c0,0,0,0,0,0.1c-0.6,1.4-1.3,2.5-2.1,3.2
						c-0.7,0.7-1.9,1-3.3,1H328c-0.9,0-1.6,0.2-2,0.6c-0.5,0.4-0.7,0.9-0.7,1.5c0,0.4,0.1,1,0.7,1.5c0.4,0.4,1,0.6,1.7,0.6h32.4
						c0.8,0,1.4-0.3,1.7-0.8c0.2-0.3,0.3-0.7,0.4-1.1c0,0,0-0.1,0-0.1c0.2-1.4,0.1-3.1-0.2-5c-0.3-1.8-0.6-3.7-1.1-5.5
						c-0.5-1.8-1.1-3.6-1.8-5.3c-0.8-1.7-1.6-3.2-2.5-4.4c-2.4-3.2-5.4-5.5-8.9-6.8C344.3,29.7,340.6,29.1,336.8,29.1L336.8,29.1z"
						/>
				</g>
			</g>
		</g>
		<g>
			<path class="st1" d="M308.4,113.4c-0.3-1.2-0.8-2.3-1.4-3.1c-0.7-0.9-1.7-1.3-3-1.3c-1.4,0-2.4,0.4-3.2,1.3
				c-0.7,0.8-1.3,1.9-1.6,3.1c-0.3,1.2-0.5,2.5-0.6,3.8c0,1.3-0.1,2.5-0.1,3.4c0,0.6,0,1.3,0,2.1c0,0.8,0.1,1.7,0.2,2.5
				c0.1,0.9,0.2,1.7,0.5,2.6c0.2,0.8,0.5,1.6,0.9,2.2c0.4,0.6,0.9,1.2,1.5,1.6c0.6,0.4,1.3,0.6,2.2,0.6c0.9,0,1.7-0.2,2.2-0.6
				s1.1-0.9,1.4-1.6c0.4-0.6,0.7-1.4,0.9-2.2c0.2-0.8,0.3-1.7,0.4-2.6c0.1-0.9,0.1-1.7,0.1-2.5c0-0.8,0-1.5,0-2.1c0-0.9,0-2,0-3.3
				C308.9,115.9,308.7,114.6,308.4,113.4z"/>
			<path class="st1" d="M83.9,94.1V138h277.3V94.1H83.9z M135,117.2c-0.2,0.3-0.4,0.4-0.8,0.5c-0.3,0.1-0.7,0.1-1,0.2
				c-0.3,0-0.6,0.1-0.9,0.2c-0.2,0.1-0.4,0.2-0.4,0.4v11.9c0,0.2-0.1,0.3-0.2,0.4c-0.5,0.3-0.9,0.6-1.4,0.7c-0.5,0.2-1,0.4-1.5,0.7
				c-1.2,0.5-2.4,0.9-3.7,1c-1.3,0.1-2.6,0.2-3.9,0.2c-2.6,0-5-0.4-7.1-1.3c-2.1-0.8-4-2-5.5-3.6c-1.5-1.5-2.7-3.3-3.6-5.5
				c-0.9-2.1-1.3-4.5-1.3-7.1c0-2.7,0.4-5.1,1.3-7.2c0.9-2.1,2.1-4,3.7-5.5c1.6-1.5,3.4-2.7,5.6-3.5c2.2-0.8,4.6-1.2,7.2-1.2
				c0.3,0,1,0.1,2,0.2c1,0.1,2.1,0.3,3.1,0.5c1.1,0.2,2.1,0.4,2.9,0.7c0.8,0.3,1.3,0.5,1.3,0.8v7.4c0,0.3-0.2,0.5-0.5,0.5h-1.7
				c-0.2,0-0.3-0.1-0.3-0.2c0-0.1,0-0.3-0.1-0.4c-0.1-0.7-0.3-1.4-0.5-2.1c-0.2-0.7-0.5-1.4-0.6-2.1c-0.1-0.5-0.2-0.9-0.4-1.4
				c-0.1-0.5-0.3-0.9-0.5-1.4c-0.1-0.2-0.2-0.4-0.2-0.5c-0.1-0.1-0.2-0.2-0.4-0.4c-0.5-0.3-1-0.5-1.6-0.4c-0.6,0-1.1,0.1-1.7,0.1
				c-2,0-3.7,0.4-5.3,1.3c-1.5,0.9-2.8,2.2-3.8,3.9c-0.8,1.5-1.5,3.3-1.9,5.2c-0.4,1.9-0.6,3.8-0.6,5.8c0,2,0.2,3.9,0.6,5.8
				c0.4,1.9,1.1,3.6,1.9,5.1c1,1.7,2.3,3,3.9,3.9c1.7,0.9,3.5,1.4,5.4,1.4c0.3,0,0.6,0,1.1,0c0.5,0,0.8-0.1,1-0.2
				c0.1,0,0.1-0.1,0.1-0.1c0-0.1,0-0.1,0-0.2v-12.9c0-0.1,0-0.2-0.1-0.3c-0.1-0.1-0.2-0.2-0.3-0.3c-0.1-0.1-0.3-0.2-0.4-0.2
				c-0.2,0-0.5,0-0.8,0c-0.4,0-0.7-0.1-1.1-0.1c-0.4,0-0.8-0.1-1.1-0.2c-0.3-0.1-0.6-0.1-0.7-0.2c-0.2-0.1-0.2-0.2-0.2-0.4
				c0-0.2,0.1-0.3,0.3-0.3h14c0.1,0,0.2,0,0.3,0.1C135.1,116.9,135.1,117,135,117.2z M160.6,119.7c0,0.2-0.1,0.3-0.1,0.3
				c0,0.1-0.2,0.1-0.3,0.1h-13.5c-0.2,0-0.3,0-0.4-0.1c-0.1-0.1-0.2-0.2-0.2-0.3c0-0.1,0.1-0.2,0.2-0.3c0.1-0.1,0.3-0.1,0.6-0.1h4.7
				c0.7,0,1.3-0.2,1.7-0.5c0.4-0.4,0.7-0.9,1-1.5c0,0,0-0.1,0-0.2c0-0.7,0-1.4,0-2c0-0.6,0-1.3-0.2-2c-0.2-1.1-0.7-2.1-1.3-2.9
				c-0.6-0.8-1.6-1.2-2.9-1.2c-1,0-1.8,0.4-2.5,1.1c-0.6,0.6-1.1,1.4-1.5,2.3c-0.3,0.9-0.6,1.8-0.8,2.8c-0.2,1-0.3,1.9-0.3,2.9
				c0,1,0,1.9,0,2.7c0,1.2,0.2,2.4,0.6,3.6c0.4,1.2,0.9,2.2,1.7,3.2c0.6,0.8,1.2,1.4,2,1.9c0.8,0.5,1.6,0.9,2.4,1.1
				c0.9,0.2,1.7,0.3,2.7,0.2c0.9-0.1,1.8-0.4,2.6-0.8c0.4-0.2,0.8-0.5,1.2-0.8c0.4-0.3,0.8-0.5,1.2-0.8c0.2-0.2,0.4-0.2,0.5-0.2
				c0.1,0,0.2,0.2,0.1,0.6c0,0.3-0.2,0.6-0.4,0.9c-0.2,0.3-0.4,0.6-0.7,0.8c-0.8,0.7-1.8,1.3-2.9,1.7c-1.1,0.4-2.4,0.7-3.6,0.9
				c-1.3,0.1-2.5,0.1-3.8,0c-1.2-0.1-2.3-0.4-3.3-0.8c-1.9-0.8-3.5-1.9-4.6-3.4c-1.2-1.5-2-3.1-2.4-4.9c-0.4-1.8-0.5-3.6-0.2-5.5
				c0.3-1.9,1-3.6,2-5.1c1-1.5,2.4-2.8,4.1-3.8c1.7-1,3.8-1.5,6.2-1.5c1.6,0,3,0.2,4.4,0.7c1.4,0.5,2.5,1.4,3.5,2.7
				c0.4,0.5,0.7,1.1,1,1.8c0.3,0.7,0.6,1.4,0.7,2.2c0.2,0.8,0.3,1.5,0.5,2.3C160.6,118.4,160.6,119.1,160.6,119.7z M176.2,132.5
				h-11.5c-0.2,0-0.4-0.1-0.4-0.4c0-0.2,0.1-0.4,0.4-0.4c0.3,0,0.6,0,0.9,0c0.3,0,0.6,0,0.9,0c0.3,0,0.4-0.2,0.4-0.5v-19.6
				c0-0.3-0.2-0.5-0.5-0.5h-2.4c-0.1,0-0.2,0-0.2-0.1c0-0.1,0-0.1,0-0.2c0.1-0.1,0.1-0.2,0.2-0.2c0-0.1,0.1-0.2,0.3-0.2l8-2.4
				c0.4-0.1,0.7,0,1,0.2c0.2,0.3,0.4,0.6,0.4,1c0.1,0.4,0.1,0.9,0.1,1.3c0,0.5-0.1,0.8-0.1,1c0,0.2,0,0.3,0,0.5
				c0.1,0.2,0.1,0.4,0.2,0.5v18.6l0.1,0.2c0.2,0.1,0.4,0.1,0.6,0.2c0.3,0,0.5,0.1,0.8,0.1c0.3,0,0.5,0.1,0.7,0.2
				c0.2,0.1,0.3,0.2,0.3,0.3C176.5,132.4,176.4,132.5,176.2,132.5z M192.4,132.4c-0.1,0-0.2,0.1-0.3,0.1h-11.6
				c-0.2,0-0.4-0.1-0.4-0.4c0-0.2,0.1-0.4,0.4-0.4c0.3,0,0.6,0,0.9,0c0.3,0,0.6,0,0.9,0c0.3,0,0.4-0.2,0.4-0.5v-17.2
				c0-0.8-0.2-1.5-0.5-2c-0.3-0.5-0.8-0.8-1.3-1c-0.5-0.2-1.1-0.3-1.8-0.2c-0.6,0-1.3,0.2-2,0.4c-0.2,0.1-0.4,0.1-0.6,0.2
				c-0.2,0.1-0.4,0.2-0.6,0.3l-0.5,0.3c-0.1,0.1-0.2,0.2-0.2,0.2c-0.2,0.1-0.4,0-0.5-0.1c-0.1-0.1-0.1-0.3,0.1-0.5
				c0,0,0.2-0.2,0.5-0.5c0.3-0.3,0.4-0.4,0.5-0.5c1-1,2-1.7,3-2.1c1-0.4,2.2-0.6,3.6-0.6c0.9,0,1.7,0.1,2.6,0.4
				c0.9,0.3,1.6,0.7,2.3,1.2c0.7,0.5,1.2,1.1,1.6,1.9c0.4,0.8,0.6,1.6,0.6,2.6v17.2c0,0.2,0.1,0.3,0.4,0.4c0.3,0,0.6,0,0.9,0
				c0.3,0,0.6,0,1,0.1c0.3,0,0.5,0.2,0.6,0.3C192.5,132.3,192.5,132.4,192.4,132.4z M218.7,119.7c0,0.2-0.1,0.3-0.1,0.3
				c0,0.1-0.2,0.1-0.3,0.1h-13.5c-0.2,0-0.3,0-0.4-0.1c-0.1-0.1-0.2-0.2-0.2-0.3c0-0.1,0.1-0.2,0.2-0.3c0.1-0.1,0.3-0.1,0.6-0.1h4.7
				c0.7,0,1.3-0.2,1.7-0.5c0.4-0.4,0.7-0.9,1-1.5c0,0,0-0.1,0-0.2c0-0.7,0-1.4,0-2c0-0.6,0-1.3-0.2-2c-0.2-1.1-0.7-2.1-1.3-2.9
				c-0.6-0.8-1.6-1.2-2.9-1.2c-1,0-1.8,0.4-2.5,1.1c-0.6,0.6-1.1,1.4-1.5,2.3c-0.3,0.9-0.6,1.8-0.8,2.8c-0.2,1-0.3,1.9-0.3,2.9
				c0,1,0,1.9,0,2.7c0,1.2,0.2,2.4,0.6,3.6c0.4,1.2,0.9,2.2,1.7,3.2c0.6,0.8,1.2,1.4,2,1.9c0.8,0.5,1.6,0.9,2.4,1.1
				c0.9,0.2,1.7,0.3,2.7,0.2c0.9-0.1,1.8-0.4,2.6-0.8c0.4-0.2,0.8-0.5,1.2-0.8c0.4-0.3,0.8-0.5,1.2-0.8c0.2-0.2,0.4-0.2,0.5-0.2
				c0.1,0,0.2,0.2,0.1,0.6c0,0.3-0.2,0.6-0.4,0.9c-0.2,0.3-0.4,0.6-0.7,0.8c-0.8,0.7-1.8,1.3-2.9,1.7c-1.1,0.4-2.4,0.7-3.6,0.9
				c-1.3,0.1-2.5,0.1-3.8,0c-1.2-0.1-2.3-0.4-3.3-0.8c-1.9-0.8-3.5-1.9-4.6-3.4c-1.2-1.5-2-3.1-2.4-4.9c-0.4-1.8-0.5-3.6-0.2-5.5
				c0.3-1.9,1-3.6,2-5.1c1-1.5,2.4-2.8,4.1-3.8c1.7-1,3.8-1.5,6.2-1.5c1.6,0,3,0.2,4.4,0.7c1.4,0.5,2.5,1.4,3.5,2.7
				c0.4,0.5,0.7,1.1,1,1.8c0.3,0.7,0.6,1.4,0.7,2.2c0.2,0.8,0.3,1.5,0.5,2.3C218.7,118.4,218.7,119.1,218.7,119.7z M240.6,114.1
				c-0.4,0-0.8,0-1.1-0.1c-0.3-0.1-0.7-0.2-1-0.5c-0.1-0.1-0.2-0.2-0.4-0.4c-0.2-0.2-0.4-0.4-0.6-0.6c-0.2-0.2-0.4-0.4-0.6-0.6
				c-0.2-0.2-0.3-0.3-0.3-0.3c-0.2-0.1-0.5,0-0.7,0c-0.5,0.2-0.9,0.5-1.4,1.1c-0.5,0.6-0.9,1.2-1.2,1.9c-0.3,0.7-0.6,1.4-0.8,2.2
				c-0.2,0.7-0.3,1.3-0.3,1.8v12.2c0,0.2,0.1,0.3,0.3,0.6c0.2,0.2,0.4,0.4,0.5,0.4h3.1l0.2,0.1c0.1,0.1,0.1,0.2,0.1,0.4
				c0,0.1-0.1,0.2-0.3,0.2h-13.3c-0.2,0-0.4-0.1-0.4-0.4c0-0.2,0.1-0.4,0.4-0.4c0.3,0,0.6,0,0.9,0c0.3,0,0.6,0,0.9,0
				c0.3,0,0.4-0.2,0.4-0.5v-19.6c0-0.3-0.2-0.5-0.5-0.5c-0.3,0-0.7,0-1.1,0c-0.4,0-0.8,0-1.1,0s-0.4-0.1-0.4-0.4
				c0.1-0.1,0.1-0.2,0.2-0.2c0-0.1,0.1-0.2,0.3-0.2l8-2.4c0.2-0.1,0.3-0.1,0.6,0c0.2,0,0.4,0.1,0.5,0.3c0.1,0.2,0.2,0.4,0.2,0.9
				c0,0.4,0.1,0.9,0.1,1.4c0,0.5,0.1,1,0.1,1.5c0,0.5,0.1,0.8,0.1,1c0,0.2,0.1,0.2,0.1,0.3c0,0,0.1,0.1,0.2,0.1c0.3,0,0.6-0.2,1-0.8
				c0.4-0.6,0.9-1.2,1.4-1.9c0.6-0.7,1.2-1.3,2-1.9s1.7-0.9,2.7-0.9c0.5,0,1,0.1,1.4,0.2c0.5,0.1,0.9,0.3,1.3,0.5
				c0.4,0.2,0.7,0.6,0.9,1c0.2,0.4,0.3,0.9,0.3,1.4C243.6,113.1,242.6,114.1,240.6,114.1z M270.3,131.2c0,0.2-0.1,0.3-0.2,0.4
				c-0.1,0.1-0.2,0.2-0.3,0.3c-0.4,0.4-0.8,0.6-1.3,0.8c-0.5,0.2-1.1,0.3-1.7,0.3c-0.6,0.1-1.1,0.1-1.7,0.1c-0.6,0-1.1,0-1.6,0
				c-0.1,0-0.2,0-0.2,0c-0.4-0.1-0.7-0.3-1.1-0.6c-0.4-0.3-0.8-0.6-1.1-1c-0.3-0.4-0.6-0.7-0.8-1.2c-0.2-0.4-0.3-0.8-0.3-1.2v-0.9
				l0.1-8.9c0-0.2-0.1-0.4-0.4-0.5c-0.2-0.1-0.4-0.1-0.7,0c-0.3,0-0.6,0.1-0.8,0.2c-0.3,0.1-0.6,0.2-0.8,0.3
				c-0.3,0.1-0.5,0.2-0.6,0.3c-1.8,0.9-3.2,2.3-3.9,4.3c-0.3,0.7-0.5,1.4-0.6,2.2c-0.1,0.8,0,1.5,0.2,2.2c0.2,0.7,0.6,1.3,1.2,1.7
				c0.5,0.5,1.3,0.7,2.3,0.7c0.1,0,0.4-0.1,0.7-0.2c0.3-0.1,0.7-0.2,1-0.3c0.3-0.1,0.6-0.1,0.8-0.1c0.2,0,0.2,0.2,0.1,0.5
				c-0.4,0.8-1,1.3-2,1.7c-0.9,0.4-1.9,0.6-3,0.6c-1.1,0-2.1,0-3.1-0.3c-1-0.2-1.8-0.6-2.4-1.1c-0.7-0.5-1.2-1.2-1.4-1.9
				c-0.2-0.8-0.4-1.6-0.4-2.4c0-1.3,0.3-2.5,1-3.4c0.7-1,1.5-1.8,2.5-2.4c1-0.7,2.1-1.2,3.3-1.6c1.2-0.4,2.3-0.7,3.4-1
				c0.2,0,0.4-0.1,0.7-0.1c0.3,0,0.6-0.1,1-0.2c0.3-0.1,0.6-0.1,0.9-0.2c0.3-0.1,0.5-0.1,0.6-0.2c0.3-0.2,0.5-0.4,0.5-0.7
				c0-0.3,0-0.7,0-0.9c0-0.5,0-1.1,0-1.7c0-0.6,0-1.2-0.1-1.8c-0.1-0.6-0.2-1.2-0.3-1.8c-0.2-0.6-0.4-1.1-0.7-1.5
				c-0.5-0.6-1.1-1-1.9-1c-0.2,0-0.5,0-0.8,0c-0.4,0-0.8,0-1.2,0c-0.4,0-0.8,0-1.1,0c-0.3,0-0.6,0.1-0.7,0.1
				c-0.1,0.1-0.2,0.3-0.2,0.7c0,0.4-0.1,0.8-0.1,1.4c0,0.5-0.1,1.1-0.2,1.7c-0.1,0.6-0.3,1.1-0.5,1.7c-0.2,0.5-0.6,0.9-1,1.3
				c-0.4,0.3-1,0.5-1.7,0.5c-0.8,0-1.4-0.2-1.8-0.6c-0.4-0.4-0.6-0.8-0.7-1.4c-0.1-0.6,0-1.1,0.2-1.7c0.2-0.6,0.5-1.1,1-1.6
				c0.6-0.6,1.2-1.1,2-1.5c0.7-0.4,1.5-0.7,2.4-0.9c0.8-0.2,1.7-0.4,2.6-0.4c0.9-0.1,1.7-0.1,2.5-0.1c0.4,0,0.8,0,1.3,0
				c0.4,0,0.8,0,1.3,0c0.9,0,1.8,0.2,2.6,0.6c0.8,0.4,1.5,0.9,2.1,1.6c0.6,0.6,1,1.4,1.4,2.2c0.3,0.8,0.5,1.7,0.5,2.6v15.1
				c0,0.2,0.1,0.4,0.2,0.5c0.1,0.1,0.3,0.2,0.4,0.3c0.3,0.2,0.5,0.3,0.7,0.3c0.2,0,0.4,0.1,0.5,0c0.2,0,0.3-0.1,0.5-0.2
				c0.2-0.1,0.4-0.2,0.7-0.3c0.2-0.1,0.4-0.1,0.5-0.1C270.4,130.7,270.4,130.9,270.3,131.2z M288.7,130.5c-0.1,0.3-0.2,0.6-0.5,0.9
				c-0.3,0.3-0.6,0.6-1,0.9c-0.4,0.3-0.8,0.5-1.2,0.6c-0.4,0.2-0.8,0.2-1,0.2H280c-0.5,0-1.1-0.2-1.6-0.5c-0.5-0.3-1-0.7-1.3-1.2
				c-0.4-0.5-0.7-1-0.9-1.6c-0.2-0.6-0.4-1.1-0.4-1.6v-18.1c0-0.3-0.2-0.5-0.6-0.5c-0.4,0-0.8,0-1.2,0c-0.5,0-0.9,0.1-1.2,0.1
				c-0.4,0-0.6-0.2-0.6-0.5c0-0.2,0-0.2,0.1-0.3c0.1,0,0.2-0.1,0.3-0.1c0.2,0,0.5-0.1,0.8-0.1c0.4,0,0.7-0.1,1.1-0.1
				c0.4-0.1,0.7-0.1,1-0.2c0.3-0.1,0.5-0.2,0.6-0.4c0.5-1,0.8-2,1.1-3.1c0.3-1.1,0.6-2.1,0.9-3.2c0.1-0.2,0.2-0.4,0.4-0.4l3.4-0.2
				c0.3,0,0.5,0.2,0.5,0.5v6.6c0,0.3,0.2,0.5,0.5,0.5h4.5c0.2,0,0.3,0.1,0.4,0.2c0,0.1,0.1,0.2,0.1,0.4c0,0.3-0.2,0.5-0.5,0.5h-4.5
				c-0.3,0-0.5,0.2-0.5,0.5v17.5c0,1,0.3,1.7,1,2.2c0.7,0.5,1.5,0.8,2.4,0.8c0.5,0,0.9,0,1.2-0.1c0.3,0,0.7-0.2,1.1-0.4
				c0.2-0.1,0.3-0.1,0.4-0.1C288.8,130.1,288.8,130.2,288.7,130.5z M315.3,125.8c-0.6,1.5-1.4,2.8-2.5,3.9c-1.1,1.1-2.3,1.9-3.8,2.5
				c-1.5,0.6-3.2,0.9-5,0.9c-1.9,0-3.6-0.3-5.1-0.9c-1.5-0.6-2.9-1.5-4-2.6c-1.1-1.1-2-2.4-2.6-4c-0.6-1.5-0.9-3.2-0.9-5.1
				c0-1.8,0.3-3.5,0.9-5.1c0.6-1.5,1.5-2.9,2.6-4c1.1-1.1,2.4-2,4-2.6c1.5-0.6,3.2-0.9,5.1-0.9c1.9,0,3.7,0.3,5.2,0.9
				c1.5,0.6,2.8,1.5,3.8,2.6c1,1.1,1.8,2.5,2.4,4c0.6,1.6,0.8,3.3,0.8,5.2C316.1,122.6,315.9,124.3,315.3,125.8z M338.3,114.1
				c-0.4,0-0.8,0-1.1-0.1c-0.3-0.1-0.7-0.2-1-0.5c-0.1-0.1-0.2-0.2-0.4-0.4c-0.2-0.2-0.4-0.4-0.6-0.6c-0.2-0.2-0.4-0.4-0.6-0.6
				c-0.2-0.2-0.3-0.3-0.3-0.3c-0.2-0.1-0.5,0-0.7,0c-0.5,0.2-0.9,0.5-1.4,1.1c-0.5,0.6-0.9,1.2-1.2,1.9c-0.3,0.7-0.6,1.4-0.8,2.2
				c-0.2,0.7-0.3,1.3-0.3,1.8v12.2c0,0.2,0.1,0.3,0.3,0.6c0.2,0.2,0.4,0.4,0.5,0.4h3.1l0.2,0.1c0.1,0.1,0.1,0.2,0.1,0.4
				c0,0.1-0.1,0.2-0.3,0.2h-13.3c-0.2,0-0.4-0.1-0.4-0.4c0-0.2,0.1-0.4,0.4-0.4c0.3,0,0.6,0,0.9,0c0.3,0,0.6,0,0.9,0
				c0.3,0,0.4-0.2,0.4-0.5v-19.6c0-0.3-0.2-0.5-0.5-0.5c-0.3,0-0.7,0-1.1,0c-0.4,0-0.8,0-1.1,0s-0.4-0.1-0.4-0.4
				c0.1-0.1,0.1-0.2,0.2-0.2c0-0.1,0.1-0.2,0.3-0.2l8-2.4c0.2-0.1,0.3-0.1,0.6,0c0.2,0,0.4,0.1,0.5,0.3c0.1,0.2,0.2,0.4,0.2,0.9
				c0,0.4,0.1,0.9,0.1,1.4c0,0.5,0.1,1,0.1,1.5c0,0.5,0.1,0.8,0.1,1c0,0.2,0.1,0.2,0.1,0.3c0,0,0.1,0.1,0.2,0.1c0.3,0,0.6-0.2,1-0.8
				c0.4-0.6,0.9-1.2,1.4-1.9c0.6-0.7,1.2-1.3,2-1.9s1.7-0.9,2.7-0.9c0.5,0,1,0.1,1.4,0.2c0.5,0.1,0.9,0.3,1.3,0.5
				c0.4,0.2,0.7,0.6,0.9,1c0.2,0.4,0.3,0.9,0.3,1.4C341.4,113.1,340.3,114.1,338.3,114.1z"/>
		</g>
	</g>
</g>
</svg>
